<?xml version="1.0" encoding="iso-8859-1"?>
<!-- Generator: Adobe Illustrator 16.0.0, SVG Export Plug-In . SVG Version: 6.00 Build 0)  -->
<!DOCTYPE svg PUBLIC "-//W3C//DTD SVG 1.1//EN" "http://www.w3.org/Graphics/SVG/1.1/DTD/svg11.dtd">
<svg version="1.1" id="Capa_1" xmlns="http://www.w3.org/2000/svg" xmlns:xlink="http://www.w3.org/1999/xlink" x="0px" y="0px"
	 width="226.227px" height="226.227px" viewBox="0 0 226.227 226.227" style="enable-background:new 0 0 226.227 226.227;"
	 xml:space="preserve">
<g>
	<path d="M215.057,123.584c-1.443,0-2.801,0.407-4.043,1.175c-0.725-2.217-1.846-4.323-3.368-6.138
		c-2.24-2.68-5.157-4.546-8.378-5.532c3.221-0.962,6.113-2.85,8.378-5.532c1.522-1.809,2.644-3.909,3.368-6.122
		c1.242,0.742,2.6,1.16,4.043,1.16c3.945,0,7.35-2.798,8.403-4.701c3.032-5.508,3.543-11.079,1.51-16.611
		c-6.156-16.761-33.552-27.255-34.715-27.703c-0.104-0.037-0.2-0.012-0.304-0.024c-0.092-0.012-0.152-0.027-0.244-0.027
		c-0.359,0-0.712,0.088-0.992,0.32c-0.006,0.012-0.013,0-0.019,0.012l0,0c-0.006,0-0.006,0-0.006,0
		c-0.28,0.244-0.408,0.585-0.475,0.935c-0.019,0.1-0.019,0.155-0.013,0.268c0,0.112-0.042,0.207-0.019,0.308
		c2.302,10.68,1.699,16.428,0.11,21.759c-4.445,14.696-5.055,23.151,3.994,28.439c2.686,1.571,5.298,2.363,7.776,2.363
		c1.224,0,2.332-0.22,3.354-0.536c-2.289,1.927-5.078,3.093-8.099,3.325c-9.462,0.633-14.419-5.858-22.243-17.491
		c-1.577-2.35-3.075-4.844-4.567-7.383c-6.619-11.024-14.103-23.507-30.141-24.697c-6.809-0.548-13.178,1.702-17.981,6.296
		c-3.754,3.581-6.217,8.406-7.295,13.701c-1.078-5.325-3.541-10.121-7.295-13.701c-4.801-4.563-11.204-6.819-17.979-6.296
		c-16.048,1.203-23.531,13.673-30.135,24.71c-1.507,2.521-3.005,5.032-4.576,7.371c-7.837,11.615-12.732,18.17-22.241,17.491
		c-3.005-0.231-5.812-1.404-8.099-3.325c1.023,0.316,2.131,0.536,3.361,0.536c0,0,0,0,0.012,0c2.469,0,5.069-0.792,7.749-2.363
		c9.036-5.289,8.442-13.725,4.003-28.439c-1.607-5.331-2.207-11.067,0.106-21.759c0.024-0.101-0.018-0.195-0.018-0.308
		c0.006-0.113,0.006-0.168-0.012-0.268c-0.064-0.369-0.195-0.691-0.475-0.935c0,0,0,0-0.006,0l0,0c-0.006-0.012-0.012,0-0.019-0.012
		c-0.286-0.231-0.636-0.32-0.992-0.32c-0.085,0-0.149,0.015-0.244,0.027c-0.098,0.012-0.198-0.012-0.305,0.024
		C34.766,54.027,7.374,64.528,1.221,81.282c-2.034,5.532-1.522,11.104,1.507,16.611c1.062,1.902,4.46,4.701,8.406,4.701
		c1.44,0,2.801-0.399,4.04-1.16c0.725,2.213,1.845,4.308,3.374,6.122c2.238,2.683,5.151,4.552,8.381,5.532
		c-3.23,0.959-6.116,2.853-8.381,5.532c-1.528,1.803-2.649,3.921-3.374,6.138c-1.239-0.743-2.6-1.175-4.04-1.175
		c-3.946,0-7.344,2.807-8.406,4.713c-3.029,5.48-3.541,11.063-1.507,16.611c6.153,16.763,33.551,27.255,34.711,27.688
		c0.174,0.072,0.375,0.104,0.548,0.104c0.03,0,0.07,0,0.082,0c0.244,0,0.405-0.141,0.624-0.244c0.104-0.066,0.216-0.055,0.323-0.128
		c0.006-0.013,0.006-0.013,0.012-0.024c0.362-0.28,0.63-0.664,0.63-1.169c0-0.28-0.095-0.548-0.219-0.779
		c-2.201-10.4-1.583-16.052,0-21.3c4.448-14.712,5.051-23.151-3.982-28.449c-2.701-1.57-5.313-2.374-7.782-2.374
		c-1.23,0-2.338,0.207-3.361,0.548c2.29-1.937,5.075-3.103,8.099-3.322c9.472-0.667,14.416,5.849,22.25,17.503
		c1.571,2.338,3.06,4.816,4.57,7.361c6.61,11.01,14.084,23.492,30.136,24.71c0.648,0.049,1.272,0.073,1.906,0.073
		c6.098,0,11.749-2.229,16.069-6.369c3.754-3.568,6.217-8.403,7.294-13.701c1.087,5.328,3.55,10.133,7.295,13.701
		c4.336,4.141,10.005,6.369,16.063,6.369c0.651,0,1.267-0.024,1.918-0.073c16.039-1.218,23.522-13.688,30.142-24.697
		c1.491-2.533,2.989-5.036,4.566-7.374c7.837-11.631,12.787-18.121,22.244-17.503c3.002,0.219,5.809,1.416,8.104,3.322
		c-1.029-0.341-2.138-0.548-3.361-0.548c-2.466,0-5.078,0.804-7.77,2.374c-9.036,5.298-8.439,13.726-4.001,28.449
		c1.613,5.322,2.204,11.058-0.109,21.738c-0.024,0.121,0.019,0.207,0.019,0.316c-0.007,0.098-0.007,0.158,0.018,0.268
		c0.062,0.365,0.189,0.683,0.469,0.926c0,0,0,0,0.007,0v0.024c0.304,0.243,0.651,0.365,1.011,0.365c0.177,0,0.377-0.024,0.548-0.097
		c1.169-0.439,28.558-10.949,34.714-27.694c2.034-5.541,1.522-11.131-1.51-16.61C222.4,126.391,218.996,123.584,215.057,123.584z
		 M222.047,143.818c-0.22,0.603-0.615,1.15-0.896,1.729l-8.969-11.338c0.188-1.455,0.213-2.831,0.098-4.165l10.266,9.98
		c0.109,0.128,0.269,0.115,0.384,0.152C222.766,141.395,222.485,142.612,222.047,143.818z M188.721,129.855L188.721,129.855
		l19.918-1.468c0.152,1.169,0.226,2.362,0.115,3.55c-0.042,0.384,0.116,0.676,0.299,0.969l-20.697,1.741
		C188.216,132.771,188.38,131.237,188.721,129.855z M208.729,136.066c-0.341,1.431-0.804,2.91-1.395,4.445l-17.573,2.271
		c-0.45-1.863-0.791-3.496-1.041-5.043L208.729,136.066z M198.944,156.118l-6.187,0.876c-0.061-1.412-0.177-2.703-0.371-3.896
		l9.371-1.474C200.845,153.146,199.906,154.656,198.944,156.118z M203.73,148.153l-11.946,1.888
		c-0.159-0.651-0.348-1.279-0.524-1.888c-0.256-0.841-0.432-1.559-0.646-2.339l15.309-1.984
		C205.253,145.268,204.522,146.71,203.73,148.153z M192.752,160.137l3.824-0.536c-1.486,2.119-2.953,4.093-4.293,5.853
		C192.551,163.498,192.697,161.756,192.752,160.137z M199.042,161.52l0.085,3.501c-1.51,0.815-2.959,1.546-4.237,2.155
		C196.125,165.557,197.538,163.656,199.042,161.52z M202.062,157.434c0-0.086-0.098-0.135-0.116-0.22
		c0.811-1.242,1.62-2.533,2.418-3.86l1.76,7.478c-1.328,0.864-2.637,1.692-3.934,2.448L202.062,157.434z M206.617,149.371
		c0.597-1.084,1.156-2.168,1.681-3.264l4.433,9.56c0.036,0.062,0.109,0.098,0.128,0.146c-1.279,1.108-2.606,2.131-3.971,3.118
		L206.617,149.371z M220.731,129.801c1.145,2.046,1.772,4.092,2.083,6.15L213.602,127c0.469-0.146,0.938-0.305,1.449-0.305
		C217.681,126.701,220.11,128.692,220.731,129.801z M188.715,96.304c-0.335-1.391-0.499-2.938-0.384-4.801l20.703,1.738
		c-0.183,0.28-0.341,0.612-0.305,0.971c0.135,1.181,0.062,2.39-0.109,3.556L188.715,96.304
		C188.721,96.304,188.721,96.304,188.715,96.304z M222.047,82.317c0.433,1.203,0.719,2.438,0.889,3.653
		c-0.128,0.064-0.304,0.052-0.384,0.144l-10.266,9.977c0.134-1.315,0.109-2.719-0.098-4.165l8.97-11.322
		C221.426,81.188,221.815,81.736,222.047,82.317z M198.944,70.021c0.95,1.474,1.906,2.975,2.813,4.497l-9.371-1.458
		c0.177-1.172,0.311-2.469,0.371-3.885L198.944,70.021z M191.26,77.997c0.177-0.612,0.365-1.242,0.524-1.891l11.946,1.878
		c0.792,1.446,1.522,2.898,2.192,4.32l-15.309-1.97C190.828,79.544,191.004,78.837,191.26,77.997z M206.617,76.767l2.271-9.557
		c1.37,0.996,2.704,2.031,3.989,3.13c-0.037,0.061-0.128,0.088-0.146,0.144l-4.433,9.544
		C207.773,78.944,207.214,77.854,206.617,76.767z M204.376,72.785c-0.791-1.315-1.602-2.606-2.417-3.86
		c0.018-0.088,0.115-0.131,0.115-0.219l0.128-5.849c1.297,0.755,2.606,1.583,3.934,2.463L204.376,72.785z M199.042,64.641
		c-1.51-2.146-2.929-4.04-4.159-5.663c1.279,0.624,2.722,1.355,4.244,2.171L199.042,64.641z M196.582,66.537l-3.824-0.539
		c-0.061-1.607-0.188-3.346-0.45-5.3C193.641,62.458,195.09,64.415,196.582,66.537z M189.762,83.365l17.573,2.262
		c0.591,1.534,1.054,3.02,1.395,4.46l-20.009-1.689C188.971,86.875,189.312,85.228,189.762,83.365z M220.731,96.347
		c-0.621,1.111-3.032,3.093-5.675,3.093c-0.499,0-0.969-0.143-1.438-0.32l9.226-8.954C222.504,92.243,221.858,94.301,220.731,96.347
		z M219.55,77.598l-8.201,10.361c-0.384-1.352-0.841-2.731-1.389-4.113l5.249-11.298C216.847,74.137,218.339,75.808,219.55,77.598z
		 M193.842,102.844c-1.626-0.947-2.868-2.019-3.763-3.324l17.232,1.291c-1.432,1.827-3.794,3.973-7.253,3.973
		C198.129,104.777,196.046,104.135,193.842,102.844z M137.523,110.817c0.079-2.375,0.603-7.206,3.61-10.181
		c3.039-2.987,7.971-3.422,10.23-3.462c-0.079,2.378-0.609,7.21-3.617,10.184C144.702,110.358,139.776,110.781,137.523,110.817z
		 M147.747,118.791c3.008,2.979,3.538,7.795,3.617,10.169c-2.253-0.024-7.186-0.462-10.23-3.458
		c-3.008-2.972-3.531-7.807-3.61-10.182C139.776,115.357,144.702,115.802,147.747,118.791z M134.405,111.512h-4.883h-14.685
		c-0.871,0-1.559,0.703-1.559,1.559c0,0.865,0.688,1.559,1.559,1.559h14.678h4.884c-0.006,0.511,0.006,1.172,0.079,1.994
		c-5.577,0.11-10.902,2.132-15.019,6.017c-3.206,3.021-5.368,6.819-6.378,10.997c-1.011-4.178-3.188-7.971-6.378-10.997
		c-4.104-3.885-9.423-5.906-15.016-6.017c0.07-0.828,0.083-1.482,0.076-1.994h4.88h14.684c0.868,0,1.559-0.694,1.559-1.559
		c0-0.855-0.691-1.559-1.559-1.559H96.644h-4.893c0.006-0.499-0.006-1.16-0.076-1.985c5.593-0.097,10.9-2.143,15.016-6.016
		c3.209-3.018,5.368-6.832,6.378-11.013c1.011,4.181,3.19,7.989,6.378,11.013c4.116,3.873,9.466,5.918,15.013,6.016
		C134.412,110.358,134.399,111.013,134.405,111.512z M88.615,115.32c-0.076,2.375-0.6,7.21-3.611,10.182
		c-3.039,2.996-7.971,3.434-10.227,3.458c0.076-2.374,0.606-7.203,3.617-10.169C81.436,115.802,86.362,115.357,88.615,115.32z
		 M78.4,107.359c-3.011-2.974-3.541-7.806-3.617-10.184c2.25,0.04,7.182,0.475,10.227,3.462c3.011,2.975,3.535,7.806,3.611,10.181
		C86.362,110.781,81.436,110.358,78.4,107.359z M4.101,82.317c0.219-0.612,0.612-1.16,0.892-1.714l8.973,11.335
		c-0.195,1.446-0.219,2.837-0.101,4.152L3.602,86.114c-0.113-0.113-0.268-0.098-0.387-0.144C3.37,84.756,3.653,83.538,4.101,82.317z
		 M37.415,96.304L37.415,96.304L17.5,97.787c-0.162-1.179-0.226-2.375-0.119-3.565c0.037-0.368-0.113-0.694-0.292-0.975
		l20.694-1.726C37.92,93.366,37.759,94.913,37.415,96.304z M17.405,90.093c0.344-1.428,0.807-2.914,1.397-4.46l17.57-2.262
		c0.457,1.878,0.795,3.504,1.042,5.057L17.405,90.093z M27.203,70.021l6.171-0.865c0.064,1.413,0.188,2.704,0.38,3.885l-9.365,1.47
		C25.294,72.989,26.229,71.494,27.203,70.021z M22.408,77.985l11.947-1.878c0.162,0.648,0.351,1.278,0.524,1.891
		c0.256,0.84,0.429,1.547,0.648,2.338l-15.308,1.97C20.886,80.883,21.616,79.438,22.408,77.985z M33.387,65.998l-3.821,0.539
		c1.483-2.109,2.944-4.08,4.29-5.839C33.582,62.652,33.438,64.397,33.387,65.998z M27.097,64.641l-0.088-3.504
		c1.516-0.804,2.962-1.535,4.241-2.146C30.013,60.582,28.601,62.494,27.097,64.641z M24.085,68.705c0,0.088,0.094,0.131,0.113,0.219
		c-0.813,1.254-1.623,2.545-2.415,3.86l-1.763-7.465c1.327-0.88,2.636-1.689,3.934-2.451L24.085,68.705z M19.521,76.767
		c-0.594,1.087-1.154,2.183-1.678,3.261l-4.433-9.544c-0.04-0.076-0.131-0.089-0.152-0.144c1.285-1.099,2.622-2.134,3.991-3.13
		L19.521,76.767z M32.291,102.844c-2.195,1.291-4.278,1.939-6.187,1.939h-0.006c-3.434,0-5.824-2.146-7.252-3.973l17.223-1.291
		C35.158,100.816,33.91,101.891,32.291,102.844z M10.93,72.529l5.249,11.311c-0.548,1.388-1.005,2.749-1.392,4.101L6.588,77.592
		C7.797,75.808,9.301,74.137,10.93,72.529z M5.41,96.347c-1.148-2.046-1.778-4.104-2.083-6.159l9.21,8.951
		c-0.469,0.158-0.935,0.308-1.446,0.308C8.46,99.446,6.028,97.458,5.41,96.347z M37.42,129.855c0.338,1.406,0.5,2.941,0.387,4.805
		l-20.712-1.724c0.18-0.311,0.344-0.627,0.292-0.975c-0.113-1.199-0.049-2.399,0.131-3.574L37.42,129.855
		C37.415,129.855,37.415,129.855,37.42,129.855z M4.101,143.818c-0.441-1.2-0.725-2.424-0.892-3.642
		c0.131-0.062,0.305-0.049,0.387-0.152l10.263-9.98c-0.131,1.315-0.112,2.71,0.101,4.165l-8.972,11.338
		C4.707,144.963,4.32,144.414,4.101,143.818z M27.203,156.118c-0.956-1.462-1.909-2.983-2.813-4.494l9.365,1.462
		c-0.173,1.175-0.316,2.466-0.38,3.896L27.203,156.118z M34.878,148.153c-0.173,0.608-0.362,1.229-0.524,1.888l-11.947-1.888
		c-0.792-1.443-1.522-2.886-2.189-4.323l15.308,1.984C35.308,146.595,35.134,147.312,34.878,148.153z M19.521,149.371l-2.271,9.566
		c-1.364-0.986-2.694-2.01-3.97-3.118c0.036-0.067,0.109-0.104,0.131-0.14l4.433-9.561
		C18.374,147.203,18.928,148.293,19.521,149.371z M21.771,153.354c0.792,1.327,1.595,2.618,2.414,3.86
		c-0.021,0.085-0.112,0.134-0.112,0.22l-0.131,5.846c-1.297-0.756-2.606-1.584-3.937-2.448L21.771,153.354z M27.097,161.52
		c1.504,2.143,2.917,4.037,4.152,5.645c-1.278-0.609-2.725-1.34-4.241-2.156L27.097,161.52z M29.565,159.601l3.803,0.536
		c0.07,1.607,0.201,3.361,0.469,5.316C32.491,163.693,31.048,161.72,29.565,159.601z M36.373,142.783l-17.57-2.271
		c-0.59-1.535-1.053-3.002-1.397-4.445l20.009,1.687C37.168,139.275,36.836,140.92,36.373,142.783z M5.41,129.801
		c0.618-1.108,3.029-3.1,5.675-3.1c0.512,0,0.965,0.152,1.434,0.305l-9.222,8.969C3.632,133.893,4.28,131.847,5.41,129.801z
		 M6.588,148.549l8.199-10.363c0.387,1.37,0.843,2.734,1.392,4.128l-5.249,11.308C9.301,152.014,7.797,150.352,6.588,148.549z
		 M32.296,123.315c1.629,0.944,2.868,2.016,3.766,3.307l-17.235-1.291c1.428-1.814,3.794-3.97,7.252-3.97
		C28.013,121.361,30.095,122.024,32.296,123.315z M103.741,156.331c1.833-3.77,1.845-7.886-0.192-12.026
		c-1.416-2.85-3.836-4.993-6.859-6.016c-3.026-1.023-6.235-0.828-9.109,0.584c-4.872,2.43-6.884,8.349-4.485,13.189
		c1.994,4.043,6.89,5.736,10.982,3.732c3.379-1.674,4.78-5.791,3.124-9.188c-0.237-0.487-0.7-0.706-1.193-0.779
		c-0.347-0.256-0.728-0.463-1.172-0.56c-1.62-0.354-3.203,0.657-3.528,2.277c-0.354,1.595,0.661,3.19,2.265,3.52
		c0.298,0.072,0.584,0.048,0.877,0.012c-0.341,0.791-0.911,1.498-1.739,1.924c-2.487,1.23-5.574,0.207-6.795-2.313
		c-1.653-3.325-0.268-7.368,3.054-9.013c2.11-1.035,4.509-1.187,6.723-0.432c2.213,0.749,4.028,2.338,5.063,4.457
		c2.761,5.596,0.874,11.052-5.361,15.357c-0.024,0.012-0.019,0.066-0.046,0.078c-2.317,0.646-4.762,0.969-7.307,0.805
		c-14.428-1.115-21.175-12.343-27.684-23.23c-1.541-2.569-3.063-5.084-4.67-7.472c-5.693-8.464-10.781-15.898-18.618-18.136
		c7.831-2.226,12.93-9.709,18.618-18.146c1.607-2.387,3.13-4.932,4.67-7.486C66.871,76.605,73.611,65.35,88.04,64.254
		c2.545-0.195,4.99,0.131,7.307,0.804c0.027,0.012,0.021,0.049,0.046,0.076c6.235,4.29,8.141,9.739,5.361,15.356
		c-1.035,2.107-2.837,3.69-5.063,4.445s-4.601,0.6-6.71-0.423c-3.334-1.659-4.719-5.7-3.066-9.024
		c1.215-2.506,4.29-3.528,6.795-2.311c0.837,0.411,1.416,1.12,1.739,1.924c-0.292-0.024-0.579-0.049-0.877,0.027
		c-1.604,0.341-2.619,1.924-2.265,3.517c0.356,1.607,1.927,2.631,3.528,2.274c0.438-0.098,0.837-0.316,1.172-0.572
		c0.493-0.076,0.95-0.292,1.188-0.779c1.662-3.386,0.256-7.502-3.133-9.186c-4.064-1.982-8.966-0.317-10.979,3.729
		c-2.402,4.856-0.387,10.781,4.497,13.198c1.668,0.819,3.446,1.218,5.249,1.218c1.291,0,2.594-0.207,3.854-0.648
		c3.011-1.035,5.444-3.169,6.851-6.016c2.04-4.141,2.034-8.257,0.201-12.036c4.558,4.445,7.07,10.961,6.866,17.951
		c-0.143,5.151-2.314,9.94-6.068,13.469c-3.635,3.422-8.442,5.188-13.323,5.2c-0.563-2.67-1.684-5.711-4.021-8.026
		c-3.861-3.772-9.609-4.344-12.69-4.344c-0.892,0-1.422,0.048-1.422,0.048c-0.755,0.085-1.361,0.667-1.422,1.428
		c-0.037,0.38-0.612,8.972,4.527,14.029c0.722,0.715,1.565,1.215,2.405,1.714c-6.622-0.667-11.847-5.903-12.538-12.532
		c0.792-0.563,1.346-1.437,1.346-2.484c0-1.687-1.382-3.09-3.081-3.09c-1.714,0-3.09,1.404-3.09,3.09
		c0,1.218,0.703,2.253,1.732,2.752c0.511,5.16,3.249,9.682,7.313,12.482H59.908c-0.539-0.904-1.486-1.534-2.621-1.534
		c-1.696,0-3.09,1.392-3.09,3.093c0,1.714,1.395,3.096,3.09,3.096c1.135,0,2.083-0.639,2.621-1.537h10.361
		c-4.052,2.798-6.802,7.322-7.313,12.485c-1.029,0.5-1.732,1.535-1.732,2.746c0,1.699,1.376,3.105,3.09,3.105
		c1.699,0,3.081-1.406,3.081-3.105c0-1.047-0.554-1.942-1.346-2.466c0.661-6.638,5.903-11.861,12.538-12.55
		c-0.84,0.5-1.678,1.011-2.399,1.717c-5.127,5.061-4.545,13.646-4.533,14.029c0.061,0.762,0.648,1.377,1.422,1.432
		c0,0,0.53,0.049,1.422,0.049c3.081,0,8.829-0.561,12.69-4.348c2.338-2.302,3.458-5.347,4.021-8.025
		c4.893-0.024,9.694,1.79,13.323,5.212c3.754,3.52,5.906,8.317,6.068,13.47C110.816,145.353,108.292,151.88,103.741,156.331z
		 M170.472,131.213c-1.607,2.387-3.136,4.933-4.677,7.502c-6.515,10.863-13.256,22.104-27.681,23.2
		c-2.558,0.183-5-0.159-7.301-0.804c-0.031-0.013-0.024-0.049-0.049-0.062c-6.235-4.299-8.145-9.755-5.353-15.368
		c1.035-2.107,2.825-3.703,5.06-4.445c2.223-0.756,4.609-0.609,6.717,0.414c3.324,1.668,4.713,5.699,3.057,9.006
		c-1.218,2.502-4.293,3.525-6.783,2.313c-0.847-0.396-1.425-1.126-1.754-1.918c0.299,0.024,0.585,0.049,0.883-0.013
		c1.62-0.341,2.618-1.936,2.266-3.525c-0.348-1.625-1.931-2.631-3.532-2.259c-0.438,0.098-0.834,0.305-1.169,0.572
		c-0.487,0.085-0.943,0.28-1.188,0.768c-1.674,3.386-0.262,7.514,3.13,9.206c4.08,1.974,8.97,0.317,10.985-3.75
		c2.398-4.835,0.383-10.784-4.5-13.189c-2.856-1.406-6.09-1.62-9.104-0.585c-2.996,1.023-5.443,3.167-6.848,6.017
		c-2.043,4.141-2.036,8.257-0.203,12.032c-4.546-4.458-7.085-10.973-6.866-17.964c0.144-5.139,2.302-9.938,6.068-13.457
		c3.635-3.445,8.33-5.272,13.323-5.212c0.565,2.68,1.687,5.712,4.03,8.014c3.849,3.8,9.597,4.359,12.69,4.359
		c0.877,0,1.406-0.048,1.406-0.048c0.755-0.08,1.357-0.658,1.425-1.438c0.024-0.378,0.615-8.963-4.53-14.012
		c-0.725-0.718-1.564-1.217-2.405-1.729c6.619,0.682,11.861,5.918,12.538,12.549c-0.792,0.549-1.346,1.426-1.346,2.467
		c0,1.699,1.382,3.105,3.093,3.105c1.699,0,3.094-1.406,3.094-3.105c0-1.212-0.719-2.234-1.748-2.746
		c-0.512-5.164-3.245-9.688-7.313-12.486h10.364c0.548,0.904,1.498,1.538,2.618,1.538c1.699,0,3.094-1.383,3.094-3.097
		c0-1.705-1.395-3.081-3.094-3.081c-1.12,0-2.07,0.624-2.618,1.522h-10.364c4.068-2.801,6.802-7.322,7.313-12.483
		c1.029-0.5,1.748-1.535,1.748-2.752c0-1.702-1.395-3.09-3.094-3.09c-1.711,0-3.093,1.388-3.093,3.09
		c0,1.047,0.554,1.927,1.346,2.484c-0.67,6.619-5.895,11.858-12.525,12.531c0.828-0.499,1.662-0.998,2.387-1.714
		c5.127-5.045,4.555-13.648,4.536-14.029c-0.067-0.755-0.651-1.367-1.425-1.428c0,0-0.529-0.064-1.406-0.064
		c-3.094,0-8.842,0.588-12.69,4.36c-2.351,2.313-3.471,5.355-4.03,8.025c-4.976-0.016-9.688-1.778-13.323-5.2
		c-3.767-3.544-5.907-8.318-6.068-13.469c-0.219-6.99,2.29-13.518,6.866-17.951c-1.833,3.766-1.846,7.879,0.186,12.008
		c1.422,2.862,3.839,5.008,6.865,6.043c1.261,0.411,2.558,0.636,3.854,0.636c1.796,0,3.587-0.387,5.255-1.218
		c4.871-2.427,6.887-8.33,4.494-13.186c-1.985-4.028-6.887-5.724-10.991-3.73c-3.386,1.684-4.798,5.8-3.124,9.198
		c0.244,0.475,0.7,0.703,1.188,0.767c0.348,0.269,0.73,0.472,1.169,0.573c1.62,0.356,3.203-0.667,3.532-2.274
		c0.353-1.611-0.664-3.194-2.266-3.532c-0.298-0.061-0.584-0.036-0.87-0.012c0.335-0.804,0.907-1.483,1.741-1.912
		c2.49-1.218,5.565-0.207,6.795,2.298c1.645,3.325,0.269,7.371-3.062,9.024c-2.113,1.035-4.5,1.179-6.723,0.424
		c-2.216-0.755-4.024-2.339-5.06-4.445c-2.773-5.599-0.883-11.055,5.353-15.372c0.024-0.024,0.018-0.049,0.049-0.073
		c2.308-0.648,4.755-0.986,7.301-0.792c14.425,1.096,21.172,12.328,27.681,23.188c1.541,2.582,3.063,5.127,4.677,7.514
		c5.693,8.442,10.796,15.92,18.627,18.158C181.262,115.345,176.165,122.749,170.472,131.213z M193.848,123.315
		c2.198-1.291,4.281-1.942,6.193-1.942c3.434,0,5.821,2.156,7.252,3.971l-17.221,1.291
		C190.979,125.331,192.229,124.26,193.848,123.315z M215.209,153.621l-5.249-11.308c0.548-1.406,1.005-2.746,1.389-4.116
		l8.201,10.352C218.339,150.352,216.847,152.014,215.209,153.621z"/>
</g>
<g>
</g>
<g>
</g>
<g>
</g>
<g>
</g>
<g>
</g>
<g>
</g>
<g>
</g>
<g>
</g>
<g>
</g>
<g>
</g>
<g>
</g>
<g>
</g>
<g>
</g>
<g>
</g>
<g>
</g>
</svg>
