<?xml version="1.0" encoding="iso-8859-1"?>
<!-- Generator: Adobe Illustrator 16.0.0, SVG Export Plug-In . SVG Version: 6.00 Build 0)  -->
<!DOCTYPE svg PUBLIC "-//W3C//DTD SVG 1.1//EN" "http://www.w3.org/Graphics/SVG/1.1/DTD/svg11.dtd">
<svg version="1.1" id="Capa_1" xmlns="http://www.w3.org/2000/svg" xmlns:xlink="http://www.w3.org/1999/xlink" x="0px" y="0px"
	 width="155.63px" height="155.63px" viewBox="0 0 155.63 155.63" style="enable-background:new 0 0 155.63 155.63;"
	 xml:space="preserve">
<g>
	<g>
		<path d="M25.284,33.674c3.499,0.135,6.436,1.094,7.673,2.505c0.994,1.118,2.694,1.226,3.812,0.242
			c1.118-0.988,1.226-2.694,0.243-3.812c-2.278-2.586-6.365-4.132-11.512-4.329c-6.038-0.267-11.517,1.444-14.699,4.529
			c-1.532,1.49-2.336,3.148-2.32,4.794c0.063,7.66,15.938,7.691,17.755,7.739c8.477-0.074,21.265-4.751,21.205-11.62
			c-0.061-7.146-9.266-12.35-21.621-12.361c-6.718,0.061-13.004,1.463-17.708,3.958C2.843,28.115-0.036,32.042,0,36.384
			l0.185,21.492c0.058,6.848,2.653,13.269,7.306,18.086c4.319,4.472,9.951,6.961,15.963,7.303
			c0.438,13.189,6.463,24.971,15.81,33.049c0.124,0.116,0.251,0.222,0.375,0.338c0.237,0.2,0.475,0.4,0.717,0.591
			c10.595,9.36,26.051,15.973,46.219,16.896c2.115,0.096,4.15,0.132,6.117,0.132c27.359,0,42.521-8.774,50.53-16.432
			c7.995-7.646,12.408-17.418,12.408-27.512c0-1.481-1.207-2.7-2.699-2.7c-1.493,0-2.7,1.219-2.7,2.7
			c0,8.479-3.913,17.075-10.742,23.604c-7.82,7.488-23.293,16.126-52.671,14.797c-4.693-0.211-9.104-0.76-13.242-1.582
			c18.114-2.193,32.226-17.455,32.589-36.065c0.738,0.343,1.52,0.644,2.373,0.886c1.276,0.364,2.474,0.544,3.634,0.544
			c6.196,0,10.193-4.926,14.987-13.427c1.851-3.279,4.393-6.283,10.831-10.241c0.834-0.522,1.335-1.458,1.271-2.447
			c-0.053-0.986-0.644-1.867-1.524-2.289c-0.521-0.248-12.672-5.982-23.847-5.982c-10.652,0-15.329,5.152-17.392,10.094
			c-4.836-4.504-11.132-7.436-18.117-7.987c-0.411-1.945-1.35-3.749-2.781-5.199c-3.958-4.023-10.913-4.1-14.958-0.137
			c-4.153,4.095-4.211,10.8-0.129,14.958c2.009,2.041,4.688,3.164,7.549,3.164c2.787,0,5.416-1.073,7.403-3.035
			c1.227-1.208,2.081-2.671,2.598-4.267c12.703,1.087,22.729,11.644,22.729,24.622c0,17.486-14.223,31.715-31.715,31.715
			c-9.632,0-18.478-3.407-25.423-9.076c-9.482-8.464-14.465-19.316-14.821-30.021c5.113-0.881,9.822-3.349,13.516-7.299
			c4.567-4.896,7.056-11.364,6.998-18.211l-0.071-8.213c-0.005-0.907-0.469-1.746-1.231-2.241c-0.765-0.496-1.722-0.572-2.547-0.211
			c-0.211,0.092-21.049,8.959-33.739,0.406c-1.237-0.833-2.916-0.515-3.747,0.728c-0.833,1.236-0.509,2.916,0.728,3.749
			c11.686,7.884,27.912,3.897,35.171,1.466l0.037,4.364c0.047,5.455-1.922,10.597-5.545,14.473
			c-3.586,3.845-8.372,5.98-13.468,6.018c-5.055,0.042-9.919-2.01-13.571-5.791c-3.687-3.813-5.74-8.915-5.788-14.375L5.39,36.324
			c-0.016-2.191,1.89-4.469,5.245-6.247c3.947-2.102,9.352-3.28,15.216-3.327c9.244-0.063,16.152,3.639,16.184,7.008
			c0.011,1.686-7.512,6.104-15.85,6.178c-7.156-0.092-11.794-1.674-12.311-2.315C14.107,36.566,18.02,33.381,25.284,33.674z
			 M71.688,66.132c-1.967,1.938-5.374,1.912-7.312-0.068c-1.999-2.03-1.967-5.316,0.063-7.32c0.973-0.955,2.257-1.479,3.617-1.479
			c1.406,0,2.716,0.556,3.7,1.556c0.967,0.983,1.49,2.291,1.479,3.673C73.225,63.869,72.674,65.167,71.688,66.132z M101.029,71.511
			c1.677-5.374,5.88-7.986,12.867-7.986c6.075,0,12.709,2.02,16.985,3.596c-3.844,2.872-6.412,5.75-8.432,9.321
			c-5.374,9.523-7.811,11.649-12.451,10.341c-2.094-0.596-3.485-1.566-4.14-2.89c-0.591-1.202-0.559-2.526-0.385-3.538
			c3.195-7.618,8.98-7.483,9.286-7.462c1.467,0.026,2.769-1.016,2.874-2.484c0.116-1.484-0.996-2.792-2.479-2.905
			c-0.369-0.021-7.825-0.485-12.835,7.259c-0.232-0.129-0.448-0.298-0.628-0.541C100.977,73.248,100.929,71.867,101.029,71.511z"/>
	</g>
</g>
<g>
</g>
<g>
</g>
<g>
</g>
<g>
</g>
<g>
</g>
<g>
</g>
<g>
</g>
<g>
</g>
<g>
</g>
<g>
</g>
<g>
</g>
<g>
</g>
<g>
</g>
<g>
</g>
<g>
</g>
</svg>
