<?xml version="1.0" encoding="iso-8859-1"?>
<!-- Generator: Adobe Illustrator 16.0.0, SVG Export Plug-In . SVG Version: 6.00 Build 0)  -->
<!DOCTYPE svg PUBLIC "-//W3C//DTD SVG 1.1//EN" "http://www.w3.org/Graphics/SVG/1.1/DTD/svg11.dtd">
<svg version="1.1" id="Capa_1" xmlns="http://www.w3.org/2000/svg" xmlns:xlink="http://www.w3.org/1999/xlink" x="0px" y="0px"
	 width="229.63px" height="229.631px" viewBox="0 0 229.63 229.631" style="enable-background:new 0 0 229.63 229.631;"
	 xml:space="preserve">
<g>
	<g>
		<path d="M160.06,58.899c0.925,2.387,2.338,4.631,4.262,6.558c3.63,3.617,8.446,5.599,13.555,5.599
			c5.115,0,9.932-1.982,13.549-5.605c7.459-7.472,7.459-19.622,0-27.091c-1.76-1.754-3.837-3.057-6.071-3.961
			c-0.45-0.393-1.023-0.648-1.645-0.648c-0.097,0-0.183,0.042-0.279,0.055c-3.642-1.047-7.539-1.041-11.18,0.027
			c-0.135-0.027-0.238-0.082-0.378-0.082c-0.712,0-1.352,0.323-1.814,0.816c-2.106,0.898-4.073,2.14-5.748,3.793
			c-1.79,1.799-3.13,3.87-4.05,6.083c-0.322,0.408-0.529,0.91-0.529,1.468c0,0.024,0.012,0.049,0.012,0.079
			c-1.26,3.873-1.254,8.038,0.019,11.91C159.792,58.275,159.901,58.585,160.06,58.899z M186.194,40.504
			c0.598,0.423,1.176,0.868,1.693,1.392c0.475,0.472,0.853,1.001,1.242,1.519h-2.936V40.504L186.194,40.504z M186.194,48.411h5.335
			c0.572,2.244,0.597,4.576,0.048,6.835h-5.383V48.411z M186.194,60.232h3.069c-0.414,0.585-0.853,1.172-1.382,1.69
			c-0.518,0.511-1.103,0.929-1.688,1.364V60.232L186.194,60.232z M174.375,38.232c1.139-0.286,2.295-0.478,3.489-0.478
			c1.156,0,2.265,0.167,3.349,0.435v5.224h-6.838V38.232z M174.375,48.411h6.838v6.835h-6.838V48.411z M174.375,60.227l6.838,0.006
			v5.286c-2.241,0.518-4.585,0.493-6.838-0.049V60.227z M169.388,63.162c-0.529-0.384-1.065-0.767-1.54-1.233
			c-0.53-0.524-0.956-1.118-1.383-1.69h2.923V63.162z M167.854,41.896c0.475-0.476,1.011-0.868,1.54-1.267v2.785h-2.782
			C167.007,42.896,167.378,42.367,167.854,41.896z M164.207,48.411h5.182v6.835h-5.236C163.616,52.986,163.64,50.648,164.207,48.411
			z"/>
		<path d="M0,65.938c0,1.376,1.118,2.487,2.494,2.487c0,0,0,0,0.006,0l83.915-0.207c0.892,3.912,2.344,7.721,4.396,11.362
			L2.533,79.779c-1.379,0.006-2.491,1.136-2.491,2.502c0,1.364,1.118,2.476,2.497,2.476l0,0l91.62-0.219
			c6.723,8.467,16.761,13.088,27.015,13.088c2.887,0,5.772-0.426,8.61-1.172l-11.92,11.913c-0.971,0.975-0.971,2.558,0,3.532
			c0.487,0.478,1.124,0.721,1.763,0.721c0.651,0,1.279-0.244,1.766-0.721l11.917-11.917c-3.422,13.311,1.333,27.791,12.915,36.291
			v90.777c0,1.377,1.114,2.497,2.484,2.497c1.389,0,2.496-1.12,2.496-2.497v-87.646c3.617,1.918,7.417,3.264,11.369,4.055v83.574
			c0,1.382,1.114,2.479,2.49,2.479c1.364,0,2.49-1.121,2.49-2.479v-82.88c1.103,0.098,2.211,0.243,3.318,0.243
			c2.789,0,5.603-0.273,8.403-0.84c10.656-2.131,19.875-8.153,26.171-16.939c1.577,1.181,3.544,2.362,6.06,2.362l0,0
			c2.313,0,4.634-1.035,6.887-3.069c0.578-0.512,1.047-1.12,1.559-1.76c1.229-1.583,2.49-3.233,7.733-4.402
			c0.853-0.183,1.547-0.822,1.814-1.671c0.28-0.828,0.104-1.732-0.487-2.412c-0.128-0.137-2.631-2.986-7.003-4.223
			c0.256-0.661,0.438-1.285,0.621-1.857c0.579-1.902,0.901-2.938,2.612-3.896c0.804-0.451,1.298-1.304,1.279-2.226
			c-0.019-0.911-0.542-1.754-1.37-2.171c-0.28-0.144-2.874-1.416-6.168-1.416c-2.99,0-5.621,1.06-7.716,3.048
			c-2.289-3.547-5.407-5.118-5.59-5.212c-0.791-0.387-1.717-0.323-2.466,0.152c-0.736,0.472-1.163,1.31-1.126,2.187
			c0.219,5.37-1.042,7.026-2.26,8.619c-0.493,0.648-0.956,1.27-1.303,1.951c-3.574,6.957,0.183,10.796,2.917,12.892
			c-5.554,7.842-13.688,13.225-23.151,15.125c-9.627,1.912-19.388,0.03-27.603-5.273c-0.316-0.426-0.748-0.768-1.278-0.92
			c-6.32-4.536-10.395-11.094-11.807-18.252c1.692,2.606,3.885,4.887,6.558,6.658c4.816,3.234,10.272,4.769,15.649,4.769
			c6.175,0,12.209-2.083,17.056-5.968c1.041,0.365,2.71,0.834,4.591,0.834c1.663,0,3.435-0.371,5.006-1.461
			c2.789-1.964,4-5.617,3.531-11.305c-0.158-1.945-0.487-5.541,1.097-8.82c0.432-0.913,0.279-2.003-0.396-2.752
			c-0.676-0.746-1.747-1.029-2.697-0.661c-1.474,0.536-14.486,5.444-16.325,13.57c-0.396,1.775-0.298,4.308,1.492,7.133
			c-7.398,5.544-17.927,6.104-26.244,0.566c-3.971-2.648-6.687-6.622-7.666-11.204c-0.7-3.249-0.421-6.525,0.7-9.508
			c0.614-1.291,1.205-2.594,2.021-3.818c0-0.006,0-0.006,0-0.012c4.152-5.754,12.336-7.176,18.486-3.069
			c4.811,3.2,6.187,9.584,3.094,14.23c-2.326,3.486-7.155,4.345-10.778,1.946c-1.157-0.767-2.691-0.463-3.458,0.679
			c-0.768,1.142-0.457,2.706,0.682,3.474c5.895,3.934,13.834,2.451,17.695-3.337c4.615-6.927,2.605-16.429-4.47-21.163
			c-3.672-2.441-7.867-3.367-11.923-3.047l4.628-4.627c0.354,0.575,0.725,1.135,1.212,1.622c1.011,1.011,2.259,1.763,3.629,2.144
			c1.59,0.469,3.318,0.427,4.865-0.055c0.768,1.44,1.937,2.673,3.397,3.492c2.595,1.428,6.071,1.376,8.653-0.302
			c1.352,0.874,2.94,1.361,4.572,1.361c1.432,0,2.838-0.381,4.068-1.06c1.467-0.813,2.643-2.034,3.397-3.492
			c1.559,0.493,3.307,0.523,4.859,0.061c1.339-0.387,2.594-1.108,3.665-2.156c1.157-1.172,1.925-2.612,2.26-4.171
			c1.559-0.344,2.989-1.124,4.171-2.271c1.017-1.005,1.729-2.219,2.149-3.629c0.463-1.62,0.42-3.304-0.067-4.862
			c1.449-0.767,2.691-1.945,3.508-3.419c0.657-1.196,1.022-2.6,1.047-4.059c0-1.653-0.475-3.236-1.352-4.563
			c0.864-1.352,1.34-2.938,1.34-4.564c0-1.428-0.348-2.801-1.048-4.077c-0.81-1.461-2.046-2.634-3.495-3.389
			c0.493-1.559,0.53-3.249,0.073-4.85c-0.377-1.358-1.12-2.612-2.149-3.641c-1.175-1.166-2.612-1.945-4.177-2.277
			c-0.348-1.571-1.127-3.023-2.296-4.202c-1.011-0.999-2.266-1.732-3.611-2.119c-1.601-0.475-3.318-0.438-4.877,0.055
			c-0.755-1.435-1.918-2.667-3.373-3.483c-1.23-0.682-2.644-1.05-4.104-1.062c-1.638,0-3.221,0.475-4.555,1.355
			c-2.563-1.647-6.004-1.778-8.659-0.292c-1.455,0.804-2.63,2.031-3.385,3.483c-1.535-0.487-3.246-0.524-4.884-0.062
			c-1.413,0.411-2.667,1.167-3.599,2.132c-1.176,1.172-1.967,2.618-2.302,4.189c-1.565,0.344-3.015,1.136-4.201,2.295
			c-0.987,0.999-1.699,2.208-2.132,3.636c-0.456,1.635-0.42,3.3,0.073,4.844c-1.443,0.755-2.673,1.939-3.501,3.413
			c-0.7,1.291-1.048,2.673-1.035,4.046c0,1.666,0.475,3.236,1.339,4.57c-0.876,1.346-1.352,2.929-1.352,4.563
			c0,1.428,0.372,2.825,1.048,4.064c0.815,1.474,2.046,2.646,3.501,3.407c-0.499,1.559-0.536,3.248-0.067,4.825
			c0.378,1.376,1.114,2.637,2.144,3.672c0.523,0.518,1.121,0.929,1.729,1.291l-4.713,4.713c0.341-4.083-0.585-8.336-3.051-12.05
			c-2.283-3.425-5.729-5.776-9.725-6.625c-4.013-0.846-8.062-0.085-11.423,2.171c-2.746,1.827-4.64,4.64-5.292,7.925
			c-0.679,3.385,0.013,6.859,1.942,9.751c0.78,1.166,2.326,1.446,3.472,0.688c1.145-0.761,1.449-2.308,0.682-3.462
			c-1.188-1.802-1.632-3.939-1.206-6.016c0.39-1.967,1.511-3.66,3.167-4.759c2.229-1.482,4.926-2.006,7.623-1.428
			c2.704,0.578,5.048,2.188,6.613,4.527c4.092,6.141,2.691,14.31-3.057,18.474c-0.013,0.012-0.024,0.012-0.037,0.012
			c-1.224,0.819-2.521,1.428-3.812,2.034c-7.368,2.73-16.042,0.036-20.718-6.979c-3.462-5.176-4.707-11.335-3.504-17.363
			c0.654-3.276,2.07-6.25,4.01-8.829c1.939,1.251,3.754,1.674,5.271,1.674c0.706,0,1.357-0.091,1.924-0.216
			c8.123-1.842,13.03-14.848,13.566-16.312c0.341-0.947,0.073-2.019-0.676-2.713c-0.743-0.661-1.845-0.834-2.746-0.387
			c-3.264,1.571-6.734,1.279-9.28,1.06c-5.215-0.411-8.896,0.779-10.866,3.581c-2.399,3.398-1.285,7.746-0.603,9.669
			c-2.664,3.312-4.615,7.179-5.474,11.523c-1.461,7.326,0.042,14.821,4.244,21.114c1.86,2.786,4.29,4.911,6.942,6.598
			c-7.554-1.419-14.553-5.711-19.15-12.592c-11.268-16.891-6.938-39.667,9.529-51.319c1.544,2.043,3.76,4.42,7.557,4.42
			c1.684,0,3.435-0.469,5.355-1.455c0.676-0.359,1.297-0.798,1.942-1.297c1.479-1.133,3.002-2.28,7.514-2.28l1.108,0.03
			c0.779,0.113,1.699-0.387,2.192-1.142s0.536-1.678,0.146-2.469c-0.086-0.162-1.645-3.279-5.2-5.586
			c1.15-1.173,1.967-2.558,2.472-4.095c1.607-4.859-0.742-9.584-0.84-9.792c-0.414-0.816-1.255-1.34-2.18-1.376
			c-0.743-0.07-1.778,0.466-2.223,1.275c-0.956,1.711-2.004,2.028-3.892,2.615c-0.572,0.174-1.193,0.375-1.856,0.63
			c-1.23-4.354-4.068-6.887-4.217-7.002c-0.655-0.588-1.571-0.779-2.412-0.487c-0.837,0.274-1.467,0.959-1.66,1.821
			c-1.184,5.249-2.825,6.515-4.408,7.736c-0.655,0.5-1.254,0.974-1.772,1.559c-5.082,5.638-2.75,10.196-0.697,12.945
			c-12.791,9.161-19.05,24.226-17.503,38.982L2.415,63.451C1.118,63.444,0,64.553,0,65.938z M203,112.971
			c0.213-0.423,0.512-0.798,0.828-1.212c1.06-1.376,2.387-3.117,2.989-6.491c0.628,0.88,1.188,1.96,1.547,3.27
			c0.262,0.989,1.127,1.732,2.149,1.839c1.084,0.161,2.021-0.417,2.49-1.361c1.432-2.81,3.374-4.095,6.181-4.089
			c-0.633,1.108-0.968,2.226-1.291,3.249c-0.39,1.303-0.779,2.518-1.692,3.754c-0.566,0.749-0.67,1.75-0.256,2.6
			c0.414,0.847,1.267,1.389,2.204,1.41c1.304,0.024,2.454,0.28,3.429,0.648c-3.118,1.452-4.464,3.185-5.523,4.549
			c-0.316,0.396-0.597,0.804-0.949,1.12c-1.315,1.175-2.509,1.79-3.544,1.79c-1.449,0-2.838-1.15-4.178-2.24l-1.924-1.48
			C202.453,118.183,200.979,116.886,203,112.971z M176.574,110.2c0.651-2.898,4.615-5.827,8.5-7.886
			c-0.305,2.5-0.104,4.756,0.024,6.309c0.268,3.258-0.256,5.538-1.468,6.388c-0.682,0.484-1.638,0.603-2.575,0.542
			c0.45-0.582,0.913-1.142,1.34-1.754c0.767-1.154,0.456-2.697-0.683-3.458c-1.156-0.761-2.703-0.457-3.465,0.685
			c-0.396,0.6-0.907,1.084-1.339,1.62C176.384,111.437,176.5,110.55,176.574,110.2z M152.472,59.953
			c-1.235-0.04-2.325-0.694-2.923-1.772c-0.292-0.523-0.426-1.078-0.426-1.666c0-1.035,0.457-1.994,1.248-2.655
			c0.572-0.475,0.907-1.172,0.907-1.934c0-0.761-0.335-1.439-0.907-1.933c-0.785-0.648-1.236-1.623-1.236-2.701
			c-0.006-0.56,0.135-1.108,0.402-1.619c0.603-1.066,1.711-1.748,2.929-1.784c0.969-0.024,1.852-0.637,2.223-1.535
			c0.39-0.904,0.188-1.946-0.487-2.661c-0.84-0.91-1.145-2.152-0.828-3.282c0.183-0.597,0.481-1.108,0.883-1.495
			c0.664-0.648,1.407-0.861,2.783-1.023c0.755,0.094,1.474-0.192,1.991-0.709c0.523-0.53,0.785-1.261,0.712-2.003
			c-0.109-1.011,0.262-1.995,1.029-2.75c0.384-0.387,0.871-0.679,1.431-0.862c1.17-0.316,2.46-0.024,3.307,0.813
			c0.713,0.661,1.754,0.88,2.661,0.484c0.913-0.365,1.517-1.227,1.559-2.207c0.037-1.245,0.707-2.351,1.79-2.947
			c1.377-0.779,3.265-0.438,4.33,0.828c0.48,0.582,1.272,1.105,1.918,0.904c0.743-0.006,1.443-0.344,1.924-0.91
			c1.048-1.267,2.978-1.559,4.299-0.816c1.06,0.597,1.742,1.696,1.772,2.911c0.024,0.986,0.627,1.866,1.528,2.231
			c0.913,0.387,1.948,0.201,2.667-0.478c0.901-0.837,2.168-1.16,3.337-0.807c0.56,0.152,1.06,0.445,1.474,0.868
			c0.719,0.73,1.09,1.726,0.986,2.749c-0.067,0.7,0.444,1.392,0.919,1.903c1.091,1.196,3.398,0.66,4.549,1.814
			c0.42,0.417,0.719,0.91,0.877,1.47c0.335,1.178,0.036,2.426-0.804,3.325c-0.676,0.703-0.864,1.751-0.487,2.661
			c0.378,0.91,1.248,1.504,2.217,1.534c1.218,0.043,2.338,0.725,2.923,1.76c0.28,0.518,0.414,1.084,0.414,1.684
			c0,1.048-0.438,2.007-1.23,2.667c-0.572,0.463-0.907,1.172-0.907,1.928c0,0.755,0.335,1.434,0.907,1.927
			c0.792,0.648,1.255,1.632,1.255,2.619c-0.013,0.618-0.152,1.19-0.427,1.69c-0.597,1.071-1.692,1.726-2.935,1.778
			c-0.975,0.03-1.852,0.648-2.217,1.541c-0.377,0.91-0.183,1.942,0.493,2.661c0.828,0.892,1.133,2.171,0.804,3.312
			c-0.164,0.572-0.463,1.071-0.87,1.458c-0.664,0.655-1.607,0.91-2.765,1.008c-0.749-0.073-1.474,0.188-1.997,0.719
			c-0.524,0.523-0.786,1.26-0.719,2.003c0.109,1.002-0.256,2.013-0.95,2.722c-0.45,0.432-0.95,0.731-1.516,0.904
			c-1.139,0.332-2.442,0.034-3.325-0.815c-0.712-0.661-1.76-0.855-2.661-0.487c-0.913,0.387-1.51,1.242-1.54,2.226
			c-0.037,1.218-0.713,2.338-1.778,2.926c-1.382,0.779-3.282,0.411-4.317-0.828c-0.469-0.575-1.175-0.904-1.918-0.904
			c0,0,0,0-0.006,0c-0.743,0.006-1.438,0.335-1.918,0.91c-0.969,1.172-2.825,1.632-4.306,0.816c-1.06-0.594-1.741-1.702-1.777-2.932
			c-0.037-0.965-0.64-1.851-1.547-2.219c-0.896-0.354-1.937-0.168-2.661,0.499c-0.883,0.825-2.125,1.136-3.331,0.792
			c-0.554-0.149-1.035-0.436-1.449-0.865c-0.73-0.73-1.096-1.729-0.998-2.752c0.066-0.697-0.444-1.389-0.913-1.9
			c-1.091-1.208-3.423-0.679-4.555-1.815c-0.402-0.404-0.707-0.91-0.877-1.51c-0.335-1.142-0.024-2.399,0.828-3.285
			c0.67-0.706,0.87-1.754,0.486-2.67C154.33,60.574,153.447,59.977,152.472,59.953z M114.71,46.091
			c0.855-1.197,3.105-1.739,6.823-1.428c1.303,0.125,3.435,0.287,5.852,0c-1.924,3.635-4.798,7.794-7.861,8.473
			c-0.371,0.106-1.245,0.207-2.469-0.316c0.542-0.451,1.035-0.929,1.629-1.343c1.15-0.768,1.455-2.311,0.688-3.459
			c-0.767-1.16-2.316-1.446-3.465-0.694c-0.627,0.42-1.145,0.956-1.732,1.431C114.12,47.786,114.211,46.8,114.71,46.091z
			 M107.471,14.652c0.326-0.362,0.712-0.643,1.117-0.935c1.379-1.065,3.105-2.415,4.558-5.532c0.368,0.975,0.636,2.128,0.648,3.413
			c0.012,0.935,0.554,1.787,1.403,2.204c0.853,0.426,1.852,0.326,2.6-0.256c1.222-0.916,2.457-1.303,3.755-1.695
			c1.028-0.317,2.167-0.661,3.288-1.315c0.036,2.07-0.779,4.527-4.141,6.211c-0.92,0.475-1.462,1.446-1.364,2.481
			c0.122,1.029,0.84,1.891,1.839,2.158c1.327,0.362,2.43,0.917,3.301,1.559c-3.393,0.597-5.14,1.939-6.516,2.987
			c-0.411,0.311-0.786,0.615-1.209,0.828c-3.556,1.827-5.17,0.612-7.334-2.424l-1.501-1.948
			C105.607,19.548,104.53,17.913,107.471,14.652z"/>
	</g>
</g>
<g>
</g>
<g>
</g>
<g>
</g>
<g>
</g>
<g>
</g>
<g>
</g>
<g>
</g>
<g>
</g>
<g>
</g>
<g>
</g>
<g>
</g>
<g>
</g>
<g>
</g>
<g>
</g>
<g>
</g>
</svg>
