<?xml version="1.0" encoding="iso-8859-1"?>
<!-- Generator: Adobe Illustrator 16.0.0, SVG Export Plug-In . SVG Version: 6.00 Build 0)  -->
<!DOCTYPE svg PUBLIC "-//W3C//DTD SVG 1.1//EN" "http://www.w3.org/Graphics/SVG/1.1/DTD/svg11.dtd">
<svg version="1.1" id="Capa_1" xmlns="http://www.w3.org/2000/svg" xmlns:xlink="http://www.w3.org/1999/xlink" x="0px" y="0px"
	 width="166.322px" height="166.322px" viewBox="0 0 166.322 166.322" style="enable-background:new 0 0 166.322 166.322;"
	 xml:space="preserve">
<g>
	<g>
		<path d="M116.027,68.728c0.938,0,1.883-0.071,2.832-0.216c4.909-0.763,9.229-3.375,12.171-7.378
			c2.927-3.995,4.129-8.894,3.364-13.79c-1.534-10.051-10.773-17.12-21.168-15.525c-10.114,1.547-17.086,11.048-15.53,21.157
			C99.11,62.112,106.814,68.728,116.027,68.728z M110.965,63.386c-2.315-0.902-4.351-2.381-5.917-4.303l3.433-4.683l5.912,4.338
			L110.965,63.386z M118.2,64.24c-0.87,0.134-1.74,0.155-2.601,0.134l2.268-3.087l3.075,2.257
			C120.066,63.86,119.154,64.098,118.2,64.24z M127.544,58.573c-0.728,1-1.598,1.838-2.531,2.587l-4.593-3.359l4.34-5.9l4.541,3.338
			C128.853,56.409,128.299,57.543,127.544,58.573z M129.501,45.458c0.279,0.81,0.495,1.68,0.622,2.555
			c0.137,0.862,0.169,1.727,0.147,2.584l-2.958-2.165L129.501,45.458z M121.301,36.926c2.336,0.918,4.361,2.418,5.891,4.38
			l-3.359,4.585l-5.912-4.337L121.301,36.926z M121.279,49.345l-4.329,5.909l-5.901-4.337l4.324-5.906L121.279,49.345z
			 M113.881,36.09c0.749-0.116,1.472-0.168,2.193-0.168c0.195,0,0.38,0.042,0.57,0.053l-2.205,3.008l-3.059-2.235
			C112.193,36.462,113.011,36.23,113.881,36.09z M107.247,39.054l4.635,3.407l-4.324,5.903l-4.693-3.441
			C103.787,42.608,105.301,40.604,107.247,39.054z M105.006,51.848l-2.342,3.18c-0.316-0.865-0.559-1.767-0.701-2.705
			c-0.137-0.952-0.189-1.891-0.137-2.813L105.006,51.848z"/>
		<path d="M8.839,66.307c-4.164-0.738-8.008,2.062-8.72,6.091c-0.356,1.983,0.087,3.981,1.237,5.626
			c1.155,1.659,2.887,2.766,4.864,3.101c0.448,0.082,0.902,0.113,1.34,0.113c0.757,0,1.463-0.168,2.154-0.377
			c4.147,5.961,4.828,7.533,6.787,17.484c0.103,0.538,0.19,1.044,0.314,1.582c0.092,0.485,0.169,0.854,0.271,1.382
			c0.021,0.116,0.14,0.189,0.182,0.312c1.951,7.188,5.883,14.681,12.351,21.974c1.432,1.619,2.845,3.101,4.245,4.472
			c0.938,6.45,4.509,12.498,10.352,16.391c4.952,3.274,10.547,4.841,16.087,4.841c8.688,0,17.194-3.918,22.863-11.101
			c5.671,7.183,14.178,11.101,22.857,11.101c5.537,0,11.138-1.566,16.089-4.841c5.849-3.893,9.419-9.94,10.353-16.391
			c1.397-1.371,2.811-2.853,4.245-4.472c6.465-7.309,10.398-14.786,12.35-21.974c0.043-0.116,0.148-0.18,0.175-0.312
			c0.11-0.527,0.179-0.896,0.279-1.382c0.116-0.538,0.211-1.044,0.311-1.582c1.962-9.967,2.643-11.533,6.787-17.484
			c0.691,0.208,1.397,0.377,2.157,0.377c0.442,0,0.891-0.05,1.329-0.113c1.993-0.335,3.712-1.458,4.867-3.106
			c1.149-1.646,1.593-3.644,1.239-5.627c-0.718-4.029-4.572-6.813-8.728-6.091c-4.087,0.73-6.829,4.633-6.106,8.728
			c0.231,1.305,0.875,2.413,1.671,3.391c-1.376,1.988-2.42,3.626-3.259,5.129c-1.239-5.886-3.907-11.054-7.646-15.093
			c1.197-0.562,2.289-1.35,3.106-2.444c0.785-1.092,1.292-2.373,1.461-3.712c0.211-1.667-0.111-3.335-0.887-4.783
			c1.351-0.923,2.421-2.257,3.012-3.845c0.475-1.323,0.596-2.663,0.38-3.958c-0.248-1.621-0.971-3.09-2.052-4.25
			c0.686-1.442,0.934-3.04,0.686-4.644c-0.206-1.318-0.738-2.586-1.571-3.688c-1.028-1.34-2.437-2.291-4.003-2.766
			c0.306-1.608,0.116-3.299-0.591-4.833c-0.569-1.231-1.45-2.278-2.525-3.083c-1.313-0.957-2.848-1.479-4.456-1.545
			c-0.538-1.495-1.503-2.813-2.816-3.786c-1.107-0.799-2.384-1.316-3.702-1.474c-1.688-0.221-3.358,0.114-4.793,0.875
			c-0.934-1.35-2.257-2.392-3.823-2.985c-1.234-0.466-2.516-0.612-3.981-0.412c-1.598,0.264-3.069,0.994-4.234,2.067
			c-1.43-0.686-3.043-0.938-4.673-0.686c-1.36,0.211-2.589,0.752-3.681,1.582c-1.313,1.021-2.257,2.426-2.731,3.987
			c-1.604-0.298-3.338-0.108-4.857,0.599c-1.233,0.578-2.272,1.437-3.059,2.526c-0.97,1.313-1.492,2.863-1.55,4.451
			c-1.492,0.535-2.816,1.489-3.776,2.813c-0.796,1.076-1.302,2.329-1.503,3.72c-0.211,1.685,0.108,3.344,0.876,4.791
			c-1.345,0.928-2.405,2.257-2.987,3.829c-0.124,0.34-0.161,0.707-0.237,1.063c-0.082-0.356-0.119-0.733-0.248-1.084
			c-0.583-1.561-1.638-2.89-2.982-3.818c0.768-1.437,1.086-3.101,0.87-4.817c-0.195-1.371-0.696-2.608-1.495-3.7
			c-0.967-1.308-2.286-2.268-3.775-2.813c-0.058-1.587-0.588-3.132-1.551-4.446c-0.793-1.083-1.83-1.938-3.087-2.542
			c-1.49-0.691-3.235-0.886-4.838-0.596c-0.479-1.542-1.426-2.963-2.742-3.989c-1.076-0.82-2.312-1.35-3.673-1.571
			c-1.643-0.253-3.24,0.011-4.672,0.696c-1.166-1.084-2.639-1.814-4.261-2.067c-1.382-0.211-2.727-0.066-3.953,0.393
			c-1.571,0.58-2.903,1.653-3.828,2.993c-1.43-0.778-3.17-1.073-4.772-0.876c-1.329,0.169-2.613,0.675-3.731,1.479
			c-1.313,0.979-2.272,2.297-2.808,3.781c-1.606,0.058-3.144,0.577-4.467,1.556c-1.081,0.788-1.949,1.856-2.526,3.082
			c-0.704,1.519-0.891,3.214-0.59,4.823c-1.572,0.475-2.969,1.437-4.016,2.797c-0.817,1.062-1.35,2.339-1.561,3.663
			c-0.243,1.598,0.005,3.211,0.691,4.648c-1.081,1.16-1.798,2.613-2.051,4.211c-0.222,1.324-0.093,2.663,0.393,4.008
			c0.578,1.572,1.643,2.9,2.993,3.829c-0.767,1.453-1.091,3.111-0.88,4.777c0.166,1.324,0.675,2.605,1.484,3.715
			c0.804,1.086,1.896,1.88,3.09,2.426c-3.738,4.04-6.415,9.208-7.641,15.092c-0.828-1.503-1.88-3.143-3.262-5.128
			c0.793-0.989,1.434-2.097,1.674-3.404C15.671,70.945,12.939,67.037,8.839,66.307z M6.983,76.875
			c-0.849-0.145-1.587-0.622-2.085-1.323c-0.485-0.702-0.675-1.551-0.522-2.387c0.27-1.54,1.593-2.639,3.138-2.639
			c0.188,0,0.377,0.016,0.572,0.047c1.748,0.319,2.922,1.983,2.608,3.715C10.39,76,8.868,77.221,6.983,76.875z M158.235,70.558
			c0.195-0.032,0.386-0.053,0.575-0.053c1.545,0,2.869,1.115,3.143,2.645c0.153,0.836-0.036,1.685-0.521,2.386
			c-0.501,0.702-1.239,1.173-2.104,1.324c-1.761,0.329-3.396-0.881-3.702-2.587C155.319,72.54,156.501,70.871,158.235,70.558z
			 M33.819,91.749c4.271,1.097,10.041,3.259,12.287,6.739c0.992,1.534,1.197,3.217,0.646,5.094
			c-0.079,0.195-0.414,0.564-0.949,0.744c-0.253-5.543-4.185-7.868-4.385-7.984c-1.052-0.58-2.36-0.211-2.937,0.828
			c-0.578,1.044-0.206,2.367,0.836,2.938c0.026,0.021,2.937,1.719,2.024,6.57c-0.361,0.791-1.057,1.771-2.452,1.771
			c-0.458,0-0.976-0.105-1.542-0.284c-1.983-0.638-3.148-1.577-2.592-9.25C34.927,96.548,34.658,94.301,33.819,91.749z
			 M46.603,140.865c-2.866-1.903-5.065-4.439-6.529-7.309c9.909,7.752,18.544,9.893,24.635,10.119
			c1.345,0.053,2.645,0.017,3.941-0.115C61.539,146.07,53.357,145.343,46.603,140.865z M119.724,140.865
			c-6.766,4.478-14.939,5.211-22.048,2.7c1.297,0.127,2.6,0.163,3.944,0.116c6.091-0.227,14.729-2.368,24.632-10.12
			C124.792,136.409,122.593,138.962,119.724,140.865z M127.845,97.186c-0.574-1.039-1.898-1.424-2.938-0.838
			c-0.2,0.115-4.166,2.457-4.387,8.058c-0.438-0.19-0.854-0.564-0.934-0.786c-0.564-1.914-0.354-3.591,0.627-5.126
			c2.236-3.48,8.016-5.643,12.287-6.739c-0.827,2.558-1.102,4.794-0.923,7.178c0.554,7.672-0.611,8.611-2.594,9.249
			c-0.56,0.18-1.076,0.274-1.535,0.274c-1.402,0-2.099-0.98-2.457-1.762c-0.876-4.614,1.714-6.386,2.051-6.586
			C128.056,99.517,128.425,98.219,127.845,97.186z M87.466,48.309c0.448-1.221,1.524-2.128,2.801-2.359l4.714-0.876l-3.775-2.953
			c-1.028-0.809-1.551-2.088-1.402-3.34c0.105-0.659,0.337-1.245,0.69-1.74c0.664-0.902,1.656-1.437,2.769-1.495l2.584-0.148
			l-0.628-2.521c-0.264-1.076-0.042-2.204,0.617-3.101c0.369-0.506,0.85-0.894,1.408-1.16c1.155-0.546,2.589-0.409,3.654,0.33
			l3.939,2.721l-0.569-4.762c-0.158-1.303,0.358-2.582,1.397-3.381c0.49-0.379,1.049-0.617,1.688-0.73
			c1.092-0.16,2.178,0.169,3.017,0.896l1.925,1.696l1.339-2.191c0.586-0.963,1.545-1.608,2.605-1.772
			c0.644-0.087,1.25-0.021,1.824,0.18c1.224,0.453,2.131,1.526,2.362,2.813l0.876,4.686l2.947-3.747
			c0.718-0.901,1.783-1.55,3.392-1.387c0.606,0.074,1.187,0.301,1.692,0.675c0.892,0.644,1.435,1.661,1.503,2.758l0.147,2.598
			l2.537-0.63c1.044-0.277,2.193-0.045,3.068,0.588c0.512,0.377,0.907,0.865,1.171,1.437c0.549,1.176,0.417,2.571-0.321,3.639
			l-2.273,3.926l4.763-0.562c1.16,0,2.23,0.525,2.927,1.416c0.39,0.522,0.638,1.089,0.728,1.706
			c0.169,1.068-0.153,2.165-0.902,3.011l-1.697,1.941l2.22,1.329c0.944,0.562,1.582,1.527,1.751,2.645
			c0.105,0.572,0.042,1.205-0.174,1.803c-0.454,1.231-1.503,2.112-2.812,2.35l-4.725,0.87l3.792,2.958
			c1.018,0.793,1.561,2.096,1.392,3.38c-0.073,0.622-0.306,1.199-0.675,1.695c-0.654,0.886-1.666,1.442-2.769,1.5l-2.568,0.174
			l0.606,2.495c0.264,1.075,0.037,2.204-0.601,3.09c-0.364,0.501-0.854,0.902-1.419,1.171c-1.16,0.524-2.584,0.406-3.654-0.335
			l-3.971-2.731l0.601,4.777c0.164,1.287-0.374,2.587-1.408,3.375c-0.484,0.375-1.064,0.622-1.692,0.73
			c-1.112,0.166-2.173-0.158-3.006-0.891l-1.951-1.724l-1.34,2.235c-0.559,0.952-1.508,1.582-2.6,1.746
			c-0.627,0.113-1.233,0.037-1.84-0.19c-1.213-0.438-2.109-1.489-2.342-2.792l-0.87-4.757l-2.964,3.818
			c-0.69,0.886-1.756,1.371-3.364,1.395c-0.644-0.092-1.208-0.319-1.714-0.688c-0.886-0.646-1.435-1.661-1.492-2.752l-0.158-2.586
			l-2.516,0.609c-1.076,0.272-2.21,0.05-3.096-0.593c-0.506-0.361-0.901-0.854-1.165-1.432c-0.538-1.182-0.417-2.581,0.321-3.649
			l2.268-3.937l-4.777,0.588c-1.129,0-2.221-0.546-2.911-1.432c-0.369-0.496-0.628-1.078-0.728-1.69
			c-0.169-1.078,0.158-2.175,0.896-3.019l1.74-1.949l-2.252-1.339c-0.944-0.562-1.582-1.495-1.751-2.576
			C87.197,49.519,87.255,48.881,87.466,48.309z M23.89,61.772c-0.166-1.287,0.366-2.586,1.392-3.38l3.792-2.958l-4.725-0.87
			c-1.3-0.237-2.35-1.118-2.798-2.329c-0.222-0.62-0.285-1.237-0.187-1.859c0.171-1.084,0.809-2.051,1.753-2.613l2.22-1.326
			l-1.706-1.94c-0.741-0.831-1.065-1.928-0.902-3.006c0.098-0.622,0.346-1.205,0.717-1.692c0.707-0.913,1.825-1.414,3.396-1.408
			l4.765,0.562l-2.734-3.937c-0.738-1.07-0.862-2.463-0.33-3.623c0.271-0.572,0.669-1.06,1.168-1.432
			c0.891-0.654,2.03-0.875,3.087-0.609l2.529,0.63l0.156-2.597c0.066-1.097,0.611-2.104,1.49-2.753
			c0.525-0.379,1.097-0.606,2.188-0.725c1.139,0,2.196,0.53,2.906,1.432l2.948,3.757l0.875-4.695
			c0.237-1.271,1.144-2.35,2.375-2.813c0.562-0.195,1.237-0.267,1.793-0.174c1.089,0.161,2.046,0.81,2.629,1.772l1.339,2.191
			l1.933-1.696c0.828-0.738,1.906-1.062,3.009-0.886c0.638,0.104,1.205,0.335,1.685,0.71c1.042,0.809,1.571,2.088,1.408,3.391
			l-0.578,4.762l3.947-2.721c1.071-0.741,2.513-0.844,3.631-0.335c0.578,0.274,1.057,0.675,1.429,1.184
			c0.654,0.883,0.88,2.012,0.611,3.088l-0.627,2.521l2.592,0.153c1.112,0.069,2.096,0.593,2.76,1.495
			c0.367,0.496,0.599,1.081,0.686,1.701c0.161,1.292-0.356,2.571-1.4,3.375l-3.773,2.966l4.715,0.862
			c1.273,0.232,2.349,1.14,2.792,2.345c0.216,0.588,0.279,1.226,0.192,1.84c-0.166,1.092-0.804,2.036-1.748,2.598l-2.252,1.329
			l1.738,1.951c0.736,0.826,1.06,1.922,0.896,3.016c-0.097,0.612-0.351,1.211-0.722,1.686c-0.696,0.901-1.777,1.421-3.38,1.421
			l-4.77-0.593l2.724,3.958c0.738,1.062,0.862,2.468,0.322,3.639c-0.269,0.567-0.657,1.05-1.166,1.438
			c-0.886,0.643-2.03,0.864-3.093,0.598l-2.518-0.614l-0.156,2.586c-0.065,1.084-0.611,2.102-1.484,2.742
			c-0.524,0.375-1.091,0.602-2.183,0.72c-1.134,0-2.225-0.53-2.911-1.416l-2.964-3.817l-0.87,4.756
			c-0.232,1.271-1.128,2.349-2.365,2.792c-0.577,0.216-1.171,0.287-1.819,0.185c-1.092-0.164-2.035-0.799-2.603-1.746l-1.339-2.236
			l-1.949,1.725c-0.828,0.732-1.848,1.062-3.019,0.891c-0.623-0.108-1.205-0.34-1.69-0.725c-1.025-0.789-1.566-2.094-1.4-3.375
			l0.601-4.783l-3.971,2.737c-1.068,0.73-2.537,0.826-3.623,0.335c-0.588-0.29-1.078-0.68-1.442-1.176
			c-0.651-0.896-0.878-2.024-0.614-3.095l0.609-2.495l-2.563-0.174c-1.107-0.074-2.117-0.614-2.76-1.479
			C24.209,62.969,23.977,62.392,23.89,61.772z M26.142,72.772c0.108,0.166,0.158,0.366,0.276,0.532
			c0.794,1.081,1.825,1.925,3.099,2.539c1.495,0.686,3.229,0.907,4.822,0.583c0.475,1.561,1.427,2.969,2.748,3.992
			c1.065,0.82,2.344,1.376,3.689,1.585c1.632,0.247,3.235,0,4.662-0.688c1.16,1.083,2.628,1.806,4.237,2.054
			c0.412,0.063,0.817,0.095,1.221,0.095c0.947,0,1.88-0.163,2.745-0.495c1.587-0.564,2.927-1.632,3.855-2.987
			c1.442,0.759,3.093,1.067,4.778,0.867c1.355-0.171,2.603-0.675,3.715-1.479c1.308-0.965,2.275-2.283,2.803-3.778
			c1.617-0.055,3.148-0.577,4.456-1.54c1.103-0.799,1.949-1.858,2.531-3.101c0.704-1.516,0.892-3.217,0.591-4.828
			c1.571-0.485,2.985-1.445,4.011-2.769c0.814-1.065,1.36-2.333,1.571-3.673c0.242-1.603,0-3.235-0.686-4.653
			c0.963-1.031,1.582-2.339,1.896-3.742c0.314,1.408,0.934,2.71,1.901,3.742c-0.686,1.437-0.934,3.051-0.686,4.664
			c0.211,1.329,0.749,2.587,1.577,3.673c1.022,1.318,2.436,2.273,4.008,2.758c-0.301,1.611-0.116,3.301,0.59,4.828
			c0.57,1.242,1.43,2.302,2.531,3.101c1.309,0.963,2.832,1.485,4.451,1.54c0.527,1.495,1.487,2.813,2.811,3.784
			c1.107,0.799,2.362,1.302,3.718,1.474c1.646,0.211,3.328-0.113,4.772-0.867c0.929,1.355,2.263,2.407,3.834,2.981
			c0.892,0.332,1.819,0.501,2.769,0.501c0.4,0,0.812-0.031,1.218-0.095c1.614-0.248,3.075-0.971,4.235-2.054
			c1.434,0.688,3.059,0.936,4.65,0.688c1.355-0.209,2.632-0.765,3.687-1.58c1.329-1.022,2.283-2.436,2.764-3.997
			c1.603,0.324,3.306,0.113,4.846-0.593c1.239-0.588,2.268-1.448,3.074-2.539c0.111-0.161,0.169-0.351,0.27-0.517
			c8.738,10.914,9.229,29.982-6.708,47.954c-0.312,0.343-0.617,0.701-0.938,1.039c-0.391-3.222-1.472-6.392-3.243-9.323
			c0.332-0.074,0.653-0.059,1.002-0.158c5.943-1.909,6.027-7.552,5.584-13.68c-0.168-2.289,0.122-4.667,2.067-8.886
			c0.338-0.717,0.248-1.561-0.227-2.183c-0.475-0.633-1.229-0.955-2.035-0.854c-0.575,0.089-14.37,2.12-19.106,9.46
			c-1.371,2.136-1.84,4.473-1.477,6.961c-3.938-0.527-7.989,0.158-11.681,2.142c-0.912-0.817-1.956-1.482-3.195-1.757
			c-3.755-0.785-7.625,1.74-8.433,5.49c-0.796,3.839,1.656,7.609,5.49,8.427c0.485,0.105,0.98,0.153,1.466,0.153
			c3.344,0,6.265-2.373,6.945-5.627c0.216-1.018,0.169-2.015-0.048-3.001c6.75-3.485,15.193-1.471,19.491,5.005
			c2.468,3.713,3.49,7.984,3.19,12.113c-11.043,10.446-20.546,13.067-26.89,13.315c-6.333,0.194-12.34-1.915-16.43-5.87
			c-0.419-0.405-1.004-0.548-1.587-0.521c-0.011,0-0.016-0.011-0.026-0.016c-0.746-0.19-1.545-0.011-2.096,0.537
			c-4.092,3.955-10.146,6.055-16.427,5.87c-6.354-0.248-15.855-2.869-26.892-13.315c-0.295-4.146,0.72-8.411,3.183-12.113
			c4.298-6.476,12.743-8.49,19.499-5.005c-0.216,0.981-0.258,1.973-0.05,2.99c0.688,3.259,3.61,5.638,6.951,5.638
			c0.493,0,0.989-0.063,1.468-0.153c3.829-0.802,6.292-4.588,5.487-8.427c-0.788-3.733-4.562-6.265-8.435-5.49
			c-1.237,0.274-2.273,0.939-3.186,1.757c-3.688-1.983-7.749-2.663-11.681-2.142c0.356-2.488-0.113-4.836-1.484-6.961
			c-4.735-7.34-18.518-9.371-19.105-9.46c-0.81-0.105-1.566,0.222-2.036,0.854c-0.469,0.622-0.556,1.466-0.227,2.183
			c1.949,4.208,2.241,6.603,2.067,8.886c-0.443,6.128-0.351,11.781,5.584,13.68c0.351,0.115,0.67,0.1,1.01,0.158
			c-1.767,2.932-2.858,6.096-3.246,9.323c-0.313-0.338-0.627-0.696-0.938-1.039C16.908,102.76,17.411,83.691,26.142,72.772z
			 M101.483,111.028c-0.307,1.461-1.799,2.458-3.286,2.136c-1.503-0.316-2.468-1.798-2.151-3.296
			c0.27-1.266,1.424-2.188,2.737-2.188c0.195,0,0.39,0.021,0.569,0.059c0.723,0.152,1.35,0.574,1.745,1.218
			C101.499,109.557,101.636,110.295,101.483,111.028z M65.239,108.935c0.403-0.627,1.026-1.044,1.738-1.213
			c0.195-0.036,0.39-0.058,0.583-0.058c1.313,0,2.468,0.923,2.734,2.184c0.316,1.502-0.648,3-2.151,3.301
			c-1.49,0.327-2.984-0.675-3.293-2.136C64.698,110.295,64.827,109.557,65.239,108.935z"/>
		<path d="M47.467,68.512c0.955,0.145,1.906,0.216,2.839,0.216c9.213,0,16.917-6.637,18.328-15.752
			c1.55-10.109-5.416-19.609-15.536-21.157c-10.346-1.595-19.625,5.474-21.162,15.514c-0.757,4.902,0.438,9.788,3.37,13.801
			C38.239,65.137,42.552,67.76,47.467,68.512z M38.79,58.573c-0.762-1.03-1.308-2.164-1.756-3.33l4.541-3.338l4.332,5.903
			l-4.585,3.362C40.388,60.411,39.518,59.573,38.79,58.573z M48.113,64.24c-0.944-0.143-1.856-0.38-2.731-0.696l3.071-2.257
			l2.271,3.087C49.864,64.396,48.994,64.38,48.113,64.24z M55.361,63.391l-3.42-4.653l5.904-4.338l3.441,4.688
			C59.715,61.01,57.682,62.489,55.361,63.391z M64.363,52.322c-0.145,0.938-0.385,1.84-0.701,2.705l-2.334-3.18l3.18-2.345
			C64.553,50.432,64.503,51.37,64.363,52.322z M63.461,44.923l-4.693,3.441l-4.324-5.903l4.643-3.407
			C61.025,40.604,62.539,42.608,63.461,44.923z M50.246,35.922c0.726,0,1.453,0.053,2.188,0.168c0.87,0.119,1.695,0.367,2.5,0.641
			l-3.056,2.247l-2.205-3.019C49.869,35.964,50.059,35.922,50.246,35.922z M50.961,45.026l4.324,5.896l-5.901,4.348l-4.332-5.906
			L50.961,45.026z M45.025,36.926l3.38,4.612L42.5,45.873l-3.364-4.583C40.662,39.344,42.692,37.838,45.025,36.926z M36.208,47.995
			c0.134-0.883,0.345-1.727,0.63-2.558l2.183,2.979l-2.961,2.165C36.029,49.74,36.066,48.87,36.208,47.995z"/>
	</g>
</g>
<g>
</g>
<g>
</g>
<g>
</g>
<g>
</g>
<g>
</g>
<g>
</g>
<g>
</g>
<g>
</g>
<g>
</g>
<g>
</g>
<g>
</g>
<g>
</g>
<g>
</g>
<g>
</g>
<g>
</g>
</svg>
