<?xml version="1.0" encoding="iso-8859-1"?>
<!-- Generator: Adobe Illustrator 16.0.0, SVG Export Plug-In . SVG Version: 6.00 Build 0)  -->
<!DOCTYPE svg PUBLIC "-//W3C//DTD SVG 1.1//EN" "http://www.w3.org/Graphics/SVG/1.1/DTD/svg11.dtd">
<svg version="1.1" id="Capa_1" xmlns="http://www.w3.org/2000/svg" xmlns:xlink="http://www.w3.org/1999/xlink" x="0px" y="0px"
	 width="225.932px" height="225.932px" viewBox="0 0 225.932 225.932" style="enable-background:new 0 0 225.932 225.932;"
	 xml:space="preserve">
<g>
	<path d="M211.83,88.33c-3.732,0-4.944,3.474-5.852,5.998c-1.175,3.289-2.083,5.328-4.841,5.858
		c-3.429,0.654-7.502-2.326-12.014-5.45c-5.072-3.525-10.833-7.52-17.056-7.52c-3.502,0-6.771,0.667-9.841,1.72
		c4.129-6.277,4.799-13.53,1.669-21.05c-0.523-1.279-1.997-1.885-3.252-1.34c-1.278,0.53-1.875,1.982-1.352,3.255
		c3.714,8.92,0.651,17.153-8.501,23.431c0.135-0.673,0.354-1.309,0.421-2.012c1.474-12.066-7.125-23.084-19.188-24.582
		c-8.33-1.014-16.097,3.931-19.053,11.457c-2.944-7.526-10.656-12.482-19.068-11.457c-12.065,1.498-20.651,12.522-19.171,24.567
		c0.085,0.712,0.292,1.349,0.417,2.027c-9.155-6.271-12.215-14.517-8.495-23.431c0.524-1.272-0.079-2.731-1.357-3.255
		c-1.236-0.523-2.731,0.067-3.249,1.34c-3.129,7.52-2.469,14.778,1.678,21.05c-3.069-1.053-6.354-1.72-9.852-1.72
		c-6.223,0-11.983,3.988-17.053,7.52c-4.515,3.124-8.656,6.111-12.005,5.45c-2.768-0.536-3.69-2.576-4.85-5.858
		c-0.91-2.524-2.131-5.998-5.849-5.998C6.199,88.33,0,99.15,0,112.963C0,126.786,6.199,137.6,14.118,137.6
		c3.729,0,4.944-3.465,5.849-5.992c1.172-3.288,2.083-5.334,4.838-5.857c3.431-0.646,7.502,2.326,12.017,5.443
		c5.069,3.532,10.83,7.526,17.053,7.526c3.504,0,6.771-0.664,9.84-1.717c-4.128,6.277-4.795,13.529-1.666,21.05
		c0.387,0.956,1.328,1.534,2.302,1.534c0.317,0,0.648-0.066,0.941-0.194c1.279-0.53,1.881-1.991,1.358-3.258
		c-3.721-8.927-0.648-17.159,8.494-23.431c-0.131,0.676-0.35,1.303-0.417,2.021c-1.474,12.057,7.13,23.078,19.184,24.575
		c0.73,0.085,1.446,0.134,2.177,0.134c7.551,0,14.191-4.725,16.879-11.594c2.688,6.875,9.328,11.594,16.879,11.594
		c0.719,0,1.438-0.049,2.192-0.134c12.062-1.497,20.648-12.531,19.168-24.575c-0.085-0.707-0.292-1.34-0.414-2.021
		c9.152,6.271,12.215,14.516,8.501,23.431c-0.523,1.267,0.073,2.728,1.352,3.258c0.305,0.128,0.64,0.194,0.938,0.194
		c0.975,0,1.925-0.578,2.302-1.534c3.13-7.521,2.473-14.778-1.681-21.05c3.069,1.053,6.357,1.717,9.853,1.717
		c6.224,0,11.983-3.994,17.056-7.526c4.513-3.117,8.677-6.077,12.002-5.443c2.771,0.536,3.69,2.569,4.853,5.857
		c0.908,2.527,2.132,5.992,5.853,5.992c7.915,0,14.114-10.814,14.114-24.637C225.932,99.15,219.746,88.33,211.83,88.33z
		 M94.504,71.603c7.246-0.825,13.798,4.275,14.678,11.459c0.329,2.649-0.387,5.273-2.046,7.39c-1.647,2.106-4.022,3.446-6.659,3.772
		c-1.903,0.231-3.729-0.344-5.188-1.379c0.648-0.28,1.227-0.66,1.738-1.184c2.183-2.208,2.159-5.772-0.073-7.931
		c-2.207-2.177-5.751-2.152-7.925,0.076c-0.743,0.752-1.142,1.675-1.373,2.637c-0.393,0.512-0.63,1.172-0.536,1.869
		c0.85,6.848,7.134,11.703,13.935,10.881c3.992-0.493,7.526-2.5,10.001-5.663c0.813-1.029,1.41-2.149,1.909-3.31
		c0.499,1.166,1.117,2.286,1.909,3.31c2.469,3.163,6.019,5.169,10.001,5.663c6.881,0.84,13.116-4.034,13.932-10.881
		c0.098-0.691-0.128-1.357-0.535-1.863c-0.231-0.962-0.628-1.891-1.37-2.637c-2.187-2.216-5.724-2.24-7.922-0.076
		c-2.217,2.171-2.241,5.736-0.073,7.925c0.523,0.536,1.133,0.929,1.76,1.208c-1.443,1.035-3.258,1.599-5.213,1.373
		c-2.654-0.332-5.035-1.677-6.655-3.772c-1.656-2.107-2.378-4.734-2.037-7.395c0.868-7.17,7.481-12.321,14.654-11.454
		c9.316,1.166,15.978,9.688,14.833,19.022c-1.462,11.965-10.278,18.736-24.808,19.081c-0.718,0.012-1.339,0.341-1.79,0.84h-5.8
		c-0.195-0.049-0.387-0.134-0.612-0.134h-7.103c-0.436-0.414-1.008-0.694-1.684-0.707c-14.526-0.338-23.343-7.109-24.811-19.081
		C78.541,81.284,85.188,72.753,94.504,71.603z M39.637,127.102c-4.762-3.307-9.252-6.424-13.929-6.424
		c-0.624,0-1.239,0.055-1.851,0.177c-5.772,1.114-7.478,5.906-8.61,9.085c-0.344,0.962-0.868,2.447-1.148,2.679
		c-4.308,0-9.122-8.068-9.122-19.644s4.808-19.644,9.021-19.695c0.38,0.277,0.904,1.754,1.23,2.734
		c1.133,3.172,2.834,7.968,8.61,9.082c5.188,0.998,10.388-2.506,15.768-6.248c4.716-3.254,9.56-6.628,14.225-6.628
		c13.734,0,24.292,11.911,28.936,18.197H68.354c-1.175-5.446-6.031-9.535-11.822-9.535c-6.674,0-12.099,5.432-12.099,12.093
		c0,6.674,5.425,12.105,12.099,12.105c5.849,0,10.729-4.159,11.853-9.67h14.459c-4.558,6.254-15.171,18.316-29.012,18.316
		C49.197,133.727,44.341,130.354,39.637,127.102z M63.668,112.963c0,3.921-3.191,7.124-7.112,7.124s-7.109-3.203-7.109-7.124
		c0-3.919,3.194-7.112,7.115-7.112C60.484,105.851,63.668,109.044,63.668,112.963z M131.428,154.333
		c-7.282,0.835-13.798-4.274-14.678-11.46c-0.329-2.654,0.387-5.272,2.049-7.386c1.645-2.106,4.02-3.446,6.655-3.781
		c1.919-0.201,3.721,0.365,5.188,1.395c-0.651,0.274-1.224,0.651-1.735,1.175c-2.187,2.205-2.162,5.772,0.073,7.935
		c2.204,2.174,5.748,2.149,7.922-0.079c0.742-0.749,1.139-1.681,1.37-2.643c0.396-0.512,0.633-1.17,0.535-1.863
		c-0.846-6.845-7.143-11.74-13.932-10.888c-3.994,0.499-7.526,2.509-10.001,5.663c-0.813,1.035-1.41,2.155-1.909,3.318
		c-0.5-1.176-1.096-2.296-1.909-3.318c-2.469-3.154-6.016-5.164-10.001-5.663c-6.884-0.841-13.113,4.043-13.935,10.888
		c-0.094,0.693,0.131,1.352,0.536,1.863c0.231,0.962,0.63,1.894,1.373,2.63c2.18,2.217,5.724,2.241,7.925,0.085
		c2.213-2.18,2.238-5.735,0.073-7.928c-0.512-0.523-1.121-0.907-1.751-1.188c1.458-1.022,3.261-1.589,5.2-1.395
		c2.655,0.342,5.033,1.688,6.659,3.781c1.653,2.102,2.375,4.732,2.034,7.387c-0.868,7.18-7.465,12.343-14.653,11.46
		c-9.316-1.163-15.975-9.694-14.833-19.022c1.458-11.972,10.276-18.742,24.811-19.078c0.715-0.012,1.339-0.347,1.787-0.84h5.788
		c0.207,0.049,0.387,0.128,0.624,0.128h7.106c0.433,0.42,1.005,0.7,1.681,0.712c14.528,0.336,23.346,7.106,24.807,19.078
		C147.394,144.651,140.745,153.175,131.428,154.333z M211.915,132.656c-0.365-0.269-0.889-1.754-1.229-2.723
		c-1.133-3.184-2.838-7.971-8.61-9.084c-5.212-1.018-10.388,2.49-15.783,6.247c-4.7,3.245-9.56,6.618-14.224,6.618
		c-13.737,0-24.29-11.91-28.924-18.193h14.407c1.181,5.443,6.046,9.541,11.825,9.541c6.673,0,12.104-5.432,12.104-12.099
		c0-6.668-5.432-12.1-12.104-12.1c-5.846,0-10.729,4.159-11.862,9.67h-14.449c4.549-6.254,15.162-18.319,29.003-18.319
		c4.664,0,9.523,3.373,14.224,6.628c5.396,3.742,10.522,7.246,15.783,6.248c5.772-1.114,7.478-5.91,8.61-9.082
		c0.341-0.974,0.864-2.451,1.145-2.682c4.312,0,9.122,8.068,9.122,19.638C220.952,124.55,216.141,132.613,211.915,132.656z
		 M162.264,112.963c0-3.919,3.19-7.112,7.112-7.112c3.921,0,7.111,3.193,7.111,7.112c0,3.921-3.19,7.124-7.111,7.124
		C165.455,120.087,162.264,116.884,162.264,112.963z"/>
</g>
<g>
</g>
<g>
</g>
<g>
</g>
<g>
</g>
<g>
</g>
<g>
</g>
<g>
</g>
<g>
</g>
<g>
</g>
<g>
</g>
<g>
</g>
<g>
</g>
<g>
</g>
<g>
</g>
<g>
</g>
</svg>
