<?xml version="1.0" encoding="iso-8859-1"?>
<!-- Generator: Adobe Illustrator 16.0.0, SVG Export Plug-In . SVG Version: 6.00 Build 0)  -->
<!DOCTYPE svg PUBLIC "-//W3C//DTD SVG 1.1//EN" "http://www.w3.org/Graphics/SVG/1.1/DTD/svg11.dtd">
<svg version="1.1" id="Capa_1" xmlns="http://www.w3.org/2000/svg" xmlns:xlink="http://www.w3.org/1999/xlink" x="0px" y="0px"
	 width="193.324px" height="193.324px" viewBox="0 0 193.324 193.324" style="enable-background:new 0 0 193.324 193.324;"
	 xml:space="preserve">
<g>
	<g>
		<path d="M193.091,66.777c-0.337-0.675-1.018-1.123-1.777-1.176c-0.047-0.005-0.49-0.016-0.548-0.016
			c-1.281,0-5.137,0.222-8.986,2.634c-0.406-1.025-0.881-1.922-1.329-2.763c-1.097-2.064-1.813-3.43-1.117-5.909
			c0.221-0.772-0.006-1.598-0.58-2.144c-0.575-0.562-1.419-0.752-2.168-0.496c-0.231,0.079-5.769,1.938-8.326,6.998
			c-0.934,1.856-1.351,3.876-1.239,6.025c-1.467-0.404-3.001-0.604-4.588-0.604c-2.722,0-4.594,0.609-4.794,0.681
			c-0.717,0.248-1.255,0.854-1.419,1.598c-0.152,0.746,0.096,1.519,0.649,2.035c4.793,4.425,5.146,7.064,5.463,9.393
			c0.121,0.912,0.248,1.748,0.512,2.565c1.688,5.252,4.951,7.915,9.697,7.915c1.129,0,2.241-0.155,3.296-0.324
			c4.44,23.805-11.101,46.907-34.91,51.653c-10.952,2.204-21.736-1.018-29.642-7.778c2.922,1.107,5.996,1.74,9.139,1.74
			c1.735,0,3.486-0.18,5.227-0.532c8.279-1.656,15.44-6.339,20.16-13.216c3.032-4.393,4.81-9.36,5.284-14.48
			c1.846-0.865,6.491-3.449,7.287-8.047c0.628-3.642-1.302-7.407-6.159-11.541c-1.787-1.503-5.104-4.301-6.576-8.48
			c-0.29-0.826-1.049-1.397-1.925-1.442c-0.807-0.063-1.688,0.443-2.062,1.237c-0.765,1.616-7.282,16.034-2.331,23.901
			c1.556,2.468,4.034,3.929,7.293,4.446c-0.479,4.219-1.877,8.321-4.377,11.965c-4.081,5.943-10.277,10.004-17.449,11.417
			c-5.627,1.118-11.344,0.058-16.084-3.017c-4.166-2.689-7.046-6.676-8.438-11.295c-0.222-0.791-0.448-1.593-0.606-2.405
			c0-0.021-0.016-0.031-0.016-0.053c-1.377-8.563,4.435-16.822,13.268-18.581c3.391-0.675,6.855-0.037,9.725,1.822
			c2.842,1.851,4.772,4.662,5.421,7.937c1.033,5.179-2.484,10.268-7.847,11.354c-1.171,0.232-1.925,1.371-1.688,2.542
			c0.231,1.171,1.376,1.94,2.547,1.692c7.699-1.545,12.735-8.906,11.232-16.432c-0.881-4.425-3.48-8.224-7.314-10.708
			c-3.812-2.473-8.406-3.338-12.915-2.431c-0.247,0.05-0.464,0.158-0.706,0.211c2.652-4.011,4.63-8.844,4.524-14.325
			c-0.101-4.678-3.148-8.889-5.838-12.614c-2.325-3.209-4.514-6.238-4.129-8.496c0.338-1.912,1.745-2.542,4.029-3.401
			c1.935-0.733,4.598-1.732,4.529-4.693c-0.11-5.901-7.842-10.352-17.977-10.352l-0.665,0.014
			c-10.336,0.208-18.333,5.075-18.214,11.074c0.058,2.964,2.753,3.86,4.72,4.514c2.31,0.772,3.752,1.334,4.158,3.235
			c0.475,2.241-1.587,5.355-3.781,8.662c-2.542,3.823-5.421,8.158-5.324,12.835c0.108,5.242,2.088,9.812,4.72,13.613
			c-0.309-0.076-0.583-0.205-0.896-0.271c-4.514-0.901-9.099-0.037-12.912,2.432c-3.833,2.483-6.431,6.288-7.312,10.702
			c-1.505,7.525,3.531,14.897,11.232,16.432c1.155,0.222,2.304-0.527,2.542-1.682c0.235-1.171-0.522-2.31-1.69-2.542
			c-5.36-1.076-8.883-6.176-7.844-11.364c0.654-3.265,2.581-6.086,5.421-7.926c2.861-1.854,6.318-2.508,9.719-1.827
			c8.835,1.764,14.652,10.021,13.273,18.575c0,0.021-0.016,0.042-0.016,0.053c-0.161,0.823-0.388,1.614-0.609,2.405
			c-1.395,4.608-4.276,8.605-8.44,11.306c-4.735,3.069-10.444,4.135-16.086,3.017c-7.172-1.435-13.371-5.495-17.447-11.428
			c-2.502-3.644-3.895-7.736-4.374-11.955c3.256-0.537,5.734-1.988,7.29-4.456c4.952-7.862-1.566-22.274-2.328-23.896
			c-0.372-0.793-1.231-1.252-2.062-1.233c-0.881,0.042-1.643,0.608-1.931,1.439c-1.468,4.182-4.783,6.977-6.977,8.825
			c-4.443,3.789-6.375,7.554-5.745,11.2c0.793,4.604,5.439,7.172,7.285,8.037c0.475,5.115,2.257,10.083,5.287,14.491
			c4.725,6.866,11.886,11.564,20.163,13.216c1.746,0.337,3.489,0.521,5.229,0.521c3.138,0,6.204-0.622,9.121-1.729
			c-7.9,6.739-18.674,9.962-29.626,7.778c-23.807-4.757-39.348-27.85-34.905-51.659c1.06,0.164,2.165,0.325,3.293,0.325
			c4.754,0,8.016-2.663,9.701-7.91c0.258-0.817,0.388-1.659,0.511-2.571c0.314-2.333,0.67-4.968,5.461-9.389
			c0.562-0.52,0.804-1.292,0.648-2.039c-0.158-0.743-0.698-1.35-1.416-1.598c-0.205-0.071-2.072-0.68-4.791-0.68
			c-1.587,0-3.12,0.201-4.588,0.604c0.108-2.149-0.309-4.161-1.242-6.025c-2.555-5.06-8.095-6.916-8.327-6.998
			c-0.746-0.25-1.59-0.061-2.167,0.496c-0.578,0.551-0.799,1.376-0.583,2.144c0.701,2.484-0.021,3.845-1.118,5.909
			c-0.443,0.836-0.917,1.732-1.329,2.763c-3.844-2.413-7.705-2.634-8.991-2.634c-0.053,0-0.496,0.011-0.543,0.016
			c-0.757,0.053-1.432,0.501-1.777,1.176c-0.34,0.68-0.303,1.492,0.103,2.141c3.488,5.511,3.148,8.153,2.85,10.481
			c-0.114,0.913-0.211,1.753-0.167,2.608c0.454,8.849,6.302,10.193,10.188,10.642c-4.725,26.032,12.295,51.239,38.341,56.439
			c2.592,0.521,5.178,0.774,7.728,0.774c15.066,0,28.727-8.796,35.277-22.228v22.739c0,1.192,0.968,2.157,2.159,2.157
			c1.194,0,2.159-0.976,2.159-2.157v-22.544c6.587,13.337,20.182,22.032,35.174,22.032c2.553,0,5.137-0.253,7.731-0.774
			c26.04-5.2,43.068-30.407,38.343-56.439c3.887-0.448,9.735-1.793,10.188-10.642c0.048-0.854-0.053-1.695-0.163-2.608
			c-0.301-2.333-0.639-4.975,2.848-10.481C193.396,68.27,193.434,67.458,193.091,66.777z M143.004,103.91
			c-2.315-3.67-0.791-10.57,0.881-15.478c1.914,2.793,4.266,4.768,5.959,6.194c2.193,1.874,4.725,4.632,4.292,7.164
			c-0.273,1.582-1.65,2.868-2.995,3.786c-0.095-1.245-0.231-2.5-0.485-3.744c-0.231-1.171-1.354-1.925-2.541-1.693
			c-1.171,0.232-1.925,1.371-1.693,2.548c0.243,1.213,0.29,2.42,0.349,3.648C145.056,105.936,143.795,105.155,143.004,103.91z
			 M45.219,100.14c-1.179-0.253-2.312,0.533-2.539,1.693c-0.248,1.244-0.388,2.499-0.48,3.744c-1.345-0.918-2.721-2.204-2.998-3.776
			c-0.438-2.536,2.096-5.3,4.683-7.509c1.424-1.2,3.689-3.101,5.572-5.859c1.674,4.902,3.193,11.797,0.88,15.468
			c-0.789,1.244-2.051,2.024-3.773,2.415c0.068-1.224,0.113-2.426,0.351-3.639C47.151,101.506,46.389,100.372,45.219,100.14z
			 M7.342,81.786c-0.026-0.606,0.061-1.205,0.14-1.849c0.282-2.181,0.643-5.005-1.382-9.487c1.603,0.475,3.489,1.371,5.189,3.024
			c0.583,0.567,1.448,0.768,2.21,0.491c0.772-0.264,1.329-0.939,1.434-1.743c0.261-1.901,0.994-3.272,1.767-4.736
			c0.747-1.405,1.545-2.917,1.804-4.807c2.268,1.695,4.627,4.838,2.89,10.109c-0.282,0.852-0.005,1.788,0.691,2.36
			c0.691,0.562,1.669,0.641,2.447,0.187c1.819-1.052,3.823-1.619,5.972-1.682c-3.106,3.805-3.488,6.623-3.781,8.807
			c-0.087,0.638-0.155,1.236-0.34,1.819c-2.139,6.647-5.936,5.039-8.854,4.551l-2.797-0.366C10.928,88.093,7.65,87.769,7.342,81.786
			z M97.705,87.413c-0.295-0.158-0.625-0.272-0.988-0.272c-0.361,0-0.686,0.114-0.986,0.272c-2.178-0.464-3.884-2.307-3.932-4.612
			c-0.05-2.705,2.104-4.952,4.912-5.007c2.645,0,4.839,2.157,4.892,4.807c0.026,1.313-0.459,2.561-1.371,3.504
			C99.551,86.824,98.654,87.212,97.705,87.413z M98.876,91.652c1.688-0.406,3.237-1.266,4.472-2.555
			c1.714-1.783,2.626-4.121,2.579-6.595c-0.105-4.978-4.229-9.033-9.397-9.033l0,0c-5.081,0.103-9.137,4.319-9.042,9.413
			c0.087,4.242,3.111,7.791,7.08,8.756v9.476c-4.783-3.509-12.63-10.663-12.82-20.097c-0.063-3.328,2.312-6.9,4.606-10.362
			c2.706-4.076,5.266-7.934,4.406-11.955c-0.944-4.4-4.598-5.621-7.019-6.426c-0.609-0.2-1.511-0.503-1.728-0.503
			c-0.016,0-0.029,0-0.039,0.005c-0.058-3.014,5.909-6.508,13.982-6.668l0.577-0.006c7.979,0,13.605,3.223,13.764,5.833
			c-0.222,0.231-1.197,0.598-1.846,0.846c-2.384,0.896-5.985,2.263-6.755,6.708c-0.696,4.05,2.015,7.792,4.878,11.76
			c2.437,3.364,4.951,6.848,5.025,10.175c0.189,9.864-8.185,17.664-12.714,21.155v-9.928H98.876z M185.861,79.938
			c0.084,0.644,0.163,1.236,0.137,1.843c-0.311,5.988-3.591,6.312-7.388,6.679l-2.795,0.367c-1.023,0.168-2.136,0.358-3.27,0.358
			c-2.083,0-4.198-0.596-5.585-4.915c-0.189-0.572-0.253-1.179-0.337-1.814c-0.301-2.183-0.676-5.002-3.781-8.807
			c2.146,0.063,4.16,0.625,5.97,1.682c0.785,0.454,1.75,0.375,2.446-0.188c0.696-0.566,0.976-1.503,0.691-2.359
			c-1.74-5.276,0.622-8.414,2.89-10.109c0.264,1.891,1.06,3.401,1.804,4.807c0.78,1.458,1.503,2.835,1.767,4.735
			c0.11,0.805,0.669,1.479,1.434,1.743c0.771,0.277,1.63,0.082,2.21-0.49c1.688-1.643,3.56-2.534,5.184-3.014
			C185.213,74.938,185.576,77.757,185.861,79.938z"/>
	</g>
</g>
<g>
</g>
<g>
</g>
<g>
</g>
<g>
</g>
<g>
</g>
<g>
</g>
<g>
</g>
<g>
</g>
<g>
</g>
<g>
</g>
<g>
</g>
<g>
</g>
<g>
</g>
<g>
</g>
<g>
</g>
</svg>
