<?xml version="1.0" encoding="iso-8859-1"?>
<!-- Generator: Adobe Illustrator 16.0.0, SVG Export Plug-In . SVG Version: 6.00 Build 0)  -->
<!DOCTYPE svg PUBLIC "-//W3C//DTD SVG 1.1//EN" "http://www.w3.org/Graphics/SVG/1.1/DTD/svg11.dtd">
<svg version="1.1" id="Capa_1" xmlns="http://www.w3.org/2000/svg" xmlns:xlink="http://www.w3.org/1999/xlink" x="0px" y="0px"
	 width="179.119px" height="179.118px" viewBox="0 0 179.119 179.118" style="enable-background:new 0 0 179.119 179.118;"
	 xml:space="preserve">
<g>
	<path d="M174.144,87.206l-10.096-6.853c-0.47-0.317-1.084-0.362-1.596-0.095c-0.512,0.268-0.828,0.813-0.828,1.385v2.999
		c-0.755-0.317-1.571-0.493-2.448-0.493c-2.91,0-5.248,2.028-5.955,4.728h-8.232V60.255c0-0.858-0.694-1.559-1.559-1.559
		c-0.865,0-1.559,0.7-1.559,1.559c0,11.195-9.098,20.305-20.277,20.305c-8.78,0-15.917-7.146-15.917-15.933
		c0-6.859,5.578-12.428,12.422-12.428c5.31,0.021,9.621,4.329,9.621,9.642c0,2.436-1.267,4.494-3.081,5.842
		c-0.037-2.469-2.021-4.438-4.481-4.438c-2.484,0-4.507,2.006-4.507,4.506c0,2.438,1.943,4.39,4.354,4.469
		c0.115,0.04,0.194,0.134,0.322,0.134c5.797,0,10.51-4.716,10.51-10.513c0-7.015-5.711-12.739-12.738-12.76
		c-7.611,0-13.92,5.514-15.26,12.721H91.106v-6.391c0.019-0.101,0.104-0.149,0.104-0.256v-0.368
		c0.243,0.012,0.487,0.018,0.853,0.018c3.684,0,12.854-0.633,18.645-6.503c7.229-7.35,6.211-19.747,6.163-20.271
		c-0.073-0.74-0.67-1.358-1.438-1.413c0,0-12.854-0.956-20.161,6.452c-1.827,1.866-3.118,4.027-4.037,6.247v-1.12
		c0-11.043,8.342-20.067,19.034-21.364c0.719,1.583,2.302,2.707,4.153,2.707c2.533,0,4.579-2.059,4.579-4.57
		c0-2.527-2.046-4.569-4.579-4.569c-2.095,0-3.787,1.428-4.336,3.352c-8.232,0.932-15.21,5.876-18.968,12.885V8.841
		c1.76-0.649,3.015-2.29,3.015-4.266C94.132,2.043,92.086,0,89.559,0c-2.529,0-4.582,2.043-4.582,4.576
		c0,1.97,1.272,3.617,3.023,4.266v17.795c-3.754-7.015-10.72-11.965-18.968-12.896c-0.542-1.925-2.231-3.355-4.333-3.355
		c-2.533,0-4.579,2.046-4.579,4.573c0,2.523,2.046,4.569,4.579,4.569c1.857,0,3.435-1.117,4.159-2.706
		c10.692,1.297,19.035,10.321,19.035,21.376v1.108c-0.923-2.213-2.214-4.396-4.04-6.248c-7.307-7.407-20.17-6.454-20.17-6.454
		c-0.761,0.058-1.374,0.648-1.434,1.416c-0.046,0.524-1.072,12.921,6.159,20.271c5.794,5.87,14.964,6.503,18.645,6.503
		c0.359,0,0.604-0.006,0.841-0.019v0.369c0,0.113,0.095,0.162,0.112,0.268v6.378H76.261c-1.336-7.207-7.657-12.702-15.253-12.702
		c-7.021,0-12.739,5.706-12.739,12.739c0,5.699,4.576,10.333,10.257,10.477c0.143,0.012,0.274,0.1,0.423,0.1
		c2.481,0,4.503-2.021,4.503-4.521c0-2.469-2.022-4.497-4.503-4.497c-2.412,0-4.351,1.915-4.463,4.293
		c-1.827-1.361-3.1-3.419-3.1-5.852c0-5.31,4.314-9.621,9.621-9.621c6.854,0,12.422,5.581,12.422,12.41
		c0,8.775-7.14,15.917-15.914,15.917c-11.186,0-20.283-9.098-20.283-20.289c0-0.859-0.697-1.559-1.559-1.559
		c-0.858,0-1.559,0.7-1.559,1.559v28.622h-8.229c-0.707-2.707-3.051-4.734-5.968-4.734c-0.861,0-1.684,0.176-2.433,0.493v-2.993
		c0-0.587-0.316-1.111-0.828-1.385c-0.511-0.268-1.129-0.222-1.604,0.094L4.959,87.193c-1.19,0.804-1.878,1.976-1.884,3.249
		c-0.006,1.251,0.679,2.445,1.884,3.246l10.093,6.844c0.262,0.171,0.569,0.269,0.874,0.269c0.25,0,0.505-0.062,0.73-0.171
		c0.512-0.268,0.828-0.804,0.828-1.389v-2.995c0.749,0.316,1.565,0.487,2.433,0.487c2.917,0,5.255-2.021,5.968-4.726h8.229v28.619
		c0,0.864,0.7,1.559,1.559,1.559c0.861,0,1.559-0.694,1.559-1.559c0-11.192,9.098-20.289,20.283-20.289
		c8.774,0,15.914,7.148,15.914,15.917c0,6.856-5.575,12.422-12.422,12.422c-5.307,0-9.621-4.311-9.621-9.621
		c0-2.447,1.261-4.506,3.075-5.846c0.037,2.461,2.024,4.421,4.488,4.421c2.481,0,4.503-1.997,4.503-4.493
		c0-2.442-1.927-4.36-4.327-4.477c-0.131-0.036-0.213-0.127-0.35-0.127c-5.793,0-10.507,4.713-10.507,10.521
		c0,7.015,5.718,12.738,12.739,12.738c7.602,0,13.911-5.492,15.253-12.714H88v4.628c-0.019,0.098-0.106,0.146-0.106,0.256v0.365
		c-2.707-0.073-13.162,0.073-19.485,6.491c-7.24,7.343-6.211,19.741-6.166,20.265c0.067,0.755,0.673,1.363,1.434,1.412
		c0,0,0.566,0.055,1.535,0.055c3.671,0,12.848-0.639,18.636-6.503c1.827-1.856,3.118-4.024,4.041-6.259v1.12
		c0,11.039-8.343,20.075-19.035,21.379c-0.725-1.583-2.302-2.71-4.159-2.71c-2.533,0-4.579,2.046-4.579,4.573
		c0,2.521,2.046,4.566,4.579,4.566c2.101,0,3.791-1.425,4.333-3.349c8.241-0.938,15.214-5.883,18.968-12.885v17.793
		c-1.754,0.645-3.018,2.289-3.018,4.262c0,2.533,2.053,4.579,4.576,4.579c2.533,0,4.579-2.046,4.579-4.579
		c0-1.967-1.267-3.617-3.021-4.262v-17.805c3.751,7.014,10.717,11.971,18.968,12.896c0.536,1.924,2.223,3.361,4.329,3.361
		c2.533,0,4.579-2.046,4.579-4.579c0-2.515-2.046-4.573-4.579-4.573c-1.851,0-3.434,1.127-4.152,2.71
		c-10.692-1.291-19.035-10.315-19.035-21.36v-1.127c0.92,2.223,2.205,4.396,4.031,6.247c5.797,5.864,14.968,6.503,18.646,6.503
		c0.962,0,1.534-0.036,1.534-0.036c0.755-0.067,1.376-0.651,1.431-1.419c0.043-0.523,1.072-12.921-6.156-20.276
		c-6.339-6.406-16.781-6.564-19.485-6.479v-0.365c0-0.121-0.097-0.17-0.115-0.279v-4.604h11.746
		c1.34,7.209,7.66,12.701,15.253,12.701c7.015,0,12.739-5.711,12.739-12.738c0-5.724-4.61-10.376-10.315-10.498
		c-0.128-0.012-0.237-0.072-0.365-0.072c-2.484,0-4.513,2.003-4.513,4.506c0,2.466,2.022,4.506,4.513,4.506
		c2.411,0,4.342-1.924,4.457-4.287c1.827,1.352,3.105,3.41,3.105,5.846c0,5.311-4.317,9.621-9.621,9.621
		c-6.862,0-12.422-5.578-12.422-12.422c0-8.769,7.143-15.917,15.911-15.917c11.192,0,20.289,9.109,20.289,20.302
		c0,0.864,0.688,1.559,1.559,1.559c0.865,0,1.56-0.694,1.56-1.559v-28.62h8.226c0.707,2.692,3.045,4.725,5.956,4.725
		c0.87,0,1.687-0.17,2.441-0.487v2.99c0,0.591,0.316,1.114,0.828,1.382c0.231,0.135,0.475,0.177,0.73,0.177
		c0.305,0,0.609-0.091,0.877-0.274l10.096-6.832c1.188-0.807,1.876-1.979,1.888-3.251C176.049,89.193,175.343,88.021,174.144,87.206
		z M97.481,35.29c4.92-4.993,12.994-5.575,16.331-5.587c0.037,3.249-0.401,11.423-5.321,16.425
		c-4.933,4.993-13.007,5.575-16.344,5.587C92.111,48.473,92.537,40.304,97.481,35.29z M70.604,46.128
		c-4.926-5.002-5.362-13.177-5.331-16.425c3.336,0.012,11.417,0.594,16.337,5.587c4.926,5.002,5.367,13.183,5.331,16.425
		C83.604,51.703,75.53,51.121,70.604,46.128z M81.616,143.838c-4.92,4.993-13,5.571-16.337,5.584
		c-0.037-3.246,0.393-11.411,5.337-16.423c4.926-4.993,13-5.577,16.338-5.59C86.977,130.648,86.554,138.82,81.616,143.838z
		 M108.485,132.999c4.92,4.999,5.352,13.177,5.327,16.423c-3.337-0.013-11.423-0.591-16.343-5.584
		c-4.92-5.006-5.364-13.189-5.328-16.429C95.478,127.422,103.552,128.006,108.485,132.999z M141.883,71.934v16.961h-1.803
		c-0.292-0.548-0.718-1.035-1.29-1.428l-8.221-5.587C135.337,79.887,139.314,76.373,141.883,71.934z M37.208,71.934
		c2.564,4.454,6.546,7.958,11.323,9.947l-8.229,5.587c-0.576,0.386-0.999,0.892-1.291,1.428h-1.809L37.208,71.934L37.208,71.934z
		 M37.208,108.947V91.995h1.803c0.292,0.548,0.715,1.035,1.291,1.428l8.223,5.587C43.76,100.994,39.777,104.502,37.208,108.947z
		 M102.59,115.949H90.954c-0.194-0.646-0.691-1.169-1.406-1.169c-0.719,0-1.215,0.523-1.404,1.169H76.501
		c-0.155-10.363-8.604-18.742-18.998-18.742c-2.083,0-4.095,0.28-6.016,0.791v-6.003h10.967c0.861,0,1.559-0.691,1.559-1.559
		c0-0.867-0.697-1.559-1.559-1.559H51.487v-6.013c1.921,0.511,3.934,0.812,6.016,0.812c10.394,0,18.837-8.4,18.998-18.758h26.101
		c0.158,10.358,8.604,18.758,19.005,18.758c2.082,0,4.085-0.301,6.016-0.819v6.019H116.65c-0.858,0-1.559,0.685-1.559,1.559
		c0,0.853,0.7,1.559,1.559,1.559h10.973v6.003c-1.918-0.511-3.934-0.791-6.016-0.791C111.207,97.213,102.749,105.586,102.59,115.949
		z M141.883,108.947c-2.569-4.445-6.558-7.953-11.326-9.95l8.233-5.587c0.572-0.387,0.998-0.898,1.29-1.428h1.803V108.947
		L141.883,108.947z"/>
</g>
<g>
</g>
<g>
</g>
<g>
</g>
<g>
</g>
<g>
</g>
<g>
</g>
<g>
</g>
<g>
</g>
<g>
</g>
<g>
</g>
<g>
</g>
<g>
</g>
<g>
</g>
<g>
</g>
<g>
</g>
</svg>
