<?xml version="1.0" encoding="iso-8859-1"?>
<!-- Generator: Adobe Illustrator 16.0.0, SVG Export Plug-In . SVG Version: 6.00 Build 0)  -->
<!DOCTYPE svg PUBLIC "-//W3C//DTD SVG 1.1//EN" "http://www.w3.org/Graphics/SVG/1.1/DTD/svg11.dtd">
<svg version="1.1" id="Capa_1" xmlns="http://www.w3.org/2000/svg" xmlns:xlink="http://www.w3.org/1999/xlink" x="0px" y="0px"
	 width="157.882px" height="157.882px" viewBox="0 0 157.882 157.882" style="enable-background:new 0 0 157.882 157.882;"
	 xml:space="preserve">
<g>
	<path d="M155.556,74.904l-11.074-7.507c-0.664-0.454-1.529-0.49-2.226-0.113c-0.706,0.374-1.149,1.112-1.149,1.911v3.214
		c-0.706-0.237-1.439-0.448-2.215-0.448c-2.615,0-4.819,1.505-5.979,3.667l-4.245-2.879c-0.654-0.448-1.514-0.49-2.226-0.113
		c-0.707,0.366-1.149,1.112-1.149,1.911v1.263c-3.286-0.959-6.36-2.608-8.949-5c-4.462-4.081-7.072-9.655-7.325-15.693
		c-0.205-4.715,1.43-9.224,4.609-12.706c3.19-3.479,7.541-5.509,12.25-5.72c5.737-0.182,10.736,3.059,13.015,7.902
		c-0.116,0-0.2-0.055-0.321-0.05c-2.938,0.113-5.236,2.621-5.089,5.563c0.116,2.958,2.621,5.247,5.579,5.112
		c2.426-0.108,4.335-1.856,4.873-4.121c0.337-0.403,0.559-0.934,0.548-1.511c-0.442-9.925-9.033-17.776-18.789-17.215
		c-5.869,0.258-11.29,2.787-15.245,7.105c-1.74,1.906-3.038,4.084-3.998,6.399c-0.311-0.422-0.574-0.859-0.949-1.242
		c-1.74-1.896-3.997-3.143-6.465-3.673c4.777-6.581,4.071-15.707,4.039-16.128l-0.158-1.819l-1.835-0.14
		c0,0.011-11.358-0.859-17.908,5.777c-0.681,0.691-1.237,1.458-1.767,2.23C82.643,23,89.084,16.891,97.115,16.116
		c0.723,0.913,1.788,1.538,3.038,1.538c2.151,0,3.918-1.754,3.918-3.927c0-2.159-1.751-3.923-3.918-3.923
		c-1.466,0-2.689,0.83-3.364,2.012c-6.477,0.601-12.132,3.947-15.76,8.943V8.016c1.03-0.704,1.759-1.838,1.759-3.188
		c0-2.154-1.749-3.921-3.932-3.921c-2.154,0-3.918,1.756-3.918,3.921c0,1.35,0.717,2.479,1.743,3.183v12.743
		c-3.628-4.997-9.287-8.343-15.762-8.944c-0.675-1.181-1.901-2.014-3.359-2.014c-2.154,0-3.916,1.756-3.916,3.926
		c0,2.162,1.746,3.926,3.916,3.926c1.252,0,2.328-0.625,3.035-1.537c8.023,0.78,14.473,6.874,15.704,14.758
		c-0.525-0.772-1.076-1.529-1.751-2.22c-6.55-6.637-17.906-5.772-17.911-5.777l-1.83,0.14l-0.163,1.819
		c-0.037,0.427-0.728,9.563,4.044,16.145c-3.024,0.675-5.577,2.474-7.312,4.904c-0.97-2.315-2.268-4.493-4.005-6.404
		c-3.955-4.324-9.376-6.858-15.245-7.106c-9.812-0.54-18.344,7.291-18.787,17.216c-0.021,0.577,0.19,1.107,0.551,1.511
		c0.551,2.27,2.442,4.018,4.886,4.126c2.945,0.124,5.444-2.154,5.563-5.107c0.129-2.947-2.154-5.46-5.086-5.568
		c-0.114-0.005-0.19,0.045-0.303,0.045c2.305-4.844,7.338-8.1,12.991-7.897c4.714,0.211,9.062,2.241,12.258,5.72
		c3.183,3.482,4.817,7.986,4.612,12.706c-0.269,6.043-2.856,11.612-7.317,15.699c-1.511,1.387-3.217,2.483-4.999,3.396
		c-0.114-0.659-0.454-1.257-1.052-1.576c-0.709-0.377-1.572-0.335-2.226,0.113l-4.941,3.354c-0.232,0.156-0.361,0.388-0.557,0.583
		c-0.788-0.048-1.561-0.048-2.354-0.016c-0.923-2.727-3.417-4.715-6.441-4.715c-0.789,0-1.508,0.206-2.215,0.448v-3.209
		c0-0.793-0.443-1.526-1.149-1.911c-0.709-0.383-1.562-0.335-2.226,0.113L2.271,74.909C0.823,75.877,0,77.304,0,78.835
		c0,1.535,0.812,2.963,2.26,3.947l11.074,7.499c0.356,0.253,0.788,0.374,1.221,0.374c0.34,0,0.696-0.089,1.015-0.247
		c0.707-0.369,1.15-1.113,1.15-1.909v-3.212c0.696,0.237,1.432,0.448,2.215,0.448c3.035,0,5.513-1.982,6.431-4.701
		c0.788,0.021,1.571,0.021,2.365-0.019c0.189,0.195,0.313,0.422,0.546,0.575l4.946,3.354c0.361,0.248,0.788,0.369,1.221,0.369
		c0.34,0,0.696-0.079,1.015-0.248c0.593-0.321,0.949-0.917,1.047-1.576c1.783,0.918,3.488,2.009,5.012,3.396
		c4.454,4.081,7.056,9.66,7.317,15.698c0.197,4.715-1.438,9.224-4.612,12.704c-3.193,3.48-7.539,5.511-12.258,5.722
		c-5.632,0.259-10.687-3.032-12.988-7.895c0.108,0,0.185,0.048,0.298,0.042c2.932-0.115,5.236-2.626,5.086-5.568
		c-0.118-2.953-2.618-5.242-5.561-5.115c-2.447,0.116-4.364,1.861-4.889,4.135c-0.345,0.4-0.562,0.933-0.546,1.508
		c0.428,9.661,8.435,17.229,18.004,17.229c0.266,0,0.53-0.006,0.788-0.016c5.877-0.259,11.299-2.79,15.246-7.109
		c1.738-1.908,3.035-4.081,4.005-6.396c0.303,0.422,0.575,0.859,0.946,1.239c1.754,1.914,4.019,3.153,6.497,3.687
		c-4.904,6.597-4.203,15.878-4.163,16.311l0.166,1.814l1.824,0.142c0,0,0.509,0.037,1.361,0.037c3.261,0,11.372-0.564,16.535-5.821
		c0.686-0.686,1.237-1.451,1.772-2.226c-1.237,7.889-7.678,13.995-15.709,14.766c-0.723-0.913-1.78-1.54-3.032-1.54
		c-2.157,0-3.921,1.756-3.921,3.929c0,2.157,1.743,3.929,3.921,3.929c1.463,0,2.676-0.833,3.351-2.015
		c6.476-0.601,12.14-3.944,15.768-8.943v12.74c-1.026,0.707-1.748,1.835-1.748,3.186c0,2.156,1.748,3.918,3.921,3.918
		c2.154,0,3.931-1.751,3.931-3.918c0-1.351-0.73-2.479-1.761-3.19V137.12c3.628,4.999,9.294,8.343,15.765,8.943
		c0.675,1.182,1.909,2.015,3.354,2.015c2.162,0,3.924-1.751,3.924-3.923c0-2.162-1.746-3.924-3.924-3.924
		c-1.239,0-2.32,0.622-3.032,1.534c-8.021-0.785-14.479-6.882-15.704-14.771c0.53,0.785,1.081,1.54,1.762,2.236
		c5.178,5.252,13.299,5.821,16.532,5.821c0.854,0,1.381-0.042,1.381-0.042l1.825-0.137l0.147-1.814
		c0.053-0.433,0.754-9.714-4.161-16.311c3.117-0.644,5.765-2.447,7.536-4.937c0.986,2.315,2.268,4.493,4.008,6.397
		c3.96,4.329,9.376,6.865,15.245,7.113c0.27,0.011,0.533,0.016,0.786,0.016c9.571,0,17.582-7.572,18.004-17.233
		c0.042-0.569-0.169-1.107-0.538-1.503c-0.549-2.268-2.447-4.019-4.884-4.129c-2.953-0.116-5.452,2.162-5.568,5.115
		c-0.132,2.942,2.151,5.453,5.094,5.568c0.116,0.006,0.201-0.053,0.316-0.053c-2.277,4.862-7.309,8.147-13.009,7.905
		c-4.715-0.211-9.065-2.241-12.261-5.722c-3.186-3.48-4.82-7.989-4.609-12.704c0.274-6.043,2.869-11.617,7.33-15.698
		c2.584-2.379,5.664-4.04,8.954-4.994v1.26c0,0.797,0.443,1.529,1.149,1.909c0.322,0.169,0.665,0.253,1.013,0.253
		c0.428,0,0.844-0.126,1.224-0.379l4.24-2.869c1.17,2.151,3.364,3.676,5.979,3.676c0.791,0,1.509-0.206,2.204-0.448v3.206
		c0,0.796,0.443,1.529,1.16,1.909c0.316,0.158,0.654,0.247,1.013,0.247c0.422,0,0.844-0.121,1.224-0.374l11.069-7.504
		c1.434-0.971,2.262-2.396,2.268-3.932C157.823,77.319,157.001,75.888,155.556,74.904z M86.218,31.683
		c3.642-3.699,9.474-4.411,12.575-4.514c-0.074,3.035-0.691,8.92-4.351,12.63c-0.896,0.907-1.915,1.632-3.022,2.215
		c-0.062,0.031-0.121,0.053-0.189,0.092c-3.274,1.706-7.082,2.138-9.35,2.212C81.936,41.272,82.566,35.388,86.218,31.683z
		 M71.46,31.683c3.628,3.689,4.253,9.585,4.319,12.63c-2.268-0.079-5.993-0.517-9.26-2.175c-0.113-0.061-0.227-0.103-0.334-0.161
		c-1.065-0.575-2.097-1.276-2.967-2.173c-3.649-3.693-4.271-9.589-4.34-12.63C61.986,27.271,67.824,27.989,71.46,31.683z
		 M71.45,126.198c-3.636,3.697-9.474,4.404-12.561,4.515c0.053-3.032,0.669-8.928,4.324-12.63c3.641-3.702,9.484-4.408,12.572-4.514
		C75.727,116.596,75.104,122.481,71.45,126.198z M86.218,126.198c-3.641-3.696-4.271-9.592-4.337-12.629
		c3.09,0.105,8.928,0.822,12.562,4.514c3.648,3.691,4.261,9.587,4.324,12.63C95.682,130.603,89.838,129.885,86.218,126.198z
		 M113.421,83.694c-5.3,4.862-8.416,11.502-8.722,18.695c-0.011,0.284,0.053,0.563,0.047,0.844
		c-0.185,0.337-0.321,0.695-0.301,1.107c0.164,4.43-3.279,8.179-7.726,8.353c-2.304,0.147-4.123-1.013-5.199-2.71
		c1.039-0.639,1.745-1.768,1.683-3.08c-0.074-1.914-1.683-3.417-3.607-3.333c-1.529,0.063-2.753,1.107-3.164,2.489
		c-0.161,0.327-0.285,0.675-0.264,1.055c0.034,0.938,0.232,1.814,0.506,2.668c-2.383-0.448-4.408-0.559-5.685-0.559v-5.99
		c0-1.203-0.98-2.162-2.159-2.162c-1.192,0-2.16,0.97-2.16,2.162v5.99c-1.242,0-3.23,0.11-5.566,0.538
		c0.264-0.844,0.464-1.72,0.506-2.647c0.011-0.391-0.108-0.744-0.274-1.065c-0.422-1.382-1.637-2.421-3.167-2.479
		c-1.912-0.079-3.531,1.413-3.607,3.327c-0.058,1.298,0.633,2.405,1.648,3.043c-0.264,0.401-0.485,0.823-0.831,1.166
		c-1.184,1.086-2.71,1.682-4.321,1.582c-2.139-0.09-4.129-1.008-5.577-2.579c-1.448-1.582-2.215-3.628-2.138-5.764
		c0.01-0.411-0.114-0.786-0.309-1.107c0-0.29,0.063-0.564,0.053-0.854c-0.322-7.193-3.417-13.832-8.72-18.694
		c-2.236-2.046-4.757-3.681-7.457-4.854c2.7-1.176,5.221-2.808,7.457-4.849c5.302-4.864,8.414-11.507,8.72-18.694
		c0.01-0.292-0.053-0.562-0.048-0.844c0.185-0.335,0.314-0.696,0.304-1.107c-0.18-4.432,3.277-8.185,7.715-8.353
		c0.814-0.069,1.611,0.055,2.328,0.309c0.382,0.237,0.783,0.496,1.181,0.702c0.688,0.453,1.242,1.015,1.685,1.716
		c-1.026,0.644-1.727,1.762-1.685,3.064c0.077,1.917,1.685,3.422,3.607,3.33c1.529-0.058,2.756-1.1,3.167-2.479
		c0.166-0.324,0.29-0.675,0.274-1.058c-0.042-0.844-0.195-1.647-0.417-2.42c2.247,0.406,4.224,0.503,5.492,0.503v5.983
		c0,1.195,0.983,2.154,2.154,2.154c1.194,0,2.154-0.968,2.154-2.154V48.65c1.276,0,3.307-0.103,5.611-0.525
		c-0.232,0.789-0.398,1.598-0.43,2.442c-0.014,0.382,0.113,0.732,0.261,1.052c0.422,1.384,1.646,2.431,3.164,2.489
		c1.919,0.082,3.533-1.413,3.617-3.33c0.063-1.287-0.622-2.399-1.655-3.04c0.273-0.401,0.495-0.828,0.849-1.163
		c1.187-1.089,2.727-1.701,4.309-1.582c2.141,0.087,4.134,0.999,5.584,2.576c1.45,1.577,2.215,3.623,2.136,5.767
		c-0.021,0.411,0.116,0.777,0.312,1.107c0,0.287-0.068,0.562-0.058,0.854c0.326,7.193,3.428,13.835,8.722,18.694
		c2.236,2.046,4.757,3.678,7.457,4.849C118.167,80.014,115.651,81.648,113.421,83.694z"/>
</g>
<g>
</g>
<g>
</g>
<g>
</g>
<g>
</g>
<g>
</g>
<g>
</g>
<g>
</g>
<g>
</g>
<g>
</g>
<g>
</g>
<g>
</g>
<g>
</g>
<g>
</g>
<g>
</g>
<g>
</g>
</svg>
