<?xml version="1.0" encoding="iso-8859-1"?>
<!-- Generator: Adobe Illustrator 16.0.0, SVG Export Plug-In . SVG Version: 6.00 Build 0)  -->
<!DOCTYPE svg PUBLIC "-//W3C//DTD SVG 1.1//EN" "http://www.w3.org/Graphics/SVG/1.1/DTD/svg11.dtd">
<svg version="1.1" id="Capa_1" xmlns="http://www.w3.org/2000/svg" xmlns:xlink="http://www.w3.org/1999/xlink" x="0px" y="0px"
	 width="210.909px" height="210.909px" viewBox="0 0 210.909 210.909" style="enable-background:new 0 0 210.909 210.909;"
	 xml:space="preserve">
<g>
	<path d="M183.214,109.183c-0.079-0.048-0.152-0.043-0.231-0.085c-0.096-0.031-0.143-0.053-0.222-0.073
		c-0.322-0.069-0.617-0.063-0.907,0.084c0,0,0,0-0.011,0l0,0l0,0c-0.301,0.158-0.464,0.422-0.58,0.707
		c-0.031,0.084-0.053,0.137-0.063,0.216c-0.021,0.101-0.073,0.163-0.073,0.259c-0.116,10.926-1.973,16.39-4.726,21.23
		c-7.504,13.21-9.935,21.21-2.415,28.234c2.995,2.815,6.139,4.239,9.334,4.239c0.712,0,1.34-0.163,1.988-0.284
		c-2.916,1.793-6.265,2.573-9.672,2.046c-9.528-1.445-12.851-8.907-17.897-21.99c-1.018-2.605-1.914-5.295-2.832-8.153
		c-4.087-12.461-8.38-25.275-22.924-30.164c14.544-4.896,18.837-17.716,22.924-30.166c0.934-2.858,1.819-5.553,2.832-8.161
		c5.062-13.078,8.405-20.553,17.897-21.987c3.37-0.499,6.74,0.264,9.667,2.057c-0.654-0.124-1.282-0.285-1.988-0.285
		c-3.201,0-6.344,1.424-9.334,4.232c-7.51,7.026-5.068,15.023,2.426,28.242c2.742,4.838,4.604,10.293,4.714,21.223
		c0,0.092,0.053,0.166,0.074,0.258c0.011,0.082,0.037,0.14,0.068,0.217c0.116,0.292,0.301,0.551,0.575,0.701l0,0l0,0
		c0.2,0.105,0.422,0.158,0.633,0.158c0.253,0,0.495-0.084,0.717-0.217c0-0.005,0.011,0,0.021-0.005
		c1.022-0.68,25.228-16.849,27.512-34.372c0.754-5.756-0.966-11.011-5.062-15.623c-1.276-1.424-4.13-2.861-7.099-2.861
		c-1.655,0-3.817,0.459-5.663,2.305c-1.192-2.057-2.774-3.887-4.684-5.34c-3.765-2.858-8.374-4.05-12.956-3.354
		c-10.959,1.653-14.745,10.077-20.039,23.68c-0.006,0.005-0.006,0.016-0.011,0.026c-0.718-6.415-4.188-11.422-10.263-14.344
		c0.254-1.484,0.122-3.04-0.643-4.464c-1.772-3.286-6.207-4.63-9.503-2.827c-1.672,0.904-2.858,2.389-3.401,4.192
		c-0.533,1.793-0.327,3.681,0.564,5.313c1.229,2.268,3.58,3.684,6.18,3.684c1.16,0,2.32-0.292,3.328-0.849
		c1.107-0.599,1.903-1.506,2.516-2.505c7.752,3.845,10.483,11.465,7.636,21.626c-0.042,0.153,0.053,0.282,0.063,0.427
		c-3.766,11.383-8.132,22.713-21.247,26.749c-2.463,0.749-4.941,0.971-7.367,0.828c-0.037-0.016-0.047-0.053-0.079-0.068
		c-7.082-2.843-10.198-7.8-8.701-13.961c0.56-2.326,1.978-4.298,4.014-5.55c2.035-1.252,4.45-1.63,6.76-1.084
		c3.718,0.907,5.996,4.644,5.115,8.332c-0.332,1.361-1.165,2.516-2.356,3.243c-1.208,0.741-2.59,0.963-3.977,0.628
		c-0.98-0.232-1.751-0.839-2.289-1.604c0.349-0.021,0.718-0.098,1.055-0.256c1.482-0.696,2.12-2.454,1.435-3.937
		c-0.696-1.484-2.437-2.12-3.939-1.424c-0.49,0.227-0.838,0.594-1.134,1.01c-0.321,0.177-0.569,0.459-0.675,0.847
		c-0.406,1.725-0.116,3.504,0.797,5.013c0.928,1.505,2.378,2.565,4.113,2.974c2.057,0.499,4.197,0.164,6.012-0.949
		c1.813-1.112,3.079-2.858,3.564-4.92c1.234-5.128-1.946-10.325-7.104-11.588c-3.021-0.718-6.154-0.222-8.812,1.41
		c-2.647,1.63-4.501,4.195-5.231,7.22c-1.139,4.73-0.066,8.951,2.984,12.263c-0.216-0.119-0.464-0.185-0.686-0.319
		c-2.763-1.653-5.123-3.953-6.977-6.703c1.585-2.71,2.843-5.689,3.479-8.94c1.123-5.735-0.053-11.562-3.278-16.427
		c2.864-3.521,6.75-5.967,11.253-6.848c0.738-0.146,1.213-0.854,1.065-1.582c-0.153-0.73-0.833-1.2-1.582-1.068
		c-4.937,0.965-9.229,3.594-12.464,7.359c-3.225-3.771-7.518-6.399-12.464-7.359c-0.778-0.137-1.447,0.333-1.582,1.068
		c-0.135,0.735,0.335,1.442,1.058,1.582c4.498,0.88,8.403,3.327,11.253,6.848c-3.227,4.87-4.39,10.691-3.272,16.427
		c0.644,3.256,1.896,6.225,3.483,8.94c-1.846,2.75-4.205,5.044-6.971,6.697c-0.216,0.13-0.458,0.195-0.68,0.319
		c3.035-3.317,4.121-7.533,2.982-12.258c-0.73-3.03-2.586-5.596-5.239-7.228c-2.65-1.629-5.762-2.12-8.812-1.408
		c-5.152,1.247-8.342,6.441-7.095,11.573c0.485,2.067,1.753,3.823,3.565,4.931c1.814,1.113,3.952,1.453,6.004,0.955
		c1.722-0.409,3.185-1.463,4.113-2.975c0.936-1.513,1.221-3.288,0.802-5.012c-0.103-0.388-0.346-0.675-0.67-0.847
		c-0.298-0.417-0.644-0.783-1.134-1.01c-1.487-0.696-3.246-0.066-3.937,1.424c-0.693,1.477-0.056,3.24,1.434,3.937
		c0.335,0.158,0.699,0.232,1.055,0.256c-0.535,0.765-1.308,1.371-2.292,1.603c-1.365,0.33-2.779,0.103-3.963-0.633
		c-1.205-0.733-2.035-1.888-2.365-3.256c-0.891-3.688,1.406-7.42,5.103-8.316c2.333-0.562,4.738-0.166,6.773,1.086
		c2.036,1.252,3.465,3.225,4.016,5.556c1.469,6.157-1.613,11.114-8.704,13.951c-0.032,0.011-0.037,0.058-0.071,0.074
		c-2.434,0.137-4.917-0.085-7.375-0.833c-13.118-4.032-17.458-15.362-21.239-26.745c0.011-0.145,0.098-0.274,0.053-0.427
		c-2.84-10.156-0.113-17.782,7.636-21.637c0.633,1.021,1.432,1.927,2.518,2.516c1.015,0.556,2.175,0.849,3.325,0.849
		c2.586,0,4.957-1.411,6.188-3.678c0.891-1.648,1.091-3.536,0.562-5.339c-0.545-1.798-1.738-3.28-3.385-4.171
		c-3.293-1.804-7.75-0.459-9.514,2.821c-0.757,1.376-0.896,2.932-0.643,4.458c-6.064,2.927-9.563,7.935-10.265,14.36
		c-0.005-0.01-0.005-0.021-0.01-0.034c-4.564-11.77-8.5-21.938-20.037-23.678c-4.577-0.691-9.199,0.491-12.97,3.354
		c-1.912,1.453-3.488,3.272-4.68,5.329c-1.843-1.835-4.008-2.294-5.651-2.294c-2.99,0-5.824,1.437-7.101,2.856
		c-4.113,4.606-5.803,9.872-5.065,15.622c2.278,17.523,26.47,33.697,27.509,34.378c0.011,0.005,0.021,0,0.021,0.005
		c0.222,0.138,0.464,0.216,0.717,0.216c0.211,0,0.433-0.047,0.633-0.158l0,0l0,0c0.285-0.149,0.464-0.413,0.578-0.701
		c0.031-0.076,0.047-0.134,0.066-0.216c0.021-0.092,0.074-0.166,0.074-0.259c0.113-10.929,1.972-16.39,4.725-21.223
		c7.501-13.218,9.932-21.215,2.415-28.236c-2.998-2.813-6.141-4.237-9.336-4.237c-0.72,0-1.334,0.161-1.983,0.285
		c2.921-1.793,6.286-2.566,9.667-2.051c9.531,1.442,12.851,8.909,17.9,21.987c1.015,2.608,1.912,5.303,2.829,8.161
		c4.09,12.45,8.382,25.27,22.924,30.166c-14.542,4.895-18.834,17.709-22.924,30.164c-0.934,2.854-1.819,5.548-2.829,8.153
		c-5.065,13.083-8.403,20.556-17.9,21.99c-3.354,0.521-6.729-0.253-9.661-2.057c0.648,0.121,1.268,0.284,1.982,0.284
		c3.201,0,6.344-1.424,9.337-4.229c7.512-7.024,5.065-15.024-2.415-28.234c-2.753-4.841-4.612-10.294-4.725-21.23
		c0-0.096-0.053-0.158-0.074-0.259c-0.024-0.079-0.04-0.132-0.071-0.216c-0.113-0.296-0.303-0.549-0.572-0.707l0,0l0,0
		c-0.011,0-0.011,0-0.011,0c-0.303-0.143-0.599-0.147-0.907-0.074c-0.087,0.011-0.124,0.032-0.201,0.063
		c-0.098,0.032-0.179,0.032-0.253,0.085c-1.025,0.68-25.236,16.848-27.514,34.366c-0.749,5.754,0.968,11.017,5.065,15.626
		c1.258,1.424,4.116,2.863,7.09,2.863c1.653,0,3.818-0.459,5.661-2.305c1.192,2.057,2.784,3.887,4.685,5.337
		c3.051,2.331,6.687,3.554,10.418,3.554c0.836,0,1.69-0.073,2.561-0.2c10.96-1.661,14.757-10.072,20.033-23.683
		c0.006-0.011,0.006-0.021,0.011-0.032c0.717,6.418,4.195,11.428,10.27,14.35c-0.253,1.529-0.113,3.09,0.644,4.472
		c1.231,2.268,3.586,3.676,6.172,3.676c1.16,0,2.32-0.301,3.341-0.854c1.653-0.892,2.848-2.368,3.375-4.171
		c0.541-1.793,0.335-3.691-0.562-5.332c-1.774-3.274-6.194-4.614-9.514-2.821c-1.081,0.58-1.885,1.481-2.513,2.5
		c-7.747-3.839-10.486-11.465-7.639-21.621c0.042-0.158-0.055-0.29-0.065-0.433c3.773-11.38,8.131-22.707,21.249-26.747
		c2.463-0.749,4.941-0.97,7.364-0.833c0.045,0.016,0.05,0.053,0.082,0.068c7.09,2.843,10.196,7.8,8.693,13.959
		c-0.557,2.331-1.97,4.303-4.005,5.548c-2.036,1.255-4.451,1.635-6.76,1.086c-3.715-0.907-6.001-4.646-5.115-8.332
		c0.329-1.36,1.16-2.521,2.365-3.248c1.205-0.738,2.586-0.966,3.963-0.622c0.983,0.231,1.756,0.833,2.302,1.603
		c-0.356,0.021-0.73,0.095-1.065,0.253c-1.474,0.696-2.123,2.458-1.424,3.935c0.686,1.481,2.434,2.12,3.937,1.424
		c0.49-0.222,0.841-0.591,1.129-1.013c0.329-0.169,0.577-0.459,0.675-0.844c0.409-1.729,0.124-3.512-0.799-5.021
		c-0.926-1.497-2.378-2.562-4.111-2.974c-2.051-0.496-4.2-0.169-6.004,0.949c-1.814,1.112-3.08,2.857-3.575,4.92
		c-1.237,5.131,1.949,10.32,7.106,11.586c0.901,0.221,1.814,0.326,2.721,0.326c2.133,0,4.225-0.585,6.086-1.734
		c2.652-1.63,4.509-4.192,5.234-7.22c1.139-4.73,0.063-8.943-2.988-12.266c0.222,0.116,0.464,0.189,0.686,0.321
		c2.766,1.661,5.131,3.95,6.977,6.703c-1.587,2.71-2.84,5.689-3.475,8.943c-1.123,5.732,0.053,11.56,3.277,16.422
		c-2.858,3.512-6.761,5.964-11.253,6.85c-0.747,0.143-1.221,0.85-1.065,1.582c0.129,0.728,0.804,1.197,1.582,1.07
		c4.936-0.97,9.229-3.596,12.458-7.361c3.23,3.766,7.522,6.402,12.459,7.361c0.748,0.116,1.439-0.343,1.582-1.07
		c0.137-0.732-0.338-1.439-1.065-1.582c-4.493-0.881-8.396-3.327-11.254-6.85c3.24-4.868,4.406-10.689,3.283-16.422
		c-0.631-3.265-1.888-6.233-3.48-8.943c1.851-2.753,4.221-5.042,6.974-6.697c0.222-0.127,0.464-0.195,0.686-0.316
		c-3.032,3.312-4.113,7.53-2.974,12.255c0.725,3.038,2.578,5.595,5.23,7.225c1.862,1.149,3.955,1.735,6.086,1.735
		c0.907,0,1.819-0.111,2.727-0.322c5.152-1.25,8.343-6.443,7.104-11.58c-0.496-2.067-1.762-3.823-3.576-4.931
		c-1.803-1.107-3.938-1.439-6.001-0.954c-1.714,0.411-3.185,1.466-4.113,2.974c-0.928,1.509-1.213,3.291-0.802,5.021
		c0.101,0.38,0.349,0.675,0.676,0.844c0.29,0.411,0.638,0.791,1.128,1.013c1.487,0.696,3.254,0.068,3.939-1.424
		c0.701-1.477,0.063-3.243-1.424-3.935c-0.338-0.158-0.712-0.231-1.065-0.253c0.543-0.77,1.318-1.371,2.3-1.603
		c1.371-0.333,2.778-0.105,3.965,0.633c1.197,0.728,2.025,1.888,2.363,3.248c0.891,3.691-1.414,7.425-5.1,8.321
		c-2.342,0.56-4.735,0.169-6.776-1.086c-2.036-1.245-3.465-3.228-4.014-5.548c-1.474-6.165,1.614-11.122,8.701-13.959
		c0.032-0.011,0.037-0.053,0.074-0.063c2.431-0.132,4.915,0.079,7.372,0.828c13.12,4.04,17.461,15.367,21.252,26.758
		c-0.011,0.137-0.11,0.274-0.063,0.422c2.838,10.156,0.105,17.782-7.636,21.642c-0.633-1.022-1.435-1.93-2.521-2.521
		c-3.301-1.793-7.747-0.442-9.514,2.827c-0.891,1.655-1.091,3.533-0.559,5.336c0.527,1.804,1.729,3.28,3.386,4.172
		c1.013,0.564,2.173,0.849,3.338,0.849c2.579,0,4.936-1.413,6.165-3.67c0.759-1.382,0.896-2.933,0.643-4.462
		c6.075-2.927,9.562-7.931,10.268-14.359c0.006,0.011,0.006,0.021,0.011,0.037c4.572,11.771,8.501,21.938,20.039,23.678
		c0.849,0.127,1.703,0.2,2.568,0.2c3.712,0,7.341-1.229,10.415-3.554c1.914-1.456,3.491-3.27,4.678-5.326
		c1.846,1.835,4.008,2.293,5.652,2.293c2.99,0,5.822-1.439,7.099-2.853c4.113-4.608,5.812-9.872,5.062-15.63
		C208.443,126.042,184.249,109.863,183.214,109.183z M208.089,63.148c0.121,1.253,0.121,2.531-0.042,3.85
		c-0.101,0.768-0.259,1.529-0.454,2.289l-11.602-9.353c-0.137-1.68-0.475-3.228-1.007-4.617l12.599,7.691
		C207.736,63.101,207.92,63.122,208.089,63.148z M203.427,78.354l-7.825-10.146c0.264-1.643,0.39-3.219,0.453-4.756l10.685,8.601
		C205.906,74.202,204.756,76.313,203.427,78.354z M198.375,84.898l-4.477-9.121c0.374-1.35,0.722-2.694,1.018-4.034l6.655,8.646
		c0.095,0.108,0.227,0.087,0.337,0.164C200.796,82.059,199.615,83.517,198.375,84.898z M182.782,89.117l4.188-1.587
		c-1.155,2.829-2.32,5.474-3.396,7.766C183.415,92.972,183.146,90.931,182.782,89.117z M189.474,88.577l1.023,4.066
		c-1.599,1.387-3.096,2.608-4.383,3.612C187.09,94.156,188.261,91.535,189.474,88.577z M188.288,84.142l-6.096,2.312
		c-0.396-1.516-0.839-2.861-1.34-4.071l9.345-3.726C189.601,80.503,188.962,82.343,188.288,84.142z M178.764,78.041
		c-0.475-0.836-0.839-1.561-1.266-2.336l14.971-5.487c-0.348,1.68-0.785,3.391-1.271,5.123l-11.449,4.564
		C179.428,79.256,179.107,78.642,178.764,78.041z M173.928,68.279l19.479-6.186c0,1.585-0.126,3.275-0.396,5.052l-16.806,6.165
		C175.267,71.459,174.535,69.811,173.928,68.279z M172.23,60.535c0.053-0.005,0.105,0.032,0.153,0.016l19.163-5.875
		c0.464,1.176,0.823,2.387,0.986,3.654c0.063,0.443,0.338,0.752,0.696,0.952c0.005,0.011,0.005,0.026,0.011,0.042L173.01,65.74
		C172.404,63.762,172.182,62.067,172.23,60.535z M175.832,53.11c2.479-2.322,4.999-3.499,7.494-3.499
		c2.795,0,5.078,1.463,6.581,2.748l-17.176,5.26C173.311,55.976,174.329,54.513,175.832,53.11z M192.77,90.602l-1.503-5.978
		c-0.021-0.093-0.121-0.124-0.169-0.211c0.575-1.572,1.14-3.19,1.672-4.839l3.67,7.452C195.196,88.297,193.978,89.484,192.77,90.602
		z M203.649,53.514c1.72,1.935,2.933,3.998,3.691,6.162l-11.791-7.192c0.849-0.594,1.856-0.929,3.021-0.929
		C200.833,51.56,202.943,52.725,203.649,53.514z M140.189,54.507c-2.052,1.113-4.768,0.277-5.854-1.748
		c-0.554-1.004-0.676-2.167-0.338-3.27c0.338-1.104,1.055-2.024,2.083-2.578c0.633-0.349,1.345-0.53,2.062-0.53
		c1.599,0,3.032,0.87,3.787,2.262C143.052,50.75,142.272,53.369,140.189,54.507z M68.995,48.649
		c0.762-1.393,2.204-2.257,3.792-2.257c0.712,0,1.424,0.185,2.057,0.53c1.015,0.551,1.756,1.463,2.083,2.568
		c0.33,1.107,0.206,2.271-0.335,3.28c-1.089,2.02-3.81,2.851-5.854,1.743c-1.015-0.557-1.748-1.469-2.088-2.582
		C68.32,50.824,68.443,49.659,68.995,48.649z M38.677,60.535c0.056,1.538-0.166,3.235-0.775,5.2l-20.24-6.415
		c0.006-0.016,0.006-0.032,0.011-0.048c0.351-0.211,0.636-0.52,0.696-0.957c0.15-1.258,0.524-2.473,0.978-3.646l19.174,5.877
		C38.578,60.567,38.625,60.525,38.677,60.535z M34.704,73.305l-16.809-6.168c-0.267-1.774-0.396-3.459-0.396-5.049l19.482,6.186
		C36.373,69.811,35.651,71.459,34.704,73.305z M32.144,78.041c-0.335,0.591-0.665,1.215-0.992,1.864L19.709,75.34
		c-0.503-1.732-0.923-3.449-1.268-5.128l14.963,5.493C32.988,76.49,32.626,77.209,32.144,78.041z M9.012,80.558
		c0.114-0.076,0.243-0.055,0.335-0.163l6.658-8.646c0.303,1.339,0.625,2.684,1.015,4.028l-4.477,9.121
		C11.29,83.511,10.109,82.059,9.012,80.558z M4.189,72.047l10.671-8.596c0.063,1.537,0.201,3.119,0.464,4.762L7.493,78.354
		C6.164,76.313,5.004,74.196,4.189,72.047z M2.86,66.982c-0.166-1.313-0.166-2.587-0.042-3.839c0.167-0.026,0.346-0.042,0.507-0.14
		l12.598-7.691c-0.535,1.395-0.856,2.938-1.01,4.617L3.314,69.276C3.119,68.517,2.968,67.754,2.86,66.982z M24.79,96.245
		c-1.284-1.01-2.797-2.226-4.385-3.612l1.021-4.066C22.646,91.535,23.812,94.156,24.79,96.245z M23.936,87.535l4.168,1.582
		c-0.34,1.814-0.614,3.855-0.793,6.178C26.243,92.999,25.083,90.359,23.936,87.535z M28.716,86.449l-6.097-2.312
		c-0.675-1.798-1.312-3.633-1.911-5.489l9.336,3.726C29.557,83.593,29.114,84.943,28.716,86.449z M7.261,53.503
		c0.709-0.789,2.813-1.954,5.081-1.954c1.173,0,2.148,0.335,3.019,0.928L3.567,59.675C4.318,57.516,5.544,55.449,7.261,53.503z
		 M14.499,87.026l3.655-7.452c0.535,1.648,1.081,3.272,1.674,4.839c-0.05,0.087-0.14,0.118-0.169,0.211l-1.505,5.972
		C16.933,89.484,15.707,88.297,14.499,87.026z M35.071,53.116c1.503,1.408,2.523,2.871,3.101,4.503l-17.173-5.265
		c1.487-1.279,3.775-2.748,6.573-2.748C30.071,49.606,32.592,50.782,35.071,53.116z M2.839,147.816
		c-0.129-1.271-0.14-2.573,0.026-3.913c0.108-0.77,0.258-1.529,0.448-2.288l11.604,9.344c0.134,1.688,0.477,3.228,1.01,4.62
		L3.33,147.884C3.179,147.805,3,147.853,2.839,147.816z M7.482,132.544l7.826,10.141c-0.266,1.65-0.39,3.232-0.453,4.762
		l-10.687-8.596C5.004,136.7,6.154,134.59,7.482,132.544z M12.527,126l4.477,9.129c-0.374,1.35-0.72,2.689-1.015,4.028l-6.658-8.653
		c-0.082-0.111-0.216-0.111-0.324-0.18C10.119,128.832,11.29,127.381,12.527,126z M28.123,121.781l-4.187,1.582
		c1.158-2.821,2.318-5.469,3.394-7.757C27.49,117.931,27.764,119.972,28.123,121.781z M21.436,122.334l-1.025-4.071
		c1.598-1.381,3.095-2.604,4.385-3.606C23.812,116.745,22.646,119.361,21.436,122.334z M22.625,126.753l6.091-2.31
		c0.398,1.509,0.841,2.858,1.339,4.071l-9.336,3.723C21.301,130.392,21.95,128.552,22.625,126.753z M32.144,132.861
		c0.482,0.827,0.838,1.545,1.26,2.33l-14.963,5.495c0.345-1.677,0.788-3.391,1.268-5.115l11.443-4.572
		C31.479,131.642,31.804,132.259,32.144,132.861z M36.982,142.626L17.5,148.807c0.005-1.587,0.129-3.27,0.4-5.052l16.804-6.159
		C35.651,139.442,36.373,141.087,36.982,142.626z M38.677,150.363c-0.058,0.006-0.105-0.031-0.155-0.016l-19.164,5.875
		c-0.464-1.177-0.823-2.384-0.989-3.655c-0.061-0.433-0.34-0.743-0.696-0.954c0-0.011-0.005-0.031-0.005-0.042l20.234-6.418
		C38.511,147.141,38.733,148.839,38.677,150.363z M35.071,157.788c-2.479,2.326-5,3.497-7.494,3.497
		c-2.792,0-5.075-1.461-6.578-2.742l17.173-5.269C37.594,154.924,36.579,156.385,35.071,157.788z M18.137,120.299l1.506,5.975
		c0.021,0.101,0.119,0.121,0.169,0.211c-0.578,1.566-1.139,3.19-1.675,4.836l-3.662-7.446
		C15.707,122.609,16.933,121.417,18.137,120.299z M7.261,157.382c-1.717-1.931-2.932-3.998-3.689-6.165l11.789,7.192
		c-0.852,0.597-1.856,0.929-3.024,0.929C10.069,159.343,7.976,158.178,7.261,157.382z M68.644,158.964
		c0.335-1.107,1.067-2.025,2.088-2.579c0.623-0.332,1.34-0.522,2.054-0.522c1.592,0,3.04,0.876,3.799,2.268
		c0.557,1.013,0.665,2.173,0.335,3.27c-0.33,1.107-1.062,2.02-2.078,2.574c-2.046,1.117-4.762,0.284-5.854-1.735
		C68.443,161.232,68.32,160.055,68.644,158.964z M103.101,85.141c-0.917-4.664-0.021-9.368,2.354-13.444
		c2.371,4.071,3.261,8.774,2.354,13.444c-0.469,2.36-1.324,4.548-2.36,6.605C104.429,89.689,103.564,87.506,103.101,85.141z
		 M107.804,125.762c0.918,4.662,0.021,9.376-2.354,13.447c-2.37-4.071-3.262-8.774-2.354-13.447
		c0.464-2.362,1.318-4.546,2.354-6.612C106.476,121.216,107.34,123.389,107.804,125.762z M112.55,107.285
		c-2.792,1.666-5.142,3.976-7.101,6.634c-1.959-2.658-4.324-4.979-7.106-6.645c-1.257-0.765-2.592-1.351-3.947-1.835
		c1.36-0.485,2.694-1.076,3.958-1.825c2.792-1.672,5.136-3.979,7.095-6.639c1.959,2.666,4.324,4.978,7.111,6.65
		c1.255,0.749,2.584,1.329,3.944,1.824C115.161,105.934,113.827,106.536,112.55,107.285z M141.913,162.25
		c-1.091,2.014-3.807,2.853-5.848,1.734c-1.013-0.559-1.751-1.466-2.083-2.578c-0.327-1.103-0.206-2.268,0.337-3.275
		c0.76-1.392,2.205-2.257,3.797-2.257c0.718,0,1.435,0.18,2.057,0.517c1.013,0.56,1.746,1.467,2.089,2.584
		C142.588,160.072,142.461,161.242,141.913,162.25z M207.578,147.895l-12.598,7.694c0.537-1.398,0.859-2.933,1.012-4.615
		l11.597-9.35c0.195,0.771,0.348,1.524,0.453,2.3c0.169,1.329,0.158,2.626,0.026,3.902
		C207.91,147.853,207.725,147.805,207.578,147.895z M172.225,150.363c-0.053-1.534,0.168-3.232,0.774-5.199l20.24,6.418
		c-0.006,0.01-0.006,0.021-0.011,0.042c-0.349,0.211-0.633,0.521-0.696,0.96c-0.147,1.255-0.522,2.473-0.976,3.644l-19.174-5.875
		C172.335,150.336,172.283,150.374,172.225,150.363z M176.207,137.596l16.806,6.159c0.27,1.782,0.396,3.465,0.396,5.052
		l-19.479-6.181C174.529,141.087,175.262,139.442,176.207,137.596z M178.758,132.861c0.338-0.591,0.665-1.224,0.991-1.873
		l11.443,4.572c0.507,1.725,0.923,3.449,1.271,5.121l-14.966-5.49C177.92,134.406,178.279,133.694,178.758,132.861z
		 M201.882,130.324c-0.116,0.079-0.231,0.079-0.327,0.18l-6.654,8.653c-0.307-1.339-0.628-2.689-1.019-4.028l4.478-9.123
		C199.61,127.386,200.786,128.832,201.882,130.324z M206.718,138.851l-10.668,8.596c-0.063-1.529-0.2-3.111-0.464-4.762
		l7.825-10.141C204.756,134.59,205.906,136.7,206.718,138.851z M186.115,114.657c1.281,1.007,2.795,2.226,4.383,3.606l-1.019,4.071
		C188.261,119.361,187.09,116.745,186.115,114.657z M186.974,123.363l-4.171-1.582c0.343-1.814,0.617-3.854,0.796-6.175
		C184.665,117.9,185.825,120.542,186.974,123.363z M182.192,124.449l6.096,2.311c0.675,1.798,1.313,3.644,1.914,5.5l-9.339-3.729
		C181.353,127.313,181.796,125.962,182.192,124.449z M196.414,123.875l-3.659,7.446c-0.533-1.651-1.081-3.27-1.672-4.836
		c0.048-0.09,0.137-0.11,0.169-0.211l1.503-5.964C193.978,121.417,195.196,122.609,196.414,123.875z M175.832,157.783
		c-1.503-1.408-2.521-2.869-3.101-4.504l17.176,5.273c-1.487,1.271-3.776,2.742-6.576,2.742
		C180.836,161.294,178.31,160.114,175.832,157.783z M203.649,157.392c-0.706,0.791-2.815,1.951-5.083,1.951
		c-1.171,0-2.146-0.337-3.017-0.928l11.791-7.198C206.586,153.384,205.363,155.452,203.649,157.392z"/>
</g>
<g>
</g>
<g>
</g>
<g>
</g>
<g>
</g>
<g>
</g>
<g>
</g>
<g>
</g>
<g>
</g>
<g>
</g>
<g>
</g>
<g>
</g>
<g>
</g>
<g>
</g>
<g>
</g>
<g>
</g>
</svg>
