<?xml version="1.0" encoding="iso-8859-1"?>
<!-- Generator: Adobe Illustrator 16.0.0, SVG Export Plug-In . SVG Version: 6.00 Build 0)  -->
<!DOCTYPE svg PUBLIC "-//W3C//DTD SVG 1.1//EN" "http://www.w3.org/Graphics/SVG/1.1/DTD/svg11.dtd">
<svg version="1.1" id="Capa_1" xmlns="http://www.w3.org/2000/svg" xmlns:xlink="http://www.w3.org/1999/xlink" x="0px" y="0px"
	 width="249.411px" height="249.411px" viewBox="0 0 249.411 249.411" style="enable-background:new 0 0 249.411 249.411;"
	 xml:space="preserve">
<g>
	<path d="M241.654,116.951c-0.865,0-1.669,0.231-2.43,0.493v-3.958c0-0.926-0.512-1.772-1.334-2.207
		c-0.804-0.438-1.784-0.387-2.558,0.137l-12.494,8.455c-0.92,0.63-1.56,1.434-1.979,2.338h-5.176V87.403
		c0-1.385-1.114-2.487-2.49-2.487s-2.49,1.12-2.49,2.487c0,13.518-11.004,24.518-24.509,24.518
		c-10.534,0-19.108-8.574-19.108-19.114c0-8.153,6.638-14.781,14.791-14.781c6.247,0,11.332,5.081,11.332,11.329
		c0,2.737-1.315,5.164-3.337,6.735c-0.293-2.789-2.576-5.009-5.45-5.009c-3.068,0-5.571,2.488-5.571,5.575
		c0,2.457,1.607,4.469,3.806,5.212c0.457,0.618,1.163,1.047,1.967,1.047c7.478,0,13.561-6.086,13.561-13.561
		c0-8.997-7.325-16.325-16.319-16.325c-1.991,0-3.891,0.387-5.711,0.94c1.321-3.41,2.112-7.075,2.112-10.948
		c0-1.385-1.114-2.487-2.484-2.487c-1.388,0-2.496,1.123-2.496,2.487c0,14.029-11.411,25.429-25.435,25.429
		c-10.948,0-19.86-8.906-19.86-19.848c0-6.354,3.864-11.798,9.356-14.148c0,0.082-0.036,0.131-0.036,0.207
		c0,3.315,2.703,6.028,6.028,6.028c3.337,0,6.04-2.713,6.04-6.028c0-2.694-1.784-4.884-4.201-5.675
		c-0.457-0.46-1.084-0.768-1.791-0.768c-8.336,0-15.496,5.051-18.65,12.227c-3.142-7.182-10.312-12.239-18.648-12.239
		c-0.706,0-1.336,0.304-1.79,0.767c-2.463,0.755-4.284,2.981-4.284,5.675c0,3.328,2.701,6.028,6.028,6.028
		c3.331,0,6.031-2.701,6.031-6.028c0-0.094-0.052-0.155-0.052-0.255c5.544,2.326,9.447,7.794,9.447,14.172
		c0,10.948-8.902,19.854-19.854,19.854c-14.023,0-25.435-11.399-25.435-25.428c0-1.379-1.114-2.481-2.494-2.481
		c-1.376,0-2.493,1.12-2.493,2.481c0,3.873,0.797,7.538,2.119,10.948c-1.82-0.548-3.714-0.929-5.717-0.929
		c-8.997,0.019-16.31,7.344-16.31,16.331c0,7.456,6.08,13.555,13.554,13.555c0.731,0,1.374-0.323,1.821-0.822
		c2.277-0.7,3.955-2.731,3.955-5.252c0-3.065-2.491-5.574-5.569-5.574c-2.813,0-5.044,2.128-5.419,4.828
		c-2.034-1.564-3.367-3.997-3.367-6.752c0-6.242,5.081-11.332,11.329-11.338c8.156,0,14.796,6.628,14.796,14.797
		c0,10.537-8.573,19.099-19.11,19.099c-13.512,0-24.512-10.985-24.512-24.503c0-1.391-1.114-2.496-2.494-2.496
		c-1.376,0-2.493,1.123-2.493,2.496v34.784h-5.663c-0.417-0.59-0.877-1.172-1.538-1.625l-12.486-8.449
		c-0.773-0.512-1.75-0.582-2.566-0.131c-0.819,0.436-1.324,1.279-1.324,2.207v3.249c-0.779-0.262-1.571-0.493-2.43-0.493
		c-4.29,0-7.77,3.492-7.77,7.767c0,4.28,3.486,7.77,7.77,7.77c0.858,0,1.659-0.231,2.43-0.487v3.958
		c0,0.926,0.511,1.766,1.324,2.205c0.365,0.194,0.767,0.304,1.172,0.304c0.49,0,0.977-0.14,1.4-0.438l12.479-8.445
		c0.929-0.64,1.559-1.443,1.995-2.338h5.2v34.805c0,1.383,1.118,2.479,2.494,2.479c1.379,0,2.494-1.12,2.494-2.479
		c0-13.518,11-24.521,24.512-24.521c10.538,0,19.111,8.562,19.111,19.107c0,8.159-6.634,14.772-14.797,14.772
		c-6.247,0-11.329-5.066-11.329-11.313c0-2.734,1.315-5.163,3.337-6.734c0.298,2.788,2.576,5.011,5.45,5.011
		c3.072,0,5.568-2.49,5.568-5.584c0-2.459-1.604-4.457-3.806-5.212c-0.454-0.621-1.154-1.047-1.976-1.047
		c-7.478,0-13.555,6.095-13.555,13.566c0,8.987,7.319,16.319,16.316,16.319c2.003,0,3.891-0.384,5.711-0.932
		c-1.321,3.409-2.113,7.075-2.113,10.947c0,1.383,1.118,2.479,2.494,2.479c1.379,0,2.493-1.133,2.493-2.479
		c0-14.029,11.411-25.428,25.435-25.428c10.948,0,19.854,8.896,19.854,19.845c0,6.345-3.86,11.801-9.353,14.151
		c0-0.086,0.042-0.135,0.042-0.22c0-3.312-2.707-6.028-6.034-6.028c-3.331,0-6.032,2.716-6.032,6.028
		c0,2.704,1.784,4.896,4.205,5.675c0.453,0.463,1.083,0.768,1.79,0.768c8.33,0,15.488-5.042,18.642-12.227
		c3.143,7.185,10.31,12.238,18.657,12.238c0.7,0,1.334-0.304,1.784-0.767c2.466-0.755,4.299-2.972,4.299-5.675
		c0-3.325-2.716-6.028-6.046-6.028c-3.325,0-6.028,2.703-6.028,6.028c0,0.098,0.049,0.158,0.049,0.256
		c-5.548-2.326-9.454-7.807-9.454-14.164c0-10.948,8.912-19.862,19.86-19.862c14.023,0,25.435,11.411,25.435,25.428
		c0,1.389,1.126,2.497,2.49,2.497c1.376,0,2.49-1.121,2.49-2.497c0-3.872-0.798-7.538-2.119-10.948
		c1.82,0.549,3.721,0.938,5.718,0.938c9-0.023,16.307-7.35,16.307-16.33c0-7.466-6.077-13.555-13.542-13.555
		c-0.73,0-1.376,0.316-1.827,0.815c-2.271,0.706-3.958,2.734-3.958,5.249c0,3.068,2.491,5.578,5.572,5.578
		c2.807,0,5.048-2.132,5.413-4.835c2.033,1.571,3.373,4.013,3.373,6.759c0,6.247-5.084,11.338-11.332,11.338
		c-8.153,0-14.79-6.631-14.79-14.797c0-10.527,8.573-19.102,19.107-19.102c13.506,0,24.509,10.997,24.509,24.516
		c0,1.382,1.114,2.49,2.49,2.49c1.383,0,2.491-1.121,2.491-2.49v-34.818h5.626c0.408,0.603,0.877,1.176,1.541,1.626l12.482,8.458
		c0.414,0.279,0.907,0.42,1.4,0.42c0.402,0,0.798-0.109,1.169-0.293c0.822-0.42,1.328-1.278,1.328-2.21v-3.245
		c0.779,0.256,1.564,0.486,2.429,0.486c4.293,0,7.764-3.482,7.764-7.77C249.418,120.431,245.929,116.951,241.654,116.951z
		 M210.696,103.808v18.414h-21.001v-5.544C198.434,115.654,206.014,110.804,210.696,103.808z M38.763,103.82
		c4.677,6.966,12.249,11.822,20.971,12.863v5.538H38.763V103.82z M38.763,145.628v-18.413h20.971v5.535
		C51.012,133.797,43.44,138.65,38.763,145.628z M162.093,156.619c0,1.107,0.146,2.191,0.329,3.245
		c-4.336-2.405-9.256-3.879-14.565-3.879c-10.546,0-19.521,6.625-23.12,15.93c-3.599-9.28-12.571-15.93-23.121-15.93
		c-5.301,0-10.218,1.474-14.559,3.86c0.173-1.059,0.332-2.131,0.332-3.239c0-12.806-10.053-23.193-22.655-23.96v-6.619
		c0.25-0.384,0.433-0.816,0.433-1.315s-0.183-0.926-0.433-1.327v-6.619c12.602-0.768,22.655-11.155,22.655-23.964
		c0-1.114-0.149-2.187-0.332-3.249c4.348,2.402,9.258,3.885,14.559,3.885c10.549,0,19.522-6.634,23.121-15.929
		c3.599,9.276,12.574,15.929,23.12,15.929c5.31,0,10.229-1.477,14.565-3.885c-0.171,1.069-0.322,2.141-0.322,3.249
		c0,12.796,10.028,23.185,22.614,23.964v15.893C172.128,133.438,162.093,143.826,162.093,156.619z M210.696,145.622
		c-4.683-6.979-12.263-11.825-21.001-12.86v-5.541h21.001V145.622z"/>
</g>
<g>
</g>
<g>
</g>
<g>
</g>
<g>
</g>
<g>
</g>
<g>
</g>
<g>
</g>
<g>
</g>
<g>
</g>
<g>
</g>
<g>
</g>
<g>
</g>
<g>
</g>
<g>
</g>
<g>
</g>
</svg>
