<?xml version="1.0" encoding="iso-8859-1"?>
<!-- Generator: Adobe Illustrator 16.0.0, SVG Export Plug-In . SVG Version: 6.00 Build 0)  -->
<!DOCTYPE svg PUBLIC "-//W3C//DTD SVG 1.1//EN" "http://www.w3.org/Graphics/SVG/1.1/DTD/svg11.dtd">
<svg version="1.1" id="Capa_1" xmlns="http://www.w3.org/2000/svg" xmlns:xlink="http://www.w3.org/1999/xlink" x="0px" y="0px"
	 width="220.346px" height="220.346px" viewBox="0 0 220.346 220.346" style="enable-background:new 0 0 220.346 220.346;"
	 xml:space="preserve">
<g>
	<path d="M198.207,88.003c-3.507,0-6.792,0.896-9.745,2.365c0.696-2.02,1.149-4.147,1.149-6.405c0-9.018-7.324-16.35-16.342-16.35
		c-1.318,0-2.579,0.253-3.776,0.604c1.019-2.721,1.661-5.632,1.661-8.693c0-1.199-0.985-2.154-2.151-2.154
		c-1.202,0-2.162,0.971-2.162,2.154c0,11.454-9.312,20.772-20.767,20.772c-8.923,0-16.179-7.267-16.179-16.187
		c0-5.136,3.111-9.547,7.541-11.464c0,0.011-0.011,0.021-0.011,0.021c0,2.742,2.215,4.957,4.946,4.957s4.957-2.215,4.957-4.947
		c0-2.144-1.382-3.937-3.285-4.611c-0.4-0.464-0.976-0.788-1.64-0.788c-9.281,0-16.828,7.543-16.828,16.833
		c0,1.336,0.143,2.65,0.396,3.937h-11.749l6.697-9.904c0.453-0.664,0.506-1.519,0.116-2.225c-0.369-0.707-1.107-1.15-1.914-1.15
		h-2.621c0.189-0.601,0.374-1.221,0.374-1.885c0-3.515-2.853-6.389-6.381-6.389c-3.522,0-6.378,2.855-6.378,6.389
		c0,0.664,0.189,1.268,0.372,1.885h-3.238c-0.794,0-1.54,0.443-1.912,1.15c-0.379,0.707-0.335,1.561,0.113,2.225l6.706,9.904H94.418
		c0.253-1.276,0.398-2.586,0.398-3.937c0-9.29-7.554-16.843-16.841-16.843c-0.659,0-1.236,0.324-1.627,0.788
		c-1.938,0.67-3.354,2.458-3.354,4.617c0,2.742,2.215,4.946,4.946,4.946c2.734,0,4.946-2.215,4.946-4.946
		c0-0.032-0.021-0.056-0.021-0.087c4.472,1.911,7.625,6.352,7.625,11.517c0,8.918-7.274,16.179-16.189,16.179
		c-11.454,0-20.77-9.318-20.77-20.767c0-1.194-0.98-2.162-2.159-2.162c-1.192,0-2.16,0.974-2.16,2.162
		c0,3.067,0.633,5.988,1.659,8.709c-1.216-0.351-2.458-0.599-3.776-0.599c-0.011,0-0.021,0-0.032,0
		c-4.354,0-8.435,1.696-11.53,4.778c-3.088,3.085-4.799,7.203-4.799,11.583c0,2.257,0.459,4.385,1.155,6.41
		c-2.958-1.464-6.236-2.36-9.753-2.36C9.925,88.035,0,97.967,0,110.175c0,12.224,9.925,22.159,22.138,22.159
		c3.512,0,6.795-0.896,9.748-2.362c-0.69,2.02-1.149,4.155-1.149,6.412c0,4.372,1.695,8.475,4.799,11.575
		c3.085,3.074,7.177,4.772,11.53,4.772c0.011,0,0.021,0,0.021,0c1.318,0,2.586-0.248,3.776-0.601
		c-1.015,2.721-1.648,5.632-1.648,8.701c0,1.191,0.973,2.162,2.16,2.162c1.189,0,2.159-0.971,2.159-2.162
		c0-11.454,9.315-20.768,20.77-20.768c8.915,0,16.189,7.262,16.189,16.189c0,5.126-3.111,9.535-7.538,11.465
		c0-0.011,0.005-0.021,0.005-0.031c0-2.732-2.215-4.947-4.957-4.947c-2.731,0-4.946,2.215-4.946,4.947
		c0,2.135,1.376,3.923,3.272,4.608c0.401,0.475,0.978,0.791,1.643,0.791c9.286,0,16.835-7.552,16.835-16.833
		c0-1.35-0.14-2.663-0.393-3.934h11.738l-6.713,9.893c-0.44,0.659-0.496,1.509-0.113,2.215c0.385,0.718,1.102,1.16,1.912,1.16h2.642
		c-0.19,0.596-0.372,1.224-0.372,1.889c0,3.522,2.84,6.375,6.37,6.375c3.533,0,6.392-2.853,6.392-6.375
		c0-0.665-0.189-1.276-0.374-1.889h3.217c0.047,0,0.079,0,0.11,0c1.213,0,2.162-0.98,2.162-2.162c0-0.675-0.311-1.271-0.785-1.666
		l-6.397-9.439h11.75c-0.254,1.26-0.396,2.584-0.396,3.934c0,9.281,7.546,16.833,16.827,16.833c0.654,0,1.234-0.312,1.63-0.791
		c1.935-0.659,3.364-2.437,3.364-4.608c0-2.732-2.215-4.947-4.957-4.947c-2.737,0-4.946,2.215-4.946,4.947
		c0,0.025,0.021,0.053,0.021,0.078c-4.472-1.914-7.614-6.349-7.614-11.512c0-8.912,7.261-16.174,16.179-16.174
		c11.454,0,20.767,9.318,20.767,20.762c0,1.192,0.976,2.162,2.162,2.162c1.191,0,2.157-0.97,2.157-2.162
		c0-3.068-0.633-5.99-1.667-8.711c1.224,0.348,2.458,0.601,3.786,0.601c9.008,0,16.338-7.33,16.338-16.348
		c0-2.257-0.454-4.382-1.15-6.412c2.953,1.466,6.229,2.362,9.746,2.362c12.213,0,22.148-9.936,22.148-22.144
		S210.421,88.003,198.207,88.003z M215.151,108l-34.014,0.187c2.024-3.016,8.432-5.776,17.069-5.776
		C206.655,102.405,212.973,105.058,215.151,108z M176.249,108.222l-26.536,0.15V95.65c4.197,5.168,11.232,8.213,20.008,8.213
		c2.795,0,5.452-0.588,7.867-1.643C176.866,104.111,176.444,106.125,176.249,108.222z M149.713,112.702l26.589-0.153
		c0.211,1.92,0.611,3.797,1.286,5.532c-2.415-1.039-5.072-1.641-7.867-1.641c-8.775,0-15.811,3.049-20.008,8.217V112.702z
		 M181.406,112.517l33.719-0.19c-2.173,2.933-8.48,5.58-16.928,5.58C189.949,117.907,183.727,115.37,181.406,112.517z
		 M213.669,101.461c-3.96-2.097-9.376-3.375-15.462-3.375c-6.074,0-11.496,1.278-15.456,3.375c3.054-5.414,8.807-9.115,15.456-9.115
		C204.862,92.346,210.616,96.048,213.669,101.461z M173.27,71.932c6.639,0,12.039,5.395,12.039,12.037
		c0,8.593-6.982,15.575-15.583,15.575c-8.875,0-19.074-4.101-19.859-15.314c3.628-0.564,7.023-1.832,9.967-3.775
		c-0.011,0.227-0.074,0.438-0.074,0.669c0,6.199,5.058,11.253,11.243,11.253c0.686,0,1.26-0.335,1.655-0.82
		c1.793-0.623,3.091-2.281,3.091-4.271c0-2.534-2.046-4.58-4.572-4.58c-2.236,0-4.019,1.635-4.403,3.757
		c-1.604-1.269-2.689-3.143-2.689-5.339C164.078,76.064,168.201,71.938,173.27,71.932z M70.669,107.605l-26.602,0.158
		c-0.211-1.928-0.609-3.797-1.284-5.548c2.413,1.044,5.076,1.647,7.879,1.647c8.775,0,15.81-3.045,20.007-8.213V107.605z
		 M38.965,107.79l-33.718,0.2c2.173-2.945,8.479-5.579,16.931-5.579C30.422,102.405,36.647,104.934,38.965,107.79z M5.221,112.306
		l34.014-0.2c-2.025,3.026-8.435,5.779-17.073,5.779C13.714,117.907,7.401,115.238,5.221,112.306z M44.123,112.084l26.546-0.147
		v12.72c-4.198-5.168-11.232-8.217-20.007-8.217c-2.803,0-5.461,0.591-7.879,1.646C43.506,116.198,43.928,114.183,44.123,112.084z
		 M38.609,75.447c2.268-2.268,5.281-3.504,8.472-3.504c0.011,0,0.011,0,0.021,0c5.065,0,9.197,4.121,9.197,9.176
		c0,2.186-1.086,4.056-2.668,5.318c-0.335-2.181-2.144-3.895-4.427-3.895c-2.534,0-4.58,2.049-4.58,4.569
		c0,1.959,1.236,3.597,2.972,4.251c0.382,0.577,1.015,1.01,1.774,1.01c6.201,0,11.253-5.06,11.253-11.254
		c0-0.232-0.063-0.448-0.074-0.68c2.942,1.938,6.338,3.211,9.967,3.763c-0.77,11.232-10.977,15.337-19.86,15.337
		c-8.604,0-15.591-6.981-15.591-15.58C35.082,80.757,36.331,77.723,38.609,75.447z M22.162,92.34c6.652,0,12.403,3.708,15.459,9.115
		c-3.963-2.102-9.378-3.375-15.459-3.375c-6.075,0-11.499,1.273-15.451,3.375C9.767,96.048,15.512,92.34,22.162,92.34z
		 M6.705,118.834c3.958,2.104,9.376,3.375,15.457,3.375c6.085,0,11.501-1.276,15.459-3.375c-3.05,5.421-8.807,9.128-15.459,9.128
		C15.507,127.979,9.756,124.266,6.705,118.834z M47.092,148.366h-0.011c-3.206,0-6.204-1.239-8.472-3.507
		c-2.278-2.272-3.528-5.289-3.528-8.506c0-8.602,6.995-15.589,15.581-15.589c8.888,0,19.09,4.113,19.859,15.319
		c-3.628,0.564-7.014,1.841-9.956,3.771c0.011-0.227,0.076-0.438,0.076-0.67c0-6.195-5.065-11.248-11.267-11.248
		c-0.675,0-1.247,0.338-1.656,0.823c-1.793,0.622-3.09,2.278-3.09,4.261c0,2.536,2.046,4.582,4.591,4.582
		c2.23,0,4.008-1.64,4.396-3.754c1.603,1.266,2.689,3.143,2.689,5.336C56.299,144.252,52.178,148.366,47.092,148.366z
		 M127.312,147.949H93.068c-3.101-7.003-10.001-11.918-18.08-12.182V84.525c8.068-0.264,14.963-5.173,18.08-12.171h34.243
		c3.101,7.009,10.004,11.929,18.082,12.188v25.969c0,0.011-0.01,0.032-0.01,0.061c0,0.016,0.01,0.032,0.01,0.053v25.176
		C137.31,136.042,130.412,140.952,127.312,147.949z M173.27,148.366c-5.068,0-9.187-4.124-9.187-9.187
		c0-2.178,1.076-4.045,2.658-5.305c0.332,2.178,2.146,3.892,4.435,3.892c2.526,0,4.572-2.046,4.572-4.566
		c0-1.962-1.239-3.597-2.969-4.251c-0.386-0.585-1.019-1.013-1.777-1.013c-6.186,0-11.243,5.053-11.243,11.243
		c0,0.237,0.063,0.464,0.074,0.696c-2.943-1.94-6.339-3.217-9.967-3.766c0.759-11.232,10.974-15.346,19.859-15.346
		c8.601,0,15.583,6.987,15.583,15.589C185.287,142.971,179.898,148.366,173.27,148.366z M198.207,127.968
		c-6.649,0-12.402-3.713-15.456-9.112c3.96,2.093,9.382,3.375,15.456,3.375c6.086,0,11.502-1.282,15.451-3.375
		C210.605,124.255,204.862,127.968,198.207,127.968z"/>
</g>
<g>
</g>
<g>
</g>
<g>
</g>
<g>
</g>
<g>
</g>
<g>
</g>
<g>
</g>
<g>
</g>
<g>
</g>
<g>
</g>
<g>
</g>
<g>
</g>
<g>
</g>
<g>
</g>
<g>
</g>
</svg>
