<?xml version="1.0" encoding="iso-8859-1"?>
<!-- Generator: Adobe Illustrator 16.0.0, SVG Export Plug-In . SVG Version: 6.00 Build 0)  -->
<!DOCTYPE svg PUBLIC "-//W3C//DTD SVG 1.1//EN" "http://www.w3.org/Graphics/SVG/1.1/DTD/svg11.dtd">
<svg version="1.1" id="Capa_1" xmlns="http://www.w3.org/2000/svg" xmlns:xlink="http://www.w3.org/1999/xlink" x="0px" y="0px"
	 width="216.28px" height="216.28px" viewBox="0 0 216.28 216.28" style="enable-background:new 0 0 216.28 216.28;"
	 xml:space="preserve">
<g>
	<g>
		<path d="M206.867,86.335c0.759-4.612-2.057-7.04,0.574-11.114c0,0-9.592,0.153-9.429,9.717c-3.786-4.116-8.822-3.961-8.822-3.961
			c3.955,6.853,2.004,9.236,2.035,11.839c0.074,6.22,3.882,7.051,6.993,7.499c-0.327,0.335-0.56,0.772-0.617,1.266
			c-1.018,9.711-5.732,18.454-13.311,24.593c-7.578,6.164-17.097,8.976-26.81,7.994c-7.652-0.801-14.534-4.524-19.391-10.494
			c-0.296-0.354-0.485-0.78-0.771-1.16c2.854,1.814,6.081,3.032,9.566,3.396c0.954,0.11,1.898,0.147,2.826,0.147
			c11.718,0,21.98-7.541,25.36-18.31c3.195-0.78,8.706-3.406,3.317-11.902c-1.034-1.643-3.48-5.131-3.649-9.614
			c0,0-13.88,15.222-3.981,20.746c-3.232,9.402-12.836,15.678-23.44,14.639c-4.641-0.475-8.839-2.689-11.792-6.223
			c-2.114-2.531-3.364-5.516-3.754-8.658c-0.063-1.393-0.116-2.785,0.021-4.18c0-0.016-0.011-0.026-0.011-0.042
			c0.465-3.272,2.136-6.233,4.783-8.327c2.811-2.215,6.344-3.195,9.951-2.85c2.773,0.29,5.273,1.608,7.024,3.715
			c1.745,2.088,2.552,4.69,2.278,7.359c-0.433,4.167-4.324,7.14-8.628,6.76c-1.16-0.179-2.246,0.738-2.373,1.92
			c-0.11,1.187,0.744,2.246,1.931,2.367c6.654,0.733,12.688-4.07,13.373-10.62c0.4-3.829-0.765-7.583-3.265-10.579
			c-2.483-2.971-5.995-4.833-9.897-5.234c-2.021-0.211-3.998-0.026-5.928,0.406c0.527-1.432,0.854-2.938,0.854-4.541
			c0-6.141-4.989-11.137-11.133-11.137c-5.151,0-9.339,4.187-9.339,9.339c0,1.197,0.971,2.154,2.162,2.154s2.151-0.973,2.151-2.154
			c0-2.776,2.257-5.023,5.025-5.023c3.75,0,6.809,3.045,6.809,6.803c0,5.002-4.061,9.062-9.055,9.062
			c-6.534,0-11.853-5.313-11.853-11.847c0-7.084,3.32-15.358,12.67-15.358c1.197,0,2.162-0.979,2.162-2.154
			c0-1.194-0.971-2.159-2.162-2.159H108.82c-0.303-0.158-0.633-0.277-1.004-0.277s-0.696,0.113-1.004,0.277H86.302
			c-1.194,0-2.159,0.976-2.159,2.159c0,1.194,0.965,2.154,2.159,2.154c9.353,0,12.675,8.264,12.675,15.358
			c0,6.534-5.321,11.847-11.86,11.847c-4.989,0-9.049-4.061-9.049-9.062c0.005-3.736,3.056-6.803,6.808-6.803
			c2.766,0,5.018,2.247,5.018,5.023c0,1.197,0.965,2.154,2.16,2.154s2.159-0.973,2.159-2.154c0-5.146-4.185-9.339-9.336-9.339
			c-6.128,0-11.125,5.001-11.129,11.137c0,1.547,0.319,3.022,0.804,4.395c-1.69-0.308-3.422-0.461-5.194-0.276
			c-8.065,0.82-13.969,7.929-13.16,15.817c0.68,6.545,6.676,11.344,13.376,10.615c1.189-0.115,2.046-1.191,1.927-2.373
			c-0.124-1.191-1.165-2.109-2.37-1.908c-4.345,0.4-8.203-2.584-8.635-6.777c-0.567-5.513,3.61-10.476,9.31-11.077
			c3.607-0.335,7.141,0.638,9.943,2.853c2.655,2.094,4.313,5.047,4.777,8.322c0,0.021-0.005,0.032-0.005,0.047
			c0.145,1.4,0.082,2.803,0.026,4.169c-0.393,3.143-1.65,6.144-3.757,8.664c-2.953,3.533-7.14,5.742-11.789,6.233
			c-10.61,1.028-20.213-5.258-23.436-14.655c9.898-5.513-3.981-20.746-3.981-20.746c-0.171,4.482-2.613,7.987-3.654,9.616
			c-5.384,8.499,0.124,11.129,3.319,11.905c3.375,10.769,13.637,18.304,25.36,18.304c0.933,0,1.88-0.047,2.829-0.132
			c3.483-0.358,6.702-1.592,9.558-3.412c-0.277,0.38-0.469,0.797-0.773,1.177c-4.849,5.959-11.733,9.692-19.39,10.478
			c-9.682,1.008-19.219-1.824-26.802-7.988c-7.575-6.16-12.3-14.893-13.31-24.606c-0.053-0.496-0.295-0.928-0.62-1.258
			c3.119-0.448,6.927-1.273,6.992-7.493c0.032-2.6-1.906-4.997,2.046-11.834c0,0-5.039-0.145-8.828,3.966
			c0.166-9.566-9.429-9.727-9.429-9.727c2.639,4.071-0.18,6.497,0.583,11.119C4.577,83.83,0,85.602,0,85.602
			c6.009,5.123,4.973,8.034,5.875,10.491c2.067,5.643,5.745,5.369,8.78,4.778c-0.161,0.34-0.264,0.725-0.227,1.118
			c1.123,10.864,6.415,20.635,14.881,27.517c7.351,5.97,16.334,9.144,25.671,9.144c1.426,0,2.858-0.084,4.295-0.231
			c8.802-0.907,16.717-5.189,22.296-12.056c0.016-0.021,0.032-0.053,0.053-0.073c0.011,12.54,8.889,23.023,20.688,25.544H4.076
			c-1.194,0-2.16,0.981-2.16,2.162c0,1.171,0.965,2.146,2.16,2.146h204.182c1.192,0,2.157-0.976,2.157-2.146
			c0-1.181-0.976-2.162-2.157-2.162h-94.967c11.805-2.531,20.686-13.015,20.686-25.565c0-0.358-0.101-0.696-0.116-1.044
			c0.285,0.369,0.543,0.775,0.844,1.139c5.579,6.866,13.489,11.148,22.285,12.056c1.45,0.147,2.88,0.231,4.304,0.231
			c9.334,0,18.33-3.185,25.676-9.144c8.475-6.882,13.759-16.653,14.882-27.517c0.048-0.393-0.068-0.778-0.227-1.118
			c3.037,0.59,6.719,0.864,8.785-4.778c0.902-2.457-0.137-5.368,5.87-10.491C216.327,85.639,211.754,83.856,206.867,86.335z
			 M85.989,126.305c0-8.728,5.184-16.222,12.604-19.718c-2.943,4.757-4.817,11.718-4.817,19.718c0,7.989,1.875,14.961,4.817,19.712
			C91.172,142.531,85.989,135.037,85.989,126.305z M105.688,147.467c-3.921-2.263-7.586-10.283-7.586-21.162
			c0-10.9,3.67-18.9,7.586-21.157V147.467z M105.688,87.189c-1.669,0.799-2.829,2.458-2.866,4.417h-2.03
			c-0.799,0-1.535,0.443-1.912,1.149c-0.38,0.709-0.33,1.561,0.119,2.226l3.834,5.653c-5.445,1.055-10.254,3.828-13.933,7.715
			c0.119-1.43,0.119-2.869,0.053-4.319c-0.016-0.506,0.05-1.01-0.005-1.495c-0.232-2.231-0.907-4.345-1.933-6.27
			c0.045,0.005,0.087,0.016,0.129,0.016c8.922,0,16.179-7.256,16.179-16.171c0-6.544-2.112-11.892-5.735-15.359h8.095
			L105.688,87.189L105.688,87.189z M110.004,64.745h8.094c-3.625,3.467-5.734,8.812-5.734,15.359
			c0,8.915,7.248,16.171,16.171,16.171c0.295,0,0.559-0.069,0.839-0.085c-1.045,1.938-1.725,4.082-1.962,6.339
			c-0.059,0.509,0.011,1.005-0.006,1.495c-0.084,1.771-0.042,3.533,0.158,5.263c-3.76-4.355-8.856-7.509-14.721-8.659l3.834-5.653
			c0.448-0.665,0.496-1.519,0.113-2.225c-0.371-0.707-1.107-1.15-1.911-1.15h-2.03c-0.037-1.959-1.2-3.618-2.864-4.411
			L110.004,64.745L110.004,64.745z M110.004,147.451v-42.298c3.918,2.246,7.581,10.251,7.581,21.151
			C117.584,137.184,113.917,145.204,110.004,147.451z M117.094,146.032c2.939-4.767,4.807-11.728,4.807-19.723
			c0-7.983-1.867-14.955-4.807-19.712c7.422,3.491,12.601,10.99,12.601,19.712C129.695,135.037,124.516,142.531,117.094,146.032z"/>
		<path d="M4.119,147.884h78.458c1.192,0,2.159-0.986,2.159-2.157c0-1.197-0.967-2.151-2.159-2.151H4.119
			c-1.192,0-2.16,0.971-2.16,2.151C1.959,146.897,2.932,147.884,4.119,147.884z"/>
		<path d="M209.208,143.554h-78.453c-1.196,0-2.156,0.981-2.156,2.162c0,1.171,0.96,2.157,2.156,2.157h78.453
			c1.197,0,2.162-0.986,2.162-2.157C211.37,144.535,210.405,143.554,209.208,143.554z"/>
	</g>
</g>
<g>
</g>
<g>
</g>
<g>
</g>
<g>
</g>
<g>
</g>
<g>
</g>
<g>
</g>
<g>
</g>
<g>
</g>
<g>
</g>
<g>
</g>
<g>
</g>
<g>
</g>
<g>
</g>
<g>
</g>
</svg>
