<?xml version="1.0" encoding="iso-8859-1"?>
<!-- Generator: Adobe Illustrator 16.0.0, SVG Export Plug-In . SVG Version: 6.00 Build 0)  -->
<!DOCTYPE svg PUBLIC "-//W3C//DTD SVG 1.1//EN" "http://www.w3.org/Graphics/SVG/1.1/DTD/svg11.dtd">
<svg version="1.1" id="Capa_1" xmlns="http://www.w3.org/2000/svg" xmlns:xlink="http://www.w3.org/1999/xlink" x="0px" y="0px"
	 width="220.319px" height="220.319px" viewBox="0 0 220.319 220.319" style="enable-background:new 0 0 220.319 220.319;"
	 xml:space="preserve">
<g>
	<g>
		<path d="M0,135.14c0,1.191,0.983,2.162,2.159,2.162H64.95c4.451,1.888,9.629,3.143,15.639,3.417
			c1.128,0.053,2.209,0.074,3.267,0.074c13.685,0,21.687-4.104,26.243-8.006c4.557,3.929,12.557,8.006,26.225,8.006
			c1.061,0,2.146-0.021,3.275-0.074c6.006-0.274,11.185-1.529,15.641-3.417h62.923c1.191,0,2.157-0.971,2.157-2.162
			c0-1.187-0.986-2.162-2.157-2.162h-55.481c0.005,0,0.016-0.011,0.016-0.011c0.158-0.105,0.316-0.242,0.479-0.332
			c0.807-0.654,1.672-1.276,2.389-1.983c2.041-1.856,3.734-4.039,5.073-6.46h47.524c1.191,0,2.157-0.986,2.157-2.162
			c0-1.191-0.986-2.162-2.157-2.162h-45.657c0.633-1.961,1.033-4.008,1.165-6.138c6.893-0.707,12.366-6.708,12.456-14.112
			l0.09-11.388c0.011-1.648-0.675-3.22-1.983-4.556c-2.51-2.555-7.146-4.105-12.424-4.148c-0.058,0-0.11,0-0.169,0
			c-6.834,0-11.981,3.109-12.023,7.277c-0.021,4.188,6.95,6.837,11.96,6.898c1.54-0.044,10.094-0.148,10.146-4.833
			c0.011-0.875-0.321-1.73-0.949-2.534c0.121,0.113,0.253,0.231,0.358,0.335c0.512,0.519,0.76,1.015,0.76,1.508l-0.042,5.745
			c-0.006-0.01-0.011-0.021-0.032-0.034c-0.659-0.98-1.998-1.242-2.995-0.577c-6.381,4.303-17.064-0.232-17.181-0.274
			c-0.654-0.287-1.439-0.222-2.036,0.166c-0.601,0.401-0.985,1.065-0.996,1.793l-0.037,4.348c-0.042,3.953,1.45,7.657,4.161,10.42
			c1.851,1.903,4.14,3.143,6.607,3.718c-0.332,5.067-2.669,10.146-7.024,14.249c-0.58,0.512-1.149,1.028-1.782,1.471
			c-0.079,0.059-0.158,0.111-0.222,0.158c-3.28,2.194-7.225,3.486-11.465,3.486c-8.864,0-16.073-7.204-16.073-16.079
			c0-6.299,4.726-11.467,10.811-12.266c0.327,0.754,0.78,1.429,1.371,2.004c1.192,1.17,2.764,1.813,4.425,1.813
			c1.703,0,3.307-0.675,4.529-1.896c1.182-1.21,1.83-2.803,1.819-4.482c-0.016-1.69-0.69-3.283-1.914-4.482
			c-2.415-2.376-6.581-2.333-8.943,0.092c-0.738,0.757-1.182,1.674-1.466,2.647c-3.381,0.361-6.434,1.712-8.912,3.789
			c-1.704-3.195-4.91-5.022-9.36-5.022c-6.086,0-12.69,3.105-12.949,3.246c-0.718,0.34-1.189,1.049-1.231,1.848
			c-0.053,0.789,0.34,1.54,1.016,1.943c3.271,2.004,4.559,3.504,5.492,5.157c2.209,3.937,4.551,7.496,8.579,7.496
			c0.686,0,1.388-0.115,2.126-0.326c0.168-0.059,0.29-0.116,0.442-0.18c0.575,8.385,6.181,15.314,13.838,17.888
			c-1.013,0.116-1.94,0.316-3.027,0.348c-14.144,0.612-22.021-3.122-26.338-6.761c3.066-3.775,4.864-8.321,4.864-12.867
			c0-1.197-0.98-2.151-2.162-2.151c-1.17,0-2.146,0.971-2.146,2.151c0,3.396-1.279,6.813-3.515,9.756
			c-2.236-2.942-3.518-6.359-3.518-9.756c0-1.197-0.971-2.151-2.149-2.151c-1.197,0-2.159,0.971-2.159,2.151
			c0,4.557,1.798,9.092,4.859,12.867c-4.324,3.639-12.213,7.383-26.346,6.761c-1.062-0.053-1.999-0.253-3.024-0.348
			c7.662-2.573,13.257-9.503,13.834-17.888c0.153,0.063,0.282,0.121,0.448,0.18c0.747,0.211,1.442,0.326,2.128,0.326
			c4.029,0,6.357-3.543,8.569-7.496c0.941-1.653,2.225-3.153,5.508-5.157c0.675-0.403,1.065-1.171,1.015-1.943
			c-0.042-0.788-0.512-1.492-1.231-1.848c-0.274-0.124-6.864-3.246-12.949-3.246c-4.472,0-7.668,1.827-9.369,5.022
			c-2.484-2.077-5.535-3.428-8.915-3.789c-0.293-0.988-0.736-1.909-1.463-2.657c-2.365-2.387-6.529-2.458-8.955-0.082
			c-2.479,2.458-2.515,6.476-0.082,8.965c1.221,1.221,2.813,1.896,4.522,1.896c1.685,0,3.254-0.643,4.422-1.813
			c0.593-0.575,1.052-1.266,1.376-2.004c6.086,0.793,10.811,5.961,10.811,12.266c0,8.875-7.208,16.079-16.07,16.079
			c-4.237,0-8.19-1.287-11.459-3.486c-0.074-0.062-0.145-0.115-0.219-0.158c-0.638-0.442-1.205-0.97-1.788-1.471
			c-4.354-4.104-6.687-9.182-7.027-14.249c2.473-0.564,4.756-1.827,6.61-3.718c2.716-2.753,4.19-6.452,4.164-10.42l-0.042-4.348
			c-0.019-0.728-0.375-1.402-0.994-1.793c-0.623-0.388-1.371-0.453-2.036-0.166c-0.113,0.042-10.769,4.602-17.188,0.274
			c-0.994-0.665-2.334-0.398-3.014,0.577c0,0.014,0,0.014-0.006,0.014l-0.042-5.748c-0.005-0.485,0.243-0.981,0.744-1.484
			c0.113-0.114,0.243-0.232,0.379-0.335c-0.638,0.788-0.967,1.658-0.962,2.534c0.016,1.305,0.762,3.098,4.229,4.103
			c1.674,0.477,4.005,0.675,5.922,0.73c5.018-0.066,11.989-2.71,11.963-6.908c-0.05-4.164-5.208-7.267-12.032-7.267
			c-0.071,0-0.113,0-0.168,0c-5.287,0.042-9.914,1.593-12.419,4.148c-1.313,1.336-1.999,2.908-1.983,4.556l0.092,11.388
			c0.076,7.404,5.54,13.405,12.442,14.112c0.124,2.13,0.543,4.177,1.176,6.138H2.159c-1.194,0-2.159,0.971-2.159,2.162
			c0,1.187,0.983,2.162,2.159,2.162H49.57c1.345,2.421,3.035,4.609,5.065,6.46c0.741,0.707,1.576,1.329,2.399,1.983
			c0.161,0.11,0.308,0.242,0.469,0.332c0.006,0,0.011,0.011,0.016,0.011H2.159C0.965,132.978,0,133.948,0,135.14z M165.301,85.72
			c-0.442,0.506-0.606,1.17-0.495,1.793c-0.48-0.277-0.791-0.53-0.886-0.71c0.01-0.588,0.917-1.455,2.547-2.099
			C166.023,85,165.628,85.335,165.301,85.72z M171.608,89.343c-1.171-0.01-2.331-0.201-3.386-0.475
			c0.116-0.108,0.232-0.19,0.338-0.319c0.379-0.454,1.545-1.016,3.522-1.087c2.626-0.063,4.229,0.644,4.925,1.065
			C176.059,88.931,174.266,89.538,171.608,89.343z M165.823,106.737c-1.903-1.94-2.938-4.559-2.911-7.361l0.021-1.305
			c4.303,1.294,12.34,2.845,18.314-1.184c0.242-0.155,0.433-0.345,0.569-0.566l-0.026,3.24c-0.058,5.514-4.282,9.967-9.45,9.967
			c-0.026,0-0.058,0-0.079,0C169.853,109.49,167.568,108.506,165.823,106.737z M147.962,100.591
			c0.385-0.388,0.896-0.599,1.445-0.599c0.538,0,1.022,0.2,1.413,0.566c0.38,0.367,0.596,0.886,0.596,1.438
			c0.006,0.527-0.195,1.031-0.564,1.413c-0.379,0.39-0.896,0.599-1.45,0.599c-0.532,0-1.018-0.198-1.407-0.578
			c-0.386-0.367-0.591-0.875-0.591-1.403C147.382,101.488,147.588,100.968,147.962,100.591z M131.166,107.254
			c-2.842-3.499-6.597-3.343-6.771-3.298c-1.177,0.098-2.041,1.097-1.957,2.268c0.063,1.184,0.981,2.004,2.257,2.035
			c0.232-0.021,2.727,0.045,4.177,3.462c0.059,0.411,0.059,0.907-0.147,1.329c-0.242,0.517-0.812,0.896-1.729,1.16
			c-1.729,0.496-2.669,0.343-5.759-5.136c-0.918-1.635-2.046-3.006-3.607-4.324c2.136-0.717,4.937-1.448,7.525-1.448
			c4.43,0,5.611,2.133,6.091,3.673C131.225,107.011,131.192,107.135,131.166,107.254z M72.214,103.436
			c-0.756,0.762-2.081,0.741-2.824-0.032c-0.789-0.789-0.778-2.067,0.016-2.845c0.377-0.355,0.881-0.562,1.413-0.562
			c0.562,0,1.061,0.211,1.458,0.588c0.361,0.377,0.567,0.886,0.562,1.438C72.823,102.555,72.602,103.059,72.214,103.436z
			 M95.093,103.296c2.582,0,5.374,0.717,7.517,1.437c-1.545,1.306-2.689,2.679-3.617,4.324c-3.075,5.475-3.942,5.633-5.746,5.137
			c-0.896-0.253-1.479-0.644-1.73-1.149c-0.221-0.443-0.205-0.949-0.134-1.395c1.474-3.365,3.937-3.396,4.164-3.396
			c1.236-0.042,2.193-0.81,2.283-1.993c0.108-1.182-0.788-2.223-1.985-2.31c-0.19-0.045-3.937-0.201-6.806,3.33
			c-0.021-0.111-0.042-0.243-0.037-0.285C89.477,105.418,90.65,103.296,95.093,103.296z M56.32,86.617
			c-0.113,0.221-0.419,0.529-0.902,0.819c0.082-0.598-0.095-1.226-0.522-1.716c-0.335-0.377-0.757-0.741-1.226-1.042
			C55.36,85.292,56.299,86.118,56.32,86.617z M48.112,87.479c1.993,0.087,3.156,0.633,3.538,1.076
			c0.103,0.113,0.211,0.222,0.335,0.309c-1.036,0.285-2.193,0.475-3.359,0.485c-0.071,0-0.119,0-0.185,0
			c-2.315,0-4.164-0.377-5.118-0.762C44.091,88.035,45.612,87.405,48.112,87.479z M47.946,109.511c-0.026,0-0.053,0-0.082,0
			c-5.163,0-9.389-4.448-9.439-9.957l-0.026-3.23c0.145,0.222,0.335,0.411,0.567,0.562c5.961,4.019,14.025,2.458,18.328,1.184
			l0.011,1.305c0.026,2.813-1.015,5.41-2.916,7.351C52.65,108.506,50.364,109.49,47.946,109.511z"/>
	</g>
</g>
<g>
</g>
<g>
</g>
<g>
</g>
<g>
</g>
<g>
</g>
<g>
</g>
<g>
</g>
<g>
</g>
<g>
</g>
<g>
</g>
<g>
</g>
<g>
</g>
<g>
</g>
<g>
</g>
<g>
</g>
</svg>
