<?xml version="1.0" encoding="iso-8859-1"?>
<!-- Generator: Adobe Illustrator 16.0.0, SVG Export Plug-In . SVG Version: 6.00 Build 0)  -->
<!DOCTYPE svg PUBLIC "-//W3C//DTD SVG 1.1//EN" "http://www.w3.org/Graphics/SVG/1.1/DTD/svg11.dtd">
<svg version="1.1" id="Capa_1" xmlns="http://www.w3.org/2000/svg" xmlns:xlink="http://www.w3.org/1999/xlink" x="0px" y="0px"
	 width="172.626px" height="172.626px" viewBox="0 0 172.626 172.626" style="enable-background:new 0 0 172.626 172.626;"
	 xml:space="preserve">
<g>
	<g>
		<path d="M2.424,119.516c4.67,15.084,14.279,28.005,27.605,36.9c11.484,7.66,24.686,11.619,38.179,11.619
			c4.545,0,9.122-0.439,13.667-1.358c46.01-9.183,76.029-53.901,67.267-99.905c6.984-0.731,17.36-2.615,18.152-18.283
			c0.079-1.464-0.098-2.926-0.292-4.497c-0.549-4.25-1.176-9.066,5.151-19.041c0.584-0.925,0.627-2.088,0.128-3.063
			c-0.494-0.98-1.468-1.632-2.558-1.708c0.006,0-8.567-0.773-17.196,5.021c-0.773-2.146-1.729-3.961-2.637-5.639
			c-2.003-3.809-3.33-6.329-2.009-11.006c0.311-1.108-0.013-2.299-0.853-3.097c-0.828-0.801-2.01-1.074-3.13-0.712
			c-0.396,0.131-9.95,3.349-14.347,12.053c-1.741,3.468-2.441,7.258-2.058,11.329c-2.838-0.892-5.821-1.339-8.908-1.339
			c-4.786,0-8.123,1.126-8.251,1.172c-1.048,0.356-1.814,1.227-2.046,2.305c-0.22,1.075,0.128,2.189,0.932,2.932
			c8.677,8.007,9.311,12.821,9.883,17.065c0.213,1.571,0.426,3.02,0.889,4.421c2.929,9.106,8.33,13.527,16.508,13.527
			c2.283,0,4.463-0.338,6.43-0.648c8.367,42.782-19.516,84.475-62.304,93.012c-16.453,3.271-33.201-0.042-47.17-9.347
			c-3.303-2.211-6.366-4.731-9.146-7.447c6.183,3.051,12.942,4.683,19.878,4.683c3.017,0,6.092-0.298,9.115-0.913
			c24.792-4.951,42.454-25.386,44.524-48.823c2.819-1.267,11.508-5.767,12.902-13.926c1.065-6.195-2.277-12.65-9.949-19.178
			l-0.7-0.605c-3.222-2.707-9.201-7.733-11.855-15.345c-0.427-1.19-1.525-2.016-2.792-2.077c-1.446-0.083-2.457,0.648-2.987,1.791
			c-0.536,1.126-12.869,27.809-4.159,41.655c2.771,4.396,7.289,6.887,13.274,7.685c-2.046,20.521-17.676,38.35-39.481,42.716
			c-10.163,2.033-20.457,0.092-29.018-5.45c-7.015-4.53-12.108-11.058-14.821-18.669c-0.612-1.967-1.124-4.001-1.522-6.053
			c0-0.03-0.024-0.055-0.037-0.079c-2.512-15.552,8.038-30.58,24.067-33.776c6.211-1.224,12.528-0.058,17.753,3.327
			c5.212,3.368,8.717,8.517,9.925,14.502c1.915,9.565-4.576,18.962-14.458,20.94c-1.69,0.335-2.78,1.967-2.457,3.666
			c0.35,1.687,2.009,2.788,3.666,2.447c13.269-2.648,21.955-15.338,19.354-28.277c-1.507-7.648-6.016-14.219-12.638-18.509
			c-6.604-4.277-14.529-5.781-22.347-4.217C9.783,75.245-3.163,94.143,0.673,113.415C1.103,115.521,1.727,117.537,2.424,119.516z
			 M142.432,61.34c-1.942,0.317-3.945,0.649-5.895,0.649c-3.769,0-7.977-1.093-10.583-9.204c-0.347-1.06-0.475-2.165-0.639-3.343
			c-0.536-3.992-1.236-9.216-7.515-16.398c4.269-0.155,8.702,0.893,12.459,3.075c1.139,0.646,2.521,0.542,3.531-0.274
			c0.999-0.819,1.4-2.171,0.986-3.401c-3.501-10.586,1.937-16.511,6.376-19.434c0.243,3.815,1.802,6.771,3.245,9.478
			c1.406,2.643,2.729,5.137,3.209,8.629c0.152,1.166,0.956,2.146,2.07,2.523c1.12,0.39,2.345,0.113,3.185-0.709
			c3.629-3.511,7.685-5.146,10.979-5.897c-4.201,8.555-3.52,13.78-3.008,17.768c0.146,1.181,0.311,2.277,0.25,3.392
			c-0.579,11.219-6.96,11.843-13.726,12.51c-0.87,0.088-1.687,0.161-2.466,0.268C144.112,61.066,143.29,61.203,142.432,61.34z
			 M83.589,87.719c-4.457-7.051-1.208-20.487,1.946-29.365c3.428,5.462,7.836,9.17,10.527,11.441l0.67,0.573
			c4.031,3.437,8.671,8.543,7.855,13.363c-0.597,3.446-3.86,6.205-6.649,7.91c-0.134-2.595-0.378-5.201-0.901-7.816
			c-0.347-1.696-2.01-2.807-3.678-2.451c-1.687,0.335-2.776,1.976-2.454,3.665c0.499,2.521,0.73,5.03,0.822,7.526
			C87.964,91.926,85.255,90.35,83.589,87.719z"/>
	</g>
</g>
<g>
</g>
<g>
</g>
<g>
</g>
<g>
</g>
<g>
</g>
<g>
</g>
<g>
</g>
<g>
</g>
<g>
</g>
<g>
</g>
<g>
</g>
<g>
</g>
<g>
</g>
<g>
</g>
<g>
</g>
</svg>
