<?xml version="1.0" encoding="iso-8859-1"?>
<!-- Generator: Adobe Illustrator 16.0.0, SVG Export Plug-In . SVG Version: 6.00 Build 0)  -->
<!DOCTYPE svg PUBLIC "-//W3C//DTD SVG 1.1//EN" "http://www.w3.org/Graphics/SVG/1.1/DTD/svg11.dtd">
<svg version="1.1" id="Capa_1" xmlns="http://www.w3.org/2000/svg" xmlns:xlink="http://www.w3.org/1999/xlink" x="0px" y="0px"
	 width="222.255px" height="222.255px" viewBox="0 0 222.255 222.255" style="enable-background:new 0 0 222.255 222.255;"
	 xml:space="preserve">
<g>
	<g>
		<path d="M14.452,75.568c0,1.49,1.213,2.7,2.7,2.7h53.486c-0.696,0.454-1.355,0.971-1.943,1.577
			c-4.714,4.812-4.651,12.551,0.156,17.275c2.302,2.257,5.342,3.486,8.559,3.486c0.005,0,0.005,0,0.005,0
			c3.301,0,6.394-1.284,8.707-3.649c2.128-2.149,3.293-4.968,3.444-7.977c13.998-5.044,26.496,0.752,35.261,16.422
			c0.121,0.222,0.337,0.34,0.517,0.53c0.053,0.074,0.105,0.134,0.158,0.221H50.448c-1.487,0-2.7,1.208-2.7,2.7
			c0,1.484,1.213,2.7,2.7,2.7h74.704v74.698c0,1.477,1.213,2.7,2.699,2.7c1.487,0,2.7-1.224,2.7-2.7v-73.496
			c6.202,7.062,14.228,12.641,25.345,15.298c0.838,0.201,1.692,0.312,2.552,0.454v91.046c0,1.481,1.213,2.7,2.7,2.7
			s2.7-1.219,2.7-2.7v-90.45c0.559,0.021,1.086,0.101,1.635,0.101c7.878,0,15.462-2.336,22.021-6.861
			c10.136-7.014,16.938-18.642,18.657-31.92c0.19-1.469-0.854-2.818-2.33-3.035c-1.509-0.201-2.827,0.841-3.032,2.338
			c-1.524,11.766-7.505,22.033-16.374,28.166c-6.091,4.182-13.216,6.186-20.588,5.837V78.878c1.593-0.15,3.133-0.625,4.44-1.506
			c1.582,1.052,3.47,1.659,5.41,1.659c1.667,0,3.249-0.412,4.693-1.226c1.746-0.983,3.144-2.452,4.003-4.208
			c1.851,0.622,3.907,0.698,5.832,0.132c1.608-0.482,3.043-1.329,4.161-2.463c1.397-1.384,2.314-3.117,2.679-5.002
			c1.894-0.356,3.607-1.273,4.968-2.645c1.149-1.129,2.004-2.576,2.489-4.188c0.559-1.914,0.49-3.952-0.143-5.819
			c1.751-0.865,3.254-2.257,4.219-4.018c0.785-1.453,1.213-3.057,1.213-4.693c0-1.943-0.575-3.818-1.646-5.4
			c1.06-1.593,1.646-3.473,1.646-5.421c0-1.669-0.396-3.251-1.213-4.704c-0.986-1.748-2.468-3.143-4.229-4
			c0.633-1.864,0.707-3.899,0.143-5.838c-0.475-1.613-1.303-3.019-2.458-4.163c-1.381-1.39-3.105-2.302-4.988-2.668
			c-0.364-1.875-1.281-3.607-2.658-4.968c-1.128-1.149-2.578-2.004-4.182-2.489c-1.914-0.562-3.981-0.488-5.821,0.135
			c-0.86-1.751-2.258-3.241-4.003-4.206c-3.133-1.729-7.183-1.529-10.114,0.43c-2.9-1.948-6.93-2.159-10.114-0.43
			c-1.74,0.971-3.133,2.455-3.987,4.206c-1.856-0.628-3.966-0.681-5.812-0.135c-1.582,0.443-3.037,1.295-4.208,2.479
			c-1.371,1.382-2.288,3.108-2.647,4.979c-1.888,0.366-3.606,1.278-4.988,2.668c-1.171,1.16-2.025,2.603-2.468,4.169
			c-0.564,1.922-0.496,3.958,0.126,5.832c-1.75,0.857-3.237,2.252-4.208,4c-0.802,1.463-1.213,3.035-1.213,4.704
			c0,1.938,0.569,3.818,1.646,5.41c-1.055,1.582-1.646,3.468-1.646,5.421c0,1.648,0.401,3.23,1.213,4.704
			c0.981,1.751,2.458,3.133,4.219,3.998c-0.211,0.593-0.253,1.237-0.337,1.867c-7.336,4.198-12.261,10.114-14.502,17.384h-3.691
			c-1.329-3.262-2.68-6.518-4.116-9.635c-8.69-18.747-16.276-34.997-34.47-37.76c-0.084-3.059-1.273-6.089-3.628-8.393
			c-4.643-4.575-12.707-4.493-17.262,0.15c-2.302,2.328-3.533,5.4-3.507,8.662c0.039,3.262,1.334,6.341,3.678,8.63
			c2.289,2.257,5.318,3.488,8.554,3.488c3.293,0,6.41-1.297,8.722-3.673c1.021-1.036,1.793-2.257,2.365-3.515
			c13.234,1.885,19.762,11.81,27.873,28.788c-8.406-6.544-18.375-8.274-28.943-4.746c-0.604-1.463-1.511-2.797-2.679-3.937
			c-4.643-4.575-12.706-4.503-17.278,0.156c-2.297,2.333-3.522,5.41-3.494,8.667c0.032,3.261,1.334,6.32,3.66,8.604
			c2.307,2.268,5.342,3.504,8.569,3.504c3.307,0,6.405-1.297,8.707-3.662c2.128-2.139,3.293-4.957,3.444-7.953
			c12.756-4.617,24.247-0.113,32.821,12.583H17.163C15.649,72.869,14.452,74.074,14.452,75.568z M134.159,44.912
			c0-1.29,0.569-2.51,1.571-3.335l2.5-2.075l-2.5-2.078c-1.002-0.831-1.571-2.065-1.571-3.343c0-0.746,0.179-1.453,0.548-2.097
			c0.738-1.32,2.136-2.175,3.66-2.217l5.98-0.169l-4.104-4.385c-1.033-1.118-1.444-2.716-1.012-4.169
			c0.2-0.707,0.563-1.326,1.097-1.856c0.817-0.82,1.914-1.184,3.47-1.247l3.228,0.285l-0.296-3.217
			c-0.115-1.292,0.333-2.561,1.245-3.468c0.527-0.54,1.149-0.896,1.877-1.107c1.424-0.4,3.043-0.031,4.146,1.016l4.366,4.147
			l0.2-6.012c0.053-1.517,0.907-2.932,2.215-3.67c1.793-0.989,4.155-0.525,5.463,1.031l2.089,2.505l2.083-2.521
			c1.26-1.561,3.639-1.993,5.399-1.015c1.329,0.738,2.168,2.138,2.226,3.66l0.164,5.988l4.382-4.103
			c1.107-1.031,2.79-1.426,4.161-1.02c0.722,0.221,1.371,0.593,1.888,1.118c0.907,0.907,1.36,2.165,1.244,3.483l0.111,3.212
			l3.232-0.306c1.16,0,2.235,0.448,3.053,1.258c0.518,0.519,0.887,1.139,1.087,1.846c0.416,1.479,0.053,3.045-1.018,4.179
			l-4.104,4.374l5.98,0.18c1.551,0.042,2.922,0.875,3.681,2.215c0.349,0.646,0.538,1.36,0.538,2.099
			c0,1.287-0.569,2.518-1.571,3.333l-2.521,2.078l2.521,2.091c1.002,0.82,1.571,2.041,1.571,3.322c0,0.728-0.189,1.456-0.538,2.093
			c-0.759,1.351-2.13,2.178-3.681,2.231l-5.97,0.179l4.093,4.366c1.055,1.124,1.444,2.722,1.018,4.164
			c-0.206,0.74-0.575,1.363-1.103,1.88c-0.791,0.799-1.866,1.242-3.396,1.242c-0.032,0-0.063,0-0.096,0l-3.243-0.298l0.322,3.241
			c0.11,1.286-0.338,2.555-1.261,3.482c-0.501,0.504-1.134,0.881-1.84,1.087c-1.467,0.422-3.069,0.016-4.166-1.016l-4.388-4.116
			l-0.158,5.978c-0.053,1.529-0.896,2.921-2.226,3.667c-1.814,1-4.135,0.546-5.421-1.015l-2.089-2.516l-2.077,2.516
			c-0.823,0.994-2.083,1.463-3.322,1.468c-0.475-0.406-1.055-0.675-1.729-0.675h-0.602c-1.171-0.777-1.951-2.03-1.993-3.456
			l-0.169-6.004l-4.388,4.137c-1.107,1.036-2.731,1.429-4.166,1.015c-0.717-0.206-1.35-0.578-1.866-1.091
			c-0.923-0.923-1.377-2.181-1.245-3.478l-0.095-3.219l-3.243,0.287c-1.16,0-2.257-0.443-3.09-1.273
			c-0.507-0.509-0.87-1.129-1.071-1.859c-0.432-1.453-0.047-3.035,1.013-4.164l4.155-4.385l-6.032-0.161
			c-1.551-0.05-2.911-0.87-3.66-2.204C134.338,46.354,134.159,45.652,134.159,44.912z M134.823,61.249
			c0.454,0.872,1.013,1.689,1.688,2.365c1.382,1.381,3.096,2.299,4.979,2.661c0.363,1.875,1.281,3.607,2.668,5.002
			c0.628,0.63,1.36,1.149,2.146,1.587h-21.146C126.992,68.191,130.225,64.289,134.823,61.249z M123.707,78.269h34.741v44.793
			c-0.433-0.095-0.864-0.132-1.297-0.243c-16.031-3.828-24.954-14.428-31.524-27.005C123.538,89.348,122.927,83.463,123.707,78.269z
			 M118.191,78.269c-0.026,0.227-0.032,0.464-0.063,0.696c-0.09-0.232-0.18-0.464-0.274-0.696H118.191z M69.773,30.576
			c-2.552,2.603-7.05,2.634-9.632,0.098c-1.308-1.268-2.036-2.998-2.059-4.823c-0.011-1.819,0.688-3.53,1.956-4.833
			c1.29-1.318,3.035-2.046,4.865-2.046c1.793,0,3.489,0.696,4.775,1.938C72.349,23.572,72.399,27.896,69.773,30.576z M68.531,64.455
			c-2.542,2.586-7.024,2.647-9.638,0.071c-1.297-1.271-2.024-2.982-2.041-4.796c-0.019-1.825,0.68-3.536,1.943-4.838
			c1.29-1.318,3.035-2.046,4.87-2.046c1.799,0,3.489,0.696,4.781,1.948c1.294,1.269,2.036,2.987,2.046,4.812
			C70.514,61.431,69.823,63.155,68.531,64.455z M112.031,78.269c0.096,0.232,0.18,0.443,0.274,0.675
			c1.044,2.608,2.12,5.271,3.238,7.926c-7.971-5.292-17.194-6.484-26.887-3.261c-0.609-1.464-1.506-2.79-2.679-3.932
			c-0.562-0.543-1.155-1.007-1.791-1.419L112.031,78.269L112.031,78.269z M77.419,81.583c1.793,0,3.488,0.688,4.775,1.951
			c1.295,1.263,2.025,2.975,2.046,4.799c0.01,1.827-0.686,3.544-1.954,4.838c-1.292,1.313-3.024,2.036-4.857,2.036
			c-1.803,0-3.488-0.696-4.783-1.938c-2.684-2.634-2.721-6.961-0.103-9.637C73.836,82.313,75.568,81.583,77.419,81.583z"/>
		<path d="M168.352,61.776c12.351,0,22.412-10.049,22.412-22.404c0-12.356-10.062-22.404-22.412-22.404
			c-12.35,0-22.412,10.048-22.412,22.404C145.939,51.728,156.002,61.776,168.352,61.776z M159.703,53.947
			c-2.499-1.492-4.571-3.591-6.021-6.125l4.65-4.643l6.06,6.075L159.703,53.947z M162.135,39.356l6.075-6.075l6.074,6.075
			l-6.074,6.075L162.135,39.356z M168.352,56.376c-1.064,0-2.109-0.119-3.121-0.324l2.995-2.995l3.026,3.035
			C170.293,56.252,169.338,56.376,168.352,56.376z M176.821,54.032l-4.794-4.783l6.075-6.075l4.825,4.828
			C181.44,50.501,179.342,52.571,176.821,54.032z M185.042,36.234c0.19,1.015,0.333,2.064,0.333,3.132
			c0,1.065-0.116,2.107-0.333,3.111l-3.121-3.122L185.042,36.234z M176.8,24.696c2.531,1.463,4.625,3.52,6.117,6.03l-4.814,4.817
			l-6.075-6.075L176.8,24.696z M168.352,22.362c0.981,0,1.931,0.124,2.858,0.298l-3,3.001l-2.975-2.975
			C166.253,22.481,167.281,22.362,168.352,22.362z M159.725,24.785l4.667,4.678l-6.06,6.075l-4.65-4.644
			C155.142,28.371,157.215,26.278,159.725,24.785z M151.335,39.366c0-0.999,0.11-1.943,0.29-2.89l2.89,2.879l-2.89,2.89
			C151.467,41.305,151.335,40.355,151.335,39.366z"/>
	</g>
</g>
<g>
</g>
<g>
</g>
<g>
</g>
<g>
</g>
<g>
</g>
<g>
</g>
<g>
</g>
<g>
</g>
<g>
</g>
<g>
</g>
<g>
</g>
<g>
</g>
<g>
</g>
<g>
</g>
<g>
</g>
</svg>
