<?xml version="1.0" encoding="iso-8859-1"?>
<!-- Generator: Adobe Illustrator 16.0.0, SVG Export Plug-In . SVG Version: 6.00 Build 0)  -->
<!DOCTYPE svg PUBLIC "-//W3C//DTD SVG 1.1//EN" "http://www.w3.org/Graphics/SVG/1.1/DTD/svg11.dtd">
<svg version="1.1" id="Capa_1" xmlns="http://www.w3.org/2000/svg" xmlns:xlink="http://www.w3.org/1999/xlink" x="0px" y="0px"
	 width="249.412px" height="249.411px" viewBox="0 0 249.412 249.411" style="enable-background:new 0 0 249.412 249.411;"
	 xml:space="preserve">
<g>
	<g>
		<path d="M238.494,108.283c0.884-5.322-2.368-8.114,0.677-12.803c0,0-11.064,0.174-10.876,11.192
			c-4.372-4.747-10.181-4.558-10.181-4.558c4.561,7.901,2.326,10.644,2.351,13.655c0.079,7.152,4.463,8.126,8.062,8.638
			c-0.39,0.39-0.657,0.889-0.718,1.461c-1.157,11.18-6.613,21.258-15.345,28.352c-8.738,7.105-19.681,10.34-30.903,9.213
			c-9.736-1.011-18.029-6.174-23.382-13.518c3.331,2.143,7.094,3.592,11.167,4.013c1.097,0.128,2.187,0.164,3.271,0.164
			c13.506,0,25.337-8.701,29.228-21.104c3.685-0.908,10.023-3.94,3.824-13.731c-1.193-1.896-4.019-5.919-4.214-11.073
			c0,0-15.996,17.533-4.591,23.909c-3.727,10.839-14.809,18.072-27.012,16.867c-5.364-0.548-10.205-3.094-13.604-7.173
			c-2.983-3.562-4.469-7.947-4.433-12.495c0.024-0.768,0.049-1.534,0.134-2.29c0-0.036-0.006-0.049-0.006-0.061
			c0.529-3.775,2.454-7.173,5.511-9.605c3.239-2.536,7.282-3.678,11.46-3.273c3.251,0.344,6.168,1.903,8.195,4.396
			c1.943,2.393,2.838,5.355,2.521,8.373c-0.231,2.319-1.395,4.402-3.246,5.857c-1.894,1.486-4.244,2.162-6.691,1.93
			c-1.321-0.151-2.594,0.871-2.729,2.211c-0.14,1.383,0.853,2.594,2.217,2.74c3.727,0.39,7.393-0.67,10.291-2.959
			c2.929-2.314,4.749-5.615,5.127-9.28c0.45-4.32-0.841-8.604-3.617-12.026c-2.874-3.538-6.972-5.757-11.557-6.211
			c-5.463-0.594-10.803,0.953-15.071,4.314c-2.064,1.641-3.732,3.604-4.987,5.818c-0.097-0.013-0.176-0.07-0.268-0.07
			c-10.777,0-14.602-9.514-14.602-17.695c0-7.538,6.126-13.648,13.651-13.648c5.761,0,10.438,4.683,10.438,10.437
			c0,4.309-3.514,7.831-7.843,7.831c-3.197,0-5.791-2.579-5.791-5.772c0-1.386-1.114-2.481-2.49-2.481
			c-1.383,0-2.491,1.123-2.491,2.481c0,5.937,4.829,10.78,10.778,10.78c7.082,0,12.83-5.76,12.842-12.839
			c0-8.497-6.917-15.445-15.43-15.445c-10.278,0-18.646,8.388-18.646,18.657c0,7.551,2.43,13.704,6.601,17.695H126.8V94.601
			c0.506-0.368,0.999-0.743,1.377-1.297l6.339-9.328c0.518-0.762,0.572-1.745,0.128-2.561c-0.438-0.825-1.279-1.337-2.205-1.337
			h-2.338c-0.061-3.154-2.618-5.712-5.794-5.712c-3.182,0-5.736,2.558-5.794,5.712h-2.344c-0.922,0-1.769,0.512-2.207,1.337
			c-0.436,0.815-0.381,1.793,0.137,2.561l6.33,9.328c0.381,0.566,0.874,0.941,1.38,1.297v24.555h-9.323
			c4.171-3.991,6.61-10.145,6.61-17.695c0-10.269-8.37-18.657-18.657-18.657c-4.123,0-7.992,1.623-10.906,4.534
			c-2.911,2.926-4.521,6.79-4.515,10.912c0,7.079,5.757,12.839,12.833,12.839c5.937,0,10.769-4.825,10.769-10.78
			c0-1.386-1.114-2.481-2.494-2.481s-2.494,1.123-2.494,2.481c0,3.193-2.594,5.772-5.781,5.772c-4.327,0-7.843-3.501-7.843-7.831
			c0-2.773,1.084-5.404,3.054-7.395c1.973-1.958,4.591-3.042,7.383-3.042c7.532,0,13.667,6.11,13.667,13.648
			c0,8.05-3.745,17.366-14.16,17.646c-1.245-2.158-2.88-4.104-4.911-5.699c-4.259-3.361-9.615-4.896-15.064-4.314
			c-4.585,0.454-8.686,2.673-11.56,6.211c-2.783,3.422-4.068,7.676-3.617,12.026c0.38,3.659,2.201,6.966,5.13,9.268
			c2.907,2.29,6.567,3.361,10.291,2.972c1.37-0.134,2.363-1.364,2.226-2.74c-0.143-1.376-1.41-2.399-2.737-2.211
			c-2.463,0.232-4.807-0.42-6.692-1.93c-1.863-1.455-3.017-3.538-3.254-5.857c-0.311-2.999,0.587-5.98,2.524-8.373
			c2.034-2.493,4.947-4.062,8.208-4.396c4.159-0.387,8.229,0.737,11.46,3.273c3.06,2.433,4.975,5.83,5.511,9.605
			c0,0.012-0.006,0.024-0.006,0.061c0.083,0.756,0.094,1.522,0.125,2.29c0.037,4.548-1.44,8.933-4.427,12.495
			c-3.404,4.079-8.229,6.625-13.6,7.173c-12.188,1.205-23.282-6.028-27.009-16.867c11.402-6.363-4.604-23.909-4.604-23.909
			c-0.198,5.154-3.011,9.198-4.208,11.073c-6.211,9.791,0.137,12.823,3.827,13.731c3.891,12.403,15.719,21.104,29.237,21.104
			c1.081,0,2.17-0.049,3.267-0.164c4.074-0.402,7.833-1.87,11.167-4.013c-5.355,7.344-13.649,12.507-23.382,13.518
			c-11.167,1.15-22.165-2.107-30.902-9.213c-8.735-7.1-14.185-17.172-15.345-28.352c-0.061-0.59-0.341-1.084-0.715-1.461
			c3.596-0.512,7.979-1.461,8.056-8.638c0.037-3.011-2.213-5.778,2.351-13.655c0,0-5.806-0.167-10.181,4.558
			C21.312,95.654,10.239,95.48,10.239,95.48c3.047,4.689-0.201,7.48,0.679,12.803C5.283,105.434,0,107.477,0,107.477
			c6.933,5.918,5.736,9.258,6.771,12.084c2.381,6.509,6.622,6.187,10.12,5.528c-0.18,0.384-0.305,0.828-0.256,1.291
			c1.297,12.508,7.395,23.778,17.166,31.713c8.473,6.887,18.836,10.546,29.611,10.546c1.641,0,3.3-0.097,4.951-0.268
			c20.179-2.083,35.043-19.619,34.181-39.604c-0.018-0.614,0.058-1.205-0.006-1.826c-0.098-0.95-0.341-1.888-0.579-2.789h19.86
			v9.742c-10.233,1.255-18.207,9.89-18.207,20.46c0,11.411,9.283,20.691,20.7,20.691c11.414,0,20.694-9.28,20.694-20.691
			c0-10.57-7.977-19.205-18.2-20.46v-9.736h20.648c-0.231,0.908-0.476,1.84-0.585,2.795c-0.061,0.621,0.012,1.212,0,1.814
			c-0.858,19.985,14.005,37.527,34.179,39.61c1.662,0.165,3.306,0.269,4.95,0.269c10.766,0,21.129-3.666,29.611-10.541
			c9.773-7.928,15.862-19.205,17.166-31.725c0.048-0.463-0.073-0.9-0.256-1.291c3.495,0.664,7.739,0.986,10.12-5.522
			c1.035-2.822-0.158-6.165,6.771-12.084C249.412,107.477,244.126,105.434,238.494,108.283z M115.146,167.086
			c-3.946-2.862-6.546-7.459-6.546-12.702c0-5.236,2.6-9.852,6.546-12.695c-1.464,3.459-2.351,7.807-2.351,12.695
			C112.795,159.28,113.682,163.609,115.146,167.086z M121.826,168.62c-2.101-2.313-4.04-7.295-4.04-14.236
			c0-6.936,1.939-11.916,4.04-14.23V168.62z M133.481,141.688c3.945,2.844,6.539,7.459,6.539,12.695c0,5.243-2.6,9.84-6.539,12.702
			c1.467-3.489,2.35-7.806,2.35-12.702C135.831,149.495,134.948,145.135,133.481,141.688z M130.844,154.384
			c0,6.941-1.942,11.923-4.031,14.236v-28.467C128.908,142.468,130.844,147.448,130.844,154.384z"/>
	</g>
</g>
<g>
</g>
<g>
</g>
<g>
</g>
<g>
</g>
<g>
</g>
<g>
</g>
<g>
</g>
<g>
</g>
<g>
</g>
<g>
</g>
<g>
</g>
<g>
</g>
<g>
</g>
<g>
</g>
<g>
</g>
</svg>
