<?xml version="1.0" encoding="iso-8859-1"?>
<!-- Generator: Adobe Illustrator 16.0.0, SVG Export Plug-In . SVG Version: 6.00 Build 0)  -->
<!DOCTYPE svg PUBLIC "-//W3C//DTD SVG 1.1//EN" "http://www.w3.org/Graphics/SVG/1.1/DTD/svg11.dtd">
<svg version="1.1" id="Capa_1" xmlns="http://www.w3.org/2000/svg" xmlns:xlink="http://www.w3.org/1999/xlink" x="0px" y="0px"
	 width="225.087px" height="225.088px" viewBox="0 0 225.087 225.088" style="enable-background:new 0 0 225.087 225.088;"
	 xml:space="preserve">
<g>
	<g>
		<path d="M223.777,114.584c-10.303-1.583-16.355,5.949-23.346,14.688c-1.571,1.948-3.081,4.056-4.616,6.198
			c-0.098,0.128-0.177,0.256-0.28,0.384c0.512-5.06-1.267-9.688-5.291-13.433c0.183-0.384,0.433-0.688,0.542-1.12
			c0.426-1.687,0.177-3.429-0.706-4.92c-1.735-2.95-5.889-4.034-8.891-2.265c-3.081,1.814-4.092,5.815-2.265,8.908
			c1.175,1.948,3.294,3.167,5.583,3.167c1.176,0,2.308-0.316,3.307-0.908c0.171-0.115,0.305-0.292,0.463-0.407
			c5.188,4.956,5.59,11.612,1.15,18.913c-4.804,5.504-10.527,9.761-18.979,9.761c-0.073,0-0.122,0-0.146,0
			c-4.201-0.036-7.988-1.462-11.045-4.013c4.444-2.734,8.348-6.346,11.325-10.809c5.334-8.014,7.295-17.609,5.554-27.057
			c2.91-0.334,7.398-1.276,7.733-7.998c0.036-0.648-0.037-1.279-0.135-1.952c-0.225-1.778-0.486-3.778,2.168-7.968
			c0.305-0.463,0.329-1.05,0.073-1.534c-0.243-0.487-0.719-0.825-1.278-0.861c-0.037,0-0.378-0.013-0.396-0.013
			c-0.968,0-3.927,0.162-6.844,2.034c-0.323-0.825-0.688-1.51-1.035-2.177c-0.847-1.583-1.395-2.619-0.858-4.54
			c0.146-0.548-0.013-1.153-0.414-1.546c-0.402-0.387-1.023-0.536-1.565-0.362c-0.177,0.07-4.329,1.461-6.253,5.27
			c-0.719,1.428-1.029,2.98-0.914,4.625c-1.15-0.335-2.326-0.484-3.556-0.484c-2.059,0-3.459,0.454-3.617,0.512
			c-0.512,0.173-0.913,0.627-1.005,1.166c-0.128,0.536,0.062,1.096,0.457,1.452c3.642,3.374,3.909,5.374,4.152,7.152
			c0.104,0.673,0.195,1.315,0.384,1.933c1.267,3.946,3.721,5.94,7.271,5.94c0.883,0,1.711-0.138,2.533-0.269
			c1.662,8.708-0.115,17.537-5.036,24.941c-2.886,4.299-6.697,7.709-11.045,10.267c-2.826-3.435-4.342-7.892-4.415-12.642
			c3.367,0.269,10.26-0.39,7.386-10.997c-0.554-1.984-1.942-6.287-0.706-10.869c0,0-19.619,11.612-9.742,20.393
			c-0.256,5.81,1.425,11.308,4.749,15.589c-2.43,1.132-4.932,2.07-7.623,2.606c-14.42,2.886-28.446-6.504-31.313-20.904
			c0-0.049-0.049-0.067-0.062-0.116c-0.012-0.061,0.049-0.097,0.037-0.14c-0.524-3.246,0.268-6.467,2.219-9.134
			c1.961-2.686,4.908-4.448,8.233-5.009c2.648-0.453,5.279,0.155,7.41,1.689c2.052,1.475,3.403,3.63,3.806,6.065
			c0.646,3.97-2.168,7.721-6.271,8.409c-1.511,0.25-3.002-0.104-4.251-0.95c-1.218-0.853-2.021-2.106-2.253-3.525
			c-0.365-2.229,1.206-4.348,3.514-4.726c0.858-0.146,1.431-0.949,1.285-1.802c-0.146-0.858-0.938-1.407-1.79-1.279
			c-4.007,0.646-6.735,4.396-6.107,8.318c0.383,2.259,1.649,4.263,3.562,5.577c1.486,1.048,3.252,1.596,5.066,1.596
			c0.487,0,0.98-0.037,1.461-0.122c5.797-0.95,9.743-6.326,8.842-11.972c-0.548-3.264-2.351-6.149-5.066-8.101
			c-2.801-2.003-6.271-2.801-9.73-2.232c-4.134,0.673-7.775,2.88-10.254,6.218c-0.019,0.03-0.03,0.055-0.049,0.091v-1.851
			c2.046-1.304,13.116-8.899,12.897-20.067c-0.073-3.517-2.375-6.695-4.409-9.496c-1.76-2.451-3.435-4.749-3.142-6.503
			c0.256-1.44,1.352-1.952,3.093-2.618c1.443-0.548,3.446-1.304,3.386-3.505c-0.109-4.408-5.919-7.736-13.558-7.736h-0.487
			c-4.981,0.098-9.56,1.687-11.935,4.165c-1.178,1.233-1.802,2.68-1.763,4.153c0.049,2.18,2.043,2.85,3.504,3.327
			c1.781,0.606,2.886,1.06,3.203,2.488c0.375,1.742-1.196,4.116-2.874,6.622c-1.921,2.896-4.07,6.163-4.028,9.691
			c0.186,10.181,9.703,17.016,12.976,19.092v3.334c-0.244-0.385-0.423-0.816-0.703-1.176c-2.473-3.337-6.104-5.544-10.251-6.223
			c-3.444-0.569-6.912,0.228-9.728,2.232c-2.731,1.939-4.546,4.825-5.069,8.095c-0.91,5.651,3.047,11.028,8.829,11.972
			c0.49,0.092,0.99,0.128,1.477,0.128c1.803,0,3.547-0.548,5.063-1.596c1.921-1.327,3.188-3.312,3.559-5.583
			c0.642-3.909-2.095-7.667-6.104-8.306c-0.853-0.135-1.663,0.42-1.787,1.278c-0.137,0.853,0.423,1.656,1.275,1.803
			c2.308,0.378,3.897,2.478,3.52,4.726c-0.238,1.424-1.042,2.691-2.259,3.525c-1.221,0.883-2.731,1.218-4.259,0.949
			c-4.089-0.657-6.896-4.438-6.26-8.385c0.399-2.46,1.753-4.597,3.796-6.089c2.134-1.51,4.729-2.149,7.408-1.684
			c3.331,0.548,6.269,2.329,8.238,4.996c1.958,2.667,2.75,5.906,2.22,9.134c-0.012,0.098,0.067,0.158,0.067,0.244
			c0,0-0.012,0-0.012,0.012c-2.892,14.395-16.879,23.76-31.313,20.898c-2.953-0.609-5.69-1.688-8.324-2.984
			c2.987-4.019,4.545-9.036,4.491-14.395c12.185-8.829-8.762-21.196-8.762-21.196c1.224,4.582-0.155,8.878-0.704,10.869
			c-2.618,9.657,2.838,11.058,6.378,11.04c-0.082,4.566-1.51,8.859-4.153,12.215c-4.052-2.503-7.614-5.81-10.339-9.89
			c-4.929-7.392-6.695-16.239-5.042-24.941c0.816,0.131,1.671,0.268,2.542,0.268c3.556,0,6.004-1.994,7.271-5.928
			c0.195-0.63,0.292-1.255,0.387-1.945c0.237-1.778,0.505-3.778,4.159-7.152c0.399-0.374,0.588-0.916,0.469-1.452
			c-0.119-0.536-0.506-0.974-1.023-1.166c-0.149-0.058-1.564-0.512-3.617-0.512c-1.221,0-2.411,0.149-3.547,0.484
			c0.119-1.662-0.207-3.209-0.911-4.625c-1.927-3.79-6.104-5.212-6.266-5.27c-0.557-0.186-1.166-0.049-1.568,0.362
			c-0.417,0.393-0.584,0.998-0.417,1.546c0.557,1.921-0.012,2.968-0.846,4.545c-0.356,0.648-0.719,1.364-1.035,2.171
			c-2.926-1.878-5.855-2.034-6.86-2.034c-0.037,0-0.368,0.012-0.386,0.012c-0.548,0.036-1.035,0.368-1.279,0.855
			c-0.25,0.484-0.219,1.071,0.088,1.534c2.643,4.202,2.387,6.208,2.17,7.986c-0.088,0.679-0.158,1.327-0.131,1.945
			c0.341,6.698,4.808,7.663,7.724,7.986c-1.745,9.478,0.207,19.05,5.562,27.063c2.85,4.287,6.516,7.795,10.717,10.498
			c-3.118,2.734-7.051,4.293-11.396,4.323c-0.064,0-0.125,0-0.165,0c-8.437,0-14.161-4.274-18.962-9.755
			c-4.463-7.295-4.07-13.969,1.13-18.925c0.161,0.128,0.28,0.322,0.475,0.414c0.99,0.608,2.144,0.913,3.297,0.913
			c2.271,0,4.409-1.218,5.581-3.19c1.827-3.081,0.815-7.082-2.256-8.896c-2.968-1.763-7.146-0.703-8.912,2.283
			c-0.892,1.486-1.142,3.228-0.697,4.896c0.119,0.414,0.359,0.756,0.542,1.133c-4.028,3.751-5.812,8.379-5.288,13.445
			c-0.106-0.135-0.186-0.268-0.28-0.402c-1.534-2.131-3.054-4.238-4.628-6.198c-6.975-8.738-13.019-16.283-23.336-14.675
			c-0.85,0.131-1.428,0.922-1.297,1.796c0.131,0.84,0.892,1.431,1.775,1.291c7.146-1.172,11.706,2.898,17.914,10.437
			c-5.148-2.095-10.498-1.51-15.417,1.906c-0.719,0.493-0.904,1.443-0.399,2.168c0.484,0.719,1.458,0.889,2.168,0.396
			c6.39-4.433,13.433-3.087,19.805,3.745c0.061,0.061,0.149,0.036,0.21,0.085c0.226,0.316,0.451,0.597,0.676,0.913
			c0.484,0.664,0.996,1.377,1.495,2.07c-1.44-0.45-2.987-0.67-4.628-0.523c-0.061-0.487-0.073-0.986-0.304-1.461
			c-0.804-1.607-2.445-2.668-3.629-2.887c-14.066-2.594-15.213,20.459-15.25,21.385c-0.019,0.572,0.268,1.108,0.761,1.4
			c0.24,0.146,0.523,0.22,0.797,0.22c0.274,0,0.548-0.073,0.792-0.22c4.083-2.423,6.515-2.959,8.896-3.002
			c6.104-0.182,11.244-0.791,12.446-6.454c0.463-2.198,0.131-4.024-0.853-5.528c3.346,1.028,6.415,3.957,9.789,7.574
			c0.131,0.128,0.329,0.128,0.499,0.201c4.481,3.86,9.913,6.606,17.083,6.606c0.076,0,0.131,0,0.195,0
			c5.511-0.036,10.513-2.198,14.285-5.876c3.054,1.596,6.291,2.923,9.764,3.617c1.952,0.377,3.909,0.572,5.843,0.572
			c11.673,0,22.24-6.966,27.036-17.573v12.981c0,0.865,0.685,1.56,1.559,1.56s1.559-0.694,1.559-1.56v-11.812
			c5.023,9.926,15.204,16.404,26.451,16.404c1.931,0,3.866-0.183,5.84-0.572c3.251-0.658,6.271-1.869,9.17-3.288
			c3.751,3.495,8.573,5.528,13.914,5.565c0.079,0,0.128,0,0.194,0c7.18,0,12.599-2.729,17.08-6.589
			c0.171-0.085,0.384-0.073,0.512-0.219c3.373-3.617,6.442-6.516,9.791-7.551c-0.998,1.498-1.327,3.325-0.864,5.505
			c1.182,5.662,6.345,6.271,12.44,6.454c2.381,0.062,4.804,0.597,8.908,3.021c0.243,0.128,0.518,0.219,0.791,0.219
			c0.274,0,0.561-0.091,0.805-0.219c0.486-0.293,0.779-0.828,0.755-1.419c-0.037-0.907-1.072-24.021-15.271-21.385
			c-1.176,0.2-2.813,1.261-3.605,2.886c-0.231,0.445-0.243,0.956-0.304,1.443c-1.656-0.141-3.197,0.079-4.641,0.523
			c0.5-0.676,1.011-1.4,1.511-2.082c0.207-0.305,0.438-0.585,0.657-0.901c0.067-0.049,0.146-0.024,0.207-0.085
			c6.369-6.82,13.396-8.166,19.802-3.745c0.706,0.475,1.693,0.323,2.174-0.396c0.487-0.707,0.323-1.675-0.384-2.168
			c-4.944-3.404-10.272-3.988-15.441-1.894c6.198-7.526,10.729-11.566,17.914-10.449c0.913,0.128,1.644-0.451,1.778-1.291
			C225.202,115.519,224.629,114.715,223.777,114.584z M187.765,120.527c-0.231,0.877-0.779,1.607-1.547,2.07
			c-1.583,0.925-3.702,0.378-4.621-1.175c-0.95-1.62-0.42-3.69,1.175-4.625c0.523-0.32,1.121-0.476,1.705-0.476
			c1.182,0,2.29,0.625,2.904,1.659C187.857,118.761,187.997,119.663,187.765,120.527z M172.932,108.915
			c-2.21,0.381-5.14,1.61-6.783-3.498c-0.128-0.436-0.195-0.904-0.268-1.389c-0.22-1.684-0.512-3.824-2.947-6.762
			c1.692,0.027,3.288,0.438,4.73,1.291c0.566,0.332,1.273,0.268,1.76-0.144c0.506-0.398,0.694-1.083,0.5-1.689
			c-1.364-4.125,0.554-6.54,2.319-7.818c0.177,1.474,0.798,2.658,1.377,3.742c0.59,1.124,1.15,2.171,1.346,3.605
			c0.085,0.584,0.475,1.071,1.035,1.264c0.56,0.183,1.175,0.052,1.595-0.354c1.34-1.315,2.838-1.997,4.116-2.351
			c-1.589,3.459-1.315,5.611-1.102,7.271c0.066,0.5,0.128,0.947,0.104,1.413c-0.231,4.603-2.729,4.859-5.651,5.139L172.932,108.915z
			 M45.331,103.511c-0.033-0.462,0.037-0.91,0.098-1.403c0.219-1.671,0.487-3.836-1.108-7.295c1.251,0.354,2.755,1.035,4.113,2.351
			c0.42,0.411,1.051,0.548,1.599,0.354c0.548-0.18,0.947-0.655,1.035-1.252c0.198-1.434,0.755-2.481,1.339-3.617
			c0.594-1.083,1.197-2.238,1.392-3.742c1.763,1.278,3.684,3.693,2.326,7.818c-0.201,0.612-0.006,1.291,0.496,1.689
			c0.487,0.411,1.206,0.476,1.753,0.131c1.428-0.84,3.018-1.264,4.738-1.279c-2.448,2.938-2.731,5.078-2.959,6.762
			c-0.076,0.484-0.125,0.935-0.268,1.389c-1.641,5.087-4.545,3.86-6.786,3.498l-2.119-0.28
			C48.068,108.361,45.553,108.111,45.331,103.511z M37.652,117.981c0.624-1.035,1.705-1.659,2.914-1.659
			c0.612,0,1.19,0.155,1.714,0.476c1.601,0.935,2.134,3.005,1.172,4.625c-0.91,1.546-3.029,2.1-4.6,1.175
			c-0.779-0.463-1.349-1.206-1.559-2.07C37.074,119.663,37.199,118.749,37.652,117.981z M25.051,147.161
			c-0.56,2.582-2.055,3.77-9.484,3.994c-2.606,0.08-4.999,0.67-7.767,2.021c0.673-5.199,2.911-15.74,9.794-15.74
			c0.475,0,0.974,0.049,1.498,0.128c0.255,0.049,1.06,0.524,1.407,1.218c0.131,0.256,0.021,0.536-0.019,0.804
			c-2.287,0.804-4.762,2.277-7.407,4.726c-0.637,0.584-0.655,1.57-0.085,2.21c0.597,0.651,1.577,0.664,2.208,0.098
			c2.423-2.247,4.588-3.574,6.622-4.238c0.222,0.024,1.946,0.305,2.804,1.511C25.191,144.665,25.346,145.772,25.051,147.161z
			 M111.754,113.257c-3.623-2.646-9.728-8.138-9.858-15.36c-0.049-2.542,1.754-5.261,3.504-7.891c2.034-3.082,3.967-5.98,3.31-9
			c-0.691-3.285-3.447-4.202-5.261-4.808c-0.512-0.167-1.285-0.423-1.392-0.448c-0.024-0.636,0.296-1.279,0.911-1.927
			c1.796-1.863,5.62-3.117,9.746-3.206h0.426c6.104,0,10.386,2.47,10.508,4.546c-0.152,0.183-0.908,0.475-1.426,0.654
			c-1.79,0.682-4.493,1.702-5.06,5.021c-0.533,3.029,1.504,5.855,3.684,8.854c1.846,2.558,3.764,5.2,3.8,7.733
			c0.146,7.587-6.363,13.579-9.773,16.197v-7.867c1.279-0.305,2.47-0.843,3.41-1.814c1.279-1.34,1.942-3.081,1.942-4.933
			c-0.073-3.784-3.108-6.759-7.054-6.759c-1.839,0.037-3.557,0.792-4.832,2.119c-1.272,1.327-1.945,3.081-1.927,4.92
			c0.061,3.194,2.363,5.748,5.343,6.467V113.257L111.754,113.257z M113.892,102.829c-0.192-0.085-0.354-0.24-0.579-0.24
			c-0.225,0-0.387,0.155-0.581,0.24c-1.775-0.28-3.191-1.751-3.215-3.602c-0.027-1.011,0.353-1.973,1.047-2.707
			c0.691-0.743,1.644-1.16,2.731-1.172c2.082,0,3.754,1.626,3.771,3.714c0.013,1.011-0.362,1.96-1.06,2.707
			C115.462,102.382,114.71,102.692,113.892,102.829z M200.443,143.897c0.896-1.218,2.527-1.486,2.808-1.522
			c2.015,0.646,4.183,1.973,6.618,4.226c0.651,0.585,1.632,0.549,2.211-0.085c0.591-0.634,0.554-1.62-0.086-2.204
			c-2.648-2.467-5.103-3.928-7.397-4.756c-0.049-0.268-0.146-0.535-0.031-0.791c0.348-0.676,1.139-1.176,1.395-1.2
			c0.536-0.115,1.035-0.146,1.511-0.146c7.002,0,9.182,10.57,9.815,15.771c-2.776-1.37-5.164-1.973-7.801-2.046
			c-7.422-0.219-8.933-1.406-9.48-3.982C199.724,145.785,199.871,144.688,200.443,143.897z"/>
	</g>
</g>
<g>
</g>
<g>
</g>
<g>
</g>
<g>
</g>
<g>
</g>
<g>
</g>
<g>
</g>
<g>
</g>
<g>
</g>
<g>
</g>
<g>
</g>
<g>
</g>
<g>
</g>
<g>
</g>
<g>
</g>
</svg>
