<?xml version="1.0" encoding="iso-8859-1"?>
<!-- Generator: Adobe Illustrator 16.0.0, SVG Export Plug-In . SVG Version: 6.00 Build 0)  -->
<!DOCTYPE svg PUBLIC "-//W3C//DTD SVG 1.1//EN" "http://www.w3.org/Graphics/SVG/1.1/DTD/svg11.dtd">
<svg version="1.1" id="Capa_1" xmlns="http://www.w3.org/2000/svg" xmlns:xlink="http://www.w3.org/1999/xlink" x="0px" y="0px"
	 width="193.324px" height="193.324px" viewBox="0 0 193.324 193.324" style="enable-background:new 0 0 193.324 193.324;"
	 xml:space="preserve">
<g>
	<g>
		<path d="M17.047,84.662c-0.448-1.004-1.063-1.912-1.878-2.71c-3.398-3.336-9.263-3.277-12.614,0.113
			C0.887,83.755-0.021,86.001,0,88.388C0.022,90.777,0.971,93,2.656,94.664c1.685,1.655,3.916,2.573,6.254,2.573
			c2.402,0,4.659-0.96,6.354-2.669c1.503-1.523,2.36-3.507,2.507-5.629c9.735-3.428,18.457,0.622,24.585,11.578
			c0.082,0.137,0.211,0.2,0.319,0.316c0.174,0.432,0.355,0.833,0.54,1.266c0.654,1.645,1.329,3.312,2.025,4.988
			c-5.514-3.443-11.815-4.166-18.447-2.025c-0.454-1.002-1.076-1.914-1.88-2.71c-3.396-3.344-9.265-3.291-12.609,0.116
			c-3.443,3.485-3.391,9.154,0.113,12.608c1.685,1.64,3.91,2.547,6.254,2.547c2.402,0,4.659-0.944,6.349-2.657
			c1.503-1.54,2.36-3.523,2.5-5.638c9.758-3.438,18.459,0.622,24.593,11.591c0.129,0.253,0.361,0.406,0.572,0.586
			c4.823,7.172,11.362,13.146,21.611,15.588c2.312,0.559,4.611,0.812,6.863,0.812c5.534,0,10.876-1.63,15.504-4.757
			c4.627,3.127,9.97,4.757,15.507,4.757c2.268,0,4.566-0.27,6.86-0.812c10.252-2.441,16.791-8.416,21.61-15.588
			c0.211-0.18,0.443-0.338,0.575-0.586c6.122-10.953,14.818-15.014,24.585-11.591c0.147,2.114,0.996,4.098,2.505,5.638
			c1.688,1.713,3.938,2.657,6.349,2.657c2.362,0,4.577-0.907,6.255-2.552c3.496-3.449,3.549-9.118,0.115-12.604
			c-3.343-3.418-9.223-3.449-12.598-0.122c-0.802,0.791-1.439,1.714-1.894,2.716c-6.634-2.136-12.936-1.418-18.446,2.015
			c0.696-1.672,1.371-3.333,2.025-4.978c0.179-0.433,0.353-0.834,0.543-1.266c0.105-0.111,0.237-0.175,0.316-0.316
			c6.128-10.956,14.839-15.006,24.585-11.578c0.142,2.122,1.002,4.105,2.488,5.629c1.693,1.709,3.95,2.669,6.376,2.669
			c2.362,0,4.577-0.918,6.244-2.568c3.496-3.438,3.549-9.1,0.11-12.604c-3.333-3.401-9.197-3.454-12.608-0.113
			c-0.797,0.788-1.43,1.706-1.878,2.71c-7.177-2.32-13.979-1.311-19.77,2.858c5.505-11.401,10.046-18.059,19.011-19.409
			c0.411,0.865,0.928,1.685,1.65,2.405c1.682,1.717,3.939,2.655,6.365,2.655c2.356,0,4.571-0.907,6.243-2.555
			c3.491-3.444,3.544-9.102,0.111-12.609c-3.344-3.406-9.208-3.459-12.604-0.113c-1.683,1.653-2.553,3.818-2.637,6.001
			c-12.857,2.099-18.289,13.542-24.427,26.821c-1.456,3.124-2.784,6.415-4.103,9.737c-0.085,0.179-0.158,0.369-0.237,0.569
			c-0.417-2.969-1.397-5.674-2.864-8.098c0.28-0.351,0.485-0.783,0.496-1.236c0.026-0.612,0.29-14.992-9.492-20.985
			c-2.226-1.351-4.894-1.506-6.708-1.506c-1.06,0-2.141,0.058-3.222,0.113c-2.811,0.15-5.247,0.124-6.038-0.588
			c-0.659-0.602-0.648-1.236-0.279-2.998c0.3-1.427,0.785-3.786-1.351-5.102c-3.85-2.365-10.046,0.907-13.93,7.256
			c-1.751,2.869-2.813,5.962-3.003,8.706c-0.211,3.249,0.81,5.728,2.879,6.987c1.782,1.084,3.818-0.034,5.168-1.118
			c0.986-0.801,1.793-1.508,2.811-1.118c1.229,0.458,2.268,2.813,3.26,5.081c1.328,3.019,2.831,6.415,5.784,8.218
			c2.647,1.614,5.759,2.437,9.261,2.437c4.118,0,7.926-1.134,10.494-2.136c3.059,4.857,3.485,11.217,1.128,18.663
			c-4.641,8.938-10.916,16.537-22.254,19.237c-6.243,1.461-12.455,0.464-17.742-2.668c5.371-5.058,8.957-12.119,9.985-20.039
			c0.153-1.197-0.675-2.268-1.861-2.421c-1.182-0.2-2.268,0.681-2.421,1.878c-0.938,7.214-4.353,13.51-9.331,17.882
			c-4.979-4.382-8.393-10.689-9.332-17.882c-0.145-1.197-1.273-2.089-2.413-1.878c-1.184,0.153-2.015,1.234-1.869,2.421
			c1.015,7.92,4.611,14.981,9.985,20.039c-5.287,3.132-11.491,4.16-17.735,2.668c-11.351-2.716-17.613-10.294-22.254-19.237
			c-2.365-7.446-1.938-13.806,1.134-18.663c2.571,1.002,6.378,2.136,10.489,2.136c0,0,0,0,0.005,0c3.488,0,6.608-0.822,9.26-2.441
			c2.948-1.804,4.445-5.21,5.771-8.213c1.01-2.278,2.049-4.623,3.262-5.081c1.021-0.385,1.819,0.316,2.813,1.118
			c1.35,1.083,3.398,2.191,5.157,1.124c2.07-1.266,3.085-3.744,2.879-6.993c-0.179-2.75-1.237-5.837-3.003-8.711
			c-3.876-6.338-10.088-9.6-13.922-7.251c-2.144,1.316-1.65,3.691-1.35,5.102c0.364,1.748,0.38,2.381-0.279,2.998
			c-0.789,0.723-3.241,0.749-6.038,0.588c-1.058-0.071-2.144-0.113-3.235-0.113c-1.814,0-4.47,0.155-6.7,1.516
			c-9.785,5.972-9.521,20.363-9.5,20.975c0.023,0.469,0.222,0.886,0.509,1.236c-1.463,2.418-2.441,5.123-2.869,8.098
			c-0.074-0.2-0.145-0.391-0.232-0.569c-1.332-3.322-2.645-6.613-4.103-9.737c-6.162-13.279-11.589-24.722-24.424-26.821
			c-0.103-2.183-0.967-4.363-2.637-6.001c-3.396-3.346-9.271-3.293-12.604,0.113c-3.459,3.507-3.396,9.165,0.114,12.609
			c1.685,1.648,3.899,2.555,6.243,2.555c2.408,0,4.665-0.938,6.365-2.655c0.709-0.73,1.237-1.54,1.648-2.405
			c8.955,1.35,13.521,7.987,19.013,19.409C31.019,83.352,24.224,82.342,17.047,84.662z M12.193,91.536
			c-1.711,1.751-4.735,1.788-6.497,0.056c-0.867-0.854-1.36-2.004-1.371-3.235c-0.01-1.231,0.454-2.375,1.308-3.262
			c0.875-0.886,2.046-1.371,3.277-1.371c1.215,0,2.365,0.464,3.23,1.313c0.862,0.852,1.36,2.001,1.371,3.232
			S13.063,90.664,12.193,91.536z M21.946,111.928c-0.87,0.886-2.03,1.371-3.272,1.371c-1.215,0-2.36-0.47-3.225-1.313
			c-1.809-1.782-1.835-4.693-0.063-6.496c0.867-0.892,2.041-1.382,3.282-1.382c1.203,0,2.35,0.47,3.217,1.323
			c0.875,0.854,1.361,2.004,1.379,3.228C23.275,109.887,22.806,111.053,21.946,111.928z M171.466,105.426
			c0.854-0.849,1.993-1.318,3.206-1.318c1.239,0,2.405,0.49,3.28,1.382c1.772,1.803,1.746,4.714-0.063,6.491
			c-1.756,1.709-4.793,1.688-6.496-0.053c-0.854-0.875-1.329-2.041-1.318-3.27C170.095,107.435,170.576,106.286,171.466,105.426z
			 M181.185,85.037c0.865-0.849,2.015-1.313,3.228-1.313c1.234,0,2.405,0.485,3.27,1.382c1.782,1.804,1.751,4.715-0.068,6.486
			c-1.745,1.727-4.768,1.695-6.481-0.056c-0.864-0.872-1.328-2.035-1.318-3.261C179.825,87.048,180.321,85.893,181.185,85.037z
			 M180.326,61.005c0.859-0.854,1.999-1.318,3.217-1.318c1.234,0,2.405,0.498,3.275,1.39c1.771,1.809,1.75,4.725-0.063,6.489
			c-1.751,1.706-4.778,1.685-6.497-0.063C178.486,65.699,178.517,62.777,180.326,61.005z M134.458,81.297
			c-0.675-1.764-1.999-3.164-3.723-3.937c-3.486-1.542-7.769,0.132-9.324,3.57c-0.774,1.706-0.822,3.628-0.158,5.39
			c0.676,1.767,1.994,3.164,3.724,3.937c0.917,0.411,1.883,0.614,2.874,0.614c1.824,0,3.496-0.76,4.799-1.964
			c1.312,0.767,2.468,1.614,3.491,2.56c-2.104,0.691-4.715,1.34-7.488,1.34c-2.689,0-5.058-0.606-7.009-1.804
			c-1.798-1.103-2.958-3.733-4.082-6.281c-1.365-3.095-2.795-6.302-5.727-7.399c-0.696-0.258-1.393-0.387-2.094-0.387
			c-2.22,0-3.791,1.268-4.936,2.196c-0.164,0.124-0.364,0.309-0.56,0.438c-0.358-0.557-0.537-1.5-0.464-2.669
			c0.138-2.03,1.002-4.487,2.368-6.734c2.489-4.071,5.938-6.081,7.499-5.977c-0.032,0.231-0.09,0.498-0.122,0.698
			c-0.358,1.759-1.007,4.712,1.599,7.082c1.782,1.633,4.25,1.833,6.186,1.833c0.976,0,1.972-0.061,3.017-0.113
			c3.032-0.18,5.959-0.119,7.43,0.767c5.131,3.135,6.703,9.724,7.193,13.764c-1.266-1.128-2.685-2.165-4.293-3.087
			C134.917,83.832,134.932,82.534,134.458,81.297z M130.366,84.934c-0.602,1.339-2.273,1.986-3.634,1.387
			c-0.675-0.309-1.182-0.844-1.455-1.529c-0.259-0.681-0.237-1.419,0.073-2.089c0.443-0.994,1.43-1.637,2.511-1.637
			c0.379,0,0.759,0.092,1.107,0.245c0.675,0.3,1.191,0.841,1.455,1.526S130.666,84.269,130.366,84.934z M61.56,74.429
			c1.463-0.896,4.385-0.949,7.436-0.771c1.026,0.059,2.041,0.111,3.003,0.111c1.943,0,4.411-0.203,6.194-1.83
			c2.586-2.365,1.964-5.313,1.598-7.08c-0.048-0.211-0.108-0.464-0.135-0.696c1.614-0.098,5.01,1.911,7.507,5.967
			c1.376,2.251,2.228,4.709,2.365,6.739c0.074,1.165-0.108,2.133-0.472,2.668c-0.182-0.142-0.383-0.318-0.557-0.438
			c-1.5-1.231-4.103-2.895-7.035-1.809c-2.932,1.097-4.353,4.303-5.719,7.398c-1.123,2.547-2.283,5.179-4.076,6.268
			c-1.967,1.21-4.332,1.804-7.009,1.804c-0.005,0-0.005,0-0.005,0c-2.782,0-5.384-0.636-7.496-1.326
			c1.031-0.941,2.186-1.793,3.499-2.555c1.284,1.215,2.963,1.959,4.801,1.959c1.004,0,1.954-0.206,2.872-0.609
			c1.729-0.783,3.04-2.165,3.715-3.937c0.675-1.762,0.612-3.684-0.15-5.385c-1.534-3.456-5.822-5.12-9.331-3.575
			c-1.717,0.778-3.04,2.165-3.715,3.937c-0.475,1.237-0.458,2.545-0.216,3.808c-1.608,0.907-3.029,1.948-4.303,3.082
			C54.847,84.167,56.414,77.583,61.56,74.429z M62.916,82.837c0.264-0.686,0.783-1.236,1.447-1.521
			c0.356-0.153,0.738-0.25,1.118-0.25c1.078,0,2.067,0.643,2.51,1.647c0.308,0.665,0.33,1.403,0.071,2.083
			c-0.271,0.688-0.788,1.239-1.453,1.529c-1.371,0.594-3.035-0.047-3.633-1.392C62.673,84.269,62.652,83.523,62.916,82.837z
			 M13.079,67.502c-1.727,1.748-4.756,1.769-6.507,0.063c-1.803-1.765-1.835-4.681-0.053-6.489c0.862-0.892,2.036-1.39,3.267-1.39
			c1.226,0,2.365,0.464,3.217,1.318C14.824,62.777,14.856,65.699,13.079,67.502z"/>
	</g>
</g>
<g>
</g>
<g>
</g>
<g>
</g>
<g>
</g>
<g>
</g>
<g>
</g>
<g>
</g>
<g>
</g>
<g>
</g>
<g>
</g>
<g>
</g>
<g>
</g>
<g>
</g>
<g>
</g>
<g>
</g>
</svg>
