<?xml version="1.0" encoding="iso-8859-1"?>
<!-- Generator: Adobe Illustrator 16.0.0, SVG Export Plug-In . SVG Version: 6.00 Build 0)  -->
<!DOCTYPE svg PUBLIC "-//W3C//DTD SVG 1.1//EN" "http://www.w3.org/Graphics/SVG/1.1/DTD/svg11.dtd">
<svg version="1.1" id="Capa_1" xmlns="http://www.w3.org/2000/svg" xmlns:xlink="http://www.w3.org/1999/xlink" x="0px" y="0px"
	 width="135.646px" height="135.646px" viewBox="0 0 135.646 135.646" style="enable-background:new 0 0 135.646 135.646;"
	 xml:space="preserve">
<g>
	<path d="M135.053,111.197c-0.644-2.236-2.626-3.902-5.062-3.902c-2.953,0-5.342,2.383-5.342,5.347s2.389,5.348,5.342,5.348
		c0.11,0,0.189-0.053,0.301-0.079c-2.067,4.957-6.951,8.442-12.646,8.442c-9.75,0-17.66-7.921-17.66-17.661
		c0-12.481,10.146-22.617,22.612-22.617c1.191,0,2.151-0.971,2.151-2.146c0-1.197-0.976-2.156-2.151-2.156
		c-3.48,0-6.761,0.706-9.798,1.908c0.506-1.635,0.854-3.343,0.854-5.157c0-7.955-6.466-14.428-14.429-14.428
		c-6.623,0-11.991,5.379-11.991,11.981c0,0.611,0.264,1.17,0.664,1.55c0.602,2.067,2.415,3.586,4.662,3.586
		c2.731,0,4.946-2.215,4.946-4.946c0-2.51-1.909-4.514-4.361-4.81c1.402-1.838,3.586-3.037,6.064-3.037
		c5.563,0,10.099,4.546,10.099,10.104c0,7.288-5.906,13.184-13.162,13.184c-9.387,0-17.013-7.625-17.013-17.012
		c0-12.026,9.782-21.801,21.801-21.801c1.197,0,2.151-0.97,2.151-2.148c0-1.176-0.971-2.149-2.151-2.149H79.787
		c-0.032-0.113-0.021-0.242-0.085-0.355c-0.126-0.243-0.348-0.412-0.559-0.588c2.668-0.865,5.41-2.236,7.615-4.482
		c6.539-6.626,5.621-17.74,5.579-18.214c-0.105-1.042-0.949-1.88-1.983-1.959c0,0-11.517-0.875-18.146,5.843
		c-0.723,0.738-1.308,1.516-1.851,2.342c1.229-8.034,7.762-14.289,15.946-15.082c0.728,0.941,1.814,1.582,3.08,1.582
		c2.204,0,3.976-1.78,3.976-3.963c0-2.202-1.771-3.973-3.976-3.973c-1.477,0-2.742,0.854-3.417,2.077
		c-6.582,0.612-12.319,4.029-15.989,9.115V7.914c1.055-0.709,1.813-1.87,1.813-3.262c0-2.184-1.782-3.966-3.968-3.966
		c-2.204,0-3.963,1.782-3.963,3.966c0,1.392,0.743,2.542,1.809,3.262v12.98c-3.678-5.081-9.418-8.501-15.994-9.115
		C49,10.548,47.751,9.693,46.245,9.693c-2.191,0-3.968,1.772-3.968,3.971c0,2.191,1.777,3.974,3.968,3.974
		c1.279,0,2.365-0.643,3.085-1.582c8.189,0.789,14.737,7.035,15.955,15.092c-0.557-0.804-1.139-1.619-1.856-2.339
		c-6.637-6.736-18.148-5.854-18.138-5.854c-1.039,0.093-1.891,0.907-1.978,1.957c-0.048,0.479-0.968,11.588,5.561,18.214
		c2.36,2.376,5.287,3.773,8.113,4.623c-0.132,0.145-0.319,0.269-0.406,0.443c-0.071,0.113-0.047,0.248-0.092,0.351H34.718
		c-1.2,0-2.162,0.976-2.162,2.16c0,1.181,0.978,2.154,2.162,2.154c12.026,0,21.792,9.785,21.792,21.801
		c0,9.382-7.617,17.007-16.993,17.007c-7.283,0-13.176-5.917-13.176-13.179c0-5.568,4.538-10.104,10.114-10.104
		c2.458,0,4.622,1.194,6.027,3.011c-2.523,0.232-4.503,2.278-4.503,4.842c0,2.731,2.212,4.946,4.947,4.946
		c2.191,0,3.994-1.466,4.622-3.46c0.522-0.396,0.862-0.996,0.862-1.682c0-6.616-5.366-11.995-11.971-11.995
		c-7.96,0-14.434,6.476-14.444,14.441c0,1.804,0.34,3.497,0.862,5.132c-3.04-1.192-6.328-1.898-9.785-1.898
		c-1.203,0-2.16,0.97-2.16,2.151c0,1.191,0.973,2.162,2.16,2.162c12.479,0,22.615,10.146,22.615,22.617
		c0,9.751-7.931,17.661-17.663,17.661c-5.664,0-10.523-3.454-12.614-8.363C5.497,117.957,5.568,118,5.664,118
		c2.956,0,5.347-2.384,5.347-5.348s-2.392-5.348-5.347-5.348c-2.402,0-4.379,1.625-5.055,3.808C0.242,111.492,0,112.03,0,112.61
		c0,9.945,8.089,18.024,18.024,18.024c12.129,0,21.996-9.851,21.996-21.979c0-4.726-1.334-9.112-3.489-12.983
		c0.971,0.169,1.949,0.306,2.975,0.306c11.762,0,21.326-9.565,21.326-21.336c0-9.094-4.672-17.118-11.752-21.795h9.273l5.843,8.63
		c0.408,0.598,0.907,1.062,1.458,1.439v46.667c-2.734,0.907-4.736,3.407-4.736,6.438c0,0.786,0.198,1.514,0.44,2.21h-3.52
		c-0.788,0-1.526,0.443-1.912,1.149c-0.367,0.712-0.33,1.562,0.124,2.226l7.501,11.079c0.983,1.44,2.412,2.273,3.937,2.273
		c1.529,0,2.964-0.833,3.934-2.273l7.521-11.079c0.438-0.664,0.495-1.514,0.116-2.226c-0.369-0.706-1.107-1.149-1.915-1.149h-2.884
		c0.242-0.696,0.453-1.424,0.453-2.21c0-3.031-1.993-5.531-4.725-6.438V63.296c0.791-0.372,1.513-0.984,2.099-1.804l5.821-8.63
		h8.648c-7.087,4.677-11.749,12.711-11.749,21.8c0,11.771,9.561,21.326,21.326,21.326c1.018,0,2.004-0.116,2.984-0.295
		c-2.146,3.87-3.491,8.242-3.491,12.978c0,12.129,9.856,21.985,21.98,21.985c9.945,0,18.035-8.09,18.035-18.025
		C135.67,112.104,135.427,111.587,135.053,111.197z M75.305,31.845c3.718-3.763,9.671-4.482,12.793-4.588
		c-0.053,3.066-0.675,9.081-4.393,12.856c-3.707,3.763-9.661,4.482-12.793,4.591C70.97,41.619,71.603,35.6,75.305,31.845z
		 M47.601,27.257c3.132,0.105,9.083,0.82,12.783,4.588c3.715,3.755,4.345,9.779,4.396,12.859c-3.132-0.108-9.094-0.823-12.793-4.591
		C48.286,36.359,47.667,30.339,47.601,27.257z"/>
</g>
<g>
</g>
<g>
</g>
<g>
</g>
<g>
</g>
<g>
</g>
<g>
</g>
<g>
</g>
<g>
</g>
<g>
</g>
<g>
</g>
<g>
</g>
<g>
</g>
<g>
</g>
<g>
</g>
<g>
</g>
</svg>
