<?xml version="1.0" encoding="iso-8859-1"?>
<!-- Generator: Adobe Illustrator 16.0.0, SVG Export Plug-In . SVG Version: 6.00 Build 0)  -->
<!DOCTYPE svg PUBLIC "-//W3C//DTD SVG 1.1//EN" "http://www.w3.org/Graphics/SVG/1.1/DTD/svg11.dtd">
<svg version="1.1" id="Capa_1" xmlns="http://www.w3.org/2000/svg" xmlns:xlink="http://www.w3.org/1999/xlink" x="0px" y="0px"
	 width="180.933px" height="180.933px" viewBox="0 0 180.933 180.933" style="enable-background:new 0 0 180.933 180.933;"
	 xml:space="preserve">
<g>
	<path d="M168.168,138.053c-0.743-2.575-3.026-4.499-5.846-4.499c-3.41,0-6.174,2.758-6.174,6.18c0,3.416,2.764,6.175,6.174,6.175
		c0.134,0,0.22-0.073,0.354-0.079c-2.399,5.718-8.025,9.748-14.614,9.748c-11.253,0-20.398-9.158-20.398-20.398
		c0-14.419,11.716-26.11,26.116-26.11c1.395,0,2.49-1.139,2.49-2.496c0-1.376-1.12-2.497-2.49-2.497
		c-4.013,0-7.807,0.828-11.308,2.211c0.585-1.895,0.999-3.867,0.999-5.955c0-9.189-7.478-16.66-16.679-16.66
		c-7.636,0-13.834,6.205-13.834,13.834c0,0.707,0.292,1.334,0.767,1.791c0.688,2.368,2.783,4.135,5.377,4.135
		c3.16,0,5.712-2.559,5.712-5.706c0-2.904-2.211-5.212-5.042-5.571c1.632-2.107,4.141-3.508,7.002-3.508
		c6.431,0,11.667,5.23,11.667,11.667c0,8.391-6.819,15.198-15.198,15.198c-10.839,0-19.644-8.805-19.644-19.619
		c0-13.893,11.302-25.179,25.173-25.179c1.376,0,2.496-1.136,2.496-2.481c0-1.385-1.139-2.493-2.496-2.493H102.21l1.547-2.29
		c0.523-0.767,0.572-1.753,0.128-2.57c-0.433-0.815-1.278-1.327-2.21-1.327h-3.702c0.279-0.81,0.505-1.647,0.505-2.552
		c0-0.56-0.201-1.053-0.322-1.577c4.433-0.636,10.107-2.237,14.224-6.415c7.551-7.664,6.491-20.496,6.442-21.032
		c-0.128-1.209-1.084-2.183-2.289-2.266c-0.013-0.012-13.299-1.02-20.959,6.747c-0.828,0.843-1.498,1.754-2.132,2.7
		c1.426-9.295,8.976-16.498,18.414-17.421c0.847,1.084,2.101,1.827,3.568,1.827c2.533,0,4.579-2.052,4.579-4.576
		c0-2.533-2.046-4.588-4.579-4.588c-1.711,0-3.166,0.996-3.946,2.405c-7.611,0.7-14.236,4.646-18.474,10.525V8.342
		c1.235-0.831,2.106-2.171,2.106-3.766C95.11,2.043,93.049,0,90.516,0c-2.542,0-4.576,2.043-4.576,4.576
		c0,1.595,0.868,2.935,2.083,3.76V23.33c-4.241-5.879-10.875-9.825-18.462-10.525c-0.792-1.41-2.213-2.405-3.961-2.405
		c-2.53,0-4.588,2.055-4.588,4.588c0,2.524,2.059,4.576,4.588,4.576c1.474,0,2.731-0.743,3.568-1.827
		c9.454,0.91,17.016,8.132,18.426,17.427c-0.648-0.922-1.321-1.857-2.159-2.707c-7.663-7.779-20.932-6.759-20.932-6.747
		c-1.202,0.101-2.195,1.051-2.289,2.253c-0.049,0.548-1.108,13.381,6.43,21.044c4.101,4.177,9.789,5.797,14.209,6.415
		C82.74,55.947,82.536,56.44,82.536,57c0,0.911,0.244,1.742,0.523,2.552h-3.705c-0.922,0-1.775,0.512-2.207,1.327
		c-0.423,0.816-0.381,1.803,0.131,2.57l1.559,2.29H52.264c-1.391,0-2.493,1.12-2.493,2.493c0,1.364,1.12,2.481,2.493,2.481
		c13.887,0,25.164,11.299,25.164,25.179c0,10.814-8.795,19.619-19.634,19.619c-8.391,0-15.208-6.826-15.208-15.198
		c0-6.437,5.252-11.667,11.667-11.667c2.85,0,5.343,1.37,6.966,3.459c-2.901,0.292-5.188,2.654-5.188,5.602
		c0,3.148,2.554,5.706,5.711,5.706c2.53,0,4.6-1.693,5.343-4.001c0.597-0.45,0.989-1.139,0.989-1.942
		c0-7.63-6.189-13.844-13.84-13.844c-9.186,0-16.66,7.48-16.66,16.669c0,2.083,0.399,4.05,0.983,5.938
		c-3.504-1.377-7.294-2.211-11.298-2.211c-1.382,0-2.487,1.139-2.487,2.497c0,1.357,1.124,2.478,2.487,2.478
		c14.416,0,26.113,11.716,26.113,26.123c0,11.253-9.158,20.398-20.408,20.398c-6.54,0-12.139-4-14.565-9.67
		c0.113,0,0.18,0.073,0.298,0.073c3.419,0,6.168-2.771,6.168-6.187c0-3.41-2.749-6.174-6.168-6.174c-2.768,0-5.051,1.869-5.83,4.39
		c-0.436,0.444-0.716,1.065-0.716,1.748c0,11.472,9.341,20.812,20.819,20.812c13.999,0,25.397-11.387,25.397-25.392
		c0-5.462-1.546-10.522-4.028-14.998c1.121,0.195,2.238,0.348,3.422,0.348c13.594,0,24.637-11.04,24.637-24.625
		c0-10.51-5.396-19.774-13.576-25.166H82.18l3.742,5.511c0.56,0.84,1.267,1.477,2.046,1.945v34.565
		c-0.91,0.396-1.778,1.01-2.427,1.941l-8.668,12.794c-0.499,0.743-0.554,1.692-0.149,2.479
		c-8.168,4.762-13.698,13.512-13.698,23.595c0,15.139,12.318,27.426,27.435,27.426c15.11,0,27.417-12.306,27.417-27.426
		c0-10.29-5.779-19.181-14.182-23.881c0.085-0.244,0.14-0.506,0.14-0.805c0-0.779-0.359-1.461-0.907-1.936l-8.306-12.27
		c-0.463-0.664-1.06-1.115-1.687-1.511V78.133c0.779-0.436,1.479-1.099,2.052-1.934l3.732-5.511h13.354
		c-8.178,5.392-13.566,14.678-13.566,25.167c0,13.591,11.046,24.637,24.631,24.637c1.175,0,2.313-0.146,3.44-0.359
		c-2.479,4.476-4.025,9.529-4.025,14.997c0,14.006,11.381,25.393,25.386,25.393c11.479,0,20.813-9.342,20.813-20.825
		C168.874,139.106,168.594,138.497,168.168,138.053z M99.184,35.956c4.293-4.332,11.168-5.176,14.772-5.297
		c-0.066,3.541-0.779,10.485-5.072,14.851c-3.915,3.971-9.876,4.963-13.651,5.207c-0.342-0.256-0.67-0.518-1.06-0.718
		C94.294,46.296,95.146,40.048,99.184,35.956z M67.186,30.659c3.614,0.122,10.485,0.947,14.757,5.303
		c4.022,4.068,4.872,10.34,5.033,14.048c-0.38,0.195-0.703,0.457-1.047,0.707c-3.766-0.244-9.739-1.236-13.661-5.207
		C67.977,41.168,67.258,34.23,67.186,30.659z M88.071,132.067v43.008c-3.833-2.545-7.38-10.613-7.38-21.495
		C80.691,142.699,84.226,134.625,88.071,132.067z M93.067,175.075v-43.002c3.827,2.558,7.371,10.632,7.371,21.507
		C100.438,164.443,96.9,172.53,93.067,175.075z M68.126,153.58c0-8.634,4.933-16.032,12.084-19.802
		c-2.789,4.969-4.509,11.923-4.509,19.802c0,7.867,1.702,14.827,4.509,19.784C73.059,169.595,68.126,162.196,68.126,153.58z
		 M113,153.58c0,8.622-4.932,16.026-12.081,19.79c2.777-4.957,4.507-11.923,4.507-19.79c0-7.879-1.718-14.839-4.507-19.802
		C108.068,137.542,113,144.946,113,153.58z"/>
</g>
<g>
</g>
<g>
</g>
<g>
</g>
<g>
</g>
<g>
</g>
<g>
</g>
<g>
</g>
<g>
</g>
<g>
</g>
<g>
</g>
<g>
</g>
<g>
</g>
<g>
</g>
<g>
</g>
<g>
</g>
</svg>
