<?xml version="1.0" encoding="iso-8859-1"?>
<!-- Generator: Adobe Illustrator 16.0.0, SVG Export Plug-In . SVG Version: 6.00 Build 0)  -->
<!DOCTYPE svg PUBLIC "-//W3C//DTD SVG 1.1//EN" "http://www.w3.org/Graphics/SVG/1.1/DTD/svg11.dtd">
<svg version="1.1" id="Capa_1" xmlns="http://www.w3.org/2000/svg" xmlns:xlink="http://www.w3.org/1999/xlink" x="0px" y="0px"
	 width="221.39px" height="221.39px" viewBox="0 0 221.39 221.39" style="enable-background:new 0 0 221.39 221.39;"
	 xml:space="preserve">
<g>
	<g>
		<path d="M110.668,157.716c-7.009,0-12.708,5.699-12.708,12.708s5.699,12.714,12.708,12.714s12.711-5.705,12.711-12.714
			S117.677,157.716,110.668,157.716z M114.638,170.424c0,5.942-2.311,9.597-3.97,9.597s-3.973-3.654-3.973-9.597
			c0-5.943,2.314-9.591,3.973-9.591S114.638,164.48,114.638,170.424z M101.078,170.424c0-3.142,1.546-5.919,3.891-7.66
			c-0.868,2.106-1.392,4.726-1.392,7.66c0,2.947,0.523,5.577,1.392,7.672C102.618,176.343,101.078,173.571,101.078,170.424z
			 M116.367,178.108c0.865-2.107,1.389-4.737,1.389-7.666c0-2.953-0.518-5.572-1.389-7.667c2.348,1.741,3.895,4.536,3.895,7.667
			C120.262,173.571,118.721,176.343,116.367,178.108z"/>
		<path d="M202.032,126.911c-0.846,0.146-1.412,0.955-1.248,1.814c0.146,0.84,0.962,1.418,1.803,1.248
			c7.186-1.261,14.078,3.501,15.375,10.687c0.81,4.542-0.256,9.268-2.941,13.019c-1.625,2.265-3.763,3.988-6.168,5.139
			c5.48-4.523,6.363-12.652,1.924-18.255c-3.72-4.664-10.527-5.419-15.162-1.705c-1.875,1.474-3.05,3.617-3.318,5.991
			c-0.268,2.375,0.402,4.714,1.894,6.583c1.242,1.565,3.015,2.539,4.993,2.759c1.961,0.243,3.934-0.336,5.505-1.571
			c0.365-0.305,0.53-0.719,0.542-1.169c0.268-0.476,0.45-0.999,0.45-1.584c0-1.838-1.467-3.312-3.3-3.312
			c-1.827,0-3.307,1.475-3.307,3.312c0,0.402,0.098,0.786,0.231,1.151c-1.047-0.177-2.003-0.688-2.673-1.547
			c-0.975-1.212-1.419-2.728-1.236-4.28c0.171-1.547,0.932-2.947,2.162-3.922c3.306-2.631,8.146-2.082,10.783,1.23
			c3.422,4.299,2.704,10.595-1.602,14.029c-5.522,4.396-12.001,3.629-18.236-2.211c-0.269-0.249-0.621-0.347-0.956-0.371
			c-2.99-2.898-6.077-6.655-9.651-11.18c-1.614-2.033-3.16-4.22-4.72-6.394c0.536,0.098,1.072,0.207,1.614,0.207
			c1.662,0,3.324-0.438,4.963-1.364c4.146-2.338,5.613-7.623,3.288-11.782c-1.955-3.489-6.376-4.7-9.847-2.746
			c-1.419,0.804-2.441,2.106-2.88,3.665c-0.427,1.571-0.237,3.228,0.566,4.641c1.406,2.479,4.566,3.373,7.063,1.961
			c0.597-0.342,0.779-1.005,0.646-1.656c0.03-0.116,0.14-0.146,0.158-0.269c0.152-1.108-0.604-2.131-1.711-2.302
			c-1.072-0.14-2.046,0.585-2.253,1.639c-0.476-0.141-0.914-0.445-1.182-0.908c-0.396-0.693-0.493-1.491-0.274-2.259
			c0.22-0.767,0.713-1.406,1.407-1.79c1.979-1.114,4.493-0.408,5.596,1.564c1.492,2.655,0.542,6.041-2.107,7.527
			c-4.475,2.508-7.934-0.391-9.761-2.625c-6.819-9.201-14.577-17.47-26.969-19.188c12.349-1.704,20.106-9.952,26.902-19.104
			c1.809-2.219,5.304-5.239,9.827-2.706c2.649,1.492,3.6,4.871,2.107,7.52c-1.12,1.964-3.629,2.674-5.603,1.571
			c-0.682-0.387-1.181-1.023-1.406-1.79c-0.219-0.761-0.128-1.565,0.274-2.256c0.268-0.463,0.706-0.768,1.181-0.911
			c0.207,1.053,1.176,1.784,2.253,1.638c1.121-0.168,1.876-1.19,1.711-2.299c-0.012-0.125-0.134-0.155-0.158-0.268
			c0.135-0.649-0.049-1.315-0.646-1.66c-2.496-1.416-5.662-0.511-7.063,1.958c-0.804,1.428-0.998,3.069-0.565,4.64
			c0.438,1.559,1.461,2.862,2.88,3.666c1.126,0.637,2.332,0.917,3.525,0.917c2.527,0,4.987-1.328,6.32-3.684
			c2.326-4.152,0.853-9.429-3.288-11.767c-2.167-1.208-4.39-1.571-6.563-1.178c1.559-2.183,3.099-4.348,4.707-6.366
			c3.586-4.527,6.673-8.281,9.682-11.192c0.328-0.04,0.657-0.113,0.919-0.356c6.235-5.837,12.714-6.616,18.237-2.214
			c4.299,3.438,5.023,9.733,1.602,14.029c-1.285,1.617-3.111,2.619-5.146,2.85c-2.034,0.219-4.037-0.344-5.645-1.635
			c-1.218-0.959-1.979-2.35-2.155-3.896c-0.184-1.547,0.262-3.066,1.229-4.29c0.682-0.865,1.656-1.364,2.673-1.531
			c-0.134,0.365-0.231,0.728-0.231,1.145c0,1.827,1.48,3.312,3.307,3.312c1.833,0,3.301-1.486,3.301-3.312
			c0-0.591-0.183-1.114-0.451-1.583c-0.018-0.448-0.177-0.871-0.554-1.172c-3.228-2.554-7.928-2.006-10.492,1.19
			c-1.491,1.878-2.161,4.217-1.894,6.591c0.269,2.375,1.438,4.503,3.319,5.979c1.924,1.547,4.268,2.363,6.691,2.363
			c0.414,0,0.828-0.024,1.236-0.073c2.861-0.338,5.432-1.742,7.233-4.016c4.439-5.586,3.557-13.725-1.936-18.252
			c2.417,1.172,4.548,2.877,6.174,5.151c2.686,3.742,3.751,8.474,2.941,13.007c-1.291,7.17-8.184,11.947-15.375,10.687
			c-0.835-0.155-1.663,0.405-1.809,1.26c-0.146,0.849,0.408,1.66,1.254,1.802c8.842,1.623,17.391-4.32,18.986-13.201
			c0.962-5.337-0.299-10.948-3.459-15.369c-3.081-4.308-7.617-7.127-12.774-7.919c-12.928-1.982-20.533,7.603-29.332,18.676
			c-0.042,0.067-0.091,0.131-0.134,0.18c-0.006,0.006-0.012,0.006-0.019,0.012c-1.894,2.11-5.735,5.182-10.235,2.201
			c-2.533-1.689-3.233-5.111-1.559-7.645c0.603-0.91,1.534-1.525,2.605-1.732c1.065-0.219,2.174,0,3.094,0.612
			c0.657,0.436,1.108,1.115,1.267,1.894c0.152,0.779,0,1.564-0.438,2.207c-0.335,0.512-0.865,0.779-1.425,0.855
			c-0.189-1.011-1.065-1.744-2.113-1.684c-1.126,0.101-1.942,1.072-1.845,2.195c0.012,0.167,0.152,0.256,0.207,0.398
			c-0.037,0.536,0.109,1.072,0.591,1.404c2.381,1.571,5.596,0.922,7.179-1.428c0.913-1.354,1.224-2.986,0.907-4.551
			c-0.335-1.598-1.248-2.987-2.606-3.873c-1.613-1.072-3.525-1.434-5.419-1.072c-1.906,0.38-3.525,1.458-4.598,3.078
			c-2.618,3.949-1.534,9.305,2.424,11.941c1.778,1.178,3.659,1.766,5.547,1.766c0.591,0,1.17-0.119,1.76-0.219
			c-0.341,0.469-0.67,0.911-1.004,1.385c-1.249,1.732-2.509,3.492-3.794,5.212c-0.043,0.055-0.092,0.1-0.134,0.137
			c-0.006,0.012,0,0.024-0.006,0.042c-7.143,9.542-15.278,18.03-28.905,18.03c-0.031,0-0.067,0-0.104,0
			c-6.656-0.024-12.678-2.686-16.965-7.459c-4.808-5.377-7.063-12.97-6.202-20.847c0.628-5.76,3.459-10.924,7.962-14.553
			c4.171-3.355,9.335-4.944,14.639-4.664c3.19,0.557,5.76,2.009,7.404,4.335c1.985,2.792,2.63,6.72,1.778,10.763
			c-0.549,2.606-2.083,4.838-4.317,6.296c-2.223,1.452-4.89,1.946-7.508,1.397c-2.01-0.417-3.739-1.611-4.854-3.337
			c-1.114-1.696-1.492-3.76-1.06-5.76c0.316-1.51,1.199-2.813,2.497-3.669c1.303-0.853,2.861-1.132,4.396-0.822
			c1.029,0.219,1.895,0.837,2.527,1.666c-1.547,0.311-2.722,1.623-2.697,3.242c0.03,1.827,1.528,3.285,3.361,3.249
			c1.376-0.012,2.533-0.88,3.02-2.07c0.049-0.1,0.165-0.143,0.189-0.268c0.055-0.268-0.013-0.536,0.012-0.804
			c0-0.082,0.037-0.131,0.037-0.207c0-0.061-0.031-0.112-0.031-0.149c0.086-1.565-0.188-3.112-1.053-4.451
			c-1.084-1.684-2.765-2.826-4.72-3.243c-2.344-0.512-4.749-0.052-6.746,1.251s-3.367,3.3-3.854,5.626
			c-0.597,2.81-0.067,5.688,1.498,8.104c1.57,2.42,3.994,4.086,6.819,4.683c0.913,0.195,1.839,0.292,2.753,0.292
			c2.496,0,4.962-0.715,7.111-2.119c2.93-1.906,4.944-4.832,5.669-8.254c0.853-4.028,0.378-7.931-1.181-11.183
			c0.578,0.552,1.175,1.087,1.687,1.711c2.85,3.535,4.146,7.98,3.647,12.513c-0.39,3.528-2.125,6.704-4.896,8.942
			c-2.771,2.213-6.229,3.218-9.779,2.85c-0.81-0.138-1.62,0.523-1.705,1.391c-0.104,0.858,0.523,1.625,1.382,1.702
			c4.354,0.484,8.641-0.779,12.062-3.504c3.435-2.74,5.578-6.656,6.053-11.037c0.585-5.337-0.949-10.607-4.323-14.809
			c-3.373-4.192-8.171-6.829-13.523-7.407c-0.427-0.052-0.835,0.012-1.261-0.019c-0.207-0.033-0.384-0.106-0.591-0.134
			c-0.164-0.019-0.273,0.088-0.426,0.119c-5.767-0.119-11.375,1.677-15.936,5.337c-4.854,3.896-7.928,9.393-8.881,15.484
			c-0.956-6.104-4.028-11.588-8.881-15.484c-4.558-3.66-10.15-5.417-15.923-5.331c-0.155-0.037-0.274-0.131-0.438-0.125
			c-0.204,0.027-0.387,0.101-0.584,0.134c-0.423,0.024-0.844-0.033-1.267,0.012c-5.35,0.591-10.157,3.221-13.524,7.408
			c-3.373,4.201-4.908,9.456-4.32,14.809c0.472,4.351,2.619,8.26,6.041,11.024c3.425,2.734,7.721,4.007,12.066,3.514
			c0.861-0.104,1.479-0.871,1.385-1.714c-0.094-0.852-0.892-1.519-1.714-1.376c-3.55,0.369-7.008-0.649-9.779-2.862
			c-2.774-2.22-4.512-5.396-4.893-8.942c-0.493-4.533,0.804-8.966,3.647-12.513c0.512-0.643,1.09-1.176,1.678-1.699
			c-1.559,3.236-2.034,7.148-1.178,11.162c0.722,3.431,2.731,6.366,5.666,8.269c2.152,1.41,4.604,2.119,7.109,2.119
			c0.917,0,1.839-0.104,2.75-0.292c2.832-0.603,5.252-2.256,6.829-4.689c1.565-2.42,2.095-5.294,1.495-8.092
			c-0.487-2.339-1.857-4.342-3.852-5.645c-2.009-1.303-4.396-1.756-6.747-1.245c-1.952,0.399-3.635,1.559-4.722,3.243
			c-0.865,1.339-1.139,2.886-1.053,4.451c0,0.055-0.031,0.106-0.031,0.149c0,0.083,0.037,0.131,0.037,0.207
			c0.024,0.28-0.042,0.536,0.012,0.804c0.027,0.125,0.137,0.162,0.189,0.28c0.487,1.185,1.65,2.046,3.023,2.07
			c1.833,0.024,3.337-1.434,3.361-3.261c0.019-1.622-1.154-2.938-2.694-3.242c0.636-0.837,1.498-1.428,2.527-1.665
			c1.532-0.317,3.09-0.031,4.394,0.828c1.297,0.849,2.189,2.152,2.508,3.687c0.43,1.976,0.049,4.028-1.059,5.748
			c-1.124,1.708-2.844,2.898-4.859,3.337c-2.606,0.548-5.273,0.061-7.508-1.409c-2.232-1.44-3.766-3.69-4.314-6.306
			c-0.853-4.028-0.21-7.943,1.778-10.756c1.647-2.323,4.213-3.785,7.407-4.333c5.313-0.256,10.449,1.303,14.62,4.664
			c4.515,3.617,7.347,8.781,7.971,14.554c0.859,7.876-1.403,15.457-6.205,20.846c-4.284,4.786-10.306,7.429-16.958,7.441
			c-0.034,0-0.07,0-0.106,0c-13.612,0-21.763-8.446-28.896-18.012c-0.006-0.013,0-0.031-0.012-0.043
			c-0.042-0.07-0.101-0.106-0.143-0.161c-1.279-1.702-2.545-3.462-3.785-5.2c-0.332-0.463-0.673-0.91-1.011-1.367
			c0.587,0.125,1.178,0.213,1.772,0.213c1.882,0,3.76-0.581,5.535-1.76c3.961-2.643,5.051-7.998,2.426-11.959
			c-2.207-3.297-6.704-4.22-10.013-1.994c-1.352,0.904-2.277,2.262-2.601,3.857c-0.326,1.599,0,3.23,0.898,4.567
			c1.589,2.368,4.808,3.005,7.182,1.428c0.481-0.32,0.624-0.862,0.587-1.397c0.049-0.137,0.192-0.237,0.204-0.393
			c0.101-1.124-0.722-2.095-1.845-2.202c-1.042-0.082-1.915,0.661-2.107,1.678c-0.56-0.076-1.093-0.344-1.428-0.843
			c-0.438-0.655-0.594-1.434-0.438-2.214c0.159-0.779,0.606-1.439,1.267-1.899c0.917-0.6,2.022-0.819,3.094-0.612
			c1.071,0.213,2,0.841,2.6,1.739c1.678,2.521,0.98,5.943-1.553,7.651c-4.509,2.987-8.348-0.098-10.239-2.207
			c-0.006-0.013-0.012-0.013-0.018-0.013c-0.043-0.061-0.095-0.131-0.137-0.18C37.083,65.544,29.49,55.951,16.545,57.945
			c-5.148,0.792-9.688,3.599-12.769,7.919c-3.16,4.42-4.421,10.02-3.461,15.381C1.913,90.114,10.428,96.081,19.3,94.446
			c0.849-0.149,1.416-0.959,1.26-1.814s-0.989-1.428-1.809-1.255c-7.206,1.255-14.078-3.504-15.369-10.68
			c-0.81-4.546,0.255-9.271,2.929-13.019c1.629-2.277,3.766-3.985,6.181-5.151c-5.48,4.54-6.366,12.653-1.927,18.264
			c2.134,2.68,5.288,4.059,8.461,4.059c2.356,0,4.728-0.767,6.704-2.351c1.869-1.477,3.047-3.617,3.315-5.991
			c0.271-2.378-0.405-4.716-1.894-6.58c-1.242-1.571-3.011-2.542-4.996-2.761c-1.97-0.256-3.934,0.332-5.493,1.571
			c-0.369,0.292-0.53,0.715-0.542,1.166c-0.268,0.475-0.463,0.999-0.463,1.583c0,1.826,1.48,3.312,3.312,3.312
			c1.827,0,3.304-1.486,3.304-3.312c0-0.393-0.098-0.779-0.229-1.154c1.047,0.183,2,0.694,2.673,1.547
			c0.974,1.203,1.409,2.731,1.236,4.284c-0.176,1.546-0.944,2.944-2.165,3.909c-3.304,2.64-8.145,2.083-10.781-1.208
			c-3.422-4.29-2.707-10.586,1.595-14.023c5.526-4.384,11.999-3.617,18.234,2.213c0.274,0.25,0.621,0.338,0.965,0.369
			c2.986,2.91,6.068,6.664,9.645,11.191c1.599,2,3.145,4.189,4.698,6.366c-2.165-0.387-4.396-0.03-6.549,1.185
			c-4.146,2.338-5.623,7.614-3.297,11.773c1.328,2.356,3.791,3.678,6.314,3.678c1.2,0,2.415-0.298,3.532-0.917
			c1.419-0.804,2.442-2.107,2.88-3.666c0.435-1.571,0.237-3.225-0.563-4.64c-1.4-2.476-4.576-3.361-7.057-1.958
			c-0.6,0.338-0.779,1.005-0.648,1.659c-0.031,0.113-0.137,0.144-0.155,0.268c-0.162,1.108,0.597,2.131,1.708,2.292
			c1.071,0.152,2.052-0.584,2.256-1.632c0.481,0.137,0.917,0.441,1.178,0.91c0.393,0.691,0.493,1.495,0.277,2.262
			c-0.219,0.761-0.712,1.404-1.409,1.784c-1.979,1.129-4.485,0.405-5.593-1.565c-1.492-2.655-0.545-6.034,2.107-7.526
			c4.509-2.53,7.992,0.438,9.807,2.683c6.811,9.186,14.559,17.412,26.92,19.129c-12.385,1.718-20.14,9.999-26.962,19.187
			c-1.821,2.223-5.289,5.146-9.764,2.625c-2.652-1.486-3.599-4.871-2.107-7.521c1.121-1.967,3.635-2.685,5.599-1.571
			c0.691,0.385,1.19,1.023,1.41,1.791c0.216,0.761,0.119,1.564-0.277,2.259c-0.262,0.45-0.704,0.768-1.179,0.907
			c-0.21-1.047-1.184-1.777-2.256-1.638c-1.117,0.171-1.875,1.193-1.708,2.313c0.012,0.109,0.125,0.141,0.155,0.256
			c-0.125,0.646,0.049,1.315,0.648,1.656c2.494,1.413,5.663,0.512,7.058-1.961c0.801-1.425,1.004-3.068,0.563-4.64
			c-0.438-1.559-1.458-2.862-2.88-3.665c-3.462-1.943-7.889-0.701-9.846,2.752c-2.326,4.152-0.85,9.438,3.297,11.776
			c1.629,0.913,3.307,1.364,4.957,1.364c0.536,0,1.075-0.129,1.61-0.214c-1.559,2.198-3.111,4.366-4.716,6.399
			c-3.583,4.525-6.665,8.281-9.664,11.192c-0.338,0.024-0.679,0.109-0.947,0.359c-6.235,5.852-12.714,6.619-18.234,2.21
			c-4.302-3.428-5.017-9.73-1.595-14.029c2.643-3.324,7.484-3.86,10.787-1.224c1.224,0.968,1.988,2.362,2.165,3.909
			c0.174,1.547-0.262,3.062-1.236,4.293c-0.667,0.84-1.62,1.352-2.667,1.528c0.131-0.372,0.231-0.737,0.231-1.151
			c0-1.826-1.479-3.312-3.306-3.312c-1.833,0-3.31,1.486-3.31,3.312c0,0.585,0.192,1.108,0.459,1.584
			c0.013,0.426,0.174,0.87,0.542,1.169c1.559,1.229,3.504,1.814,5.496,1.571c1.982-0.22,3.751-1.2,4.993-2.759
			c1.492-1.869,2.165-4.208,1.897-6.583c-0.268-2.374-1.449-4.518-3.319-5.991c-4.64-3.714-11.448-2.947-15.171,1.711
			c-4.439,5.584-3.553,13.719,1.933,18.255c-2.411-1.168-4.552-2.88-6.177-5.145c-2.676-3.751-3.742-8.477-2.932-13.019
			c1.291-7.167,8.168-11.947,15.369-10.687c0.819,0.152,1.659-0.408,1.809-1.248c0.149-0.859-0.411-1.669-1.258-1.814
			c-8.862-1.602-17.384,4.322-18.989,13.194c-0.959,5.341,0.301,10.967,3.461,15.388c3.087,4.299,7.621,7.124,12.775,7.916
			c12.933,1.973,20.542-7.611,29.331-18.682c0.046-0.067,0.095-0.134,0.137-0.171c0.006-0.019,0.012-0.019,0.018-0.019
			c1.897-2.112,5.745-5.182,10.233-2.203c2.533,1.686,3.237,5.108,1.559,7.635c-0.603,0.908-1.528,1.535-2.6,1.748
			s-2.177-0.006-3.093-0.621c-0.661-0.426-1.108-1.114-1.264-1.894c-0.158-0.779,0-1.56,0.436-2.204
			c0.338-0.512,0.868-0.768,1.434-0.847c0.195,0.999,1.059,1.735,2.101,1.675c1.124-0.104,1.945-1.084,1.845-2.198
			c-0.012-0.159-0.155-0.256-0.204-0.396c0.037-0.536-0.106-1.072-0.588-1.407c-2.375-1.571-5.593-0.932-7.182,1.431
			c-0.904,1.358-1.221,2.99-0.898,4.549c0.326,1.596,1.248,2.99,2.6,3.873c1.23,0.815,2.618,1.205,3.998,1.205
			c2.338,0,4.634-1.133,6.016-3.215c2.618-3.958,1.534-9.316-2.433-11.959c-2.317-1.547-4.808-2.07-7.255-1.607
			c0.316-0.438,0.648-0.865,0.965-1.303c1.248-1.754,2.518-3.508,3.802-5.249c0.04-0.049,0.088-0.085,0.125-0.128
			c0.006-0.013,0-0.043,0.012-0.055c7.14-9.536,15.284-18.018,28.908-18.018c0.031,0,0.061,0,0.094,0
			c6.653,0.029,12.675,2.673,16.965,7.465c4.801,5.364,7.06,12.964,6.205,20.837c-0.63,5.767-3.461,10.924-7.967,14.554
			c-4.165,3.349-9.329,4.943-14.624,4.664c-3.2-0.549-5.766-2.004-7.407-4.33c-1.982-2.801-2.63-6.723-1.778-10.766
			c0.551-2.605,2.083-4.834,4.317-6.296c2.232-1.468,4.893-1.948,7.511-1.4c2.015,0.42,3.735,1.62,4.859,3.331
			c1.108,1.705,1.489,3.769,1.06,5.766c-0.317,1.504-1.208,2.808-2.506,3.666c-1.303,0.853-2.868,1.15-4.396,0.816
			c-1.035-0.213-1.891-0.816-2.521-1.662c1.541-0.305,2.719-1.608,2.694-3.234c-0.024-1.826-1.528-3.281-3.361-3.251
			c-1.37,0.012-2.536,0.877-3.023,2.063c-0.049,0.116-0.162,0.152-0.186,0.274c-0.058,0.269,0.012,0.536-0.012,0.804
			c0,0.073-0.04,0.128-0.04,0.201c0,0.066,0.031,0.115,0.031,0.158c-0.08,1.564,0.188,3.117,1.062,4.451
			c1.083,1.681,2.761,2.819,4.713,3.239c2.356,0.499,4.737,0.062,6.747-1.242c2-1.303,3.374-3.306,3.861-5.632
			c0.597-2.813,0.067-5.688-1.498-8.105c-1.571-2.423-3.998-4.086-6.82-4.688c-3.431-0.73-6.923-0.097-9.865,1.827
			c-2.932,1.912-4.944,4.835-5.669,8.257c-0.855,4.024-0.38,7.935,1.178,11.18c-0.578-0.548-1.172-1.084-1.677-1.705
			c-2.85-3.544-4.147-7.983-3.647-12.52c0.792-7.294,7.377-12.507,14.678-11.788c0.822,0.152,1.623-0.523,1.714-1.383
			c0.094-0.864-0.524-1.632-1.382-1.711c-8.988-1.011-17.129,5.547-18.109,14.541c-0.584,5.34,0.95,10.607,4.32,14.809
			c3.374,4.202,8.175,6.832,13.527,7.404c0.536,0.062,1.06,0.073,1.589,0.11c0.085,0.012,0.167,0.036,0.256,0.048
			c0.067,0.013,0.137,0.013,0.204,0.013c0.04,0,0.064-0.036,0.101-0.036c0.183,0.012,0.368,0.036,0.548,0.036
			c12.084-0.013,22.478-8.878,24.387-20.94c1.909,12.074,12.309,20.94,24.39,20.94c0.17,0,0.365-0.024,0.554-0.036
			c0.03,0,0.055,0.036,0.092,0.036c0.073,0,0.134,0,0.207-0.013c0.085-0.012,0.158-0.036,0.243-0.048
			c0.536-0.037,1.065-0.049,1.607-0.104c5.353-0.585,10.157-3.222,13.524-7.411c3.373-4.201,4.908-9.456,4.323-14.809
			c-0.986-8.987-9.134-15.552-18.109-14.541c-0.858,0.104-1.479,0.871-1.382,1.711c0.091,0.847,0.907,1.547,1.705,1.383
			c7.307-0.719,13.889,4.5,14.681,11.801c0.493,4.523-0.804,8.963-3.647,12.513c-0.505,0.64-1.09,1.176-1.687,1.699
			c1.559-3.233,2.033-7.143,1.182-11.167c-0.725-3.423-2.734-6.363-5.67-8.264c-2.935-1.918-6.454-2.545-9.857-1.833
			c-2.832,0.609-5.249,2.266-6.826,4.695c-1.565,2.417-2.095,5.298-1.498,8.093c0.487,2.338,1.857,4.335,3.86,5.638
			c2.01,1.304,4.391,1.754,6.741,1.255c1.942-0.408,3.635-1.559,4.719-3.246c0.864-1.333,1.145-2.886,1.06-4.451
			c0-0.061,0.03-0.109,0.03-0.152c0-0.078-0.036-0.14-0.036-0.213c-0.024-0.268,0.042-0.523-0.013-0.791
			c-0.024-0.128-0.128-0.165-0.188-0.287c-0.481-1.187-1.65-2.039-3.015-2.063c-1.832-0.03-3.337,1.431-3.361,3.258
			c-0.018,1.632,1.151,2.935,2.691,3.245c-0.627,0.828-1.491,1.425-2.521,1.645c-1.517,0.322-3.081,0.049-4.384-0.816
			c-1.297-0.84-2.205-2.149-2.509-3.678c-0.433-1.979-0.049-4.025,1.06-5.754c1.12-1.711,2.844-2.898,4.858-3.331
			c2.601-0.554,5.273-0.067,7.509,1.406c2.222,1.443,3.763,3.69,4.305,6.296c0.858,4.025,0.213,7.947-1.778,10.76
			c-1.644,2.326-4.214,3.794-7.404,4.342c-5.322,0.244-10.455-1.315-14.632-4.676c-4.519-3.63-7.35-8.787-7.968-14.541
			c-0.862-7.88,1.403-15.461,6.208-20.844c4.286-4.811,10.297-7.441,16.958-7.471c0.03,0,0.061,0,0.098,0
			c13.627,0,21.769,8.47,28.917,18.029c0.006,0.012,0,0.037,0.013,0.049c0.036,0.049,0.079,0.079,0.115,0.134
			c1.291,1.724,2.563,3.489,3.812,5.237c0.317,0.444,0.646,0.87,0.969,1.314c-2.46-0.456-4.951,0.055-7.265,1.596
			c-3.97,2.654-5.06,8.014-2.436,11.965c1.395,2.083,3.678,3.222,6.016,3.222c1.389,0,2.771-0.39,4.007-1.206
			c1.352-0.9,2.277-2.265,2.601-3.86c0.322-1.595,0-3.222-0.907-4.561c-1.584-2.369-4.793-2.99-7.174-1.431
			c-0.48,0.334-0.633,0.87-0.59,1.406c-0.055,0.128-0.189,0.231-0.201,0.384c-0.109,1.126,0.719,2.095,1.845,2.21
			c1.041,0.079,1.912-0.664,2.107-1.687c0.56,0.091,1.09,0.347,1.425,0.858c0.438,0.646,0.603,1.432,0.438,2.211
			c-0.152,0.779-0.604,1.437-1.267,1.887c-0.907,0.615-2.01,0.835-3.094,0.615c-1.071-0.207-1.991-0.846-2.6-1.741
			c-1.675-2.503-0.975-5.937,1.553-7.636c4.512-2.99,8.342,0.092,10.248,2.198c0.006,0.012,0.012,0.012,0.018,0.012
			c0.043,0.073,0.092,0.134,0.128,0.183c8.793,11.059,16.362,20.654,29.338,18.676c5.151-0.791,9.694-3.593,12.769-7.922
			c3.167-4.421,4.421-10.017,3.471-15.369C219.423,131.24,210.923,125.297,202.032,126.911z M117.409,118.775
			c-3.688,4.128-5.925,9.45-6.741,15.162c-0.81-5.712-3.051-11.034-6.741-15.162c-3.979-4.445-9.292-7.161-15.195-8.08
			c5.903-0.907,11.216-3.636,15.195-8.081c3.684-4.128,5.925-9.447,6.741-15.159c0.816,5.711,3.054,11.03,6.741,15.159
			c3.979,4.445,9.282,7.161,15.195,8.081C126.691,111.603,121.382,114.33,117.409,118.775z"/>
		<path d="M110.668,63.669c7.009,0,12.711-5.7,12.711-12.702c0-7.009-5.702-12.714-12.711-12.714S97.96,43.958,97.96,50.967
			C97.96,57.969,103.659,63.669,110.668,63.669z M106.695,50.967c0-5.943,2.314-9.597,3.973-9.597s3.97,3.653,3.97,9.597
			c0,5.937-2.311,9.584-3.97,9.584S106.695,56.903,106.695,50.967z M120.262,50.967c0,3.142-1.547,5.918-3.895,7.663
			c0.865-2.107,1.389-4.726,1.389-7.663c0-2.947-0.523-5.575-1.389-7.676C118.721,45.045,120.262,47.818,120.262,50.967z
			 M104.969,43.285c-0.868,2.107-1.392,4.734-1.392,7.663c0,2.956,0.518,5.575,1.392,7.663c-2.345-1.738-3.891-4.533-3.891-7.663
			S102.618,45.045,104.969,43.285z"/>
	</g>
</g>
<g>
</g>
<g>
</g>
<g>
</g>
<g>
</g>
<g>
</g>
<g>
</g>
<g>
</g>
<g>
</g>
<g>
</g>
<g>
</g>
<g>
</g>
<g>
</g>
<g>
</g>
<g>
</g>
<g>
</g>
</svg>
