<?xml version="1.0" encoding="iso-8859-1"?>
<!-- Generator: Adobe Illustrator 16.0.0, SVG Export Plug-In . SVG Version: 6.00 Build 0)  -->
<!DOCTYPE svg PUBLIC "-//W3C//DTD SVG 1.1//EN" "http://www.w3.org/Graphics/SVG/1.1/DTD/svg11.dtd">
<svg version="1.1" id="Capa_1" xmlns="http://www.w3.org/2000/svg" xmlns:xlink="http://www.w3.org/1999/xlink" x="0px" y="0px"
	 width="262.064px" height="262.064px" viewBox="0 0 262.064 262.064" style="enable-background:new 0 0 262.064 262.064;"
	 xml:space="preserve">
<g>
	<path d="M259.422,126.368l-12.787-8.659c-0.767-0.524-1.766-0.569-2.569-0.14c-0.816,0.433-1.327,1.285-1.327,2.208v3.706
		c-0.816-0.274-1.663-0.518-2.558-0.518c-3.508,0-6.382,2.308-7.441,5.456h-16.501c-0.384-0.642-0.907-1.242-1.607-1.72
		l-11.07-7.508c-0.768-0.518-1.748-0.569-2.563-0.137c-0.822,0.429-1.334,1.285-1.334,2.208v7.164h-6.26
		c-0.049-0.006-0.085-0.031-0.128-0.031c-1.15-0.052-2.246-0.045-3.361,0.024c-5.839-0.429-11.295-2.783-15.648-6.784
		c-5.151-4.716-8.178-11.155-8.458-18.127c-0.243-5.444,1.644-10.65,5.322-14.666c3.678-4.016,8.707-6.36,14.15-6.604
		c6.504-0.21,12.337,3.532,14.998,9.118c-0.128,0-0.22-0.058-0.347-0.052c-3.398,0.131-6.053,3.033-5.877,6.431
		c0.128,3.41,3.015,6.053,6.437,5.903c2.801-0.125,5.012-2.144,5.627-4.756c0.414-0.469,0.657-1.081,0.639-1.747
		c-0.511-11.46-10.284-20.527-21.695-19.878c-6.771,0.298-13.031,3.218-17.598,8.211c-1.997,2.195-3.508,4.716-4.615,7.383
		c-0.366-0.487-0.67-0.992-1.097-1.434c-2.009-2.189-4.604-3.629-7.453-4.241c5.492-7.6,4.701-18.137,4.652-18.624l-0.195-2.101
		l-2.106-0.161c0,0.006-13.128-0.999-20.688,6.67c-0.779,0.797-1.428,1.677-2.034,2.576c1.428-9.104,8.869-16.157,18.131-17.053
		c0.84,1.054,2.07,1.775,3.507,1.775c2.484,0,4.53-2.025,4.53-4.534c0-2.494-2.021-4.524-4.53-4.524
		c-1.692,0-3.087,0.959-3.866,2.323c-7.472,0.694-14.018,4.545-18.213,10.327V49.139c1.196-0.813,2.028-2.122,2.028-3.681
		c0-2.494-2.009-4.527-4.534-4.527c-2.496,0-4.527,2.027-4.527,4.527c0,1.559,0.834,2.861,2.013,3.675v14.714
		c-4.189-5.77-10.717-9.633-18.194-10.327c-0.779-1.364-2.195-2.323-3.885-2.323c-2.481,0-4.519,2.025-4.519,4.524
		c0,2.503,2.019,4.534,4.519,4.534c1.446,0,2.694-0.722,3.504-1.775c9.274,0.895,16.712,7.937,18.146,17.04
		c-0.625-0.892-1.242-1.766-2.034-2.563c-7.551-7.669-20.688-6.664-20.688-6.67l-2.107,0.162l-0.195,2.101
		c-0.037,0.493-0.84,11.043,4.676,18.645c-3.498,0.779-6.445,2.853-8.442,5.66c-1.126-2.667-2.618-5.188-4.625-7.389
		c-4.579-4.993-10.826-7.919-17.609-8.211c-11.436-0.618-21.175,8.418-21.693,19.878c-0.042,0.667,0.201,1.279,0.624,1.745
		c0.63,2.621,2.813,4.64,5.636,4.765c3.401,0.143,6.287-2.494,6.424-5.903c0.149-3.398-2.487-6.299-5.873-6.431
		c-0.119-0.006-0.207,0.052-0.319,0.052c2.67-5.593,8.519-9.353,14.964-9.118c5.444,0.244,10.489,2.588,14.161,6.604
		c3.668,4.016,5.556,9.222,5.325,14.666c-0.317,6.978-3.297,13.411-8.449,18.127c-4.369,4.001-9.837,6.36-15.655,6.784
		c-1.117-0.076-2.207-0.076-3.355-0.024c-0.055,0-0.101,0.024-0.131,0.031h-6.299v-7.158c0-0.922-0.508-1.771-1.328-2.207
		c-0.804-0.43-1.802-0.387-2.569,0.137l-11.067,7.508c-0.697,0.472-1.209,1.072-1.632,1.714h-16.48
		c-1.06-3.154-3.934-5.468-7.444-5.468c-0.91,0-1.741,0.237-2.557,0.518v-3.699c0-0.922-0.512-1.769-1.328-2.207
		c-0.819-0.436-1.814-0.381-2.569,0.137l-12.778,8.668C0.956,127.485,0,129.138,0,130.901c0,1.766,0.944,3.422,2.606,4.558
		l12.784,8.659c0.423,0.292,0.911,0.433,1.41,0.433c0.393,0,0.804-0.092,1.172-0.286c0.816-0.427,1.327-1.285,1.327-2.204v-3.715
		c0.816,0.273,1.666,0.518,2.558,0.518c3.51,0,6.384-2.296,7.444-5.456h16.499c0.399,0.643,0.911,1.242,1.608,1.724l11.067,7.502
		c0.42,0.292,0.91,0.426,1.403,0.426c0.399,0,0.804-0.092,1.172-0.28c0.819-0.438,1.331-1.29,1.331-2.204v-7.167h6.296
		c0.049,0.006,0.094,0.034,0.131,0.034c1.136,0.048,2.238,0.037,3.355-0.027c5.818,0.432,11.286,2.783,15.655,6.795
		c5.152,4.713,8.15,11.149,8.449,18.115c0.231,5.443-1.656,10.65-5.325,14.669c-3.678,4.019-8.705,6.363-14.16,6.606
		c-6.415,0.299-12.312-3.501-14.964-9.115c0.113,0,0.201,0.055,0.32,0.049c3.386-0.135,6.041-3.033,5.879-6.431
		c-0.143-3.409-3.029-6.052-6.43-5.906c-2.822,0.134-5.023,2.155-5.635,4.774c-0.405,0.469-0.648,1.077-0.624,1.741
		c0.499,11.155,9.733,19.894,20.776,19.894c0.308,0,0.612-0.007,0.911-0.019c6.783-0.299,13.03-3.216,17.609-8.208
		c2.007-2.205,3.504-4.713,4.625-7.387c0.344,0.487,0.654,0.992,1.087,1.443c2.031,2.198,4.637,3.629,7.499,4.244
		c-5.66,7.617-4.844,18.347-4.807,18.834l0.207,2.095l2.095,0.164c0,0,0.594,0.043,1.583,0.043c3.766,0,13.125-0.646,19.093-6.723
		c0.792-0.792,1.428-1.675,2.046-2.569c-1.434,9.109-8.872,16.166-18.146,17.049c-0.828-1.053-2.055-1.777-3.504-1.777
		c-2.481,0-4.518,2.027-4.518,4.542c0,2.484,2.019,4.53,4.518,4.53c1.69,0,3.105-0.962,3.885-2.326
		c7.478-0.693,14.005-4.548,18.194-10.326v14.711c-1.178,0.816-2.012,2.131-2.012,3.678c0,2.49,2.012,4.53,4.527,4.53
		c2.494,0,4.534-2.027,4.534-4.53c0-1.559-0.831-2.861-2.028-3.684v-14.705c4.195,5.766,10.742,9.633,18.212,10.326
		c0.779,1.364,2.198,2.314,3.867,2.314c2.484,0,4.53-2.021,4.53-4.524s-2.021-4.536-4.53-4.536c-1.425,0-2.68,0.719-3.508,1.771
		c-9.262-0.9-16.708-7.946-18.13-17.056c0.624,0.907,1.254,1.778,2.034,2.582c5.979,6.071,15.354,6.723,19.104,6.723
		c0.975,0,1.584-0.049,1.584-0.049l2.106-0.158l0.177-2.095c0.055-0.5,0.858-11.217-4.805-18.834
		c3.593-0.743,6.644-2.825,8.701-5.699c1.127,2.673,2.625,5.188,4.622,7.386c4.566,5.005,10.826,7.929,17.598,8.214
		c0.316,0.013,0.615,0.019,0.907,0.019c11.052,0,20.295-8.743,20.795-19.899c0.036-0.657-0.207-1.278-0.634-1.735
		c-0.64-2.612-2.825-4.64-5.633-4.768c-3.416-0.134-6.302,2.497-6.436,5.906c-0.158,3.397,2.484,6.296,5.882,6.431
		c0.122,0.006,0.219-0.049,0.341-0.049c-2.667,5.614-8.513,9.401-15.004,9.115c-5.443-0.243-10.461-2.588-14.15-6.606
		c-3.679-4.019-5.565-9.226-5.322-14.669c0.305-6.979,3.307-13.402,8.458-18.115c4.342-4.013,9.81-6.369,15.648-6.795
		c1.115,0.07,2.211,0.076,3.361,0.027c0.055,0,0.092-0.027,0.128-0.034h6.26v7.161c0,0.92,0.512,1.76,1.334,2.204
		c0.384,0.194,0.767,0.298,1.175,0.298c0.481,0,0.969-0.146,1.4-0.438l11.07-7.502c0.688-0.475,1.212-1.075,1.632-1.717h16.489
		c1.06,3.154,3.934,5.468,7.441,5.468c0.907,0,1.741-0.231,2.558-0.512v3.69c0,0.925,0.511,1.777,1.327,2.21
		c0.377,0.194,0.768,0.286,1.169,0.286c0.487,0,0.975-0.146,1.4-0.426l12.781-8.672c1.669-1.114,2.624-2.767,2.624-4.533
		C262.028,129.163,261.072,127.503,259.422,126.368z M139.466,76.461c4.201-4.266,10.948-5.094,14.517-5.213
		c-0.073,3.505-0.779,10.306-5.018,14.584c-1.035,1.047-2.21,1.875-3.489,2.558c-0.061,0.036-0.14,0.061-0.213,0.106
		c-3.803,1.964-8.184,2.463-10.817,2.554C134.534,87.541,135.249,80.739,139.466,76.461z M122.425,76.461
		c4.189,4.259,4.92,11.073,4.993,14.583c-2.63-0.085-6.963-0.584-10.741-2.53c-0.101-0.058-0.219-0.101-0.32-0.155
		c-1.239-0.67-2.438-1.492-3.461-2.527c-4.202-4.26-4.905-11.073-4.993-14.584C111.489,71.368,118.236,72.196,122.425,76.461z
		 M122.413,185.591c-4.192,4.268-10.939,5.096-14.504,5.212c0.061-3.501,0.78-10.309,4.993-14.583
		c4.217-4.263,10.963-5.091,14.517-5.213C127.357,174.515,126.639,181.31,122.413,185.591z M139.466,185.591
		c-4.217-4.257-4.92-11.076-5.008-14.584c3.568,0.122,10.318,0.95,14.507,5.213c4.201,4.262,4.92,11.069,4.993,14.583
		C150.396,190.687,143.661,189.859,139.466,185.591z M170.874,136.519c-6.126,5.619-9.719,13.279-10.071,21.586
		c-0.013,0.334,0.048,0.651,0.048,0.974c-0.219,0.384-0.365,0.804-0.341,1.278c0.183,5.121-3.8,9.445-8.927,9.646
		c-2.594,0.183-4.725-1.175-5.979-3.147c1.176-0.737,1.997-2.034,1.942-3.544c-0.115-2.204-1.954-3.946-4.177-3.849
		c-1.766,0.079-3.179,1.279-3.653,2.874c-0.183,0.378-0.332,0.779-0.32,1.218c0.064,1.084,0.296,2.095,0.601,3.081
		c-2.75-0.518-5.088-0.633-6.58-0.633v-6.917c0-1.377-1.12-2.497-2.481-2.497c-1.376,0-2.494,1.126-2.494,2.497v6.929
		c-1.428,0-3.729,0.116-6.427,0.609c0.317-0.975,0.542-1.985,0.597-3.058c0.012-0.45-0.131-0.857-0.323-1.229
		c-0.481-1.595-1.896-2.789-3.659-2.862c-2.208-0.091-4.068,1.639-4.168,3.849c-0.061,1.492,0.73,2.771,1.915,3.514
		c-0.311,0.456-0.561,0.956-0.972,1.34c-1.354,1.261-3.129,1.942-4.984,1.826c-2.469-0.104-4.774-1.15-6.439-2.978
		c-1.672-1.814-2.558-4.177-2.469-6.655c0.018-0.475-0.131-0.896-0.362-1.278c0-0.329,0.076-0.652,0.061-0.986
		c-0.366-8.307-3.946-15.973-10.057-21.586c-2.582-2.363-5.498-4.245-8.616-5.605c3.118-1.358,6.035-3.243,8.616-5.605
		c6.111-5.617,9.709-13.28,10.057-21.586c0.015-0.332-0.061-0.648-0.049-0.974c0.207-0.387,0.368-0.804,0.35-1.279
		c-0.201-5.118,3.778-9.444,8.908-9.646c0.956-0.073,1.854,0.07,2.67,0.351c0.499,0.298,0.983,0.612,1.495,0.868
		c0.743,0.518,1.355,1.145,1.842,1.918c-1.194,0.737-2.01,2.034-1.946,3.55c0.098,2.213,1.946,3.945,4.165,3.845
		c1.763-0.066,3.191-1.27,3.666-2.861c0.18-0.375,0.329-0.78,0.317-1.228c-0.037-0.974-0.229-1.896-0.484-2.795
		c2.594,0.469,4.88,0.582,6.333,0.582v6.914c0,1.379,1.136,2.493,2.497,2.493c1.358,0,2.481-1.114,2.481-2.493v-6.914
		c1.47,0,3.821-0.119,6.479-0.606c-0.271,0.911-0.45,1.846-0.499,2.819c-0.013,0.448,0.131,0.847,0.316,1.221
		c0.487,1.598,1.891,2.807,3.653,2.874c2.211,0.088,4.067-1.632,4.178-3.845c0.066-1.492-0.725-2.776-1.925-3.517
		c0.329-0.463,0.585-0.956,0.98-1.343c1.37-1.257,3.13-1.964,4.969-1.827c2.473,0.101,4.792,1.154,6.455,2.975
		c1.692,1.821,2.557,4.183,2.472,6.659c-0.024,0.475,0.122,0.898,0.341,1.278c0,0.332-0.061,0.655-0.049,0.986
		c0.366,8.306,3.946,15.976,10.072,21.586c2.569,2.363,5.492,4.247,8.609,5.605C176.366,132.274,173.455,134.156,170.874,136.519z"
		/>
</g>
<g>
</g>
<g>
</g>
<g>
</g>
<g>
</g>
<g>
</g>
<g>
</g>
<g>
</g>
<g>
</g>
<g>
</g>
<g>
</g>
<g>
</g>
<g>
</g>
<g>
</g>
<g>
</g>
<g>
</g>
</svg>
