<?xml version="1.0" encoding="iso-8859-1"?>
<!-- Generator: Adobe Illustrator 16.0.0, SVG Export Plug-In . SVG Version: 6.00 Build 0)  -->
<!DOCTYPE svg PUBLIC "-//W3C//DTD SVG 1.1//EN" "http://www.w3.org/Graphics/SVG/1.1/DTD/svg11.dtd">
<svg version="1.1" id="Capa_1" xmlns="http://www.w3.org/2000/svg" xmlns:xlink="http://www.w3.org/1999/xlink" x="0px" y="0px"
	 width="165.27px" height="165.27px" viewBox="0 0 165.27 165.27" style="enable-background:new 0 0 165.27 165.27;"
	 xml:space="preserve">
<g>
	<path d="M161.156,62.024c-4.224-5.018-10.151-7.172-13.062-4.714c-1.455,1.226-0.807,2.932-0.337,4.19
		c0.563,1.524,0.854,2.528,0.047,3.522c-0.96,1.187-3.417,1.419-6.012,1.661c-2.916,0.277-6.196,0.612-8.527,2.447
		c0.617-1.928,0.243-4.116-1.266-5.659c-2.114-2.138-5.811-2.172-7.963-0.071c-0.511,0.503-0.901,1.097-1.181,1.716
		c-4.229-1.376-8.237-0.907-11.733,1.292c0.448-1.07,0.881-2.138,1.303-3.19c0.11-0.287,0.227-0.54,0.332-0.796
		c0.068-0.074,0.152-0.113,0.211-0.203c3.892-6.972,9.444-9.537,15.641-7.317c0.095,1.284,0.56,2.558,1.524,3.541
		c1.065,1.097,2.489,1.685,4.019,1.685c1.481,0,2.89-0.562,3.938-1.614c1.071-1.055,1.678-2.468,1.683-3.971
		c0.011-1.484-0.559-2.916-1.613-3.974c-2.109-2.148-5.807-2.18-7.969-0.081c-0.521,0.514-0.891,1.102-1.171,1.729
		c-4.571-1.498-8.896-0.844-12.593,1.84c3.513-7.291,6.418-11.522,12.135-12.366c0.269,0.562,0.563,1.091,1.012,1.54
		c1.071,1.079,2.495,1.685,4.014,1.685c1.481,0,2.885-0.562,3.939-1.622c2.215-2.165,2.241-5.735,0.073-7.947
		c-2.109-2.138-5.812-2.183-7.957-0.087c-1.028,1.016-1.599,2.365-1.656,3.808c-8.137,1.315-11.591,8.554-15.482,16.973
		c-0.913,1.97-1.757,4.065-2.601,6.183c-0.053,0.13-0.11,0.274-0.163,0.404c-0.438-3.159-1.872-5.854-4.177-7.987
		c2.748-0.762,4.667-2.893,5.326-6.268c1.166-5.935-2.815-8.975-10.558-12.519c-2.71-1.237-5.236-3.041-8.732-7.776
		c-0.301-0.387-0.786-0.582-1.271-0.545c-0.491,0.071-0.902,0.401-1.076,0.86c-0.242,0.648-5.94,15.957-1.165,24.779
		c1.618,2.982,4.213,4.878,7.72,5.653c0.274,0.061,0.569,0.092,0.902,0.092c1.239,0,3.153-0.485,4.461-1.867
		c0.459-0.493,0.723-1.086,0.944-1.69c4.799,3.175,6.243,8.493,4.107,15.222c-2.938,5.664-6.908,10.466-14.091,12.171
		c-1.898,0.454-3.786,0.503-5.621,0.266c0.127-0.087,0.264-0.137,0.385-0.234c4.588-3.164,7.657-8.43,8.438-14.428
		c0.101-0.746-0.427-1.421-1.171-1.5c-0.743-0.082-1.418,0.422-1.508,1.166c-0.675,5.255-3.327,9.819-7.291,12.556
		c-0.852,0.583-1.758,1.068-2.694,1.463c-0.934-0.39-1.84-0.875-2.694-1.463c-3.953-2.737-6.613-7.312-7.288-12.556
		c-0.098-0.744-0.796-1.237-1.514-1.166c-0.738,0.103-1.263,0.778-1.165,1.5c0.777,5.999,3.844,11.264,8.435,14.428
		c0.124,0.098,0.258,0.147,0.388,0.24c-1.83,0.231-3.721,0.182-5.622-0.272c-7.188-1.701-11.156-6.507-14.093-12.171
		c-2.139-6.729-0.686-12.047,4.103-15.222c0.227,0.604,0.488,1.213,0.947,1.69c1.3,1.382,3.217,1.867,4.458,1.867
		c0.324,0,0.628-0.032,0.896-0.092c3.512-0.775,6.109-2.671,7.723-5.653c4.773-8.822-0.917-24.131-1.16-24.779
		c-0.174-0.459-0.59-0.789-1.081-0.86c-0.475-0.053-0.978,0.142-1.268,0.545c-3.499,4.736-6.028,6.539-8.738,7.776
		c-7.744,3.543-11.718,6.589-10.562,12.519c0.659,3.375,2.581,5.511,5.331,6.268c-2.312,2.139-3.744,4.839-4.179,7.987
		c-0.056-0.129-0.116-0.274-0.169-0.404c-0.849-2.117-1.685-4.187-2.597-6.183c-3.9-8.419-7.349-15.639-15.488-16.973
		c-0.053-1.447-0.62-2.798-1.65-3.808c-2.144-2.122-5.848-2.08-7.955,0.082c-2.17,2.196-2.144,5.771,0.069,7.958
		c1.06,1.039,2.462,1.616,3.944,1.616c1.521,0,2.942-0.588,4.01-1.685c0.443-0.448,0.747-0.994,1.01-1.534
		c5.724,0.844,8.625,5.065,12.134,12.361c-3.688-2.679-8.013-3.333-12.588-1.835c-0.279-0.627-0.653-1.231-1.17-1.734
		c-2.149-2.109-5.854-2.073-7.96,0.087c-1.052,1.057-1.624,2.489-1.613,3.974c0.01,1.503,0.614,2.916,1.685,3.965
		c1.058,1.031,2.455,1.619,3.942,1.619c1.521,0,2.948-0.583,4.016-1.685c0.973-0.999,1.437-2.257,1.529-3.541
		c6.188-2.215,11.744,0.345,15.638,7.316c0.047,0.098,0.14,0.13,0.211,0.209c0.108,0.276,0.227,0.529,0.334,0.791
		c0.422,1.041,0.852,2.12,1.3,3.19c-3.494-2.194-7.504-2.669-11.728-1.292c-0.28-0.62-0.67-1.229-1.182-1.717
		c-2.144-2.117-5.848-2.078-7.96,0.076c-1.529,1.556-1.901,3.752-1.263,5.706c-2.328-1.893-5.65-2.223-8.598-2.5
		c-2.597-0.243-5.055-0.475-6.015-1.661c-0.81-1.012-0.524-1.999,0.048-3.528c0.464-1.253,1.112-2.975-0.335-4.185
		c-2.932-2.458-8.849-0.303-13.067,4.714c-4.343,5.158-5.411,11.167-2.426,13.687c1.173,1.002,2.792,0.433,4.192-0.377
		c1.149-0.686,2.294-1.289,3.459-0.641c1.334,0.744,1.983,3.108,2.668,5.638c0.789,2.902,1.685,6.183,4.018,8.149
		c2.911,2.452,6.75,3.707,11.404,3.707c5.12,0,9.376-1.519,9.553-1.592c0.179-0.068,0.319-0.19,0.448-0.322
		c4.292,0.623,9.176,0.127,14.417-0.374c2.383-0.248,4.823-0.612,7.285-1.002c0.33-0.058,0.654-0.11,0.984-0.147
		c-3.288,2.457-5.297,5.827-5.849,9.903c-1.669-2.184-4.234-4.098-7.96-4.098c-1.495,0-3.111,0.312-4.802,0.907
		c-8.24,2.916-9.065,9.925-7.72,22.67c0.469,4.609,0.058,9.371-3.478,17.714c-0.037,0.095-0.016,0.169-0.031,0.274
		c-0.019,0.079-0.034,0.127-0.034,0.227c-0.011,0.312,0.05,0.606,0.25,0.859l0,0v0.011c0.264,0.338,0.657,0.517,1.052,0.517
		c0.077,0,0.15-0.005,0.232-0.021c1.015-0.175,25.057-4.488,32.708-17.218c2.531-4.219,2.99-8.886,1.361-13.843
		c-0.702-2.173-3.75-5.315-7.431-5.315c-0.546,0-1.07,0.163-1.598,0.295c-0.256-7.114,4.113-12.023,12.311-13.875
		c3.515-0.194,6.967,0.021,10.254,0.992c-1.614,1.018-3.19,2.167-4.688,3.718c-3.947,4.097-5.906,9.376-5.514,14.897
		c0.433,6.08,3.673,11.896,8.894,15.963c0.25,0.189,0.541,0.284,0.833,0.284c0.398,0,0.799-0.174,1.063-0.522
		c0.458-0.585,0.351-1.449-0.232-1.903c-4.617-3.597-7.483-8.712-7.862-14.027c-0.335-4.735,1.355-9.292,4.764-12.83
		c1.883-1.946,3.897-3.317,5.994-4.346c2.096,1.019,4.115,2.384,5.987,4.346c3.418,3.538,5.105,8.095,4.772,12.83
		c-0.379,5.311-3.248,10.431-7.859,14.027c-0.588,0.454-0.691,1.303-0.232,1.903c0.264,0.333,0.665,0.522,1.058,0.522
		c0.295,0,0.58-0.095,0.833-0.284c5.221-4.066,8.459-9.883,8.891-15.963c0.391-5.517-1.565-10.801-5.511-14.897
		c-1.497-1.546-3.074-2.722-4.688-3.718c3.285-0.965,6.739-1.182,10.251-0.986c8.2,1.872,12.567,6.766,12.313,13.88
		c-0.532-0.122-1.06-0.301-1.608-0.301c-3.681,0-6.724,3.143-7.425,5.311c-1.629,4.973-1.176,9.624,1.355,13.843
		c7.651,12.735,31.693,17.049,32.711,17.223c0.085,0.016,0.158,0.021,0.232,0.021c0.021,0,0.042,0,0.073,0
		c0.744,0,1.351-0.602,1.351-1.351c0-0.337-0.116-0.638-0.327-0.875c-3.406-8.126-3.802-12.836-3.333-17.371
		c1.345-12.751,0.522-19.759-7.72-22.676c-1.683-0.591-3.307-0.907-4.805-0.907c-3.723,0-6.291,1.909-7.963,4.093
		c-0.559-4.076-2.562-7.44-5.848-9.894c0.332,0.053,0.659,0.111,0.985,0.143c2.463,0.369,4.899,0.754,7.288,0.997
		c5.236,0.527,10.12,1.013,14.412,0.38c0.127,0.11,0.27,0.248,0.448,0.326c0.175,0.069,4.43,1.582,9.562,1.582
		c4.65,0,8.49-1.233,11.4-3.701c2.342-1.951,3.238-5.245,4.024-8.15c0.68-2.523,1.334-4.894,2.668-5.643
		c1.16-0.633,2.31-0.034,3.454,0.641c1.402,0.82,3.017,1.385,4.192,0.391C166.561,73.191,165.501,67.181,161.156,62.024z
		 M132.088,52.429c0.56-0.551,1.281-0.839,2.057-0.839c0.791,0,1.535,0.314,2.089,0.881c0.548,0.562,0.844,1.284,0.838,2.067
		c-0.005,0.783-0.321,1.514-0.886,2.069c-1.112,1.095-3.037,1.073-4.14-0.039C130.917,55.409,130.934,53.558,132.088,52.429z
		 M131.55,37.205c0.554-0.541,1.271-0.831,2.041-0.831c0.786,0,1.535,0.325,2.094,0.886c1.129,1.139,1.107,3.008-0.042,4.137
		c-1.118,1.084-3.038,1.062-4.146-0.045c-0.543-0.562-0.838-1.284-0.833-2.078C130.675,38.497,130.987,37.755,131.55,37.205z
		 M96.699,56.212l-0.316-0.031c-2.748-0.599-4.683-2.015-5.922-4.303c-3.175-5.867-0.812-15.705,0.537-20.187
		c3.302,3.987,5.896,5.545,8.211,6.621c7.763,3.549,9.782,5.692,9.039,9.553c-0.575,2.993-2.162,4.427-4.831,4.427
		c-0.284,0-0.469-0.042-0.706-0.069c-6.492-2.128-6.697-6.992-6.703-7.208c-0.01-0.741-0.606-1.329-1.35-1.329h-0.005
		c-0.749,0.005-1.351,0.608-1.345,1.36c0,0.258,0.163,5.767,6.428,8.862c-0.058,0.496-0.211,0.939-0.548,1.284
		C98.534,55.894,97.442,56.212,96.699,56.212z M57.069,47.86c-0.752-3.86,1.273-5.993,9.039-9.559
		c2.318-1.052,4.91-2.623,8.208-6.626c1.355,4.472,3.72,14.31,0.546,20.185c-1.242,2.291-3.18,3.712-5.935,4.306
		c-0.037,0.01-0.135,0.031-0.309,0.031c-0.733,0-1.83-0.324-2.495-1.015c-0.334-0.341-0.485-0.789-0.545-1.279
		c6.265-3.08,6.425-8.608,6.434-8.867c0.005-0.757-0.596-1.355-1.345-1.36h-0.006c-0.741,0-1.345,0.593-1.35,1.339
		c0,0.053-0.127,5.06-6.708,7.204c-0.232,0.021-0.427,0.063-0.701,0.063C59.228,52.287,57.651,50.839,57.069,47.86z M33.815,41.341
		c-0.556,0.562-1.294,0.876-2.091,0.876c-0.77,0-1.5-0.304-2.051-0.828c-1.15-1.134-1.166-2.99-0.037-4.14
		c0.557-0.562,1.3-0.875,2.088-0.875c0.772,0,1.498,0.298,2.043,0.826c0.562,0.556,0.873,1.281,0.878,2.075
		C34.659,40.058,34.361,40.791,33.815,41.341z M33.264,56.563c-1.097,1.118-3.024,1.144-4.142,0.04
		c-0.562-0.557-0.873-1.287-0.88-2.07c-0.006-0.783,0.292-1.505,0.838-2.073c0.557-0.562,1.303-0.875,2.091-0.875
		c0.77,0,1.5,0.303,2.051,0.833C34.377,53.558,34.393,55.409,33.264,56.563z M61.227,120.285l-5.514-10.567
		c0.372-1.107,0.599-2.194,0.701-3.243l6.75,9.635c0.071,0.105,0.211,0.078,0.298,0.142c-0.319,0.971-0.741,1.909-1.292,2.816
		C61.913,119.504,61.527,119.869,61.227,120.285z M37.207,102.545l16.529,1.903c0.164,1.129,0.05,2.362-0.309,3.681l-17.252-1.804
		C36.365,104.807,36.726,103.605,37.207,102.545z M52.473,110.735c-0.491,1.075-1.081,2.183-1.783,3.312l-14.624-0.875
		c-0.092-1.54-0.108-2.9-0.071-4.166L52.473,110.735z M46.559,119.737l-10.017-0.333c-0.031-0.527-0.037-1.075-0.084-1.571
		c-0.077-0.706-0.108-1.281-0.169-1.94l12.646,0.76C48.202,117.685,47.402,118.713,46.559,119.737z M41.401,125.496l-5.118-0.254
		c0.166-1.128,0.242-2.141,0.279-3.132l7.754,0.253C43.363,123.439,42.385,124.483,41.401,125.496z M35.748,127.931l3.075,0.148
		c-1.487,1.455-2.927,2.784-4.267,3.96C35.042,130.579,35.463,129.181,35.748,127.931z M40.586,130.125l-0.443,2.679
		c-1.268,0.396-2.462,0.738-3.536,1.013C37.794,132.767,39.139,131.517,40.586,130.125z M43.774,126.945
		c0.82-0.859,1.645-1.75,2.465-2.662l0.282,6.186c-1.184,0.501-2.334,0.954-3.478,1.35l0.778-4.688
		C43.827,127.067,43.766,127.014,43.774,126.945z M48.8,121.25c0.617-0.759,1.231-1.519,1.804-2.299l2.096,8.396
		c0.011,0.048,0.058,0.068,0.076,0.11c-1.173,0.67-2.383,1.281-3.602,1.856L48.8,121.25z M52.644,115.976
		c0.644-1.012,1.21-2.009,1.719-3.016l5.015,9.598c-1.242,1.239-2.7,2.362-4.237,3.396L52.644,115.976z M42.395,98
		c1.4-0.501,2.711-0.754,3.9-0.754c3.678,0,5.68,2.446,6.703,4.387l-14.08-1.613C39.837,99.16,40.982,98.496,42.395,98z
		 M63.273,107.47c0.593,1.804,0.799,3.513,0.757,5.168l-6.001-8.563c0.129-0.017,0.256-0.063,0.385-0.063
		C60.836,104.011,62.896,106.29,63.273,107.47z M128.049,102.545c0.475,1.049,0.838,2.268,1.028,3.76l-17.25,1.809
		c-0.358-1.308-0.475-2.552-0.311-3.681L128.049,102.545z M103.09,119.078c-0.56-0.918-0.981-1.856-1.292-2.816
		c0.095-0.084,0.227-0.053,0.3-0.147l6.745-9.635c0.11,1.05,0.332,2.131,0.701,3.238l-5.516,10.567
		C103.728,119.869,103.343,119.504,103.09,119.078z M110.889,112.96c0.512,1.007,1.081,2.004,1.714,3.021l-2.494,9.978
		c-1.534-1.023-2.995-2.136-4.234-3.386L110.889,112.96z M112.556,127.346l2.099-8.396c0.569,0.78,1.187,1.54,1.804,2.299
		l-0.369,8.059c-1.229-0.564-2.426-1.187-3.607-1.861C112.498,127.415,112.545,127.394,112.556,127.346z M123.851,125.496
		c-0.985-1.013-1.956-2.057-2.916-3.133l7.758-0.253c0.036,0.991,0.11,2.004,0.279,3.132L123.851,125.496z M128.798,117.843
		c-0.048,0.49-0.059,1.033-0.085,1.561l-10.014,0.333c-0.844-1.023-1.641-2.052-2.373-3.085l12.65-0.76
		C128.904,116.551,128.872,117.142,128.798,117.843z M119.021,124.283c0.812,0.912,1.64,1.809,2.463,2.662
		c0,0.069-0.059,0.116-0.048,0.186l0.78,4.688c-1.139-0.396-2.294-0.849-3.48-1.34L119.021,124.283z M124.668,130.125
		c1.445,1.402,2.795,2.642,3.977,3.702c-1.07-0.285-2.268-0.612-3.533-1.013L124.668,130.125z M126.43,128.08l3.069-0.148
		c0.284,1.25,0.706,2.643,1.191,4.113C129.357,130.864,127.922,129.524,126.43,128.08z M129.188,113.171l-14.623,0.875
		c-0.701-1.129-1.292-2.236-1.782-3.312l16.474-1.714C129.293,110.271,129.278,111.631,129.188,113.171z M106.839,104.011
		c0.127,0,0.259,0.047,0.385,0.063l-6.001,8.563c-0.042-1.661,0.163-3.364,0.76-5.178
		C102.357,106.29,104.418,104.011,106.839,104.011z M118.963,97.246c1.191,0,2.499,0.253,3.902,0.754
		c1.413,0.496,2.558,1.16,3.485,2.035l-14.064,1.614C113.315,99.698,115.314,97.246,118.963,97.246z M125.929,65.333
		c0.554-0.546,1.276-0.831,2.052-0.831c0.785,0,1.534,0.319,2.093,0.862c1.129,1.163,1.113,3.032-0.047,4.166
		c-1.118,1.078-3.038,1.068-4.14-0.061c-0.549-0.557-0.844-1.279-0.839-2.067C125.048,66.615,125.365,65.884,125.929,65.333z
		 M35.258,65.378c0.556-0.562,1.294-0.875,2.088-0.875c0.772,0,1.503,0.304,2.054,0.831c0.562,0.551,0.868,1.276,0.878,2.069
		c0.008,0.789-0.29,1.511-0.841,2.078c-0.557,0.562-1.297,0.875-2.086,0.875c-0.77,0-1.495-0.303-2.046-0.83
		C34.14,68.384,34.124,66.528,35.258,65.378z M27.416,89.467c-4,0-7.251-1.013-9.671-3.051c-1.69-1.427-2.429-4.158-3.148-6.795
		c-0.836-3.072-1.624-5.988-3.952-7.296c-0.762-0.425-1.561-0.636-2.371-0.636c-1.524,0-2.771,0.728-3.771,1.311
		c-0.403,0.237-1.015,0.596-1.089,0.649c-1.54-1.294-0.789-5.679,2.752-9.882c2.813-3.341,5.951-4.839,7.815-4.839
		c0.604,0,1.094,0.158,1.376,0.33c0.026,0.211-0.221,0.875-0.382,1.313c-0.585,1.55-1.458,3.9,0.382,6.178
		c1.68,2.078,4.683,2.36,7.863,2.645c2.721,0.255,5.54,0.529,7.225,1.94c5.107,4.303,5.215,12.115,4.952,15.765
		c-2.544-0.743-4.633-2.099-6.405-4.388c1.608-2.246,1.405-5.379-0.69-7.295c-2.17-1.988-5.864-1.819-7.847,0.351
		c-1.004,1.097-1.516,2.51-1.453,3.995c0.066,1.477,0.704,2.843,1.798,3.853c1.026,0.938,2.36,1.463,3.75,1.463
		c0.856,0,1.674-0.237,2.428-0.606c1.659,2.097,3.586,3.51,5.724,4.438C31.218,89.204,29.404,89.467,27.416,89.467z M22.623,81.62
		c-0.562-0.519-0.891-1.226-0.926-1.969c-0.031-0.773,0.232-1.493,0.747-2.06c0.545-0.588,1.313-0.928,2.117-0.928
		c0.712,0,1.392,0.264,1.922,0.747c1.16,1.057,1.242,2.871,0.182,4.039C25.639,82.564,23.746,82.651,22.623,81.62z M69.91,84.985
		c-0.185-0.056-0.356-0.14-0.551-0.113c-0.237,0.047-0.438,0.118-0.669,0.179c-3.381,0.182-6.745,0.675-9.98,1.166
		c-0.361,0.053-0.707,0.103-1.062,0.129c-0.076-0.011-0.119-0.076-0.2-0.087c-8.889,0.2-14.618-3.731-15.892-11.119
		c-0.124-0.733-0.854-1.236-1.561-1.094c-0.736,0.119-1.231,0.815-1.102,1.561c1.005,5.793,4.374,9.832,9.516,11.857
		c-4.05,0.358-7.464,0.517-10.346,0.137c0.29-3.214,0.34-9.896-3.101-15.153c0.741,0.333,1.535,0.564,2.381,0.564
		c1.524,0,2.951-0.583,4.013-1.682c0.944-0.968,1.437-2.225,1.534-3.554c6.199-2.21,11.744,0.351,15.644,7.322
		c0.093,0.155,0.227,0.264,0.367,0.361c2.824,4.213,6.658,7.707,12.377,9.423C70.816,84.94,70.363,84.963,69.91,84.985z
		 M78.911,85.742c1.284-0.148,2.537-0.428,3.752-0.85c1.205,0.417,2.441,0.691,3.71,0.844c-1.258,0.301-2.505,0.723-3.731,1.236
		C81.406,86.458,80.164,86.042,78.911,85.742z M116.843,87.479c5.142-2.025,8.517-6.075,9.519-11.862
		c0.121-0.741-0.364-1.438-1.103-1.562c-0.712-0.134-1.439,0.356-1.561,1.097c-1.266,7.38-6.982,11.301-15.889,11.117
		c-0.085,0.005-0.127,0.071-0.206,0.092c-0.354-0.053-0.701-0.098-1.055-0.134c-3.232-0.496-6.597-0.978-9.978-1.166
		c-0.231-0.066-0.438-0.132-0.675-0.179c-0.2-0.037-0.364,0.077-0.559,0.113c-0.433-0.01-0.86-0.042-1.287-0.055
		c5.711-1.717,9.545-5.205,12.361-9.416c0.137-0.113,0.279-0.211,0.369-0.361c3.892-6.966,9.429-9.542,15.641-7.324
		c0.101,1.329,0.58,2.589,1.524,3.549c1.064,1.092,2.488,1.685,4.018,1.685c0.802,0,1.566-0.189,2.278-0.514
		c-3.396,5.26-3.349,11.886-3.063,15.084C124.299,87.991,120.893,87.848,116.843,87.479z M161.978,73.602
		c-0.216-0.005-0.817-0.364-1.229-0.602c-1.002-0.583-2.252-1.311-3.765-1.311c-0.812,0-1.614,0.211-2.368,0.631
		c-2.336,1.297-3.122,4.213-3.955,7.301c-0.723,2.637-1.466,5.368-3.153,6.795c-2.415,2.038-5.669,3.051-9.672,3.051
		c-1.988,0-3.802-0.264-5.289-0.56c2.141-0.928,4.065-2.357,5.732-4.438c0.754,0.369,1.571,0.602,2.42,0.602
		c1.397,0,2.722-0.525,3.75-1.464c1.092-1.01,1.734-2.365,1.804-3.862c0.062-1.474-0.448-2.888-1.456-3.984
		c-1.993-2.165-5.685-2.359-7.847-0.351c-2.099,1.912-2.305,5.039-0.696,7.296c-1.771,2.278-3.865,3.644-6.412,4.388
		c-0.274-3.649-0.169-11.457,4.957-15.765c1.688-1.437,4.498-1.688,7.225-1.941c3.18-0.3,6.186-0.566,7.862-2.645
		c1.835-2.268,0.96-4.611,0.38-6.172c-0.163-0.443-0.406-1.102-0.448-1.195c1.424-1.215,5.526-0.042,9.266,4.385
		C162.627,67.97,163.381,72.349,161.978,73.602z M138.596,81.449c-1.065-1.168-0.986-2.982,0.179-4.039
		c0.527-0.483,1.208-0.747,1.909-0.747c0.797,0,1.571,0.335,2.12,0.928c0.522,0.562,0.786,1.297,0.749,2.06
		c-0.037,0.759-0.364,1.46-0.934,1.969c-0.522,0.491-1.213,0.757-1.92,0.757C139.899,82.377,139.128,82.042,138.596,81.449z"/>
</g>
<g>
</g>
<g>
</g>
<g>
</g>
<g>
</g>
<g>
</g>
<g>
</g>
<g>
</g>
<g>
</g>
<g>
</g>
<g>
</g>
<g>
</g>
<g>
</g>
<g>
</g>
<g>
</g>
<g>
</g>
</svg>
