<?xml version="1.0" encoding="iso-8859-1"?>
<!-- Generator: Adobe Illustrator 16.0.0, SVG Export Plug-In . SVG Version: 6.00 Build 0)  -->
<!DOCTYPE svg PUBLIC "-//W3C//DTD SVG 1.1//EN" "http://www.w3.org/Graphics/SVG/1.1/DTD/svg11.dtd">
<svg version="1.1" id="Capa_1" xmlns="http://www.w3.org/2000/svg" xmlns:xlink="http://www.w3.org/1999/xlink" x="0px" y="0px"
	 width="102.537px" height="102.537px" viewBox="0 0 102.537 102.537" style="enable-background:new 0 0 102.537 102.537;"
	 xml:space="preserve">
<g>
	<path d="M90.638,37.465c-1.909-1.732-4.071-3.035-6.386-4.005c0.422-0.303,0.849-0.585,1.233-0.947
		c2.432-2.235,3.834-5.286,3.961-8.585c0.116-2.755-0.854-5.384-2.727-7.409c-1.867-2.025-4.414-3.201-7.172-3.309
		c-0.422-0.005-0.786,0.114-1.103,0.28c-1.354,0.427-2.383,1.643-2.441,3.153c-0.079,1.917,1.413,3.533,3.333,3.612
		c1.287,0.05,2.399-0.636,3.043-1.65c0.396,0.264,0.822,0.485,1.16,0.846c1.081,1.178,1.655,2.706,1.582,4.311
		c-0.09,2.136-1.002,4.124-2.579,5.582c-1.576,1.458-3.712,2.209-5.764,2.128c-0.385-0.011-0.743,0.118-1.076,0.309
		c-0.295,0-0.585-0.066-0.891-0.051c-3.755,0.169-7.341,1.129-10.626,2.734c4.129-3.62,6.781-8.862,6.781-14.758
		C70.968,8.835,62.13,0,51.262,0C40.39,0,31.552,8.841,31.552,19.707c0,5.901,2.66,11.133,6.781,14.758
		c-3.277-1.605-6.863-2.565-10.62-2.734c-0.282-0.01-0.551,0.051-0.833,0.045c-0.33-0.174-0.691-0.303-1.124-0.303
		c-2.138,0.087-4.2-0.67-5.777-2.128c-1.577-1.464-2.489-3.446-2.576-5.587c-0.087-2.167,1.057-4.034,2.747-5.152
		c0.644,1.015,1.751,1.695,3.048,1.65c1.917-0.079,3.417-1.69,3.331-3.612c-0.058-1.526-1.102-2.748-2.484-3.164
		c-0.319-0.15-0.665-0.269-1.062-0.269c-5.682,0.227-10.125,5.036-9.898,10.718c0.129,3.293,1.537,6.35,3.963,8.591
		c0.383,0.345,0.805,0.633,1.221,0.936c-2.302,0.971-4.466,2.273-6.373,4.011c-4.324,3.958-6.858,9.376-7.111,15.248
		C4.352,62.627,12.075,71.059,22,71.502c0.556,0.031,1.091-0.185,1.5-0.543c2.273-0.549,4.029-2.437,4.137-4.883
		c0.124-2.953-2.16-5.453-5.113-5.574c-2.945-0.132-5.455,2.156-5.568,5.1c-0.006,0.105,0.042,0.189,0.047,0.3
		c-4.864-2.283-8.147-7.313-7.899-13.004c0.211-4.712,2.241-9.065,5.719-12.25c3.478-3.188,8.013-4.812,12.701-4.612
		c6.044,0.269,11.615,2.866,15.697,7.328c3.467,3.778,5.508,8.517,5.877,13.553c-0.061,0.965-0.071,1.936-0.021,2.91
		c0,0.043,0.021,0.08,0.026,0.111v17.223c-2.734,0.912-4.735,3.412-4.735,6.455c0,0.785,0.203,1.508,0.448,2.215h-3.204
		c-0.799,0-1.532,0.433-1.912,1.139c-0.377,0.712-0.33,1.572,0.119,2.226l7.506,11.085c0.973,1.435,2.402,2.257,3.937,2.257
		c1.521,0,2.948-0.817,3.936-2.257L62.7,89.195c0.448-0.664,0.496-1.514,0.116-2.226c-0.38-0.706-1.113-1.139-1.909-1.139h-3.209
		c0.237-0.707,0.448-1.439,0.448-2.215c0-3.037-1.999-5.543-4.725-6.455V59.949c0.005-0.042,0.026-0.09,0.026-0.122
		c0.044-0.975,0.039-1.945-0.021-2.91c0.375-5.036,2.41-9.774,5.872-13.553c4.087-4.462,9.661-7.064,15.704-7.328
		c4.757-0.174,9.224,1.429,12.704,4.612c3.48,3.185,5.511,7.538,5.722,12.25c0.248,5.69-3.032,10.721-7.905,13.004
		c0-0.11,0.059-0.194,0.053-0.3c-0.11-2.943-2.621-5.242-5.563-5.1c-2.958,0.121-5.247,2.621-5.115,5.574
		c0.111,2.446,1.867,4.345,4.14,4.883c0.375,0.332,0.859,0.543,1.397,0.543c0.037,0,0.068,0,0.105,0
		c9.93-0.443,17.65-8.875,17.213-18.789C97.494,46.847,94.962,41.428,90.638,37.465z M66.666,19.699
		c0,5.445-2.854,10.212-7.135,12.944c1.613-3.422,2.594-7.874,2.594-12.944s-0.985-9.523-2.594-12.938
		C63.802,9.5,66.666,14.262,66.666,19.699z M51.272,4.316c3.082,0,6.528,6.582,6.528,15.39c0,6.761-2.035,12.177-4.379,14.342
		V19.591c0-1.192-0.965-2.154-2.16-2.154c-1.195,0-2.16,0.967-2.16,2.154v14.458c-2.344-2.165-4.379-7.581-4.379-14.342
		C44.744,10.892,48.195,4.316,51.272,4.316z M35.881,19.699c0-5.442,2.858-10.204,7.135-12.938
		c-1.611,3.42-2.597,7.868-2.597,12.938s0.986,9.526,2.597,12.944C38.745,29.911,35.881,25.144,35.881,19.699z M46.423,40.453
		c-0.923-1.01-1.967-1.859-3.014-2.705c1.777,0.783,3.71,1.226,5.708,1.447v4.741C48.324,42.715,47.428,41.549,46.423,40.453z
		 M53.432,43.936v-4.741c2.004-0.222,3.931-0.664,5.708-1.447c-1.036,0.846-2.091,1.695-3.014,2.705
		C55.122,41.549,54.225,42.715,53.432,43.936z"/>
</g>
<g>
</g>
<g>
</g>
<g>
</g>
<g>
</g>
<g>
</g>
<g>
</g>
<g>
</g>
<g>
</g>
<g>
</g>
<g>
</g>
<g>
</g>
<g>
</g>
<g>
</g>
<g>
</g>
<g>
</g>
</svg>
