<?xml version="1.0" encoding="iso-8859-1"?>
<!-- Generator: Adobe Illustrator 16.0.0, SVG Export Plug-In . SVG Version: 6.00 Build 0)  -->
<!DOCTYPE svg PUBLIC "-//W3C//DTD SVG 1.1//EN" "http://www.w3.org/Graphics/SVG/1.1/DTD/svg11.dtd">
<svg version="1.1" id="Capa_1" xmlns="http://www.w3.org/2000/svg" xmlns:xlink="http://www.w3.org/1999/xlink" x="0px" y="0px"
	 width="243.307px" height="243.307px" viewBox="0 0 243.307 243.307" style="enable-background:new 0 0 243.307 243.307;"
	 xml:space="preserve">
<g>
	<path d="M239.833,108.428c-4.555-4.646-12.599-4.731-17.274-0.143c-1.054,1.035-1.876,2.238-2.473,3.541
		c-9.377-2.987-18.285-1.815-25.928,3.392c7.167-14.727,13.257-23.336,24.911-25.164c0.554,1.142,1.242,2.208,2.174,3.154
		c2.308,2.351,5.401,3.653,8.707,3.653c3.216,0,6.254-1.233,8.556-3.504c2.326-2.269,3.623-5.325,3.653-8.598
		s-1.212-6.354-3.501-8.68c-4.561-4.637-12.604-4.713-17.269-0.143c-2.26,2.213-3.447,5.121-3.587,8.062
		c-17.275,2.914-24.601,18.307-32.882,36.173c-1.948,4.214-3.732,8.646-5.535,13.122c-0.018,0.042-0.03,0.079-0.048,0.122
		c-1.035-6.211-3.867-11.576-8.36-15.933c5.681-1.714,9.596-6.403,10.979-13.494c2.733-14.06-8.61-20.49-22.591-26.886
		c-5.73-2.631-11.058-6.421-18.469-16.475c-0.67-0.916-1.802-1.376-2.935-1.233c-1.145,0.149-2.089,0.917-2.49,1.982
		c-0.524,1.392-12.653,34.02-2.461,52.869c3.465,6.391,9.03,10.497,16.557,12.142c0.609,0.134,1.248,0.195,1.955,0.195
		c2.697,0,6.85-1.06,9.669-4.056c0.926-0.975,1.565-2.128,2.053-3.337c9.772,6.698,12.695,17.805,8.281,31.816
		c-6.218,11.989-14.62,22.146-29.788,25.769c-3.788,0.901-7.588,1.108-11.259,0.706c0.109-0.078,0.213-0.127,0.311-0.182
		c9.803-6.771,16.38-18.019,18.06-30.836c0.207-1.705-0.986-3.264-2.709-3.502c-1.76-0.219-3.252,0.98-3.495,2.704
		c-1.425,11.07-7.046,20.739-15.412,26.513c-1.76,1.217-3.635,2.229-5.574,3.051c-1.945-0.822-3.809-1.834-5.587-3.051
		c-8.354-5.773-13.954-15.442-15.403-26.513c-0.222-1.705-1.756-2.929-3.498-2.704c-1.702,0.226-2.923,1.785-2.704,3.502
		c1.678,12.836,8.235,24.064,18.058,30.836c0.104,0.085,0.204,0.121,0.316,0.188c-3.672,0.384-7.456,0.17-11.256-0.713
		c-15.187-3.623-23.58-13.779-29.797-25.769c-4.415-13.993-1.489-25.1,8.281-31.816c0.487,1.209,1.126,2.362,2.052,3.337
		c2.822,2.996,6.975,4.056,9.669,4.056c0.704,0,1.367-0.067,1.946-0.195c7.544-1.662,13.119-5.751,16.581-12.142
		c10.211-18.837-1.939-51.478-2.463-52.869c-0.399-1.065-1.361-1.833-2.488-1.982c-1.123-0.131-2.247,0.317-2.938,1.233
		C95.021,70.664,89.69,74.472,83.96,77.103c-13.98,6.384-25.328,12.833-22.591,26.886c1.382,7.103,5.301,11.78,10.979,13.494
		c-4.494,4.333-7.326,9.722-8.361,15.933c-0.018-0.043-0.03-0.08-0.048-0.122c-1.802-4.5-3.581-8.933-5.538-13.122
		c-8.275-17.866-15.613-33.259-32.878-36.173c-0.149-2.941-1.328-5.849-3.586-8.062c-4.652-4.551-12.693-4.5-17.266,0.143
		c-2.286,2.326-3.528,5.407-3.504,8.68c0.033,3.249,1.33,6.33,3.656,8.598c2.299,2.259,5.337,3.504,8.552,3.504
		c3.306,0,6.4-1.303,8.71-3.653c0.91-0.935,1.617-2.013,2.171-3.154c11.655,1.827,17.747,10.437,24.911,25.17
		c-7.663-5.213-16.556-6.37-25.928-3.398c-0.609-1.303-1.428-2.506-2.469-3.541c-4.664-4.57-12.699-4.503-17.278,0.143
		c-4.719,4.808-4.643,12.559,0.159,17.272c2.286,2.252,5.322,3.507,8.552,3.507c3.294,0,6.388-1.303,8.705-3.659
		c2.028-2.059,3.175-4.716,3.407-7.56c12.924-4.521,24.549,0.911,32.696,15.512c0.113,0.183,0.295,0.268,0.42,0.427
		c0.228,0.572,0.466,1.096,0.691,1.686c0.816,2.004,1.653,4.062,2.487,6.107c-7.276-4.335-15.558-5.248-24.292-2.466
		c-0.624-1.297-1.428-2.509-2.469-3.544c-4.652-4.585-12.696-4.487-17.272,0.146c-2.283,2.326-3.522,5.407-3.504,8.671
		c0.03,3.252,1.333,6.327,3.659,8.598c2.296,2.259,5.331,3.501,8.549,3.501c3.303,0,6.396-1.284,8.705-3.652
		c2.021-2.059,3.182-4.714,3.404-7.563c12.927-4.493,24.554,0.926,32.699,15.527c0.125,0.195,0.316,0.292,0.447,0.457
		c6.519,9.883,15.479,18.054,29.551,21.428c3.105,0.73,6.217,1.114,9.283,1.114c4.204,0,8.293-0.749,12.215-2.113
		c3.915,1.364,8.007,2.113,12.215,2.113c3.062,0,6.174-0.384,9.286-1.114c14.078-3.361,23.017-11.545,29.538-21.435
		c0.14-0.158,0.347-0.255,0.444-0.45c8.153-14.596,19.76-20.033,32.705-15.527c0.231,2.85,1.376,5.505,3.404,7.563
		c2.308,2.362,5.4,3.652,8.707,3.652c3.228,0,6.26-1.224,8.537-3.494c2.332-2.277,3.635-5.334,3.672-8.604
		c0.036-3.258-1.2-6.345-3.508-8.671c-4.555-4.634-12.599-4.737-17.274-0.146c-1.054,1.035-1.87,2.247-2.473,3.544
		c-8.714-2.771-17.007-1.863-24.289,2.473c0.864-2.059,1.687-4.116,2.49-6.132c0.231-0.578,0.475-1.103,0.706-1.687
		c0.128-0.146,0.316-0.231,0.402-0.414c8.178-14.602,19.771-20.034,32.698-15.519c0.231,2.844,1.389,5.502,3.397,7.554
		c2.314,2.362,5.407,3.665,8.714,3.665c3.222,0,6.26-1.248,8.556-3.507C244.479,120.987,244.553,113.224,239.833,108.428z
		 M225.768,80.375c1.12-1.102,2.6-1.696,4.177-1.696c1.613,0,3.13,0.643,4.269,1.791c1.12,1.147,1.724,2.643,1.711,4.247
		c-0.019,1.595-0.646,3.072-1.79,4.208c-2.271,2.226-6.217,2.195-8.445-0.079C223.38,86.468,223.417,82.689,225.768,80.375z
		 M151.547,120.345l-0.609-0.048c-5.778-1.273-9.834-4.223-12.434-9.019c-6.619-12.196-1.846-32.604,1.035-42.28
		c6.887,8.242,12.343,11.542,17.238,13.774c16.355,7.468,20.636,11.971,19.065,20.021c-1.194,6.211-4.482,9.223-10.005,9.223
		c-0.433,0-0.834-0.031-1.218-0.07c-13.816-4.387-14.267-14.678-14.279-15.162c-0.024-1.702-1.419-3.081-3.117-3.081h-0.019
		c-1.711,0.012-3.111,1.422-3.1,3.142c0.006,0.56,0.286,12.41,13.64,19.038c-0.14,0.896-0.438,1.702-1.06,2.369
		C155.315,119.696,153.062,120.345,151.547,120.345z M67.547,102.792c-1.571-8.05,2.707-12.553,19.062-20.021
		c4.89-2.232,10.339-5.532,17.241-13.774c2.88,9.682,7.657,30.083,1.035,42.28c-2.6,4.802-6.652,7.746-12.446,9.019
		c-0.07,0.018-0.255,0.048-0.6,0.048c-1.513,0-3.766-0.648-5.124-2.094c-0.624-0.649-0.91-1.468-1.06-2.369
		c13.375-6.622,13.643-18.478,13.643-19.038c0.012-1.72-1.392-3.13-3.1-3.142c-0.006,0-0.012,0-0.019,0
		c-1.708,0-3.105,1.392-3.117,3.105c0,0.113-0.25,10.668-14.285,15.138c-0.387,0.04-0.78,0.07-1.218,0.07
		C72.031,112.015,68.758,109.003,67.547,102.792z M17.704,88.818c-1.148,1.16-2.652,1.791-4.284,1.791
		c-1.571,0-3.05-0.618-4.183-1.702c-1.142-1.124-1.772-2.612-1.79-4.208c-0.012-1.604,0.609-3.099,1.708-4.247
		c1.142-1.166,2.655-1.79,4.271-1.79c1.577,0,3.054,0.612,4.177,1.696C19.966,82.689,20.002,86.468,17.704,88.818z M16.525,121.173
		c-1.129,1.154-2.646,1.793-4.259,1.793c-1.577,0-3.062-0.615-4.183-1.711c-2.351-2.314-2.39-6.104-0.101-8.443
		c1.148-1.16,2.661-1.791,4.284-1.791c1.571,0,3.06,0.625,4.184,1.702c1.147,1.13,1.778,2.622,1.79,4.217
		C18.252,118.537,17.64,120.028,16.525,121.173z M29.639,148.608c-1.148,1.157-2.658,1.784-4.278,1.784
		c-1.571,0-3.05-0.609-4.186-1.711c-1.139-1.115-1.775-2.606-1.787-4.202c-0.012-1.595,0.603-3.099,1.708-4.244
		c1.142-1.169,2.648-1.79,4.271-1.79c1.571,0,3.054,0.615,4.177,1.699c1.16,1.126,1.778,2.624,1.79,4.22
		C31.347,145.958,30.759,147.475,29.639,148.608z M213.826,140.162c1.121-1.102,2.606-1.711,4.178-1.711
		c1.619,0,3.13,0.652,4.274,1.791c1.12,1.156,1.717,2.66,1.705,4.256c-0.013,1.596-0.646,3.087-1.797,4.207
		c-2.277,2.241-6.204,2.205-8.439-0.078c-1.126-1.151-1.711-2.662-1.698-4.257C212.061,142.774,212.688,141.27,213.826,140.162z
		 M235.309,121.255c-2.265,2.229-6.211,2.21-8.445-0.089c-1.12-1.139-1.717-2.643-1.705-4.238c0.013-1.598,0.646-3.087,1.784-4.216
		c1.127-1.097,2.618-1.702,4.189-1.702c1.62,0,3.136,0.648,4.28,1.79C237.689,115.151,237.659,118.935,235.309,121.255z"/>
</g>
<g>
</g>
<g>
</g>
<g>
</g>
<g>
</g>
<g>
</g>
<g>
</g>
<g>
</g>
<g>
</g>
<g>
</g>
<g>
</g>
<g>
</g>
<g>
</g>
<g>
</g>
<g>
</g>
<g>
</g>
</svg>
