<?xml version="1.0" encoding="iso-8859-1"?>
<!-- Generator: Adobe Illustrator 16.0.0, SVG Export Plug-In . SVG Version: 6.00 Build 0)  -->
<!DOCTYPE svg PUBLIC "-//W3C//DTD SVG 1.1//EN" "http://www.w3.org/Graphics/SVG/1.1/DTD/svg11.dtd">
<svg version="1.1" id="Capa_1" xmlns="http://www.w3.org/2000/svg" xmlns:xlink="http://www.w3.org/1999/xlink" x="0px" y="0px"
	 width="210.205px" height="210.205px" viewBox="0 0 210.205 210.205" style="enable-background:new 0 0 210.205 210.205;"
	 xml:space="preserve">
<g>
	<path d="M208.08,124.222c-0.396-0.296-0.87-0.518-1.413-0.538c-1.445-0.053-2.647,1.065-2.722,2.51
		c-0.021,0.78,0.306,1.461,0.823,1.973c-0.749,1.128-1.983,1.893-3.438,1.835c-1.466-0.053-2.816-0.686-3.818-1.762
		c-1.007-1.075-1.508-2.479-1.461-3.939c0.017-0.342-0.073-0.675-0.221-0.985c0-0.185,0.047-0.354,0.036-0.538
		c-0.242-5.559-2.646-10.689-6.75-14.438c-0.432-0.391-0.896-0.738-1.35-1.079h20.281c1.192,0,2.157-0.978,2.157-2.16
		c0-1.194-0.971-2.159-2.157-2.159h-20.281c0.453-0.34,0.918-0.686,1.35-1.076c4.104-3.741,6.492-8.878,6.74-14.428
		c0.01-0.18-0.037-0.34-0.026-0.541c0.137-0.3,0.237-0.619,0.221-0.98c-0.062-1.472,0.454-2.874,1.45-3.955
		c1.002-1.073,2.363-1.706,3.829-1.759c1.413-0.04,2.668,0.728,3.417,1.856c-0.517,0.509-0.833,1.199-0.802,1.962
		c0.063,1.434,1.276,2.562,2.711,2.499c0.538-0.021,1.002-0.231,1.402-0.524c1.008-0.222,1.762-1.097,1.709-2.154
		c-0.18-4.58-4.061-8.177-8.617-7.96c-2.826,0.113-5.315,1.442-7.034,3.436c-0.707-1.474-1.572-2.9-2.711-4.153
		c-3.069-3.359-7.282-5.318-11.834-5.513c-7.783-0.401-14.333,5.703-14.681,13.439c-0.042,0.913,0.495,1.708,1.286,2.065
		c0.644,1.236,1.846,2.138,3.328,2.186c2.215,0.103,4.098-1.624,4.187-3.839c0.101-2.089-1.45-3.829-3.475-4.103
		c1.672-3.359,5.199-5.611,9.165-5.46c3.396,0.145,6.539,1.627,8.838,4.132c2.289,2.505,3.476,5.75,3.312,9.157
		c-0.19,4.39-2.089,8.445-5.337,11.422c-2.753,2.521-6.186,3.989-9.841,4.259c-0.728-0.037-1.455-0.042-2.178-0.011
		c-0.021,0-0.042,0.023-0.068,0.023h-2.141c-0.918-2.734-3.418-4.725-6.455-4.725c-0.78,0-1.503,0.197-2.204,0.44v-3.201
		c0-0.794-0.443-1.535-1.149-1.912c-0.696-0.367-1.562-0.335-2.226,0.119l-1.271,0.865c0.059-0.195,0.122-0.39,0.122-0.606
		c0-13.136-10.689-23.823-23.836-23.823c-7.114,0-13.289,3.871-16.696,9.574H92.306c-3.401-5.719-9.579-9.585-16.695-9.585
		c-13.145,0-23.836,10.692-23.836,23.833c0,0.216,0.065,0.412,0.118,0.606l-1.273-0.865c-0.664-0.454-1.519-0.496-2.225-0.119
		c-0.707,0.377-1.145,1.107-1.145,1.912v3.201c-0.704-0.243-1.426-0.44-2.209-0.44c-3.04,0-5.545,1.99-6.463,4.735H36.45
		c-0.021,0-0.045-0.023-0.066-0.023c-0.728-0.032-1.463-0.026-2.181,0.013c-3.657-0.271-7.096-1.74-9.846-4.261
		c-3.251-2.977-5.152-7.037-5.345-11.433c-0.152-3.396,1.026-6.642,3.32-9.147c2.296-2.505,5.434-3.971,8.835-4.131
		c4.061-0.15,7.549,2.101,9.189,5.46c-2.041,0.259-3.594,1.996-3.494,4.093c0.098,2.225,1.973,3.937,4.188,3.85
		c1.484-0.063,2.7-0.965,3.335-2.196c0.789-0.341,1.318-1.152,1.276-2.065c-0.345-7.76-6.815-13.84-14.689-13.429
		c-4.556,0.185-8.759,2.144-11.831,5.513c-1.139,1.237-1.999,2.663-2.71,4.143c-0.076-0.093-0.129-0.19-0.211-0.277
		c-1.782-1.917-4.2-3.034-6.826-3.148c-4.596-0.211-8.435,3.375-8.617,7.95c-0.045,1.052,0.701,1.928,1.701,2.149
		c0.404,0.298,0.875,0.52,1.414,0.541c1.437,0.053,2.647-1.062,2.71-2.51c0.029-0.773-0.29-1.464-0.793-1.951
		c0.756-1.118,2.02-1.878,3.409-1.856c1.469,0.053,2.824,0.686,3.823,1.759c0.999,1.075,1.511,2.479,1.453,3.944
		c-0.013,0.337,0.079,0.675,0.221,0.98c0,0.185-0.039,0.356-0.029,0.541c0.243,5.556,2.642,10.687,6.745,14.438
		c0.433,0.391,0.902,0.735,1.355,1.076H2.16c-1.194,0-2.16,0.978-2.16,2.159c0,1.194,0.965,2.159,2.16,2.159h20.638
		c-0.454,0.341-0.923,0.688-1.355,1.079c-4.103,3.738-6.494,8.875-6.739,14.428c-0.005,0.18,0.034,0.338,0.029,0.538
		c-0.142,0.306-0.232,0.622-0.221,0.985c0.058,1.467-0.454,2.869-1.453,3.95c-0.999,1.076-2.36,1.709-3.823,1.762
		c-1.442,0-2.684-0.749-3.42-1.846c0.514-0.517,0.839-1.208,0.807-1.973c-0.065-1.435-1.276-2.573-2.713-2.499
		c-0.538,0.01-1.002,0.221-1.403,0.511c-1.01,0.222-1.761,1.097-1.716,2.157c0.182,4.461,3.86,7.968,8.276,7.968
		c0.113,0,0.227-0.005,0.34-0.011c2.829-0.11,5.316-1.439,7.032-3.433c0.712,1.472,1.577,2.9,2.716,4.15
		c3.072,3.359,7.275,5.321,11.831,5.516c0.206,0.011,0.412,0.021,0.617,0.021c7.478,0,13.732-5.928,14.067-13.463
		c0.042-0.918-0.499-1.709-1.287-2.062c-0.641-1.239-1.846-2.141-3.33-2.188c-2.215-0.1-4.095,1.625-4.188,3.84
		c-0.1,2.093,1.442,3.828,3.473,4.097c-1.661,3.344-5.178,5.569-9.162,5.469c-3.401-0.147-6.539-1.63-8.836-4.134
		c-2.294-2.506-3.478-5.748-3.319-9.155c0.195-4.393,2.088-8.448,5.339-11.422c2.75-2.521,6.188-3.992,9.846-4.261
		c0.723,0.037,1.453,0.047,2.181,0.01c0.021,0,0.037-0.023,0.066-0.023h2.133c0.923,2.734,3.422,4.728,6.457,4.728
		c0.783,0,1.506-0.2,2.209-0.442v3.211c0,0.797,0.443,1.535,1.145,1.914c0.319,0.153,0.665,0.254,1.015,0.254
		c0.427,0,0.846-0.127,1.21-0.375l1.279-0.865c-0.059,0.195-0.124,0.391-0.124,0.607c0,13.136,10.691,23.825,23.836,23.825
		c6.523,0,12.273-3.265,15.815-8.2h27.511c0.053,0,0.111-0.026,0.158-0.032c3.533,4.963,9.313,8.216,15.853,8.216
		c13.146,0,23.836-10.688,23.836-23.836c0-0.205-0.063-0.4-0.111-0.596l1.271,0.865c0.358,0.248,0.785,0.363,1.207,0.363
		c0.343,0,0.696-0.089,1.018-0.253c0.707-0.363,1.14-1.107,1.14-1.914v-3.195c0.706,0.231,1.429,0.442,2.215,0.442
		c3.037,0,5.537-1.998,6.454-4.738h2.131c0.026,0,0.048,0.01,0.068,0.01c0.744,0.05,1.461,0.04,2.178-0.01
		c3.665,0.277,7.099,1.753,9.852,4.263c3.253,2.979,5.146,7.04,5.336,11.443c0.158,3.396-1.022,6.635-3.312,9.139
		c-2.299,2.506-5.442,3.966-8.838,4.13c-4.04,0.11-7.541-2.12-9.187-5.458c2.035-0.264,3.586-2.01,3.491-4.093
		c-0.105-2.226-1.973-3.934-4.188-3.85c-1.487,0.063-2.7,0.966-3.333,2.194c-0.791,0.343-1.318,1.154-1.275,2.066
		c0.332,7.536,6.586,13.447,14.059,13.447c0.211,0,0.411,0,0.622-0.01c4.557-0.201,8.754-2.152,11.823-5.517
		c1.139-1.233,2.004-2.663,2.711-4.149c0.084,0.1,0.132,0.189,0.211,0.284c1.782,1.92,4.202,3.032,6.834,3.148
		c0.116,0.005,0.222,0.011,0.338,0.011c4.403,0,8.089-3.491,8.273-7.958C209.831,125.318,209.086,124.442,208.08,124.222z
		 M75.632,135.786c-10.763,0-19.514-8.744-19.514-19.502c0-1.112-0.87-2.004-1.962-2.125l7.57-5.12
		c1.432-0.981,2.252-2.395,2.252-3.934s-0.815-2.958-2.252-3.937l-7.565-5.113c1.092-0.113,1.957-1.015,1.957-2.133
		c0-10.758,8.751-19.512,19.514-19.512c8.369,0,15.179,6.821,15.179,15.185c0,4.791-2.895,8.889-7.014,10.703
		c-0.061-2.542-2.117-4.578-4.661-4.578c-2.587,0-4.67,2.089-4.67,4.67c0,1.967,1.218,3.633,2.938,4.327
		c0.103,0.134,0.211,0.264,0.34,0.371c-0.134,0.114-0.237,0.237-0.34,0.372c-1.719,0.686-2.938,2.36-2.938,4.337
		c0,2.579,2.088,4.673,4.67,4.673c2.555,0,4.611-2.057,4.667-4.599c4.118,1.824,7.014,5.938,7.014,10.711
		C90.817,128.973,84,135.786,75.632,135.786z M93.78,127.597c0.844-2.168,1.35-4.52,1.35-6.993c0-7.509-5.2-13.776-12.171-15.509
		c6.971-1.74,12.171-7.997,12.171-15.51c0-1.948-0.377-3.807-0.912-5.59h22.167c-0.538,1.788-0.918,3.642-0.918,5.601
		c0,7.512,5.199,13.777,12.171,15.509c-6.972,1.74-12.171,8-12.171,15.509c0,2.468,0.517,4.814,1.35,6.982H93.78z M154.491,116.279
		c0,10.758-8.754,19.512-19.522,19.512c-8.363,0-15.177-6.823-15.177-15.188c0-4.788,2.896-8.886,7.014-10.7
		c0.063,2.542,2.12,4.578,4.656,4.578c2.59,0,4.673-2.089,4.673-4.673c0-1.967-1.219-3.633-2.933-4.326
		c-0.11-0.135-0.211-0.264-0.343-0.372c0.132-0.113,0.243-0.237,0.343-0.372c1.714-0.686,2.933-2.359,2.933-4.337
		c0-2.576-2.094-4.67-4.673-4.67c-2.552,0-4.614,2.057-4.656,4.596c-4.129-1.822-7.014-5.935-7.014-10.71
		c0-8.369,6.803-15.185,15.177-15.185c10.758,0,19.512,8.754,19.512,19.501c0,1.128,0.876,2.014,1.957,2.133l-7.567,5.123
		c-1.43,0.979-2.247,2.392-2.247,3.932c0,1.54,0.807,2.958,2.247,3.938l7.567,5.115
		C155.356,114.265,154.491,115.161,154.491,116.279z"/>
</g>
<g>
</g>
<g>
</g>
<g>
</g>
<g>
</g>
<g>
</g>
<g>
</g>
<g>
</g>
<g>
</g>
<g>
</g>
<g>
</g>
<g>
</g>
<g>
</g>
<g>
</g>
<g>
</g>
<g>
</g>
</svg>
