<?xml version="1.0" encoding="iso-8859-1"?>
<!-- Generator: Adobe Illustrator 16.0.0, SVG Export Plug-In . SVG Version: 6.00 Build 0)  -->
<!DOCTYPE svg PUBLIC "-//W3C//DTD SVG 1.1//EN" "http://www.w3.org/Graphics/SVG/1.1/DTD/svg11.dtd">
<svg version="1.1" id="Capa_1" xmlns="http://www.w3.org/2000/svg" xmlns:xlink="http://www.w3.org/1999/xlink" x="0px" y="0px"
	 width="193.767px" height="193.767px" viewBox="0 0 193.767 193.767" style="enable-background:new 0 0 193.767 193.767;"
	 xml:space="preserve">
<g>
	<path d="M189.951,92.56l-11.063-7.515c-0.664-0.443-1.514-0.509-2.226-0.113c-0.706,0.367-1.149,1.107-1.149,1.912v3.206
		c-0.706-0.242-1.435-0.443-2.226-0.443c-3.037,0-5.526,1.994-6.443,4.725h-8.665V63.395c0-1.192-0.976-2.149-2.156-2.149
		c-1.192,0-2.162,0.974-2.162,2.149c0,12.036-9.788,21.811-21.812,21.811c-9.376,0-17.012-7.636-17.012-16.999
		c0-7.29,5.917-13.181,13.173-13.181c5.579,0,10.114,4.546,10.114,10.114c0,2.458-1.191,4.628-2.995,6.03
		c-0.231-2.51-2.283-4.49-4.852-4.49c-2.731,0-4.936,2.202-4.936,4.934c0,2.193,1.466,3.986,3.438,4.617
		c0.4,0.53,0.991,0.875,1.688,0.875c6.602,0,11.98-5.379,11.98-11.981c0-7.966-6.476-14.441-14.428-14.452
		c-8.438,0-15.482,5.999-17.139,13.954h-8.585v-3.892v-6.858c0.011-0.066,0.021-0.137,0.031-0.2c0.095,0,0.132,0,0.243,0
		c3.639,0,12.725-0.633,18.51-6.497c7.203-7.317,6.19-19.606,6.159-20.137l-0.169-1.814l-1.824-0.134c0,0-12.726-0.974-20.039,6.441
		c-1.045,1.041-1.878,2.235-2.59,3.451c0.938-9.548,8.453-17.097,17.993-18.101c0.786,1.181,2.078,2.004,3.607,2.004
		c2.441,0,4.424-1.983,4.424-4.43c0-2.444-1.982-4.438-4.424-4.438c-1.783,0-3.302,1.062-3.998,2.586
		c-7.436,0.772-13.932,4.715-17.903,10.6V8.213c1.329-0.783,2.268-2.138,2.268-3.797c0-2.446-1.978-4.416-4.43-4.416
		s-4.435,1.97-4.435,4.416c0,1.659,0.941,3.035,2.275,3.797v15.006c-3.981-5.896-10.483-9.838-17.914-10.61
		c-0.701-1.519-2.212-2.586-3.994-2.586c-2.452,0-4.435,1.994-4.435,4.438c0,2.447,1.983,4.43,4.435,4.43
		c1.526,0,2.813-0.823,3.607-2.004c9.532,1.004,17.046,8.543,17.993,18.09c-0.725-1.215-1.556-2.383-2.592-3.44
		c-7.312-7.415-20.044-6.441-20.044-6.441l-1.828,0.134l-0.161,1.814c-0.048,0.53-1.058,12.814,6.157,20.137
		c5.777,5.854,14.866,6.486,18.504,6.486c0.103,0,0.14,0,0.232,0c0.01,0.087,0.021,0.134,0.044,0.222v6.847v3.892H82.708
		c-1.647-7.955-8.698-13.943-17.133-13.943c-7.955,0-14.426,6.476-14.426,14.431c0,6.603,5.374,11.981,11.979,11.981
		c0.609,0,1.155-0.264,1.551-0.664c2.051-0.599,3.586-2.424,3.586-4.67c0-2.724-2.215-4.936-4.941-4.936
		c-2.518,0-4.522,1.912-4.823,4.345c-1.825-1.402-3.03-3.562-3.03-6.041c0-5.58,4.535-10.104,10.109-10.104
		c7.267,0,13.181,5.906,13.181,13.165c0,9.374-7.631,17.01-17.009,17.01c-12.026,0-21.812-9.785-21.812-21.811
		c0-1.192-0.967-2.16-2.159-2.16c-1.194,0-2.162,0.983-2.162,2.16v30.942h-8.667C26.04,91.6,23.54,89.596,20.5,89.596
		c-0.788,0-1.511,0.2-2.22,0.442v-3.195c0-0.799-0.443-1.54-1.145-1.912c-0.707-0.379-1.566-0.335-2.226,0.113L3.841,92.56
		c-1.453,0.97-2.278,2.383-2.278,3.923s0.82,2.975,2.262,3.935l11.074,7.509c0.361,0.253,0.789,0.369,1.21,0.369
		c0.345,0,0.69-0.084,1.015-0.253c0.707-0.369,1.145-1.107,1.145-1.909v-3.217c0.701,0.243,1.432,0.454,2.22,0.454
		c3.04,0,5.535-1.994,6.452-4.726h8.667v30.939c0,1.191,0.968,2.146,2.16,2.146c1.194,0,2.162-0.981,2.162-2.146
		c0-12.039,9.785-21.812,21.811-21.812c9.379,0,17.009,7.61,17.009,16.997c0,7.277-5.914,13.173-13.175,13.173
		c-5.574-0.011-10.109-4.546-10.109-10.114c0-2.468,1.187-4.62,2.995-6.022c0.232,2.51,2.281,4.493,4.852,4.493
		c2.727,0,4.938-2.204,4.938-4.937c0-2.204-1.463-3.997-3.443-4.641c-0.396-0.517-0.989-0.849-1.685-0.849
		c-6.605,0-11.979,5.353-11.979,11.981c0,7.947,6.471,14.423,14.425,14.443c8.435,0,15.486-6.001,17.134-13.953h15.488v4.688v6.861
		c-0.019,0.074-0.034,0.147-0.045,0.222c-3.336-0.032-12.78,0.433-18.742,6.476c-7.211,7.314-6.201,19.606-6.156,20.134l0.166,1.814
		l1.822,0.137c0,0,0.567,0.053,1.537,0.053c3.641,0,12.728-0.633,18.507-6.497c1.041-1.055,1.872-2.235,2.597-3.448
		c-0.941,9.545-8.456,17.097-17.993,18.099c-0.793-1.182-2.081-2.004-3.607-2.004c-2.452,0-4.435,1.982-4.435,4.43
		c0,2.446,1.983,4.439,4.435,4.439c1.782,0,3.293-1.064,3.995-2.589c7.43-0.775,13.927-4.715,17.906-10.6v14.992
		c-1.331,0.786-2.272,2.142-2.272,3.797c0,2.447,1.982,4.419,4.435,4.419s4.436-1.972,4.436-4.419c0-1.655-0.939-3.032-2.278-3.797
		v-15.003c3.976,5.896,10.483,9.835,17.908,10.61c0.707,1.503,2.215,2.589,3.997,2.589c2.447,0,4.43-1.993,4.43-4.439
		c0-2.447-1.982-4.43-4.43-4.43c-1.529,0-2.815,0.822-3.606,2.004c-9.534-1.002-17.044-8.543-17.993-18.088
		c0.728,1.213,1.551,2.383,2.595,3.438c5.774,5.864,14.86,6.497,18.499,6.497c0.971,0,1.54-0.053,1.54-0.053l1.824-0.137
		l0.164-1.814c0.047-0.527,1.055-12.814-6.16-20.134c-5.953-6.033-15.403-6.508-18.736-6.476c-0.011-0.085-0.031-0.147-0.053-0.232
		v-6.851v-4.688h8.596c1.65,7.952,8.701,13.943,17.139,13.943c7.958,0,14.423-6.466,14.423-14.434
		c0-6.618-5.368-11.981-11.976-11.981c-0.606,0-1.16,0.253-1.551,0.664c-2.057,0.597-3.58,2.41-3.58,4.667
		c0,2.722,2.209,4.937,4.931,4.937c2.525,0,4.529-1.915,4.83-4.356c1.824,1.403,3.027,3.586,3.027,6.064
		c0,5.559-4.535,10.104-10.104,10.104c-7.267,0-13.184-5.917-13.184-13.173c0-9.387,7.636-17.008,17.013-17.008
		c12.023,0,21.811,9.783,21.811,21.812c0,1.191,0.971,2.157,2.162,2.157c1.182,0,2.157-0.971,2.157-2.157V98.645h8.664
		c0.907,2.742,3.406,4.746,6.444,4.746c0.791,0,1.519-0.211,2.215-0.464v3.217c0,0.785,0.442,1.529,1.149,1.909
		c0.316,0.163,0.664,0.253,1.013,0.253c0.432,0,0.849-0.116,1.218-0.369l11.074-7.499c1.439-0.97,2.257-2.394,2.257-3.934
		C192.219,94.979,191.396,93.54,189.951,92.56z M108.472,34.57c4.303-4.369,11.264-5.102,14.718-5.189
		c-0.036,3.375-0.664,10.389-4.978,14.773c-4.309,4.369-11.27,5.115-14.719,5.202C103.525,45.981,104.158,38.955,108.472,34.57z
		 M82.466,44.154c-4.298-4.38-4.941-11.398-4.973-14.773c3.443,0.087,10.399,0.83,14.702,5.189
		c4.298,4.369,4.936,11.398,4.973,14.787C93.719,49.274,86.764,48.523,82.466,44.154z M92.185,159.216
		c-4.303,4.366-11.259,5.099-14.71,5.188c0.034-3.375,0.664-10.389,4.98-14.776c4.303-4.366,11.259-5.115,14.708-5.199
		C97.137,147.804,96.512,154.822,92.185,159.216z M118.19,149.628c4.304,4.377,4.946,11.401,4.979,14.776
		c-3.449-0.09-10.399-0.833-14.702-5.188c-4.304-4.372-4.937-11.401-4.979-14.787C106.938,144.508,113.888,145.262,118.19,149.628z
		 M153.85,77.759v16.556h-1.292c-0.343-0.564-0.786-1.061-1.397-1.482l-8.363-5.677C147.3,85.097,151.149,81.852,153.85,77.759z
		 M39.914,77.759c2.711,4.103,6.561,7.348,11.074,9.397l-8.379,5.688c-0.606,0.411-1.061,0.929-1.411,1.481h-1.284V77.759z
		 M39.914,115.214V98.666h1.3c0.345,0.563,0.789,1.055,1.387,1.477l8.382,5.674C46.475,107.873,42.625,111.122,39.914,115.214z
		 M110.797,124.025H82.972c-0.414-11.396-9.75-20.582-21.249-20.582c-2.12,0-4.174,0.29-6.149,0.775v-5.563h11.588
		c1.192,0,2.16-0.976,2.16-2.162c0-1.191-0.968-2.162-2.16-2.162H55.574v-5.556c1.975,0.475,4.029,0.762,6.149,0.762
		c11.499,0,20.835-9.154,21.249-20.568h27.825c0.412,11.388,9.756,20.568,21.258,20.568c2.12,0,4.171-0.287,6.148-0.762v5.545
		h-11.586c-1.191,0-2.156,0.981-2.156,2.162c0,1.192,0.965,2.162,2.156,2.162h11.586v5.574c-1.967-0.485-4.023-0.775-6.148-0.775
		C120.553,103.465,111.209,112.63,110.797,124.025z M153.85,115.214c-2.711-4.092-6.561-7.341-11.085-9.397l8.396-5.685
		c0.602-0.411,1.055-0.928,1.408-1.477h1.281V115.214L153.85,115.214z"/>
</g>
<g>
</g>
<g>
</g>
<g>
</g>
<g>
</g>
<g>
</g>
<g>
</g>
<g>
</g>
<g>
</g>
<g>
</g>
<g>
</g>
<g>
</g>
<g>
</g>
<g>
</g>
<g>
</g>
<g>
</g>
</svg>
