<?xml version="1.0" encoding="iso-8859-1"?>
<!-- Generator: Adobe Illustrator 16.0.0, SVG Export Plug-In . SVG Version: 6.00 Build 0)  -->
<!DOCTYPE svg PUBLIC "-//W3C//DTD SVG 1.1//EN" "http://www.w3.org/Graphics/SVG/1.1/DTD/svg11.dtd">
<svg version="1.1" id="Capa_1" xmlns="http://www.w3.org/2000/svg" xmlns:xlink="http://www.w3.org/1999/xlink" x="0px" y="0px"
	 width="229.082px" height="229.081px" viewBox="0 0 229.082 229.081" style="enable-background:new 0 0 229.082 229.081;"
	 xml:space="preserve">
<g>
	<g>
		<path d="M182.511,49.801c1.431-2.308,2.125-5.057,1.852-7.846c-0.201-2.101-0.92-4.059-2.132-5.803
			c-1.687-2.451-4.177-4.18-6.99-4.933c0.907-2.743,0.871-5.787-0.231-8.555c-0.791-1.958-2.016-3.636-3.653-4.978
			c-2.125-1.745-4.805-2.728-7.551-2.792c-0.627-2.676-2.082-5.093-4.269-6.866c-1.619-1.315-3.537-2.213-5.584-2.6
			c-2.91-0.53-5.924,0.018-8.445,1.458c-1.291-2.588-3.471-4.701-6.192-5.879c-1.942-0.828-4.001-1.166-6.107-0.941
			c-2.789,0.28-5.341,1.477-7.319,3.368c-2.32-1.465-5.103-2.135-7.843-1.849c-2.076,0.207-4.086,0.938-5.824,2.122
			c-2.451,1.69-4.153,4.189-4.92,6.984c-2.719-0.91-5.837-0.85-8.534,0.234c-1.945,0.773-3.693,2.046-4.996,3.654
			c-1.778,2.165-2.731,4.816-2.798,7.56c-2.683,0.603-5.091,2.077-6.884,4.244c-1.318,1.611-2.208,3.544-2.609,5.608
			c-0.536,2.911,0.04,5.903,1.474,8.431c-2.594,1.288-4.716,3.471-5.879,6.196c-0.832,1.927-1.16,4.04-0.938,6.123
			c0.28,2.776,1.461,5.337,3.361,7.316c-1.446,2.311-2.119,5.062-1.851,7.849c0.207,2.101,0.91,4.052,2.131,5.806
			c1.69,2.451,4.192,4.178,6.991,4.933c-0.911,2.755-0.88,5.791,0.231,8.543c0.768,1.931,2.007,3.66,3.654,4.993
			c2.131,1.738,4.807,2.731,7.55,2.792c0.625,2.676,2.083,5.09,4.253,6.859c1.62,1.333,3.553,2.231,5.599,2.6
			c2.938,0.563,5.919-0.006,8.442-1.453c1.304,2.594,3.483,4.701,6.181,5.861c1.541,0.673,3.203,1.017,4.877,1.017
			c0.402,0,0.835-0.019,1.23-0.061c1.973-0.201,3.77-0.993,5.371-2.04c1.425,7.331,5.37,20.919,8.561,29.358
			c1.632,4.324,3.544,8.695,5.469,13.11c0.341,0.761,0.67,1.517,0.998,2.283c-6.345-5.188-13.81-7.417-21.933-6.339
			c1.668-2.076,3.166-4.646,3.921-7.715c1.4-5.675-0.024-11.643-4.231-17.756c-4.701-6.844-10.61-10.026-18.6-10.026
			c-6.54,0-14.745,2.077-27.471,6.948c-10.388,3.955-19.781,4.49-34.894,2.354c-0.073-0.006-0.131,0.03-0.192,0.024
			c-0.319-0.019-0.624,0.019-0.91,0.122c-0.113,0.03-0.183,0.061-0.308,0.109c-0.341,0.158-0.648,0.384-0.91,0.706
			c-0.012,0.007-0.024,0.013-0.024,0.024v0.006c-0.012,0-0.012,0-0.012,0c-0.244,0.342-0.375,0.713-0.423,1.108
			c-0.012,0.116-0.012,0.207-0.012,0.323c0,0.311,0.055,0.603,0.137,0.9c0.03,0.067,0.012,0.129,0.042,0.201
			c1.023,2.198,25.209,53.688,57.141,53.688c6.068,0,12.035-1.882,17.734-5.603c2.917-1.887,6.188-6.746,6.583-12.038
			c0.177-2.673-0.408-5.146-1.687-7.355c13.354-4.067,24.776,1.741,32.369,16.38c4.165,12.879,5.396,26.067-2.728,39.543
			c-4.92,8.166-12.604,13.615-21.671,15.363c-10.145,1.941-21.154-0.859-30.215-7.703c-1.117-0.834-2.664-0.615-3.504,0.487
			c-0.837,1.102-0.618,2.667,0.481,3.495c8.035,6.089,17.507,9.322,26.789,9.322c2.484,0,4.945-0.231,7.387-0.7
			c10.461-2.01,19.345-8.287,25.002-17.677c8.701-14.432,7.721-28.559,3.721-41.863c0.061-0.469,0.024-0.938-0.195-1.4
			c-0.146-0.316-0.341-0.566-0.499-0.877c-2.07-6.326-4.762-12.458-7.344-18.34c-0.219-0.518-0.438-1.023-0.67-1.541
			c0.024-0.262,0.024-0.529-0.061-0.798c-4.896-16.721-0.316-29.279,12.896-35.366c1.249-0.572,1.797-2.058,1.212-3.309
			c-0.591-1.255-2.082-1.791-3.294-1.224c-10.376,4.783-16.246,13.167-17.391,23.878c-2.582-7.733-5.061-16.733-6.175-22.058
			c1.522,0.444,3.105,0.63,4.688,0.463c2.119-0.207,4.068-0.923,5.81-2.128c2.447-1.69,4.165-4.177,4.92-6.975
			c2.728,0.922,5.833,0.858,8.549-0.237c1.961-0.78,3.702-2.052,5.006-3.66c1.754-2.158,2.728-4.813,2.789-7.55
			c2.679-0.606,5.09-2.077,6.88-4.247c1.315-1.623,2.211-3.553,2.595-5.599c0.523-2.92-0.024-5.913-1.474-8.431
			c2.594-1.297,4.719-3.479,5.894-6.211c0.816-1.927,1.146-4.034,0.926-6.116C185.598,54.319,184.405,51.771,182.511,49.801z
			 M99.37,171.453c-0.143,0.183-0.231,0.39-0.341,0.609c-3.008-0.177-5.982-0.896-8.856-2.04l17.278-15.838
			c0.731,0.049,1.486,0.14,2.195,0.14c1.559,0,3.032-0.151,4.46-0.396L99.37,171.453z M76.612,161.339l17.646-9.779
			c2.301,0.725,4.551,1.297,6.759,1.748l-15.665,14.364C82.323,165.931,79.385,163.781,76.612,161.339z M96.8,147.151l-5.684-27.925
			c2.974-0.983,5.586-1.729,7.961-2.305l5.045,31.953C101.784,148.503,99.346,147.925,96.8,147.151z M122.856,123.501
			c3.349,4.878,4.53,9.487,3.501,13.707c-0.883,3.556-3.166,6.314-5.212,8.184l-4.074-27.52
			C119.214,119.159,121.102,120.962,122.856,123.501z M111.78,115.993c0,0.024-0.012,0.052-0.012,0.076l4.725,31.959
			c-2.095,0.907-4.533,1.321-7.246,1.297l-5.261-33.356c1.571-0.219,3.03-0.338,4.381-0.338
			C109.603,115.652,110.681,115.82,111.78,115.993z M82.686,122.271c1.279-0.493,2.494-0.938,3.678-1.376l4.969,24.387
			c-2.375-0.901-4.789-1.912-7.194-3.002l-4.408-18.98C80.701,122.978,81.687,122.648,82.686,122.271z M59.644,141.556l9.405-0.914
			c0.155-0.012,0.305-0.104,0.448-0.14c2.07,1.151,4.217,2.266,6.378,3.367l-11.834,3.751
			C62.494,145.581,61.011,143.547,59.644,141.556z M52.617,130.272c2.719,1.796,5.967,3.86,9.584,6.028l-5.636,0.548
			C55.074,134.486,53.753,132.264,52.617,130.272z M70.788,135.503l-2.107-9.791c2.119-0.25,4.189-0.585,6.223-1.06l3.458,14.876
			C75.796,138.237,73.256,136.892,70.788,135.503z M63.672,126.107l1.291,6.04c-3.578-2.137-6.902-4.238-9.877-6.205
			C58.125,126.144,60.975,126.211,63.672,126.107z M67.39,151.798l15.113-4.786c1.827,0.815,3.653,1.583,5.508,2.308l-14.885,8.227
			c-0.112,0.066-0.167,0.164-0.28,0.25C70.931,155.877,69.116,153.868,67.39,151.798z M115.545,167.397
			c-3.181,2.077-6.43,3.404-9.709,4.141l13.438-16.002c0.476,1.127,0.652,2.345,0.598,3.66
			C119.604,162.88,117.184,166.326,115.545,167.397z M180.349,61.267c-1.022,2.381-3.275,4.077-5.857,4.415l-5.48,0.719l4.153,3.632
			c2.009,1.748,2.923,4.348,2.46,6.936c-0.231,1.221-0.768,2.375-1.547,3.34c-1.425,1.717-3.495,2.707-5.699,2.722l-2.983,0.019
			l0.56,2.941c0.414,2.183-0.14,4.408-1.547,6.122c-0.779,0.975-1.79,1.69-2.971,2.184c-2.424,0.949-5.213,0.566-7.271-1.023
			l-4.396-3.386l0.377,5.538c0.183,2.637-1.011,5.112-3.19,6.616c-1.022,0.715-2.192,1.142-3.446,1.267
			c-2.253,0.21-4.372-0.545-5.955-2.104l-2.144-2.107l-1.692,2.494c-1.23,1.833-3.203,3.014-5.407,3.236
			c-1.267,0.125-2.467-0.067-3.642-0.572c-2.387-1.023-4.062-3.261-4.421-5.849l-0.706-5.514l-3.629,4.199
			c-1.699,1.963-4.284,2.929-6.936,2.429c-1.208-0.216-2.363-0.752-3.337-1.553c-1.708-1.4-2.709-3.471-2.725-5.69l-0.024-3.005
			l-2.954,0.573c-2.17,0.423-4.402-0.138-6.104-1.535c-0.968-0.804-1.699-1.808-2.183-2.98c-0.974-2.451-0.606-5.176,1.017-7.276
			l2.85-4.384l-5.544,0.387c-2.433,0-4.707-1.19-6.086-3.185c-0.719-1.047-1.154-2.213-1.267-3.468
			c-0.216-2.208,0.548-4.375,2.095-5.943l2.141-2.144l-2.494-1.689c-1.842-1.236-3.014-3.206-3.249-5.407
			c-0.131-1.258,0.067-2.487,0.566-3.647c1.035-2.387,3.267-4.083,5.849-4.415l5.468-0.709l-4.153-3.636
			c-1.964-1.726-2.898-4.384-2.445-6.926c0.231-1.255,0.755-2.384,1.559-3.355c1.41-1.717,3.492-2.707,5.699-2.725l2.987-0.021
			l-0.572-2.947c-0.411-2.177,0.137-4.402,1.546-6.116c0.78-0.962,1.796-1.708,2.975-2.171c2.417-0.965,5.2-0.566,7.255,1.017
			l4.384,3.392l-0.375-5.538c-0.174-2.637,1.011-5.118,3.176-6.622c1.047-0.709,2.207-1.139,3.479-1.263
			c2.223-0.231,4.354,0.542,5.949,2.101l2.161,2.106l1.675-2.5c1.224-1.833,3.203-3.011,5.389-3.236
			c1.279-0.113,2.479,0.073,3.654,0.56c2.405,1.035,4.092,3.279,4.427,5.854l0.688,5.52l3.653-4.199
			c1.688-1.957,4.434-2.892,6.899-2.436c1.23,0.229,2.387,0.773,3.361,1.559c1.705,1.4,2.722,3.477,2.734,5.7l0.036,2.999
			l2.941-0.576c2.131-0.411,4.42,0.149,6.107,1.529c0.968,0.81,1.698,1.814,2.198,2.98c0.968,2.463,0.597,5.182-1.023,7.277
			l-2.862,4.378l5.542-0.387c2.423,0,4.7,1.196,6.089,3.197c0.719,1.042,1.157,2.208,1.267,3.456
			c0.219,2.213-0.548,4.391-2.095,5.955l-2.119,2.144l2.496,1.684c1.827,1.23,3.002,3.2,3.228,5.389
			C181.043,58.858,180.849,60.101,180.349,61.267z"/>
		<path d="M131.107,24.485c-16.685,0-30.272,13.573-30.272,30.26c0,16.678,13.588,30.254,30.272,30.254
			c16.678,0,30.269-13.576,30.269-30.254C161.375,38.052,147.797,24.485,131.107,24.485z M153.252,42.811l-8.396,8.385
			l-10.412-10.406l8.329-8.324C147.224,34.791,150.847,38.396,153.252,42.811z M156.382,54.746c0,2.405-0.438,4.688-1.071,6.896
			l-6.917-6.914l6.904-6.911C155.932,50.032,156.382,52.319,156.382,54.746z M141.331,54.728l-10.413,10.406l-10.4-10.406
			l10.4-10.407L141.331,54.728z M137.725,30.465l-6.808,6.796l-6.697-6.708c2.204-0.636,4.481-1.081,6.887-1.081
			C133.409,29.466,135.594,29.871,137.725,30.465z M119.203,32.584l8.189,8.193l-10.425,10.406l-8.138-8.142
			C111.18,38.609,114.779,34.986,119.203,32.584z M105.836,54.746c0-2.314,0.411-4.509,0.999-6.634l6.615,6.616l-6.622,6.619
			C106.248,59.221,105.836,57.047,105.836,54.746z M108.823,66.406l8.163-8.156l10.412,10.406l-8.208,8.217
			C114.754,74.486,111.167,70.857,108.823,66.406z M124.183,78.932l6.734-6.741l6.832,6.829c-2.131,0.579-4.323,0.996-6.637,0.996
			C128.689,80.003,126.394,79.562,124.183,78.932z M142.797,77.004l-8.354-8.348l10.412-10.406l8.409,8.396
			C150.878,71.077,147.249,74.66,142.797,77.004z"/>
	</g>
</g>
<g>
</g>
<g>
</g>
<g>
</g>
<g>
</g>
<g>
</g>
<g>
</g>
<g>
</g>
<g>
</g>
<g>
</g>
<g>
</g>
<g>
</g>
<g>
</g>
<g>
</g>
<g>
</g>
<g>
</g>
</svg>
