<?xml version="1.0" encoding="iso-8859-1"?>
<!-- Generator: Adobe Illustrator 16.0.0, SVG Export Plug-In . SVG Version: 6.00 Build 0)  -->
<!DOCTYPE svg PUBLIC "-//W3C//DTD SVG 1.1//EN" "http://www.w3.org/Graphics/SVG/1.1/DTD/svg11.dtd">
<svg version="1.1" id="Capa_1" xmlns="http://www.w3.org/2000/svg" xmlns:xlink="http://www.w3.org/1999/xlink" x="0px" y="0px"
	 width="110.685px" height="110.685px" viewBox="0 0 110.685 110.685" style="enable-background:new 0 0 110.685 110.685;"
	 xml:space="preserve">
<g>
	<path d="M85.279,70.675c-1.234-1.128-2.647-1.993-4.124-2.721c0.084-0.074,0.169-0.116,0.264-0.2
		c1.909-1.783,3.026-4.198,3.143-6.824c0.095-2.215-0.686-4.332-2.193-5.962c-1.498-1.627-3.544-2.57-5.748-2.657
		c-1.013,0.037-1.909,0.725-2.136,1.7c-0.301,0.406-0.517,0.87-0.543,1.411c-0.063,1.447,1.055,2.655,2.505,2.716
		c0.78,0.031,1.46-0.298,1.967-0.81c0.29,0.171,0.564,0.329,0.791,0.572c0.717,0.783,1.086,1.785,1.044,2.845
		c-0.063,1.461-0.686,2.821-1.762,3.817c-1.086,1.008-2.426,1.54-3.955,1.461c-0.326,0.011-0.643,0.105-0.938,0.222
		c-0.189,0.011-0.38-0.031-0.569-0.021c-5.542,0.242-10.684,2.631-14.438,6.739c-0.38,0.427-0.723,0.896-1.068,1.35V55.397
		c14.305-1.123,25.653-12.991,25.653-27.588C83.169,12.475,70.681,0,55.352,0c-15.33,0-27.81,12.48-27.81,27.81
		c0,14.597,11.351,26.465,25.649,27.588v18.916c-0.34-0.453-0.686-0.923-1.07-1.35c-3.747-4.108-8.888-6.497-14.434-6.739
		c-0.185-0.011-0.366,0.031-0.562,0.031c-0.309-0.147-0.627-0.253-0.949-0.232c-1.577,0.105-2.869-0.453-3.955-1.461
		c-1.078-0.996-1.695-2.356-1.764-3.817c-0.045-1.05,0.335-2.067,1.052-2.845c0.227-0.251,0.52-0.396,0.789-0.572
		c0.503,0.517,1.194,0.841,1.961,0.81c1.45-0.061,2.582-1.269,2.505-2.716c-0.021-0.541-0.237-1-0.53-1.4
		c-0.211-1.01-1.046-1.764-2.149-1.711c-2.204,0.092-4.25,1.03-5.75,2.657c-1.5,1.63-2.284,3.742-2.194,5.962
		c0.113,2.615,1.236,5.041,3.148,6.824c0.098,0.084,0.189,0.137,0.282,0.211c-1.469,0.717-2.89,1.571-4.148,2.71
		c-3.359,3.08-5.318,7.288-5.513,11.834c-0.335,7.752,5.703,14.322,13.439,14.681c0.999,0.116,1.745-0.464,2.08-1.275
		c1.237-0.644,2.128-1.856,2.175-3.333c0.108-2.215-1.624-4.093-3.844-4.183c-2.083-0.1-3.829,1.461-4.098,3.486
		c-3.359-1.672-5.621-5.199-5.45-9.176c0.135-3.396,1.617-6.528,4.122-8.828c2.505-2.294,5.674-3.49,9.157-3.322
		c4.385,0.19,8.445,2.1,11.422,5.337c2.418,2.642,3.854,5.938,4.189,9.424c-2.694,0.944-4.659,3.433-4.659,6.444
		c0,0.785,0.203,1.503,0.448,2.215h-3.203c-0.789,0-1.532,0.427-1.912,1.139c-0.377,0.707-0.334,1.571,0.114,2.221l7.522,11.09
		c0.973,1.439,2.391,2.257,3.931,2.257s2.959-0.817,3.944-2.257l7.499-11.09c0.443-0.66,0.496-1.514,0.105-2.221
		c-0.369-0.712-1.107-1.139-1.909-1.139H61.78c0.243-0.712,0.443-1.439,0.443-2.215c0-3.021-1.962-5.511-4.651-6.444
		c0.338-3.48,1.771-6.782,4.197-9.424c2.975-3.254,7.035-5.146,11.423-5.337c3.417-0.115,6.649,1.018,9.149,3.322
		c2.51,2.3,3.971,5.432,4.129,8.828c0.163,3.977-2.094,7.51-5.458,9.176c-0.264-2.025-2.015-3.575-4.092-3.486
		c-2.226,0.101-3.939,1.968-3.85,4.183c0.062,1.487,0.97,2.7,2.188,3.343c0.337,0.754,1.086,1.266,1.961,1.266
		c0.032,0,0.074,0,0.105,0c7.758-0.348,13.79-6.929,13.447-14.681C90.605,77.952,88.643,73.755,85.279,70.675z M55.346,4.319
		c4.989,0,10.553,9.65,10.553,23.509c0,11.857-4.082,20.582-8.388,22.858V27.718c0-1.192-0.98-2.154-2.159-2.154
		c-1.177,0-2.16,0.968-2.16,2.154v22.968c-4.303-2.281-8.387-11.005-8.387-22.858C44.794,13.97,50.358,4.319,55.346,4.319z
		 M78.834,27.81c0,9.585-5.78,17.832-14.049,21.477c3.312-5.06,5.432-12.683,5.432-21.477c0-8.791-2.12-16.416-5.432-21.481
		C73.044,9.991,78.834,18.226,78.834,27.81z M31.856,27.81c0-9.59,5.779-17.829,14.051-21.481
		c-3.304,5.065-5.432,12.686-5.432,21.481c0,8.799,2.128,16.417,5.432,21.477C37.646,45.647,31.856,37.413,31.856,27.81z"/>
</g>
<g>
</g>
<g>
</g>
<g>
</g>
<g>
</g>
<g>
</g>
<g>
</g>
<g>
</g>
<g>
</g>
<g>
</g>
<g>
</g>
<g>
</g>
<g>
</g>
<g>
</g>
<g>
</g>
<g>
</g>
</svg>
