<?xml version="1.0" encoding="iso-8859-1"?>
<!-- Generator: Adobe Illustrator 16.0.0, SVG Export Plug-In . SVG Version: 6.00 Build 0)  -->
<!DOCTYPE svg PUBLIC "-//W3C//DTD SVG 1.1//EN" "http://www.w3.org/Graphics/SVG/1.1/DTD/svg11.dtd">
<svg version="1.1" id="Capa_1" xmlns="http://www.w3.org/2000/svg" xmlns:xlink="http://www.w3.org/1999/xlink" x="0px" y="0px"
	 width="135.625px" height="135.625px" viewBox="0 0 135.625 135.625" style="enable-background:new 0 0 135.625 135.625;"
	 xml:space="preserve">
<g>
	<path d="M135.042,109.478c-0.654-2.226-2.626-3.892-5.073-3.892c-2.953,0-5.337,2.389-5.337,5.342c0,2.959,2.384,5.348,5.337,5.348
		c0.116,0,0.19-0.053,0.306-0.063c-2.066,4.957-6.955,8.448-12.646,8.448c-9.756,0-17.666-7.921-17.666-17.666
		c0-12.477,10.146-22.623,22.618-22.623c1.191,0,2.156-0.971,2.156-2.157s-0.976-2.156-2.156-2.156c-3.476,0-6.75,0.717-9.793,1.914
		c0.506-1.661,0.849-3.375,0.849-5.157c0-7.958-6.47-14.418-14.428-14.418c-6.607,0-11.981,5.374-11.981,11.971
		c0,0.611,0.264,1.149,0.659,1.551c0.602,2.046,2.415,3.586,4.673,3.586c2.721,0,4.936-2.215,4.936-4.947
		c0-2.51-1.914-4.508-4.351-4.824c1.397-1.825,3.581-3.027,6.054-3.027c5.563,0,10.109,4.535,10.109,10.109
		c0,3.518-1.371,6.84-3.871,9.328c-2.488,2.489-5.784,3.86-9.312,3.86c-9.387,0-17.012-7.636-17.012-17.012
		c0-12.026,9.782-21.812,21.811-21.812c1.197,0,2.151-0.965,2.151-2.159s-0.965-2.159-2.151-2.159H79.776
		c-0.031-0.093-0.021-0.19-0.063-0.277c7.056-4.124,11.854-11.696,11.854-20.442c0-13.102-10.662-23.762-23.754-23.762
		C54.72,2.38,44.06,13.04,44.06,26.142c0,8.952,5.039,16.669,12.371,20.72H34.718c-1.195,0-2.16,0.965-2.16,2.159
		s0.97,2.159,2.16,2.159c12.026,0,21.806,9.785,21.806,21.812c0,9.376-7.631,17.012-17.013,17.012c-3.515,0-6.829-1.371-9.318-3.86
		c-2.492-2.488-3.863-5.801-3.863-9.328c0-5.569,4.538-10.109,10.109-10.109c2.462,0,4.627,1.191,6.033,2.995
		c-2.513,0.232-4.493,2.278-4.493,4.852c0,2.722,2.207,4.937,4.936,4.937c2.196,0,4-1.467,4.638-3.449
		c0.512-0.391,0.857-0.997,0.857-1.683c0-6.607-5.366-11.976-11.976-11.976c-7.955,0-14.428,6.465-14.428,14.423
		c0,1.782,0.34,3.485,0.847,5.146c-3.035-1.196-6.323-1.914-9.785-1.914c-1.192,0-2.154,0.971-2.154,2.162
		c0,1.192,0.968,2.151,2.154,2.151c12.479,0,22.626,10.157,22.626,22.629c0,9.74-7.932,17.66-17.669,17.66
		c-5.664,0-10.534-3.459-12.619-8.363c0.092,0,0.163,0.053,0.261,0.053c2.953,0,5.345-2.399,5.345-5.353
		c0-2.958-2.392-5.348-5.345-5.348c-2.415,0-4.379,1.619-5.049,3.808C0.237,109.82,0,110.354,0,110.938
		c0,9.94,8.084,18.03,18.024,18.03c12.124,0,21.99-9.872,21.99-21.99c0-4.736-1.334-9.118-3.483-12.979
		c0.973,0.164,1.954,0.296,2.964,0.296c11.768,0,21.331-9.577,21.331-21.337c0-9.099-4.672-17.123-11.752-21.811h9.273l5.849,8.622
		c0.403,0.601,0.907,1.07,1.452,1.437v46.662c-2.734,0.907-4.735,3.418-4.735,6.455c0,0.78,0.203,1.508,0.448,2.215h-3.522
		c-0.799,0-1.532,0.443-1.912,1.149c-0.377,0.696-0.33,1.551,0.119,2.215l7.507,11.085c0.978,1.435,2.402,2.257,3.937,2.257
		c1.524,0,2.958-0.822,3.934-2.257l7.515-11.085c0.448-0.664,0.496-1.519,0.111-2.226c-0.369-0.706-1.107-1.149-1.909-1.149h-2.885
		c0.237-0.696,0.443-1.429,0.443-2.204c0-3.048-1.999-5.548-4.73-6.465v-46.28c0.791-0.377,1.529-0.976,2.099-1.809l5.833-8.622
		h8.648c-7.088,4.683-11.76,12.712-11.76,21.816c0,11.76,9.565,21.32,21.325,21.32c1.018,0,2.004-0.121,2.985-0.285
		c-2.146,3.86-3.486,8.248-3.486,12.973c0,12.129,9.861,21.99,21.99,21.99c9.936,0,18.02-8.089,18.02-18.024
		C135.653,110.385,135.416,109.868,135.042,109.478z M69.989,44.765V7.505c3.332,2.209,6.391,9.208,6.391,18.631
		C76.38,35.558,73.332,42.563,69.989,44.765z M65.681,7.511v37.26c-3.333-2.207-6.395-9.208-6.395-18.629
		C59.281,16.718,62.337,9.72,65.681,7.511z M87.275,26.142c0,7.467-4.282,13.893-10.474,17.144
		c2.41-4.292,3.908-10.331,3.908-17.144c0-6.815-1.487-12.854-3.908-17.151C82.993,12.241,87.275,18.667,87.275,26.142z
		 M48.389,26.142c0-7.47,4.282-13.896,10.476-17.151c-2.407,4.292-3.907,10.33-3.907,17.151c0,6.818,1.495,12.852,3.907,17.144
		C52.671,40.029,48.389,33.614,48.389,26.142z"/>
</g>
<g>
</g>
<g>
</g>
<g>
</g>
<g>
</g>
<g>
</g>
<g>
</g>
<g>
</g>
<g>
</g>
<g>
</g>
<g>
</g>
<g>
</g>
<g>
</g>
<g>
</g>
<g>
</g>
<g>
</g>
</svg>
