<?xml version="1.0" encoding="iso-8859-1"?>
<!-- Generator: Adobe Illustrator 16.0.0, SVG Export Plug-In . SVG Version: 6.00 Build 0)  -->
<!DOCTYPE svg PUBLIC "-//W3C//DTD SVG 1.1//EN" "http://www.w3.org/Graphics/SVG/1.1/DTD/svg11.dtd">
<svg version="1.1" id="Capa_1" xmlns="http://www.w3.org/2000/svg" xmlns:xlink="http://www.w3.org/1999/xlink" x="0px" y="0px"
	 width="156.084px" height="156.084px" viewBox="0 0 156.084 156.084" style="enable-background:new 0 0 156.084 156.084;"
	 xml:space="preserve">
<g>
	<path d="M153.781,52.14c-5.99-17.076-24.796-26.125-41.882-20.137c-4.14,1.463-7.594,3.892-10.426,6.868
		c1.461-5.086,1.113-9.801,1.087-10.109c-0.105-1.052-0.949-1.891-1.988-1.959c-0.005-0.013-11.512-0.886-18.13,5.841
		c-0.718,0.73-1.308,1.524-1.875,2.344c1.231-8.044,7.766-14.288,15.96-15.093c0.733,0.947,1.814,1.572,3.091,1.572
		c2.183,0,3.965-1.772,3.965-3.953c0-2.204-1.782-3.963-3.965-3.963c-1.493,0-2.764,0.841-3.438,2.078
		c-6.571,0.601-12.309,4.018-15.989,9.115V11.763c1.076-0.714,1.814-1.87,1.814-3.251c0-2.194-1.772-3.974-3.963-3.974
		c-2.199,0-3.953,1.78-3.953,3.974c0,1.376,0.738,2.537,1.804,3.251v12.981c-3.678-5.081-9.418-8.499-15.989-9.115
		c-0.675-1.237-1.927-2.078-3.436-2.078c-2.186,0-3.968,1.759-3.968,3.963c0,2.181,1.783,3.953,3.968,3.953
		c1.269,0,2.365-0.63,3.09-1.572c8.184,0.789,14.737,7.048,15.95,15.093c-0.557-0.804-1.139-1.613-1.856-2.331
		c-6.637-6.739-18.144-5.866-18.133-5.854c-1.049,0.085-1.906,0.907-1.988,1.954c-0.026,0.313-0.387,5.028,1.081,10.12
		c-2.824-2.988-6.291-5.432-10.438-6.874C27.076,26.03,8.294,35.054,2.301,52.14C-1.274,62.356-0.67,73.354,4.023,83.107
		c4.693,9.762,12.907,17.107,23.111,20.683c12.659,4.414,26.251,3.676,38.309-2.136c1.856-0.896,3.581-1.962,5.287-3.043
		l-4.461,6.598c-0.433,0.638-0.475,1.455-0.129,2.13c-7.075,4.135-11.857,11.707-11.857,20.45c0,13.11,10.665,23.757,23.754,23.757
		c13.092,0,23.744-10.679,23.744-23.757c0-8.912-5.005-16.621-12.282-20.692c0.074-0.211,0.121-0.443,0.121-0.686
		c0-0.675-0.306-1.266-0.785-1.683l-4.578-6.739c2.015,1.35,4.13,2.589,6.354,3.665c6.872,3.307,14.26,4.979,21.68,4.979
		c5.584,0,11.19-0.949,16.616-2.838c10.22-3.575,18.431-10.916,23.124-20.682C156.755,73.359,157.367,62.367,153.781,52.14z
		 M85.521,35.681c3.708-3.76,9.667-4.482,12.794-4.59c-0.053,3.061-0.675,9.081-4.393,12.857c-3.386,3.44-8.554,4.303-11.818,4.514
		c-0.311-0.222-0.58-0.453-0.917-0.619C81.308,44.622,82.046,39.206,85.521,35.681z M75.897,109.174v37.263
		c-3.333-2.215-6.394-9.208-6.394-18.637C69.503,118.382,72.559,111.389,75.897,109.174z M80.216,146.426v-37.241
		c3.322,2.204,6.386,9.208,6.386,18.615C86.602,137.219,83.554,144.211,80.216,146.426z M75.897,74.538v9.472
		c-2.194-2.922-4.164-6.044-5.632-9.472H75.897z M80.216,74.538h5.632c-1.461,3.428-3.438,6.55-5.632,9.472V74.538z M70.6,35.687
		c3.483,3.515,4.206,8.946,4.346,12.16c-0.327,0.161-0.609,0.393-0.913,0.614c-3.272-0.211-8.44-1.073-11.826-4.524
		c-3.71-3.741-4.335-9.774-4.385-12.846C60.939,31.198,66.901,31.921,70.6,35.687z M63.602,97.783
		c-11.021,5.284-23.453,5.985-34.997,1.936c-9.123-3.211-16.466-9.771-20.65-18.494C3.77,72.519,3.208,62.681,6.404,53.558
		c5.229-14.821,21.508-22.678,36.368-17.489c11.654,4.092,17.822,16.907,13.735,28.551c-3.182,9.099-13.165,13.898-22.288,10.702
		c-3.412-1.205-6.16-3.644-7.731-6.897c-1.571-3.259-1.777-6.938-0.577-10.368c0.923-2.613,2.813-4.736,5.308-5.943
		c2.505-1.211,5.334-1.379,7.965-0.438c4.103,1.434,6.273,5.961,4.838,10.048c-0.39,1.129,0.198,2.365,1.326,2.766
		c1.129,0.356,2.36-0.201,2.756-1.329c2.215-6.373-1.14-13.355-7.491-15.57c-3.715-1.294-7.731-1.083-11.264,0.622
		c-3.551,1.696-6.214,4.693-7.533,8.419c-1.577,4.503-1.295,9.342,0.783,13.645c2.07,4.313,5.698,7.538,10.202,9.115
		c11.361,3.957,23.812-2.025,27.788-13.371c2.139-6.106,1.804-12.435-0.309-18.08c3.441,2.843,7.723,4.084,11.135,4.569
		c-0.098,0.454-0.274,0.886-0.274,1.371c0,0.783,0.203,1.498,0.454,2.205H68.38c-0.794,0-1.535,0.443-1.912,1.15
		c-0.366,0.706-0.329,1.561,0.119,2.225l7.264,10.703H67.08c-0.704,0-1.35,0.335-1.761,0.912c-0.401,0.572-0.509,1.303-0.282,1.962
		c2.22,6.339,5.611,12.047,9.975,16.909C71.684,93.111,67.845,95.732,63.602,97.783z M58.616,127.8
		c0-7.467,4.271-13.88,10.465-17.139c-2.402,4.293-3.902,10.325-3.902,17.139c0,6.824,1.484,12.856,3.902,17.149
		C62.888,141.69,58.616,135.277,58.616,127.8z M97.498,127.8c0,7.478-4.282,13.891-10.463,17.149
		c2.399-4.293,3.902-10.325,3.902-17.149c0-6.813-1.487-12.846-3.902-17.139C93.215,113.92,97.498,120.333,97.498,127.8z
		 M148.16,81.246c-4.183,8.723-11.528,15.282-20.651,18.479c-11.549,4.05-23.968,3.364-34.994-1.931
		C88.269,95.748,84.43,93.122,81.086,90c4.366-4.836,7.757-10.565,9.978-16.904c0.227-0.659,0.116-1.392-0.296-1.959
		c-0.396-0.562-1.044-0.915-1.761-0.915h-6.761l7.267-10.708c0.448-0.662,0.496-1.511,0.111-2.223
		c-0.375-0.709-1.107-1.152-1.909-1.152h-3.212c0.248-0.696,0.443-1.429,0.443-2.196c0-0.491-0.169-0.913-0.274-1.376
		c3.438-0.488,7.726-1.703,11.143-4.559c-2.109,5.643-2.437,11.973-0.306,18.085c3.977,11.327,16.422,17.337,27.791,13.36
		c4.504-1.571,8.126-4.812,10.209-9.115c2.067-4.306,2.353-9.154,0.775-13.658c-1.303-3.715-3.966-6.708-7.525-8.419
		c-3.564-1.711-7.551-1.917-11.264-0.62c-6.359,2.225-9.719,9.208-7.499,15.567c0.391,1.129,1.635,1.695,2.764,1.329
		c1.128-0.396,1.708-1.624,1.323-2.753c-1.444-4.116,0.733-8.63,4.841-10.062c2.621-0.934,5.458-0.772,7.963,0.438
		c2.511,1.21,4.383,3.317,5.3,5.946c1.208,3.417,1.002,7.095-0.569,10.367c-1.571,3.262-4.318,5.719-7.73,6.896
		c-9.118,3.208-19.101-1.619-22.291-10.703c-4.087-11.646,2.083-24.45,13.732-28.55c14.823-5.2,31.16,2.657,36.36,17.486
		C152.906,62.697,152.362,72.523,148.16,81.246z"/>
</g>
<g>
</g>
<g>
</g>
<g>
</g>
<g>
</g>
<g>
</g>
<g>
</g>
<g>
</g>
<g>
</g>
<g>
</g>
<g>
</g>
<g>
</g>
<g>
</g>
<g>
</g>
<g>
</g>
<g>
</g>
</svg>
