<?xml version="1.0" encoding="iso-8859-1"?>
<!-- Generator: Adobe Illustrator 16.0.0, SVG Export Plug-In . SVG Version: 6.00 Build 0)  -->
<!DOCTYPE svg PUBLIC "-//W3C//DTD SVG 1.1//EN" "http://www.w3.org/Graphics/SVG/1.1/DTD/svg11.dtd">
<svg version="1.1" id="Capa_1" xmlns="http://www.w3.org/2000/svg" xmlns:xlink="http://www.w3.org/1999/xlink" x="0px" y="0px"
	 width="166.419px" height="166.419px" viewBox="0 0 166.419 166.419" style="enable-background:new 0 0 166.419 166.419;"
	 xml:space="preserve">
<g>
	<g>
		<path d="M163.566,140.5c0.195,0.063,0.391,0.09,0.58,0.09c0.048,0,0.09,0,0.111,0c1.207,0,2.162-0.976,2.162-2.162
			c0-0.517-0.185-0.996-0.496-1.365c-0.77-1.74-3.201-6.107-8.438-6.323c0.644-3.248-0.206-5.821-0.253-5.97
			c-0.248-0.717-0.854-1.25-1.598-1.413c-0.749-0.147-1.514,0.101-2.036,0.648c-2.868,3.101-4.477,3.322-6.032,3.528
			c-0.665,0.09-1.282,0.185-1.878,0.369c-5.99,1.92-6.117,6.201-5.764,8.98c-15.741,2.562-30.812-7.746-33.95-23.472
			c-1.197-6.001,0.1-11.892,3.059-16.733c-0.338,2.137-0.338,4.341,0.105,6.529c1.171,5.848,4.482,10.905,9.334,14.243
			c3,2.057,6.365,3.259,9.835,3.654c0.775,1.54,2.615,4.504,5.869,5.068c0.338,0.058,0.69,0.089,1.028,0.089
			c2.415,0,4.883-1.455,7.515-4.54c1.05-1.255,2.816-3.354,5.516-4.292c0.823-0.291,1.397-1.055,1.44-1.931
			c0.058-0.881-0.438-1.683-1.234-2.062c-1.145-0.538-11.327-5.137-17.018-1.556c-1.233,0.791-2.615,2.262-3.228,4.835
			c-2.567-0.39-5.052-1.291-7.277-2.815c-3.934-2.7-6.612-6.792-7.541-11.533c-0.738-3.676-0.036-7.414,1.968-10.515
			c1.418-2.189,3.38-3.84,5.658-4.889c1.065-0.38,2.136-0.781,3.285-1.013c0.016,0,0.026-0.011,0.042-0.016
			c5.5-0.881,10.8,2.879,11.934,8.559c0.428,2.162,0.021,4.345-1.16,6.159c-1.16,1.793-2.932,3.017-4.993,3.428
			c-1.503,0.295-3.043-0.026-4.356-0.881c-1.365-0.912-2.299-2.33-2.615-3.965c-0.232-1.166-1.351-1.957-2.553-1.698
			c-1.171,0.231-1.919,1.376-1.688,2.547c0.56,2.773,2.142,5.163,4.467,6.718c2.263,1.498,4.957,2.047,7.578,1.514
			c3.228-0.627,5.97-2.521,7.772-5.3c1.788-2.773,2.416-6.08,1.767-9.35c-0.928-4.672-3.934-8.358-7.778-10.415
			c3.866-2.051,6.861-5.771,7.778-10.454c0.649-3.268,0.021-6.587-1.767-9.348c-1.803-2.784-4.562-4.669-7.772-5.308
			c-2.621-0.53-5.315,0.016-7.578,1.524c-2.336,1.553-3.924,3.941-4.467,6.715c-0.231,1.173,0.533,2.307,1.688,2.54
			c1.202,0.227,2.32-0.53,2.553-1.696c0.332-1.643,1.25-3.05,2.615-3.963c1.298-0.87,2.832-1.179,4.356-0.88
			c2.062,0.408,3.833,1.624,4.993,3.417c1.182,1.814,1.588,4.002,1.16,6.162c-1.134,5.685-6.423,9.434-11.934,8.559
			c-0.016,0-0.026-0.011-0.042-0.016c-1.149-0.227-2.22-0.628-3.285-1.016c-2.278-1.047-4.24-2.7-5.658-4.888
			c-2.004-3.098-2.706-6.834-1.968-10.518c0.944-4.735,3.623-8.835,7.541-11.527c2.226-1.529,4.71-2.437,7.277-2.821
			c0.597,2.565,1.988,4.05,3.228,4.833c1.571,0.988,3.491,1.355,5.464,1.355c5.173,0,10.726-2.521,11.569-2.909
			c0.786-0.375,1.281-1.189,1.234-2.064c-0.048-0.875-0.602-1.635-1.445-1.927c-2.689-0.944-4.456-3.04-5.748-4.58
			c-2.763-3.241-5.531-4.638-8.3-4.164c-3.286,0.567-5.152,3.602-5.906,5.125c-3.465,0.394-6.824,1.545-9.793,3.602
			c-4.857,3.338-8.18,8.395-9.34,14.244c-0.438,2.193-0.432,4.398-0.105,6.536c-2.974-4.844-4.255-10.736-3.059-16.735
			C109.133,37.325,124.2,27,139.947,29.576c-0.338,2.776-0.228,7.059,5.764,8.976c0.58,0.195,1.213,0.293,1.877,0.377
			c1.556,0.211,3.164,0.427,6.033,3.528c0.416,0.448,0.991,0.69,1.587,0.69c0.143,0,0.301-0.016,0.448-0.05
			c0.744-0.156,1.351-0.691,1.598-1.413c0.048-0.146,0.896-2.716,0.254-5.967c6.423-0.264,8.632-6.74,8.717-7.021
			c0.248-0.759,0.063-1.592-0.49-2.17c-0.564-0.572-1.371-0.788-2.146-0.582c-1.334,0.377-2.046,0.087-3.549-0.712
			c-0.359-0.201-0.786-0.417-1.234-0.628c1.683-3.138,1.508-6.096,1.498-6.26c-0.069-0.754-0.518-1.429-1.192-1.774
			c-0.675-0.348-1.466-0.309-2.13,0.101c-4.346,2.739-5.517,2.009-6.734,1.854c-0.554-0.071-1.087-0.113-1.914-0.119
			c-6.055,0.309-7.389,4.132-7.815,6.885c-14.745-2.365-29.062,5.244-35.659,18.069c-0.195-0.055-0.38-0.118-0.585-0.118H62.068
			c-0.211,0-0.398,0.063-0.593,0.118c-6.595-12.83-20.888-20.45-35.656-18.069c-0.433-2.758-1.814-6.581-8.171-6.895
			c-0.522,0-1.021,0.058-1.566,0.124c-1.227,0.156-2.392,0.886-6.734-1.854c-0.641-0.408-1.463-0.448-2.139-0.1
			c-0.675,0.337-1.123,1.012-1.181,1.774c-0.01,0.163-0.19,3.122,1.5,6.26c-0.448,0.211-0.857,0.427-1.237,0.625
			c-1.505,0.796-2.212,1.086-3.546,0.714c-0.788-0.211-1.593,0.006-2.138,0.583c-0.562,0.562-0.747,1.397-0.499,2.154
			c0.092,0.282,2.297,6.755,8.707,7.021c-0.633,3.248,0.206,5.819,0.264,5.967c0.248,0.717,0.844,1.258,1.598,1.413
			c0.134,0.034,0.303,0.05,0.448,0.05c0.583,0,1.173-0.243,1.587-0.691c2.858-3.101,4.478-3.322,6.027-3.528
			c0.659-0.092,1.274-0.185,1.88-0.377c5.983-1.917,6.117-6.205,5.756-8.981c15.747-2.57,30.813,7.75,33.951,23.475
			c1.207,5.999-0.093,11.89-3.046,16.733c0.327-2.138,0.333-4.34-0.116-6.529c-1.171-5.848-4.48-10.908-9.334-14.243
			c-2.998-2.052-6.347-3.204-9.809-3.602c-0.744-1.519-2.592-4.559-5.896-5.126c-2.716-0.475-5.54,0.923-8.543,4.451
			c-1.057,1.252-2.824,3.354-5.513,4.292c-0.815,0.29-1.397,1.052-1.442,1.928c-0.047,0.881,0.443,1.69,1.237,2.062
			c0.814,0.391,6.394,2.911,11.567,2.911c1.97,0,3.881-0.366,5.453-1.355c1.237-0.783,2.626-2.262,3.241-4.833
			c2.565,0.385,5.049,1.292,7.274,2.819c3.926,2.7,6.605,6.794,7.538,11.536c0.752,3.676,0.048,7.414-1.954,10.513
			c-1.432,2.188-3.383,3.839-5.667,4.889c-1.062,0.387-2.138,0.783-3.282,1.015c-0.011,0-0.021,0.011-0.037,0.016
			c-5.514,0.86-10.805-2.879-11.934-8.559c-0.433-2.159-0.024-4.348,1.155-6.162c1.16-1.793,2.932-3.008,4.994-3.417
			c1.503-0.298,3.04,0.011,4.348,0.878c1.366,0.912,2.31,2.323,2.624,3.966c0.232,1.165,1.35,1.922,2.544,1.695
			c1.176-0.232,1.927-1.366,1.695-2.539c-0.562-2.774-2.138-5.163-4.466-6.719c-2.257-1.5-4.952-2.046-7.586-1.521
			c-3.22,0.638-5.962,2.521-7.765,5.308c-1.788,2.766-2.416,6.081-1.767,9.347c0.933,4.683,3.92,8.403,7.77,10.454
			c-3.854,2.052-6.853,5.738-7.77,10.41c-0.649,3.27-0.021,6.587,1.767,9.35c1.803,2.785,4.562,4.667,7.765,5.3
			c2.634,0.533,5.323-0.016,7.586-1.519c2.328-1.551,3.915-3.939,4.466-6.713c0.232-1.176-0.541-2.315-1.695-2.547
			c-1.194-0.259-2.312,0.537-2.544,1.697c-0.335,1.641-1.258,3.049-2.624,3.961c-1.287,0.859-2.829,1.182-4.348,0.875
			c-2.062-0.4-3.833-1.624-4.994-3.417c-1.179-1.813-1.587-3.997-1.155-6.159c1.134-5.68,6.431-9.429,11.934-8.559
			c0.016,0.005,0.026,0.01,0.037,0.016c1.149,0.227,2.22,0.627,3.282,1.013c2.284,1.049,4.235,2.7,5.667,4.888
			c2.001,3.102,2.706,6.84,1.954,10.521c-0.943,4.735-3.623,8.832-7.538,11.527c-2.226,1.529-4.709,2.437-7.274,2.821
			c-0.599-2.573-1.986-4.05-3.241-4.841c-5.69-3.576-15.865,1.022-17.004,1.556c-0.793,0.374-1.284,1.187-1.236,2.062
			c0.045,0.875,0.611,1.641,1.447,1.93c2.685,0.944,4.451,3.033,5.746,4.578c2.41,2.832,4.843,4.256,7.264,4.256
			c0.345,0,0.696-0.027,1.042-0.09c3.246-0.564,5.102-3.528,5.869-5.068c3.483-0.396,6.842-1.598,9.835-3.654
			c4.844-3.338,8.168-8.4,9.336-14.243c0.438-2.194,0.43-4.398,0.114-6.539c2.969,4.841,4.253,10.731,3.045,16.737
			c-3.138,15.726-18.209,26.02-33.95,23.473c0.345-2.774,0.231-7.057-5.751-8.976c-0.593-0.19-1.226-0.29-1.88-0.369
			c-1.556-0.211-3.175-0.427-6.033-3.528c-0.527-0.559-1.289-0.801-2.035-0.648c-0.754,0.153-1.35,0.691-1.598,1.413
			c-0.059,0.147-0.896,2.722-0.264,5.97c-6.416,0.264-8.63,6.739-8.707,7.02c-0.248,0.764-0.068,1.592,0.493,2.172
			c0.562,0.57,1.371,0.786,2.139,0.575c1.339-0.364,2.041-0.085,3.546,0.717c0.375,0.195,0.789,0.411,1.237,0.622
			c-1.69,3.139-1.511,6.097-1.5,6.26c0.061,0.76,0.509,1.435,1.184,1.777c0.316,0.158,0.641,0.232,0.986,0.232
			c0.39,0,0.789-0.116,1.158-0.332c4.34-2.748,5.513-2.004,6.731-1.862c0.546,0.074,1.081,0.122,1.912,0.122
			c6.059-0.312,7.398-4.135,7.826-6.888c1.804,0.296,3.607,0.47,5.39,0.47c12.77,0,24.387-7.31,30.169-18.562
			c0.216,0.073,0.443,0.132,0.686,0.132h42.203c0.248,0,0.475-0.063,0.686-0.132c5.774,11.242,17.402,18.562,30.175,18.562
			c1.777,0,3.581-0.174,5.395-0.47c0.428,2.764,1.814,6.587,8.169,6.897c0.512,0,1.018-0.058,1.566-0.126
			c1.224-0.143,2.389-0.886,6.734,1.861c0.343,0.227,0.754,0.332,1.154,0.332c0.332,0,0.67-0.073,0.976-0.231
			c0.675-0.338,1.123-1.019,1.197-1.777c0.011-0.164,0.18-3.122-1.503-6.26c0.448-0.211,0.859-0.428,1.234-0.617
			C161.52,140.421,162.227,140.136,163.566,140.5z M133.718,115.531c1.904-1.197,5.543-0.686,8.791,0.284
			c-1.461,1.192-2.558,2.483-3.312,3.396c-1.672,1.935-3.217,2.905-4.271,2.71c-0.554-0.1-1.028-0.459-1.466-0.901
			c0.495-0.058,0.976-0.042,1.46-0.143c1.171-0.231,1.915-1.371,1.683-2.536c-0.232-1.171-1.35-1.941-2.542-1.698
			c-0.453,0.101-0.912,0.09-1.371,0.132C133.054,116.026,133.507,115.672,133.718,115.531z M134.911,45.549
			c-0.485-0.098-0.966-0.082-1.461-0.14c0.427-0.443,0.912-0.81,1.466-0.902c1.187-0.185,2.621,0.778,4.509,2.975
			c0.633,0.762,1.656,1.972,3.069,3.127c-3.043,0.912-6.782,1.545-8.775,0.282c-0.211-0.135-0.664-0.488-1.022-1.231
			c0.458,0.053,0.912,0.042,1.371,0.129c1.191,0.232,2.31-0.53,2.541-1.696C136.84,46.928,136.081,45.781,134.911,45.549z
			 M144.36,29.101l0.254-1.954c0.284-2.884,0.559-4.277,4.061-4.456c0.332,0,0.664,0.047,1.018,0.092
			c1.497,0.192,3.417,0.216,5.363-0.422c-0.322,0.628-0.76,1.269-1.351,1.88c-0.559,0.583-0.759,1.435-0.49,2.207
			c0.264,0.772,0.938,1.324,1.745,1.437c1.182,0.164,2.036,0.612,3.022,1.134c0.695,0.369,1.46,0.767,2.325,1.039
			c-1.149,1.084-3.032,1.728-5.427,0.929c-0.833-0.277-1.787-0.006-2.362,0.69c-0.564,0.696-0.644,1.669-0.189,2.447
			c0.448,0.775,0.723,1.548,0.881,2.272c-2.115-1.382-3.761-1.603-5.068-1.788c-0.396-0.053-0.78-0.092-1.134-0.211
			C143.806,33.378,143.885,31.957,144.36,29.101z M19.285,34.404c-0.355,0.113-0.73,0.153-1.128,0.206
			c-1.318,0.179-2.966,0.401-5.07,1.783c0.15-0.726,0.424-1.498,0.873-2.268c0.454-0.778,0.375-1.751-0.187-2.447
			c-0.406-0.514-1.026-0.799-1.68-0.799c-0.227,0-0.454,0.032-0.675,0.108c-2.386,0.793-4.266,0.155-5.426-0.929
			c0.867-0.271,1.619-0.669,2.315-1.039c0.989-0.522,1.843-0.976,3.024-1.134c0.805-0.113,1.479-0.669,1.746-1.437
			c0.269-0.772,0.089-1.624-0.493-2.207c-0.588-0.611-1.016-1.252-1.35-1.88c1.957,0.644,3.868,0.614,5.374,0.422
			c0.361-0.045,0.902-0.04,1.149-0.092c3.365,0.174,3.652,1.566,3.937,4.451l0.253,1.954C22.412,31.957,22.497,33.378,19.285,34.404
			z M32.579,50.891c-1.896,1.197-5.55,0.686-8.791-0.277c1.463-1.192,2.547-2.484,3.314-3.396c1.658-1.943,3.229-2.879,4.271-2.711
			c0.545,0.093,1.015,0.459,1.463,0.902c-0.479,0.063-0.965,0.042-1.447,0.14c-1.176,0.232-1.928,1.371-1.695,2.539
			c0.232,1.165,1.35,1.928,2.55,1.695c0.464-0.092,0.917-0.082,1.376-0.129C33.244,50.398,32.79,50.756,32.579,50.891z
			 M31.39,120.873c0.482,0.105,0.962,0.09,1.442,0.143c-0.427,0.442-0.907,0.801-1.448,0.901c-1.155,0.189-2.629-0.786-4.509-2.975
			c-0.635-0.77-1.669-1.972-3.072-3.127c3.045-0.912,6.771-1.545,8.775-0.29c0.211,0.137,0.665,0.496,1.026,1.239
			c-0.459-0.053-0.912-0.042-1.382-0.132c-1.194-0.242-2.312,0.533-2.544,1.698C29.462,119.501,30.219,120.64,31.39,120.873z
			 M21.94,137.326l-0.253,1.956c-0.298,2.885-0.567,4.276-4.061,4.456c-0.335,0-0.665-0.047-1.021-0.1
			c-1.506-0.186-3.417-0.222-5.374,0.422c0.334-0.628,0.762-1.261,1.35-1.878c0.566-0.585,0.762-1.444,0.493-2.21
			c-0.267-0.77-0.941-1.323-1.735-1.434c-1.191-0.164-2.041-0.612-3.035-1.134c-0.696-0.364-1.448-0.765-2.315-1.034
			c1.16-1.081,3.035-1.714,5.426-0.928c0.841,0.279,1.788,0.005,2.354-0.691c0.567-0.695,0.641-1.677,0.187-2.446
			c-0.448-0.786-0.722-1.551-0.878-2.272c2.12,1.381,3.757,1.603,5.076,1.787c0.398,0.053,0.773,0.09,1.134,0.211
			C22.497,133.048,22.412,134.467,21.94,137.326z M103.053,47.538c-0.532,1.5-0.996,3.034-1.318,4.638
			c-0.675,3.386-0.606,6.739-0.079,9.959H64.644c0.551-3.22,0.594-6.573-0.082-9.959c-0.324-1.604-0.789-3.138-1.316-4.638H103.053z
			 M63.202,118.884c0.535-1.498,1.042-3.027,1.366-4.63c0.675-3.386,0.617-6.739,0.092-9.967h37.011
			c-0.543,3.228-0.596,6.581,0.079,9.967c0.338,1.608,0.834,3.132,1.366,4.63H63.202z M102.79,99.974H63.516
			c-2.561-7.483-8.188-13.717-15.768-16.76c7.58-3.05,13.207-9.281,15.768-16.761h39.273c2.558,7.486,8.185,13.716,15.768,16.761
			C110.974,86.257,105.347,92.496,102.79,99.974z M157.998,137.405c-0.986,0.521-1.841,0.976-3.021,1.134
			c-0.808,0.11-1.482,0.67-1.746,1.434c-0.269,0.786-0.079,1.625,0.49,2.21c0.591,0.612,1.028,1.245,1.351,1.878
			c-1.182-0.375-2.305-0.564-3.417-0.564c-0.729,0-1.361,0.073-1.946,0.143c-0.354,0.053-0.817,0.115-1.16,0.1
			c-3.354-0.174-3.649-1.566-3.934-4.451l-0.254-1.956c-0.475-2.853-0.563-4.276,2.653-5.3c0.348-0.116,0.732-0.152,1.128-0.205
			c1.313-0.18,2.969-0.401,5.068-1.783c-0.143,0.723-0.428,1.498-0.876,2.268c-0.453,0.775-0.363,1.751,0.19,2.447
			c0.559,0.696,1.513,0.971,2.362,0.69c2.384-0.791,4.266-0.152,5.426,0.929C159.442,136.634,158.688,137.036,157.998,137.405z"/>
	</g>
</g>
<g>
</g>
<g>
</g>
<g>
</g>
<g>
</g>
<g>
</g>
<g>
</g>
<g>
</g>
<g>
</g>
<g>
</g>
<g>
</g>
<g>
</g>
<g>
</g>
<g>
</g>
<g>
</g>
<g>
</g>
</svg>
