<?xml version="1.0" encoding="iso-8859-1"?>
<!-- Generator: Adobe Illustrator 16.0.0, SVG Export Plug-In . SVG Version: 6.00 Build 0)  -->
<!DOCTYPE svg PUBLIC "-//W3C//DTD SVG 1.1//EN" "http://www.w3.org/Graphics/SVG/1.1/DTD/svg11.dtd">
<svg version="1.1" id="Capa_1" xmlns="http://www.w3.org/2000/svg" xmlns:xlink="http://www.w3.org/1999/xlink" x="0px" y="0px"
	 width="191.675px" height="191.675px" viewBox="0 0 191.675 191.675" style="enable-background:new 0 0 191.675 191.675;"
	 xml:space="preserve">
<g>
	<g>
		<path d="M191.396,118.233c-1.382-7.72-8.765-12.856-16.517-11.49c-0.738,0.127-1.229,0.828-1.092,1.566
			c0.127,0.732,0.828,1.218,1.566,1.086c6.249-1.134,12.266,3.059,13.39,9.318c0.706,3.939-0.222,8.068-2.548,11.327
			c-1.424,1.993-3.301,3.485-5.415,4.504c4.804-3.939,5.584-11.027,1.703-15.905c-3.228-4.05-9.145-4.72-13.189-1.497
			c-1.624,1.297-2.652,3.147-2.884,5.215c-0.232,2.062,0.353,4.098,1.65,5.717c1.081,1.36,2.615,2.22,4.351,2.415
			c1.725,0.206,3.422-0.285,4.777-1.365c0.322-0.254,0.459-0.623,0.47-1.008c0.237-0.416,0.406-0.875,0.406-1.387
			c0-1.588-1.282-2.879-2.885-2.879c-1.588,0-2.874,1.286-2.874,2.879c0,0.358,0.084,0.696,0.205,1.018
			c-0.923-0.163-1.75-0.606-2.336-1.345c-0.849-1.065-1.233-2.389-1.075-3.739c0.163-1.35,0.817-2.552,1.888-3.4
			c2.885-2.3,7.093-1.814,9.402,1.064c2.984,3.755,2.357,9.239-1.397,12.225c-4.814,3.833-10.457,3.153-15.878-1.926
			c-0.228-0.211-0.527-0.279-0.812-0.311c-2.605-2.521-5.289-5.807-8.427-9.745c-1.408-1.772-2.764-3.681-4.124-5.585
			c0.47,0.09,0.944,0.189,1.419,0.189c1.444,0,2.9-0.395,4.318-1.196c3.602-2.025,4.889-6.624,2.863-10.236
			c-1.688-3.011-5.531-4.092-8.559-2.394c-1.239,0.69-2.125,1.824-2.505,3.19c-0.38,1.371-0.2,2.8,0.496,4.028
			c1.207,2.157,3.966,2.938,6.133,1.714c0.522-0.29,0.675-0.864,0.564-1.418c0.031-0.095,0.121-0.143,0.137-0.237
			c0.138-0.976-0.521-1.867-1.492-2.01c-0.938-0.143-1.798,0.507-1.967,1.435c-0.417-0.132-0.791-0.396-1.023-0.807
			c-0.337-0.602-0.433-1.303-0.248-1.973c0.19-0.669,0.623-1.229,1.229-1.565c1.74-0.971,3.929-0.349,4.883,1.36
			c1.297,2.32,0.475,5.268-1.835,6.56c-3.882,2.184-6.877-0.311-8.475-2.246c-6.666-9.002-14.286-17.109-27.591-17.109
			c-0.031,0-0.068,0-0.105,0c-3.29,0.01-6.428,0.68-9.286,1.94c1.35-1.756,2.394-3.776,2.947-6.043
			c0.259-1.071,0.338-2.473,0.296-4.087c0-0.246-0.021-0.488-0.037-0.736c-0.538-11.016-6.491-31.055-6.792-32.049
			c-0.132-0.459-0.507-0.81-0.971-0.923c-0.469-0.104-0.96,0.026-1.292,0.377c-0.318,0.329-3.296,3.436-7.011,7.63
			c-3.715-4.19-6.695-7.301-7.014-7.63c-0.335-0.346-0.833-0.48-1.292-0.377c-0.464,0.113-0.836,0.464-0.971,0.923
			c-0.298,0.994-6.254,21.033-6.789,32.049c-0.016,0.243-0.037,0.485-0.037,0.736c-0.042,1.619,0.037,3.022,0.298,4.087
			c0.551,2.268,1.598,4.288,2.942,6.043c-2.848-1.261-5.988-1.93-9.284-1.94c-0.032,0-0.063,0-0.103,0
			c-13.294,0-20.914,8.103-27.583,17.104c-1.598,1.931-4.606,4.436-8.488,2.252c-2.312-1.297-3.132-4.245-1.837-6.56
			c0.967-1.714,3.153-2.337,4.883-1.366c0.604,0.338,1.036,0.896,1.226,1.566c0.188,0.67,0.103,1.371-0.237,1.978
			c-0.231,0.411-0.611,0.67-1.028,0.802c-0.176-0.923-1.031-1.572-1.969-1.43c-0.973,0.143-1.632,1.034-1.495,2.01
			c0.016,0.1,0.113,0.143,0.14,0.237c-0.103,0.548,0.047,1.128,0.567,1.418c2.17,1.224,4.926,0.443,6.133-1.714
			c0.699-1.233,0.87-2.663,0.488-4.034c-0.38-1.36-1.269-2.494-2.5-3.19c-3.024-1.682-6.863-0.611-8.562,2.399
			c-2.024,3.612-0.738,8.211,2.869,10.236c1.421,0.796,2.879,1.196,4.319,1.196c0.477,0,0.947-0.11,1.416-0.189
			c-1.361,1.909-2.71,3.818-4.122,5.585c-3.124,3.934-5.809,7.219-8.419,9.745c-0.29,0.021-0.588,0.095-0.82,0.311
			c-5.426,5.079-11.069,5.759-15.881,1.926c-3.752-2.985-4.379-8.465-1.392-12.225c2.299-2.879,6.528-3.359,9.399-1.064
			c1.065,0.844,1.735,2.051,1.886,3.396s-0.227,2.674-1.081,3.739c-0.583,0.732-1.414,1.181-2.331,1.345
			c0.119-0.322,0.203-0.654,0.203-1.019c0-1.587-1.29-2.879-2.877-2.879c-1.592,0-2.884,1.287-2.884,2.879
			c0,0.518,0.168,0.971,0.406,1.388c0.011,0.374,0.15,0.749,0.47,1.007c1.36,1.081,3.056,1.577,4.777,1.366
			c1.725-0.195,3.27-1.055,4.343-2.41c1.297-1.624,1.885-3.654,1.648-5.722c-0.232-2.067-1.257-3.918-2.884-5.21
			c-4.045-3.238-9.962-2.563-13.197,1.492c-3.873,4.878-3.095,11.971,1.706,15.904c-2.117-1.018-3.992-2.51-5.416-4.503
			c-2.329-3.26-3.256-7.383-2.544-11.328c1.123-6.254,7.106-10.451,13.387-9.317c0.707,0.126,1.437-0.354,1.566-1.087
			c0.129-0.738-0.356-1.439-1.091-1.566c-7.715-1.396-15.13,3.766-16.517,11.491c-0.838,4.651,0.258,9.534,3.006,13.379
			c2.684,3.749,6.631,6.196,11.119,6.882c11.211,1.692,17.869-6.607,25.531-16.264c0.042-0.053,0.082-0.11,0.124-0.163
			c0,0,0.005,0,0.005-0.005c1.653-1.83,5.018-4.51,8.928-1.909c2.207,1.466,2.813,4.461,1.361,6.655
			c-1.092,1.65-3.322,2.093-4.968,0.996c-1.194-0.791-1.519-2.399-0.73-3.591c0.298-0.443,0.757-0.675,1.247-0.744
			c0.158,0.886,0.923,1.535,1.835,1.461c0.979-0.084,1.698-0.934,1.611-1.909c-0.011-0.147-0.14-0.227-0.19-0.358
			c0.026-0.464-0.092-0.923-0.506-1.197c-2.069-1.376-4.873-0.817-6.249,1.245c-1.613,2.42-0.949,5.716,1.479,7.33
			c1.07,0.706,2.278,1.044,3.473,1.044c2.035,0,4.034-0.986,5.244-2.8c2.278-3.438,1.334-8.105-2.112-10.399
			c-2.025-1.351-4.201-1.793-6.347-1.382c0.288-0.4,0.58-0.775,0.865-1.176c1.086-1.524,2.194-3.043,3.312-4.551
			c0.032-0.048,0.074-0.074,0.108-0.111c0.005-0.011,0-0.026,0.011-0.037c6.209-8.316,13.305-15.686,25.162-15.686
			c0.029,0,0.061,0,0.087,0c5.801,0.016,11.042,2.328,14.773,6.505c4.182,4.683,6.151,11.296,5.4,18.151
			c-0.543,5.015-3.006,9.513-6.938,12.672c-3.636,2.922-8.126,4.287-12.746,4.061c-2.773-0.48-5.015-1.756-6.446-3.775
			c-1.728-2.432-2.294-5.854-1.551-9.371c0.482-2.268,1.817-4.214,3.766-5.49c1.948-1.255,4.276-1.692,6.544-1.213
			c1.751,0.369,3.251,1.397,4.224,2.896c0.97,1.503,1.3,3.28,0.928,5.041c-0.277,1.318-1.05,2.452-2.178,3.186
			c-1.14,0.743-2.484,1.013-3.839,0.717c-0.896-0.189-1.651-0.728-2.202-1.45c1.35-0.258,2.37-1.402,2.354-2.815
			c-0.029-1.588-1.329-2.864-2.927-2.832c-1.2,0.011-2.215,0.765-2.637,1.813c-0.042,0.085-0.14,0.127-0.161,0.228
			c-0.05,0.227,0.01,0.448-0.011,0.675c0,0.068-0.04,0.121-0.04,0.2c0,0.053,0.029,0.095,0.034,0.147
			c-0.071,1.351,0.166,2.689,0.918,3.845c0.944,1.461,2.402,2.463,4.108,2.821c2.025,0.427,4.126,0.042,5.877-1.097
			c1.732-1.134,2.921-2.869,3.34-4.889c0.525-2.458,0.061-4.962-1.31-7.071c-1.369-2.104-3.473-3.55-5.93-4.066
			c-2.964-0.633-6.022-0.074-8.575,1.593c-2.555,1.661-4.306,4.214-4.936,7.188c-0.746,3.513-0.324,6.95,1.047,9.771
			c-0.517-0.485-1.042-0.965-1.49-1.523c-2.479-3.085-3.612-6.961-3.18-10.9c0.69-6.35,6.41-10.969,12.785-10.272
			c0.72,0.084,1.411-0.454,1.484-1.203c0.077-0.743-0.453-1.407-1.197-1.481c-7.826-0.833-14.906,4.841-15.762,12.672
			c-0.509,4.651,0.825,9.229,3.757,12.878c2.933,3.654,7.111,5.943,11.773,6.449c0.469,0.048,0.933,0.053,1.397,0.074
			c0.076,0.011,0.14,0.042,0.221,0.053c0.061,0.005,0.114,0.011,0.174,0.011c0.031,0,0.053-0.037,0.084-0.037
			c0.169,0,0.335,0.031,0.509,0.031c4.892,0,9.601-1.655,13.474-4.762c2.661-2.136,4.649-4.841,6.025-7.868v13.49
			c0,0.748,0.606,1.35,1.35,1.35c0.746,0,1.35-0.602,1.35-1.35v-12.825c1.372,2.753,3.267,5.221,5.738,7.198
			c3.87,3.111,8.58,4.762,13.474,4.762c0.169,0,0.332-0.026,0.506-0.031c0.037,0,0.059,0.036,0.09,0.036
			c0.063,0,0.116,0,0.174-0.011c0.079-0.016,0.138-0.042,0.222-0.053c0.464-0.021,0.928-0.025,1.393-0.073
			c4.65-0.512,8.838-2.8,11.775-6.449c2.932-3.649,4.271-8.222,3.755-12.878c-0.854-7.831-7.895-13.506-15.758-12.672
			c-0.743,0.084-1.271,0.748-1.202,1.481c0.079,0.743,0.791,1.281,1.487,1.202c6.317-0.67,12.092,3.924,12.783,10.273
			c0.432,3.934-0.696,7.81-3.181,10.899c-0.448,0.564-0.976,1.034-1.486,1.524c1.365-2.816,1.793-6.249,1.044-9.767
			c-0.628-2.974-2.379-5.526-4.937-7.188c-2.558-1.667-5.595-2.23-8.574-1.593c-2.457,0.522-4.566,1.962-5.933,4.066
			c-1.366,2.104-1.83,4.608-1.308,7.066c0.416,2.024,1.613,3.765,3.343,4.898c1.746,1.134,3.823,1.519,5.87,1.092
			c1.703-0.358,3.164-1.366,4.113-2.821c0.754-1.155,0.991-2.5,0.917-3.845c0-0.058,0.037-0.1,0.037-0.147
			c0-0.073-0.037-0.132-0.042-0.2c-0.021-0.227,0.042-0.448-0.011-0.675c-0.021-0.101-0.116-0.143-0.158-0.228
			c-0.422-1.049-1.439-1.798-2.637-1.813c-1.598-0.032-2.9,1.244-2.927,2.832c-0.016,1.424,1.013,2.562,2.357,2.815
			c-0.554,0.723-1.303,1.25-2.199,1.45c-1.323,0.285-2.694,0.032-3.834-0.717c-1.128-0.738-1.914-1.872-2.183-3.196
			c-0.369-1.75-0.043-3.533,0.928-5.035c0.976-1.498,2.474-2.526,4.224-2.9c2.273-0.491,4.604-0.048,6.545,1.218
			s3.28,3.217,3.765,5.489c0.744,3.518,0.18,6.94-1.55,9.371c-1.439,2.025-3.681,3.301-6.46,3.775
			c-4.614,0.232-9.103-1.144-12.735-4.061c-3.937-3.158-6.399-7.656-6.938-12.672c-0.751-6.86,1.218-13.474,5.402-18.146
			c3.724-4.171,8.976-6.489,14.771-6.505c0.026,0,0.058,0,0.09,0c11.849,0,18.947,7.375,25.159,15.686
			c0.005,0.011,0,0.026,0.011,0.037c0.037,0.042,0.079,0.074,0.11,0.111c1.123,1.502,2.226,3.031,3.312,4.551
			c0.285,0.4,0.57,0.77,0.86,1.17c-2.142-0.411-4.319,0.043-6.345,1.388c-3.448,2.288-4.387,6.961-2.114,10.399
			c1.208,1.809,3.206,2.795,5.242,2.795c1.202,0,2.404-0.338,3.48-1.045c2.426-1.619,3.09-4.909,1.477-7.33
			c-1.388-2.072-4.172-2.637-6.249-1.244c-0.412,0.274-0.538,0.732-0.507,1.197c-0.047,0.132-0.174,0.216-0.189,0.358
			c-0.085,0.976,0.633,1.824,1.613,1.909c0.907,0.073,1.672-0.58,1.83-1.461c0.49,0.068,0.954,0.295,1.25,0.738
			c0.791,1.187,0.459,2.806-0.733,3.591c-1.646,1.097-3.876,0.654-4.968-0.991c-1.46-2.199-0.854-5.189,1.355-6.655
			c3.918-2.604,7.277,0.085,8.928,1.909h0.006c0.042,0.059,0.084,0.116,0.121,0.164c7.657,9.65,14.275,17.977,25.534,16.263
			c4.487-0.686,8.432-3.132,11.116-6.882C191.137,127.763,192.244,122.891,191.396,118.233z M82.781,81.175
			c0.949-3.926,7.166-11.85,13.052-18.673c5.88,6.818,12.104,14.747,13.054,18.673c0.175,0.707,0.237,1.419,0.296,2.128
			c0.016,0.311,0.047,0.651,0.058,0.944c0.053,6.123-4.081,11.723-10.285,13.223c-1.016,0.25-2.07,0.369-3.117,0.375
			c-1.042-0.005-2.091-0.124-3.111-0.375c0,0,0,0-0.005,0c-6.199-1.506-10.336-7.101-10.286-13.223
			c0.005-0.292,0.042-0.633,0.058-0.944C82.544,82.583,82.602,81.887,82.781,81.175z M103.176,54.314
			c1.371,4.807,3.312,12.264,4.625,19.077c-2.784-4.156-6.64-8.886-10.175-12.965C99.672,58.101,101.609,55.983,103.176,54.314z
			 M88.484,54.314c1.566,1.669,3.504,3.792,5.55,6.112c-3.536,4.079-7.398,8.814-10.178,12.965
			C85.167,66.583,87.105,59.121,88.484,54.314z M94.364,106.016c0.092,0.079,0.161,0.189,0.264,0.253v0.374
			C94.53,106.432,94.456,106.221,94.364,106.016z"/>
		<path d="M95.833,92.769c3.72,0,6.75-3.029,6.75-6.75s-3.03-6.75-6.75-6.75c-3.721,0-6.75,3.029-6.75,6.75
			S92.112,92.769,95.833,92.769z M95.833,81.969c2.235,0,4.05,1.813,4.05,4.05c0,2.236-1.809,4.05-4.05,4.05s-4.05-1.814-4.05-4.05
			C91.783,83.782,93.592,81.969,95.833,81.969z"/>
	</g>
</g>
<g>
</g>
<g>
</g>
<g>
</g>
<g>
</g>
<g>
</g>
<g>
</g>
<g>
</g>
<g>
</g>
<g>
</g>
<g>
</g>
<g>
</g>
<g>
</g>
<g>
</g>
<g>
</g>
<g>
</g>
</svg>
