<?xml version="1.0" encoding="iso-8859-1"?>
<!-- Generator: Adobe Illustrator 16.0.0, SVG Export Plug-In . SVG Version: 6.00 Build 0)  -->
<!DOCTYPE svg PUBLIC "-//W3C//DTD SVG 1.1//EN" "http://www.w3.org/Graphics/SVG/1.1/DTD/svg11.dtd">
<svg version="1.1" id="Capa_1" xmlns="http://www.w3.org/2000/svg" xmlns:xlink="http://www.w3.org/1999/xlink" x="0px" y="0px"
	 width="191.578px" height="191.578px" viewBox="0 0 191.578 191.578" style="enable-background:new 0 0 191.578 191.578;"
	 xml:space="preserve">
<g>
	<g>
		<path d="M10.899,101.365c0,0.011,0.011,0,0.021,0.011c1.21,2.373,3.133,4.293,5.514,5.484c0.019,0.021,0.013,0.058,0.029,0.079
			c0.114,0.111,0.264,0.101,0.388,0.153c1.566,0.722,3.288,1.139,5.125,1.139c1.852,0,3.597-0.433,5.179-1.171
			c0.108-0.053,0.232-0.042,0.324-0.121c0.016-0.016,0.016-0.047,0.026-0.058c2.387-1.202,4.324-3.122,5.529-5.506
			c0.005,0,0.005,0,0.005,0c0.005-0.011,0.005-0.021,0.005-0.026c0.854-1.682,1.376-3.549,1.376-5.563
			c0-6.86-5.576-12.445-12.445-12.445c-6.868,0-12.448,5.585-12.448,12.445c0,1.962,0.499,3.797,1.297,5.442
			C10.878,101.275,10.868,101.323,10.899,101.365z M13.568,100.617l2.834-2.838l3.663,3.649l-2.813,2.816
			C15.711,103.38,14.449,102.136,13.568,100.617z M18.314,95.86l3.662-3.657l3.655,3.657l-3.655,3.659L18.314,95.86z
			 M21.982,105.531c-0.686,0-1.351-0.073-1.994-0.205l1.988-1.988l1.98,1.993C23.327,105.458,22.662,105.531,21.982,105.531z
			 M26.712,104.245l-2.824-2.816l3.66-3.659l2.848,2.853C29.52,102.146,28.239,103.385,26.712,104.245z M31.524,93.793
			c0.129,0.644,0.203,1.308,0.203,1.993c0,0.728-0.101,1.424-0.243,2.109l-2.036-2.035L31.524,93.793z M30.443,91.054l-2.9,2.897
			l-3.665-3.654l2.927-2.927C28.331,88.256,29.578,89.514,30.443,91.054z M21.982,86.036c0.722,0,1.418,0.092,2.093,0.243
			l-2.099,2.102l-2.101-2.102C20.561,86.133,21.256,86.036,21.982,86.036z M17.148,87.375l2.921,2.922l-3.662,3.654l-2.893-2.887
			C14.372,89.524,15.614,88.261,17.148,87.375z M12.439,93.804l2.057,2.057l-2.015,2.024c-0.145-0.686-0.243-1.381-0.243-2.099
			C12.239,95.111,12.31,94.447,12.439,93.804z"/>
		<path d="M0.64,101.429c0.562,1.007,1.426,1.782,2.431,2.247c-0.39,1.049-0.448,2.215-0.124,3.322
			c0.248,0.859,0.712,1.655,1.345,2.277c0.783,0.791,1.758,1.292,2.829,1.477c0.182,1.055,0.696,2.052,1.479,2.838
			c0.644,0.643,1.448,1.107,2.257,1.328c1.086,0.332,2.278,0.274,3.32-0.115c0.466,1.012,1.242,1.888,2.246,2.415
			c1.719,0.976,4.019,0.833,5.611-0.296c0.886,0.623,1.94,0.96,3.035,0.96c0.907,0,1.772-0.222,2.582-0.653
			c1.01-0.56,1.782-1.424,2.251-2.426c1.021,0.369,2.257,0.427,3.277,0.115c0.865-0.231,1.669-0.695,2.318-1.35
			c0.788-0.78,1.268-1.771,1.463-2.821c1.068-0.185,2.057-0.69,2.829-1.461c0.638-0.644,1.107-1.439,1.345-2.294
			c0.33-1.129,0.269-2.283-0.113-3.316c1.015-0.465,1.885-1.25,2.436-2.258c0.419-0.796,0.646-1.688,0.646-2.558
			c0-0.606-0.119-1.187-0.322-1.745h5.735c-2.384,1.74-4.164,4.335-4.802,7.478c-0.541,2.658-0.005,5.358,1.474,7.583
			c1.442,2.157,3.618,3.618,6.127,4.124c4.322,0.854,8.636-2.057,9.537-6.518c0.147-0.728-0.33-1.445-1.052-1.593
			c-0.783-0.164-1.448,0.338-1.593,1.055c-0.601,3.006-3.473,4.968-6.362,4.398c-1.804-0.349-3.37-1.414-4.396-2.964
			c-1.097-1.635-1.463-3.607-1.086-5.559c1.01-4.999,5.671-8.269,10.505-7.499c0.01,0,0.01,0,0.021,0.011
			c0.979,0.19,1.896,0.522,2.808,0.844c2.004,0.907,3.715,2.362,4.967,4.282c1.728,2.679,2.355,5.917,1.696,9.112
			c-0.799,4.071-3.109,7.583-6.473,9.903c-2.049,1.397-4.337,2.184-6.676,2.474c-0.335-1.851-1.176-3.254-2.586-4.14
			c-4.557-2.879-12.846,0.886-13.774,1.318l-3.003,1.402l3.116,1.098c2.354,0.812,3.876,2.62,5.005,3.949
			c1.911,2.257,3.839,3.391,5.724,3.391c0.271,0,0.535-0.021,0.789-0.062c2.694-0.465,4.163-3.106,4.683-4.219
			c2.916-0.296,5.735-1.266,8.24-2.996c3.953-2.721,6.652-6.845,7.604-11.596c0.517-2.563,0.306-5.131-0.464-7.536
			c0.335,0.422,0.717,0.802,1.021,1.255c2.958,4.42,4.005,9.746,2.969,14.956c-0.433,2.162-1.221,4.177-2.154,6.117
			c-0.061,0.058-0.061,0.116-0.108,0.179c-1.927,3.902-4.78,7.304-8.49,9.788c-5.5,3.67-12.052,4.988-18.542,3.791
			c0.335-2.246,0.551-5.816-4.44-7.425c-0.475-0.143-0.959-0.227-1.484-0.301c-1.318-0.174-2.808-0.374-5.297-3.085l-1.535-1.671
			l-0.733,2.141c-0.05,0.116-0.81,2.447-0.092,5.284c-5.46-0.243-7.328,5.326-7.415,5.548l-0.788,2.409l2.441-0.686
			c1.294-0.374,2.104-0.011,3.298,0.628c0.433,0.222,0.907,0.479,1.463,0.707c-1.613,2.646-1.463,5.273-1.458,5.41l0.155,2.252
			l1.912-1.208c3.771-2.378,4.856-1.74,5.925-1.613c0.432,0.053,0.907,0.1,1.513,0.1c5.086-0.258,5.912-3.58,6.188-5.837
			c1.645,0.295,3.283,0.49,4.922,0.49c5.466,0,10.811-1.608,15.457-4.709c3.812-2.553,6.766-5.98,8.894-9.894h45.225
			c2.136,3.913,5.078,7.341,8.892,9.894c4.646,3.101,10.009,4.709,15.445,4.709c1.65,0,3.285-0.195,4.937-0.49
			c0.273,2.257,1.117,5.579,6.428,5.848c0.411,0,0.823-0.058,1.255-0.11c1.076-0.127,2.142-0.775,5.923,1.613l1.914,1.208
			l0.147-2.252c0.016-0.137,0.163-2.764-1.45-5.41c0.554-0.228,1.018-0.485,1.461-0.707c1.207-0.639,1.978-1.018,3.301-0.628
			l2.437,0.686l-0.791-2.409c-0.084-0.222-1.894-5.812-7.414-5.548c0.732-2.832-0.043-5.168-0.085-5.284l-0.738-2.141l-1.529,1.671
			c-2.51,2.711-3.986,2.911-5.305,3.085c-0.533,0.074-1.013,0.138-1.472,0.301c-4.999,1.608-4.799,5.179-4.445,7.425
			c-6.476,1.197-13.041-0.121-18.547-3.791c-5.621-3.744-9.429-9.45-10.747-16.084c-1.039-5.221,0.011-10.536,2.969-14.956
			c0.316-0.453,0.691-0.833,1.018-1.255c-0.774,2.405-0.985,4.979-0.464,7.536c0.949,4.762,3.649,8.886,7.6,11.596
			c2.515,1.72,5.331,2.7,8.247,2.996c0.517,1.112,1.983,3.754,4.683,4.219c0.264,0.042,0.527,0.062,0.786,0.062
			c1.888,0,3.792-1.134,5.717-3.385l0.221-0.259c0.918-1.081,2.447-2.885,4.789-3.718l3.111-1.086l-2.985-1.403
			c-0.949-0.442-9.229-4.187-13.784-1.329c-1.419,0.896-2.268,2.3-2.584,4.15c-2.363-0.301-4.631-1.076-6.671-2.473
			c-3.37-2.32-5.675-5.833-6.481-9.909c-0.628-3.19-0.031-6.418,1.703-9.118c1.234-1.908,2.964-3.364,4.968-4.271
			c0.912-0.332,1.83-0.664,2.8-0.854c0.017,0,0.017-0.011,0.026-0.011c4.825-0.765,9.514,2.51,10.494,7.504
			c0.391,1.946,0.017,3.929-1.081,5.553c-1.018,1.562-2.584,2.61-4.393,2.975c-2.895,0.559-5.753-1.403-6.359-4.398
			c-0.143-0.733-0.833-1.233-1.593-1.055c-0.733,0.147-1.213,0.854-1.055,1.582c0.896,4.472,5.216,7.394,9.54,6.519
			c2.51-0.496,4.688-1.951,6.138-4.113c1.472-2.236,2.01-4.926,1.466-7.584c-0.611-3.101-2.362-5.685-4.714-7.425h5.601
			c-0.169,0.532-0.27,1.087-0.27,1.661c0,0.87,0.222,1.756,0.654,2.558c0.559,1.013,1.424,1.782,2.437,2.257
			c-0.391,1.045-0.443,2.215-0.122,3.317c0.248,0.859,0.712,1.65,1.345,2.283c0.775,0.771,1.772,1.276,2.827,1.466
			c0.185,1.065,0.696,2.062,1.461,2.827c0.633,0.638,1.434,1.102,2.283,1.35c1.092,0.316,2.283,0.264,3.316-0.126
			c0.465,1.018,1.239,1.888,2.258,2.436c1.74,0.949,3.997,0.807,5.6-0.311c0.876,0.617,1.936,0.965,3.032,0.965
			c0.934,0,1.793-0.222,2.584-0.654c1.002-0.564,1.783-1.418,2.247-2.436c1.049,0.39,2.204,0.442,3.333,0.126
			c0.87-0.269,1.635-0.723,2.268-1.35c0.785-0.791,1.275-1.762,1.46-2.827c1.065-0.179,2.052-0.695,2.816-1.466
			c0.628-0.622,1.097-1.413,1.36-2.283c0.322-1.123,0.274-2.283-0.121-3.327c1.018-0.465,1.888-1.245,2.431-2.247
			c0.433-0.791,0.659-1.666,0.659-2.558c0-1.112-0.337-2.167-0.965-3.043c0.606-0.886,0.965-1.94,0.965-3.048
			c0-0.875-0.227-1.756-0.664-2.57c-0.564-1-1.429-1.777-2.431-2.241c0.39-1.05,0.448-2.215,0.126-3.312
			c-0.242-0.862-0.717-1.656-1.35-2.289c-0.786-0.783-1.756-1.29-2.827-1.474c-0.185-1.057-0.695-2.057-1.471-2.845
			c-0.633-0.622-1.424-1.081-2.257-1.323c-1.098-0.33-2.3-0.274-3.333,0.113c-0.464-1.015-1.245-1.88-2.247-2.431
			c-1.756-0.97-4.018-0.82-5.61,0.303c-1.604-1.123-3.771-1.287-5.622-0.303c-0.996,0.562-1.771,1.421-2.235,2.431
			c-1.044-0.388-2.247-0.438-3.312-0.119c-0.865,0.248-1.656,0.712-2.289,1.345c-0.78,0.783-1.276,1.772-1.461,2.829
			c-1.065,0.185-2.062,0.696-2.826,1.474c-0.633,0.633-1.097,1.421-1.345,2.283c-0.332,1.118-0.27,2.275,0.11,3.317
			c-1.013,0.469-1.877,1.247-2.431,2.262c-0.433,0.805-0.644,1.664-0.644,2.55c0,0.604,0.11,1.187,0.316,1.74h-5.727
			c2.367-1.74,4.16-4.337,4.793-7.475c0.527-2.61,0.026-5.271-1.408-7.476c-1.45-2.217-3.639-3.72-6.196-4.231
			c-4.345-0.87-8.632,2.051-9.539,6.513c-0.143,0.732,0.332,1.444,1.055,1.592c0.749,0.166,1.45-0.33,1.593-1.06
			c0.596-3.006,3.459-4.999,6.359-4.385c1.846,0.366,3.428,1.453,4.461,3.051c1.039,1.616,1.414,3.56,1.019,5.481
			c-1.002,4.979-5.664,8.242-10.489,7.504c-0.011,0-0.021-0.021-0.037-0.021c-0.98-0.19-1.903-0.527-2.811-0.857
			c-1.988-0.912-3.718-2.359-4.941-4.261c-1.729-2.689-2.347-5.93-1.688-9.115c0.791-4.071,3.101-7.586,6.466-9.903
			c2.035-1.397,4.334-2.175,6.676-2.468c0.327,1.848,1.176,3.251,2.584,4.142c1.239,0.778,2.764,1.062,4.335,1.062
			c4.187,0,8.774-2.073,9.45-2.391l2.984-1.397l-3.106-1.097c-2.347-0.82-3.876-2.631-5.004-3.963
			c-2.184-2.57-4.372-3.673-6.502-3.322c-2.737,0.47-4.214,3.183-4.704,4.261c-2.906,0.292-5.732,1.237-8.227,2.953
			c-3.944,2.718-6.645,6.837-7.594,11.594c-0.522,2.565-0.312,5.136,0.464,7.539c-0.338-0.425-0.728-0.799-1.023-1.253
			c-2.958-4.427-3.991-9.75-2.969-14.963c1.313-6.621,5.131-12.321,10.753-16.071c5.5-3.67,12.076-4.988,18.541-3.807
			c-0.332,2.247-0.559,5.822,4.44,7.425c0.475,0.152,0.965,0.234,1.487,0.303c1.312,0.18,2.811,0.38,5.294,3.085l1.535,1.669
			l0.732-2.141c0.048-0.124,0.808-2.444,0.085-5.284c0.084,0,0.147,0,0.231,0c5.29,0,7.104-5.331,7.183-5.558l0.786-2.408
			l-2.437,0.691c-1.318,0.366-2.109,0.01-3.296-0.628c-0.433-0.232-0.918-0.485-1.466-0.712c1.613-2.652,1.466-5.276,1.455-5.405
			l-0.158-2.257l-1.914,1.21c-3.749,2.376-4.836,1.754-5.917,1.614c-0.433-0.056-0.896-0.164-1.519-0.098
			c-5.078,0.253-5.911,3.575-6.181,5.837c-7.119-1.257-14.344,0.19-20.387,4.221c-4.008,2.674-7.082,6.326-9.229,10.494H74.426
			c-0.304,0-0.536,0.15-0.757,0.312c-2.144-4.309-5.287-8.061-9.395-10.806c-6.049-4.031-13.269-5.495-20.385-4.221
			c-0.271-2.262-1.118-5.584-6.444-5.843c-0.398,0-0.81,0.048-1.242,0.104c-1.062,0.145-2.149,0.767-5.917-1.614l-1.912-1.21
			l-0.158,2.257c-0.01,0.129-0.161,2.753,1.453,5.405c-0.557,0.227-1.026,0.48-1.463,0.712c-1.21,0.638-2.004,1-3.304,0.628
			l-2.441-0.691l0.789,2.408c0.082,0.227,1.901,5.558,7.193,5.558c0.082,0,0.14,0,0.222,0c-0.736,2.834,0.042,5.155,0.087,5.284
			l0.733,2.141l1.535-1.669c2.5-2.705,3.984-2.905,5.302-3.085c0.53-0.068,1.015-0.145,1.474-0.303
			c5.012-1.604,4.801-5.179,4.445-7.425c6.458-1.181,13.041,0.137,18.549,3.807c5.614,3.744,9.432,9.45,10.745,16.071
			c1.031,5.223-0.011,10.541-2.969,14.963c-0.314,0.454-0.693,0.828-1.015,1.253c0.77-2.402,0.981-4.979,0.464-7.539
			c-0.957-4.767-3.657-8.888-7.604-11.599c-2.5-1.716-5.318-2.66-8.224-2.953c-0.491-1.086-1.97-3.792-4.704-4.261
			c-2.133-0.346-4.319,0.757-6.497,3.317l-0.219,0.258c-0.92,1.079-2.447,2.89-4.796,3.715l-3.111,1.097l2.993,1.397
			c0.675,0.324,5.266,2.391,9.45,2.391c1.571,0,3.082-0.29,4.324-1.068c1.426-0.891,2.268-2.294,2.586-4.137
			c2.36,0.287,4.646,1.07,6.676,2.468c3.37,2.317,5.674,5.832,6.479,9.903c0.633,3.193,0.034,6.426-1.701,9.115
			c-1.236,1.906-2.953,3.349-4.941,4.261c-0.923,0.335-1.846,0.667-2.824,0.857c-0.011,0-0.011,0.021-0.032,0.021
			c-4.838,0.76-9.495-2.525-10.476-7.509c-0.385-1.912-0.029-3.86,1.016-5.477c1.031-1.604,2.613-2.685,4.453-3.051
			c2.896-0.593,5.751,1.395,6.368,4.39c0.14,0.736,0.865,1.21,1.593,1.06c0.73-0.153,1.21-0.859,1.046-1.593
			c-0.901-4.456-5.139-7.383-9.534-6.513c-2.571,0.512-4.765,2.015-6.193,4.232c-1.438,2.205-1.93,4.86-1.411,7.475
			c0.615,3.098,2.365,5.669,4.704,7.406h-5.579c0.174-0.527,0.271-1.078,0.271-1.65c0-0.881-0.222-1.761-0.654-2.56
			c-0.562-1.004-1.426-1.788-2.437-2.251c0.39-1.047,0.443-2.21,0.119-3.304c-0.237-0.86-0.701-1.653-1.345-2.296
			c-0.783-0.783-1.759-1.29-2.824-1.464c-0.187-1.067-0.696-2.062-1.463-2.834c-0.625-0.628-1.424-1.097-2.283-1.345
			c-1.087-0.319-2.284-0.264-3.317,0.124c-0.469-1.016-1.242-1.88-2.257-2.434c-1.738-0.963-3.995-0.817-5.598,0.3
			c-1.606-1.124-3.879-1.252-5.601-0.3c-1.015,0.562-1.793,1.424-2.262,2.434c-1.039-0.388-2.199-0.443-3.328-0.124
			c-0.865,0.258-1.629,0.712-2.268,1.35c-0.788,0.789-1.284,1.767-1.463,2.824c-1.065,0.189-2.046,0.699-2.813,1.463
			c-0.643,0.633-1.107,1.421-1.36,2.292c-0.325,1.115-0.277,2.272,0.119,3.319c-1.015,0.464-1.875,1.242-2.431,2.247
			c-0.432,0.783-0.659,1.669-0.659,2.56c0,1.107,0.34,2.168,0.968,3.043c-0.62,0.886-0.968,1.94-0.968,3.048
			C-0.024,99.746,0.203,100.633,0.64,101.429z M49.055,126.794c0.665,0.132,1.334,0.143,2.004,0.2
			c-0.506,0.718-1.197,1.424-2.02,1.566c-1.408,0.206-2.942-1.182-4.195-2.652c-0.665-0.791-1.69-2.015-3.175-3.069
			c2.753-0.917,6.513-1.703,8.533-0.433c0.63,0.401,0.991,1.087,1.226,1.92c-0.606-0.042-1.231-0.059-1.837-0.18
			c-0.767-0.158-1.453,0.338-1.593,1.061C47.848,125.939,48.323,126.657,49.055,126.794z M41.517,141.064l-0.198,1.603
			c-0.243,2.447-0.551,3.955-3.839,4.129c-0.298,0-0.59-0.042-0.909-0.089c-1.435-0.175-3.299-0.133-5.273,0.701
			c0.295-0.844,0.788-1.804,1.645-2.68l1.859-1.914l-2.642-0.358c-1.058-0.147-1.846-0.559-2.666-1.002
			c-0.751-0.4-1.571-0.833-2.581-1.013c1.01-1.233,2.932-2.32,5.513-1.466l3.364,1.118l-1.767-3.069
			c-0.643-1.107-0.886-2.199-0.952-3.116c2.112,1.655,3.684,1.866,4.899,2.03c0.351,0.053,0.696,0.095,1.015,0.179
			C42.021,137.093,41.928,138.639,41.517,141.064z M152.65,136.117c0.321-0.105,0.653-0.132,1.012-0.185
			c1.229-0.163,2.801-0.374,4.899-2.04c-0.058,0.928-0.301,2.014-0.944,3.121l-1.771,3.069l3.364-1.107
			c2.616-0.864,4.53,0.211,5.517,1.461c-1.013,0.174-1.836,0.606-2.584,1.018c-0.823,0.433-1.614,0.844-2.669,1.002l-2.637,0.358
			l1.861,1.909c0.85,0.865,1.351,1.835,1.635,2.679c-1.297-0.559-2.499-0.822-3.67-0.822c-0.591,0-1.107,0.074-1.593,0.116
			c-0.327,0.053-0.601,0.105-1.033,0.089c-3.164-0.152-3.476-1.682-3.713-4.129l-0.195-1.603
			C149.717,138.639,149.627,137.093,152.65,136.117z M141.449,122.406c1.993-1.26,5.759-0.484,8.532,0.443
			c-1.492,1.076-2.584,2.362-3.386,3.301c-1.038,1.239-2.488,2.711-3.981,2.41c-0.822-0.132-1.513-0.849-2.024-1.566
			c0.67-0.053,1.339-0.068,2.004-0.2c0.732-0.137,1.213-0.854,1.06-1.587c-0.143-0.729-0.833-1.219-1.593-1.061
			c-0.606,0.121-1.233,0.138-1.835,0.18C140.462,123.493,140.816,122.808,141.449,122.406z M151.163,94.764
			c-0.596-0.507-0.944-1.234-0.944-2.01c0-0.438,0.116-0.865,0.327-1.252c0.443-0.799,1.287-1.313,2.21-1.345l3.011-0.098
			l-2.067-2.181c-0.633-0.675-0.864-1.611-0.611-2.508c0.116-0.427,0.337-0.804,0.664-1.118c0.496-0.495,1.034-0.856,2.089-0.756
			l1.613,0.142l-0.132-1.608c-0.079-0.777,0.2-1.54,0.76-2.096c0.311-0.314,0.686-0.53,1.117-0.654
			c0.876-0.253,1.836-0.016,2.5,0.604l2.204,2.085l0.079-3.029c0.021-0.912,0.549-1.756,1.324-2.199
			c1.128-0.599,2.499-0.321,3.29,0.628l1.039,1.247l1.023-1.263c0.78-0.933,2.193-1.2,3.253-0.617
			c0.797,0.442,1.318,1.292,1.345,2.209l0.101,3.003l2.184-2.059c0.664-0.63,1.645-0.868,2.51-0.609
			c0.422,0.124,0.796,0.346,1.112,0.654c0.56,0.556,0.823,1.318,0.765,2.106l0.116,1.604l1.619-0.153
			c0.686,0,1.334,0.271,1.824,0.768c0.322,0.313,0.554,0.693,0.665,1.118c0.253,0.875,0.021,1.838-0.612,2.502l-2.066,2.181
			l3.016,0.098c0.913,0.031,1.751,0.551,2.194,1.334c0.222,0.398,0.337,0.825,0.337,1.263c0,0.786-0.337,1.514-0.954,2.015
			l-1.261,1.039l1.261,1.033c0.591,0.485,0.938,1.224,0.938,1.999c0,0.438-0.11,0.87-0.327,1.239
			c-0.453,0.812-1.275,1.318-2.204,1.35l-2.995,0.101l2.046,2.178c0.644,0.675,0.865,1.619,0.612,2.51
			c-0.116,0.422-0.343,0.812-0.665,1.118c-0.495,0.496-0.991,0.728-2.094,0.754l-1.629-0.152l0.152,1.635
			c0.079,0.774-0.189,1.529-0.748,2.077c-0.322,0.327-0.702,0.549-1.107,0.67c-0.887,0.253-1.862,0.011-2.531-0.611l-2.173-2.041
			l-0.101,2.995c-0.026,0.918-0.548,1.751-1.35,2.199c-1.013,0.564-2.468,0.332-3.259-0.617l-1.034-1.25l-1.028,1.25
			c-0.785,0.938-2.204,1.192-3.264,0.612c-0.797-0.443-1.318-1.276-1.345-2.194l-0.101-3.006l-2.178,2.052
			c-0.659,0.622-1.608,0.864-2.526,0.606c-0.411-0.116-0.791-0.338-1.107-0.659c-0.564-0.554-0.812-1.292-0.749-2.104l-0.11-1.603
			l-1.624,0.152c-0.686,0-1.351-0.274-1.835-0.754c-0.316-0.316-0.549-0.707-0.654-1.129c-0.253-0.881-0.021-1.846,0.591-2.51
			l2.077-2.178l-3.016-0.101c-0.934-0.031-1.762-0.538-2.205-1.329c-0.216-0.396-0.332-0.833-0.332-1.26
			c0-0.786,0.332-1.514,0.949-2.01l1.255-1.033L151.163,94.764z M142.593,64.818c-0.67-0.13-1.34-0.135-2.01-0.193
			c0.512-0.72,1.208-1.432,2.025-1.577c1.408-0.206,2.942,1.181,4.197,2.66c0.665,0.791,1.688,2.01,3.175,3.059
			c-2.763,0.923-6.513,1.717-8.532,0.443c-0.633-0.396-0.991-1.086-1.224-1.92c0.602,0.045,1.229,0.056,1.835,0.174
			c0.755,0.15,1.45-0.335,1.593-1.057C143.806,65.678,143.326,64.971,142.593,64.818z M150.134,50.559l0.2-1.603
			c0.242-2.447,0.549-3.955,3.85-4.122c0.295,0,0.58,0.042,0.907,0.082c1.444,0.182,3.285,0.135,5.241-0.69
			c-0.284,0.841-0.78,1.803-1.624,2.671l-1.856,1.911l2.637,0.361c1.061,0.147,1.852,0.562,2.669,1
			c0.749,0.396,1.571,0.833,2.589,1.015c-1.018,1.242-2.932,2.317-5.526,1.463l-3.364-1.118l1.771,3.069
			c0.644,1.102,0.886,2.191,0.944,3.109c-2.104-1.646-3.676-1.862-4.894-2.025c-0.359-0.047-0.696-0.092-1.023-0.192
			C149.627,54.521,149.717,52.981,150.134,50.559z M38.997,55.5c-0.33,0.108-0.654,0.145-1.016,0.192
			c-1.236,0.163-2.797,0.374-4.88,2.02c0.063-0.923,0.306-2.012,0.939-3.104l1.771-3.069l-3.364,1.113
			c-2.592,0.849-4.53-0.222-5.514-1.464c1.016-0.176,1.83-0.614,2.587-1.015c0.814-0.438,1.603-0.847,2.66-0.997l2.643-0.363
			l-1.859-1.912c-0.852-0.878-1.35-1.835-1.635-2.676c1.933,0.819,3.792,0.872,5.255,0.696c0.316-0.04,0.63-0.071,1.042-0.082
			c3.164,0.161,3.473,1.674,3.715,4.121l0.2,1.603C41.928,52.981,42.021,54.521,38.997,55.5z M50.203,69.216
			c-2.004,1.258-5.77,0.475-8.543-0.442c1.5-1.076,2.586-2.36,3.396-3.307c1.042-1.227,2.51-2.655,3.979-2.413
			c0.828,0.14,1.523,0.852,2.03,1.577c-0.67,0.053-1.34,0.063-2.01,0.195c-0.732,0.145-1.207,0.856-1.057,1.587
			c0.14,0.728,0.831,1.221,1.593,1.058c0.606-0.119,1.231-0.129,1.837-0.18C51.188,68.125,50.833,68.81,50.203,69.216z
			 M74.637,126.826c0.686-1.662,1.221-3.396,1.576-5.2c0.546-2.727,0.53-5.474,0.087-8.137h39.049
			c-0.442,2.663-0.458,5.41,0.09,8.137c0.354,1.804,0.886,3.538,1.577,5.2H74.637z M116.837,65.398
			c-0.564,1.479-1.075,3-1.397,4.593c-0.585,2.927-0.574,5.888-0.031,8.733H76.24c0.551-2.845,0.562-5.806-0.026-8.733
			c-0.324-1.593-0.82-3.108-1.4-4.593H116.837z M76.828,94.426H64.393c3.349-1.732,6.297-4.211,8.435-7.438
			c1.16-1.74,1.949-3.631,2.592-5.563h40.764c0.633,1.933,1.444,3.823,2.589,5.563c2.173,3.267,5.157,5.767,8.564,7.502h-12.546
			c-0.749,0-1.35,0.611-1.35,1.35c0,0.754,0.601,1.351,1.35,1.351h12.435c-3.354,1.75-6.296,4.219-8.438,7.445
			c-1.26,1.92-2.136,4.008-2.784,6.165H75.607c-0.625-2.146-1.489-4.234-2.779-6.165c-2.178-3.259-5.158-5.764-8.564-7.509h12.538
			c0.756,0,1.35-0.602,1.35-1.351C78.178,95.027,77.574,94.426,76.828,94.426z M3.622,94.784c-0.596-0.495-0.947-1.224-0.947-2.004
			c0-0.438,0.114-0.87,0.33-1.247c0.453-0.81,1.268-1.318,2.204-1.345l2.995-0.092l-2.046-2.18
			c-0.644-0.681-0.875-1.622-0.604-2.511c0.113-0.427,0.34-0.812,0.659-1.123c0.501-0.498,1.17-0.73,2.093-0.757l1.627,0.146
			l-0.153-1.625c-0.084-0.773,0.2-1.524,0.751-2.075c0.319-0.319,0.696-0.545,1.113-0.665c0.901-0.248,1.856-0.011,2.521,0.612
			l2.178,2.041l0.098-2.992c0.026-0.928,0.538-1.748,1.342-2.202c1.039-0.572,2.481-0.324,3.262,0.62l1.028,1.247l1.036-1.247
			c0.778-0.934,2.191-1.197,3.262-0.62c0.805,0.454,1.311,1.274,1.34,2.202l0.098,3.003l2.18-2.057
			c0.665-0.617,1.637-0.854,2.51-0.606c0.433,0.119,0.799,0.34,1.118,0.659c0.562,0.557,0.814,1.297,0.762,2.102l0.113,1.608
			l1.614-0.155c0.686,0,1.35,0.279,1.828,0.757c0.321,0.316,0.556,0.706,0.662,1.128c0.255,0.878,0.024,1.841-0.599,2.505
			l-2.078,2.186l3.024,0.092c0.933,0.026,1.753,0.53,2.196,1.334c0.216,0.393,0.33,0.825,0.33,1.258c0,0.78-0.335,1.509-0.944,2.009
			l-1.247,1.039l1.242,1.034c0.604,0.506,0.949,1.233,0.949,2.009c0,0.433-0.114,0.865-0.325,1.25
			c-0.442,0.791-1.294,1.308-2.22,1.34l-3.006,0.115l2.078,2.178c0.633,0.66,0.865,1.609,0.599,2.516
			c-0.114,0.406-0.333,0.791-0.651,1.107c-0.499,0.49-1.184,0.76-2.091,0.76l-1.619-0.147l0.14,1.603
			c0.071,0.791-0.206,1.551-0.762,2.1c-0.325,0.316-0.696,0.537-1.128,0.658c-0.886,0.259-1.835,0.021-2.489-0.605l-2.204-2.1
			l-0.084,3.038c-0.024,0.917-0.541,1.761-1.329,2.204c-1.097,0.585-2.5,0.327-3.272-0.622l-1.05-1.266l-1.02,1.266
			c-0.789,0.949-2.223,1.202-3.262,0.622c-0.789-0.443-1.316-1.287-1.345-2.204l-0.1-3.027l-2.178,2.078
			c-0.665,0.627-1.582,0.88-2.537,0.596c-0.396-0.11-0.783-0.332-1.086-0.644c-0.562-0.564-0.825-1.318-0.772-2.104l-0.103-1.604
			l-1.614,0.147c-0.701,0-1.339-0.269-1.843-0.77c-0.322-0.306-0.549-0.696-0.651-1.113c-0.267-0.88-0.034-1.84,0.599-2.505
			l2.067-2.172l-2.995-0.105c-0.931-0.032-1.772-0.56-2.215-1.34c-0.211-0.4-0.335-0.822-0.335-1.261
			c0-0.785,0.335-1.513,0.944-2.009l1.271-1.044L3.622,94.784z"/>
		<path d="M169.672,108.284c6.86,0,12.45-5.585,12.45-12.456c0-1.956-0.506-3.794-1.318-5.444c-0.031-0.045-0.011-0.098-0.053-0.129
			c0-0.008-0.011,0-0.021-0.008c-1.213-2.373-3.133-4.298-5.517-5.495c-0.016-0.021-0.011-0.051-0.026-0.066
			c-0.11-0.103-0.253-0.092-0.363-0.15c-1.577-0.72-3.302-1.144-5.147-1.144c-1.866,0-3.612,0.438-5.199,1.17
			c-0.101,0.059-0.222,0.042-0.306,0.124c-0.017,0.016-0.017,0.04-0.026,0.056c-2.39,1.197-4.324,3.124-5.532,5.513h-0.005
			c-0.011,0.01-0.006,0.026-0.017,0.037c-0.838,1.68-1.36,3.544-1.36,5.537C157.227,102.689,162.806,108.284,169.672,108.284z
			 M161.203,100.564l2.9-2.9l3.665,3.659l-2.927,2.922C163.323,103.364,162.079,102.104,161.203,100.564z M166.018,95.766
			l3.659-3.66l3.66,3.66l-3.66,3.648L166.018,95.766z M169.672,105.584c-0.728,0-1.424-0.105-2.099-0.242l2.104-2.109l2.109,2.104
			C171.096,105.479,170.4,105.584,169.672,105.584z M174.502,104.245l-2.921-2.922l3.659-3.659l2.89,2.9
			C177.271,102.094,176.021,103.359,174.502,104.245z M179.175,93.74c0.142,0.675,0.242,1.371,0.242,2.088
			c0,0.686-0.079,1.351-0.211,1.994l-2.057-2.057L179.175,93.74z M178.078,90.998l-2.837,2.848l-3.659-3.657l2.815-2.824
			C175.942,88.24,177.203,89.487,178.078,90.998z M169.672,86.091c0.686,0,1.35,0.074,1.993,0.203l-1.988,1.993l-1.982-1.993
			C168.328,86.16,168.992,86.091,169.672,86.091z M164.942,87.37l2.821,2.829l-3.66,3.657l-2.842-2.854
			C162.142,89.477,163.413,88.234,164.942,87.37z M159.927,95.828c0-0.728,0.1-1.424,0.242-2.109l2.03,2.036l-2.062,2.067
			C160.006,97.179,159.927,96.514,159.927,95.828z"/>
	</g>
</g>
<g>
</g>
<g>
</g>
<g>
</g>
<g>
</g>
<g>
</g>
<g>
</g>
<g>
</g>
<g>
</g>
<g>
</g>
<g>
</g>
<g>
</g>
<g>
</g>
<g>
</g>
<g>
</g>
<g>
</g>
</svg>
