<?xml version="1.0" encoding="iso-8859-1"?>
<!-- Generator: Adobe Illustrator 16.0.0, SVG Export Plug-In . SVG Version: 6.00 Build 0)  -->
<!DOCTYPE svg PUBLIC "-//W3C//DTD SVG 1.1//EN" "http://www.w3.org/Graphics/SVG/1.1/DTD/svg11.dtd">
<svg version="1.1" id="Capa_1" xmlns="http://www.w3.org/2000/svg" xmlns:xlink="http://www.w3.org/1999/xlink" x="0px" y="0px"
	 width="243.59px" height="243.59px" viewBox="0 0 243.59 243.59" style="enable-background:new 0 0 243.59 243.59;"
	 xml:space="preserve">
<g>
	<g>
		<path d="M59.537,116.096c-1.671-1.69-3.885-2.625-6.324-2.637c-4.838,0-8.817,3.939-8.854,8.793
			c-0.012,2.362,0.898,4.591,2.551,6.283c1.662,1.693,3.882,2.625,6.248,2.637c0.006,0,0.055,0,0.061,0
			c4.844,0,8.823-3.939,8.86-8.792C62.091,120.011,61.187,117.779,59.537,116.096z M53.219,126.186v2.484l-0.03-2.484
			c-1.035-0.006-1.994-0.402-2.725-1.157c-0.731-0.743-1.13-1.711-1.124-2.746c0.018-2.113,1.753-3.842,3.903-3.842
			c1.035,0.006,1.998,0.411,2.731,1.154c0.737,0.743,1.124,1.714,1.118,2.749C57.073,124.462,55.338,126.186,53.219,126.186z"/>
		<path d="M181.536,122.252c-0.013,2.362,0.895,4.591,2.551,6.283c1.662,1.693,3.885,2.625,6.248,2.637c0.006,0,0.061,0,0.066,0
			c4.841,0,8.817-3.939,8.854-8.792c0.013-2.363-0.895-4.595-2.539-6.284c-1.675-1.69-3.885-2.625-6.32-2.637
			C185.561,113.459,181.572,117.398,181.536,122.252z M193.147,119.594c0.731,0.737,1.127,1.714,1.121,2.749
			c-0.019,2.113-1.754,3.843-3.867,3.843v2.484l-0.036-2.484c-1.035-0.006-1.991-0.402-2.722-1.157
			c-0.731-0.743-1.133-1.711-1.127-2.746c0.019-2.113,1.754-3.842,3.903-3.842C191.461,118.452,192.43,118.857,193.147,119.594z"/>
		<path d="M242.08,120.023c-4.104-1.757-40.347-17.184-49.968-17.184c-4.664,0-8.902,1.72-12.264,4.469
			c0.359-1.875,0.621-3.778,0.64-5.754c0.073-7.17-2.661-13.947-7.679-19.074c-5.029-5.124-11.752-7.986-18.912-8.056
			c-0.11,0.015-0.189,0.063-0.293,0.088c-1.218-5.468-6.083-9.615-12.025-9.669c-6.747,0-12.282,5.48-12.34,12.227
			c-0.03,3.297,1.212,6.409,3.517,8.765c2.313,2.351,5.395,3.666,8.695,3.699c0.012,0,0.121,0,0.128,0
			c6.034,0,11.069-4.396,12.117-10.145c0.049,0,0.091,0.031,0.14,0.031c5.846,0.055,11.308,2.381,15.406,6.558
			c4.092,4.171,6.314,9.691,6.259,15.533c-0.061,6.33-2.332,12.048-5.955,16.672c-5.846-5.331-13.518-8.686-22.03-8.705
			c-0.036,0-0.085,0-0.122,0c-5.846,0-11.496,1.273-16.669,3.611c3.249-5.886,5.002-12.52,5.015-19.431
			c0.012-1.376-1.108-2.494-2.484-2.5c0,0,0,0-0.006,0c-1.37,0-2.481,1.111-2.487,2.488c-0.024,8.948-3.44,17.318-9.466,23.87
			c-5.831-6.409-9.377-14.916-9.277-24.244c0.012-1.376-1.099-2.506-2.469-2.518c-1.392-0.07-2.509,1.083-2.521,2.469
			c-0.073,7.265,1.809,14.09,5.109,20.033c-5.109-2.399-10.781-3.796-16.772-3.857c-0.107,0-0.207,0-0.326,0
			c-8.491,0-16.194,3.315-22.055,8.628c-3.608-4.725-5.831-10.555-5.809-16.955c0.018-5.839,2.311-11.323,6.452-15.442
			c4.134-4.104,9.608-6.36,15.427-6.36c0.018,0,0.042,0,0.07,0h0.006c0.055,0,0.091-0.027,0.137-0.027
			c0.978,5.818,6.01,10.284,12.108,10.303h0.03c6.79,0,12.328-5.526,12.34-12.31c0.012-3.297-1.267-6.402-3.593-8.741
			c-2.323-2.338-5.422-3.635-8.753-3.641c-5.824,0-10.699,4.07-11.983,9.508c-0.131-0.018-0.244-0.076-0.375-0.076
			c-7.146,0-13.868,2.771-18.943,7.807c-5.082,5.057-7.907,11.798-7.925,18.968c-0.006,1.848,0.244,3.629,0.53,5.395
			c-3.185-2.259-7.033-3.617-11.222-3.617c-9.615,0-45.86,15.427-49.971,17.184C0.6,120.416,0,121.32,0,122.318
			c0,0.999,0.6,1.906,1.51,2.296c4.104,1.754,40.356,17.184,49.971,17.184c4.071,0,7.855-1.272,10.991-3.422
			c-0.149,1.206-0.393,2.405-0.405,3.659c-0.073,7.167,2.658,13.938,7.682,19.078c5.026,5.12,11.749,7.982,18.919,8.062
			c0.006,0,0.012,0,0.024,0c0.094,0,0.167-0.055,0.268-0.067c1.236,5.456,6.068,9.585,11.893,9.64c0.006,0,0.112,0,0.119,0
			c6.747,0,12.282-5.48,12.346-12.228c0.03-3.288-1.218-6.405-3.522-8.756c-2.314-2.351-5.395-3.666-8.817-3.708
			c-6.031,0-11.067,4.396-12.117,10.145c-0.049,0-0.091-0.03-0.137-0.03c-5.849-0.055-11.311-2.381-15.405-6.559
			c-4.092-4.171-6.318-9.7-6.26-15.533c0.067-6.314,2.311-12.068,5.909-16.709c5.849,5.347,13.542,8.708,22.073,8.732
			c0.037,0,0.083,0,0.125,0c5.849,0,11.49-1.267,16.672-3.605c-3.248,5.883-4.999,12.52-5.023,19.425
			c-0.006,1.376,1.114,2.497,2.487,2.503h0.006c1.37,0,2.487-1.115,2.494-2.49c0.024-8.945,3.438-17.318,9.459-23.87
			c5.836,6.412,9.377,14.925,9.283,24.253c-0.012,1.377,1.093,2.503,2.47,2.516c1.284-0.232,2.508-1.097,2.521-2.467
			c0.073-7.264-1.809-14.09-5.108-20.033c5.108,2.399,10.783,3.793,16.775,3.86c0.104,0,0.207,0,0.322,0
			c8.494,0,16.203-3.318,22.049-8.641c3.611,4.726,5.846,10.559,5.821,16.965c-0.024,5.839-2.313,11.313-6.454,15.442
			c-4.129,4.104-9.609,6.369-15.43,6.369c-0.019,0-0.043,0-0.067,0c0,0,0,0-0.006,0c-0.049,0-0.086,0.023-0.134,0.023
			c-0.975-5.82-6.017-10.284-12.143-10.303c-6.783,0-12.33,5.529-12.343,12.312c-0.012,3.295,1.267,6.4,3.593,8.738
			s5.426,3.635,8.714,3.641c0,0,0.036,0,0.049,0c5.815,0,10.681-4.061,11.971-9.505c0.128,0.03,0.244,0.079,0.372,0.079
			c7.143,0,13.877-2.771,18.943-7.806c5.09-5.061,7.916-11.808,7.928-18.968c0-1.778-0.243-3.495-0.512-5.194
			c3.35,2.734,7.575,4.457,12.239,4.457c9.621,0,45.857-15.436,49.968-17.184c0.913-0.396,1.51-1.297,1.51-2.296
			C243.59,121.326,242.993,120.416,242.08,120.023z M141.579,84.551v2.493l-0.073-2.493c-1.967-0.019-3.806-0.798-5.176-2.207
			c-1.383-1.401-2.119-3.255-2.101-5.225c0.036-4.022,3.337-7.289,7.429-7.289c4.043,0.043,7.318,3.38,7.282,7.432
			C148.904,81.284,145.604,84.551,141.579,84.551z M101.43,69.836c1.958,0.006,3.806,0.78,5.194,2.171
			c1.385,1.389,2.146,3.243,2.14,5.207c-0.012,4.046-3.312,7.337-7.359,7.337v2.493l-0.018-2.493
			c-4.059-0.012-7.359-3.322-7.347-7.383C94.062,73.121,97.359,69.836,101.43,69.836z M101.067,159.043
			c1.967,0.023,3.806,0.803,5.176,2.203c1.385,1.401,2.122,3.252,2.104,5.225c-0.04,4.031-3.337,7.289-7.359,7.289v2.49l-0.07-2.49
			c-4.052-0.043-7.319-3.379-7.283-7.423C93.675,162.307,96.979,159.043,101.067,159.043z M141.171,173.754v2.484l-0.024-2.484
			c-1.967-0.006-3.812-0.779-5.2-2.18c-1.389-1.389-2.149-3.24-2.144-5.2c0.013-4.044,3.312-7.344,7.38-7.344
			c4.056,0.013,7.356,3.325,7.344,7.392C148.515,170.478,145.214,173.754,141.171,173.754z M51.505,136.805
			c-6.278,0-29.35-9.018-42.551-14.492c13.207-5.468,36.273-14.492,42.551-14.492c7.98,0,14.477,6.497,14.477,14.492
			S59.479,136.805,51.505,136.805z M95.063,129.127c-7.23-0.019-13.768-2.875-18.718-7.411c5.051-4.561,11.685-7.377,18.968-7.328
			c8.013,0.082,15.363,2.85,21.281,7.39c-6.159,4.688-13.554,7.35-21.425,7.35C95.146,129.127,95.103,129.127,95.063,129.127z
			 M147.26,129.205c-8.014-0.085-15.363-2.85-21.281-7.392c6.162-4.688,13.561-7.35,21.428-7.35c0.036,0,0.073,0,0.109,0
			c7.21,0.018,13.713,2.855,18.669,7.361C161.131,126.355,154.5,129.182,147.26,129.205z M192.112,136.805
			c-7.982,0-14.479-6.497-14.479-14.492s6.497-14.492,14.479-14.492c6.278,0,29.35,9.018,42.552,14.492
			C221.462,127.787,198.396,136.805,192.112,136.805z"/>
	</g>
</g>
<g>
</g>
<g>
</g>
<g>
</g>
<g>
</g>
<g>
</g>
<g>
</g>
<g>
</g>
<g>
</g>
<g>
</g>
<g>
</g>
<g>
</g>
<g>
</g>
<g>
</g>
<g>
</g>
<g>
</g>
</svg>
