<?xml version="1.0" encoding="iso-8859-1"?>
<!-- Generator: Adobe Illustrator 16.0.0, SVG Export Plug-In . SVG Version: 6.00 Build 0)  -->
<!DOCTYPE svg PUBLIC "-//W3C//DTD SVG 1.1//EN" "http://www.w3.org/Graphics/SVG/1.1/DTD/svg11.dtd">
<svg version="1.1" id="Capa_1" xmlns="http://www.w3.org/2000/svg" xmlns:xlink="http://www.w3.org/1999/xlink" x="0px" y="0px"
	 width="126.313px" height="126.314px" viewBox="0 0 126.313 126.314" style="enable-background:new 0 0 126.313 126.314;"
	 xml:space="preserve">
<g>
	<path d="M126.12,43.369c0.696-4.602-0.501-9.208-3.354-12.971c-1.461-1.911-3.28-3.504-5.348-4.698
		c1.329-1.324,2.142-2.979,2.3-4.901c0.253-3.215-1.256-6.434-2.827-7.831c-3.902-3.479-8.279-5.245-13.015-5.245
		c-18.479,0-36.236,26.542-36.998,27.675c-0.043,0.077-0.043,0.164-0.082,0.25c-0.031,0.074-0.053,0.129-0.068,0.208
		c-0.077,0.304-0.066,0.602,0.073,0.881c0.014,0.011,0,0.021,0.014,0.034c0.011,0.016,0.031,0.026,0.042,0.042
		c0.113,0.201,0.264,0.367,0.453,0.485c0.113,0.066,0.243,0.077,0.367,0.108c0.107,0.026,0.2,0.092,0.318,0.092
		c10.927,0.113,16.391,1.964,21.231,4.714c8.712,4.946,14.08,6.966,18.51,6.966c3.733,0,6.84-1.448,9.74-4.543
		c3.095-3.309,4.514-6.781,4.182-10.322c-0.032-0.335-0.143-0.633-0.211-0.963c1.771,2.917,2.536,6.26,2.024,9.624
		c-1.455,9.519-8.896,12.847-21.974,17.912c-2.61,1.015-5.311,1.896-8.18,2.829c-12.45,4.086-25.263,8.369-30.161,22.918
		C58.277,72.09,45.453,67.808,32.994,63.716c-2.845-0.939-5.535-1.819-8.166-2.829C11.739,55.816,4.272,52.483,2.846,42.975
		c-0.503-3.364,0.253-6.702,2.025-9.613c-0.061,0.33-0.18,0.612-0.211,0.957c-0.335,3.536,1.086,7.014,4.179,10.317
		c2.9,3.096,5.988,4.543,9.743,4.543c4.411,0,9.785-2.02,18.51-6.966c4.838-2.75,10.288-4.606,21.228-4.714
		c0.113,0,0.211-0.066,0.319-0.092c0.124-0.032,0.259-0.042,0.367-0.108c0.19-0.113,0.334-0.284,0.454-0.485
		c0.01-0.016,0.039-0.026,0.05-0.042c0.005-0.013,0-0.023,0.005-0.034c0.134-0.279,0.134-0.577,0.074-0.881
		c-0.016-0.079-0.037-0.134-0.068-0.208c-0.04-0.087-0.04-0.174-0.082-0.25C58.676,34.264,40.925,7.722,22.452,7.722
		c-4.74,0-9.115,1.767-13.02,5.239c-1.559,1.397-3.088,4.612-2.824,7.823c0.158,1.928,0.962,3.591,2.291,4.915
		c-2.069,1.2-3.905,2.792-5.353,4.709c-2.85,3.758-4.05,8.364-3.354,12.96c1.664,10.969,10.077,14.752,23.686,20.033
		c0.011,0,0.021,0.006,0.032,0.011c-6.431,0.72-11.464,4.216-14.37,10.323c-1.495-0.254-3.056-0.158-4.432,0.585
		c-1.659,0.896-2.845,2.378-3.386,4.171s-0.335,3.697,0.562,5.337C3.521,86.096,5.881,87.5,8.462,87.5
		c1.16,0,2.315-0.296,3.325-0.839c3.414-1.851,4.672-6.122,2.837-9.529c-0.591-1.07-1.508-1.846-2.534-2.457
		c3.834-7.778,11.47-10.537,21.656-7.691c0.14,0.042,0.274-0.042,0.419-0.053c11.377,3.768,22.712,8.134,26.741,21.244
		c0.757,2.457,0.979,4.936,0.836,7.361c-0.021,0.042-0.063,0.042-0.074,0.09c-2.834,7.082-7.765,10.188-13.964,8.696
		c-2.333-0.56-4.306-1.983-5.547-4.019c-1.248-2.036-1.635-4.436-1.079-6.761c0.907-3.713,4.612-5.996,8.332-5.11
		c1.36,0.333,2.51,1.16,3.246,2.357c0.738,1.202,0.959,2.6,0.625,3.971c-0.232,0.986-0.836,1.762-1.608,2.289
		c-0.021-0.354-0.098-0.718-0.253-1.05c-0.699-1.477-2.458-2.125-3.937-1.439c-1.487,0.696-2.133,2.447-1.437,3.939
		c0.227,0.485,0.588,0.844,1.015,1.129c0.171,0.332,0.464,0.574,0.841,0.675c1.719,0.4,3.501,0.116,5.012-0.797
		c1.505-0.928,2.576-2.389,2.987-4.118c0.496-2.067,0.145-4.192-0.962-6.007c-1.107-1.813-2.845-3.074-4.915-3.56
		c-5.118-1.233-10.317,1.946-11.588,7.088c-0.723,3.037-0.222,6.164,1.421,8.822c1.635,2.643,4.185,4.504,7.225,5.231
		c1.236,0.301,2.437,0.442,3.597,0.442c3.288,0,6.23-1.238,8.693-3.496c-0.129,0.243-0.193,0.518-0.34,0.76
		c-3.314,5.526-9.205,9.492-16.161,10.853c-5.089,1.002-10.254-0.063-14.555-2.953c-4.298-2.89-7.214-7.288-8.213-12.371
		c-0.134-0.728-0.815-1.202-1.582-1.065c-0.728,0.147-1.215,0.854-1.057,1.593c1.128,5.779,4.443,10.8,9.347,14.091
		c3.694,2.479,7.944,3.775,12.285,3.775c1.426,0,2.845-0.137,4.276-0.422c7.718-1.498,14.268-5.928,17.961-12.118
		c0.762-1.255,1.339-2.584,1.83-3.935c0.499,1.351,1.076,2.689,1.835,3.955c3.715,6.181,10.254,10.6,17.954,12.098
		c1.435,0.285,2.853,0.422,4.282,0.422c4.355,0,8.605-1.297,12.281-3.775c4.904-3.291,8.222-8.312,9.35-14.091
		c0.138-0.738-0.337-1.445-1.06-1.593c-0.786-0.132-1.45,0.338-1.582,1.065c-0.997,5.083-3.918,9.481-8.211,12.371
		c-4.303,2.9-9.471,3.935-14.555,2.964c-6.945-1.36-12.846-5.315-16.152-10.853c-0.135-0.243-0.211-0.507-0.335-0.76
		c2.452,2.268,5.393,3.485,8.678,3.485c1.16,0,2.367-0.142,3.597-0.442c3.032-0.728,5.59-2.589,7.225-5.231
		c1.64-2.658,2.136-5.774,1.418-8.822c-1.233-5.142-6.407-8.332-11.575-7.088c-2.072,0.496-3.828,1.756-4.936,3.57
		c-1.107,1.804-1.447,3.939-0.949,5.996c0.406,1.729,1.461,3.19,2.974,4.118c1.503,0.929,3.286,1.219,5.016,0.797
		c0.374-0.095,0.675-0.343,0.838-0.665c0.422-0.295,0.786-0.638,1.019-1.139c0.695-1.482,0.068-3.243-1.435-3.934
		c-1.466-0.696-3.243-0.053-3.935,1.434c-0.152,0.338-0.231,0.696-0.253,1.055c-0.78-0.537-1.382-1.308-1.613-2.299
		c-0.332-1.36-0.105-2.773,0.633-3.966c0.728-1.191,1.888-2.024,3.259-2.352c3.713-0.896,7.414,1.402,8.311,5.094
		c0.564,2.331,0.169,4.735-1.07,6.771c-1.25,2.035-3.232,3.47-5.558,4.019c-6.165,1.481-11.122-1.614-13.954-8.701
		c-0.01-0.032-0.053-0.043-0.063-0.074c-0.134-2.437,0.077-4.915,0.82-7.372c4.029-13.11,15.364-17.466,26.733-21.239
		c0.138,0.006,0.285,0.101,0.433,0.048c10.178-2.84,17.824-0.087,21.663,7.691c-1.018,0.611-1.945,1.392-2.552,2.468
		c-1.835,3.406-0.56,7.668,2.837,9.514c1.013,0.559,2.173,0.854,3.333,0.854c2.584,0,4.946-1.413,6.17-3.681
		c0.896-1.65,1.097-3.544,0.559-5.337c-0.532-1.793-1.729-3.279-3.375-4.166c-1.382-0.748-2.932-0.844-4.43-0.59
		c-2.921-6.107-7.952-9.608-14.396-10.323c0.011-0.005,0.021-0.011,0.042-0.016C116.048,58.126,124.465,54.342,126.12,43.369z
		 M75.949,28.112l4.081,1.034c-2.974,1.213-5.59,2.381-7.699,3.37C73.344,31.213,74.552,29.723,75.949,28.112z M81.059,31.646
		l-1.582,4.179c-1.813-0.351-3.86-0.62-6.186-0.799C75.59,33.95,78.237,32.785,81.059,31.646z M84.444,30.327
		c1.793-0.675,3.644-1.313,5.489-1.912l-3.712,9.342c-1.224-0.49-2.573-0.938-4.082-1.339L84.444,30.327z M92.824,24.721
		l-9.145-4.493c1.382-1.229,2.837-2.413,4.335-3.509c0.095,0.103,0.095,0.242,0.189,0.324l8.659,6.682
		C95.514,24.015,94.174,24.344,92.824,24.721z M96.558,11.913l8.585,10.665c-1.529,0.066-3.111,0.2-4.757,0.459l-10.156-7.839
		C92.286,13.858,94.396,12.735,96.558,11.913z M106.487,25.209l-6.186,19.52c-1.487-0.594-3.164-1.371-5.021-2.32l6.159-16.807
		C103.223,25.338,104.905,25.209,106.487,25.209z M117.019,20.571c-0.085,0.949-0.411,1.764-0.918,2.495l-7.161-11.742
		c2.151,0.751,4.219,1.927,6.159,3.652C116.017,15.807,117.219,18.222,117.019,20.571z M105.522,10.581
		c0.031,0.156-0.011,0.319,0.073,0.459l7.699,12.598c-1.402-0.535-2.942-0.854-4.608-1l-9.334-11.594
		c1.497-0.371,3.021-0.622,4.535-0.622C104.426,10.417,104.963,10.52,105.522,10.581z M81.549,22.201l7.479,3.665
		c-1.651,0.535-3.27,1.081-4.842,1.669c-0.084-0.047-0.115-0.15-0.211-0.171l-5.969-1.514
		C79.103,24.637,80.283,23.417,81.549,22.201z M88.679,38.865l4.577-11.448c1.72-0.491,3.449-0.923,5.115-1.269l-5.505,14.995
		c-0.754-0.409-1.498-0.82-2.326-1.284C89.955,39.524,89.333,39.189,88.679,38.865z M102.854,45.641l6.424-20.261
		c0.01,0,0.031,0.006,0.062,0.006c0.19,0.358,0.507,0.638,0.949,0.696c1.256,0.153,2.469,0.519,3.639,0.978l-5.874,19.177
		c-0.021,0.069,0.037,0.129,0.021,0.206c-0.115,0-0.231,0.031-0.337,0.031C106.276,46.469,104.684,46.203,102.854,45.641z
		 M115.474,42.786c-1.45,1.545-2.911,2.516-4.493,3.082l5.258-17.159c1.17,1.36,2.499,3.391,2.721,5.858
		C119.201,37.304,118.031,40.07,115.474,42.786z M36.055,15.192l-10.157,7.833c-1.647-0.258-3.229-0.393-4.77-0.459l8.588-10.665
		C31.887,12.735,34.004,13.858,36.055,15.192z M41.84,30.327l2.31,6.096c-1.5,0.4-2.85,0.849-4.071,1.339l-3.715-9.342
		C38.204,29.014,40.047,29.652,41.84,30.327z M53.945,32.51c-2.102-0.989-4.714-2.157-7.688-3.364l4.076-1.034
		C51.726,29.723,52.93,31.213,53.945,32.51z M52.985,35.026c-2.323,0.179-4.369,0.448-6.183,0.799l-1.582-4.179
		C48.05,32.785,50.694,33.95,52.985,35.026z M29.435,23.711l8.651-6.673c0.114-0.082,0.114-0.216,0.19-0.325
		c1.495,1.097,2.953,2.286,4.34,3.515l-9.136,4.488C32.113,24.344,30.774,24.009,29.435,23.711z M24.833,25.607l6.167,16.806
		c-1.856,0.944-3.515,1.717-5.021,2.32l-6.188-19.524C21.379,25.214,23.064,25.344,24.833,25.607z M7.333,34.572
		c0.216-2.468,1.54-4.493,2.71-5.854l5.26,17.149c-1.582-0.566-3.04-1.537-4.493-3.082C8.256,40.07,7.091,37.304,7.333,34.572z
		 M18.226,46.435c-0.01-0.074,0.042-0.135,0.021-0.203L12.372,27.06c1.171-0.459,2.376-0.825,3.649-0.983
		c0.443-0.058,0.757-0.332,0.957-0.696c0.016,0,0.032-0.005,0.048-0.005l6.415,20.261c-1.835,0.562-3.428,0.828-4.854,0.828
		C18.447,46.469,18.339,46.435,18.226,46.435z M35.741,39.859c-0.809,0.464-1.576,0.881-2.331,1.284l-5.508-14.99
		c1.685,0.346,3.396,0.783,5.123,1.269l4.57,11.443C36.952,39.189,36.332,39.524,35.741,39.859z M48.292,25.845l-5.967,1.513
		c-0.103,0.021-0.124,0.124-0.221,0.166c-1.561-0.577-3.185-1.134-4.838-1.663l7.467-3.665
		C45.998,23.417,47.18,24.637,48.292,25.845z M26.961,11.044l-9.336,11.594c-1.679,0.14-3.227,0.464-4.612,0.994l7.702-12.593
		c0.092-0.14,0.042-0.303,0.074-0.454c0.556-0.066,1.097-0.164,1.674-0.164C23.942,10.417,25.461,10.66,26.961,11.044z
		 M11.209,14.976c1.917-1.719,3.987-2.895,6.151-3.646l-7.172,11.73c-0.496-0.73-0.825-1.545-0.917-2.497
		C9.076,18.214,10.276,15.807,11.209,14.976z M10.461,84.292c-2.036,1.107-4.749,0.285-5.849-1.74
		c-0.556-1.018-0.675-2.172-0.34-3.279c0.335-1.098,1.057-2.015,2.078-2.574c0.633-0.337,1.35-0.527,2.062-0.527
		c1.595,0,3.035,0.865,3.802,2.258C13.327,80.528,12.554,83.154,10.461,84.292z M119.939,76.699c1.013,0.56,1.751,1.467,2.089,2.574
		c0.337,1.107,0.2,2.277-0.338,3.279c-1.081,2.025-3.802,2.838-5.854,1.74c-2.088-1.139-2.863-3.765-1.734-5.854
		c0.765-1.402,2.225-2.268,3.807-2.268C118.601,76.171,119.302,76.345,119.939,76.699z"/>
</g>
<g>
</g>
<g>
</g>
<g>
</g>
<g>
</g>
<g>
</g>
<g>
</g>
<g>
</g>
<g>
</g>
<g>
</g>
<g>
</g>
<g>
</g>
<g>
</g>
<g>
</g>
<g>
</g>
<g>
</g>
</svg>
