<?xml version="1.0" encoding="iso-8859-1"?>
<!-- Generator: Adobe Illustrator 16.0.0, SVG Export Plug-In . SVG Version: 6.00 Build 0)  -->
<!DOCTYPE svg PUBLIC "-//W3C//DTD SVG 1.1//EN" "http://www.w3.org/Graphics/SVG/1.1/DTD/svg11.dtd">
<svg version="1.1" id="Capa_1" xmlns="http://www.w3.org/2000/svg" xmlns:xlink="http://www.w3.org/1999/xlink" x="0px" y="0px"
	 width="215.99px" height="215.99px" viewBox="0 0 215.99 215.99" style="enable-background:new 0 0 215.99 215.99;"
	 xml:space="preserve">
<g>
	<path d="M209.577,101.611c-0.675,0-1.271,0.19-1.893,0.38v-3.235c0-0.793-0.443-1.534-1.149-1.911
		c-0.702-0.367-1.562-0.335-2.226,0.113l-10.246,6.945c-0.76,0.511-1.276,1.176-1.656,1.904h-9.661V77.346
		c0-1.199-0.976-2.162-2.151-2.162c-1.191,0-2.162,0.979-2.162,2.162c0,11.037-8.97,20.018-20.013,20.018
		c-8.591,0-15.578-6.99-15.578-15.585c0-6.637,5.396-12.037,12.04-12.037c5.062,0,9.181,4.138,9.181,9.192
		c0,2.175-1.07,4.05-2.652,5.308c-0.338-2.176-2.142-3.9-4.43-3.9c-2.531,0-4.577,2.052-4.577,4.575c0,1.948,1.233,3.597,2.963,4.25
		c0.391,0.583,1.019,1.016,1.783,1.016c6.19,0,11.242-5.055,11.242-11.249c0-7.454-6.064-13.516-13.51-13.516
		c-1.572,0-3.064,0.296-4.515,0.718c1.028-2.756,1.683-5.719,1.683-8.817c0-1.205-0.986-2.162-2.162-2.162s-2.146,0.983-2.146,2.162
		c0,11.451-9.329,20.772-20.777,20.772c-8.923,0-16.179-7.261-16.179-16.184c0-5.123,3.096-9.54,7.535-11.47
		c0,0.016-0.005,0.026-0.005,0.04c0,2.732,2.215,4.957,4.952,4.957c2.731,0,4.951-2.225,4.951-4.957c0-2.138-1.382-3.937-3.29-4.612
		c-0.391-0.469-0.971-0.788-1.63-0.788c-6.808,0-12.656,4.082-15.304,9.914c-2.652-5.833-8.506-9.928-15.319-9.928
		c-0.659,0-1.236,0.319-1.627,0.791c-1.943,0.67-3.364,2.45-3.364,4.623c0,2.732,2.215,4.947,4.96,4.947
		c2.731,0,4.946-2.215,4.946-4.947c0-0.04-0.023-0.066-0.023-0.092c4.472,1.912,7.625,6.349,7.625,11.512
		c0,8.923-7.27,16.185-16.189,16.185c-11.454,0-20.78-9.321-20.78-20.77c0-1.197-0.976-2.16-2.16-2.16
		c-1.181,0-2.154,0.978-2.154,2.16c0,3.106,0.644,6.059,1.685,8.825c-1.448-0.422-2.943-0.718-4.514-0.718
		c-7.457,0.011-13.511,6.075-13.511,13.521c0,6.188,5.055,11.243,11.243,11.243c0.675,0,1.247-0.335,1.664-0.823
		c1.779-0.608,3.082-2.268,3.082-4.271c0-2.521-2.046-4.566-4.569-4.566c-2.233,0-4.016,1.635-4.406,3.741
		c-1.603-1.252-2.684-3.143-2.684-5.323c0-5.065,4.121-9.197,9.181-9.197c6.637,0,12.037,5.395,12.037,12.037
		c0,8.585-6.987,15.583-15.578,15.583c-11.045,0-20.013-8.973-20.013-20.01c0-1.205-0.983-2.162-2.162-2.162
		c-1.176,0-2.149,0.984-2.149,2.162v28.46H23.129c-0.346-0.484-0.72-0.954-1.242-1.308l-10.238-6.947
		c-0.664-0.454-1.529-0.496-2.225-0.114c-0.714,0.367-1.15,1.107-1.15,1.912v2.637c-0.606-0.189-1.226-0.38-1.891-0.38
		C2.869,101.611,0,104.473,0,108c0,3.528,2.845,6.387,6.383,6.387c0.665,0,1.269-0.19,1.891-0.38v3.232
		c0,0.797,0.436,1.535,1.15,1.914c0.33,0.169,0.665,0.254,1.015,0.254c0.422,0,0.841-0.116,1.221-0.364l10.244-6.945
		c0.767-0.512,1.279-1.176,1.664-1.909h9.658v28.461c0,1.197,0.973,2.162,2.157,2.162c1.181,0,2.154-0.976,2.154-2.162
		c0-11.037,8.967-20.018,20.013-20.018c8.59,0,15.578,6.998,15.578,15.583c0,6.634-5.395,12.034-12.037,12.034
		c-5.065,0-9.187-4.135-9.187-9.192c0-2.178,1.076-4.05,2.658-5.31c0.334,2.178,2.138,3.896,4.438,3.896
		c2.523,0,4.569-2.046,4.569-4.572c0-1.945-1.237-3.596-2.964-4.25c-0.39-0.58-1.021-1.013-1.782-1.013
		c-6.194,0-11.243,5.052-11.243,11.248c0,7.462,6.064,13.517,13.511,13.517c1.571,0,3.066-0.296,4.514-0.718
		c-1.031,2.764-1.685,5.717-1.685,8.817c0,1.202,0.983,2.156,2.159,2.156c1.179,0,2.152-0.975,2.152-2.156
		c0-11.443,9.329-20.772,20.783-20.772c8.917,0,16.185,7.262,16.185,16.179c0,5.132-3.104,9.545-7.539,11.476
		c0-0.011,0.005-0.026,0.005-0.037c0-2.731-2.202-4.957-4.952-4.957c-2.731,0-4.952,2.226-4.952,4.957
		c0,2.142,1.395,3.935,3.288,4.614c0.391,0.47,0.973,0.786,1.632,0.786c6.819,0,12.675-4.082,15.309-9.914
		c2.652,5.832,8.501,9.925,15.313,9.925c0.659,0,1.234-0.316,1.635-0.786c1.936-0.67,3.365-2.458,3.365-4.614
		c0-2.731-2.226-4.946-4.968-4.946c-2.731,0-4.937,2.215-4.937,4.946c0,0.031,0.011,0.058,0.011,0.084
		c-4.472-1.908-7.614-6.349-7.614-11.512c0-8.923,7.271-16.184,16.189-16.184c11.453,0,20.777,9.312,20.777,20.767
		c0,1.191,0.97,2.162,2.151,2.162c1.191,0,2.156-0.971,2.156-2.162c0-3.111-0.643-6.064-1.682-8.823
		c1.45,0.422,2.942,0.718,4.524,0.718c7.446-0.011,13.511-6.075,13.511-13.521c0-6.196-5.062-11.243-11.243-11.243
		c-0.675,0-1.255,0.333-1.672,0.823c-1.782,0.617-3.074,2.268-3.074,4.267c0,2.525,2.046,4.571,4.566,4.571
		c2.236,0,4.008-1.635,4.409-3.749c1.593,1.26,2.689,3.143,2.689,5.331c0,5.068-4.135,9.197-9.187,9.197
		c-6.64,0-12.039-5.395-12.039-12.039c0-8.585,6.987-15.578,15.583-15.578c11.032,0,20.007,8.976,20.007,20.013
		c0,1.197,0.971,2.157,2.162,2.157c1.187,0,2.162-0.971,2.162-2.157v-28.481h10.057c0.332,0.479,0.723,0.954,1.239,1.308
		l10.246,6.95c0.364,0.243,0.786,0.364,1.219,0.364c0.343,0,0.706-0.09,1.013-0.254c0.712-0.374,1.154-1.107,1.154-1.914v-2.637
		c0.602,0.19,1.219,0.38,1.883,0.38c3.518,0,6.392-2.858,6.392-6.381C215.958,104.473,213.1,101.611,209.577,101.611z
		 M37.481,91.196c4.385,6.35,11.729,10.508,20.008,10.508c10.979,0,19.91-8.926,19.91-19.91c0-0.836-0.119-1.669-0.248-2.468
		c3.536,1.911,7.533,3.101,11.821,3.101c8.585,0,15.923-5.308,18.986-12.804c3.049,7.501,10.399,12.814,18.984,12.814
		c4.293,0,8.279-1.2,11.812-3.101c-0.115,0.799-0.242,1.621-0.242,2.457c0,10.979,8.923,19.91,19.902,19.91
		c8.284,0,15.619-4.164,20.013-10.508v14.637H141.74c-0.369-0.728-0.896-1.397-1.656-1.909l-10.251-6.939
		c-0.665-0.454-1.529-0.496-2.226-0.113c-0.169,0.097-0.27,0.253-0.411,0.377c-3.787-6.761-10.938-11.388-19.232-11.388
		c-8.451,0-15.726,4.817-19.462,11.794c-0.076-0.053-0.113-0.134-0.189-0.185c-0.707-0.361-1.562-0.334-2.221,0.114l-10.249,6.953
		c-0.536,0.353-0.896,0.833-1.237,1.308H37.515V91.202h-0.034V91.196z M124.891,105.833h-2.479H93.5h-2.479
		c2.184-2.93,8.49-5.577,16.952-5.577C116.438,100.256,122.713,102.903,124.891,105.833z M91.017,110.157h2.479h28.911h2.479
		c-2.172,2.932-8.479,5.579-16.933,5.579C99.494,115.736,93.206,113.089,91.017,110.157z M107.958,95.932
		c-6.08,0-11.498,1.279-15.461,3.375c3.056-5.424,8.809-9.115,15.461-9.115c6.655,0,12.398,3.715,15.451,9.115
		C119.449,97.211,114.039,95.932,107.958,95.932z M107.958,120.061c6.081,0,11.491-1.281,15.451-3.375
		c-3.053,5.421-8.796,9.112-15.451,9.112c-6.652,0-12.405-3.712-15.461-9.112C96.459,118.779,101.877,120.061,107.958,120.061z
		 M178.427,124.796c-4.394-6.349-11.729-10.51-20.013-10.51c-10.969,0-19.902,8.928-19.902,19.907c0,0.839,0.121,1.672,0.242,2.468
		c-3.533-1.908-7.52-3.101-11.812-3.101c-8.585,0-15.926,5.311-18.984,12.804c-3.045-7.498-10.401-12.814-18.986-12.814
		c-4.304,0-8.285,1.203-11.821,3.102c0.114-0.797,0.248-1.619,0.248-2.458c0-10.979-8.925-19.907-19.91-19.907
		c-8.279,0-15.628,4.161-20.008,10.51v-14.639h36.688c0.364,0.728,0.896,1.397,1.658,1.909l10.249,6.939
		c0.361,0.248,0.789,0.369,1.216,0.369c0.34,0,0.701-0.095,1.015-0.253c0.167-0.101,0.27-0.253,0.412-0.38
		c3.784,6.761,10.935,11.391,19.235,11.391c8.442,0,15.72-4.819,19.464-11.797c0.074,0.053,0.111,0.132,0.185,0.185
		c0.322,0.158,0.665,0.254,1.019,0.254c0.411,0,0.844-0.116,1.213-0.375l10.251-6.935c0.533-0.358,0.896-0.833,1.234-1.308h37.099
		v14.639H178.427z"/>
</g>
<g>
</g>
<g>
</g>
<g>
</g>
<g>
</g>
<g>
</g>
<g>
</g>
<g>
</g>
<g>
</g>
<g>
</g>
<g>
</g>
<g>
</g>
<g>
</g>
<g>
</g>
<g>
</g>
<g>
</g>
</svg>
