<?xml version="1.0" encoding="iso-8859-1"?>
<!-- Generator: Adobe Illustrator 16.0.0, SVG Export Plug-In . SVG Version: 6.00 Build 0)  -->
<!DOCTYPE svg PUBLIC "-//W3C//DTD SVG 1.1//EN" "http://www.w3.org/Graphics/SVG/1.1/DTD/svg11.dtd">
<svg version="1.1" id="Capa_1" xmlns="http://www.w3.org/2000/svg" xmlns:xlink="http://www.w3.org/1999/xlink" x="0px" y="0px"
	 width="194.284px" height="194.284px" viewBox="0 0 194.284 194.284" style="enable-background:new 0 0 194.284 194.284;"
	 xml:space="preserve">
<g>
	<g>
		<path d="M192.683,70.996c-1.814-4.039-6.528-6.341-5.289-19.672c0,0-7.837,3.33-10.758,12.348
			c-6.508-14.795-21.41-8.234-21.41-8.234c6.945,4.395,4.345,10.125,8.785,16.698c-9.275-0.359-15.05,5.632-15.05,5.632
			c12.898,3.607,13.362,8.838,16.495,11.971c7.763,7.805,13.542,3.628,17.914,0.39c2.536,5.896,2.921,12.266,0.822,17.782
			c-2.046,5.358-6.223,9.503-11.76,11.645c-9.218,3.543-17.286,1.26-24.864-2.742c-7.773-6.012-10.136-13.289-6.729-20.704
			c0.168,0.032,0.316,0.132,0.484,0.163c0.454,0.09,0.902,0.111,1.351,0.111c3.881,0,7.192-2.79,7.868-6.618
			c0.369-2.088-0.09-4.2-1.298-5.948c-1.239-1.751-3.063-2.922-5.188-3.291c-4.43-0.804-8.48,2.215-9.229,6.476
			c-0.38,2.089,0.089,4.19,1.302,5.957c0.27,0.371,0.644,0.604,0.966,0.925c-2.658,5.517-2.779,11.032-0.544,16.132
			c-2.441-1.624-4.867-3.249-7.309-4.667c-6.719-3.977-12.904-7.552-19.048-8.67c8.743-4.693,14.766-13.824,14.766-24.413
			c0-15.343-12.487-27.804-27.812-27.804c-15.325,0-27.805,12.485-27.805,27.804c0,10.6,6.025,19.726,14.773,24.413
			c-6.162,1.107-12.337,4.684-19.056,8.67c-2.436,1.435-4.854,3.043-7.312,4.667c2.236-5.1,2.123-10.626-0.54-16.132
			c0.313-0.321,0.696-0.554,0.962-0.925c1.231-1.751,1.685-3.879,1.306-5.946c-0.757-4.282-4.839-7.312-9.229-6.486
			c-2.128,0.369-3.953,1.54-5.189,3.291c-1.226,1.732-1.685,3.86-1.294,5.948c0.675,3.828,3.984,6.618,7.865,6.618
			c0.443,0,0.896-0.042,1.363-0.111c0.166-0.031,0.306-0.131,0.469-0.174c3.412,7.436,1.036,14.734-6.766,20.746
			c-7.562,4.008-15.612,6.265-24.83,2.711c-5.535-2.142-9.727-6.286-11.773-11.645c-2.112-5.516-1.696-11.892,0.809-17.782
			c4.385,3.238,10.175,7.415,17.93-0.39c3.122-3.133,3.586-8.364,16.485-11.971c0,0-5.767-5.991-15.043-5.632
			c4.443-6.573,1.841-12.287,8.786-16.698c0,0-14.911-6.561-21.418,8.234c-2.921-9.018-10.75-12.348-10.75-12.348
			c1.237,13.331-3.488,15.633-5.287,19.672c-4.379,9.735,1.097,13.711,5.611,16.62c-3.302,7.132-3.766,15.011-1.168,21.824
			c2.484,6.529,7.539,11.555,14.247,14.144c3.797,1.461,7.403,2.094,10.853,2.094c3.808,0,7.414-0.786,10.871-2.015
			c0.34,0.011,0.701-0.031,1.025-0.189c4.915-2.41,9.166-4.24,12.96-4.293c-1.387,1.271-2.326,3.111-2.677,5.421
			c-1.086,6.993,4.433,9.883,11.22,12.683c2.586,1.07,5.012,2.663,8.43,6.972l2.479,3.133l1.252-3.786
			c0.222-0.654,5.292-16.09,0.124-24.812c-1.814-3.053-4.611-4.93-8.276-5.595l-0.831-0.079c-1.4,0-3.543,0.575-5.022,2.204
			c-0.237,0.264-0.346,0.586-0.541,0.886c-1.36-0.633-2.752-1.022-4.158-1.186c0.567-0.386,1.16-0.781,1.727-1.16
			c2.513-1.667,4.997-3.312,7.48-4.789c12.203-7.214,19.538-11.053,27.74-6.496v21.885c-2.739,0.906-4.743,3.406-4.743,6.434
			c0,0.791,0.206,1.508,0.448,2.215h-3.201c-0.793,0-1.535,0.432-1.912,1.149c-0.372,0.706-0.335,1.561,0.113,2.226l7.512,11.074
			c0.971,1.444,2.397,2.268,3.937,2.268c1.514,0,2.959-0.812,3.945-2.268l7.498-11.074c0.454-0.665,0.501-1.52,0.111-2.226
			c-0.364-0.707-1.092-1.149-1.909-1.149h-3.217c0.242-0.707,0.443-1.435,0.443-2.215c0-3.038-1.994-5.527-4.726-6.434v-21.885
			c8.216-4.557,15.546-0.718,27.728,6.486c2.5,1.466,4.983,3.132,7.494,4.799c0.564,0.379,1.154,0.774,1.725,1.16
			c-1.393,0.158-2.79,0.553-4.161,1.186c-0.174-0.3-0.295-0.622-0.532-0.886c-1.472-1.629-3.623-2.204-5.026-2.204l-0.822,0.079
			c-3.691,0.665-6.476,2.542-8.284,5.595c-5.168,8.712-0.101,24.158,0.121,24.812l1.25,3.786l2.479-3.133
			c3.417-4.309,5.832-5.901,8.432-6.961c6.792-2.811,12.313-5.7,11.222-12.693c-0.348-2.31-1.286-4.149-2.679-5.421
			c3.797,0.053,8.042,1.883,12.957,4.293c0.338,0.158,0.681,0.2,1.028,0.189c3.454,1.229,7.062,2.015,10.868,2.015
			c3.465,0,7.072-0.622,10.863-2.094c6.688-2.589,11.755-7.614,14.244-14.144c2.584-6.812,2.136-14.702-1.171-21.824
			C191.575,84.707,197.055,80.726,192.683,70.996z M54.64,90.506c-0.562,0.809-1.413,1.35-2.37,1.516
			c-1.993,0.348-3.9-1.021-4.24-2.995c-0.161-0.962,0.05-1.917,0.591-2.711c0.562-0.812,1.413-1.35,2.397-1.519
			c0.206-0.042,0.417-0.053,0.614-0.053c1.75,0,3.291,1.295,3.596,3.046C55.412,88.744,55.201,89.707,54.64,90.506z M61.569,121.484
			c0.749,0,1.3,0.137,1.311,0.147c1.848,1.54,3.586,3.882,5.26,7.246c0.375,0.759,1.145,1.202,1.933,1.202
			c0.33,0,0.654-0.074,0.963-0.222c1.062-0.538,1.495-1.835,0.978-2.9c-1.901-3.817-3.981-6.497-6.178-8.374
			c0.053-0.111,0.016-0.274,0.108-0.369c0.485-0.538,1.371-0.78,1.877-0.78l0,0c2.436,0.433,4.182,1.593,5.336,3.544
			c2.655,4.482,1.701,12.308,0.527,17.476c-2.918-3.001-5.286-4.282-7.446-5.168c-7.976-3.29-9.06-5.073-8.596-8.036
			C58.02,122.687,59.272,121.484,61.569,121.484z M73.669,72.28c0-9.574,5.79-17.827,14.046-21.465
			c-3.304,5.055-5.426,12.68-5.426,21.465c0,8.796,2.123,16.411,5.426,21.487C79.459,90.107,73.669,81.865,73.669,72.28z
			 M99.321,95.133v-22.96c0-1.192-0.97-2.16-2.162-2.16c-1.187,0-2.159,0.973-2.159,2.16v22.96c-4.303-2.268-8.387-11-8.387-22.853
			c0-13.835,5.558-23.49,10.546-23.49c4.989,0,10.553,9.65,10.553,23.49C107.706,84.133,103.625,92.865,99.321,95.133z
			 M112.03,72.28c0-8.785-2.119-16.411-5.426-21.465c8.253,3.639,14.048,11.875,14.048,21.465s-5.79,17.827-14.048,21.487
			C109.911,88.691,112.03,81.077,112.03,72.28z M128.083,133.286c-2.141,0.886-4.524,2.157-7.446,5.168
			c-1.187-5.157-2.141-12.983,0.527-17.466c1.166-1.961,2.9-3.121,5.4-3.554c0.442,0,1.329,0.242,1.824,0.78
			c0.095,0.11,0.053,0.269,0.111,0.369c-2.184,1.877-4.277,4.557-6.181,8.374c-0.533,1.065-0.101,2.368,0.976,2.9
			c0.321,0.147,0.633,0.222,0.976,0.222c0.785,0,1.55-0.443,1.919-1.202c1.688-3.364,3.418-5.706,5.264-7.246
			c0.042-0.021,0.563-0.147,1.312-0.147c2.305,0,3.539,1.202,3.935,3.775C137.143,128.224,136.057,129.996,128.083,133.286z
			 M142.686,84.75c0.2,0,0.405,0.01,0.616,0.053c0.986,0.168,1.836,0.709,2.395,1.519c0.559,0.788,0.765,1.748,0.591,2.721
			c-0.343,1.959-2.357,3.288-4.229,2.998c-0.986-0.179-1.824-0.72-2.384-1.529c-0.559-0.788-0.77-1.761-0.585-2.731
			C139.379,86.044,140.919,84.75,142.686,84.75z"/>
	</g>
</g>
<g>
</g>
<g>
</g>
<g>
</g>
<g>
</g>
<g>
</g>
<g>
</g>
<g>
</g>
<g>
</g>
<g>
</g>
<g>
</g>
<g>
</g>
<g>
</g>
<g>
</g>
<g>
</g>
<g>
</g>
</svg>
