<?xml version="1.0" encoding="iso-8859-1"?>
<!-- Generator: Adobe Illustrator 16.0.0, SVG Export Plug-In . SVG Version: 6.00 Build 0)  -->
<!DOCTYPE svg PUBLIC "-//W3C//DTD SVG 1.1//EN" "http://www.w3.org/Graphics/SVG/1.1/DTD/svg11.dtd">
<svg version="1.1" id="Capa_1" xmlns="http://www.w3.org/2000/svg" xmlns:xlink="http://www.w3.org/1999/xlink" x="0px" y="0px"
	 width="221.387px" height="221.387px" viewBox="0 0 221.387 221.387" style="enable-background:new 0 0 221.387 221.387;"
	 xml:space="preserve">
<g>
	<g>
		<path d="M217.704,105.12c-1.315-1.915-4.64-3.897-7.952-3.897c-1.724,0-3.288,0.542-4.658,1.534
			c-0.914-2.119-2.211-4.076-3.879-5.717c-3.392-3.343-7.849-5.164-12.525-5.027c-11.441,0.237-16.69,9.405-22.561,20.18
			c-0.134-6.074-2.959-11.161-8.312-14.699c0.408-1.477,0.463-3.018-0.104-4.47c-1.382-3.592-5.693-5.522-9.311-4.128
			c-3.696,1.428-5.547,5.604-4.122,9.31c1.06,2.755,3.77,4.606,6.716,4.606c0.884,0,1.76-0.162,2.595-0.484
			c1.107-0.433,1.997-1.176,2.752-2.052c6.899,4.737,8.556,12.47,4.543,21.945c-0.062,0.141,0.012,0.287,0,0.433
			c-5.158,10.692-10.882,21.257-24.223,23.528c-2.484,0.42-4.914,0.329-7.259-0.115c-0.019-0.012-0.019-0.043-0.049-0.055
			c-6.546-3.647-8.927-8.842-6.71-14.627c1.699-4.48,6.753-6.722,11.216-5.047c3.429,1.314,5.164,5.169,3.854,8.585
			c-0.986,2.582-3.891,3.86-6.467,2.905c-0.828-0.323-1.474-0.932-1.899-1.705c0.286,0,0.572,0,0.853-0.098
			c1.547-0.487,2.399-2.149,1.912-3.702c-0.5-1.553-2.149-2.399-3.702-1.912c-0.427,0.134-0.786,0.378-1.09,0.657
			c-0.493,0.116-0.932,0.378-1.133,0.877c-0.646,1.699-0.597,3.551,0.152,5.213c0.749,1.656,2.088,2.929,3.787,3.574
			c4.208,1.589,8.902-0.518,10.491-4.701c1.919-5.023-0.621-10.674-5.656-12.604c-6.096-2.313-12.928,0.761-15.235,6.851
			c-1.619,4.238-1.242,8.25,0.858,11.776c-4.811-3.909-7.812-9.974-8.306-16.764v-0.006c0.013-0.207-0.024-0.414-0.018-0.628
			c-0.424-10.326,7.446-19.198,17.811-19.859c0.871-0.058,1.51-0.794,1.455-1.659c-0.049-0.861-0.767-1.474-1.662-1.452
			c-8.835,0.566-16.088,6.293-19.163,14.032c-0.928-2.356-2.201-4.579-3.915-6.54c-3.915-4.451-9.341-7.118-15.259-7.492
			c-0.853-0.021-1.602,0.597-1.656,1.452c-0.064,0.858,0.597,1.602,1.446,1.659c5.087,0.323,9.751,2.615,13.119,6.445
			c3.267,3.732,4.914,8.488,4.701,13.427c0.006,0.201-0.03,0.396-0.019,0.608c0,0,0,0.007,0,0.013
			c-0.493,6.771-3.504,12.836-8.299,16.745c2.095-3.508,2.469-7.532,0.846-11.764c-2.316-6.096-9.146-9.164-15.244-6.851
			c-5.039,1.937-7.568,7.587-5.642,12.604c0.761,2.027,2.274,3.635,4.256,4.524c1.985,0.889,4.192,0.956,6.229,0.183
			c1.696-0.652,3.057-1.924,3.799-3.58c0.734-1.669,0.792-3.508,0.137-5.207c-0.195-0.505-0.636-0.761-1.124-0.877
			c-0.304-0.286-0.667-0.523-1.096-0.657c-1.553-0.493-3.212,0.365-3.706,1.912c-0.493,1.553,0.375,3.221,1.921,3.702
			c0.28,0.092,0.56,0.092,0.84,0.098c-0.417,0.773-1.059,1.395-1.894,1.705c-1.254,0.475-2.618,0.426-3.842-0.116
			c-1.215-0.548-2.143-1.534-2.618-2.789c-1.303-3.416,0.417-7.265,3.848-8.579c4.482-1.724,9.502,0.561,11.223,5.048
			c2.207,5.784-0.174,10.979-6.717,14.626c-0.024,0.012-0.024,0.043-0.048,0.061c-2.338,0.433-4.783,0.53-7.258,0.109
			c-13.338-2.277-19.068-12.842-24.217-23.521c-0.012-0.146,0.061-0.299,0-0.438c-4.028-9.481-2.384-17.208,4.527-21.945
			c0.758,0.88,1.65,1.619,2.762,2.052c0.834,0.316,1.702,0.484,2.594,0.484c2.947,0,5.642-1.845,6.713-4.606
			c1.428-3.706-0.423-7.877-4.12-9.311c-3.604-1.389-7.925,0.542-9.304,4.122c-0.566,1.458-0.512,2.999-0.113,4.476
			c-5.337,3.538-8.175,8.619-8.312,14.688c-5.86-10.778-11.104-19.93-22.551-20.167c-4.722-0.131-9.143,1.69-12.535,5.033
			c-1.666,1.641-2.957,3.599-3.879,5.711c-1.364-0.986-2.935-1.535-4.658-1.535c-3.303,0-6.634,1.977-7.943,3.897
			c-3.504,5.136-4.533,10.599-3.029,16.243c4.521,17.092,30.546,30.001,31.651,30.537c0.216,0.109,0.448,0.152,0.685,0.152
			c0.012,0,0.024,0,0.037,0c0.037,0,0.082-0.049,0.125-0.049c0.255-0.025,0.511-0.073,0.737-0.232
			c0.036-0.023,0.03-0.072,0.061-0.097c0.238-0.183,0.338-0.433,0.451-0.713c0.024-0.091,0.101-0.14,0.125-0.237
			c0.012-0.085,0.113-0.134,0.113-0.231c0-0.231-0.052-0.45-0.146-0.651c-1.178-10.449-0.067-15.96,1.979-20.965
			c5.748-14.108,7.127-22.372-1.297-28.434c-2.862-2.07-5.73-3.117-8.513-3.117c-0.88,0-1.638,0.213-2.417,0.393
			c2.463-1.757,5.343-2.731,8.385-2.6c9.466,0.195,13.667,7.109,20.301,19.302c1.349,2.46,2.582,5.061,3.842,7.679
			c5.486,11.46,11.709,24.454,27.422,27.151c1.397,0.237,2.774,0.359,4.153,0.359c5.176,0,10.096-1.687,14.161-4.901
			c3.802-3.002,6.54-7.234,8.163-12.021c1.613,4.786,4.342,9.013,8.153,12.021c4.073,3.221,8.987,4.901,14.163,4.901
			c1.376,0,2.752-0.122,4.153-0.359c15.716-2.691,21.938-15.68,27.413-27.14c1.261-2.63,2.509-5.236,3.849-7.69
			c6.625-12.199,10.851-19.107,20.295-19.302c2.989-0.143,5.912,0.837,8.385,2.6c-0.779-0.18-1.541-0.387-2.411-0.387
			c-2.783,0-5.645,1.047-8.513,3.111c-8.415,6.062-7.039,14.331-1.297,28.439c2.076,5.097,3.215,10.692,1.942,21.439
			c-0.013,0.11,0.036,0.201,0.042,0.299c0.007,0.104,0.013,0.177,0.037,0.268c0.091,0.354,0.256,0.676,0.56,0.896l0,0l0,0
			c0.274,0.194,0.585,0.28,0.907,0.28c0.231,0,0.457-0.049,0.677-0.152c1.107-0.542,27.145-13.445,31.651-30.537
			C222.229,115.73,221.205,110.262,217.704,105.12z M152.478,99.42c-2.059,0.804-4.5-0.298-5.286-2.333
			c-0.81-2.095,0.238-4.469,2.332-5.279c0.476-0.183,0.975-0.277,1.474-0.277c1.688,0,3.191,1.029,3.794,2.616
			c0.396,1.02,0.378,2.131-0.073,3.123C154.285,98.26,153.488,99.027,152.478,99.42z M66.642,94.153
			c0.612-1.586,2.101-2.615,3.802-2.615c0.505,0,0.999,0.094,1.458,0.277c2.095,0.81,3.151,3.178,2.344,5.279
			c-0.786,2.034-3.227,3.139-5.279,2.338c-1.017-0.387-1.821-1.154-2.259-2.149C66.273,96.278,66.243,95.161,66.642,94.153z
			 M37.785,114.652l-20.204-3.635c0.207-0.256,0.362-0.555,0.362-0.926c-0.006-1.188,0.161-2.345,0.429-3.495l19.479,3.318
			C38.047,111.315,38.071,112.826,37.785,114.652z M35.614,122.538l-17.086-3.86c-0.435-1.571-0.752-3.063-0.953-4.494l19.521,3.508
			C36.716,119.177,36.244,120.766,35.614,122.538z M5.747,125.479l9.009-9.414c0.25,1.358,0.575,2.729,0.98,4.141L9.525,130.85
			C8.091,129.126,6.77,127.342,5.747,125.479z M3.728,120.571c-0.326-1.224-0.499-2.437-0.551-3.623
			c0.137-0.056,0.301-0.049,0.426-0.146l11.003-8.848c-0.25,1.278-0.353,2.631-0.292,4.073L4.438,122.35
			C4.212,121.746,3.883,121.18,3.728,120.571z M31.336,136.275l-5.986-1.432c-0.81-1.528-1.595-3.087-2.344-4.67l9.061,2.313
			C31.772,133.645,31.531,134.887,31.336,136.275z M22.239,135.66c-0.019,0.085-0.113,0.128-0.119,0.201l-0.679,5.717
			c-1.19-0.864-2.402-1.783-3.623-2.758l2.433-7.143C20.906,133.035,21.572,134.369,22.239,135.66z M24.745,140.209
			c1.267,2.204,2.457,4.177,3.504,5.852c-1.178-0.707-2.505-1.553-3.909-2.473L24.745,140.209z M27.378,138.527l3.672,0.877
			c-0.088,1.578-0.113,3.282-0.037,5.207C29.848,142.778,28.624,140.72,27.378,138.527z M33.638,127.714
			c-0.238,0.572-0.463,1.169-0.679,1.79l-11.587-2.966c-0.643-1.485-1.215-2.965-1.732-4.421l14.857,3.361
			C34.198,126.234,33.955,126.916,33.638,127.714z M6.319,106.895c0.712-1.044,3.032-2.542,5.376-2.542
			c0.667,0,1.297,0.174,1.881,0.423l-9.895,7.965C4.176,110.756,5.004,108.818,6.319,106.895z M11.678,133.273
			c0.036-0.049,0.097-0.08,0.131-0.129l5.243-8.98c0.405,1.113,0.874,2.223,1.333,3.33l-3.118,9.188
			C14.022,135.587,12.816,134.467,11.678,133.273z M33.407,102.995c1.498,1.072,2.612,2.238,3.379,3.583l-16.809-2.862
			c1.446-1.529,3.727-3.249,6.738-3.249C28.831,100.456,31.075,101.317,33.407,102.995z M211.907,130.85l-6.211-10.645
			c0.408-1.412,0.73-2.788,0.98-4.146l9.018,9.42C214.678,127.342,213.362,129.126,211.907,130.85z M184.348,117.703l19.521-3.508
			c-0.2,1.426-0.518,2.923-0.943,4.494l-17.092,3.854C185.2,120.766,184.731,119.177,184.348,117.703z M183.593,109.915
			l19.479-3.318c0.268,1.145,0.444,2.308,0.438,3.495c0,0.359,0.176,0.657,0.377,0.919l-20.216,3.636
			C183.373,112.826,183.397,111.315,183.593,109.915z M201.812,122.124c-0.518,1.455-1.096,2.94-1.724,4.421l-11.594,2.965
			c-0.219-0.621-0.45-1.212-0.676-1.79c-0.328-0.798-0.572-1.474-0.858-2.223L201.812,122.124z M196.088,134.844l-5.992,1.432
			c-0.177-1.383-0.42-2.631-0.712-3.775l9.048-2.314C197.695,131.757,196.903,133.315,196.088,134.844z M190.389,139.404
			l3.689-0.877c-1.248,2.205-2.484,4.251-3.635,6.084C190.516,142.687,190.492,140.976,190.389,139.404z M196.709,140.202l0.39,3.38
			c-1.395,0.92-2.729,1.766-3.909,2.473C194.242,144.386,195.442,142.419,196.709,140.202z M199.327,135.867
			c-0.006-0.086-0.109-0.128-0.134-0.201c0.682-1.297,1.352-2.631,1.997-3.994l2.424,7.143c-1.212,0.974-2.418,1.905-3.623,2.758
			L199.327,135.867z M207.134,112.016c0.055-1.438-0.043-2.795-0.293-4.073l11.01,8.854c0.134,0.104,0.28,0.097,0.426,0.146
			c-0.042,1.188-0.226,2.394-0.542,3.623c-0.158,0.609-0.493,1.176-0.712,1.767L207.134,112.016z M215.129,106.895
			c1.314,1.924,2.143,3.867,2.636,5.846l-9.895-7.958c0.591-0.247,1.193-0.423,1.882-0.423
			C212.096,104.347,214.416,105.851,215.129,106.895z M188.031,102.995c2.326-1.677,4.579-2.527,6.692-2.527
			c2.996,0,5.268,1.72,6.729,3.249l-16.8,2.856C185.42,105.232,186.552,104.066,188.031,102.995z M206.184,136.677l-3.118-9.188
			c0.47-1.108,0.92-2.217,1.328-3.324l5.255,8.975c0.03,0.055,0.091,0.086,0.128,0.128
			C208.631,134.467,207.426,135.587,206.184,136.677z"/>
		<path d="M98.996,93.934c-0.024,1.184,0.03,2.219,0.219,3.017c1.096,4.497,4.582,7.837,8.915,8.887
			c0.04,0.006,0.07,0.024,0.106,0.037c0.019,0.006,0.043,0,0.07,0.006c0.87,0.198,1.757,0.338,2.686,0.338
			c0.018,0,0.039-0.006,0.058-0.006s0.036,0.006,0.055,0.006c0.923,0,1.817-0.14,2.694-0.338c0.019,0,0.043,0,0.061-0.006
			c0.031-0.006,0.062-0.024,0.098-0.03c4.336-1.048,7.824-4.391,8.921-8.894c0.188-0.798,0.256-1.845,0.219-3.042
			c0-0.167-0.012-0.344-0.024-0.518c-0.353-7.7-4.316-21.193-4.847-22.965c-0.158-0.53-0.597-0.935-1.133-1.065
			c-0.542-0.131-1.108,0.03-1.485,0.436c-0.493,0.518-2.326,2.457-4.546,4.938c-2.22-2.481-4.059-4.415-4.558-4.938
			c-0.387-0.399-0.956-0.561-1.485-0.436c-0.536,0.131-0.965,0.536-1.127,1.065c-0.529,1.772-4.484,15.22-4.847,22.932
			C99.015,93.547,99.002,93.748,98.996,93.934z M102.339,91.988c0.643-2.6,4.707-7.843,8.704-12.507
			c3.992,4.664,8.065,9.901,8.699,12.501c0.128,0.53,0.183,1.06,0.213,1.583c0.006,0.125,0.019,0.256,0.019,0.375
			c0.066,2.874-1.279,5.58-3.508,7.294c-0.073,0.058-0.152,0.113-0.226,0.167c-0.347,0.25-0.725,0.469-1.107,0.67
			c-0.177,0.085-0.354,0.173-0.518,0.256c-0.354,0.149-0.707,0.268-1.066,0.377c-0.225,0.064-0.438,0.134-0.663,0.183
			c-0.354,0.073-0.704,0.113-1.051,0.143c-0.243,0.019-0.487,0.042-0.73,0.049c-0.329,0-0.648-0.03-0.972-0.067
			c-0.273-0.03-0.557-0.058-0.831-0.118c-0.28-0.055-0.56-0.138-0.834-0.226c-0.308-0.091-0.612-0.192-0.898-0.316
			c-0.231-0.101-0.456-0.213-0.673-0.332c-0.332-0.174-0.648-0.362-0.956-0.572c-0.125-0.089-0.241-0.183-0.366-0.268
			c-2.183-1.708-3.486-4.366-3.455-7.191c0-0.149,0.018-0.323,0.024-0.478C102.168,93.005,102.22,92.494,102.339,91.988z
			 M115.979,73.931c0.749,2.688,1.662,6.229,2.436,9.746c-1.644-2.226-3.488-4.487-5.297-6.585
			C114.134,75.943,115.126,74.848,115.979,73.931z M106.111,73.931c0.858,0.922,1.845,2.019,2.861,3.167
			c-1.814,2.098-3.653,4.359-5.306,6.591C104.446,80.167,105.362,76.619,106.111,73.931z"/>
		<path d="M111.043,100.687c2.981,0,5.398-2.42,5.398-5.4c0-2.981-2.436-5.398-5.398-5.398c-2.968,0-5.395,2.424-5.395,5.398
			C105.648,98.26,108.069,100.687,111.043,100.687z M111.043,93.005c1.258,0,2.281,1.023,2.281,2.281
			c0,1.26-1.023,2.283-2.281,2.283c-1.254,0-2.277-1.023-2.277-2.283C108.76,94.028,109.789,93.005,111.043,93.005z"/>
	</g>
</g>
<g>
</g>
<g>
</g>
<g>
</g>
<g>
</g>
<g>
</g>
<g>
</g>
<g>
</g>
<g>
</g>
<g>
</g>
<g>
</g>
<g>
</g>
<g>
</g>
<g>
</g>
<g>
</g>
<g>
</g>
</svg>
