<?xml version="1.0" encoding="iso-8859-1"?>
<!-- Generator: Adobe Illustrator 16.0.0, SVG Export Plug-In . SVG Version: 6.00 Build 0)  -->
<!DOCTYPE svg PUBLIC "-//W3C//DTD SVG 1.1//EN" "http://www.w3.org/Graphics/SVG/1.1/DTD/svg11.dtd">
<svg version="1.1" id="Capa_1" xmlns="http://www.w3.org/2000/svg" xmlns:xlink="http://www.w3.org/1999/xlink" x="0px" y="0px"
	 width="225.487px" height="225.487px" viewBox="0 0 225.487 225.487" style="enable-background:new 0 0 225.487 225.487;"
	 xml:space="preserve">
<g>
	<g>
		<path d="M112.73,76.09c13.1,0,23.757-10.66,23.757-23.754c0-13.094-10.673-23.754-23.757-23.754
			c-13.083,0-23.754,10.66-23.754,23.754C88.976,65.43,99.628,76.09,112.73,76.09z M104.187,52.331
			c0-11.454,4.504-19.44,8.543-19.44c4.04,0,8.543,7.986,8.543,19.44s-4.503,19.44-8.543,19.44
			C108.691,71.771,104.187,63.79,104.187,52.331z M132.173,52.331c0,7.473-4.282,13.893-10.468,17.149
			c2.399-4.293,3.913-10.328,3.913-17.149s-1.492-12.856-3.913-17.152C127.891,38.438,132.173,44.864,132.173,52.331z
			 M103.771,35.187c-2.402,4.292-3.908,10.328-3.908,17.149s1.49,12.857,3.908,17.152c-6.188-3.265-10.47-9.677-10.47-17.152
			C93.3,44.864,97.566,38.438,103.771,35.187z"/>
		<path d="M112.73,149.401c-13.102,0-23.754,10.658-23.754,23.757c0,13.089,10.671,23.747,23.754,23.747
			c13.084,0,23.757-10.669,23.757-23.747C136.487,160.06,125.83,149.401,112.73,149.401z M121.273,173.158
			c0,11.454-4.503,19.449-8.543,19.449c-4.039,0-8.543-7.984-8.543-19.449c0-11.453,4.504-19.438,8.543-19.438
			C116.77,153.721,121.273,161.705,121.273,173.158z M93.285,173.158c0-7.467,4.282-13.885,10.47-17.148
			c-2.402,4.292-3.911,10.33-3.911,17.148c0,6.829,1.493,12.857,3.911,17.16C97.566,187.054,93.285,180.626,93.285,173.158z
			 M121.69,190.308c2.404-4.292,3.907-10.331,3.907-17.149c0-6.829-1.492-12.856-3.907-17.159
			c6.19,3.264,10.473,9.677,10.473,17.159C132.163,180.626,127.891,187.054,121.69,190.308z"/>
		<path d="M94.727,150.926c0.129,0,0.28,0,0.417,0c2.592,0,5.065-0.96,6.987-2.731c2.03-1.878,3.201-4.414,3.304-7.172
			c0.021-0.386-0.108-0.738-0.264-1.055c-0.411-1.382-1.643-2.432-3.164-2.489c-1.911-0.074-3.533,1.413-3.606,3.333
			c-0.066,1.286,0.619,2.404,1.645,3.032c-0.264,0.4-0.485,0.828-0.841,1.165c-1.184,1.087-2.745,1.688-4.311,1.593
			c-2.139-0.095-4.129-1.013-5.582-2.59c-1.453-1.576-2.215-3.622-2.133-5.764c0.01-0.4-0.113-0.78-0.314-1.107
			c0-0.29,0.071-0.564,0.061-0.854c-0.329-7.193-3.43-13.838-8.732-18.689c-2.236-2.057-4.746-3.691-7.446-4.857
			c2.7-1.176,5.21-2.811,7.446-4.849c5.302-4.864,8.419-11.509,8.732-18.699c0.011-0.288-0.061-0.562-0.055-0.844
			c0.185-0.335,0.319-0.696,0.309-1.107c-0.179-4.433,3.272-8.179,7.715-8.354c2.27-0.108,4.1,1.036,5.184,2.727
			c-1.031,0.638-1.727,1.756-1.677,3.062c0.073,1.919,1.682,3.42,3.606,3.333c1.521-0.058,2.753-1.102,3.164-2.489
			c0.156-0.324,0.285-0.67,0.264-1.052c-0.221-5.688-5.112-10.083-10.708-9.898c-3.958,0.15-7.383,2.201-9.532,5.21
			c-0.97-2.312-2.268-4.493-4.005-6.399c-3.955-4.324-9.376-6.858-15.246-7.111c-10.033-0.53-18.344,7.296-18.787,17.215
			c-0.032,0.578,0.179,1.107,0.546,1.511c0.556,2.265,2.447,4.013,4.875,4.121c2.961,0.124,5.461-2.16,5.579-5.115
			c0.129-2.943-2.154-5.453-5.091-5.566c-0.108-0.005-0.185,0.042-0.298,0.05c2.323-4.846,7.393-8.095,12.991-7.902
			c4.709,0.211,9.062,2.241,12.248,5.725c3.193,3.478,4.828,7.986,4.611,12.701c-0.269,6.043-2.86,11.614-7.322,15.696
			c-3.773,3.473-8.508,5.511-13.553,5.88c-0.967-0.059-1.917-0.068-2.911-0.026c-0.061,0.005-0.103,0.037-0.14,0.037h-4.667v-6.196
			c0-0.799-0.443-1.535-1.15-1.912c-0.696-0.372-1.561-0.335-2.225,0.119l-9.584,6.497c-0.604,0.409-1.047,0.928-1.416,1.482H25.378
			c-0.918-2.737-3.417-4.738-6.452-4.743c-0.788,0-1.506,0.203-2.202,0.448v-3.204c0-0.793-0.443-1.529-1.158-1.911
			c-0.701-0.367-1.561-0.335-2.22,0.118l-11.08,7.507c-1.442,0.968-2.262,2.396-2.268,3.926c0,1.529,0.815,2.964,2.262,3.945
			l11.069,7.504c0.364,0.248,0.789,0.374,1.221,0.374c0.34,0,0.701-0.095,1.015-0.253c0.715-0.38,1.155-1.107,1.155-1.914v-3.212
			c0.709,0.243,1.437,0.443,2.215,0.443c3.035,0.011,5.523-1.993,6.446-4.726h14.289c0.348,0.56,0.791,1.087,1.406,1.492
			l9.574,6.508c0.356,0.248,0.789,0.364,1.226,0.364c0.335,0,0.696-0.085,1.015-0.253c0.707-0.364,1.149-1.107,1.149-1.909v-6.202
			h4.736c0.034,0,0.055,0.021,0.087,0.021c0.814,0.037,1.632,0.011,2.437-0.021h0.506c5.034,0.375,9.759,2.41,13.526,5.875
			c4.456,4.082,7.069,9.661,7.325,15.693c0.208,4.715-1.432,9.229-4.612,12.709c-3.188,3.48-7.533,5.506-12.248,5.717
			c-5.59,0.264-10.687-3.027-12.994-7.895c0.108,0,0.19,0.048,0.293,0.048c2.938-0.111,5.236-2.621,5.097-5.569
			c-0.124-2.953-2.624-5.241-5.571-5.109c-2.441,0.11-4.343,1.855-4.889,4.123c-0.345,0.401-0.562,0.944-0.54,1.514
			c0.432,9.656,8.429,17.224,18.003,17.224c0.267,0,0.53,0,0.789-0.021c5.867-0.253,11.288-2.784,15.24-7.104
			c1.738-1.903,3.035-4.087,3.995-6.396c0.314,0.422,0.591,0.854,0.952,1.239C88.375,149.386,91.433,150.794,94.727,150.926z"/>
		<path d="M223.208,108.81l-11.079-7.502c-0.659-0.448-1.519-0.49-2.221-0.118c-0.712,0.374-1.154,1.112-1.154,1.911v3.215
			c-0.696-0.243-1.424-0.448-2.21-0.448c-3.043,0-5.531,1.998-6.449,4.728h-14.291c-0.338-0.554-0.786-1.073-1.393-1.487
			l-9.587-6.502c-0.664-0.454-1.529-0.496-2.226-0.119c-0.706,0.372-1.149,1.107-1.149,1.912v6.207h-4.688
			c-0.043-0.011-0.079-0.032-0.122-0.032c-0.97-0.048-1.93-0.037-2.91,0.021c-5.031-0.369-9.767-2.405-13.553-5.877
			c-4.451-4.084-7.057-9.656-7.31-15.699c-0.205-4.715,1.445-9.224,4.609-12.701c3.185-3.483,7.541-5.514,12.261-5.725
			c5.616-0.177,10.689,3.062,12.978,7.902c-0.105-0.005-0.179-0.056-0.284-0.05c-2.933,0.113-5.242,2.623-5.095,5.568
			c0.116,2.953,2.626,5.242,5.569,5.112c2.446-0.107,4.355-1.856,4.878-4.126c0.343-0.403,0.563-0.934,0.543-1.506
			c-0.443-9.925-8.997-17.734-18.784-17.215c-5.869,0.258-11.285,2.792-15.229,7.111c-1.74,1.906-3.038,4.087-4.008,6.399
			c-0.316-0.422-0.586-0.86-0.949-1.248c-2.236-2.426-5.289-3.829-8.596-3.958c-5.469-0.211-10.483,4.205-10.705,9.898
			c-0.021,0.387,0.1,0.743,0.274,1.062c0.411,1.376,1.629,2.42,3.158,2.479c1.914,0.076,3.528-1.414,3.607-3.33
			c0.058-1.292-0.633-2.405-1.65-3.046c0.264-0.4,0.484-0.828,0.838-1.163c1.187-1.083,2.758-1.674,4.319-1.582
			c2.136,0.087,4.124,1,5.574,2.576c1.46,1.577,2.215,3.628,2.136,5.767c-0.021,0.412,0.115,0.778,0.306,1.107
			c0,0.293-0.063,0.567-0.048,0.854c0.316,7.193,3.412,13.835,8.717,18.7c2.236,2.043,4.746,3.678,7.446,4.849
			c-2.7,1.176-5.21,2.806-7.446,4.852c-5.305,4.856-8.416,11.507-8.717,18.699c-0.016,0.285,0.048,0.56,0.042,0.844
			c-0.179,0.332-0.321,0.696-0.3,1.107c0.168,4.425-3.28,8.185-7.721,8.354c-2.268,0.147-4.113-1.019-5.189-2.722
			c1.023-0.633,1.73-1.761,1.688-3.068c-0.084-1.92-1.688-3.418-3.606-3.333c-1.529,0.058-2.753,1.102-3.175,2.483
			c-0.158,0.322-0.285,0.675-0.264,1.065c0.222,5.542,4.81,9.903,10.305,9.903c0.126,0,0.273,0,0.405-0.005
			c3.961-0.158,7.383-2.21,9.54-5.221c0.976,2.32,2.268,4.493,4.008,6.401c3.95,4.33,9.365,6.855,15.235,7.109
			c0.269,0.021,0.532,0.021,0.785,0.021c9.566,0,17.561-7.572,17.993-17.229c0.042-0.574-0.169-1.107-0.538-1.513
			c-0.538-2.258-2.437-4.019-4.883-4.124c-2.942-0.127-5.442,2.162-5.559,5.115c-0.137,2.942,2.151,5.452,5.084,5.568
			c0.105,0,0.179-0.042,0.284-0.042c-2.31,4.852-7.366,8.143-12.973,7.889c-4.714-0.211-9.08-2.235-12.266-5.722
			c-3.175-3.485-4.814-7.989-4.609-12.714c0.27-6.033,2.869-11.602,7.32-15.688c3.78-3.476,8.517-5.511,13.553-5.88
			c0.97,0.063,1.914,0.068,2.91,0.026c0.048,0,0.079-0.026,0.111-0.026h4.693v6.196c0,0.796,0.442,1.534,1.149,1.914
			c0.321,0.169,0.664,0.253,1.018,0.253c0.422,0,0.854-0.121,1.219-0.369l9.592-6.502c0.596-0.406,1.055-0.928,1.408-1.481h14.275
			c0.917,2.731,3.406,4.735,6.449,4.735c0.786,0,1.514-0.206,2.215-0.453v3.206c0,0.802,0.443,1.534,1.149,1.909
			c0.322,0.168,0.665,0.253,1.018,0.253c0.422,0,0.839-0.116,1.213-0.364l11.069-7.515c1.439-0.97,2.263-2.389,2.268-3.923
			C225.471,111.228,224.648,109.787,223.208,108.81z"/>
	</g>
</g>
<g>
</g>
<g>
</g>
<g>
</g>
<g>
</g>
<g>
</g>
<g>
</g>
<g>
</g>
<g>
</g>
<g>
</g>
<g>
</g>
<g>
</g>
<g>
</g>
<g>
</g>
<g>
</g>
<g>
</g>
</svg>
