<?xml version="1.0" encoding="iso-8859-1"?>
<!-- Generator: Adobe Illustrator 16.0.0, SVG Export Plug-In . SVG Version: 6.00 Build 0)  -->
<!DOCTYPE svg PUBLIC "-//W3C//DTD SVG 1.1//EN" "http://www.w3.org/Graphics/SVG/1.1/DTD/svg11.dtd">
<svg version="1.1" id="Capa_1" xmlns="http://www.w3.org/2000/svg" xmlns:xlink="http://www.w3.org/1999/xlink" x="0px" y="0px"
	 width="166.333px" height="166.333px" viewBox="0 0 166.333 166.333" style="enable-background:new 0 0 166.333 166.333;"
	 xml:space="preserve">
<g>
	<g>
		<path d="M157.549,57.634c1.182,0,2.326-0.231,3.407-0.686c2.162-0.907,3.834-2.603,4.725-4.791
			c0.886-2.17,0.865-4.562-0.042-6.705c-1.814-4.358-7.13-6.518-11.485-4.683c-2.162,0.907-3.85,2.592-4.726,4.786
			c-0.886,2.165-0.864,4.556,0.043,6.7c0.653,1.551,1.729,2.813,3.037,3.726c-1.419,3.518-2.368,6.081-2.969,8.554
			c-1.43-3.386-3.265-6.426-5.395-9.168c0.194-2.668,0.928-19.512-10.357-27.53c-3.555-2.515-8.354-2.565-12.599-2.602
			c-3.591-0.032-6.977-0.077-8.379-1.511c-1.097-1.158-0.918-2.368-0.264-4.651c0.506-1.777,1.26-4.454-1.055-6.102
			c-4.482-3.164-12.614,0.52-18.035,8.142c-3.539,5.002-5.295,10.687-4.588,14.834c0.358,2.138,1.35,3.823,2.863,4.888
			c1.903,1.35,4.276,0.264,6.102-1.015c1.461-1.025,2.911-2.015,4.472-1.287c1.846,0.833,3.006,4.018,4.229,7.393
			c1.444,3.979,3.074,8.493,6.634,11.011c3.733,2.645,8.343,3.984,13.685,3.984c5.954,0,11.312-1.656,14.059-2.679
			c4.789,6.27,7.752,14.56,7.815,24.184c0.011,0.185,0.011,0.385,0.021,0.575c-0.042,8.923-2.547,18.952-8.332,29.489
			c-0.464,0.838-0.929,1.672-1.393,2.457c-1.382-4.361-3.828-8.332-7.161-11.633c0.575-0.232,1.149-0.433,1.729-0.781
			c6.312-3.723,4.989-10.072,2.764-17.375c-0.854-2.785-1.171-5.791,0.042-11.491c0.169-0.786-0.11-1.577-0.707-2.091
			c-0.601-0.53-1.434-0.665-2.167-0.377c-0.67,0.258-16.469,6.381-20.087,16.284c-1.097,3.017-0.917,6.032,0.375,9.018
			c-5.263,0.337-10.136,2.399-14.06,5.885c-1.281-0.785-2.795-1.255-4.43-1.255l0,0c-4.535,0.079-8.184,3.834-8.115,8.369
			c0.073,4.487,3.771,8.137,8.253,8.137c0.011,0,0.105,0,0.116,0c4.562-0.079,8.2-3.844,8.115-8.379
			c-0.016-1.346-0.39-2.59-1.002-3.719c3.37-2.974,7.578-4.714,12.124-4.835c5.036-0.032,9.956,1.745,13.647,5.284
			c4.008,3.817,6.55,8.764,7.33,14.153c-10.542,15.82-21.41,21.663-29.094,23.726c-7.699,2.051-15.625,1.092-21.724-2.621
			c-0.535-0.338-1.165-0.306-1.751-0.116c-0.619-0.242-1.305-0.242-1.877,0.116c-6.115,3.713-14.03,4.672-21.729,2.621
			c-7.681-2.062-18.549-7.905-29.086-23.726c0.778-5.39,3.328-10.336,7.333-14.164c3.688-3.513,8.548-5.284,13.64-5.279
			c4.543,0.111,8.749,1.862,12.118,4.836c-0.593,1.118-0.97,2.368-0.994,3.718c-0.079,4.541,3.565,8.306,8.129,8.385
			c0.005,0,0.095,0,0.108,0c4.48,0,8.185-3.649,8.256-8.143c0.058-4.529-3.581-8.284-8.25-8.363c-1.582,0-3.059,0.475-4.316,1.25
			c-3.916-3.486-8.78-5.543-14.041-5.875c1.292-2.984,1.472-6.001,0.375-9.022c-3.607-9.903-19.409-16.026-20.079-16.284
			c-0.743-0.293-1.577-0.138-2.17,0.372c-0.599,0.519-0.875,1.305-0.707,2.096c1.208,5.7,0.891,8.701,0.037,11.496
			c-2.225,7.304-3.554,13.626,2.761,17.37c0.578,0.333,1.149,0.555,1.727,0.775c-3.328,3.307-5.772,7.293-7.161,11.645
			c-0.464-0.786-0.928-1.625-1.392-2.458c-5.782-10.536-8.285-20.571-8.327-29.489c0.005-0.189,0.011-0.39,0.016-0.58
			c0.077-9.618,3.035-17.908,7.82-24.184c2.753,1.023,8.105,2.679,14.062,2.679l0,0c5.339,0,9.945-1.339,13.682-3.989
			c3.549-2.513,5.189-7.027,6.637-11.011c1.226-3.375,2.381-6.561,4.224-7.394c1.577-0.728,3.006,0.267,4.47,1.287
			c1.827,1.273,4.213,2.365,6.099,1.015c1.516-1.07,2.51-2.771,2.871-4.894c0.715-4.153-1.041-9.832-4.59-14.834
			c-5.416-7.626-13.558-11.296-18.025-8.147c-2.328,1.65-1.571,4.329-1.062,6.106c0.646,2.294,0.831,3.494-0.256,4.638
			c-1.402,1.464-4.793,1.493-8.385,1.524c-4.245,0.053-9.046,0.103-12.598,2.603c-11.28,7.992-10.547,24.861-10.352,27.53
			c-2.133,2.742-3.968,5.782-5.395,9.167c-0.604-2.473-1.556-5.036-2.969-8.553c1.305-0.923,2.376-2.175,3.027-3.715
			c0.92-2.154,0.941-4.545,0.055-6.71c-0.886-2.178-2.566-3.879-4.725-4.786c-4.369-1.875-9.677,0.335-11.491,4.683
			c-0.907,2.144-0.923,4.535-0.04,6.705c0.886,2.172,2.565,3.884,4.72,4.791c1.086,0.454,2.236,0.686,3.404,0.686
			c0.34,0,0.659-0.114,0.992-0.145c3.57,8.785,3.937,10.502,3.554,23.517c-0.021,0.62-0.058,1.242-0.058,1.901
			c-0.019,0.564-0.034,1.118-0.056,1.725c-0.01,0.311,0.048,0.591,0.156,0.864c0.448,8.96,3.117,18.795,8.754,29.078
			c1.303,2.367,2.613,4.588,3.942,6.639c-0.047,0.586-0.079,1.192-0.098,1.783c-0.187,7.678,2.632,14.961,7.934,20.529
			c6.523,6.86,15.319,10.747,24.78,10.979c0.293,0.005,0.583,0.011,0.875,0.011c8.78,0,17.086-3.228,23.609-9.087
			c6.526,5.859,14.832,9.087,23.612,9.087c0.29,0,0.58-0.006,0.87-0.011c9.46-0.232,18.262-4.146,24.785-10.964
			c5.3-5.568,8.121-12.867,7.931-20.545c-0.016-0.591-0.047-1.197-0.1-1.783c1.329-2.057,2.637-4.266,3.944-6.639
			c5.632-10.268,8.301-20.118,8.749-29.078c0.11-0.273,0.168-0.559,0.158-0.864c-0.026-0.606-0.043-1.16-0.063-1.725
			c0-0.644-0.032-1.266-0.053-1.901c-0.38-13.015-0.021-14.736,3.549-23.517C156.896,57.516,157.217,57.634,157.549,57.634z
			 M133.46,41.98c-0.385-2.272-1.646-4.261-3.522-5.595c-3.755-2.663-9.382-1.685-12.034,2.051
			c-1.339,1.891-1.866,4.182-1.471,6.465c0.385,2.268,1.635,4.25,3.507,5.566c1.471,1.044,3.195,1.605,4.999,1.605l0,0
			c2.437,0,4.704-1.076,6.317-2.843c0.169,0.359,0.411,0.691,0.786,0.913c2.088,1.271,4.034,2.816,5.816,4.59
			c-2.674,0.854-6.708,1.886-11.011,1.886c-4.436,0-8.206-1.076-11.186-3.196c-2.446-1.734-3.786-5.405-5.062-8.959
			c-1.471-4.066-3.006-8.274-6.502-9.861c-0.976-0.438-1.951-0.659-2.942-0.659c-2.463,0-4.388,1.355-5.801,2.359
			c-0.496,0.335-1.245,0.876-1.123,1.016c-0.564-0.388-0.934-1.095-1.107-2.089c-0.518-3.029,0.996-7.572,3.854-11.599
			c3.67-5.179,8.011-7.538,10.483-7.538c0.606,0,1.129,0.145,1.292,0.073c0.048,0.288-0.211,1.174-0.369,1.751
			c-0.606,2.139-1.624,5.735,1.303,8.812c2.652,2.771,6.924,2.813,11.448,2.858c3.787,0.037,7.705,0.079,10.151,1.809
			c6.682,4.746,8.222,13.769,8.517,19.267c-1.719-1.572-3.554-3.003-5.511-4.179c-0.379-0.227-0.791-0.293-1.191-0.282
			C133.555,44.836,133.704,43.417,133.46,41.98z M129.2,42.713c0.189,1.134-0.063,2.286-0.738,3.225
			c-0.802,1.139-2.12,1.814-3.522,1.814c-0.896,0-1.756-0.274-2.5-0.789c-0.938-0.664-1.561-1.65-1.751-2.779
			c-0.189-1.152,0.074-2.302,0.744-3.253c0.807-1.14,2.13-1.819,3.518-1.819c0.896,0,1.75,0.282,2.479,0.788
			C128.382,40.575,129,41.574,129.2,42.713z M95.524,113.309l-0.063,2.156v-2.156c-2.168,0-3.902-1.698-3.935-3.871
			c-0.026-2.162,1.704-3.95,3.935-3.992c2.141,0,3.896,1.729,3.929,3.876C99.42,111.484,97.68,113.272,95.524,113.309z
			 M128.598,99.73c-1.481,0-2.499-1.013-3.116-1.825c-2.494-5.764,0.596-8.886,0.77-9.049c0.876-0.796,0.939-2.146,0.143-3.032
			c-0.796-0.892-2.167-0.965-3.053-0.158c-0.211,0.185-4.44,4.124-2.812,11.059c-0.115,0.026-0.231,0.058-0.321,0.058
			c-0.918,0-1.856-0.759-2.046-1.044c-1.261-2.299-1.482-4.488-0.665-6.745c2.004-5.526,9.461-9.914,13.985-12.134
			c-0.416,3.633-0.169,6.586,0.744,9.576c2.631,8.639,1.877,10.79-0.823,12.383C130.381,99.44,129.432,99.73,128.598,99.73z
			 M70.939,105.452c2.165,0.036,3.905,1.824,3.873,3.976c-0.034,2.168-1.767,3.887-3.937,3.882v2.156l-0.045-2.156
			c-2.17-0.037-3.907-1.825-3.871-3.992C66.992,107.175,68.753,105.452,70.939,105.452z M34.112,86.43
			c0.917-3.017,1.16-5.959,0.733-9.598c4.976,2.457,12.092,6.919,13.993,12.145c0.82,2.257,0.604,4.456-0.665,6.739
			c-0.19,0.312-1.134,1.061-2.046,1.061c-0.087,0-0.206-0.032-0.314-0.063c1.629-6.93-2.613-10.874-2.819-11.059
			c-0.886-0.796-2.251-0.733-3.051,0.158c-0.793,0.881-0.725,2.252,0.161,3.038c0.032,0.031,3.328,3.116,0.746,9.049
			c-0.611,0.812-1.622,1.814-3.106,1.814c-0.836,0-1.783-0.312-2.808-0.918C32.237,97.225,31.48,95.063,34.112,86.43z M35.05,31.365
			c2.452-1.729,6.362-1.771,10.146-1.812c4.521-0.053,8.793-0.098,11.464-2.866c2.917-3.056,1.901-6.652,1.292-8.801
			c-0.163-0.572-0.379-1.324-0.593-1.411c1.985-1.392,7.417,0.654,12.007,7.111c2.858,4.034,4.375,8.604,3.85,11.607
			c-0.166,0.986-0.538,1.682-0.701,1.991c-0.274-0.063-1.026-0.577-1.521-0.938c-1.972-1.395-5.363-3.214-8.744-1.685
			c-3.499,1.587-5.028,5.793-6.502,9.861c-1.289,3.546-2.624,7.225-5.07,8.957c-2.99,2.123-6.755,3.198-11.183,3.198l0,0
			c-4.306,0-8.332-1.015-11.011-1.88c1.782-1.772,3.721-3.309,5.816-4.596c0.367-0.221,0.604-0.556,0.783-0.912
			c1.619,1.767,3.887,2.835,6.323,2.835c1.798,0,3.525-0.562,4.999-1.604c1.88-1.318,3.122-3.293,3.51-5.561
			c0.39-2.286-0.135-4.585-1.474-6.466c-2.645-3.726-8.277-4.714-12.032-2.051c-1.882,1.334-3.138,3.319-3.525,5.595
			c-0.243,1.435-0.092,2.851,0.361,4.19c-0.408-0.01-0.82,0.053-1.191,0.274c-1.962,1.2-3.792,2.613-5.514,4.185
			C26.827,45.134,28.361,36.111,35.05,31.365z M37.141,42.713c0.195-1.139,0.82-2.139,1.764-2.808
			c0.73-0.522,1.59-0.789,2.481-0.789c1.397,0,2.716,0.681,3.525,1.822c0.67,0.949,0.934,2.099,0.738,3.251
			c-0.192,1.128-0.814,2.114-1.748,2.779c-1.891,1.339-4.704,0.854-6.033-1.016C37.199,45,36.941,43.847,37.141,42.713z
			 M12.883,50.586c-0.928,2.194-3.596,3.317-5.832,2.365c-1.089-0.459-1.943-1.315-2.392-2.418
			c-0.448-1.107-0.443-2.323,0.021-3.417c0.691-1.658,2.302-2.734,4.1-2.734c0.593,0,1.176,0.113,1.732,0.351
			c1.102,0.459,1.948,1.318,2.396,2.421C13.358,48.271,13.353,49.479,12.883,50.586z M58.789,150.181
			c-8.306-0.201-16.031-3.629-21.755-9.641c-3.446-3.606-5.653-8.078-6.431-12.904c10.141,13.147,20.396,18.384,27.913,20.398
			c2.895,0.775,5.822,1.17,8.699,1.202C64.498,149.922,61.658,150.234,58.789,150.181z M129.31,140.546
			c-5.731,6.006-13.447,9.434-21.758,9.635c-2.858,0.053-5.7-0.259-8.416-0.944c2.874-0.032,5.801-0.427,8.695-1.202
			c7.521-2.015,17.771-7.268,27.907-20.398C134.963,132.462,132.759,136.934,129.31,140.546z M153.462,50.576
			c-0.464-1.097-0.475-2.304-0.031-3.406c0.453-1.103,1.303-1.962,2.404-2.426c0.56-0.232,1.134-0.346,1.725-0.346
			c1.793,0,3.396,1.065,4.103,2.74c0.459,1.097,0.47,2.304,0.017,3.412c-0.448,1.103-1.303,1.949-2.395,2.421
			C157.048,53.904,154.391,52.786,153.462,50.576z"/>
	</g>
</g>
<g>
</g>
<g>
</g>
<g>
</g>
<g>
</g>
<g>
</g>
<g>
</g>
<g>
</g>
<g>
</g>
<g>
</g>
<g>
</g>
<g>
</g>
<g>
</g>
<g>
</g>
<g>
</g>
<g>
</g>
</svg>
