<?xml version="1.0" encoding="iso-8859-1"?>
<!-- Generator: Adobe Illustrator 16.0.0, SVG Export Plug-In . SVG Version: 6.00 Build 0)  -->
<!DOCTYPE svg PUBLIC "-//W3C//DTD SVG 1.1//EN" "http://www.w3.org/Graphics/SVG/1.1/DTD/svg11.dtd">
<svg version="1.1" id="Capa_1" xmlns="http://www.w3.org/2000/svg" xmlns:xlink="http://www.w3.org/1999/xlink" x="0px" y="0px"
	 width="126.344px" height="126.344px" viewBox="0 0 126.344 126.344" style="enable-background:new 0 0 126.344 126.344;"
	 xml:space="preserve">
<g>
	<g>
		<path d="M126.153,43.384c0.69-4.602-0.501-9.208-3.354-12.971c-1.461-1.911-3.28-3.504-5.337-4.698
			c1.318-1.324,2.12-2.979,2.278-4.901c0.259-3.215-1.255-6.434-2.821-7.831c-3.902-3.479-8.284-5.245-13.025-5.245
			c-18.473,0-36.236,26.542-36.982,27.675c-0.048,0.077-0.048,0.164-0.084,0.246c-0.035,0.079-0.056,0.134-0.077,0.219
			c-0.065,0.303-0.065,0.611,0.093,0.896c0,0,0,0.005,0,0.013l0,0v0.006c0.113,0.221,0.29,0.393,0.495,0.521
			c0.114,0.071,0.248,0.077,0.372,0.108c0.108,0.026,0.195,0.092,0.309,0.092c10.927,0.113,16.39,1.964,21.226,4.714
			c8.723,4.946,14.08,6.966,18.505,6.966c3.744,0,6.839-1.448,9.734-4.543c3.101-3.309,4.514-6.781,4.188-10.322
			c-0.032-0.335-0.148-0.628-0.211-0.952c1.771,2.911,2.531,6.249,2.024,9.613c-1.439,9.519-8.901,12.847-21.984,17.912
			c-2.605,1.015-5.3,1.896-8.164,2.829c-5.916,1.938-11.896,3.956-17.102,7.056c0.105-0.322,0.237-0.622,0.322-0.955
			c0.221-0.907,0.29-2.088,0.247-3.451c0-0.219-0.021-0.43-0.036-0.651c-0.459-9.233-5.405-25.893-5.659-26.721
			c-0.132-0.458-0.506-0.809-0.973-0.923c-0.469-0.113-0.962,0.026-1.292,0.372c-0.259,0.271-2.655,2.776-5.674,6.173
			c-3.014-3.396-5.416-5.901-5.675-6.173c-0.334-0.346-0.828-0.49-1.292-0.372c-0.464,0.114-0.835,0.464-0.973,0.923
			c-0.248,0.828-5.194,17.481-5.653,26.721c-0.016,0.222-0.031,0.433-0.037,0.651c-0.037,1.363,0.026,2.544,0.248,3.451
			c0.082,0.333,0.216,0.633,0.319,0.955c-5.205-3.091-11.177-5.113-17.097-7.056c-2.855-0.939-5.55-1.819-8.161-2.829
			C11.771,55.831,4.299,52.499,2.862,42.99c-0.509-3.364,0.253-6.702,2.025-9.613c-0.061,0.33-0.18,0.617-0.211,0.957
			c-0.324,3.536,1.086,7.014,4.185,10.317c2.9,3.096,5.996,4.543,9.737,4.543c4.422,0,9.785-2.02,18.504-6.966
			c4.833-2.75,10.289-4.606,21.223-4.714c0.108,0,0.2-0.066,0.303-0.092c0.129-0.032,0.264-0.037,0.377-0.108
			c0.211-0.124,0.382-0.3,0.496-0.521v-0.006l0,0c0-0.008,0-0.013,0-0.013c0.147-0.285,0.153-0.594,0.087-0.896
			c-0.016-0.085-0.037-0.14-0.074-0.222c-0.034-0.079-0.029-0.166-0.082-0.243c-0.746-1.134-18.497-27.675-36.97-27.675
			c-4.741,0-9.12,1.767-13.02,5.239c-1.572,1.397-3.093,4.612-2.834,7.823c0.158,1.928,0.957,3.591,2.291,4.915
			c-2.064,1.2-3.899,2.792-5.353,4.709c-2.855,3.758-4.05,8.364-3.354,12.96c1.658,10.969,10.077,14.752,23.68,20.033
			c0.011,0.006,0.021,0.006,0.037,0.011c-6.442,0.72-11.464,4.216-14.386,10.323c-1.495-0.254-3.056-0.148-4.432,0.585
			c-1.653,0.896-2.853,2.378-3.385,4.171c-0.536,1.793-0.335,3.697,0.562,5.337c1.231,2.268,3.596,3.671,6.172,3.671
			c1.16,0,2.315-0.296,3.335-0.839c3.396-1.851,4.672-6.122,2.829-9.529c-0.583-1.07-1.505-1.846-2.526-2.457
			c3.833-7.768,11.47-10.537,21.647-7.691c0.153,0.047,0.282-0.042,0.432-0.048c11.378,3.763,22.708,8.129,26.742,21.239
			c0.756,2.457,0.97,4.936,0.835,7.372c-0.016,0.031-0.058,0.031-0.068,0.079c-2.842,7.093-7.821,10.167-13.959,8.696
			c-2.328-0.56-4.3-1.983-5.553-4.019c-1.252-2.036-1.635-4.436-1.083-6.761c0.907-3.713,4.664-5.996,8.332-5.11
			c1.36,0.333,2.515,1.16,3.243,2.357c0.735,1.202,0.957,2.6,0.627,3.971c-0.231,0.986-0.841,1.746-1.608,2.289
			c-0.021-0.354-0.097-0.718-0.253-1.05c-0.699-1.477-2.457-2.125-3.937-1.439c-1.487,0.696-2.123,2.447-1.427,3.939
			c0.227,0.485,0.594,0.844,1.016,1.129c0.177,0.332,0.458,0.569,0.846,0.675c1.719,0.4,3.501,0.116,5.012-0.797
			c1.506-0.928,2.565-2.389,2.975-4.118c0.498-2.067,0.163-4.192-0.949-6.007c-1.113-1.813-2.855-3.074-4.92-3.56
			c-5.123-1.233-10.325,1.936-11.588,7.088c-0.723,3.037-0.222,6.164,1.411,8.822c1.629,2.643,4.195,4.504,7.219,5.231
			c1.237,0.301,2.442,0.442,3.602,0.442c3.298,0,6.241-1.238,8.704-3.506c-0.134,0.253-0.211,0.527-0.351,0.77
			c-3.314,5.526-9.208,9.492-16.16,10.853c-5.1,1.002-10.257-0.063-14.555-2.953s-7.214-7.288-8.208-12.371
			c-0.145-0.728-0.87-1.192-1.582-1.065c-0.733,0.147-1.21,0.854-1.068,1.593c1.129,5.779,4.448,10.8,9.347,14.091
			c3.694,2.479,7.947,3.775,12.3,3.775c1.421,0,2.851-0.137,4.277-0.422c7.707-1.498,14.257-5.928,17.966-12.118
			c0.754-1.255,1.34-2.584,1.83-3.935c0.49,1.351,1.076,2.689,1.835,3.955c3.716,6.181,10.249,10.6,17.959,12.098
			c1.429,0.285,2.853,0.422,4.276,0.422c4.356,0,8.606-1.297,12.298-3.775c4.899-3.291,8.216-8.312,9.345-14.091
			c0.143-0.738-0.338-1.445-1.065-1.593c-0.732-0.121-1.444,0.338-1.582,1.065c-0.996,5.083-3.907,9.481-8.211,12.371
			c-4.303,2.9-9.466,3.935-14.555,2.964c-6.944-1.36-12.835-5.315-16.152-10.853c-0.145-0.243-0.222-0.517-0.351-0.771
			c2.457,2.278,5.402,3.496,8.693,3.496c1.155,0,2.362-0.142,3.597-0.442c3.032-0.728,5.595-2.589,7.225-5.231
			c1.635-2.658,2.136-5.774,1.413-8.822c-1.25-5.152-6.465-8.354-11.575-7.088c-2.072,0.485-3.823,1.746-4.931,3.56
			c-1.107,1.814-1.453,3.939-0.954,6.007c0.405,1.719,1.466,3.19,2.974,4.118c1.509,0.929,3.291,1.208,5.016,0.797
			c0.379-0.105,0.669-0.343,0.844-0.675c0.416-0.285,0.791-0.644,1.018-1.129c0.696-1.482,0.068-3.248-1.43-3.939
			c-1.471-0.686-3.237-0.053-3.934,1.439c-0.153,0.332-0.227,0.696-0.253,1.039c-0.771-0.532-1.377-1.292-1.608-2.278
			c-0.327-1.371-0.105-2.778,0.633-3.971c0.732-1.197,1.888-2.024,3.254-2.357c3.696-0.907,7.419,1.403,8.315,5.1
			c0.56,2.336,0.169,4.735-1.081,6.771c-1.249,2.035-3.227,3.475-5.558,4.019c-6.128,1.486-11.111-1.604-13.954-8.696
			c-0.011-0.037-0.053-0.048-0.069-0.079c-0.134-2.437,0.079-4.915,0.831-7.372c4.039-13.11,15.369-17.461,26.749-21.244
			c0.143,0.011,0.274,0.095,0.428,0.053c10.178-2.84,17.813-0.093,21.657,7.691c-1.022,0.611-1.945,1.387-2.536,2.468
			c-1.841,3.396-0.564,7.668,2.826,9.519c1.019,0.554,2.179,0.839,3.339,0.839c2.584,0,4.946-1.403,6.175-3.671
			c0.896-1.646,1.097-3.544,0.564-5.337c-0.533-1.793-1.729-3.274-3.381-4.171c-1.371-0.749-2.932-0.839-4.424-0.585
			c-2.927-6.107-7.952-9.604-14.396-10.323c0.011-0.005,0.026-0.011,0.037-0.016C116.075,58.141,124.492,54.357,126.153,43.384z
			 M75.981,28.127l4.082,1.034c-2.979,1.213-5.601,2.381-7.699,3.37C73.375,31.233,74.579,29.744,75.981,28.127z M81.085,31.661
			l-1.582,4.179c-1.813-0.351-3.854-0.62-6.186-0.799C75.617,33.965,78.264,32.805,81.085,31.661z M84.471,30.342
			c1.798-0.669,3.644-1.313,5.495-1.912l-3.724,9.342c-1.218-0.49-2.562-0.938-4.076-1.339L84.471,30.342z M92.861,24.736
			l-9.149-4.487c1.382-1.234,2.832-2.418,4.335-3.515c0.079,0.108,0.079,0.242,0.185,0.324l8.659,6.682
			C95.545,24.03,94.206,24.359,92.861,24.736z M96.584,11.928l8.59,10.665c-1.534,0.066-3.116,0.2-4.762,0.459l-10.156-7.839
			C92.307,13.873,94.433,12.755,96.584,11.928z M106.519,25.229l-6.186,19.52c-1.497-0.599-3.164-1.376-5.021-2.32l6.165-16.806
			C103.255,25.359,104.937,25.229,106.519,25.229z M117.05,20.586c-0.079,0.949-0.416,1.764-0.912,2.495l-7.167-11.736
			c2.152,0.746,4.225,1.922,6.154,3.646C116.048,15.822,117.241,18.237,117.05,20.586z M105.554,10.596
			c0.026,0.156-0.016,0.319,0.068,0.459l7.699,12.598c-1.397-0.535-2.937-0.854-4.614-1L99.369,11.06
			c1.503-0.377,3.017-0.622,4.53-0.622C104.458,10.433,104.996,10.535,105.554,10.596z M81.582,22.216l7.473,3.665
			c-1.651,0.535-3.27,1.086-4.842,1.669c-0.089-0.042-0.121-0.15-0.221-0.171l-5.976-1.514
			C79.134,24.652,80.316,23.432,81.582,22.216z M88.706,38.88l4.567-11.443c1.729-0.49,3.448-0.923,5.125-1.269l-5.5,14.99
			c-0.754-0.409-1.508-0.82-2.325-1.284C89.982,39.539,89.365,39.204,88.706,38.88z M102.88,45.656l6.418-20.261
			c0.021,0.006,0.037,0.006,0.063,0.011c0.2,0.354,0.512,0.633,0.949,0.691c1.255,0.153,2.474,0.519,3.644,0.978l-5.874,19.177
			c-0.021,0.069,0.026,0.129,0.021,0.206c-0.115,0-0.227,0.031-0.343,0.031C106.303,46.484,104.716,46.218,102.88,45.656z
			 M115.505,42.801c-1.45,1.545-2.916,2.516-4.498,3.082l5.263-17.159c1.171,1.36,2.494,3.391,2.716,5.858
			C119.228,37.319,118.058,40.085,115.505,42.801z M36.082,15.208l-10.151,7.833c-1.643-0.258-3.225-0.393-4.762-0.459l8.585-10.66
			C31.914,12.75,34.031,13.873,36.082,15.208z M41.862,30.342l2.31,6.096c-1.516,0.4-2.86,0.849-4.076,1.339l-3.726-9.342
			C38.226,29.029,40.063,29.667,41.862,30.342z M53.972,32.525c-2.099-0.989-4.714-2.157-7.688-3.364l4.076-1.034
			C51.755,29.738,52.962,31.229,53.972,32.525z M53.012,35.041c-2.323,0.179-4.363,0.448-6.183,0.799l-1.582-4.179
			C48.077,32.8,50.721,33.965,53.012,35.041z M29.461,23.727l8.651-6.673c0.108-0.082,0.114-0.216,0.19-0.325
			c1.495,1.097,2.948,2.286,4.337,3.515l-9.144,4.482C32.146,24.359,30.801,24.024,29.461,23.727z M24.86,25.617l6.167,16.812
			c-1.856,0.944-3.521,1.717-5.021,2.32l-6.188-19.524C21.401,25.225,23.085,25.354,24.86,25.617z M7.36,34.587
			c0.221-2.468,1.545-4.493,2.71-5.854l5.26,17.149c-1.582-0.566-3.05-1.537-4.498-3.082C8.283,40.085,7.118,37.319,7.36,34.587z
			 M18.248,46.45c-0.005-0.074,0.042-0.135,0.021-0.203l-5.875-19.172c1.17-0.459,2.386-0.825,3.649-0.983
			c0.438-0.058,0.747-0.332,0.952-0.696c0.016,0,0.032-0.005,0.042-0.005l6.42,20.261c-1.835,0.562-3.428,0.828-4.865,0.828
			C18.474,46.484,18.366,46.45,18.248,46.45z M35.763,39.874c-0.815,0.464-1.577,0.875-2.326,1.284l-5.503-14.99
			c1.68,0.346,3.396,0.783,5.128,1.269l4.564,11.443C36.979,39.204,36.359,39.539,35.763,39.874z M48.319,25.86l-5.977,1.513
			c-0.092,0.021-0.129,0.124-0.216,0.166c-1.571-0.577-3.19-1.134-4.838-1.669l7.467-3.659
			C46.025,23.432,47.207,24.652,48.319,25.86z M26.988,11.06l-9.336,11.589c-1.679,0.14-3.227,0.469-4.617,0.999l7.691-12.593
			c0.084-0.14,0.042-0.303,0.068-0.454c0.557-0.066,1.107-0.164,1.674-0.164C23.972,10.433,25.482,10.675,26.988,11.06z
			 M11.236,14.991c1.922-1.714,3.987-2.895,6.141-3.646l-7.167,11.73c-0.501-0.73-0.841-1.55-0.917-2.497
			C9.108,18.229,10.303,15.822,11.236,14.991z M10.488,84.308c-2.025,1.098-4.746,0.285-5.849-1.74
			c-0.551-1.018-0.675-2.172-0.345-3.279c0.33-1.098,1.068-2.015,2.083-2.574c0.633-0.337,1.345-0.527,2.051-0.527
			c1.59,0,3.04,0.865,3.802,2.258C13.364,80.543,12.581,83.169,10.488,84.308z M119.972,76.714c1.018,0.56,1.751,1.467,2.083,2.574
			s0.205,2.277-0.343,3.279c-1.087,2.015-3.808,2.848-5.849,1.74c-2.094-1.139-2.874-3.765-1.74-5.854
			c0.765-1.402,2.221-2.268,3.808-2.268C118.632,76.187,119.329,76.36,119.972,76.714z M63.449,77.601
			c-0.274,0.01-0.538-0.043-0.81-0.053c-0.583-0.032-1.166-0.09-1.737-0.211c-0.253-0.059-0.504-0.127-0.757-0.201
			c-0.47-0.137-0.934-0.295-1.366-0.484c-0.189-0.09-0.372-0.18-0.556-0.274c-0.501-0.259-0.994-0.549-1.442-0.865
			c-0.068-0.058-0.14-0.11-0.211-0.158c-2.737-2.088-4.379-5.379-4.334-8.886c0.005-0.192,0.026-0.424,0.037-0.635
			c0.045-0.606,0.103-1.215,0.248-1.819c0.778-3.199,5.816-9.645,10.65-15.256c4.838,5.611,9.874,12.058,10.649,15.256
			c0.143,0.609,0.206,1.218,0.248,1.819c0.011,0.211,0.031,0.443,0.037,0.635c0.062,5.016-3.312,9.598-8.396,10.837
			c-0.681,0.163-1.369,0.253-2.044,0.285C63.591,77.59,63.52,77.601,63.449,77.601z M69.173,42.039
			c1.06,3.744,2.499,9.244,3.549,14.423c-2.23-3.196-5.097-6.706-7.766-9.777C66.497,44.95,67.97,43.336,69.173,42.039z
			 M57.16,42.039c1.213,1.297,2.676,2.911,4.21,4.646c-2.657,3.066-5.529,6.581-7.76,9.777C54.663,51.283,56.1,45.783,57.16,42.039z
			 M63.169,86.66c-0.865-2.584-2.015-4.799-3.333-6.771c0.029,0,0.05,0.011,0.076,0.021c0.026,0,0.048,0.021,0.082,0.021
			c0.016,0.011,0.031,0,0.053,0.011c0.989,0.222,2.004,0.38,3.051,0.38c0.023,0,0.05-0.011,0.076-0.011
			c0.021,0,0.048,0.011,0.071,0.011l0,0c1.047,0,2.062-0.158,3.051-0.38c0.016-0.011,0.031,0,0.048-0.011
			c0.025,0,0.055-0.021,0.076-0.021c0.026-0.011,0.058-0.021,0.092-0.021C65.184,81.861,64.04,84.076,63.169,86.66z"/>
		<path d="M69.012,67.992c0-3.23-2.613-5.849-5.843-5.849c-3.225,0-5.849,2.618-5.849,5.849c0,3.228,2.624,5.843,5.849,5.843
			C66.399,73.835,69.012,71.203,69.012,67.992z M63.169,71.135c-1.732,0-3.148-1.413-3.148-3.143c0-1.732,1.416-3.148,3.148-3.148
			c1.732,0,3.143,1.408,3.143,3.148C66.312,69.722,64.901,71.135,63.169,71.135z"/>
	</g>
</g>
<g>
</g>
<g>
</g>
<g>
</g>
<g>
</g>
<g>
</g>
<g>
</g>
<g>
</g>
<g>
</g>
<g>
</g>
<g>
</g>
<g>
</g>
<g>
</g>
<g>
</g>
<g>
</g>
<g>
</g>
</svg>
