<?xml version="1.0" encoding="iso-8859-1"?>
<!-- Generator: Adobe Illustrator 16.0.0, SVG Export Plug-In . SVG Version: 6.00 Build 0)  -->
<!DOCTYPE svg PUBLIC "-//W3C//DTD SVG 1.1//EN" "http://www.w3.org/Graphics/SVG/1.1/DTD/svg11.dtd">
<svg version="1.1" id="Capa_1" xmlns="http://www.w3.org/2000/svg" xmlns:xlink="http://www.w3.org/1999/xlink" x="0px" y="0px"
	 width="144.971px" height="144.971px" viewBox="0 0 144.971 144.971" style="enable-background:new 0 0 144.971 144.971;"
	 xml:space="preserve">
<g>
	<path d="M115.648,66.667c1.248,0.523,2.734-0.062,3.258-1.34c0.523-1.272-0.073-2.731-1.352-3.261
		c-7.515-3.136-14.761-2.469-21.032,1.656c1.047-3.066,1.699-6.333,1.699-9.837c0-6.224-4.007-11.987-7.515-17.065
		c-3.124-4.503-6.077-8.762-5.449-12.004c0.535-2.774,2.569-3.684,5.852-4.85c2.533-0.898,6.01-2.134,6.01-5.849
		C97.119,6.199,86.292,0,72.479,0C58.668,0,47.848,6.205,47.848,14.118c0,3.714,3.48,4.944,6.013,5.849
		c3.273,1.166,5.325,2.076,5.849,4.85c0.627,3.249-2.326,7.501-5.45,12.004c-3.511,5.079-7.514,10.836-7.514,17.059
		c0,3.504,0.661,6.771,1.708,9.837c-6.272-4.126-13.518-4.792-21.044-1.663c-1.266,0.53-1.875,1.988-1.339,3.261
		c0.524,1.279,1.994,1.857,3.249,1.339c8.966-3.702,17.171-0.63,23.437,8.51c-0.685-0.128-1.315-0.335-2.027-0.426
		c-12.002-1.468-23.075,7.124-24.573,19.192c-1.172,9.944,5.894,18.998,15.795,20.204c0.643,0.073,1.254,0.128,1.875,0.128
		c3.325,0,6.543-1.103,9.204-3.185c3.176-2.467,5.17-6.017,5.663-9.998c0.722-5.98-2.907-11.509-8.4-13.372
		c-2.183-1.65-5.237-1.583-7.212,0.377c-1.705,1.693-2.089,4.165-1.194,6.229c0.226,0.969,0.618,1.894,1.361,2.648
		c2.189,2.217,5.736,2.247,7.938,0.086c0.53-0.523,0.922-1.145,1.19-1.791c1.035,1.475,1.61,3.289,1.373,5.219
		c-0.326,2.661-1.678,5.036-3.766,6.68c-2.116,1.65-4.722,2.363-7.401,2.034c-7.17-0.871-12.309-7.441-11.448-14.65
		c1.16-9.329,9.682-15.966,19.017-14.84c11.971,1.468,18.742,10.261,19.086,24.808c0.012,0.725,0.329,1.357,0.828,1.796v36.17
		c0,1.376,1.135,2.497,2.497,2.497c1.376,0,2.493-1.121,2.493-2.497v-36.389c0.399-0.427,0.691-0.962,0.704-1.577
		c0.347-14.535,7.118-23.34,19.083-24.808c9.311-1.126,17.865,5.511,19.017,14.827c0.877,7.21-4.269,13.792-11.454,14.663
		c-2.63,0.329-5.279-0.384-7.38-2.034c-2.106-1.65-3.459-4.024-3.775-6.68c-0.226-1.93,0.335-3.744,1.37-5.219
		c0.28,0.652,0.664,1.268,1.199,1.791c2.211,2.174,5.767,2.143,7.929-0.086c0.742-0.755,1.133-1.674,1.357-2.637
		c0.914-2.07,0.518-4.548-1.188-6.229c-1.991-1.973-5.048-2.021-7.239-0.39c-5.48,1.875-9.109,7.397-8.385,13.378
		c0.493,3.988,2.496,7.532,5.662,10.004c2.661,2.083,5.87,3.185,9.201,3.179c0.621,0,1.229-0.036,1.863-0.122
		c9.913-1.193,17.001-10.266,15.795-20.216c-1.485-12.062-12.556-20.654-24.575-19.175c-0.7,0.086-1.34,0.293-2.01,0.42
		C98.489,66.025,106.715,62.953,115.648,66.667z M72.497,63.693c-3.921,0-7.115-3.191-7.115-7.118c0-3.925,3.194-7.115,7.115-7.115
		c3.919,0,7.122,3.19,7.122,7.115C79.625,60.502,76.421,63.693,72.497,63.693z M58.374,39.667
		c3.748-5.392,7.271-10.485,6.247-15.792c-1.12-5.775-5.903-7.483-9.085-8.604c-0.965-0.345-2.448-0.868-2.679-1.148
		c0-4.314,8.062-9.13,19.628-9.13s19.641,4.816,19.689,9.048c-0.28,0.362-1.748,0.886-2.729,1.23
		c-3.19,1.126-7.977,2.828-9.085,8.604c-1.022,5.307,2.497,10.395,6.235,15.786c3.252,4.698,6.619,9.56,6.619,14.225
		c0,13.728-11.904,24.292-18.186,28.914V68.387c5.453-1.178,9.545-6.028,9.545-11.819c0-6.674-5.432-12.105-12.102-12.105
		c-6.674,0-12.103,5.431-12.103,12.105c0,5.839,4.165,10.729,9.669,11.859v14.464c-6.259-4.561-18.313-15.165-18.313-29.011
		C51.751,49.228,55.119,44.372,58.374,39.667z"/>
</g>
<g>
</g>
<g>
</g>
<g>
</g>
<g>
</g>
<g>
</g>
<g>
</g>
<g>
</g>
<g>
</g>
<g>
</g>
<g>
</g>
<g>
</g>
<g>
</g>
<g>
</g>
<g>
</g>
<g>
</g>
</svg>
