<?xml version="1.0" encoding="iso-8859-1"?>
<!-- Generator: Adobe Illustrator 16.0.0, SVG Export Plug-In . SVG Version: 6.00 Build 0)  -->
<!DOCTYPE svg PUBLIC "-//W3C//DTD SVG 1.1//EN" "http://www.w3.org/Graphics/SVG/1.1/DTD/svg11.dtd">
<svg version="1.1" id="Capa_1" xmlns="http://www.w3.org/2000/svg" xmlns:xlink="http://www.w3.org/1999/xlink" x="0px" y="0px"
	 width="210.958px" height="210.958px" viewBox="0 0 210.958 210.958" style="enable-background:new 0 0 210.958 210.958;"
	 xml:space="preserve">
<g>
	<g>
		<path d="M209.541,105.729c-1.614-3.586-5.791-5.622-4.693-17.463c0,0-6.961,2.987-9.562,10.979c-5.774-13.155-19-7.312-19-7.312
			c6.165,3.913,3.85,8.986,7.805,14.805c-8.242-0.319-13.389,5.007-13.389,5.007c11.448,3.217,11.865,7.821,14.634,10.621
			c6.781,6.818,11.859,3.333,15.73,0.512c2.204,5.142,2.531,10.71,0.696,15.535c-1.793,4.688-5.448,8.321-10.305,10.199
			c-7.288,2.811-13.605,1.593-19.67-1.255c-0.237-0.116-0.475-0.222-0.717-0.327c-0.475-0.243-0.949-0.527-1.435-0.786
			c-6.745-5.21-8.839-11.507-6.007-17.893c0.085,0.021,0.147,0.053,0.243,0.074c0.427,0.073,0.854,0.105,1.266,0.105
			c3.56,0,6.597-2.553,7.214-6.044c0.337-1.925-0.09-3.881-1.213-5.484c-1.123-1.613-2.811-2.689-4.746-3.026
			c-4.045-0.749-7.789,2.024-8.49,5.959c-0.417,2.373,0.39,4.672,1.94,6.296c-2.157,4.62-2.347,9.229-0.681,13.542
			c-1.956-1.281-3.896-2.584-5.848-3.729c-5.337-3.153-10.299-6.043-15.203-7.34c8.695-5.422,15.509-13.342,19.521-22.992
			c5.068-12.177,5.1-25.579,0.122-37.8c3.554-1.144,7.52-3.04,6.476-10.212c-0.459-3.18-3.265-5.711,0.242-14.737
			c0,0-5.985,0.752-9.813,6.271c-1.867-5.432-6.317-6.415-5.843-12.335c0,0-10.273,5.764-4.525,15.979
			c-6.491-2.233-11.839,0.859-11.839,0.859c8.264,5.081,7.552,8.812,9.118,11.61c3.749,6.794,8.448,5.287,12.113,3.931
			c0.016,0.032,0.011,0.066,0.021,0.087c4.609,11.201,4.599,23.512-0.053,34.707c-2.9,6.982-7.398,13.005-13.099,17.656
			c0.485-0.823,1.033-1.593,1.444-2.479c2.548-5.601,2.996-11.676,1.572-17.463c2.8-2.592,6.344-7.931-3.186-13.521
			c-1.909-1.129-6.207-3.407-8.728-7.857c0,0-6.412,23.862,7.921,23.063c0.991,4.656,0.532,9.523-1.509,14.006
			c-2.562,5.632-7.198,9.999-13.052,12.261c-0.2,0.084-0.358,0.211-0.521,0.332c-3.555,0.939-7.188,1.309-10.816,1.14
			c8.312-4.183,15.235-11.201,19.054-20.45c0.453-1.098-0.069-2.363-1.171-2.812c-1.107-0.453-2.362,0.079-2.811,1.177
			c-3.66,8.838-10.531,15.735-19.37,19.406c-0.622,0.273-1.255,0.464-1.885,0.686v-13.774c3.947-0.485,7.602-2.268,10.423-5.284
			c3.248-3.478,5.015-8.074,4.973-12.938l-0.095-9.01l-2.984,1.292c-0.148,0.071-14.605,6.238-23.375,0.314
			c-0.989-0.665-2.333-0.396-2.998,0.578c-0.669,0.994-0.406,2.333,0.583,3.008c8.095,5.458,19.234,2.898,24.519,1.176l0.021,2.673
			c0.042,3.752-1.313,7.306-3.812,9.975c-2.458,2.615-5.738,4.092-9.236,4.123c-0.037,0-0.074,0-0.114,0
			c-7.208,0-13.109-6.188-13.175-13.845l-0.129-15.062c-0.021-2.995,5.746-6.37,14.067-6.42c0.065-0.011,0.129-0.011,0.2-0.011
			c3.062,0,6.015,0.617,8.124,1.695c1.697,0.875,2.716,1.973,2.726,2.922c-0.227,1.118-5.241,4.028-10.823,4.071
			c-4.076-0.032-7.899-1.004-8.369-1.274c0.248-0.788,3.035-2.647,7.726-2.576c2.84,0.113,4.543,0.928,5.187,1.669
			c0.791,0.896,2.141,0.984,3.043,0.19c0.896-0.788,0.98-2.151,0.189-3.045c-1.655-1.875-4.588-2.982-8.25-3.122
			c-4.25-0.14-8.203,1.03-10.486,3.261c-1.134,1.091-1.729,2.333-1.719,3.56c0.05,5.598,11.331,5.516,12.711,5.685
			c5.044-0.053,10.829-2.112,13.455-4.789c1.388-1.421,1.678-2.76,1.667-3.63c-0.021-2.689-1.825-5.076-5.078-6.75
			c-2.806-1.442-6.513-2.305-10.339-2.17c-10.51,0.103-18.399,4.725-18.349,10.794l0.129,15.056
			c0.079,9.234,6.75,16.749,15.264,17.903v13.632c-0.501-0.179-1.01-0.332-1.5-0.543c-8.838-3.681-15.72-10.567-19.369-19.417
			c-0.454-1.097-1.711-1.64-2.819-1.176c-1.102,0.459-1.627,1.714-1.173,2.821c3.818,9.25,10.758,16.269,19.068,20.44
			c-3.628,0.179-7.264-0.19-10.815-1.14c-0.164-0.11-0.324-0.264-0.525-0.327c-5.848-2.288-10.481-6.645-13.052-12.276
			c-2.041-4.482-2.5-9.334-1.505-13.99c14.325,0.794,7.921-23.063,7.921-23.063c-2.521,4.445-6.819,6.729-8.738,7.857
			c-9.524,5.585-5.978,10.913-3.175,13.511c-1.429,5.793-0.976,11.868,1.571,17.468c0.401,0.876,0.952,1.667,1.438,2.479
			c-5.698-4.65-10.196-10.684-13.1-17.655c-4.646-11.174-4.662-23.512-0.045-34.702c0.011-0.037,0.006-0.058,0.016-0.092
			c3.657,1.36,8.361,2.863,12.119-3.937c1.556-2.809,0.844-6.528,9.109-11.599c0,0-5.347-3.098-11.836-0.862
			c5.745-10.218-4.524-15.979-4.524-15.979c0.475,5.933-3.977,6.9-5.843,12.337c-3.829-5.519-9.819-6.275-9.819-6.275
			c3.512,9.041,0.698,11.578,0.237,14.739c-1.037,7.153,2.927,9.065,6.486,10.215c-4.979,12.205-4.941,25.618,0.118,37.8
			c4.008,9.64,10.811,17.555,19.493,22.977c-4.933,1.286-9.914,4.187-15.279,7.361c-1.946,1.149-3.89,2.447-5.843,3.729
			c1.661-4.324,1.474-8.928-0.68-13.542c1.548-1.635,2.354-3.935,1.933-6.308c-0.701-3.934-4.467-6.697-8.485-5.959
			c-1.933,0.338-3.623,1.414-4.746,3.027c-1.124,1.604-1.55,3.544-1.21,5.474c0.623,3.513,3.652,6.064,7.212,6.064
			c0.419,0,0.846-0.042,1.273-0.11c0.087-0.011,0.161-0.053,0.242-0.063c2.829,6.418,0.723,12.714-6.038,17.914
			c-0.448,0.231-0.891,0.495-1.339,0.717c-0.316,0.138-0.63,0.29-0.938,0.422c-6.02,2.811-12.29,3.987-19.514,1.208
			c-4.857-1.894-8.517-5.511-10.305-10.204c-1.835-4.831-1.5-10.389,0.696-15.546c3.868,2.837,8.943,6.317,15.726-0.496
			c2.771-2.795,3.185-7.414,14.634-10.621c0,0-5.137-5.312-13.382-5.01c3.953-5.821,1.643-10.916,7.805-14.808
			c0,0-13.215-5.832-19.003,7.312c-2.592-7.997-9.547-10.974-9.547-10.974c1.089,11.836-3.08,13.874-4.699,17.458
			c-3.818,8.511,0.849,12.055,4.823,14.624c-2.966,6.407-3.43,13.457-1.102,19.574c2.23,5.854,6.771,10.357,12.783,12.704
			c3.407,1.298,6.642,1.867,9.74,1.867c3.381,0,6.579-0.696,9.64-1.772c0.34,0.011,0.686-0.031,1.015-0.189
			c4.103-2.015,7.678-3.575,10.882-3.755c-1.055,1.14-1.819,2.616-2.112,4.504c-0.988,6.386,4.229,9.097,10.12,11.522
			c2.251,0.938,4.374,2.33,7.398,6.127l2.479,3.102l1.258-3.766c0.195-0.585,4.725-14.396,0.087-22.217
			c-1.648-2.779-4.174-4.493-7.522-5.084l-0.783-0.073c-1.292,0-3.272,0.538-4.633,2.024c-0.174,0.185-0.261,0.433-0.4,0.639
			c-0.955-0.417-1.917-0.729-2.89-0.896c0.33-0.217,0.665-0.438,0.989-0.648c2.226-1.467,4.422-2.943,6.626-4.251
			c8.936-5.289,14.905-8.458,20.791-7.098c0.907,0.348,1.825,0.675,2.742,0.97c0.33,0.158,0.654,0.254,0.984,0.443
			c0.438,0.253,0.917,0.295,1.381,0.222c3.272,0.833,6.584,1.286,9.861,1.286c3.385,0,6.718-0.506,9.951-1.339
			c3.241,0.833,6.568,1.339,9.954,1.339c3.259,0,6.565-0.442,9.824-1.275c0.438,0.053,0.892,0,1.303-0.232
			c0.2-0.111,0.39-0.158,0.585-0.264c1.129-0.338,2.252-0.749,3.364-1.202c5.822-1.239,11.744,1.93,20.566,7.15
			c2.205,1.308,4.403,2.784,6.635,4.251c0.321,0.211,0.653,0.432,0.985,0.648c-0.97,0.168-1.935,0.479-2.89,0.886
			c-0.132-0.195-0.227-0.443-0.4-0.628c-1.355-1.486-3.333-2.024-4.625-2.024l-0.786,0.073c-3.349,0.591-5.88,2.32-7.524,5.084
			c-4.641,7.82-0.116,21.632,0.084,22.217l1.261,3.766l2.479-3.102c3.026-3.797,5.146-5.188,7.393-6.127
			c5.896-2.426,11.111-5.137,10.125-11.522c-0.3-1.878-1.06-3.364-2.125-4.515c3.212,0.19,6.776,1.74,10.896,3.766
			c0.326,0.158,0.669,0.2,1.007,0.189c3.063,1.076,6.265,1.772,9.646,1.772c3.095,0,6.333-0.56,9.739-1.867
			c6.012-2.347,10.553-6.851,12.783-12.704c2.331-6.117,1.861-13.167-1.103-19.574C208.686,117.784,213.358,114.251,209.541,105.729
			z M46.319,124.155c-1.68,0.316-3.19-0.834-3.478-2.458c-0.14-0.78,0.032-1.582,0.493-2.235c0.464-0.665,1.155-1.107,2.474-1.287
			c1.458,0,2.705,1.055,2.963,2.51C49.056,122.299,47.967,123.859,46.319,124.155z M54.625,150.786c0.546,0,0.902,0.078,1.026,0.11
			c1.608,1.35,3.127,3.386,4.59,6.317c0.377,0.765,1.139,1.208,1.938,1.208c0.324,0,0.654-0.079,0.962-0.222
			c1.068-0.543,1.5-1.841,0.97-2.9c-1.68-3.364-3.515-5.737-5.437-7.436c0.01-0.011,0.016-0.048,0.026-0.059
			c0.361-0.395,1.065-0.605,1.447-0.605c2.086,0.363,3.581,1.371,4.575,3.031c2.251,3.797,1.527,10.368,0.538,14.914
			c-2.03-2.015-4.026-3.349-6.386-4.346c-6.93-2.848-7.884-4.371-7.501-6.86C51.704,151.756,52.708,150.786,54.625,150.786z
			 M152.086,160.795c-2.357,0.98-4.356,2.32-6.387,4.335c-0.991-4.525-1.714-11.096,0.538-14.903
			c1.002-1.677,2.483-2.668,4.599-3.037c0.358,0,1.07,0.211,1.429,0.611c0.011,0.011,0.016,0.042,0.026,0.053
			c-1.914,1.688-3.749,4.071-5.437,7.436c-0.527,1.065-0.095,2.373,0.97,2.9c0.316,0.147,0.639,0.222,0.971,0.222
			c0.786,0,1.561-0.443,1.93-1.202c1.467-2.933,2.979-4.968,4.588-6.317c0.116-0.032,0.485-0.105,1.028-0.105
			c1.92,0,2.922,0.97,3.265,3.143C159.975,156.429,159.021,157.937,152.086,160.795z M165.539,118.217c0.037,0,0.09,0,0.127,0
			c0.791,0.132,1.481,0.575,1.945,1.239c0.459,0.644,0.639,1.461,0.501,2.236c-0.264,1.45-1.497,2.488-2.964,2.488l-0.521-0.042
			c-1.641-0.3-2.737-1.861-2.458-3.485C162.427,119.251,163.64,118.217,165.539,118.217z"/>
	</g>
</g>
<g>
</g>
<g>
</g>
<g>
</g>
<g>
</g>
<g>
</g>
<g>
</g>
<g>
</g>
<g>
</g>
<g>
</g>
<g>
</g>
<g>
</g>
<g>
</g>
<g>
</g>
<g>
</g>
<g>
</g>
</svg>
