<?xml version="1.0" encoding="iso-8859-1"?>
<!-- Generator: Adobe Illustrator 16.0.0, SVG Export Plug-In . SVG Version: 6.00 Build 0)  -->
<!DOCTYPE svg PUBLIC "-//W3C//DTD SVG 1.1//EN" "http://www.w3.org/Graphics/SVG/1.1/DTD/svg11.dtd">
<svg version="1.1" id="Capa_1" xmlns="http://www.w3.org/2000/svg" xmlns:xlink="http://www.w3.org/1999/xlink" x="0px" y="0px"
	 width="221.324px" height="221.324px" viewBox="0 0 221.324 221.324" style="enable-background:new 0 0 221.324 221.324;"
	 xml:space="preserve">
<g>
	<g>
		<path d="M221.006,130.436c-0.762-4.286-3.173-8.037-6.753-10.521c-3.581-2.496-7.922-3.44-12.228-2.667
			c-0.847,0.14-1.412,0.95-1.248,1.809c0.14,0.847,0.975,1.406,1.809,1.248c3.482-0.621,6.99,0.146,9.895,2.174
			c2.898,2.01,4.829,5.042,5.462,8.524c0.816,4.524-0.249,9.256-2.935,13.001c-1.62,2.259-3.757,3.97-6.156,5.133
			c5.474-4.53,6.363-12.641,1.918-18.243c-3.714-4.646-10.516-5.432-15.174-1.705c-3.854,3.063-4.5,8.701-1.432,12.568
			c1.242,1.559,3.021,2.545,5,2.771c2.015,0.201,3.951-0.347,5.511-1.577c0.365-0.305,0.529-0.719,0.541-1.169
			c0.269-0.481,0.451-0.999,0.451-1.583c0-1.827-1.468-3.312-3.301-3.312c-1.832,0-3.306,1.485-3.306,3.312
			c0,0.401,0.097,0.785,0.231,1.145c-1.054-0.17-2.01-0.688-2.674-1.541c-2.003-2.502-1.595-6.174,0.914-8.178
			c3.306-2.63,8.165-2.088,10.796,1.225c3.422,4.299,2.703,10.589-1.607,14.029c-5.529,4.402-12.002,3.611-18.231-2.223
			c-0.262-0.244-0.597-0.316-0.919-0.348c-3.002-2.898-6.102-6.673-9.676-11.197c-1.62-2.034-3.173-4.227-4.731-6.4
			c0.529,0.092,1.065,0.22,1.613,0.22c1.656,0,3.318-0.45,4.963-1.364c2.003-1.139,3.465-2.989,4.073-5.199
			c0.634-2.223,0.354-4.555-0.785-6.577c-0.938-1.681-2.484-2.898-4.348-3.416c-1.875-0.518-3.806-0.286-5.486,0.664
			c-2.929,1.638-3.977,5.358-2.326,8.312c1.407,2.484,4.561,3.386,7.069,1.961c0.597-0.335,0.779-1.011,0.646-1.65
			c0.03-0.115,0.141-0.152,0.158-0.262c0.152-1.108-0.603-2.137-1.711-2.308c-1.077-0.158-2.063,0.578-2.247,1.644
			c-0.48-0.14-0.919-0.444-1.187-0.913c-0.804-1.437-0.293-3.258,1.139-4.062c0.949-0.536,2.058-0.67,3.111-0.371
			c1.06,0.292,1.948,0.992,2.484,1.942c1.491,2.655,0.542,6.028-2.107,7.526c-4.427,2.502-7.873-0.342-9.724-2.558
			c-7.66-10.346-16.423-19.674-31.719-19.674c-0.03,0-0.073,0-0.109,0c-7.545,0.024-14.401,3.044-19.272,8.5
			c-2.21,2.472-3.806,5.426-5.023,8.567v-5.949c0.237-0.194,0.493-0.359,0.676-0.633l3.873-5.718
			c0.188-0.28,0.249-0.603,0.237-0.932c5.486-2.192,9.755-6.881,11.229-12.921c0.298-1.236,0.39-2.856,0.341-4.731
			c-0.006-0.274-0.03-0.548-0.049-0.828c-0.608-12.721-7.496-35.872-7.837-37.017c-0.158-0.529-0.584-0.938-1.12-1.065
			s-1.114,0.03-1.492,0.433c-0.371,0.384-3.812,3.97-8.095,8.805c-4.29-4.835-7.734-8.427-8.093-8.805
			c-0.387-0.402-0.95-0.554-1.492-0.433c-0.536,0.128-0.965,0.536-1.12,1.065c-0.351,1.145-7.228,24.29-7.846,37.017
			c-0.018,0.273-0.042,0.548-0.048,0.828c-0.052,1.875,0.042,3.495,0.347,4.731c1.565,6.436,6.317,11.369,12.334,13.347
			c0.045,0.177,0.07,0.354,0.17,0.512l3.878,5.718c0.274,0.408,0.621,0.712,0.996,0.944v6.417c-1.209-3.452-2.947-6.667-5.337-9.353
			c-4.88-5.456-11.728-8.476-19.278-8.5c-15.247-0.018-24.07,9.255-31.77,19.601c-1.827,2.229-5.301,5.164-9.77,2.637
			c-2.658-1.498-3.605-4.871-2.107-7.526c0.536-0.944,1.422-1.644,2.475-1.942s2.168-0.158,3.118,0.377
			c1.428,0.798,1.945,2.619,1.148,4.055c-0.262,0.476-0.707,0.773-1.188,0.913c-0.198-1.059-1.172-1.802-2.256-1.638
			c-1.115,0.165-1.875,1.194-1.702,2.308c0.012,0.11,0.125,0.158,0.149,0.262c-0.125,0.64,0.058,1.316,0.648,1.65
			c2.487,1.426,5.663,0.518,7.072-1.967c1.638-2.947,0.591-6.661-2.332-8.305c-1.677-0.95-3.623-1.188-5.483-0.664
			c-1.863,0.518-3.41,1.735-4.356,3.416c-1.136,2.016-1.416,4.348-0.786,6.576c0.63,2.21,2.076,4.062,4.083,5.2
			c1.635,0.907,3.306,1.364,4.962,1.364c0.539,0,1.075-0.135,1.604-0.22c-1.559,2.18-3.112,4.372-4.722,6.399
			c-3.583,4.519-6.665,8.287-9.657,11.186c-0.335,0.025-0.679,0.104-0.953,0.354c-6.229,5.84-12.696,6.625-18.228,2.223
			c-4.308-3.434-5.023-9.73-1.601-14.023c2.636-3.312,7.483-3.866,10.793-1.229c2.509,2.003,2.932,5.675,0.922,8.178
			c-0.667,0.853-1.62,1.364-2.673,1.54c0.131-0.359,0.231-0.736,0.231-1.145c0-1.826-1.474-3.312-3.306-3.312
			c-1.833,0-3.31,1.486-3.31,3.312c0,0.584,0.192,1.108,0.459,1.583c0.013,0.438,0.174,0.858,0.542,1.163
			c1.559,1.242,3.517,1.79,5.502,1.583c1.982-0.231,3.766-1.212,4.999-2.771c3.069-3.86,2.438-9.499-1.428-12.568
			c-4.658-3.708-11.466-2.94-15.189,1.712c-4.439,5.59-3.547,13.712,1.933,18.237c-2.405-1.17-4.545-2.875-6.165-5.134
			c-2.676-3.751-3.742-8.476-2.926-13.013c0.625-3.482,2.564-6.509,5.462-8.519c2.898-2.009,6.418-2.782,9.895-2.174
			c0.843,0.152,1.66-0.401,1.809-1.248c0.149-0.858-0.411-1.669-1.257-1.809c-4.29-0.773-8.638,0.164-12.224,2.667
			c-3.583,2.484-5.985,6.235-6.75,10.521c-0.962,5.354,0.292,10.955,3.452,15.382c3.081,4.299,7.627,7.118,12.781,7.909
			c12.903,1.974,20.53-7.593,29.319-18.681c0.052-0.056,0.094-0.122,0.131-0.177c0.006-0.006,0.019-0.006,0.03-0.012
			c1.903-2.102,5.758-5.194,10.239-2.199c2.533,1.682,3.236,5.115,1.565,7.637c-1.251,1.881-3.815,2.381-5.693,1.15
			c-0.667-0.444-1.121-1.127-1.27-1.906c-0.159-0.779,0-1.559,0.429-2.204c0.35-0.518,0.874-0.779,1.428-0.858
			c0.186,1.005,1.065,1.754,2.113,1.681c1.123-0.091,1.939-1.071,1.845-2.187c-0.012-0.164-0.155-0.256-0.21-0.401
			c0.037-0.542-0.101-1.078-0.588-1.4c-2.375-1.565-5.593-0.926-7.176,1.425c-0.898,1.346-1.215,2.978-0.904,4.561
			c0.32,1.602,1.242,2.978,2.6,3.885c1.23,0.811,2.612,1.193,3.991,1.193c2.338,0,4.646-1.126,6.041-3.215
			c2.612-3.958,1.516-9.322-2.436-11.953c-2.326-1.547-4.808-2.064-7.265-1.596c0.317-0.45,0.649-0.876,0.972-1.314
			c1.248-1.748,2.505-3.502,3.79-5.213c0.046-0.066,0.101-0.104,0.131-0.152c0.012-0.012,0-0.03,0.012-0.049
			c7.146-9.547,15.29-18.005,28.902-18.005c0.031,0,0.067,0,0.101,0c6.646,0.018,12.668,2.673,16.958,7.459
			c4.807,5.377,7.066,12.976,6.211,20.855c-0.637,5.754-3.462,10.918-7.974,14.547c-4.171,3.343-9.335,4.908-14.629,4.652
			c-3.191-0.542-5.76-2.003-7.408-4.323c-1.976-2.801-2.63-6.723-1.772-10.771c0.551-2.606,2.077-4.829,4.305-6.291
			c2.238-1.442,4.911-1.941,7.517-1.395c2.016,0.414,3.736,1.608,4.853,3.331c1.108,1.705,1.483,3.764,1.06,5.767
			c-0.32,1.517-1.203,2.813-2.5,3.66c-1.303,0.852-2.856,1.15-4.403,0.821c-1.035-0.219-1.896-0.828-2.521-1.656
			c1.541-0.298,2.712-1.613,2.694-3.239c-0.024-1.82-1.522-3.282-3.349-3.252c-1.376,0.013-2.536,0.865-3.023,2.064
			c-0.049,0.109-0.168,0.152-0.192,0.286c-0.07,0.286,0.012,0.573-0.015,0.858c0,0.049-0.031,0.092-0.031,0.141
			c0,0.036,0.024,0.066,0.024,0.104c-0.097,1.577,0.17,3.142,1.057,4.494c1.09,1.687,2.761,2.831,4.725,3.251
			c2.338,0.493,4.737,0.049,6.753-1.261c1.988-1.303,3.361-3.306,3.848-5.626c0.597-2.819,0.067-5.699-1.504-8.11
			c-1.571-2.418-4.003-4.086-6.823-4.683c-3.422-0.725-6.927-0.073-9.861,1.833c-2.938,1.905-4.938,4.84-5.663,8.256
			c-0.85,4.02-0.387,7.935,1.172,11.174c-0.578-0.541-1.166-1.077-1.677-1.711c-2.85-3.537-4.147-7.977-3.647-12.513
			c0.792-7.289,7.383-12.55,14.678-11.789c0.78,0.098,1.629-0.523,1.714-1.395c0.094-0.853-0.524-1.619-1.382-1.704
			c-8.976-0.938-17.135,5.547-18.115,14.547c-0.584,5.34,0.947,10.607,4.314,14.803c3.374,4.195,8.181,6.825,13.53,7.404
			c0.545,0.066,1.081,0.072,1.623,0.098c0.083,0.012,0.143,0.042,0.238,0.048c0.067,0.007,0.131,0.013,0.191,0.013
			c0.046,0,0.064-0.031,0.101-0.031c0.195,0,0.387,0.031,0.588,0.031c5.617,0,11.042-1.895,15.476-5.469
			c3.434-2.764,5.915-6.356,7.475-10.345v9.529c-6.348,0.694-11.305,6.034-11.305,12.562c0,7.009,5.699,12.709,12.708,12.709
			c7.012,0,12.711-5.7,12.711-12.709c0-6.418-4.805-11.679-10.997-12.531v-8.787c1.583,3.679,3.952,6.991,7.155,9.572
			c4.444,3.574,9.858,5.469,15.473,5.469c0.188,0,0.39-0.024,0.59-0.031c0.037,0,0.055,0.031,0.092,0.031
			c0.066,0,0.134,0,0.201-0.013c0.079-0.006,0.146-0.036,0.237-0.048c0.536-0.025,1.077-0.031,1.613-0.098
			c5.353-0.579,10.157-3.215,13.524-7.404s4.907-9.463,4.323-14.803c-0.986-9.006-9.128-15.51-18.115-14.554
			c-0.853,0.092-1.479,0.858-1.383,1.705c0.098,0.871,0.92,1.485,1.705,1.395c7.301-0.761,13.896,4.493,14.682,11.788
			c0.493,4.531-0.804,8.97-3.647,12.508c-0.512,0.639-1.097,1.175-1.688,1.711c1.56-3.246,2.028-7.154,1.182-11.174
			c-0.725-3.416-2.734-6.363-5.663-8.257c-2.935-1.905-6.436-2.558-9.864-1.833c-2.825,0.597-5.249,2.266-6.819,4.683
			c-1.565,2.411-2.102,5.292-1.505,8.104c0.487,2.332,1.852,4.33,3.849,5.633c2.004,1.303,4.402,1.748,6.753,1.261
			c1.948-0.421,3.636-1.571,4.726-3.252c0.877-1.352,1.145-2.917,1.053-4.493c0-0.037,0.019-0.067,0.019-0.104
			c0-0.062-0.024-0.104-0.024-0.141c-0.024-0.286,0.049-0.572-0.012-0.858c-0.03-0.146-0.171-0.214-0.237-0.347
			c-0.5-1.164-1.633-1.985-2.99-1.998c-1.827-0.03-3.318,1.425-3.343,3.252c-0.024,1.626,1.145,2.929,2.691,3.239
			c-0.64,0.828-1.498,1.425-2.527,1.656c-1.534,0.323-3.1,0.024-4.402-0.822c-1.297-0.847-2.186-2.144-2.49-3.665
			c-0.433-2.004-0.055-4.05,1.06-5.761c1.12-1.724,2.844-2.911,4.847-3.331c2.612-0.554,5.285-0.055,7.514,1.395
			c2.235,1.455,3.77,3.684,4.312,6.29c0.853,4.044,0.213,7.965-1.778,10.772c-1.649,2.326-4.226,3.781-7.423,4.329
			c-5.267,0.274-10.448-1.315-14.613-4.665c-4.513-3.623-7.344-8.786-7.965-14.547c-0.864-7.879,1.406-15.466,6.211-20.849
			c4.28-4.792,10.297-7.441,16.958-7.459c0.03,0,0.062,0,0.098,0c13.621,0,21.763,8.458,28.905,18.005
			c0.006,0.013,0,0.031,0.012,0.049c0.049,0.055,0.098,0.092,0.135,0.146c1.291,1.717,2.551,3.471,3.799,5.219
			c0.323,0.444,0.646,0.87,0.963,1.32c-2.454-0.469-4.944,0.049-7.271,1.596c-3.952,2.631-5.042,7.995-2.43,11.959
			c1.388,2.083,3.684,3.209,6.028,3.209c1.376,0,2.765-0.383,4.007-1.193c1.357-0.913,2.271-2.283,2.6-3.885
			c0.316-1.589,0-3.221-0.913-4.561c-1.577-2.356-4.799-3.002-7.173-1.425c-0.481,0.316-0.634,0.858-0.591,1.4
			c-0.049,0.152-0.189,0.243-0.207,0.401c-0.098,1.115,0.719,2.096,1.851,2.187c1.048,0.085,1.918-0.664,2.107-1.681
			c0.56,0.079,1.084,0.348,1.425,0.858c0.438,0.646,0.597,1.425,0.438,2.204c-0.165,0.779-0.609,1.455-1.272,1.906
			c-1.895,1.248-4.445,0.73-5.7-1.145c-1.668-2.521-0.968-5.961,1.56-7.643c4.487-2.995,8.336,0.098,10.235,2.199
			c0.013,0.006,0.024,0.006,0.043,0.012c0.042,0.066,0.085,0.134,0.128,0.177c8.792,11.088,16.392,20.66,29.319,18.681
			c5.163-0.785,9.699-3.598,12.78-7.909C220.708,141.397,221.974,135.783,221.006,130.436z M95.067,83.44
			c1.096-4.53,8.275-13.682,15.071-21.562c6.798,7.879,13.971,17.031,15.073,21.562c0.194,0.828,0.274,1.65,0.341,2.466
			c0.019,0.353,0.055,0.743,0.061,1.071c0.067,7.07-4.713,13.536-11.867,15.278c-1.182,0.286-2.399,0.426-3.602,0.432
			c-1.203-0.006-2.421-0.146-3.593-0.432h-0.006c-7.158-1.742-11.935-8.208-11.871-15.278c0.006-0.329,0.042-0.725,0.061-1.071
			C94.793,85.084,94.866,84.269,95.067,83.44z M118.611,52.428c1.583,5.547,3.824,14.17,5.353,22.031
			c-3.216-4.804-7.673-10.266-11.762-14.979C114.574,56.807,116.802,54.359,118.611,52.428z M101.659,52.428
			c1.809,1.931,4.046,4.378,6.409,7.052c-4.083,4.707-8.543,10.175-11.762,14.979C97.829,66.598,100.072,57.976,101.659,52.428z
			 M109.251,151.967v17.568c-1.315-1.377-2.582-4.494-2.582-8.787C106.67,156.474,107.936,153.362,109.251,151.967z M112.37,169.047
			v-16.586c1.188,1.534,2.253,4.378,2.253,8.293C114.634,164.67,113.563,167.513,112.37,169.047z M101.065,160.754
			c0-3.142,1.541-5.912,3.885-7.66c-0.874,2.107-1.397,4.719-1.397,7.66s0.518,5.554,1.397,7.666
			C102.605,166.667,101.065,163.897,101.065,160.754z M120.249,160.754c0,3.143-1.54,5.912-3.885,7.666
			c0.864-2.119,1.389-4.73,1.389-7.666c0-2.935-0.518-5.553-1.389-7.66C118.708,154.836,120.249,157.613,120.249,160.754z"/>
		<path d="M110.138,96.831c4.289,0,7.797-3.495,7.797-7.794s-3.508-7.794-7.797-7.794c-4.296,0-7.795,3.495-7.795,7.794
			S105.842,96.831,110.138,96.831z M110.138,84.36c2.584,0,4.679,2.095,4.679,4.677c0,2.582-2.095,4.676-4.679,4.676
			c-2.582,0-4.677-2.095-4.677-4.676C105.461,86.455,107.556,84.36,110.138,84.36z"/>
	</g>
</g>
<g>
</g>
<g>
</g>
<g>
</g>
<g>
</g>
<g>
</g>
<g>
</g>
<g>
</g>
<g>
</g>
<g>
</g>
<g>
</g>
<g>
</g>
<g>
</g>
<g>
</g>
<g>
</g>
<g>
</g>
</svg>
