<?xml version="1.0" encoding="iso-8859-1"?>
<!-- Generator: Adobe Illustrator 16.0.0, SVG Export Plug-In . SVG Version: 6.00 Build 0)  -->
<!DOCTYPE svg PUBLIC "-//W3C//DTD SVG 1.1//EN" "http://www.w3.org/Graphics/SVG/1.1/DTD/svg11.dtd">
<svg version="1.1" id="Capa_1" xmlns="http://www.w3.org/2000/svg" xmlns:xlink="http://www.w3.org/1999/xlink" x="0px" y="0px"
	 width="242.799px" height="242.8px" viewBox="0 0 242.799 242.8" style="enable-background:new 0 0 242.799 242.8;"
	 xml:space="preserve">
<g>
	<g>
		<path d="M121.384,58.775c4.187,0,7.584,3.397,7.584,7.587c0,4.195-3.397,7.593-7.584,7.593c-4.192,0-7.59-3.397-7.59-7.593
			C113.794,62.173,117.192,58.775,121.384,58.775z"/>
		<path d="M121.384,168.922c-4.177,0-7.602,3.397-7.602,7.594c0,4.188,3.425,7.593,7.602,7.593c4.198,0,7.597-3.404,7.597-7.593
			C128.981,172.319,125.583,168.922,121.384,168.922z"/>
		<path d="M240.631,117.663l-8.842-5.967c-0.767-0.524-1.753-0.573-2.557-0.134c-0.816,0.426-1.328,1.279-1.328,2.21v2.399
			c-0.347-0.062-0.651-0.189-0.998-0.189c-2.119,0-3.897,1.225-4.811,2.99h-6.674c-0.013,0-0.024,0-0.024,0
			c-0.561-0.037-1.096-0.037-1.62,0c-2.374-0.195-4.603-1.176-6.394-2.801c-2.131-1.943-3.373-4.61-3.501-7.502
			c-0.177-4.494,3.282-8.306,7.782-8.507c2.313-0.03,4.457,1.279,5.547,3.252c-0.926,0.511-1.559,1.51-1.51,2.63
			c0.073,1.59,1.425,2.813,2.983,2.74c0.572-0.024,1.06-0.25,1.485-0.548c0.122,0.019,0.256,0.073,0.378,0.073
			c1.389-0.067,2.46-1.23,2.399-2.606c-0.269-6.071-5.249-10.735-11.496-10.528c-4.555,0.195-8.477,2.734-10.681,6.382
			c-0.962-0.816-2.119-1.358-3.422-1.626c1.107-1.602,2.095-3.294,2.776-5.225c4.896-14.041-2.533-29.471-16.551-34.392
			c-17.244-6.028-36.145,3.081-42.173,20.295c-0.231,0.652-0.359,1.309-0.536,1.955h-7.003c3.228-2.381,5.821-5.65,7.283-9.548
			c0.256-0.657,0.444-1.443,0.621-2.302c0.426-1.687,0.584-3.446,0.572-5.225c0.657-13.676-3.179-36.528-3.702-39.622
			c-0.146-0.877-0.755-1.602-1.583-1.924c-0.841-0.305-1.767-0.14-2.46,0.396c-1.279,1.048-6.918,5.675-13.205,11.393
			c-6.271-5.718-11.91-10.345-13.201-11.393c-0.679-0.56-1.607-0.7-2.451-0.396c-0.828,0.322-1.434,1.047-1.583,1.924
			c-0.536,3.087-4.357,25.958-3.714,39.641c0,1.754,0.143,3.507,0.572,5.176c0.155,0.871,0.38,1.656,0.624,2.314
			c1.458,3.909,4.052,7.167,7.295,9.547h-6.966c-0.18-0.651-0.354-1.309-0.573-1.948C95.366,63.391,76.453,54.281,59.217,60.31
			c-14.029,4.92-21.443,20.35-16.535,34.392c0.667,1.918,1.647,3.604,2.749,5.194c-1.291,0.268-2.426,0.81-3.397,1.613
			c-0.448-0.749-0.971-1.455-1.583-2.125c-2.363-2.594-5.599-4.092-9.109-4.256c-5.98-0.195-11.231,4.445-11.5,10.522
			c-0.061,1.382,1.011,2.533,2.402,2.6c0.131,0.006,0.244-0.048,0.381-0.067c0.423,0.305,0.91,0.53,1.482,0.554
			c1.571,0.073,2.926-1.163,2.987-2.74c0.061-1.151-0.587-2.143-1.522-2.643c1.047-1.954,3.117-3.264,5.556-3.245
			c2.195,0.104,4.189,1.035,5.651,2.637c1.47,1.613,2.226,3.702,2.131,5.876c-0.131,2.886-1.379,5.56-3.504,7.502
			c-1.791,1.644-4.028,2.605-6.397,2.789c-0.551-0.043-1.093-0.043-1.598-0.007c-0.031,0-0.043,0.013-0.055,0.013h-6.677
			c-0.911-1.748-2.701-2.99-4.808-2.99c-0.362,0-0.661,0.134-0.999,0.195v-2.405c0-0.92-0.512-1.76-1.328-2.21
			c-0.804-0.426-1.802-0.384-2.569,0.134l-8.83,5.98C0.795,118.528,0,119.904,0,121.384c0,1.485,0.78,2.868,2.146,3.8l8.83,5.967
			c0.417,0.293,0.91,0.421,1.409,0.421c0.393,0,0.804-0.11,1.172-0.292c0.816-0.427,1.328-1.279,1.328-2.205v-2.417
			c0.344,0.079,0.648,0.2,0.999,0.2c2.119,0,3.897-1.235,4.807-2.983h6.677c0.012,0,0.031,0,0.031,0c0.536,0.024,1.075,0.037,1.61,0
			c2.375,0.183,4.606,1.169,6.397,2.789c2.137,1.954,3.373,4.616,3.504,7.508c0.192,4.5-3.279,8.306-7.782,8.507
			c-2.426-0.043-4.497-1.31-5.544-3.246c0.932-0.505,1.571-1.504,1.504-2.648c-0.064-1.583-1.422-2.789-2.987-2.728
			c-0.572,0.024-1.072,0.255-1.483,0.56c-0.131-0.023-0.244-0.072-0.38-0.072c-1.379,0.061-2.451,1.205-2.39,2.594
			c0.268,5.895,5.151,10.521,11,10.521c0.155,0,0.344-0.006,0.487-0.012c4.564-0.201,8.485-2.729,10.68-6.369
			c0.972,0.804,2.119,1.352,3.41,1.619c-1.108,1.596-2.083,3.295-2.749,5.213c-4.896,14.041,2.518,29.465,16.547,34.392
			c3.593,1.261,7.283,1.869,10.888,1.869c13.673,0,26.5-8.537,31.289-22.158c0.219-0.646,0.387-1.31,0.587-1.955h6.939
			c-3.243,2.375-5.837,5.633-7.283,9.536c-0.244,0.663-0.436,1.443-0.636,2.301c-0.399,1.693-0.573,3.447-0.573,5.213
			c-0.636,13.694,3.179,36.541,3.714,39.622c0.143,0.883,0.755,1.607,1.596,1.925c0.283,0.115,0.587,0.158,0.88,0.158
			c0.575,0,1.136-0.195,1.571-0.561c1.291-1.047,6.929-5.688,13.202-11.398c6.28,5.711,11.919,10.352,13.198,11.398
			c0.45,0.365,1.011,0.561,1.583,0.561c0.292,0,0.584-0.067,0.895-0.158c0.828-0.317,1.432-1.042,1.584-1.925
			c0.523-3.081,4.329-25.952,3.702-39.634c0.012-1.754-0.141-3.502-0.572-5.183c-0.165-0.864-0.384-1.656-0.64-2.313
			c-1.443-3.903-4.025-7.167-7.283-9.542h6.991c0.183,0.646,0.304,1.315,0.535,1.948c4.792,13.628,17.598,22.165,31.292,22.165
			c3.617,0,7.295-0.615,10.9-1.869c14.017-4.921,21.439-20.351,16.52-34.392c-0.651-1.918-1.656-3.599-2.728-5.188
			c1.254-0.268,2.398-0.791,3.385-1.607c0.438,0.743,0.975,1.438,1.584,2.106c2.362,2.595,5.59,4.104,9.109,4.263
			c0.158,0.007,0.328,0.013,0.486,0.013c5.846,0,10.729-4.622,10.997-10.522c0.062-1.382-1.011-2.539-2.387-2.606
			c-0.134,0.013-0.231,0.062-0.354,0.08c-0.438-0.311-0.925-0.543-1.51-0.566c-1.571-0.062-2.923,1.175-2.996,2.746
			c-0.049,1.126,0.585,2.113,1.511,2.624c-1.097,1.937-3.228,3.203-5.529,3.245c-2.192-0.104-4.189-1.035-5.65-2.636
			c-1.474-1.62-2.229-3.702-2.132-5.876c0.134-2.893,1.376-5.56,3.508-7.496c1.79-1.65,4.019-2.612,6.388-2.795
			c0.548,0.037,1.09,0.037,1.613,0.012c0.024,0,0.036-0.012,0.049-0.012h6.655c0.907,1.741,2.71,2.983,4.805,2.983
			c0.359,0,0.657-0.128,0.998-0.188v2.405c0,0.907,0.512,1.76,1.328,2.204c0.371,0.195,0.767,0.293,1.175,0.293
			c0.487,0,0.975-0.141,1.419-0.421l8.829-5.991c1.352-0.914,2.131-2.277,2.144-3.77
			C242.775,119.983,241.996,118.595,240.631,117.663z M181.895,65.029c11.436,4.013,17.488,16.575,13.494,28.022
			c-3.136,8.902-12.909,13.591-21.787,10.479c-6.862-2.405-10.479-9.943-8.087-16.781c1.852-5.237,7.612-7.989,12.8-6.15
			c3.909,1.37,5.992,5.675,4.615,9.584c-0.998,2.886-4.195,4.396-7.057,3.385c-1.291-0.414-2.722,0.231-3.179,1.535
			c-0.451,1.303,0.231,2.728,1.534,3.191c5.468,1.894,11.496-0.98,13.391-6.448c2.277-6.516-1.17-13.664-7.667-15.972
			c-7.781-2.734-16.392,1.407-19.144,9.219c-3.295,9.462,1.687,19.838,11.131,23.157c5.852,2.034,11.983,1.443,17.135-1.121
			c0.335,0.938,1.175,1.65,2.234,1.687c1.176,0.255,2.187-0.707,2.473-1.87c0.073-0.188,0.243-0.341,0.256-0.566
			c0-0.055-0.049-0.091-0.049-0.134c0.061-0.42,0.207-0.84,0.523-1.145c0.365-0.347,0.853-0.542,1.352-0.5
			c1.645,0.073,2.936,1.456,2.862,3.087c-0.013,0.359,0.049,0.67,0.158,0.98c0,0.066-0.013,0.134-0.013,0.188
			c0.159,3.824,1.729,7.344,4.323,10.096h-33.557v-6.247c0-0.804-0.384-1.559-1.06-2.034c-0.651-0.463-1.504-0.584-2.259-0.316
			c-4.957,1.729-9.378,4.335-13.123,7.599c-8.421-9.401-11.575-22.986-7.143-35.706C151.212,67.641,167.288,59.92,181.895,65.029z
			 M160.181,118.954c1.438-0.932,2.911-1.802,4.494-2.545v2.545H160.181z M164.669,123.936v2.533
			c-1.571-0.743-3.051-1.614-4.47-2.533H164.669z M108.213,74.729c-0.523-0.755-0.983-1.54-1.376-2.375
			c-0.012-0.037-0.024-0.067-0.052-0.104c-0.399-0.901-0.715-1.827-0.947-2.777c-0.049-0.262-0.101-0.542-0.143-0.834
			c-0.037-0.237-0.061-0.475-0.101-0.712c-0.085-0.731-0.143-1.546-0.18-2.399c0-1.839,0.268-3.702,0.947-5.529
			c1.473-3.897,8.037-10.808,15.016-17.403c6.993,6.588,13.545,13.506,15.013,17.403c0.67,1.814,0.95,3.666,0.962,5.492
			c-0.055,0.907-0.128,1.766-0.207,2.533c-0.012,0.128-0.024,0.268-0.049,0.384c-0.066,0.39-0.128,0.743-0.183,1.09
			c-0.225,0.92-0.535,1.827-0.932,2.716c-0.024,0.073-0.073,0.128-0.115,0.219c-0.365,0.792-0.804,1.541-1.304,2.253
			c-0.225,0.353-0.499,0.652-0.767,0.956c-0.305,0.39-0.621,0.767-0.969,1.132c-2.739,2.734-6.418,4.415-10.266,4.768
			c-0.387,0.024-0.768,0.061-1.16,0.049c-0.399,0.012-0.816-0.024-1.228-0.049c-2.913-0.268-5.751-1.279-8.138-2.971
			c0,0,0-0.006-0.012-0.006c-0.743-0.524-1.428-1.145-2.083-1.778c-0.368-0.384-0.706-0.779-1.023-1.176
			C108.676,75.319,108.433,75.039,108.213,74.729z M134.4,31.002c0.853,5.572,1.888,13.305,2.49,20.648
			c-3.117-3.909-7.446-8.318-11.818-12.446C128.445,36.13,131.714,33.256,134.4,31.002z M108.378,31.002
			c2.667,2.253,5.956,5.127,9.313,8.184c-4.357,4.128-8.698,8.531-11.822,12.446C106.487,44.308,107.51,36.586,108.378,31.002z
			 M43.878,108.846c0-0.079-0.012-0.134-0.012-0.195c0.112-0.305,0.167-0.633,0.143-0.974c-0.036-0.804,0.244-1.565,0.78-2.15
			c0.563-0.59,1.279-0.913,2.07-0.956c1.172,0.03,1.766,0.707,1.903,1.625c0,0.061-0.052,0.098-0.052,0.152
			c0.015,0.231,0.17,0.384,0.256,0.579c0.295,1.066,1.218,1.851,2.365,1.851c0.037,0,0.073-0.006,0.11-0.006
			c1.035-0.049,1.903-0.713,2.229-1.65c5.136,2.563,11.292,3.16,17.147,1.114c9.438-3.307,14.416-13.694,11.116-23.157
			c-2.737-7.818-11.323-11.953-19.141-9.213c-6.503,2.277-9.965,9.444-7.669,15.966c1.915,5.462,7.938,8.324,13.405,6.442
			c1.303-0.457,1.97-1.888,1.535-3.179c-0.463-1.303-1.903-1.967-3.194-1.534c-2.874,1.011-6.053-0.512-7.051-3.386
			c-1.379-3.921,0.703-8.227,4.613-9.597c5.2-1.839,10.951,0.914,12.79,6.15c2.412,6.856-1.203,14.395-8.074,16.775
			c-8.869,3.13-18.657-1.571-21.787-10.473c-4.009-11.448,2.058-24.034,13.481-28.022c14.654-5.115,30.702,2.606,35.813,17.232
			c3.169,9.012,2.622,18.712-1.507,27.328c-1.47,3.069-3.361,5.876-5.586,8.373c-3.809-3.294-8.245-5.87-13.15-7.605
			c-0.755-0.256-1.623-0.14-2.265,0.335c-0.649,0.463-1.06,1.212-1.06,2.034v6.217H39.534
			C42.152,116.178,43.711,112.67,43.878,108.846z M78.087,123.923h4.506c-1.428,0.932-2.923,1.814-4.506,2.546V123.923z
			 M78.087,118.942v-2.533c1.571,0.73,3.054,1.602,4.494,2.533H78.087z M60.871,177.849c-11.436-4.007-17.491-16.568-13.494-28.017
			c3.13-8.908,12.921-13.597,21.787-10.485c6.86,2.411,10.474,9.95,8.087,16.788c-1.839,5.236-7.612,7.988-12.8,6.15
			c-3.912-1.377-5.995-5.676-4.615-9.585c0.999-2.886,4.177-4.408,7.051-3.386c1.291,0.414,2.719-0.23,3.182-1.534
			c0.448-1.303-0.231-2.733-1.534-3.196c-5.468-1.895-11.5,0.98-13.393,6.448c-2.277,6.515,1.172,13.67,7.669,15.978
			c7.806,2.729,16.392-1.412,19.141-9.225c3.3-9.457-1.69-19.833-11.128-23.151c-5.849-2.04-11.987-1.443-17.135,1.12
			c-0.332-0.938-1.178-1.638-2.241-1.687c-0.816,0.073-1.559,0.487-2.055,1.108c-0.063,0.049-0.088,0.115-0.131,0.158
			c-0.112,0.146-0.183,0.335-0.243,0.523c-0.101,0.207-0.28,0.384-0.292,0.64c0,0.085,0.061,0.134,0.073,0.201
			c-0.143,0.938-0.923,1.687-1.903,1.583c-1.645-0.073-2.935-1.455-2.862-3.094c0.016-0.353-0.048-0.663-0.155-0.98
			c0-0.066,0.012-0.127,0.012-0.182c-0.155-3.824-1.726-7.35-4.32-10.096h33.551v6.247c0,0.81,0.387,1.559,1.062,2.034
			c0.655,0.475,1.495,0.572,2.262,0.316c4.908-1.711,9.341-4.293,13.15-7.588c2.213,2.467,4.092,5.292,5.586,8.367
			c4.128,8.604,4.677,18.31,1.51,27.328C91.554,175.242,75.466,182.963,60.871,177.849z M137.067,174.22
			c0.049,0.243,0.073,0.487,0.109,0.73c0.086,0.73,0.135,1.54,0.183,2.399c-0.012,1.845-0.279,3.708-0.949,5.522
			c-1.462,3.897-8.025,10.809-15.013,17.403c-6.991-6.589-13.542-13.494-14.989-17.403c-0.682-1.802-0.95-3.665-0.962-5.492
			c0.037-0.913,0.113-1.767,0.195-2.533c0.024-0.134,0.036-0.269,0.061-0.39c0.052-0.384,0.113-0.736,0.183-1.09
			c0.959-3.922,3.422-7.41,6.927-9.67c0.088-0.049,0.131-0.085,0.219-0.134c0.816-0.493,1.689-0.913,2.594-1.272
			c0.098-0.049,0.192-0.098,0.317-0.135c0.792-0.304,1.607-0.518,2.451-0.676c0.085-0.018,0.155-0.049,0.256-0.061
			c0.911-0.146,1.838-0.25,2.75-0.25c0.91,0,1.851,0.104,2.749,0.25c0.101,0.012,0.167,0.043,0.256,0.061
			c0.84,0.158,1.656,0.391,2.46,0.676c0.122,0.037,0.207,0.086,0.329,0.135c0.913,0.359,1.766,0.779,2.594,1.272
			c0.061,0.061,0.134,0.098,0.194,0.134c3.514,2.253,5.979,5.779,6.966,9.719C136.982,173.659,137.031,173.934,137.067,174.22z
			 M108.378,211.869c-0.868-5.572-1.891-13.305-2.494-20.637c3.118,3.909,7.438,8.318,11.822,12.446
			C114.333,206.754,111.039,209.615,108.378,211.869z M134.4,211.869c-2.686-2.254-5.955-5.115-9.328-8.178
			c4.372-4.141,8.701-8.55,11.818-12.459C136.288,198.564,135.252,206.297,134.4,211.869z M103.126,155.318
			c1.343-8.184,0.195-16.55-3.471-24.174c-1.254-2.605-2.837-4.98-4.552-7.209h4.476c0.125,0.109,0.18,0.243,0.317,0.341
			l3.949,2.679c0.423,0.287,0.91,0.427,1.416,0.427c0.387,0,0.804-0.11,1.172-0.305c0.816-0.42,1.328-1.267,1.328-2.204v-6.887
			c0-0.926-0.512-1.772-1.328-2.205c-0.819-0.432-1.802-0.39-2.57,0.134l-3.979,2.679c-0.131,0.104-0.174,0.231-0.305,0.348h-4.457
			c1.708-2.241,3.279-4.604,4.545-7.198c3.666-7.624,4.808-15.996,3.471-24.186h36.56c-1.852,11.313,1.242,22.64,7.989,31.396
			h-4.519c-0.128-0.115-0.158-0.243-0.323-0.347l-3.945-2.673c-0.768-0.518-1.754-0.579-2.569-0.134
			c-0.816,0.427-1.328,1.279-1.328,2.204v6.887c0,0.914,0.512,1.76,1.328,2.205c0.384,0.194,0.767,0.292,1.175,0.292
			c0.487,0,0.975-0.14,1.406-0.427l3.982-2.685c0.128-0.092,0.171-0.231,0.311-0.335h4.47c-6.734,8.756-9.828,20.063-7.977,31.371
			h-36.572V155.318z M198.884,134.031c0,0.079,0.012,0.128,0.012,0.194c-0.109,0.305-0.17,0.634-0.146,0.969
			c0.036,0.804-0.244,1.564-0.779,2.155c-0.561,0.591-1.279,0.913-2.083,0.95c-0.536,0.03-0.986-0.152-1.364-0.506
			c-0.328-0.298-0.45-0.694-0.523-1.126c0-0.062,0.049-0.098,0.049-0.146c-0.012-0.219-0.171-0.377-0.256-0.572
			c-0.292-1.06-1.218-1.852-2.362-1.852c-0.037,0-0.061,0-0.098,0.006c-1.047,0.037-1.912,0.713-2.24,1.639
			c-5.152-2.563-11.29-3.16-17.147-1.103c-9.438,3.307-14.419,13.694-11.119,23.151c2.734,7.818,11.326,11.947,19.145,9.219
			c6.503-2.277,9.962-9.45,7.673-15.972c-1.919-5.462-7.94-8.336-13.409-6.442c-1.303,0.457-1.973,1.894-1.534,3.185
			c0.463,1.304,1.888,1.954,3.19,1.534c2.862-1.011,6.053,0.512,7.052,3.386c1.376,3.922-0.706,8.221-4.615,9.597
			c-5.213,1.826-10.961-0.913-12.788-6.15c-2.411-6.855,1.206-14.395,8.074-16.781c8.878-3.13,18.657,1.57,21.787,10.479
			c4.013,11.447-2.058,24.027-13.481,28.022c-14.638,5.108-30.689-2.612-35.816-17.232c-4.457-12.721-1.278-26.299,7.143-35.701
			c3.758,3.246,8.178,5.846,13.122,7.605c0.768,0.25,1.62,0.141,2.266-0.335c0.646-0.463,1.06-1.212,1.06-2.034v-6.223h33.551
			C200.614,126.706,199.054,130.213,198.884,134.031z"/>
	</g>
</g>
<g>
</g>
<g>
</g>
<g>
</g>
<g>
</g>
<g>
</g>
<g>
</g>
<g>
</g>
<g>
</g>
<g>
</g>
<g>
</g>
<g>
</g>
<g>
</g>
<g>
</g>
<g>
</g>
<g>
</g>
</svg>
