<?xml version="1.0" encoding="iso-8859-1"?>
<!-- Generator: Adobe Illustrator 16.0.0, SVG Export Plug-In . SVG Version: 6.00 Build 0)  -->
<!DOCTYPE svg PUBLIC "-//W3C//DTD SVG 1.1//EN" "http://www.w3.org/Graphics/SVG/1.1/DTD/svg11.dtd">
<svg version="1.1" id="Capa_1" xmlns="http://www.w3.org/2000/svg" xmlns:xlink="http://www.w3.org/1999/xlink" x="0px" y="0px"
	 width="218.066px" height="218.066px" viewBox="0 0 218.066 218.066" style="enable-background:new 0 0 218.066 218.066;"
	 xml:space="preserve">
<g>
	<path d="M214.685,105.62c-1.314,0-2.441,0.767-2.989,1.851H199.81c4.664-3.017,7.83-8.038,8.451-13.823
		c1.224-0.511,2.095-1.729,2.095-3.145c0-1.888-1.522-3.41-3.41-3.41c-1.894,0-3.416,1.522-3.416,3.41
		c0,1.218,0.67,2.24,1.639,2.837c-0.804,7.539-6.918,13.457-14.541,13.929c1.096-0.609,2.167-1.304,3.105-2.226
		c5.596-5.505,4.956-14.94,4.932-15.333c-0.066-0.767-0.657-1.364-1.419-1.434c0,0-0.603-0.061-1.546-0.061
		c-2.095,0-5.328,0.353-8.471,1.546c3.081-2.545,5.578-5.87,6.991-9.901c5.072-14.516-2.595-30.473-17.111-35.573
		c-8.707-3.045-18.072-2.533-26.372,1.471c-5.023,2.399-9.134,5.991-12.392,10.263c0.28-1.072,0.445-2.208,0.384-3.349
		c-0.146-3.772-1.777-7.271-4.566-9.801c-1.176-1.087-2.49-1.866-3.909-2.469c0.207-0.158,0.45-0.231,0.651-0.387
		c1.571-1.458,2.479-3.449,2.582-5.587c0.14-3.705-2.753-6.847-6.467-6.99c-0.438,0.073-0.841,0.28-1.163,0.584
		c-0.634,0.369-1.072,0.999-1.096,1.791c-0.062,1.205,0.895,2.226,2.118,2.277c0.743,0.036,1.395-0.344,1.815-0.893
		c0.243,0.144,0.511,0.292,0.706,0.512c0.651,0.691,0.98,1.632,0.943,2.582c-0.061,1.327-0.633,2.53-1.583,3.434
		c-0.962,0.892-2.119,1.428-3.501,1.291c-0.231-0.024-0.396,0.131-0.615,0.192c-0.219,0-0.42-0.049-0.646-0.037
		c-4.628,0.195-8.89,2.208-12.02,5.587c-1.206,1.331-2.208,2.813-2.95,4.396c-0.731-1.583-1.702-3.065-2.951-4.396
		c-3.118-3.41-7.383-5.392-11.996-5.587c-0.231-0.012-0.438,0.037-0.667,0.037c-0.195-0.073-0.381-0.204-0.6-0.192
		c-1.434,0.125-2.557-0.398-3.517-1.291c-0.947-0.904-1.522-2.107-1.571-3.434c-0.049-0.95,0.292-1.891,0.935-2.582
		c0.207-0.219,0.475-0.368,0.719-0.536c0.423,0.573,1.072,0.935,1.827,0.911c1.203-0.052,2.168-1.075,2.107-2.277
		c-0.024-0.767-0.436-1.404-1.06-1.763c-0.292-0.307-0.667-0.539-1.178-0.611c-1.79,0.073-3.474,0.84-4.677,2.155
		c-1.229,1.331-1.878,3.045-1.79,4.835c0.101,2.144,0.999,4.128,2.57,5.587c0.18,0.161,0.435,0.234,0.648,0.393
		c-1.416,0.609-2.737,1.388-3.924,2.469c-2.786,2.536-4.406,6.028-4.576,9.807c-0.049,1.166,0.131,2.277,0.399,3.35
		c-3.261-4.29-7.396-7.889-12.382-10.27c-8.318-4.016-17.695-4.516-26.369-1.465c-14.504,5.094-22.192,21.057-17.11,35.567
		c1.428,4.031,3.949,7.374,7.027,9.907c-3.167-1.178-6.391-1.546-8.498-1.546c-0.947,0-1.535,0.061-1.535,0.061
		c-0.755,0.082-1.364,0.661-1.428,1.428c-0.037,0.387-0.667,9.828,4.92,15.333c0.935,0.928,2.022,1.641,3.118,2.231
		c-7.651-0.478-13.737-6.396-14.553-13.935c0.959-0.597,1.647-1.62,1.647-2.837c0-1.888-1.522-3.41-3.407-3.41
		c-1.906,0-3.429,1.522-3.429,3.41c0,1.422,0.88,2.64,2.107,3.151c0.625,5.785,3.785,10.793,8.443,13.823H6.409
		c-0.566-1.097-1.677-1.863-2.986-1.863c-1.897,0-3.422,1.534-3.422,3.422c0,1.896,1.525,3.397,3.422,3.397
		c1.303,0,2.414-0.755,2.986-1.839h11.889c-4.661,2.999-7.843,8.025-8.442,13.811c-1.233,0.523-2.107,1.729-2.107,3.16
		c0,1.888,1.522,3.41,3.425,3.41c1.881,0,3.404-1.522,3.404-3.41c0-1.218-0.667-2.234-1.641-2.85
		c0.816-7.526,6.908-13.43,14.541-13.926c-1.102,0.615-2.177,1.303-3.105,2.226c-5.593,5.514-4.957,14.939-4.92,15.341
		c0.058,0.756,0.648,1.364,1.422,1.432c0,0,0.594,0.049,1.535,0.049c2.107,0,5.337-0.359,8.491-1.535
		c-3.072,2.533-5.587,5.852-7.015,9.907c-5.063,14.511,2.609,30.47,17.11,35.567c3.748,1.303,7.608,1.941,11.448,1.941
		c5.097,0,10.202-1.145,14.94-3.422c5.002-2.398,9.125-5.991,12.379-10.278c-0.268,1.084-0.444,2.204-0.393,3.361
		c0.167,3.775,1.787,7.271,4.576,9.804c1.172,1.071,2.475,1.888,3.878,2.479c-0.188,0.14-0.432,0.219-0.624,0.383
		c-1.571,1.462-2.475,3.447-2.569,5.59c-0.137,3.715,2.743,6.857,6.466,6.99c0.012,0,0.037,0,0.061,0
		c0.487,0,0.886-0.268,1.172-0.645c0.582-0.372,0.999-0.975,1.023-1.729c0.058-1.193-0.911-2.217-2.119-2.277
		c-0.755-0.036-1.41,0.353-1.827,0.901c-1.011-0.664-1.708-1.803-1.666-3.105c0.049-1.315,0.618-2.527,1.571-3.422
		c0.953-0.902,2.094-1.413,3.522-1.291c0.155-0.013,0.28-0.129,0.426-0.165c0.061,0,0.122,0.013,0.173,0.013
		c0.198,0,0.417,0,0.648-0.013c4.601-0.194,8.89-2.198,12.008-5.596c1.218-1.333,2.207-2.813,2.938-4.396
		c0.742,1.583,1.726,3.063,2.938,4.396c3.13,3.41,7.404,5.401,12.008,5.596c0.244,0.013,0.476-0.036,0.719-0.036
		c0.183,0.061,0.329,0.201,0.536,0.201c1.388-0.129,2.569,0.389,3.531,1.291c0.969,0.895,1.534,2.106,1.583,3.422
		c0.049,1.303-0.651,2.441-1.674,3.117c-0.421-0.561-1.072-0.932-1.827-0.907c-1.212,0.067-2.186,1.09-2.106,2.277
		c0.024,0.755,0.42,1.364,1.004,1.724c0.299,0.383,0.67,0.651,1.17,0.651c0.024,0,0.048,0,0.061,0
		c1.803-0.073,3.477-0.841,4.688-2.162c1.23-1.339,1.869-3.038,1.79-4.828c-0.085-2.144-0.998-4.122-2.581-5.584
		c-0.177-0.165-0.433-0.237-0.646-0.39c1.412-0.609,2.739-1.4,3.909-2.473c2.788-2.533,4.42-6.027,4.566-9.803
		c0.061-1.17-0.128-2.277-0.39-3.361c3.252,4.286,7.393,7.903,12.397,10.278c4.737,2.277,9.804,3.428,14.931,3.428
		c3.836,0,7.696-0.651,11.436-1.948c14.517-5.084,22.195-21.057,17.11-35.579c-1.419-4.03-3.921-7.361-7.015-9.907
		c3.154,1.188,6.394,1.547,8.501,1.547c0.949,0,1.546-0.049,1.546-0.049c0.755-0.091,1.353-0.676,1.413-1.431
		c0.024-0.396,0.67-9.815-4.933-15.354c-0.932-0.911-1.997-1.623-3.093-2.214c7.63,0.5,13.725,6.4,14.528,13.926
		c-0.95,0.615-1.632,1.632-1.632,2.85c0,1.888,1.522,3.41,3.41,3.41s3.41-1.522,3.41-3.41c0-1.425-0.865-2.643-2.095-3.166
		c-0.621-5.785-3.788-10.787-8.446-13.811h11.88c0.573,1.084,1.688,1.852,2.996,1.852c1.876,0,3.41-1.52,3.41-3.41
		C218.101,107.143,216.567,105.62,214.685,105.62z M191.535,102.831c-3.069,3.021-7.703,3.681-10.449,3.812
		c-0.243-0.551-0.603-1.011-0.986-1.461c0.231-2.85,1.035-7.14,3.934-9.986c3.489-3.425,9.128-3.836,11.551-3.86
		C195.523,93.904,194.987,99.434,191.535,102.831z M152.089,48.564c7.557-3.626,16.062-4.113,23.984-1.327
		c12.891,4.521,19.717,18.706,15.199,31.59c-3.544,10.157-14.712,15.561-24.881,11.971c-7.952-2.789-12.153-11.536-9.377-19.51
		c1.047-2.996,3.215-5.419,6.089-6.811c2.874-1.403,6.113-1.559,9.122-0.512c2.326,0.816,4.22,2.481,5.291,4.713
		c1.072,2.235,1.188,4.741,0.384,7.066c-1.291,3.678-5.322,5.635-9.019,4.333c-0.81-0.256-1.687,0.131-1.979,0.959
		c-0.28,0.807,0.134,1.693,0.962,1.973c5.31,1.827,11.138-0.95,12.994-6.247c1.084-3.118,0.914-6.467-0.523-9.466
		c-1.425-2.975-3.958-5.212-7.063-6.312c-3.787-1.315-7.892-1.096-11.509,0.655c-3.629,1.742-6.351,4.801-7.66,8.585
		c-3.349,9.597,1.693,20.122,11.302,23.483c5.565,1.945,11.338,1.522,16.38-0.637c-2.983,3.018-4.141,7.103-4.579,10.281
		c-0.48-0.131-0.943-0.298-1.468-0.298c-2.722,0-4.89,1.875-5.583,4.359h-8.738V99.57c0-0.499-0.243-0.971-0.651-1.264
		c-0.384-0.295-0.907-0.368-1.425-0.207c-5.505,1.939-10.449,4.884-14.626,8.705c-2.789-2.963-5.14-6.36-6.942-10.108
		c-4.579-9.521-5.188-20.277-1.681-30.266C138.839,58.563,144.526,52.209,152.089,48.564z M131.599,146.88H86.515
		c1.839-9.072,0.74-18.438-3.337-26.926c-0.959-1.985-2.058-3.861-3.261-5.636l6.723,4.563c0.28,0.171,0.584,0.269,0.889,0.269
		c0.255,0,0.499-0.062,0.73-0.183c0.512-0.269,0.828-0.805,0.828-1.377v-16.574c0-0.572-0.316-1.108-0.828-1.376
		c-0.512-0.268-1.136-0.231-1.62,0.085l-7.663,5.2c1.571-2.144,3.017-4.381,4.201-6.832c4.077-8.473,5.176-17.841,3.337-26.911
		h45.084c-1.846,9.07-0.73,18.438,3.343,26.911c0.95,1.982,2.058,3.86,3.258,5.647l-6.729-4.563
		c-0.487-0.329-1.114-0.368-1.626-0.085c-0.512,0.268-0.828,0.791-0.828,1.376v16.562c0,0.585,0.316,1.108,0.828,1.376
		c0.231,0.122,0.487,0.183,0.73,0.183c0.305,0,0.627-0.085,0.896-0.268l7.666-5.188c-1.571,2.131-3.021,4.385-4.195,6.82
		C130.869,128.442,129.753,137.808,131.599,146.88z M59.826,110.589h9.292c-2.826,2.226-5.895,4.177-9.292,5.578V110.589z
		 M59.826,107.471v-5.581c3.397,1.403,6.466,3.349,9.292,5.581H59.826z M149.001,107.471c2.819-2.226,5.876-4.177,9.274-5.581v5.581
		H149.001z M158.276,110.589v5.578c-3.398-1.401-6.455-3.347-9.262-5.578H158.276z M90.479,64.823
		c0.38-0.04,0.792-0.256,1.123-0.576c1.364-0.387,2.399-1.583,2.463-3.065c0.085-1.867-1.379-3.462-3.249-3.532
		c-1.873-0.085-3.456,1.343-3.511,3.206c-2.98-1.428-4.965-4.533-4.807-8.025c0.131-2.947,1.4-5.647,3.559-7.651
		c2.171-1.981,4.865-3.017,7.931-2.874c3.766,0.159,7.271,1.791,9.828,4.592c2.168,2.362,3.446,5.331,3.678,8.485
		c-0.036,0.612-0.036,1.215-0.012,1.851c0.036,0.831,0.755,1.486,1.595,1.486c0.838,0,1.511-0.655,1.56-1.486
		c0.024-0.636,0.024-1.239-0.013-1.851c0.231-3.154,1.498-6.11,3.669-8.485c2.558-2.801,6.071-4.433,9.853-4.592
		c3.032-0.097,5.767,0.893,7.922,2.874c2.174,1.985,3.452,4.704,3.556,7.651c0.152,3.504-1.845,6.604-4.804,8.025
		c-0.086-1.863-1.669-3.272-3.514-3.206c-1.894,0.076-3.337,1.672-3.246,3.532c0.062,1.458,1.048,2.643,2.363,3.054
		c0.292,0.344,0.67,0.587,1.15,0.587c0.024,0,0.049,0,0.073,0c2.759-0.131,5.225-1.254,7.143-2.95
		c-0.572,1.172-1.199,2.314-1.668,3.553c-0.305,0.88-0.536,1.741-0.78,2.633H85.76c-0.256-0.892-0.475-1.753-0.779-2.633
		c-0.438-1.252-1.099-2.399-1.671-3.565C85.26,63.568,87.717,64.691,90.479,64.823z M64.055,70.267
		c-1.331-3.788-4.056-6.848-7.669-8.586c-3.629-1.754-7.721-1.973-11.512-0.658c-3.118,1.099-5.624,3.337-7.051,6.312
		c-1.428,2.987-1.623,6.348-0.523,9.465c1.851,5.301,7.681,8.074,12.982,6.248c0.816-0.293,1.239-1.173,0.959-1.97
		c-0.28-0.831-1.172-1.23-1.982-0.962c-3.693,1.307-7.733-0.654-9.012-4.332c-0.828-2.326-0.679-4.832,0.386-7.063
		c1.063-2.213,2.938-3.897,5.276-4.716c2.987-1.048,6.235-0.893,9.122,0.511c2.862,1.391,5.033,3.796,6.08,6.823
		c2.786,7.962-1.428,16.709-9.377,19.498c-10.145,3.581-21.324-1.814-24.892-11.959c-4.506-12.894,2.313-27.087,15.201-31.6
		c7.925-2.789,16.438-2.302,24,1.328c7.551,3.641,13.238,10.001,16.005,17.914c3.504,9.995,2.901,20.736-1.689,30.266
		c-1.815,3.766-4.153,7.152-6.933,10.102c-4.195-3.806-9.143-6.774-14.635-8.708c-0.487-0.149-1.011-0.085-1.428,0.207
		c-0.417,0.293-0.648,0.768-0.648,1.267v7.843h-8.692c-0.685-2.487-2.886-4.351-5.593-4.351c-0.511,0-0.977,0.162-1.452,0.292
		c-0.448-3.212-1.614-7.294-4.601-10.312c5.048,2.174,10.836,2.606,16.411,0.646C62.338,90.385,67.401,79.863,64.055,70.267z
		 M22.539,91.335c2.426,0.024,8.074,0.447,11.548,3.86c2.886,2.847,3.705,7.137,3.921,9.986c-0.38,0.438-0.743,0.91-0.971,1.461
		c-2.731-0.131-7.396-0.792-10.464-3.812C23.139,99.458,22.603,93.917,22.539,91.335z M26.567,115.217
		c3.069-3.021,7.706-3.669,10.464-3.8c0.244,0.536,0.597,1.011,0.971,1.449c-0.219,2.85-1.035,7.137-3.921,9.986
		c-3.486,3.422-9.134,3.848-11.56,3.86C22.588,124.144,23.126,118.614,26.567,115.217z M66.031,169.483
		c-7.562,3.641-16.075,4.116-23.994,1.34c-12.882-4.519-19.702-18.707-15.202-31.604c3.568-10.145,14.708-15.552,24.893-11.971
		c7.937,2.789,12.151,11.545,9.377,19.521c-1.048,2.996-3.23,5.42-6.104,6.795c-2.886,1.407-6.11,1.56-9.109,0.512
		c-2.338-0.815-4.229-2.466-5.289-4.713c-1.072-2.21-1.203-4.725-0.387-7.051c1.279-3.678,5.325-5.65,9.012-4.336
		c0.828,0.256,1.696-0.128,1.976-0.956c0.28-0.821-0.137-1.692-0.962-1.973c-5.298-1.827-11.122,0.95-12.982,6.247
		c-1.096,3.118-0.911,6.467,0.533,9.457c1.425,2.983,3.934,5.212,7.051,6.309c3.778,1.327,7.888,1.107,11.496-0.646
		c3.629-1.741,6.366-4.811,7.675-8.604c3.349-9.566-1.708-20.118-11.298-23.492c-5.565-1.941-11.353-1.521-16.392,0.652
		c2.987-3.002,4.141-7.112,4.591-10.306c0.466,0.13,0.941,0.314,1.453,0.314c2.725,0,4.908-1.885,5.593-4.36h8.692v7.849
		c0,0.494,0.243,0.969,0.648,1.261c0.405,0.298,0.928,0.372,1.428,0.207c5.492-1.942,10.437-4.896,14.626-8.704
		c2.789,2.956,5.127,6.342,6.942,10.099c4.564,9.523,5.188,20.289,1.684,30.263C79.269,159.497,73.575,165.854,66.031,169.483z
		 M127.623,153.237c-0.384-0.024-0.791,0.219-1.139,0.572c-1.352,0.402-2.375,1.583-2.436,3.068
		c-0.085,1.863,1.364,3.459,3.239,3.532c1.869,0.085,3.453-1.34,3.532-3.203c2.959,1.425,4.956,4.53,4.804,8.026
		c-0.128,2.946-1.395,5.645-3.568,7.647c-2.174,1.985-4.907,2.972-7.922,2.874c-3.781-0.158-7.282-1.79-9.84-4.592
		c-2.171-2.362-3.438-5.334-3.669-8.488c0.037-0.608,0.037-1.211,0.013-1.851c-0.049-0.828-0.768-1.485-1.596-1.485
		c-0.85,0-1.522,0.657-1.559,1.485c-0.024,0.64-0.024,1.242,0.012,1.851c-0.231,3.154-1.51,6.114-3.678,8.488
		c-2.557,2.802-6.062,4.434-9.84,4.592c-2.999,0.146-5.76-0.889-7.925-2.874c-2.177-1.985-3.45-4.701-3.565-7.647
		c-0.146-3.508,1.839-6.607,4.808-8.026c0.073,1.863,1.656,3.271,3.504,3.203c1.875-0.073,3.322-1.669,3.249-3.532
		c-0.07-1.485-1.093-2.666-2.457-3.068c-0.338-0.354-0.743-0.609-1.142-0.572c-2.755,0.134-5.237,1.254-7.152,2.959
		c0.573-1.175,1.221-2.326,1.678-3.562c0.305-0.883,0.524-1.741,0.779-2.636h46.582c0.244,0.895,0.476,1.753,0.779,2.636
		c0.438,1.236,1.09,2.399,1.663,3.562C132.859,154.491,130.406,153.371,127.623,153.237z M154.068,147.794
		c1.327,3.787,4.043,6.844,7.672,8.585c3.63,1.754,7.716,1.974,11.509,0.651c3.105-1.102,5.608-3.324,7.052-6.314
		c1.425-2.983,1.607-6.332,0.523-9.45c-1.863-5.31-7.685-8.074-12.994-6.247c-0.816,0.28-1.242,1.169-0.962,1.973
		c0.292,0.828,1.181,1.218,1.984,0.962c3.702-1.315,7.733,0.651,9.024,4.329c0.816,2.326,0.676,4.829-0.39,7.052
		c-1.071,2.223-2.947,3.897-5.273,4.72c-2.996,1.047-6.247,0.876-9.121-0.512c-2.874-1.383-5.036-3.788-6.083-6.814
		c-2.783-7.958,1.418-16.721,9.377-19.51c10.15-3.574,21.318,1.814,24.88,11.972c4.524,12.891-2.302,27.091-15.204,31.597
		c-7.91,2.776-16.416,2.302-23.985-1.34c-7.562-3.629-13.25-9.998-16.009-17.902c-3.501-9.998-2.91-20.733,1.693-30.269
		c1.803-3.77,4.152-7.146,6.93-10.087c4.189,3.791,9.134,6.756,14.638,8.705c0.487,0.133,0.999,0.085,1.425-0.207
		c0.421-0.293,0.646-0.768,0.646-1.268v-7.842h8.695c0.683,2.487,2.887,4.36,5.59,4.36c0.524,0,0.98-0.171,1.462-0.313
		c0.438,3.224,1.619,7.304,4.591,10.312c-5.035-2.161-10.826-2.594-16.397-0.657C155.773,127.675,150.719,138.209,154.068,147.794z
		 M195.572,126.713c-2.411-0.013-8.062-0.438-11.539-3.86c-2.898-2.838-3.702-7.125-3.934-9.975c0.384-0.45,0.743-0.91,0.968-1.461
		c2.74,0.131,7.417,0.779,10.468,3.8C194.968,118.603,195.523,124.144,195.572,126.713z"/>
</g>
<g>
</g>
<g>
</g>
<g>
</g>
<g>
</g>
<g>
</g>
<g>
</g>
<g>
</g>
<g>
</g>
<g>
</g>
<g>
</g>
<g>
</g>
<g>
</g>
<g>
</g>
<g>
</g>
<g>
</g>
</svg>
