<?xml version="1.0" encoding="iso-8859-1"?>
<!-- Generator: Adobe Illustrator 16.0.0, SVG Export Plug-In . SVG Version: 6.00 Build 0)  -->
<!DOCTYPE svg PUBLIC "-//W3C//DTD SVG 1.1//EN" "http://www.w3.org/Graphics/SVG/1.1/DTD/svg11.dtd">
<svg version="1.1" id="Capa_1" xmlns="http://www.w3.org/2000/svg" xmlns:xlink="http://www.w3.org/1999/xlink" x="0px" y="0px"
	 width="216.005px" height="216.005px" viewBox="0 0 216.005 216.005" style="enable-background:new 0 0 216.005 216.005;"
	 xml:space="preserve">
<g>
	<g>
		<path d="M206.592,75.009c0.76-4.612-2.051-7.038,0.58-11.098c0,0-9.587,0.148-9.418,9.706c-3.786-4.126-8.817-3.952-8.817-3.952
			c3.955,6.824,2.015,9.205,2.046,11.817c0.063,6.191,3.86,7.027,6.972,7.48c-0.327,0.335-0.564,0.772-0.611,1.273
			c-1.002,9.693-5.728,18.404-13.289,24.554c-7.562,6.148-17.081,8.965-26.763,7.979c-7.642-0.791-14.518-4.52-19.359-10.473
			c-0.295-0.356-0.484-0.781-0.77-1.16c2.848,1.814,6.075,3.033,9.545,3.396c0.96,0.111,1.92,0.147,2.869,0.147
			c6.054,0,11.875-1.993,16.632-5.748c4.161-3.277,7.141-7.633,8.659-12.516c3.195-0.789,8.659-3.428,3.291-11.884
			c-1.034-1.659-3.48-5.136-3.649-9.598c0,0-13.854,15.185-3.977,20.714c-1.312,3.862-3.691,7.29-7.014,9.914
			c-4.619,3.651-10.441,5.315-16.379,4.704c-4.646-0.496-8.839-2.689-11.781-6.22c-2.109-2.51-3.364-5.508-3.749-8.651
			c-0.068-1.381-0.121-2.774,0.021-4.164c0-0.01-0.005-0.021,0-0.031c0.986-6.94,7.479-11.853,14.697-11.167
			c2.774,0.285,5.263,1.604,7.024,3.702c1.735,2.091,2.553,4.693,2.268,7.352c-0.433,4.163-4.25,7.148-8.617,6.75
			c-1.16-0.158-2.246,0.738-2.362,1.927c-0.121,1.184,0.738,2.247,1.92,2.365c6.649,0.718,12.677-4.061,13.362-10.6
			c0.401-3.817-0.759-7.572-3.264-10.557c-2.484-2.974-5.985-4.833-9.888-5.231c-9.788-1.065-18.547,5.917-19.533,15.47
			c-0.063,0.509,0.011,1.004-0.011,1.495c-0.2,4.406,0.465,8.733,1.941,12.783h-13.49l2.489-3.694
			c0.448-0.654,0.496-1.505,0.116-2.215c-0.127-0.253-0.343-0.398-0.549-0.578c1.551-0.907,3.027-1.97,4.314-3.343
			c3.538-3.784,5.463-8.807,5.421-14.098l-0.059-6.339c-0.005-0.741-0.374-1.395-0.98-1.793c-0.606-0.388-1.376-0.443-2.041-0.169
			c-0.158,0.066-16.202,6.897-25.958,0.319c-0.989-0.665-2.334-0.398-2.998,0.59c-0.67,0.992-0.406,2.331,0.583,2.996
			c8.986,6.064,21.445,3.056,27.108,1.184l0.026,3.262c0.037,4.185-1.481,8.142-4.256,11.135c-2.758,2.942-6.417,4.588-10.338,4.611
			c-0.045,0-0.087,0.011-0.129,0.011c-3.868,0-7.517-1.582-10.294-4.451c-2.829-2.921-4.411-6.847-4.443-11.042l-0.143-16.59
			c-0.01-1.656,1.448-3.385,4.003-4.746c3.04-1.614,7.198-2.521,11.707-2.552c0.076-0.011,0.15-0.011,0.227-0.011
			c6.964,0,12.163,2.795,12.185,5.324c-0.032,1.273-5.843,4.638-12.158,4.68C109.424,68,109.34,68,109.252,68
			c-5.204,0-8.753-1.276-9.157-1.771c0-0.19,0.156-0.464,0.419-0.73c0.427-0.398,2.178-1.667,6.853-1.516
			c5.326,0.201,6.924,0.783,7.319,1.237c0.786,0.896,2.142,0.983,3.038,0.2c0.896-0.788,0.991-2.162,0.194-3.059
			c-1.925-2.191-6.188-2.531-10.383-2.687c-5.719-0.222-8.609,1.36-10.027,2.742c-1.131,1.086-1.751,2.457-1.735,3.86
			c0.056,5.977,12.279,6.012,13.777,6.043c3.38-0.032,7.293-0.918,10.462-2.381c3.882-1.804,5.996-4.164,5.975-6.642
			c-0.058-5.513-7.119-9.606-16.487-9.606c-0.092,0-0.182,0-0.273,0c-5.195,0.042-10.062,1.129-13.701,3.043
			c-4.087,2.173-6.322,5.245-6.296,8.62l0.14,16.577c0.045,5.306,2.051,10.273,5.658,14.02c1.179,1.227,2.513,2.17,3.905,3.03
			c-0.248,0.19-0.491,0.39-0.644,0.675c-0.372,0.706-0.327,1.561,0.121,2.225l2.494,3.681H86.88c1.479-4.05,2.149-8.375,1.943-12.78
			c-0.016-0.509,0.05-1.005-0.005-1.5c-1-9.563-9.785-16.524-19.536-15.467c-3.895,0.396-7.409,2.257-9.893,5.234
			c-2.495,2.995-3.652,6.736-3.257,10.555c0.675,6.542,6.668,11.364,13.353,10.603c1.189-0.114,2.049-1.185,1.93-2.365
			c-0.126-1.194-1.194-2.102-2.371-1.917c-4.321,0.424-8.182-2.587-8.614-6.75c-0.274-2.658,0.53-5.276,2.268-7.352
			c1.762-2.099,4.251-3.417,7.022-3.71c7.23-0.706,13.713,4.229,14.697,11.164c0,0.011-0.005,0.021,0,0.037
			c0.146,1.402,0.082,2.803,0.021,4.169c-0.393,3.143-1.646,6.127-3.752,8.646c-2.948,3.525-7.133,5.735-11.784,6.215
			c-5.933,0.619-11.76-1.052-16.382-4.704c-3.322-2.618-5.698-6.054-7.011-9.914c9.877-5.514-3.984-20.714-3.984-20.714
			c-0.168,4.472-2.602,7.971-3.644,9.6c-5.368,8.469,0.1,11.103,3.293,11.886c1.521,4.894,4.499,9.239,8.662,12.522
			c4.756,3.754,10.578,5.74,16.632,5.74c0.949,0,1.912-0.053,2.872-0.137c3.478-0.354,6.692-1.585,9.547-3.398
			c-0.274,0.371-0.469,0.788-0.767,1.16c-4.843,5.961-11.717,9.685-19.364,10.465c-9.667,0.991-19.198-1.824-26.763-7.984
			c-7.565-6.135-12.285-14.857-13.289-24.55c-0.053-0.509-0.304-0.939-0.633-1.269c3.116-0.443,6.924-1.261,6.99-7.485
			c0.026-2.608-1.917-5,2.041-11.815c0,0-5.033-0.15-8.819,3.947c0.174-9.553-9.416-9.703-9.416-9.703
			c2.64,4.061-0.179,6.486,0.583,11.103C4.572,72.612,0,74.376,0,74.376c6.004,5.126,4.968,8.026,5.859,10.48
			c2.067,5.635,5.74,5.353,8.77,4.771c-0.164,0.34-0.266,0.717-0.227,1.128c1.123,10.843,6.405,20.59,14.866,27.462
			c7.343,5.964,16.313,9.128,25.645,9.128c1.421,0,2.851-0.074,4.288-0.222c4.741-0.495,9.208-1.987,13.208-4.313
			c-1.933,2.188-3.148,5.047-3.148,8.189c0,8.274,6.734,15.014,15.014,15.014c10.048,0,18.225-8.174,18.225-18.235
			c0-7.768-2.618-14.043-7.085-17.911h8.398l0.867,1.278c0.319,0.47,0.746,0.778,1.157,1.087v29.863
			c-0.416,0.311-0.844,0.585-1.157,1.055l-6.291,9.281c-0.448,0.664-0.496,1.519-0.119,2.226c0.38,0.706,1.113,1.149,1.912,1.149
			h2.193c-0.034,0.258-0.147,0.475-0.147,0.743c0,3.186,2.587,5.765,5.78,5.765c3.19,0,5.774-2.59,5.774-5.765
			c0-0.269-0.11-0.485-0.142-0.743h2.726c0.037,0,0.085,0,0.116,0c1.192,0,2.151-0.976,2.151-2.157c0-0.675-0.306-1.271-0.791-1.671
			l-5.975-8.828c-0.459-0.675-1.041-1.166-1.689-1.482v-28.993c0.648-0.34,1.23-0.854,1.695-1.529l0.87-1.278h7.862
			c-4.461,3.879-7.088,10.154-7.088,17.911c0,10.062,8.18,18.235,18.226,18.235c4.008,0,7.778-1.556,10.61-4.393
			c2.837-2.826,4.397-6.603,4.397-10.621c0-3.143-1.213-5.985-3.148-8.189c4.003,2.326,8.464,3.818,13.205,4.319
			c1.435,0.142,2.863,0.216,4.287,0.216c9.323,0,18.299-3.175,25.645-9.128c8.464-6.861,13.737-16.619,14.866-27.462
			c0.042-0.411-0.063-0.788-0.227-1.128c3.032,0.582,6.702,0.864,8.77-4.771c0.892-2.454-0.147-5.354,5.858-10.48
			C216.042,74.302,211.465,72.531,206.592,75.009z M98.226,127.709c0,7.678-6.238,13.911-13.911,13.911
			c-5.896,0-10.692-4.805-10.692-10.694c0-4.472,3.646-8.121,8.121-8.121c1.88,0,3.494,0.907,4.612,2.257
			c-1.878,0.391-3.32,1.982-3.32,3.977c0,2.277,1.851,4.134,4.142,4.134c1.63,0,3.006-0.96,3.681-2.331
			c0.752-0.337,1.276-1.086,1.276-1.961c0-5.738-4.662-10.399-10.391-10.399c-1.587,0-3.093,0.327-4.499,0.875
			c1.535-1.308,2.972-2.742,4.267-4.351c1.292-1.593,2.41-3.277,3.37-5.062C94.64,110.855,98.226,119.852,98.226,127.709z
			 M139.329,138.488c-2.02,2.025-4.703,3.133-7.557,3.133c-7.667,0-13.906-6.233-13.906-13.911c0-7.857,3.581-16.854,13.337-17.74
			c0.96,1.759,2.078,3.449,3.37,5.042c1.297,1.592,2.731,3.037,4.266,4.355c-1.397-0.559-2.905-0.87-4.493-0.87
			c-5.737,0-10.394,4.646-10.394,10.399c0,0.775,0.417,1.413,1.018,1.782c0.628,1.461,2.089,2.51,3.797,2.51
			c2.289,0,4.146-1.856,4.146-4.14c0-1.945-1.382-3.507-3.196-3.939c1.118-1.35,2.731-2.288,4.625-2.288
			c4.478,0,8.121,3.659,8.121,8.121C142.462,133.785,141.35,136.474,139.329,138.488z"/>
	</g>
</g>
<g>
</g>
<g>
</g>
<g>
</g>
<g>
</g>
<g>
</g>
<g>
</g>
<g>
</g>
<g>
</g>
<g>
</g>
<g>
</g>
<g>
</g>
<g>
</g>
<g>
</g>
<g>
</g>
<g>
</g>
</svg>
