<?xml version="1.0" encoding="iso-8859-1"?>
<!-- Generator: Adobe Illustrator 16.0.0, SVG Export Plug-In . SVG Version: 6.00 Build 0)  -->
<!DOCTYPE svg PUBLIC "-//W3C//DTD SVG 1.1//EN" "http://www.w3.org/Graphics/SVG/1.1/DTD/svg11.dtd">
<svg version="1.1" id="Capa_1" xmlns="http://www.w3.org/2000/svg" xmlns:xlink="http://www.w3.org/1999/xlink" x="0px" y="0px"
	 width="193.338px" height="193.338px" viewBox="0 0 193.338 193.338" style="enable-background:new 0 0 193.338 193.338;"
	 xml:space="preserve">
<g>
	<g>
		<path d="M118.841,62.804c0.021,0,0.053,0,0.09,0c11.522,0,18.251,6.955,24.484,15.309c0.021,0.026,0.021,0.066,0.048,0.098
			c0.042,0.058,0.105,0.098,0.143,0.155c1.097,1.469,2.167,2.972,3.259,4.493c1.692,2.37,3.364,4.72,5.1,6.913
			c7.814,9.846,14.575,18.352,26.282,16.554c4.715-0.718,8.849-3.28,11.665-7.209c2.863-4.026,4.013-9.118,3.143-13.99
			c-0.717-3.952-2.921-7.396-6.212-9.688c-3.296-2.294-7.288-3.159-11.253-2.455c-1.171,0.208-1.951,1.332-1.74,2.505
			c0.211,1.17,1.328,1.954,2.505,1.743c2.815-0.506,5.663,0.113,8.01,1.756c2.353,1.635,3.924,4.087,4.43,6.906
			c0.675,3.726-0.2,7.63-2.404,10.707c-2.136,2.979-5.253,4.921-8.796,5.458c-8.828,1.355-13.943-4.498-22.254-14.966
			c-1.028-1.308-2.025-2.727-3.038-4.116c1.472-0.053,2.964-0.448,4.414-1.263c3.986-2.246,5.405-7.327,3.169-11.346
			c-1.919-3.401-6.259-4.611-9.66-2.7c-1.43,0.799-2.452,2.107-2.891,3.684c-0.438,1.577-0.242,3.225,0.564,4.638
			c0.896,1.603,2.516,2.56,4.229,2.689c-2.167,0.129-3.897-1.403-5.115-2.932c-6.581-8.828-14.57-17.252-28.097-17.252
			c-0.032,0-0.074,0-0.105,0c-6.809,0.021-12.983,2.742-17.387,7.673c-0.98,1.102-1.788,2.35-2.553,3.607v-6.41
			c4.293-0.501,8.279-2.431,11.344-5.709c3.507-3.746,5.405-8.703,5.363-13.953l-0.048-6.262c-0.005-0.725-0.374-1.4-0.986-1.798
			c-0.601-0.396-1.36-0.453-2.035-0.169c-0.158,0.071-15.979,6.832-25.645,0.319c-0.994-0.675-2.338-0.406-2.998,0.583
			c-0.67,0.988-0.404,2.333,0.583,2.998c8.877,5.988,21.163,3.045,26.779,1.181l0.026,3.188c0.036,4.134-1.45,8.034-4.198,10.971
			c-2.716,2.906-6.339,4.524-10.196,4.559c-7.81-0.04-14.591-6.785-14.668-15.283l-0.134-16.395
			c-0.005-0.949,0.448-1.896,1.35-2.813c2.576-2.618,8.126-4.338,14.151-4.385c6.876,0.026,12.229,2.721,12.25,5.244
			c-0.079,1.263-5.832,4.556-12.002,4.611c-0.085,0-0.169,0-0.264,0c-5.124,0-8.628-1.25-9.028-1.637
			c0.168-0.665,2.792-3.185,8.608-2.943c2.629,0.104,4.844,0.82,5.772,1.875c0.785,0.896,2.146,0.986,3.042,0.192
			c0.896-0.788,0.986-2.148,0.195-3.045c-1.756-1.999-4.894-3.186-8.849-3.344c-4.611-0.177-8.822,1.113-11.27,3.48
			c-1.197,1.155-1.824,2.444-1.819,3.741c0.071,5.941,12.335,6.03,13.643,5.994c6.671-0.058,16.321-3.581,16.279-8.97
			c-0.042-5.508-7.214-9.666-16.591-9.523c-7.327,0.053-13.758,2.175-17.196,5.674c-1.714,1.746-2.61,3.781-2.587,5.864
			l0.135,16.416c0.092,10.043,7.394,18.199,16.68,19.338v6.56c-0.788-1.316-1.629-2.603-2.649-3.747
			c-4.409-4.937-10.579-7.657-17.39-7.679c-0.037,0-0.071,0-0.108,0c-13.495,0-21.481,8.396-28.052,17.21
			c-1.236,1.537-3.127,3.006-5.152,2.979c1.706-0.129,3.325-1.086,4.221-2.684c0.807-1.424,1.01-3.072,0.567-4.649
			c-0.435-1.572-1.463-2.879-2.882-3.678c-3.401-1.912-7.739-0.696-9.667,2.705c-2.241,4.014-0.809,9.094,3.175,11.335
			c1.453,0.815,2.938,1.21,4.411,1.263c-1.015,1.39-2.001,2.813-3.035,4.116c-8.308,10.468-13.49,16.316-22.246,14.966
			c-3.543-0.543-6.671-2.479-8.798-5.456c-2.202-3.08-3.077-6.985-2.408-10.71c0.509-2.818,2.081-5.276,4.427-6.905
			c2.349-1.638,5.202-2.257,8.016-1.756c1.181,0.216,2.294-0.567,2.505-1.743c0.211-1.179-0.567-2.297-1.746-2.505
			c-3.953-0.715-7.953,0.161-11.249,2.455c-3.293,2.296-5.502,5.735-6.209,9.69c-0.881,4.865,0.271,9.962,3.143,13.987
			c2.813,3.935,6.951,6.497,11.66,7.209c11.691,1.777,18.468-6.713,26.286-16.553c1.74-2.194,3.415-4.543,5.1-6.914
			c1.078-1.516,2.159-3.014,3.251-4.474c0.047-0.066,0.108-0.111,0.155-0.168c0.021-0.032,0.026-0.071,0.048-0.104
			c6.233-8.353,12.962-15.298,24.474-15.298c0.026,0,0.061,0,0.092,0c5.566,0.016,10.6,2.236,14.18,6.236
			c2.489,2.787,4.05,6.331,4.794,10.165c-1.016-0.814-2.186-1.484-3.557-1.954c-5.055-1.724-10.552,0.971-12.285,6.015
			c-0.709,2.062-0.566,4.282,0.388,6.236c0.962,1.961,2.624,3.43,4.683,4.131c0.744,0.262,1.511,0.383,2.278,0.383
			c1.042,0,2.078-0.237,3.045-0.707c1.674-0.814,2.927-2.241,3.531-3.994c0.524-1.524,0.422-3.154-0.285-4.602
			c-0.701-1.442-1.927-2.515-3.446-3.035c-1.124-0.382-2.355,0.216-2.737,1.35v0.005c-0.594,0.707-0.717,1.717-0.201,2.526
			c0.514,0.804,1.463,1.128,2.349,0.91c0.037,0.058,0.124,0.074,0.161,0.14c0.2,0.404,0.229,0.862,0.082,1.29
			c-0.227,0.675-0.702,1.21-1.34,1.524c-0.63,0.306-1.35,0.345-2.025,0.119c-0.965-0.33-1.748-1.021-2.196-1.938
			c-0.448-0.925-0.52-1.972-0.185-2.945c0.962-2.792,4.018-4.292,6.794-3.325c4.644,1.598,5.021,5.756,4.459,9.115
			c-1.092,3.206-3.035,6.059-5.74,8.231c-3.763,3.021-8.477,4.382-13.278,3.871c-3.726-0.406-7.069-2.236-9.418-5.152
			c-2.341-2.922-3.412-6.579-3.006-10.305c0.646-5.914,6.009-10.18,11.894-9.558c1.231,0.145,2.257-0.723,2.384-1.912
			c0.129-1.188-0.73-2.251-1.912-2.381c-8.3-0.938-15.757,5.103-16.654,13.382c-0.535,4.87,0.862,9.661,3.932,13.479
			c1.537,1.914,3.401,3.47,5.49,4.614c-1.732-0.037-3.465-0.068-5.355,0.021c-12.938,0.58-22.853,4.836-29.658,10.853
			c-0.129,0.11-0.258,0.222-0.393,0.332c-0.119,0.116-0.251,0.222-0.369,0.338c-5.88,5.131-9.698,12.54-10.08,20.846
			c-8.192,0.681-14.721,7.757-14.803,16.517l-0.113,13.652c0,1.836,0.777,3.618,2.268,5.142c2.927,2.979,8.382,4.788,14.586,4.836
			c0.077,0,0.14,0,0.216,0c7.931,0,13.922-3.538,13.969-8.295c0.032-4.704-8.219-7.773-13.911-7.831
			c-1.991-0.031-11.678,0.163-11.723,5.357c-0.005,1.171,0.551,2.342,1.621,3.37c1.337,1.286,3.272,2.21,5.514,2.674
			c-3.122-0.56-5.74-1.677-7.188-3.148c-0.681-0.69-1.021-1.393-1.016-2.083l0.114-13.643c0.063-6.85,5.324-12.371,11.749-12.371
			c0.032,0,0.066,0,0.103,0c3.116,0.021,6.043,1.334,8.234,3.686c2.226,2.373,3.436,5.532,3.401,8.886l-0.021,2.162
			c-4.917-1.561-14.866-3.733-22.146,1.177c-0.986,0.669-1.247,2.009-0.583,3c0.665,0.997,2.014,1.244,2.998,0.58
			c7.857-5.3,20.87,0.242,21.002,0.301c0.656,0.29,1.424,0.227,2.035-0.169c0.604-0.39,0.976-1.065,0.981-1.793l0.05-5.216
			c0.037-4.466-1.582-8.674-4.569-11.875c-2.305-2.474-5.221-4.082-8.39-4.726c0.047-1.055,0.14-2.099,0.311-3.116
			c0.143-0.754,0.324-1.498,0.541-2.246c0.14-0.533,0.309-1.05,0.488-1.566c1.355-3.771,3.681-7.362,6.916-10.505
			c4.467-4.034,10.32-6.561,16.793-6.561c10.861,0,19.688,8.839,19.688,19.696c0,7.895-6.02,14.334-13.705,15.167
			c-0.361-0.944-0.884-1.825-1.63-2.558c-2.727-2.68-7.436-2.637-10.125,0.1c-2.766,2.811-2.721,7.352,0.092,10.131
			c1.35,1.323,3.127,2.046,5.01,2.046c1.941,0,3.755-0.76,5.11-2.142c0.902-0.912,1.403-2.062,1.711-3.27
			c4.224-0.385,8.04-2.088,11.064-4.735c1.463,3.106,4.574,6.181,11.216,6.181c7.198,0,15.005-3.691,15.335-3.844
			c0.714-0.338,1.184-1.039,1.226-1.836c0.045-0.785-0.351-1.534-1.021-1.951c-4.005-2.468-5.582-4.318-6.729-6.344
			c-3.04-5.4-6.468-10.066-12.332-8.396c-0.396,0.111-0.686,0.27-1.025,0.406c-0.488-10.895-8.198-19.896-18.486-22.285
			c1.88-0.285,3.812-0.507,5.859-0.597c17.487-0.764,27.044,4.003,32.203,8.485c-3.781,4.524-6.007,9.978-6.007,15.456
			c0,1.197,0.968,2.157,2.159,2.157c1.194,0,2.162-0.965,2.162-2.157c0-3.127,0.949-6.238,2.537-9.139v6.455
			c0,1.197,0.967,2.156,2.159,2.156c1.194,0,2.159-0.965,2.159-2.156v-6.297c1.529,2.854,2.437,5.917,2.437,8.976
			c0,1.197,0.971,2.157,2.157,2.157c1.191,0,2.162-0.965,2.162-2.157c0-5.484-2.226-10.932-6.007-15.456
			c5.163-4.488,14.776-9.25,32.21-8.485c2.046,0.095,3.971,0.321,5.854,0.596c-10.283,2.39-17.993,11.391-18.488,22.286
			c-0.332-0.138-0.622-0.301-1.013-0.406c-5.896-1.672-9.303,3-12.34,8.396c-1.139,2.024-2.721,3.876-6.729,6.344
			c-0.676,0.417-1.065,1.165-1.019,1.951c0.043,0.791,0.512,1.492,1.224,1.835c0.327,0.153,8.137,3.845,15.335,3.845
			c6.64,0,9.767-3.069,11.217-6.181c3.032,2.647,6.84,4.351,11.063,4.735c0.312,1.213,0.812,2.362,1.709,3.265
			c1.36,1.392,3.175,2.146,5.115,2.146c1.888,0,3.67-0.729,5.021-2.052c2.811-2.774,2.842-7.314,0.084-10.125
			c-2.689-2.727-7.403-2.764-10.119-0.101c-0.744,0.733-1.266,1.608-1.641,2.563c-7.678-0.817-13.7-7.267-13.7-15.167
			c0-10.863,8.833-19.696,19.691-19.696c6.47,0,12.323,2.526,16.785,6.561c3.243,3.143,5.558,6.739,6.919,10.505
			c0.179,0.512,0.332,1.028,0.484,1.566c0.217,0.743,0.391,1.486,0.538,2.246c0.174,1.013,0.27,2.062,0.322,3.116
			c-3.175,0.644-6.086,2.252-8.396,4.726c-2.985,3.195-4.609,7.409-4.572,11.875l0.058,5.216c0,0.728,0.369,1.403,0.981,1.793
			c0.611,0.401,1.371,0.464,2.035,0.169c0.121-0.063,13.12-5.616,21.004-0.301c1.002,0.67,2.342,0.411,3.006-0.58
			c0.665-0.986,0.396-2.336-0.585-3c-7.282-4.921-17.229-2.742-22.153-1.177l-0.026-2.162c-0.026-3.349,1.187-6.502,3.411-8.891
			c2.184-2.347,5.11-3.654,8.227-3.681c0.032,0,0.069,0,0.105,0c6.418,0,11.687,5.521,11.75,12.371l0.11,13.653
			c0.005,0.686-0.332,1.387-1.013,2.083c-1.455,1.466-4.071,2.589-7.192,3.148c2.246-0.465,4.182-1.393,5.516-2.68
			c1.07-1.028,1.635-2.199,1.624-3.375c-0.047-5.184-9.771-5.305-11.718-5.357c-5.7,0.053-13.942,3.127-13.911,7.836
			c0.042,4.746,6.033,8.285,13.964,8.285c0.074,0,0.138,0,0.222,0c6.196-0.048,11.654-1.861,14.587-4.842
			c1.481-1.513,2.268-3.295,2.246-5.141l-0.116-13.658c-0.079-8.76-6.607-15.831-14.803-16.522
			c-0.374-8.3-4.192-15.709-10.082-20.835c-0.111-0.116-0.248-0.222-0.364-0.338c-0.127-0.11-0.253-0.221-0.391-0.332
			c-6.803-6.012-16.717-10.262-29.657-10.853c-1.914-0.09-3.676-0.058-5.427-0.016c6.334-3.46,10.32-10.481,9.487-18.094
			c-0.907-8.284-8.364-14.299-16.648-13.381c-1.182,0.129-2.041,1.191-1.909,2.381c0.121,1.189,1.182,2.062,2.379,1.912
			c5.933-0.633,11.237,3.644,11.886,9.558c0.839,7.684-4.735,14.618-12.424,15.456c-4.799,0.512-9.514-0.854-13.273-3.876
			c-3.059-2.46-5.126-5.787-6.091-9.519c-0.232-3.066,0.554-6.431,4.619-7.828c2.785-0.962,5.827,0.533,6.793,3.319
			c0.332,0.984,0.264,2.025-0.19,2.956c-0.453,0.918-1.239,1.604-2.204,1.933c-1.393,0.464-2.896-0.266-3.37-1.647
			c-0.147-0.428-0.115-0.881,0.079-1.284c0.037-0.071,0.127-0.087,0.169-0.148c0.881,0.227,1.835-0.097,2.357-0.907
			s0.391-1.83-0.211-2.537l0,0c-0.38-1.128-1.613-1.729-2.742-1.345c-1.519,0.517-2.742,1.598-3.449,3.041
			c-0.701,1.448-0.801,3.072-0.279,4.601c1.002,2.882,3.713,4.696,6.598,4.696c0.759,0,1.508-0.119,2.251-0.377
			c2.057-0.696,3.724-2.16,4.684-4.116c0.965-1.959,1.107-4.185,0.39-6.257c-1.725-5.044-7.245-7.729-12.281-6.012
			c-1.266,0.438-2.363,1.06-3.328,1.798c0.765-3.773,2.315-7.256,4.772-10.012C108.242,65.039,113.273,62.819,118.841,62.804z
			 M151.674,73.856c-0.232-0.414-0.301-0.896-0.169-1.355c0.126-0.458,0.433-0.841,0.854-1.078c1.339-0.757,3.021-0.271,3.765,1.047
			c0.659,1.176,0.659,2.555,0.127,3.688c0.005-0.374-0.079-0.746-0.279-1.097c-0.396-0.707-1.129-1.102-1.894-1.102
			c-0.354,0-0.717,0.087-1.05,0.277C152.571,74.516,151.943,74.35,151.674,73.856z M40.32,74.247
			c-1.047-0.578-2.359-0.211-2.942,0.825c-0.195,0.351-0.282,0.728-0.277,1.102c-0.538-1.134-0.538-2.505,0.119-3.684
			c0.514-0.902,1.458-1.408,2.431-1.408c0.458,0,0.928,0.113,1.355,0.351c0.417,0.232,0.712,0.609,0.839,1.067
			c0.129,0.459,0.068,0.947-0.174,1.366C41.412,74.345,40.794,74.505,40.32,74.247z M30.288,167.201
			c1.334,0.654,2.201,1.329,2.328,1.715c-0.019,1.655-3.781,4.013-9.65,4.013c-0.768-0.005-1.49-0.032-2.215-0.101
			c0.599,0.037,1.21,0.037,1.824,0.016c3.391-0.131,6.104-1.165,7.631-2.905C30.891,169.163,30.907,168.009,30.288,167.201z
			 M15.83,166.674c0.968-0.548,3.473-1.229,7.151-1.229c1.906,0.021,3.747,0.412,5.303,0.944c-0.496,0.068-0.979,0.306-1.334,0.712
			c-0.551,0.633-2.036,1.34-4.556,1.439C18.73,168.736,16.534,167.396,15.83,166.674z M51.605,152.705
			c-1.057,1.086-2.932,1.097-4.01,0.047c-1.118-1.102-1.134-2.91-0.04-4.023c0.541-0.554,1.266-0.854,2.03-0.854
			c0.746,0,1.453,0.289,1.983,0.807c0.545,0.537,0.849,1.239,0.854,2.004C52.433,151.45,52.14,152.156,51.605,152.705z
			 M71.293,143.545c2.879,4.045,6.784,4.408,7.923,4.408c0.171,0,0.285-0.005,0.314-0.005c1.191-0.095,2.078-1.128,1.985-2.325
			c-0.092-1.192-1.123-2.057-2.32-1.983c-0.056-0.016-3.451,0.19-5.413-4.419c-0.084-0.596-0.101-1.318,0.206-1.936
			c0.356-0.717,1.144-1.255,2.354-1.598c0.454-0.127,0.881-0.2,1.248-0.2c1.787,0,3.451,1.777,6.141,6.555
			c1.194,2.12,2.689,3.86,4.828,5.553c-2.669,0.934-6.426,1.983-9.877,1.983c-5.611,0-7.101-2.716-7.733-4.736
			C70.917,144.658,70.982,144.004,71.293,143.545z M94.568,112.695c-3.299-2.415-7.792-4.746-13.882-6.27
			c3.349-0.729,6.523-2.162,9.265-4.377c1.854-1.487,3.349-3.286,4.612-5.213L94.568,112.695L94.568,112.695z M141.792,148.682
			c0.532-0.522,1.234-0.807,1.982-0.807c0.771,0,1.482,0.306,2.025,0.854c1.092,1.118,1.076,2.922-0.037,4.014
			c-1.081,1.064-2.953,1.049-4.013-0.043c-0.543-0.543-0.823-1.249-0.823-2.014C140.943,149.926,141.243,149.214,141.792,148.682z
			 M114.67,149.578c-3.449,0-7.209-1.045-9.877-1.983c2.141-1.692,3.633-3.443,4.83-5.553c3.254-5.759,4.715-7.119,7.394-6.354
			c1.202,0.338,1.988,0.881,2.352,1.598c0.306,0.617,0.29,1.345,0.2,1.931c-1.866,4.397-5.072,4.445-5.432,4.419
			c-1.128-0.101-2.198,0.807-2.288,1.988c-0.101,1.191,0.785,2.23,1.978,2.325c0.037,0,0.143,0.005,0.321,0.005
			c1.14,0,5.042-0.363,7.921-4.408c0.312,0.459,0.369,1.113,0.338,1.281C121.768,146.862,120.281,149.578,114.67,149.578z
			 M170.378,165.445c3.444-0.031,6.181,0.676,7.151,1.229c-0.707,0.723-2.816,2.047-6.576,1.873
			c-2.516-0.105-3.992-0.802-4.551-1.44c-0.349-0.4-0.833-0.644-1.329-0.712C166.634,165.857,168.47,165.472,170.378,165.445z
			 M170.584,172.934c-5.864-0.031-9.813-2.352-9.84-3.934c0.137-0.428,0.996-1.118,2.32-1.777c-0.597,0.797-0.575,1.94,0.11,2.727
			c1.529,1.734,4.229,2.769,7.625,2.905c0.617,0.021,1.234,0.017,1.836-0.016C171.951,172.896,171.265,172.934,170.584,172.934z
			 M103.396,102.049c2.747,2.209,5.916,3.648,9.265,4.382c-6.032,1.508-10.483,3.808-13.773,6.201V96.986
			C100.142,98.857,101.592,100.598,103.396,102.049z"/>
	</g>
</g>
<g>
</g>
<g>
</g>
<g>
</g>
<g>
</g>
<g>
</g>
<g>
</g>
<g>
</g>
<g>
</g>
<g>
</g>
<g>
</g>
<g>
</g>
<g>
</g>
<g>
</g>
<g>
</g>
<g>
</g>
</svg>
