<?xml version="1.0" encoding="iso-8859-1"?>
<!-- Generator: Adobe Illustrator 16.0.0, SVG Export Plug-In . SVG Version: 6.00 Build 0)  -->
<!DOCTYPE svg PUBLIC "-//W3C//DTD SVG 1.1//EN" "http://www.w3.org/Graphics/SVG/1.1/DTD/svg11.dtd">
<svg version="1.1" id="Capa_1" xmlns="http://www.w3.org/2000/svg" xmlns:xlink="http://www.w3.org/1999/xlink" x="0px" y="0px"
	 width="191.709px" height="191.709px" viewBox="0 0 191.709 191.709" style="enable-background:new 0 0 191.709 191.709;"
	 xml:space="preserve">
<g>
	<path d="M178.502,95.854c3.96-0.928,7.462-3.185,9.898-6.581c2.769-3.873,3.87-8.77,3.037-13.463
		c-1.413-7.76-8.864-12.944-16.611-11.546c-0.738,0.124-1.224,0.833-1.092,1.572c0.127,0.735,0.823,1.231,1.571,1.086
		c6.266-1.173,12.33,3.062,13.474,9.353c0.707,3.963-0.227,8.137-2.578,11.409c-1.445,2.004-3.349,3.512-5.495,4.548
		c2.347-1.911,3.828-4.601,4.171-7.594c0.343-3.034-0.511-6.03-2.42-8.435c-1.571-1.959-3.818-3.217-6.317-3.488
		c-2.505-0.264-4.974,0.427-6.94,1.999c-1.64,1.297-2.663,3.159-2.9,5.234c-0.231,2.083,0.349,4.129,1.656,5.751
		c2.246,2.813,6.354,3.267,9.165,1.031c0.321-0.253,0.459-0.609,0.479-0.994c0.237-0.422,0.412-0.886,0.412-1.403
		c0-1.605-1.292-2.895-2.9-2.895c-1.604,0-2.896,1.29-2.896,2.895c0,0.356,0.09,0.701,0.206,1.016
		c-0.896-0.148-1.746-0.591-2.363-1.351c-0.849-1.065-1.239-2.404-1.081-3.765c0.148-1.351,0.823-2.576,1.904-3.428
		c1.402-1.118,3.164-1.622,4.951-1.427c1.788,0.206,3.386,1.092,4.509,2.5c1.461,1.825,2.12,4.116,1.846,6.431
		c-0.264,2.333-1.418,4.4-3.253,5.872c-4.847,3.85-10.521,3.169-15.974-1.946c-0.237-0.222-0.543-0.295-0.839-0.319
		c-2.615-2.542-5.31-5.835-8.447-9.791c-1.419-1.774-2.785-3.709-4.161-5.632c0.475,0.093,0.954,0.195,1.439,0.195
		c1.45,0,2.916-0.388,4.335-1.2c3.628-2.041,4.931-6.647,2.89-10.281c-1.714-3.035-5.584-4.113-8.596-2.396
		c-1.244,0.696-2.141,1.835-2.521,3.206c-0.374,1.384-0.206,2.813,0.496,4.029c1.213,2.17,3.976,2.932,6.159,1.737
		c0.521-0.295,0.675-0.873,0.564-1.429c0.036-0.103,0.126-0.142,0.147-0.243c0.143-0.978-0.522-1.885-1.498-2.02
		c-0.943-0.137-1.809,0.512-1.978,1.445c-0.422-0.124-0.802-0.398-1.044-0.809c-0.338-0.599-0.427-1.306-0.242-1.976
		c0.189-0.675,0.633-1.236,1.239-1.582c1.729-0.978,3.938-0.34,4.925,1.377c1.308,2.344,0.475,5.286-1.856,6.615
		c-3.912,2.191-6.944-0.335-8.548-2.286c-6.708-9.044-14.365-17.186-27.733-17.186c-0.031,0-0.062,0-0.1,0
		c-6.603,0.021-12.593,2.655-16.864,7.441c-2.213,2.473-3.824,5.447-4.876,8.662c-1.057-3.23-2.668-6.188-4.88-8.662
		c-4.277-4.791-10.262-7.425-16.87-7.446c-0.034,0-0.061,0-0.098,0c-13.344,0-20.996,8.121-27.69,17.144
		c-1.596,1.943-4.657,4.545-8.583,2.329c-2.331-1.308-3.164-4.271-1.856-6.61c0.983-1.746,3.196-2.36,4.925-1.382
		c0.609,0.34,1.052,0.907,1.242,1.587c0.182,0.67,0.097,1.377-0.251,1.97c-0.232,0.422-0.614,0.675-1.036,0.81
		c-0.166-0.934-1.036-1.582-1.985-1.445c-0.983,0.145-1.648,1.042-1.498,2.02c0.01,0.1,0.113,0.14,0.147,0.242
		c-0.108,0.557,0.047,1.134,0.567,1.429c2.186,1.215,4.941,0.438,6.154-1.727c0.704-1.236,0.881-2.655,0.498-4.029
		c-0.379-1.381-1.276-2.521-2.518-3.217c-3.022-1.701-6.885-0.623-8.602,2.402c-2.035,3.628-0.741,8.234,2.89,10.271
		c1.424,0.793,2.887,1.205,4.334,1.205c0.48,0,0.963-0.108,1.438-0.195c-1.371,1.922-2.737,3.844-4.158,5.632
		c-3.143,3.96-5.838,7.264-8.461,9.79c-0.298,0.029-0.601,0.103-0.833,0.319c-5.458,5.12-11.129,5.811-15.973,1.951
		c-3.778-3.02-4.406-8.533-1.397-12.309c1.123-1.408,2.726-2.294,4.509-2.5c1.793-0.195,3.549,0.309,4.952,1.426
		c1.07,0.852,1.746,2.078,1.901,3.428c0.156,1.361-0.227,2.7-1.081,3.763c-0.609,0.772-1.463,1.205-2.36,1.35
		c0.119-0.316,0.206-0.651,0.206-1.012c0-1.606-1.294-2.896-2.9-2.896c-1.603,0-2.897,1.29-2.897,2.896
		c0,0.517,0.171,0.98,0.414,1.402c0.016,0.367,0.158,0.741,0.477,0.994c2.813,2.226,6.921,1.772,9.173-1.031
		c1.302-1.637,1.885-3.683,1.653-5.734c-0.237-2.091-1.263-3.937-2.9-5.25c-4.066-3.256-10.012-2.57-13.258,1.49
		c-3.91,4.904-3.108,12.062,1.746,16.028c-2.138-1.015-4.044-2.539-5.487-4.554c-2.35-3.262-3.283-7.436-2.576-11.394
		c1.139-6.296,7.209-10.496,13.474-9.357c0.749,0.135,1.437-0.351,1.571-1.086c0.135-0.738-0.356-1.448-1.092-1.572
		c-7.76-1.392-15.2,3.787-16.611,11.551c-0.835,4.688,0.272,9.585,3.035,13.458c2.437,3.396,5.93,5.653,9.898,6.581
		c-3.963,0.928-7.462,3.186-9.898,6.581c-2.763,3.876-3.865,8.771-3.035,13.464c1.406,7.762,8.836,12.93,16.611,11.549
		c0.736-0.127,1.221-0.834,1.092-1.572c-0.129-0.743-0.822-1.239-1.571-1.086c-6.286,1.129-12.335-3.069-13.474-9.355
		c-0.707-3.965,0.227-8.137,2.576-11.411c1.442-2.004,3.349-3.513,5.492-4.546c-2.344,1.909-3.829,4.599-4.174,7.594
		c-0.346,3.037,0.511,6.033,2.423,8.438c1.571,1.956,3.818,3.217,6.317,3.485c0.364,0.037,0.726,0.059,1.081,0.059
		c2.128,0,4.169-0.712,5.854-2.057c1.638-1.298,2.663-3.159,2.9-5.242c0.232-2.077-0.351-4.124-1.653-5.743
		c-2.247-2.811-6.354-3.264-9.168-1.027c-0.319,0.253-0.461,0.605-0.477,0.991c-0.237,0.422-0.414,0.886-0.414,1.402
		c0,1.604,1.294,2.896,2.897,2.896c1.606,0,2.9-1.292,2.9-2.896c0-0.358-0.087-0.696-0.206-1.013
		c0.896,0.148,1.751,0.575,2.36,1.351c0.849,1.065,1.237,2.394,1.081,3.755c-0.15,1.36-0.825,2.578-1.901,3.428
		c-1.403,1.128-3.159,1.603-4.952,1.429c-1.788-0.206-3.386-1.092-4.509-2.5c-1.458-1.829-2.117-4.118-1.846-6.438
		c0.264-2.326,1.418-4.388,3.248-5.864c4.844-3.854,10.521-3.169,15.974,1.946c0.24,0.216,0.551,0.306,0.854,0.321
		c2.613,2.542,5.308,5.838,8.44,9.788c1.411,1.771,2.771,3.691,4.137,5.6c-1.901-0.337-3.863-0.031-5.756,1.018
		c-3.631,2.052-4.931,6.65-2.89,10.283c1.16,2.057,3.31,3.212,5.519,3.212c1.046,0,2.107-0.259,3.077-0.791
		c1.242-0.706,2.139-1.846,2.519-3.217c0.377-1.382,0.206-2.811-0.493-4.028c-1.218-2.173-3.984-2.943-6.159-1.73
		c-0.52,0.29-0.675,0.865-0.567,1.424c-0.034,0.096-0.132,0.138-0.147,0.243c-0.145,0.98,0.52,1.877,1.498,2.02
		c0.944,0.132,1.814-0.512,1.98-1.45c0.422,0.137,0.805,0.4,1.042,0.812c0.34,0.601,0.432,1.308,0.245,1.977
		c-0.19,0.676-0.633,1.24-1.242,1.582c-1.735,0.986-3.941,0.344-4.925-1.376c-1.308-2.341-0.475-5.284,1.856-6.623
		c3.9-2.194,6.935,0.332,8.538,2.268c6.708,9.064,14.365,17.212,27.741,17.212c0.031,0,0.063,0,0.097,0
		c6.597-0.021,12.585-2.646,16.865-7.436c2.212-2.479,3.82-5.452,4.88-8.658c1.057,3.217,2.663,6.186,4.87,8.658
		c4.271,4.778,10.257,7.426,16.87,7.446c0.031,0,0.063,0,0.101,0c13.347,0,20.998-8.116,27.69-17.144
		c1.593-1.946,4.646-4.541,8.58-2.326c2.336,1.318,3.169,4.282,1.861,6.607c-0.986,1.735-3.19,2.357-4.926,1.382
		c-0.606-0.343-1.049-0.907-1.239-1.587c-0.185-0.67-0.1-1.377,0.248-1.982c0.232-0.412,0.622-0.676,1.039-0.808
		c0.163,0.944,1.028,1.588,1.978,1.456c0.986-0.132,1.65-1.028,1.492-2.02c-0.011-0.105-0.116-0.138-0.143-0.243
		c0.111-0.559-0.047-1.134-0.563-1.424c-2.179-1.233-4.947-0.442-6.16,1.709c-0.701,1.239-0.875,2.668-0.495,4.039
		c0.374,1.371,1.271,2.511,2.516,3.217c0.976,0.56,2.03,0.802,3.079,0.802c2.204,0,4.361-1.16,5.517-3.217
		c2.035-3.628,0.738-8.237-2.891-10.278c-1.898-1.06-3.854-1.371-5.753-1.028c1.366-1.908,2.727-3.828,4.14-5.59
		c3.133-3.949,5.827-7.267,8.438-9.787c0.301-0.021,0.606-0.111,0.849-0.327c5.464-5.12,11.133-5.812,15.974-1.951
		c3.781,3.017,4.403,8.532,1.402,12.309c-1.123,1.407-2.731,2.294-4.509,2.499c-1.787,0.174-3.549-0.306-4.951-1.434
		c-1.07-0.844-1.746-2.067-1.904-3.428c-0.163-1.361,0.228-2.7,1.076-3.766c0.611-0.765,1.466-1.182,2.357-1.34
		c-0.116,0.327-0.206,0.654-0.206,1.013c0,1.604,1.298,2.896,2.9,2.896c1.604,0,2.9-1.281,2.9-2.896c0-0.517-0.174-0.98-0.416-1.402
		c-0.017-0.369-0.153-0.749-0.475-1.002c-2.812-2.226-6.914-1.772-9.176,1.038c-1.298,1.63-1.883,3.676-1.651,5.743
		c0.237,2.083,1.261,3.935,2.9,5.242c1.73,1.382,3.803,2.051,5.864,2.051c2.774,0,5.526-1.218,7.389-3.549
		c3.912-4.904,3.111-12.065-1.74-16.021c2.136,1.023,4.044,2.531,5.489,4.546c2.352,3.27,3.28,7.436,2.579,11.401
		c-1.14,6.296-7.183,10.515-13.474,9.365c-0.749-0.147-1.44,0.338-1.572,1.086c-0.126,0.738,0.354,1.439,1.092,1.572
		c7.763,1.402,15.198-3.787,16.606-11.56c0.838-4.688-0.27-9.577-3.032-13.458C185.964,99.04,182.468,96.782,178.502,95.854z
		 M88.964,132.764c-3.754,4.187-9.03,6.522-14.855,6.539c-0.029,0-0.055,0-0.087,0c-11.934,0-19.068-7.42-25.32-15.789
		c-0.005-0.005,0-0.016-0.005-0.021c-0.026-0.043-0.056-0.063-0.082-0.105c-1.134-1.52-2.252-3.049-3.354-4.609
		c-0.301-0.422-0.609-0.802-0.907-1.234c0.53,0.105,1.055,0.185,1.577,0.185c1.648,0,3.283-0.511,4.838-1.534
		c3.462-2.31,4.406-6.992,2.117-10.463c-0.928-1.402-2.354-2.362-4.008-2.684c-1.65-0.322-3.335,0-4.746,0.938
		c-2.434,1.64-3.098,4.931-1.479,7.367c1.387,2.072,4.19,2.626,6.27,1.244c0.409-0.279,0.535-0.738,0.512-1.197
		c0.05-0.132,0.185-0.227,0.2-0.374c0.087-0.976-0.644-1.824-1.624-1.909c-0.913-0.084-1.685,0.569-1.849,1.466
		c-0.496-0.062-0.96-0.306-1.258-0.748c-0.793-1.197-0.464-2.816,0.73-3.623c0.804-0.533,1.77-0.723,2.721-0.543
		c0.944,0.189,1.753,0.738,2.284,1.529c1.474,2.225,0.864,5.241-1.361,6.713c-3.958,2.621-7.322-0.09-8.986-1.925
		c-0.005,0-0.011,0-0.016-0.011c-0.037-0.042-0.082-0.116-0.119-0.153c-5.972-7.535-11.34-14.206-18.733-16.025
		c7.393-1.835,12.762-8.48,18.733-16.023c0.037-0.053,0.082-0.113,0.119-0.15c0.005-0.005,0.01-0.005,0.016-0.011
		c1.664-1.854,5.023-4.564,8.986-1.925c2.225,1.477,2.834,4.493,1.361,6.708c-0.53,0.799-1.34,1.345-2.284,1.534
		c-0.952,0.183-1.917,0-2.716-0.545c-1.205-0.793-1.535-2.426-0.736-3.618c0.304-0.443,0.768-0.675,1.263-0.757
		c0.164,0.892,0.931,1.551,1.843,1.469c0.98-0.087,1.706-0.949,1.624-1.912c-0.016-0.145-0.145-0.237-0.2-0.367
		c0.023-0.464-0.103-0.917-0.512-1.199c-2.075-1.387-4.889-0.805-6.27,1.247c-1.619,2.426-0.955,5.734,1.484,7.361
		c1.055,0.696,2.257,1.052,3.488,1.052c0.417,0,0.833-0.042,1.248-0.113c1.653-0.335,3.079-1.279,4.008-2.689
		c2.288-3.462,1.345-8.153-2.123-10.455c-2.041-1.35-4.231-1.804-6.383-1.387c0.292-0.406,0.59-0.789,0.886-1.2
		c1.107-1.548,2.23-3.098,3.369-4.627c0.016-0.021,0.045-0.037,0.061-0.063c0.005-0.005,0-0.019,0.005-0.023
		c6.251-8.375,13.387-15.789,25.32-15.789c0.026,0,0.053,0,0.082,0c5.83,0.021,11.106,2.344,14.861,6.539
		c4.211,4.715,6.193,11.361,5.442,18.262c-1.102,10.036-9.833,17.289-19.817,16.825c-2.792-0.485-5.044-1.759-6.486-3.794
		c-1.738-2.45-2.305-5.896-1.556-9.427c0.482-2.291,1.827-4.245,3.781-5.516c1.967-1.263,4.314-1.683,6.6-1.224
		c1.759,0.366,3.262,1.413,4.243,2.908c0.984,1.508,1.313,3.301,0.941,5.07c-0.277,1.313-1.06,2.468-2.199,3.209
		c-1.145,0.751-2.516,1.005-3.86,0.73c-0.907-0.195-1.674-0.73-2.226-1.466c1.355-0.253,2.397-1.403,2.376-2.819
		c-0.021-1.608-1.34-2.876-2.943-2.856c-1.215,0.021-2.236,0.789-2.65,1.852c-0.034,0.087-0.126,0.116-0.147,0.211
		c-0.042,0.205,0.011,0.4-0.011,0.606c-0.005,0.103-0.053,0.171-0.047,0.274c0,0.071,0.037,0.124,0.042,0.195
		c-0.059,1.34,0.174,2.669,0.917,3.818c0.952,1.463,2.416,2.473,4.127,2.824c2.046,0.432,4.142,0.061,5.896-1.097
		c1.746-1.139,2.938-2.882,3.364-4.913c0.525-2.462,0.056-4.991-1.315-7.087c-1.374-2.12-3.488-3.562-5.946-4.087
		c-2.998-0.639-6.07-0.074-8.635,1.608c-2.565,1.669-4.319,4.219-4.952,7.217c-0.756,3.557-0.319,7.034,1.087,9.869
		c-0.541-0.501-1.081-1.002-1.545-1.572c-2.495-3.109-3.628-7.014-3.198-10.966c0.699-6.399,6.428-11.063,12.859-10.336
		c0.718,0.103,1.408-0.453,1.485-1.205c0.082-0.749-0.454-1.413-1.2-1.484c-7.884-0.788-14.969,4.87-15.831,12.723
		c-0.514,4.677,0.825,9.289,3.773,12.949c2.128,2.642,4.925,4.559,8.068,5.619c-3.143,1.055-5.94,2.969-8.068,5.622
		c-2.948,3.67-4.288,8.258-3.773,12.936c0.857,7.867,7.952,13.51,15.831,12.725c0.741-0.084,1.281-0.749,1.2-1.482
		c-0.082-0.743-0.767-1.271-1.485-1.202c-6.415,0.696-12.155-3.938-12.859-10.336c-0.435-3.966,0.704-7.857,3.198-10.958
		c0.464-0.574,1.004-1.07,1.535-1.571c-1.395,2.843-1.833,6.307-1.076,9.861c0.633,2.984,2.387,5.542,4.952,7.214
		c1.885,1.239,4.034,1.872,6.225,1.872c0.799,0,1.606-0.095,2.405-0.269c5.086-1.07,8.343-6.097,7.262-11.164
		c-0.427-2.035-1.614-3.775-3.365-4.915c-1.753-1.149-3.855-1.545-5.896-1.103c-1.706,0.354-3.175,1.366-4.126,2.822
		c-0.744,1.149-0.976,2.479-0.918,3.812c-0.005,0.079-0.042,0.132-0.042,0.2c0,0.11,0.042,0.179,0.048,0.279
		c0.021,0.195-0.032,0.396,0.01,0.606c0.016,0.09,0.108,0.121,0.14,0.2c0.417,1.071,1.437,1.835,2.658,1.856
		c1.604,0.026,2.922-1.25,2.943-2.853c0.016-1.44-1.021-2.579-2.375-2.827c0.562-0.728,1.318-1.255,2.225-1.466
		c1.345-0.284,2.716-0.021,3.86,0.733c1.14,0.743,1.917,1.898,2.199,3.217c0.772,3.639-1.556,7.209-5.179,7.989
		c-2.302,0.475-4.641,0.053-6.604-1.239c-1.954-1.261-3.299-3.232-3.781-5.511c-0.749-3.539-0.182-6.982,1.556-9.429
		c1.447-2.036,3.699-3.322,6.497-3.808c9.914-0.527,18.705,6.818,19.807,16.833C95.163,121.394,93.17,128.054,88.964,132.764z
		 M81.885,95.802c6.42-1.988,11.646-6.866,13.979-13.302c2.334,6.436,7.575,11.335,14.02,13.312
		c-2.615,0.786-5.078,2.072-7.277,3.834c-3.151,2.531-5.408,5.827-6.747,9.534C93.515,102.726,88.31,97.769,81.885,95.802z
		 M151.56,111.875c-0.037,0.059-0.084,0.111-0.116,0.158c-0.005,0.006-0.01,0.006-0.016,0.011c-1.661,1.846-5.025,4.557-8.985,1.925
		c-2.226-1.477-2.832-4.493-1.361-6.718c0.533-0.791,1.34-1.34,2.284-1.524c0.954-0.185,1.914,0.005,2.716,0.538
		c1.207,0.801,1.534,2.426,0.738,3.623c-0.301,0.453-0.765,0.686-1.256,0.764c-0.163-0.896-0.933-1.555-1.851-1.481
		c-0.98,0.085-1.692,0.949-1.624,1.909c0.016,0.147,0.143,0.248,0.2,0.38c-0.026,0.453,0.105,0.907,0.512,1.181
		c2.077,1.393,4.883,0.807,6.27-1.239c1.619-2.42,0.96-5.731-1.481-7.346c-1.413-0.954-3.09-1.25-4.741-0.954
		c-1.655,0.332-3.079,1.286-4.008,2.689c-2.288,3.465-1.345,8.158,2.126,10.468c1.556,1.013,3.19,1.529,4.841,1.529
		c0.532,0,1.049-0.105,1.582-0.19c-0.306,0.422-0.617,0.797-0.918,1.234c-1.123,1.571-2.257,3.138-3.417,4.683
		c0,0.005-0.011,0.005-0.011,0.011c-6.28,8.374-13.479,15.778-25.407,15.81c-5.832-0.021-11.111-2.347-14.86-6.55
		c-4.211-4.709-6.194-11.358-5.437-18.251c0.551-5.047,3.03-9.571,6.982-12.746c3.66-2.942,8.189-4.292,12.814-4.092
		c2.806,0.485,5.058,1.771,6.502,3.808c1.735,2.451,2.305,5.896,1.556,9.429c-0.485,2.283-1.83,4.245-3.781,5.516
		c-1.956,1.261-4.303,1.688-6.602,1.224c-1.757-0.369-3.265-1.413-4.24-2.911c-0.986-1.508-1.313-3.301-0.944-5.073
		c0.28-1.318,1.061-2.468,2.199-3.211c1.145-0.744,2.516-1.008,3.86-0.723c0.907,0.195,1.677,0.728,2.226,1.466
		c-1.355,0.253-2.395,1.403-2.373,2.816c0.021,1.603,1.339,2.879,2.942,2.858c1.218-0.032,2.241-0.791,2.652-1.856
		c0.037-0.09,0.121-0.111,0.143-0.211c0.042-0.211-0.011-0.401,0.011-0.602c0.005-0.105,0.053-0.174,0.047-0.284
		c0-0.063-0.036-0.116-0.042-0.19c0.063-1.334-0.174-2.663-0.917-3.812c-0.955-1.461-2.416-2.474-4.13-2.827
		c-2.04-0.427-4.145-0.053-5.896,1.098c-1.745,1.139-2.938,2.885-3.364,4.914c-0.527,2.463-0.058,4.984,1.318,7.083
		c1.371,2.125,3.491,3.564,5.948,4.081c0.802,0.169,1.614,0.27,2.41,0.27c2.188,0,4.34-0.633,6.212-1.872
		c2.568-1.667,4.324-4.219,4.952-7.214c0.759-3.565,0.321-7.035-1.087-9.872c0.544,0.506,1.081,1.007,1.546,1.571
		c2.494,3.111,3.628,7.003,3.2,10.969c-0.332,3.096-1.861,5.875-4.287,7.831c-2.431,1.951-5.469,2.843-8.574,2.505
		c-0.723-0.084-1.408,0.453-1.482,1.202c-0.084,0.754,0.454,1.419,1.203,1.487c3.823,0.385,7.557-0.686,10.552-3.09
		c2.99-2.39,4.862-5.833,5.284-9.641c0.512-4.667-0.828-9.281-3.776-12.94c-2.13-2.653-4.925-4.557-8.068-5.616
		c3.144-1.05,5.943-2.969,8.068-5.622c2.948-3.67,4.288-8.255,3.776-12.938c-0.411-3.818-2.289-7.235-5.284-9.637
		c-3.001-2.405-6.734-3.462-10.552-3.09c-0.744,0.087-1.282,0.751-1.203,1.485c0.085,0.751,0.771,1.308,1.482,1.205
		c3.101-0.345,6.144,0.562,8.574,2.505c2.426,1.946,3.95,4.73,4.287,7.831c0.438,3.963-0.706,7.857-3.2,10.956
		c-0.465,0.572-1.008,1.076-1.529,1.571c1.392-2.84,1.829-6.307,1.07-9.858c-0.628-2.987-2.384-5.548-4.952-7.214
		c-2.568-1.688-5.637-2.26-8.638-1.606c-5.084,1.076-8.343,6.096-7.262,11.161c0.428,2.041,1.614,3.781,3.364,4.92
		c1.751,1.149,3.845,1.529,5.896,1.102c1.703-0.351,3.174-1.365,4.129-2.818c0.743-1.163,0.976-2.479,0.917-3.818
		c0.006-0.082,0.043-0.129,0.043-0.201c0-0.108-0.043-0.177-0.048-0.274c-0.021-0.201,0.031-0.401-0.011-0.612
		c-0.016-0.098-0.11-0.119-0.137-0.198c-0.417-1.071-1.439-1.837-2.658-1.859c-1.603-0.021-2.921,1.247-2.942,2.851
		c-0.016,1.442,1.018,2.581,2.373,2.824c-0.559,0.736-1.318,1.26-2.226,1.463c-1.345,0.277-2.716,0.023-3.86-0.723
		c-1.139-0.746-1.914-1.896-2.198-3.225c-0.775-3.628,1.556-7.203,5.178-7.986c2.3-0.485,4.636-0.053,6.608,1.236
		c1.951,1.266,3.296,3.23,3.78,5.514c0.749,3.543,0.18,6.987-1.556,9.434c-1.45,2.036-3.701,3.322-6.496,3.808
		c-9.936,0.533-18.711-6.826-19.797-16.838c-0.757-6.89,1.226-13.553,5.432-18.262c3.755-4.195,9.033-6.523,14.855-6.539
		c0.031,0,0.058,0,0.09,0c11.934,0,19.068,7.419,25.317,15.788c0.005,0.006,0,0.021,0.005,0.021
		c0.026,0.034,0.048,0.045,0.069,0.076c1.139,1.529,2.262,3.077,3.369,4.622c0.29,0.412,0.586,0.789,0.881,1.2
		c-2.151-0.422-4.351,0.031-6.392,1.382c-3.465,2.312-4.403,6.998-2.12,10.465c0.929,1.405,2.357,2.365,4.008,2.684
		c0.412,0.092,0.828,0.114,1.245,0.114c1.233,0,2.437-0.346,3.491-1.047c2.431-1.643,3.095-4.931,1.477-7.367
		c-1.382-2.067-4.183-2.613-6.271-1.242c-0.406,0.282-0.532,0.736-0.512,1.194c-0.053,0.135-0.185,0.227-0.2,0.377
		c-0.079,0.973,0.644,1.825,1.624,1.912c0.918,0.076,1.688-0.588,1.856-1.484c0.496,0.087,0.96,0.319,1.25,0.767
		c0.791,1.197,0.464,2.813-0.728,3.623c-0.808,0.552-1.772,0.723-2.727,0.552c-0.944-0.19-1.751-0.747-2.283-1.529
		c-1.472-2.223-0.865-5.242,1.36-6.716c3.96-2.632,7.324,0.084,8.985,1.917c0.006,0.01,0.011,0.01,0.017,0.021
		c0.036,0.042,0.084,0.108,0.115,0.146c5.965,7.538,11.338,14.186,18.731,16.025C162.893,97.674,157.529,104.345,151.56,111.875z"/>
</g>
<g>
</g>
<g>
</g>
<g>
</g>
<g>
</g>
<g>
</g>
<g>
</g>
<g>
</g>
<g>
</g>
<g>
</g>
<g>
</g>
<g>
</g>
<g>
</g>
<g>
</g>
<g>
</g>
<g>
</g>
</svg>
