<?xml version="1.0" encoding="iso-8859-1"?>
<!-- Generator: Adobe Illustrator 16.0.0, SVG Export Plug-In . SVG Version: 6.00 Build 0)  -->
<!DOCTYPE svg PUBLIC "-//W3C//DTD SVG 1.1//EN" "http://www.w3.org/Graphics/SVG/1.1/DTD/svg11.dtd">
<svg version="1.1" id="Capa_1" xmlns="http://www.w3.org/2000/svg" xmlns:xlink="http://www.w3.org/1999/xlink" x="0px" y="0px"
	 width="173.474px" height="173.474px" viewBox="0 0 173.474 173.474" style="enable-background:new 0 0 173.474 173.474;"
	 xml:space="preserve">
<g>
	<path d="M169.348,59.466c0-1.376-1.12-2.494-2.484-2.494c-1.382,0-2.49,1.136-2.49,2.494c0,9.685-3.897,18.462-10.199,24.88
		c-6.887-5.568-15.625-8.954-25.148-9.024c-0.085,0-0.134,0-0.219,0c-8.537,0-16.259,3.35-22.135,8.695
		c-3.616-4.722-5.852-10.528-5.852-16.937c0-12.06,9.804-21.863,21.872-21.863c0.062,0,0.11-0.024,0.146-0.024
		c0.999,5.812,6.053,10.257,12.13,10.257c6.813,0,12.343-5.544,12.343-12.339s-5.548-12.339-12.343-12.339
		c-5.84,0-10.717,4.092-11.996,9.532c-0.109-0.024-0.183-0.073-0.292-0.073c-3.489,0-6.783,0.719-9.84,1.939
		c2.716-6.747,2.161-13.798,2.119-14.197c-0.11-1.218-1.084-2.17-2.29-2.265c-0.006-0.012-13.286-1.023-20.943,6.747
		c-0.837,0.843-1.51,1.753-2.146,2.694c1.428-9.292,8.963-16.499,18.42-17.415c0.84,1.084,2.088,1.827,3.562,1.827
		c2.533,0,4.592-2.058,4.592-4.576c0-2.533-2.059-4.592-4.592-4.592c-1.717,0-3.166,0.987-3.958,2.415
		c-7.599,0.691-14.227,4.652-18.465,10.525V8.33c1.233-0.816,2.095-2.156,2.095-3.757C91.233,2.046,89.188,0,86.657,0
		c-2.539,0-4.579,2.046-4.579,4.572c0,1.602,0.868,2.941,2.083,3.757v15.003c-4.232-5.867-10.86-9.828-18.462-10.525
		c-0.785-1.428-2.213-2.415-3.952-2.415c-2.54,0-4.585,2.059-4.585,4.592c0,2.518,2.046,4.576,4.585,4.576
		c1.464,0,2.731-0.743,3.559-1.827c9.459,0.91,17.016,8.123,18.426,17.427c-0.643-0.922-1.315-1.863-2.146-2.694
		c-7.66-7.782-20.956-6.771-20.938-6.759c-1.209,0.101-2.201,1.047-2.292,2.265c-0.04,0.399-0.612,7.475,2.119,14.233
		c-3.005-1.172-6.223-1.851-9.532-1.875c-0.119-0.027-0.207,0.024-0.32,0.024c-1.254-5.443-6.104-9.532-12.001-9.584
		c-6.765,0-12.31,5.507-12.34,12.278c-0.04,6.808,5.456,12.37,12.264,12.419c0,0,0.082,0,0.088,0
		c6.053,0,11.092-4.408,12.127-10.169c0.052,0,0.094,0.024,0.131,0.024c5.849,0.04,11.316,2.351,15.433,6.503
		c4.104,4.165,6.348,9.673,6.306,15.516c-0.046,6.147-2.153,11.932-5.843,16.748c-5.857-5.346-13.594-8.698-22.131-8.698
		c-9.615,0-18.444,3.373-25.401,8.973c-6.33-6.479-10.208-15.345-10.132-25.072c0.012-1.392-1.111-2.509-2.469-2.521
		c0,0-0.012,0-0.021,0c-1.37,0-2.475,1.111-2.494,2.469c-0.073,11.042,4.302,21.12,11.454,28.485
		c-7.106,7.307-11.502,17.269-11.502,28.198c0,1.389,1.129,2.497,2.487,2.497c1.379,0,2.487-1.121,2.487-2.497
		c0-9.669,3.897-18.45,10.203-24.855c6.884,5.583,15.625,8.969,25.157,9.012c0.076,0,0.131,0,0.207,0
		c8.537,0,16.255-3.337,22.14-8.695c3.611,4.726,5.849,10.546,5.849,16.928c0,5.37-2.019,10.229-5.255,14.042
		c-0.904,0.633-1.778,1.303-2.582,2.106c-0.417,0.438-0.728,0.938-1.108,1.4c-3.642,2.698-8.09,4.323-12.934,4.323
		c-0.061,0-0.101,0.024-0.137,0.037c-0.993-5.821-6.05-10.261-12.133-10.261c-6.817,0-12.34,5.541-12.34,12.343
		c0,6.808,5.541,12.343,12.34,12.343c5.843,0,10.705-4.079,11.996-9.523c0.106,0.019,0.192,0.067,0.292,0.067
		c3.163,0,6.135-0.652,8.96-1.65c-1.802,5.979-1.382,11.605-1.352,11.959c0.119,1.218,1.083,2.186,2.292,2.266
		c0,0,0.6,0.049,1.623,0.049c3.797,0,13.287-0.652,19.342-6.796c0.828-0.828,1.501-1.754,2.144-2.698
		c-1.422,9.293-8.966,16.502-18.417,17.428c-0.849-1.084-2.104-1.826-3.568-1.826c-2.524,0-4.582,2.045-4.582,4.566
		c0,2.545,2.058,4.591,4.582,4.591c1.708,0,3.172-0.986,3.952-2.411c7.602-0.694,14.23-4.628,18.478-10.528v14.991
		c-1.242,0.828-2.11,2.156-2.11,3.752c0,2.533,2.052,4.591,4.591,4.591c2.53,0,4.564-2.058,4.564-4.591
		c0-1.584-0.855-2.924-2.083-3.752V150.14c4.247,5.876,10.879,9.815,18.466,10.528c0.779,1.425,2.223,2.411,3.964,2.411
		c2.527,0,4.585-2.046,4.585-4.591c0-2.521-2.058-4.566-4.585-4.566c-1.474,0-2.734,0.742-3.568,1.826
		c-9.456-0.92-17.016-8.135-18.426-17.428c0.643,0.926,1.315,1.852,2.152,2.698c6.038,6.132,15.519,6.796,19.336,6.796
		c1.018,0,1.62-0.049,1.62-0.049c1.206-0.092,2.192-1.048,2.296-2.254c0.03-0.365,0.444-6.064-1.395-12.086
		c2.838,1.01,5.833,1.674,8.945,1.686c0.006,0,0.012,0,0.018,0c0.109,0,0.171-0.036,0.28-0.048c0.506,2.21,1.583,4.28,3.228,5.919
		c2.313,2.35,5.407,3.652,8.701,3.678c0.006,0,0.092,0,0.092,0c6.771,0,12.3-5.493,12.342-12.252
		c0.043-6.838-5.455-12.397-12.342-12.446c-6.065,0-11.095,4.421-12.13,10.193c-0.049-0.013-0.098-0.036-0.141-0.036
		c-4.92-0.024-9.517-1.742-13.322-4.756c-0.25-0.305-0.433-0.621-0.7-0.901c-0.628-0.634-1.34-1.133-2.022-1.656
		c-3.665-4.067-5.711-9.231-5.662-14.724c0.036-6.32,2.265-12.068,5.845-16.732c5.846,5.328,13.592,8.683,22.11,8.683
		c9.614,0,18.444-3.373,25.403-8.987c6.339,6.479,10.212,15.356,10.139,25.1c-0.006,1.376,1.108,2.496,2.473,2.508
		c1.169-0.194,2.496-1.096,2.509-2.472c0.085-11.04-4.299-21.117-11.448-28.467C164.951,80.386,169.348,70.439,169.348,59.466z
		 M134.944,35.74c4.056,0,7.368,3.3,7.368,7.358s-3.288,7.359-7.368,7.359c-4.05,0-7.355-3.3-7.355-7.359
		S130.901,35.74,134.944,35.74z M38.596,50.458v2.494l-0.052-2.494c-4.053-0.028-7.332-3.337-7.307-7.395
		c0.024-4.041,3.322-7.322,7.407-7.322c4.041,0.027,7.344,3.349,7.307,7.407C45.933,47.179,42.629,50.458,38.596,50.458z
		 M38.449,139.66c-4.052,0-7.362-3.3-7.362-7.355c0-4.062,3.292-7.374,7.362-7.374c4.056,0,7.359,3.294,7.359,7.374
		C45.802,136.36,42.499,139.66,38.449,139.66z M134.859,124.949c4.049,0.024,7.331,3.349,7.307,7.416
		c-0.024,4.02-3.325,7.295-7.368,7.295v2.497l-0.049-2.497c-1.96-0.012-3.806-0.791-5.188-2.18c-1.389-1.419-2.144-3.252-2.119-5.23
		C127.467,128.225,130.767,124.949,134.859,124.949z M95.255,35.941c4.287-4.333,11.162-5.176,14.772-5.3
		c-0.073,3.541-0.779,10.488-5.078,14.857c-4.287,4.335-11.161,5.176-14.775,5.288C90.229,47.239,90.953,40.313,95.255,35.941z
		 M78.014,35.941c4.29,4.344,5.021,11.298,5.069,14.845c-3.611-0.112-10.507-0.935-14.772-5.288
		c-4.277-4.345-4.999-11.296-5.063-14.857C66.871,30.759,73.748,31.59,78.014,35.941z M44.429,95.1
		c-8.05-0.049-15.436-2.825-21.373-7.38c5.998-4.591,13.463-7.358,21.58-7.358c7.246,0,13.798,2.841,18.782,7.383
		c-5.176,4.713-11.768,7.368-18.8,7.368C44.548,95.112,44.493,95.1,44.429,95.1z M78.014,137.529
		c-4.29,4.323-11.155,5.176-14.772,5.291c0.064-3.245,0.813-9.291,4.247-13.646c1.06-0.87,2.07-1.766,2.987-2.765
		c4.189-2.861,9.545-3.604,12.608-3.727C83.034,126.228,82.304,133.182,78.014,137.529z M110.003,142.814
		c-3.599-0.109-10.485-0.949-14.748-5.297c-4.29-4.336-5.014-11.302-5.069-14.846c3.191,0.109,8.82,0.907,13.058,4.025
		c0.128,0.127,0.207,0.268,0.329,0.383c0.59,0.609,1.278,1.06,1.924,1.596C109.188,133.06,109.954,139.441,110.003,142.814z
		 M98.02,118.812c-3.708-0.944-7.018-1.133-8.881-1.133v-7.052c0-1.376-1.136-2.496-2.497-2.496c-1.376,0-2.494,1.12-2.494,2.496
		v7.052c-1.82,0-5.045,0.183-8.659,1.084c1.358-3.203,2.113-6.735,2.113-10.437c0-7.831-2.862-14.943-7.444-20.594
		c4.545-5.614,7.38-12.629,7.432-20.378c0.031-4.64-1.218-9.048-3.385-13.006c4.016,1.19,7.824,1.428,9.913,1.428
		c0.012,0,0.018,0,0.03,0v7.051c0,1.391,1.124,2.481,2.494,2.481c1.373,0,2.497-1.123,2.497-2.481v-7.051c0.012,0,0.012,0,0.024,0
		c2.106,0,5.967-0.244,10.001-1.461c-2.082,3.812-3.373,8.126-3.373,12.766c0,7.843,2.862,14.939,7.429,20.614
		c-4.536,5.59-7.38,12.605-7.417,20.369C95.791,111.82,96.576,115.45,98.02,118.812z M109.991,87.684
		c4.993-4.549,11.551-7.386,18.797-7.386c0.061,0,0.128,0,0.177,0c8.037,0.076,15.442,2.826,21.379,7.411
		c-5.998,4.591-13.463,7.343-21.58,7.343C121.523,95.051,114.978,92.214,109.991,87.684z"/>
</g>
<g>
</g>
<g>
</g>
<g>
</g>
<g>
</g>
<g>
</g>
<g>
</g>
<g>
</g>
<g>
</g>
<g>
</g>
<g>
</g>
<g>
</g>
<g>
</g>
<g>
</g>
<g>
</g>
<g>
</g>
</svg>
