<?xml version="1.0" encoding="iso-8859-1"?>
<!-- Generator: Adobe Illustrator 16.0.0, SVG Export Plug-In . SVG Version: 6.00 Build 0)  -->
<!DOCTYPE svg PUBLIC "-//W3C//DTD SVG 1.1//EN" "http://www.w3.org/Graphics/SVG/1.1/DTD/svg11.dtd">
<svg version="1.1" id="Capa_1" xmlns="http://www.w3.org/2000/svg" xmlns:xlink="http://www.w3.org/1999/xlink" x="0px" y="0px"
	 width="202.991px" height="202.991px" viewBox="0 0 202.991 202.991" style="enable-background:new 0 0 202.991 202.991;"
	 xml:space="preserve">
<g>
	<g>
		<path d="M6.354,92.621c0,1.184,0.016,2.284,0.216,3.375c1.938,10.573,8.899,11.802,13.969,11.802c0.515,0,0.994-0.017,1.479-0.032
			c0.364,8.775,4.393,16.606,10.623,22.012c0.113,0.11,0.232,0.211,0.335,0.321c0.14,0.116,0.298,0.243,0.433,0.369
			c7.153,6.323,17.576,10.784,31.179,11.401c1.413,0.063,2.782,0.101,4.108,0.101c17.146,0,27.132-5.115,32.812-9.999
			c5.685,4.873,15.673,9.999,32.816,9.999c1.323,0,2.694-0.026,4.108-0.101c13.595-0.611,24.004-5.067,31.16-11.375
			c0.174-0.143,0.338-0.284,0.522-0.427c0.095-0.09,0.185-0.169,0.279-0.253c6.233-5.405,10.272-13.252,10.652-22.043
			c0.49,0.016,0.98,0.031,1.472,0.031c5.067,0,12.028-1.229,13.964-11.807c0.2-1.083,0.216-2.18,0.216-3.37
			c0.016-3.283,0.026-6.998,5.807-13.927c0.484-0.583,0.611-1.376,0.358-2.093c-0.248-0.715-0.85-1.247-1.604-1.405
			c0,0-6.597-1.176-13.041,1.933c-0.068-3.186-0.949-6.036-2.621-8.509c-4.118-6.038-11.522-7.496-11.828-7.555
			c-0.786-0.158-1.587,0.15-2.083,0.773c-0.501,0.62-0.617,1.466-0.312,2.202c1.477,3.462,0.676,5.627-0.442,8.625
			c-0.533,1.408-1.087,2.937-1.466,4.714c-6.661-3.425-13.511-2.172-13.511-2.172c-0.744,0.158-1.355,0.691-1.604,1.411
			c-0.253,0.712-0.11,1.511,0.358,2.088c5.765,6.93,5.78,10.645,5.791,13.928c0,1.184,0.021,2.286,0.216,3.369
			c1.93,10.579,8.896,11.808,13.964,11.808c0.665,0,1.308-0.021,1.94-0.037c-0.062,1.092-0.147,2.167-0.332,3.217
			c-0.137,0.791-0.337,1.582-0.564,2.362c-0.152,0.564-0.332,1.118-0.527,1.667c-1.439,3.991-3.902,7.799-7.313,11.132
			c-4.726,4.271-10.916,6.945-17.777,6.945c-11.517,0-20.883-9.365-20.883-20.889c0-8.421,6.449-15.287,14.66-16.112
			c0.358,0.999,0.902,1.938,1.703,2.734c1.397,1.371,3.249,2.13,5.2,2.13c2.015,0,3.902-0.785,5.305-2.23
			c2.858-2.919,2.811-7.633-0.11-10.507c-2.832-2.787-7.726-2.732-10.505,0.097c-0.98,0.994-1.477,2.212-1.788,3.478
			c-4.514,0.398-8.59,2.22-11.802,5.065c-1.497-3.283-4.762-6.573-11.797-6.573c-7.562,0-15.772,3.878-16.115,4.044
			c-0.717,0.34-1.187,1.044-1.234,1.833c-0.047,0.788,0.338,1.537,1.013,1.954c4.24,2.608,5.917,4.585,7.135,6.737
			c3.26,5.812,5.991,9.171,10.342,9.171c0.796,0,1.64-0.122,2.531-0.375c0.459-0.127,0.807-0.316,1.207-0.475
			c0.448,11.676,8.812,21.353,19.913,23.693c-2.136,0.332-4.351,0.606-6.682,0.712c-18.088,0.808-28.182-4.034-33.702-8.685
			c4.239-4.852,6.671-10.647,6.671-16.675c0-1.192-0.976-2.157-2.157-2.157c-1.187,0-2.151,0.971-2.151,2.157
			c0,4.788-1.988,9.581-5.374,13.584c-3.38-3.997-5.368-8.791-5.368-13.584c0-1.192-0.97-2.157-2.159-2.157
			c-1.189,0-2.149,0.971-2.149,2.157c0,6.027,2.423,11.817,6.663,16.675c-5.519,4.656-15.612,9.508-33.708,8.685
			c-2.352-0.11-4.551-0.369-6.668-0.712c11.098-2.341,19.462-12.013,19.915-23.693c0.385,0.158,0.751,0.343,1.21,0.475
			c0.891,0.253,1.711,0.375,2.531,0.375c4.78,0,7.615-4.335,10.341-9.171c1.21-2.146,2.879-4.113,7.13-6.737
			c0.675-0.417,1.052-1.16,1.015-1.954c-0.045-0.789-0.514-1.493-1.231-1.833c-0.34-0.166-8.548-4.044-16.113-4.044
			c-7.032,0-10.278,3.286-11.794,6.573c-3.214-2.845-7.296-4.667-11.81-5.065c-0.319-1.292-0.833-2.505-1.793-3.473
			c-2.782-2.829-7.691-2.879-10.491-0.103c-1.438,1.397-2.215,3.261-2.236,5.249c-0.016,1.98,0.744,3.85,2.133,5.258
			c1.414,1.439,3.293,2.23,5.308,2.23c1.949,0,3.808-0.754,5.205-2.13c0.789-0.781,1.334-1.725,1.701-2.734
			c8.213,0.825,14.663,7.691,14.663,16.112c0,11.523-9.366,20.889-20.883,20.889c-6.863,0-13.057-2.679-17.782-6.95
			c-3.425-3.322-5.88-7.125-7.312-11.122c-0.19-0.559-0.356-1.112-0.53-1.682c-0.222-0.786-0.409-1.566-0.562-2.363
			c-0.171-1.044-0.274-2.136-0.335-3.217c0.633,0.016,1.276,0.037,1.928,0.037h0.01c5.065,0,12.026-1.229,13.967-11.807
			c0.192-1.086,0.216-2.186,0.216-3.37c0.01-3.283,0.026-6.998,5.782-13.927c0.49-0.578,0.62-1.376,0.366-2.088
			c-0.248-0.72-0.856-1.252-1.603-1.41c0,0-6.847-1.253-13.516,2.172c-0.361-1.777-0.936-3.306-1.463-4.714
			c-1.113-2.998-1.912-5.163-0.438-8.62c0.329-0.736,0.2-1.582-0.304-2.205c-0.496-0.625-1.3-0.928-2.083-0.772
			c-0.174,0.034-4.363,0.85-8.166,3.739c-2.979,2.252-6.183,6.117-6.312,12.332C8.316,74.019,1.732,75.2,1.732,75.2
			c-0.751,0.158-1.355,0.69-1.608,1.41c-0.253,0.717-0.113,1.511,0.367,2.094C6.328,85.623,6.344,89.338,6.354,92.621z
			 M165.001,95.213c-0.147-0.842-0.143-1.69-0.143-2.608c-0.011-3.077-0.026-7.132-4.219-13.299c2.637,0.198,6.08,1.01,9.339,3.444
			c0.644,0.482,1.514,0.562,2.258,0.2c0.728-0.361,1.196-1.107,1.196-1.917c0.026-2.7,0.781-4.725,1.572-6.863
			c0.87-2.344,1.767-4.735,1.466-7.699c3.729,1.706,8.78,5.664,7.124,14.336c-0.169,0.886,0.222,1.777,0.986,2.246
			c0.77,0.464,1.735,0.428,2.452-0.129c3.333-2.565,6.866-3.415,9.593-3.612c-4.214,6.167-4.229,10.223-4.24,13.3
			c0,0.912,0.005,1.767-0.143,2.603c-1.635,8.898-7.166,8.371-11.754,8.213c-0.649-0.021-1.266-0.037-1.862-0.037
			c-0.596,0-1.229,0.016-1.877,0.037C172.162,103.584,166.625,104.111,165.001,95.213z M148.611,91.331
			c0.59-0.606,1.387-0.936,2.23-0.936c0.812,0,1.587,0.319,2.162,0.886c1.233,1.21,1.239,3.188,0.053,4.4
			c-0.591,0.606-1.387,0.937-2.23,0.937c-0.812,0-1.588-0.319-2.168-0.892C147.43,94.527,147.408,92.55,148.611,91.331z
			 M128.008,101.222c-0.011,0.016-0.048,0.026-0.059,0.042c-3.475-5.021-8.442-4.722-8.685-4.717
			c-1.177,0.092-2.041,1.112-1.968,2.291c0.074,1.176,1.023,1.982,2.278,2.025c0.338-0.026,3.829-0.021,5.854,4.72
			c0.111,0.622,0.116,1.429-0.216,2.13c-0.385,0.797-1.239,1.397-2.563,1.767c-2.895,0.823-4.477-0.627-7.931-6.761
			c-1.281-2.272-2.896-4.131-5.236-5.95c2.821-1.01,6.897-2.165,10.668-2.165c5.985,0,7.588,2.911,8.264,5.073
			C128.467,99.888,128.414,100.694,128.008,101.222z M54.414,95.732c-1.202,1.16-3.256,1.144-4.4-0.05
			c-0.583-0.588-0.902-1.371-0.892-2.196c0.005-0.833,0.335-1.616,0.947-2.209c0.578-0.572,1.345-0.886,2.16-0.886
			c0.841,0,1.637,0.33,2.225,0.937c0.572,0.588,0.902,1.371,0.896,2.201C55.34,94.366,55.01,95.149,54.414,95.732z M82.917,94.593
			c3.742,0,7.818,1.16,10.666,2.165c-2.354,1.824-3.955,3.688-5.239,5.956c-3.462,6.133-5.018,7.573-7.932,6.755
			c-1.303-0.363-2.151-0.959-2.555-1.75c-0.335-0.676-0.335-1.472-0.227-2.125c1.999-4.73,5.395-4.741,5.854-4.741
			c1.205,0.084,2.202-0.812,2.289-1.988c0.098-1.189-0.788-2.23-1.98-2.323c-0.227-0.005-5.218-0.309-8.675,4.717
			c-0.016-0.011-0.047-0.021-0.058-0.037c-0.396-0.527-0.459-1.34-0.406-1.534C75.323,97.496,76.924,94.593,82.917,94.593z
			 M16.026,82.923c0.72,0.557,1.685,0.593,2.452,0.129c0.762-0.469,1.155-1.36,0.988-2.246c-1.647-8.678,3.401-12.635,7.133-14.341
			c-0.295,2.963,0.593,5.355,1.469,7.694c0.788,2.139,1.54,4.164,1.55,6.869c0.006,0.809,0.48,1.556,1.21,1.917
			c0.728,0.361,1.598,0.288,2.252-0.201c3.261-2.434,6.705-3.245,9.347-3.443c-4.19,6.173-4.208,10.223-4.219,13.3
			c0,0.917,0.005,1.771-0.145,2.607c-1.397,7.628-5.561,8.267-9.714,8.267h-0.005c-0.696,0-1.379-0.026-2.035-0.048
			c-0.649-0.021-1.276-0.037-1.88-0.037c-0.583,0-1.216,0.016-1.864,0.037c-4.588,0.158-10.125,0.686-11.76-8.213
			c-0.153-0.842-0.148-1.69-0.148-2.608c-0.01-3.077-0.026-7.132-4.227-13.299C9.173,79.503,12.696,80.357,16.026,82.923z"/>
	</g>
</g>
<g>
</g>
<g>
</g>
<g>
</g>
<g>
</g>
<g>
</g>
<g>
</g>
<g>
</g>
<g>
</g>
<g>
</g>
<g>
</g>
<g>
</g>
<g>
</g>
<g>
</g>
<g>
</g>
<g>
</g>
</svg>
