<?xml version="1.0" encoding="iso-8859-1"?>
<!-- Generator: Adobe Illustrator 16.0.0, SVG Export Plug-In . SVG Version: 6.00 Build 0)  -->
<!DOCTYPE svg PUBLIC "-//W3C//DTD SVG 1.1//EN" "http://www.w3.org/Graphics/SVG/1.1/DTD/svg11.dtd">
<svg version="1.1" id="Capa_1" xmlns="http://www.w3.org/2000/svg" xmlns:xlink="http://www.w3.org/1999/xlink" x="0px" y="0px"
	 width="159.549px" height="159.55px" viewBox="0 0 159.549 159.55" style="enable-background:new 0 0 159.549 159.55;"
	 xml:space="preserve">
<g>
	<g>
		<circle cx="79.8" cy="39.849" r="7.134"/>
		<path d="M155.524,105.035c-5.996-17.086-24.785-26.135-41.882-20.14c-0.965,0.333-1.803,0.828-2.689,1.261
			c0.606-1.624,0.929-3.364,0.834-5.157c-0.169-4.145-1.951-7.963-5.016-10.755c-1.028-0.949-2.22-1.686-3.459-2.31
			c1.761-1.648,2.789-3.868,2.879-6.254c0.085-2.035-0.633-3.979-2.015-5.498c-1.397-1.505-3.274-2.381-5.336-2.462
			c-1.182-0.243-2.184,0.88-2.236,2.075c0,0.053,0.026,0.103,0.026,0.14c-0.11,0.248-0.185,0.514-0.195,0.793
			c-0.042,1.287,0.976,2.371,2.247,2.436c0.611,0.021,1.191-0.2,1.618-0.572c0.264,0.15,0.518,0.296,0.718,0.517
			c0.591,0.654,0.917,1.493,0.864,2.389c-0.053,1.247-0.569,2.412-1.497,3.262c-0.918,0.846-2.142,1.231-3.375,1.241
			c-0.232,0.016-0.358,0.15-0.564,0.217c-0.274,0-0.543-0.056-0.812-0.045c-5.041,0.211-9.682,2.375-13.083,6.096
			c-0.232,0.267-0.364,0.562-0.585,0.833v-9.914c0.2-0.179,0.432-0.309,0.585-0.546l3.27-4.838c0.18-0.071,0.348-0.158,0.532-0.222
			c0.105-0.039,0.195-0.05,0.296-0.087c0.137-0.053,0.264-0.134,0.406-0.2c0.965-0.377,1.893-0.831,2.778-1.371
			c0.18-0.113,0.375-0.216,0.56-0.335c3.491-2.246,6.291-5.54,7.805-9.574c0.231-0.622,0.416-1.355,0.574-2.148
			c0.38-1.571,0.538-3.209,0.527-4.839c0.602-12.83-2.984-34.316-3.49-37.222c-0.127-0.767-0.644-1.387-1.371-1.669
			c-0.723-0.264-1.52-0.124-2.126,0.335c-1.233,1.005-6.581,5.4-12.521,10.821C73.833,5.871,68.476,1.476,67.268,0.471
			c-0.588-0.475-1.4-0.599-2.128-0.335c-0.725,0.272-1.237,0.902-1.371,1.669c-0.504,2.9-4.1,24.403-3.488,37.228
			c-0.019,1.647,0.129,3.262,0.527,4.838c0.158,0.799,0.34,1.535,0.572,2.149c1.513,4.034,4.321,7.338,7.799,9.574
			c0.177,0.113,0.377,0.232,0.567,0.334c0.886,0.546,1.803,1,2.763,1.371c0.147,0.071,0.277,0.143,0.411,0.201
			c0.103,0.037,0.19,0.047,0.298,0.092c0.166,0.066,0.334,0.145,0.532,0.206l3.262,4.838c0.158,0.237,0.39,0.367,0.591,0.557v9.919
			c-0.222-0.261-0.346-0.562-0.591-0.82c-3.407-3.718-8.039-5.888-13.078-6.109c-0.155,0-0.335,0.034-0.496,0.034
			c-0.282-0.122-0.567-0.201-0.875-0.201c-1.236-0.021-2.468-0.39-3.396-1.242c-0.917-0.844-1.458-2.004-1.508-3.267
			c-0.032-0.886,0.287-1.735,0.875-2.383c0.2-0.219,0.464-0.356,0.707-0.517c0.433,0.367,1.005,0.599,1.622,0.567
			c1.29-0.061,2.31-1.145,2.247-2.426c-0.011-0.306-0.103-0.562-0.195-0.82c0-0.042,0.021-0.087,0.021-0.113
			c-0.048-1.199-1.171-2.181-2.241-2.077c-2.046,0.084-3.937,0.959-5.308,2.454c-1.381,1.503-2.112,3.462-2.014,5.498
			c0.092,2.399,1.107,4.617,2.869,6.254c-1.237,0.625-2.405,1.361-3.457,2.323c-3.051,2.8-4.839,6.618-5.039,10.753
			c-0.074,1.813,0.243,3.549,0.854,5.146c-0.896-0.433-1.74-0.928-2.689-1.261c-17.097-5.967-35.883,3.064-41.882,20.15
			c-3.575,10.225-2.966,21.226,1.727,30.971s12.912,17.097,23.116,20.677c12.654,4.425,26.251,3.671,38.303-2.136
			c4.678-2.246,8.894-5.146,12.583-8.601c3.688,3.454,7.902,6.354,12.579,8.601c6.872,3.302,14.255,4.979,21.674,4.979
			c5.585,0,11.196-0.954,16.622-2.843c10.23-3.58,18.431-10.921,23.124-20.677C158.477,126.239,159.11,115.255,155.524,105.035z
			 M70.843,51.446c-0.693-0.49-1.324-1.052-1.925-1.655c-0.335-0.343-0.651-0.72-0.96-1.097c-0.232-0.298-0.479-0.578-0.701-0.891
			c-0.478-0.696-0.902-1.432-1.26-2.184c-0.021-0.058-0.053-0.11-0.084-0.171c-0.38-0.831-0.675-1.69-0.896-2.587
			c-0.061-0.329-0.113-0.644-0.158-1.004c-0.032-0.134-0.042-0.292-0.063-0.432c-0.092-0.728-0.147-1.538-0.189-2.381
			c0.021-1.738,0.276-3.488,0.917-5.231c1.395-3.718,7.646-10.294,14.289-16.538c6.637,6.244,12.901,12.833,14.288,16.538
			c0.644,1.706,0.896,3.475,0.907,5.21c-0.042,0.875-0.111,1.706-0.19,2.468c-0.01,0.093-0.021,0.177-0.042,0.274
			c-0.053,0.396-0.116,0.772-0.179,1.112c-0.222,0.881-0.518,1.735-0.881,2.582c-0.037,0.065-0.068,0.118-0.101,0.185
			c-0.354,0.767-0.791,1.479-1.25,2.175c-0.221,0.319-0.458,0.588-0.701,0.886c-0.306,0.367-0.617,0.752-0.96,1.103
			c-0.611,0.593-1.249,1.171-1.945,1.666c-0.026,0.014-0.037,0.04-0.059,0.051c-2.277,1.603-4.988,2.57-7.765,2.813
			c-0.172,0.01-0.351,0.021-0.535,0.026h-1.084c-0.242-0.005-0.485-0.016-0.72-0.032c-0.783-0.076-1.532-0.158-2.289-0.335
			c-0.032-0.016-0.077-0.026-0.114-0.031c-1.896-0.482-3.699-1.297-5.286-2.415C70.896,51.491,70.88,51.468,70.843,51.446z
			 M92.164,6.271c0.839,5.416,1.878,13.139,2.447,20.363c-2.979-3.828-7.272-8.218-11.612-12.324
			C86.321,11.271,89.569,8.458,92.164,6.271z M67.434,6.267c2.597,2.191,5.848,5.01,9.17,8.034
			c-4.348,4.105-8.641,8.49-11.623,12.318C65.562,19.392,66.598,11.688,67.434,6.267z M72.009,127.416h15.588
			c-1.931,4.562-4.577,8.706-7.781,12.345C76.583,136.133,73.947,131.978,72.009,127.416z M149.903,134.129
			c-4.188,8.706-11.528,15.271-20.656,18.468c-11.544,4.05-23.979,3.354-34.984-1.931c-4.25-2.04-8.089-4.667-11.433-7.788
			c4.361-4.842,7.752-10.568,9.973-16.912c0.227-0.659,0.121-1.393-0.29-1.957c-0.401-0.559-1.05-0.917-1.762-0.917H68.855
			c-0.701,0-1.35,0.343-1.761,0.917c-0.393,0.57-0.506,1.298-0.274,1.957c2.212,6.344,5.605,12.055,9.967,16.912
			c-3.352,3.121-7.193,5.748-11.425,7.788c-11.021,5.306-23.464,5.98-34.998,1.931c-9.121-3.196-16.466-9.762-20.651-18.468
			s-4.735-18.552-1.54-27.665c5.218-14.85,21.558-22.676,36.36-17.502c11.657,4.092,17.83,16.906,13.748,28.561
			c-3.209,9.097-13.191,13.906-22.301,10.695c-7.053-2.463-10.773-10.221-8.306-17.271c1.901-5.41,7.833-8.263,13.268-6.391
			c4.113,1.455,6.268,5.959,4.838,10.077c-0.39,1.129,0.192,2.362,1.324,2.753c1.128,0.38,2.365-0.2,2.758-1.329
			c2.21-6.354-1.145-13.342-7.507-15.577c-7.657-2.669-16.086,1.376-18.781,9.038c-3.256,9.308,1.674,19.522,10.969,22.786
			c11.33,3.945,23.807-2.014,27.789-13.367c3.035-8.665,1.313-17.888-3.787-24.78c0.515,0.084,1.005,0.2,1.514,0.222
			c0.037,0,0.068,0.005,0.103,0.005c0.965,0,1.749-0.648,2.025-1.529c0.97-0.596,1.661-1.608,1.706-2.821
			c0.087-1.978-1.464-3.681-3.457-3.749c-1.793-0.09-3.272,1.196-3.612,2.89c-2.916-1.466-4.87-4.53-4.725-7.989
			c0.124-2.99,1.421-5.732,3.623-7.763c2.209-2.015,5.076-3.035,8.058-2.921c3.881,0.167,7.462,1.851,10.085,4.714
			c2.215,2.413,3.507,5.447,3.766,8.659c-0.05,0.659-0.056,1.318-0.011,1.982c0,0.021,0.011,0.042,0.011,0.063v7.473
			c-2.737,0.907-4.736,3.406-4.736,6.438c0,0.786,0.201,1.514,0.454,2.215h-3.214c-0.794,0-1.527,0.443-1.912,1.149
			c-0.377,0.707-0.335,1.562,0.113,2.226l7.512,11.069c0.984,1.445,2.397,2.268,3.937,2.268c1.511,0,2.955-0.812,3.937-2.263
			l7.504-11.074c0.448-0.664,0.496-1.519,0.121-2.226c-0.38-0.706-1.107-1.149-1.914-1.149H86.22
			c0.243-0.701,0.443-1.444,0.443-2.215c0-3.037-1.993-5.531-4.725-6.438v-7.473c0-0.021,0.021-0.042,0.021-0.063
			c0.034-0.664,0.024-1.323-0.011-1.982c0.243-3.217,1.551-6.236,3.766-8.659c2.61-2.858,6.191-4.538,10.072-4.704
			c3.096-0.076,5.849,0.913,8.047,2.911c2.199,2.015,3.491,4.783,3.623,7.763c0.111,2.272-0.69,4.445-2.23,6.133
			c-0.717,0.791-1.566,1.397-2.483,1.861c-0.333-1.692-1.836-2.979-3.623-2.884c-1.983,0.084-3.518,1.766-3.443,3.744
			c0.058,1.233,0.743,2.215,1.688,2.826c0.295,0.907,1.117,1.551,2.13,1.523c0.527-0.021,1.013-0.131,1.519-0.216
			c-5.094,6.882-6.829,16.089-3.775,24.78c3.966,11.343,16.464,17.307,27.786,13.357c9.317-3.259,14.232-13.479,10.969-22.781
			c-2.689-7.662-11.127-11.718-18.784-9.033c-6.354,2.23-9.714,9.218-7.499,15.572c0.396,1.129,1.624,1.709,2.753,1.329
			c1.139-0.391,1.719-1.624,1.329-2.753c-1.435-4.113,0.748-8.644,4.841-10.072c5.426-1.888,11.375,0.971,13.268,6.381
			c2.479,7.071-1.25,14.808-8.3,17.275c-9.118,3.207-19.096-1.619-22.297-10.689c-4.081-11.659,2.083-24.474,13.732-28.561
			c14.829-5.189,31.161,2.643,36.365,17.481C154.649,115.593,154.106,125.423,149.903,134.129z"/>
	</g>
</g>
<g>
</g>
<g>
</g>
<g>
</g>
<g>
</g>
<g>
</g>
<g>
</g>
<g>
</g>
<g>
</g>
<g>
</g>
<g>
</g>
<g>
</g>
<g>
</g>
<g>
</g>
<g>
</g>
<g>
</g>
</svg>
