<?xml version="1.0" encoding="iso-8859-1"?>
<!-- Generator: Adobe Illustrator 16.0.0, SVG Export Plug-In . SVG Version: 6.00 Build 0)  -->
<!DOCTYPE svg PUBLIC "-//W3C//DTD SVG 1.1//EN" "http://www.w3.org/Graphics/SVG/1.1/DTD/svg11.dtd">
<svg version="1.1" id="Capa_1" xmlns="http://www.w3.org/2000/svg" xmlns:xlink="http://www.w3.org/1999/xlink" x="0px" y="0px"
	 width="181.607px" height="181.606px" viewBox="0 0 181.607 181.606" style="enable-background:new 0 0 181.607 181.606;"
	 xml:space="preserve">
<g>
	<g>
		<path d="M180.531,82.408c-1.218-2.7-4.346-4.227-3.518-13.121c0,0-5.231,2.223-7.177,8.245c-4.34-9.882-14.28-5.508-14.28-5.508
			c4.619,2.942,2.89,6.761,5.858,11.135c-6.191-0.242-10.041,3.747-10.041,3.747c8.606,2.409,8.907,5.906,10.995,7.983
			c5.231,5.253,9.107,2.368,12.034,0.201c1.698,3.949,1.957,8.231,0.564,11.938c-1.371,3.607-4.177,6.392-7.899,7.826
			c-6.202,2.378-11.602,0.849-16.675-1.841c-5.258-4.061-6.84-8.996-4.482-14.006c0.121,0.031,0.242,0.11,0.374,0.143
			c0.307,0.058,0.591,0.078,0.896,0.078c2.548,0,4.715-1.829,5.158-4.34c0.242-1.381-0.074-2.773-0.876-3.923
			c-0.796-1.14-2.004-1.909-3.386-2.142c-2.89-0.484-5.553,1.45-6.054,4.251c-0.242,1.371,0.068,2.758,0.865,3.907
			c0.169,0.264,0.442,0.433,0.664,0.654c-1.84,3.749-1.888,7.535-0.269,11.006c-0.006,0-0.006,0-0.006,0
			c-1.708-1.14-3.417-2.268-5.115-3.26c-7.614-4.52-14.201-8.411-21.415-4.318c-0.227,0.121-0.321,0.354-0.427,0.564
			c-0.633-1.019-1.351-1.983-2.268-2.816c-1.107-1.023-2.373-1.782-3.724-2.362c1.74-1.276,2.985-3.243,3.069-5.548
			c0.09-2.173-1.055-4.05-2.737-5.224c-0.142-0.475-0.363-0.928-0.722-1.294c-0.617-0.665-1.467-1.052-2.511-1.086
			c-1.84,0-3.312,1.427-3.401,3.262c-0.053,1.869,1.419,3.451,3.28,3.53c0.011,0,0.084,0,0.095,0c1.087,0,2.015-0.548,2.647-1.318
			c0.391,0.58,0.664,1.256,0.633,2.015c-0.11,2.589-2.357,4.62-4.836,4.482c-0.189-0.011-0.337,0.116-0.506,0.169
			c-0.222,0-0.443-0.042-0.665-0.031c-4.261,0.179-8.194,2.014-11.074,5.157c-0.537,0.591-1.012,1.233-1.45,1.866V86.276
			c11.19-0.73,20.118-9.959,20.118-21.315c0-11.821-9.629-21.477-21.468-21.477c-11.842,0-21.46,9.629-21.46,21.477
			c0,11.361,8.898,20.584,20.11,21.315v16.155c-0.438-0.633-0.913-1.266-1.453-1.866c-2.879-3.144-6.821-4.979-11.063-5.157
			c-0.232-0.011-0.443,0.031-0.675,0.031c-0.168-0.063-0.309-0.18-0.499-0.169c-2.603,0.116-4.741-1.909-4.838-4.482
			c-0.032-0.77,0.242-1.444,0.633-2.015c0.619,0.791,1.55,1.318,2.634,1.318c0.021,0,0.108,0,0.113,0
			c0.918-0.053,1.762-0.442,2.365-1.117c0.606-0.676,0.917-1.54,0.87-2.413c-0.056-1.835-1.535-3.262-3.499-3.262c0,0,0,0-0.011,0
			c-0.907,0.034-1.74,0.422-2.365,1.086c-0.34,0.356-0.562,0.81-0.725,1.284c-1.685,1.173-2.819,3.035-2.742,5.234
			c0.108,2.331,1.329,4.256,3.066,5.537c-1.35,0.564-2.613,1.35-3.731,2.362c-0.907,0.823-1.625,1.782-2.247,2.806
			c-0.113-0.211-0.211-0.443-0.433-0.559c-7.192-4.088-13.784-0.201-21.42,4.303c-1.69,1.002-3.396,2.131-5.105,3.259l-0.01,0.011
			c1.622-3.486,1.561-7.256-0.274-11.021c0.221-0.2,0.495-0.354,0.664-0.617c0.804-1.154,1.118-2.547,0.862-3.929
			c-0.496-2.811-3.206-4.746-6.041-4.25c-1.384,0.242-2.586,1.018-3.396,2.141c-0.794,1.16-1.107,2.553-0.865,3.935
			c0.454,2.499,2.608,4.34,5.147,4.34c0.306,0,0.599-0.048,0.907-0.101c0.135-0.021,0.243-0.11,0.372-0.137
			c2.35,5.025,0.768,9.961-4.493,14.021c-5.065,2.7-10.465,4.219-16.664,1.83c-3.715-1.455-6.528-4.219-7.899-7.815
			c-1.411-3.707-1.149-7.989,0.562-11.938c2.932,2.146,6.803,5.041,12.037-0.211c2.088-2.104,2.392-5.569,10.987-7.989
			c0,0-3.86-3.995-10.038-3.752c2.977-4.38,1.237-8.198,5.854-11.13c0,0-9.93-4.385-14.272,5.498
			c-1.943-6.022-7.174-8.248-7.174-8.248c0.814,8.888-2.318,10.434-3.528,13.133c-2.942,6.56,0.828,9.186,3.863,11.137
			c-2.173,4.726-2.529,9.946-0.802,14.46c1.653,4.324,5.012,7.657,9.45,9.376c2.523,0.971,4.915,1.382,7.203,1.382
			c2.616,0,5.094-0.554,7.47-1.413c0.135-0.026,0.304,0.031,0.433-0.037c3.33-1.646,6.262-2.853,8.899-2.811
			c-0.994,0.822-1.674,2.035-1.912,3.66c-0.72,4.608,2.942,6.507,7.425,8.353c1.738,0.728,3.375,1.804,5.68,4.683
			c0.271,0.327,0.648,0.507,1.055,0.507c0.084,0,0.15,0,0.237-0.021c0.485-0.095,0.886-0.433,1.031-0.896
			c0.145-0.433,3.509-10.694,0.097-16.474c-1.205-2.015-3.035-3.26-5.466-3.702c-0.087-0.021-0.454-0.069-0.551-0.069
			c-0.907,0-2.315,0.375-3.267,1.461c-0.171,0.19-0.264,0.433-0.382,0.644c-1.015-0.475-2.051-0.743-3.09-0.833
			c0.472-0.306,0.946-0.602,1.4-0.918c1.674-1.107,3.325-2.204,4.988-3.195c8.213-4.841,13.149-7.446,18.7-4.271
			c0.256,0.121,0.535,0.11,0.801,0.105c-0.562,1.371-0.936,2.826-1.01,4.366c-0.2,4.683,2.687,8.765,6.845,10.389
			c0.789,1.044,1.946,1.782,3.354,1.846c0.021,0,0.168,0.011,0.189,0.011c2.418,0,4.385-1.898,4.499-4.324
			c0.113-2.468-1.825-4.566-4.503-4.693c-2.16,0-3.953,1.64-4.348,3.723c-2.133-1.529-3.473-4.05-3.335-6.834
			c0.113-2.773,1.289-5.305,3.335-7.161c2.025-1.878,4.59-2.869,7.436-2.689c3.523,0.147,6.8,1.677,9.176,4.282
			c2.046,2.235,3.251,5.03,3.452,7.994c-0.034,0.559-0.034,1.097-0.014,1.666c0,0.011,0.019,0.021,0.019,0.032v5.041
			c-3.04,0.644-5.4,3.243-5.4,6.476c0,0.738,0.193,1.414,0.414,2.078h-1.237c-0.506,0-0.965,0.279-1.197,0.717
			c-0.237,0.443-0.206,0.997,0.079,1.397l5.887,8.675c0.696,1.034,1.712,1.625,2.813,1.625c1.076,0,2.115-0.575,2.812-1.625
			l5.874-8.675c0.285-0.4,0.322-0.954,0.085-1.397c-0.232-0.438-0.696-0.717-1.203-0.717h-1.213c0.222-0.664,0.422-1.34,0.422-2.078
			c0-3.248-2.362-5.832-5.399-6.476v-5.052c0-0.011,0.011-0.011,0.011-0.021c0.026-0.559,0.021-1.107-0.011-1.666
			c0.205-2.975,1.397-5.759,3.448-7.994c2.384-2.605,5.659-4.135,9.192-4.282c2.705-0.222,5.389,0.822,7.419,2.679
			c2.036,1.867,3.233,4.398,3.344,7.172c0.11,2.784-1.234,5.295-3.338,6.834c-0.369-2.119-2.151-3.723-4.546-3.723h-0.005
			c-2.479,0.127-4.409,2.226-4.309,4.693c0.11,2.426,2.088,4.313,4.514,4.324c0.021,0,0.164-0.011,0.195-0.011
			c1.402-0.063,2.568-0.796,3.333-1.846c4.166-1.624,7.061-5.706,6.855-10.389c-0.074-1.529-0.438-2.984-1.013-4.355
			c0.274,0.021,0.564,0.042,0.807-0.105c5.548-3.175,10.483-0.569,18.705,4.282c1.656,0.991,3.317,2.099,4.999,3.217
			c0.454,0.295,0.918,0.59,1.382,0.906c-1.028,0.105-2.078,0.349-3.08,0.823c-0.126-0.211-0.205-0.454-0.385-0.644
			c-0.96-1.055-2.367-1.45-3.27-1.45c-0.09,0-0.453,0.037-0.543,0.048c-2.431,0.442-4.271,1.682-5.469,3.701
			c-3.433,5.77-0.058,16.042,0.09,16.475c0.158,0.475,0.564,0.812,1.05,0.907c0.079,0.011,0.142,0.021,0.231,0.021
			c0.401,0,0.786-0.189,1.05-0.517c2.31-2.89,3.934-3.955,5.669-4.672c4.482-1.856,8.142-3.766,7.43-8.364
			c-0.247-1.582-0.88-2.815-1.835-3.639c2.616-0.031,5.517,1.171,8.822,2.795c0.122,0.063,0.27,0,0.396,0.021
			c2.373,0.875,4.862,1.435,7.51,1.435c2.289,0,4.683-0.417,7.198-1.382c4.44-1.725,7.8-5.052,9.45-9.382
			c1.714-4.519,1.376-9.729-0.802-14.465C179.718,91.604,183.495,88.983,180.531,82.408z M74.294,87.254
			c0.201-0.011,0.34-0.147,0.525-0.242c-0.04,0.063-0.05,0.169-0.082,0.2c-0.113,0.132-0.303,0.222-0.464,0.232l-0.026,1.35v-1.35
			c-0.114,0-0.185-0.08-0.277-0.111C74.083,87.317,74.176,87.265,74.294,87.254z M36.577,95.465
			c-0.391,0.564-0.979,0.934-1.653,1.028c-1.448,0.248-2.679-0.696-2.932-2.057c-0.113-0.664,0.032-1.34,0.422-1.909
			c0.382-0.548,0.983-0.928,1.659-1.033c0.145-0.021,0.295-0.032,0.43-0.032c1.231,0,2.27,0.865,2.492,2.1
			C37.117,94.247,36.958,94.922,36.577,95.465z M41.117,115.994c0.454,0,0.762,0.063,0.849,0.085
			c1.268,1.022,2.484,2.594,3.623,4.883c0.237,0.475,0.712,0.749,1.21,0.749c0.197,0,0.403-0.042,0.598-0.138
			c0.67-0.337,0.939-1.139,0.604-1.813c-1.263-2.553-2.661-4.324-4.135-5.579c0.053-0.105,0.021-0.254,0.114-0.333
			c0.334-0.363,0.944-0.554,1.316-0.554h0.01c1.653,0.296,2.827,1.076,3.62,2.405c1.927,3.259,1.063,8.754,0.33,11.876
			c-1.993-2.067-3.602-2.943-5.065-3.555c-5.337-2.184-6.109-3.449-5.791-5.442C38.678,116.812,39.54,115.994,41.117,115.994z
			 M73.841,113.832L73.841,113.832c1.01,0.053,1.771,0.896,1.727,1.878c-0.026,0.59-0.367,1.033-0.82,1.339
			c-0.222-0.369-0.562-0.675-1.016-0.696c-0.535-0.021-1.025-0.105-1.526-0.221c-0.071-0.201-0.222-0.349-0.211-0.57
			C72.022,114.597,72.815,113.832,73.841,113.832z M109.603,65.011c0,8.013-5.073,14.815-12.182,17.495
			c2.869-3.85,4.725-10.178,4.725-17.495c0-7.327-1.855-13.658-4.729-17.508C104.519,50.182,109.603,56.99,109.603,65.011z
			 M72.08,65.011c0-8.016,5.073-14.829,12.174-17.508c-2.863,3.85-4.725,10.181-4.725,17.508c0,7.317,1.861,13.645,4.725,17.495
			C77.168,79.826,72.08,73.023,72.08,65.011z M89.49,119.886v5.854h-2.04c-0.378-0.611-0.66-1.297-0.66-2.077
			C86.79,121.911,87.924,120.45,89.49,119.886z M95.866,128.439l-4.448,6.581c-0.355,0.56-0.765,0.56-1.129,0l-4.458-6.581h0.264
			c0.907,0.907,2.117,1.435,3.412,1.709v3.116c0,0.744,0.596,1.35,1.35,1.35c0.757,0,1.35-0.605,1.35-1.35v-3.116
			c1.303-0.28,2.511-0.802,3.418-1.709H95.866z M94.89,123.662c0,0.78-0.279,1.46-0.654,2.077H92.19v-5.854
			C93.756,120.439,94.89,121.911,94.89,123.662z M90.84,63.563c-0.744,0-1.351,0.608-1.351,1.35v18.544
			c-4.05-1.463-7.261-9.284-7.261-18.446c0-10.17,3.937-18.766,8.612-18.766c4.667,0,8.611,8.596,8.611,18.766
			c0,9.163-3.212,16.983-7.262,18.446V64.913C92.19,64.172,91.586,63.563,90.84,63.563z M109.493,116.121
			c-0.496,0.126-1.019,0.211-1.54,0.231c-0.47,0.021-0.802,0.327-1.023,0.696c-0.453-0.306-0.785-0.749-0.812-1.339
			c-0.048-0.981,0.732-1.825,1.803-1.878c0.949,0,1.746,0.771,1.793,1.729C109.708,115.772,109.555,115.926,109.493,116.121z
			 M137.495,124.036c-1.878,0.775-3.438,1.861-5.062,3.533c-0.744-3.122-1.614-8.633,0.326-11.865
			c0.791-1.329,1.968-2.136,3.671-2.41c0.337,0,0.949,0.164,1.286,0.549c0.09,0.095,0.053,0.242,0.111,0.358
			c-1.466,1.239-2.863,3.027-4.14,5.574c-0.332,0.664-0.063,1.461,0.601,1.809c0.195,0.095,0.401,0.132,0.602,0.132
			c0.496,0,0.976-0.279,1.208-0.754c1.144-2.32,2.356-3.881,3.633-4.904c0.116-0.021,0.396-0.084,0.828-0.084
			c1.587,0,2.452,0.812,2.721,2.589C143.595,120.624,142.857,121.827,137.495,124.036z M147.176,91.494
			c0.147,0,0.301,0.011,0.443,0.031c0.675,0.121,1.255,0.496,1.65,1.044c0.385,0.56,0.548,1.224,0.416,1.889
			c-0.242,1.36-1.603,2.268-2.921,2.077c-0.675-0.126-1.25-0.495-1.656-1.055c-0.39-0.559-0.538-1.224-0.411-1.888
			C144.909,92.391,145.974,91.494,147.176,91.494z"/>
	</g>
</g>
<g>
</g>
<g>
</g>
<g>
</g>
<g>
</g>
<g>
</g>
<g>
</g>
<g>
</g>
<g>
</g>
<g>
</g>
<g>
</g>
<g>
</g>
<g>
</g>
<g>
</g>
<g>
</g>
<g>
</g>
</svg>
