<?xml version="1.0" encoding="iso-8859-1"?>
<!-- Generator: Adobe Illustrator 16.0.0, SVG Export Plug-In . SVG Version: 6.00 Build 0)  -->
<!DOCTYPE svg PUBLIC "-//W3C//DTD SVG 1.1//EN" "http://www.w3.org/Graphics/SVG/1.1/DTD/svg11.dtd">
<svg version="1.1" id="Capa_1" xmlns="http://www.w3.org/2000/svg" xmlns:xlink="http://www.w3.org/1999/xlink" x="0px" y="0px"
	 width="201.177px" height="201.177px" viewBox="0 0 201.177 201.177" style="enable-background:new 0 0 201.177 201.177;"
	 xml:space="preserve">
<g>
	<g>
		<path d="M4.309,75.513c1.88,0.464,2.74,0.793,3.08,1.933c0.448,1.519-0.989,4.081-2.378,6.562
			c-1.774,3.18-3.789,6.781-3.422,10.55c1.216,12.474,15.33,19.155,16.282,19.577c1.964,4.883,5.065,9.176,8.986,12.572
			c0.108,0.105,0.216,0.195,0.324,0.301c0.161,0.131,0.327,0.273,0.491,0.405c7.591,6.708,18.652,11.443,33.091,12.098
			c1.5,0.079,2.958,0.11,4.375,0.11c18.829,0,29.536-5.811,35.445-11.137c5.908,5.326,16.616,11.137,35.448,11.137
			c1.413,0,2.868-0.031,4.377-0.11c14.438-0.654,25.502-5.39,33.091-12.098c0.168-0.126,0.332-0.274,0.495-0.405
			c0.111-0.105,0.211-0.195,0.322-0.301c3.918-3.396,7.023-7.689,8.985-12.572c0.949-0.422,15.066-7.104,16.284-19.577
			c0.364-3.769-1.65-7.37-3.422-10.55c-1.393-2.486-2.816-5.049-2.379-6.562c0.338-1.14,1.203-1.469,3.08-1.933
			c1.503-0.377,4.034-1.01,4.287-3.633c0.475-4.997-5.5-9.374-13.896-10.191c-8.448-0.836-15.119,2.452-15.594,7.328
			c-0.269,2.631,2.094,3.738,3.502,4.396c1.756,0.822,2.531,1.308,2.642,2.479c0.148,1.576-1.75,3.817-3.586,5.985
			c-2.356,2.779-5.025,5.927-5.389,9.697c-0.955,9.832,6.66,17.664,10.352,20.844c-1.577,3.791-4.014,7.393-7.299,10.578
			c-5.062,4.572-11.691,7.436-19.021,7.436c-12.329,0-22.364-10.035-22.364-22.375c0-9.067,6.977-16.461,15.842-17.292
			c0.379,1.079,0.938,2.104,1.809,2.964c1.461,1.438,3.391,2.226,5.437,2.226c2.109,0,4.076-0.828,5.537-2.328
			c3.006-3.046,2.969-7.977-0.09-11c-2.974-2.917-8.084-2.861-10.995,0.108c-1.038,1.065-1.576,2.371-1.893,3.726
			c-4.873,0.412-9.287,2.389-12.715,5.487c-1.556-3.51-4.978-7.08-12.508-7.08c-8.021,0-16.738,4.111-17.104,4.288
			c-0.715,0.34-1.184,1.044-1.227,1.832c-0.045,0.789,0.351,1.537,1.021,1.954c4.554,2.803,6.347,4.909,7.649,7.217
			c3.465,6.138,6.349,9.682,10.895,9.682c0.844,0,1.714-0.121,2.647-0.385c0.527-0.153,0.997-0.349,1.461-0.554
			c0.411,12.762,9.767,23.234,22.011,25.376c-2.558,0.448-5.221,0.774-8.062,0.907c-20.076,0.854-30.944-4.741-36.683-9.894
			c4.271-5.058,6.714-11.032,6.714-17.239c0-1.191-0.971-2.151-2.157-2.151c-1.191,0-2.157,0.966-2.157,2.151
			c0,4.932-1.967,9.878-5.342,14.064c-3.37-4.182-5.334-9.128-5.334-14.064c0-1.191-0.968-2.151-2.162-2.151
			c-1.191,0-2.159,0.966-2.159,2.151c0,6.207,2.441,12.192,6.713,17.239c-5.74,5.152-16.638,10.747-36.682,9.894
			c-2.839-0.133-5.508-0.459-8.063-0.907c12.253-2.142,21.605-12.614,22.017-25.376c0.459,0.2,0.928,0.396,1.453,0.554
			c0.933,0.264,1.803,0.385,2.649,0.385c4.543,0,7.431-3.544,10.897-9.688c1.298-2.302,3.091-4.408,7.642-7.211
			c0.675-0.417,1.065-1.166,1.021-1.954c-0.042-0.788-0.512-1.492-1.227-1.832c-0.366-0.177-9.075-4.288-17.102-4.288
			c-7.533,0-10.956,3.57-12.511,7.074c-3.433-3.098-7.841-5.07-12.717-5.482c-0.309-1.355-0.849-2.666-1.891-3.726
			c-2.911-2.969-8.018-3.024-10.995-0.103c-3.05,3.019-3.087,7.949-0.089,10.99c1.469,1.5,3.443,2.333,5.545,2.333
			c2.046,0,3.979-0.788,5.442-2.226c0.87-0.859,1.426-1.885,1.803-2.964c8.862,0.831,15.844,8.225,15.844,17.292
			c0,12.334-10.033,22.375-22.367,22.375c-7.338,0-13.97-2.863-19.024-7.436c-3.282-3.19-5.724-6.792-7.296-10.578
			c3.689-3.18,11.304-11.012,10.352-20.844c-0.361-3.771-3.035-6.918-5.387-9.697c-1.838-2.173-3.739-4.414-3.597-5.98
			c0.114-1.181,0.896-1.666,2.645-2.483c1.41-0.657,3.771-1.765,3.509-4.383c-0.464-4.888-7.138-8.192-15.594-7.34
			C5.524,62.506-0.453,66.883,0.027,71.885C0.28,74.503,2.809,75.142,4.309,75.513z M183.722,97.912
			c-0.881-0.087-1.682-0.512-2.241-1.197c-0.564-0.686-0.828-1.556-0.749-2.446c0.169-1.701,1.572-2.993,3.603-2.993
			c0.016,0,0.031,0,0.042,0c1.824,0.18,3.169,1.809,2.995,3.636c-0.163,1.716-1.587,3.016-3.301,3.016L183.722,97.912z
			 M173.117,92.001c0.237-2.426,2.352-4.915,4.382-7.325c2.41-2.851,4.91-5.798,4.599-9.184c-0.358-3.757-3.338-5.157-5.115-5.988
			c-0.285-0.137-0.67-0.313-0.938-0.464c0.723-1.822,5.221-3.591,10.778-3.053c5.906,0.575,9.614,3.23,9.988,5.068
			c-0.295,0.095-0.701,0.197-1.013,0.274c-1.909,0.475-5.094,1.268-6.175,4.904c-0.96,3.259,0.923,6.628,2.747,9.89
			c1.54,2.756,3.133,5.601,2.896,8.026c-0.654,6.66-6.339,11.449-10.215,14.001c0.38-2.009,0.602-4.076,0.602-6.196
			c3.174-0.696,5.669-3.238,5.995-6.618c0.401-4.195-2.679-7.941-6.876-8.348c-0.068-0.005-0.675-0.037-0.744-0.037
			c-3.955,0-7.229,2.969-7.609,6.911c-0.2,2.035,0.406,4.029,1.703,5.608c0.87,1.055,2.025,1.719,3.265,2.183
			c-0.016,0.101-0.058,0.19-0.058,0.29c0,1.667-0.217,3.275-0.496,4.862c-0.068,0.358-0.116,0.738-0.195,1.107
			C177.33,104.723,172.458,98.819,173.117,92.001z M151.105,85.768c0.659-0.67,1.535-1.036,2.468-1.036
			c0.907,0,1.767,0.351,2.405,0.983c1.365,1.345,1.387,3.53,0.047,4.891c-0.653,0.67-1.529,1.031-2.462,1.031
			c-0.907,0-1.767-0.351-2.405-0.986C149.803,89.322,149.776,87.123,151.105,85.768z M129.4,96.465
			c-0.059,0.076-0.169,0.055-0.237,0.113c-3.639-5.334-8.907-5.042-9.171-5.015c-1.191,0.089-2.083,1.134-1.988,2.32
			c0.101,1.189,1.103,2.036,2.32,1.988c0.032-0.01,4.071-0.221,6.345,5.118c0.115,0.723,0.132,1.619-0.243,2.389
			c-0.433,0.881-1.382,1.519-2.811,1.925c-3.143,0.892-4.883-0.675-8.606-7.248c-1.382-2.468-3.148-4.478-5.732-6.46
			c3.032-1.092,7.51-2.397,11.628-2.397c4.857,0,7.784,1.809,8.934,5.513C129.917,94.959,129.864,95.866,129.4,96.465z
			 M49.998,90.661c-1.315,1.284-3.583,1.269-4.881-0.056c-1.334-1.35-1.312-3.541,0.042-4.88c0.649-0.639,1.508-0.989,2.416-0.989
			c0.933,0,1.809,0.367,2.468,1.036C51.382,87.123,51.354,89.322,49.998,90.661z M80.244,89.203c4.11,0,8.593,1.305,11.628,2.402
			c-2.582,1.982-4.343,3.992-5.73,6.454c-3.715,6.573-5.45,8.135-8.604,7.248c-1.424-0.405-2.371-1.049-2.803-1.924
			c-0.377-0.775-0.356-1.672-0.243-2.39c2.175-5.133,5.925-5.112,6.368-5.117c1.237,0.129,2.202-0.805,2.294-1.988
			c0.092-1.187-0.793-2.229-1.988-2.32c-0.274-0.032-5.535-0.324-9.173,5.015c-0.066-0.053-0.185-0.037-0.237-0.113
			c-0.459-0.604-0.509-1.511-0.448-1.743C72.458,91.012,75.379,89.203,80.244,89.203z M17.442,97.912l-0.335,0.016
			c-1.716,0-3.138-1.294-3.304-3.011c-0.174-1.833,1.171-3.462,3.32-3.657c1.722,0,3.148,1.297,3.312,3.014
			c0.084,0.886-0.179,1.756-0.746,2.441C19.122,97.411,18.328,97.833,17.442,97.912z M14.336,65.981
			c5.563-0.538,10.051,1.226,10.779,3.054c-0.269,0.15-0.654,0.332-0.934,0.464c-1.782,0.83-4.756,2.23-5.12,5.993
			c-0.316,3.38,2.183,6.328,4.601,9.179c2.036,2.41,4.147,4.898,4.385,7.324c0.659,6.798-4.216,12.696-7.543,15.902
			c-0.087-0.369-0.124-0.744-0.195-1.103c-0.274-1.587-0.49-3.195-0.49-4.862c0-0.105-0.042-0.194-0.058-0.295
			c1.247-0.459,2.397-1.123,3.267-2.178c1.3-1.579,1.911-3.573,1.706-5.603c-0.379-3.942-3.652-6.917-7.609-6.917
			c-0.069,0-0.675,0.026-0.744,0.037c-4.198,0.411-7.28,4.158-6.876,8.354c0.33,3.375,2.819,5.916,5.996,6.612
			c0,2.126,0.222,4.198,0.609,6.207c-3.871-2.536-9.558-7.325-10.212-14.012c-0.232-2.426,1.355-5.271,2.9-8.026
			c1.819-3.261,3.71-6.636,2.745-9.898c-1.076-3.628-4.266-4.422-6.172-4.896c-0.309-0.077-0.715-0.18-1.01-0.277
			C4.731,69.211,8.44,66.567,14.336,65.981z"/>
	</g>
</g>
<g>
</g>
<g>
</g>
<g>
</g>
<g>
</g>
<g>
</g>
<g>
</g>
<g>
</g>
<g>
</g>
<g>
</g>
<g>
</g>
<g>
</g>
<g>
</g>
<g>
</g>
<g>
</g>
<g>
</g>
</svg>
