<?xml version="1.0" encoding="iso-8859-1"?>
<!-- Generator: Adobe Illustrator 16.0.0, SVG Export Plug-In . SVG Version: 6.00 Build 0)  -->
<!DOCTYPE svg PUBLIC "-//W3C//DTD SVG 1.1//EN" "http://www.w3.org/Graphics/SVG/1.1/DTD/svg11.dtd">
<svg version="1.1" id="Capa_1" xmlns="http://www.w3.org/2000/svg" xmlns:xlink="http://www.w3.org/1999/xlink" x="0px" y="0px"
	 width="164.592px" height="164.592px" viewBox="0 0 164.592 164.592" style="enable-background:new 0 0 164.592 164.592;"
	 xml:space="preserve">
<g>
	<g>
		<path d="M96.952,29.831c0-8.132-6.618-14.734-14.736-14.734c-2.244,0-4.355,0.543-6.262,1.45
			c-0.087,0.053-0.195,0.037-0.271,0.116c-0.01,0.011-0.005,0.032-0.021,0.053c-2.861,1.44-5.179,3.75-6.621,6.634
			c-0.026,0.021-0.063,0.01-0.089,0.037c-0.153,0.153-0.164,0.359-0.227,0.564c-0.061,0.116-0.113,0.259-0.163,0.391l-0.005,0.01
			c-0.686,1.693-1.086,3.543-1.086,5.505c0,2.125,0.482,4.135,1.276,5.964c0.068,0.158,0.068,0.343,0.206,0.485
			c0.021,0.021,0.058,0.011,0.079,0.032c1.442,2.89,3.754,5.236,6.636,6.665c0.006,0.011,0.006,0.021,0.011,0.021
			c0.034,0.031,0.087,0.021,0.113,0.053c1.951,0.96,4.121,1.529,6.415,1.529C90.334,44.581,96.952,37.962,96.952,29.831z
			 M94.253,29.831c0,1.055-0.175,2.072-0.443,3.048l-3.046-3.053l3.046-3.059C94.068,27.753,94.253,28.765,94.253,29.831z
			 M92.707,24.051l-3.876,3.876l-4.817-4.82l3.836-3.834C89.907,20.37,91.587,22.026,92.707,24.051z M86.931,29.826l-4.828,4.809
			l-4.81-4.809l4.81-4.815L86.931,29.826z M82.2,17.802c1.015,0,1.978,0.158,2.916,0.396l-3.014,3.011l-2.964-2.969
			C80.138,17.976,81.143,17.802,82.2,17.802z M76.439,19.336l3.771,3.771l-4.812,4.82l-3.747-3.755
			C72.75,22.121,74.409,20.455,76.439,19.336z M70.169,29.831c0-1.013,0.163-1.982,0.4-2.927l2.922,2.922l-2.922,2.921
			C70.332,31.803,70.169,30.848,70.169,29.831z M71.643,35.489l3.755-3.749l4.812,4.814l-3.787,3.786
			C74.398,39.207,72.739,37.53,71.643,35.489z M82.2,41.88c-1.062,0-2.078-0.179-3.062-0.443l2.993-2.985l3.024,3.027
			C84.188,41.707,83.221,41.88,82.2,41.88z M87.877,40.393l-3.85-3.854l4.814-4.82l3.882,3.882
			C91.592,37.635,89.918,39.292,87.877,40.393z"/>
		<path d="M101.219,58.603c0.037,0,0.058,0,0.084,0c10.072,0,16.11,6.275,21.421,13.368c0.011,0.01,0,0.026,0.011,0.042
			c0.031,0.042,0.068,0.073,0.105,0.11c0.965,1.287,1.914,2.589,2.826,3.892c1.44,2.025,2.864,4.029,4.356,5.912
			c6.612,8.321,12.292,15.509,22.063,13.995c3.908-0.585,7.325-2.71,9.656-5.964c2.389-3.338,3.338-7.562,2.61-11.602
			c-1.213-6.729-7.731-11.211-14.381-10.015c-0.738,0.122-1.229,0.828-1.092,1.566c0.121,0.733,0.823,1.239,1.566,1.092
			c2.573-0.47,5.126,0.116,7.246,1.582c2.136,1.471,3.543,3.702,4.002,6.238c0.596,3.328-0.185,6.824-2.141,9.561
			c-1.909,2.663-4.699,4.388-7.873,4.873c-7.778,1.202-12.293-3.892-19.538-13.004c-1.113-1.414-2.179-2.917-3.26-4.414
			c0.264,0.042,0.527,0.11,0.786,0.11c1.266,0,2.558-0.348,3.808-1.049c3.175-1.788,4.309-5.843,2.531-9.039
			c-1.514-2.679-4.941-3.634-7.6-2.125c-1.102,0.606-1.903,1.635-2.235,2.842c-0.338,1.219-0.19,2.495,0.433,3.597
			c0.537,0.955,1.402,1.64,2.446,1.914c1.039,0.306,2.136,0.153,3.074-0.369c0.649-0.363,0.876-1.202,0.518-1.84
			c-0.369-0.649-1.203-0.876-1.846-0.522c-0.322,0.169-0.676,0.232-1.023,0.121c-0.338-0.095-0.638-0.327-0.807-0.643
			c-0.279-0.469-0.332-1.012-0.185-1.54c0.143-0.527,0.49-0.965,0.96-1.229c1.387-0.775,3.147-0.29,3.929,1.091
			c1.055,1.894,0.385,4.304-1.482,5.358c-3.201,1.782-5.68-0.127-7.214-2.115c-5.563-7.44-12.309-14.512-23.62-14.512
			c-0.031,0-0.062,0-0.095,0c-5.689,0.021-10.848,2.299-14.512,6.413c-1.258,1.418-2.231,3.037-3.061,4.772V55.834
			c0.706,0.274,1.455,0.454,2.217,0.454c1.036,0,2.036-0.269,2.96-0.775c1.237-0.686,2.181-1.771,2.7-3.032
			c1.264,0.533,2.74,0.606,4.068,0.243c1.019-0.306,1.915-0.817,2.637-1.561c0.955-0.938,1.551-2.151,1.735-3.475
			c1.308-0.174,2.516-0.786,3.454-1.714c0.738-0.717,1.271-1.645,1.561-2.631c0.396-1.355,0.296-2.8-0.247-4.087
			c1.271-0.517,2.367-1.466,3.053-2.7c0.501-0.896,0.765-1.925,0.765-2.964c0-1.339-0.438-2.615-1.229-3.675
			c0.791-1.039,1.229-2.336,1.229-3.681c0-1.055-0.258-2.067-0.77-2.974c-0.686-1.239-1.777-2.168-3.048-2.7
			c0.537-1.266,0.638-2.721,0.247-4.071c-0.29-1.018-0.801-1.903-1.55-2.626c-0.949-0.96-2.146-1.551-3.465-1.729
			c-0.185-1.292-0.791-2.521-1.735-3.465c-0.728-0.733-1.635-1.271-2.626-1.561c-1.345-0.385-2.811-0.29-4.073,0.248
			c-0.53-1.271-1.464-2.362-2.695-3.032c-2.064-1.139-4.77-0.959-6.636,0.464c-1.88-1.403-4.606-1.603-6.637-0.464
			c-1.237,0.686-2.172,1.762-2.7,3.032c-1.261-0.543-2.787-0.622-4.061-0.237c-0.989,0.27-1.907,0.802-2.643,1.556
			c-0.954,0.944-1.55,2.146-1.732,3.465c-1.308,0.18-2.518,0.791-3.473,1.729c-0.746,0.738-1.263,1.651-1.545,2.616
			c-0.393,1.36-0.303,2.811,0.248,4.081c-1.273,0.533-2.37,1.461-3.056,2.711c-0.506,0.917-0.762,1.909-0.762,2.964
			c0,1.339,0.432,2.615,1.226,3.67c-0.788,1.05-1.226,2.347-1.226,3.697c0,1.028,0.256,2.036,0.762,2.963
			c0.686,1.239,1.777,2.184,3.051,2.7c-0.551,1.276-0.636,2.716-0.248,4.061c0.287,1.013,0.81,1.914,1.55,2.637
			c0.955,0.949,2.149,1.551,3.473,1.725c0.187,1.303,0.789,2.526,1.727,3.475c0.735,0.749,1.627,1.255,2.624,1.561
			c1.35,0.374,2.813,0.295,4.084-0.243c0.521,1.26,1.463,2.363,2.689,3.032c1.666,0.923,3.704,0.933,5.399,0.201v11.554
			c-0.833-1.788-1.843-3.485-3.148-4.957c-3.684-4.118-8.846-6.396-14.521-6.412c-0.029,0-0.061,0-0.092,0
			c-11.33,0-18.075,7.082-23.636,14.522c-1.529,1.957-4.008,3.871-7.192,2.089c-1.891-1.055-2.561-3.48-1.487-5.369
			c0.783-1.381,2.528-1.856,3.926-1.081c0.472,0.264,0.812,0.696,0.963,1.229c0.14,0.532,0.087,1.065-0.185,1.54
			c-0.177,0.333-0.475,0.564-0.815,0.643c-0.335,0.116-0.707,0.048-1.015-0.11c-0.644-0.364-1.469-0.137-1.846,0.506
			c-0.358,0.654-0.127,1.466,0.522,1.846c0.947,0.538,2.051,0.67,3.069,0.369c1.042-0.295,1.912-0.976,2.439-1.914
			c0.622-1.097,0.788-2.362,0.438-3.602c-0.335-1.224-1.134-2.23-2.236-2.832c-2.674-1.519-6.091-0.564-7.591,2.125
			c-1.782,3.19-0.648,7.241,2.531,9.034c1.242,0.712,2.544,1.044,3.802,1.044c0.269,0,0.53-0.074,0.789-0.116
			c-1.076,1.503-2.139,3.027-3.262,4.419c-7.251,9.118-11.784,14.212-19.538,12.999c-3.175-0.485-5.962-2.204-7.868-4.867
			c-1.959-2.748-2.753-6.228-2.144-9.561c0.459-2.558,1.885-4.768,4.002-6.244c2.128-1.461,4.683-2.046,7.246-1.582
			c0.709,0.132,1.442-0.354,1.566-1.086c0.129-0.738-0.351-1.435-1.089-1.566C7.966,67.129,1.456,71.612,0.24,78.352
			c-0.73,4.04,0.222,8.258,2.608,11.596c2.333,3.265,5.75,5.379,9.65,5.97c9.833,1.529,15.464-5.695,22.069-14.006
			c1.474-1.877,2.911-3.881,4.358-5.912c0.928-1.292,1.872-2.584,2.813-3.871c0.037-0.053,0.079-0.084,0.113-0.122
			c0.01-0.016,0-0.037,0.01-0.047c5.292-7.083,11.352-13.363,21.41-13.363c0.032,0,0.061,0,0.082,0
			c4.912,0.021,9.357,1.973,12.521,5.511c2.592,2.911,4.164,6.713,4.591,10.826c-1.015-1.281-2.307-2.367-4.061-2.979
			c-4.045-1.381-8.501,0.791-9.893,4.841c-1.16,3.396,0.659,7.093,4.034,8.243c0.578,0.2,1.192,0.311,1.793,0.311
			c0.81,0,1.629-0.179,2.371-0.564c1.315-0.643,2.305-1.745,2.787-3.137c0.398-1.176,0.332-2.426-0.216-3.543
			c-0.556-1.118-1.493-1.951-2.668-2.363c-0.427-0.153-0.82-0.037-1.155,0.195c-0.216,0.042-0.443-0.021-0.638,0.111
			c-0.859,0.564-1.118,1.692-0.562,2.552c0.541,0.844,1.643,1.087,2.489,0.58c0.031,0.053,0.097,0.063,0.113,0.105
			c0.227,0.464,0.258,1.002,0.098,1.482c-0.248,0.712-0.747,1.266-1.411,1.598c-0.651,0.327-1.408,0.358-2.114,0.121
			c-1.978-0.675-3.035-2.842-2.365-4.83c0.907-2.647,3.784-4.066,6.462-3.17c4.535,1.556,4.585,5.827,4.158,8.433
			c-0.978,2.843-2.695,5.374-5.091,7.309c-3.322,2.674-7.491,3.902-11.747,3.438c-3.325-0.358-6.317-2.004-8.424-4.614
			c-2.094-2.595-3.035-5.869-2.682-9.197c0.583-5.326,5.416-9.287,10.745-8.632c0.789,0.063,1.411-0.464,1.49-1.203
			c0.082-0.754-0.464-1.418-1.208-1.487c-6.863-0.738-12.973,4.208-13.721,11.026c-0.443,4.045,0.717,8.011,3.262,11.175
			c1.732,2.156,4,3.718,6.539,4.667c-0.562,0.016-1.06-0.026-1.643,0c-8.321,0.38-14.789,2.947-19.559,6.575
			c-0.14,0.105-0.28,0.222-0.414,0.327c-0.67,0.538-1.361,1.034-1.951,1.614c-3.839,3.475-6.333,8.295-6.792,13.742
			c-1.545-0.459-3.261-0.242-4.548,0.659c-1.563-1.103-3.773-1.233-5.54-0.29c-0.994,0.543-1.759,1.393-2.226,2.384
			c-1.015-0.38-2.186-0.433-3.261-0.116c-0.862,0.253-1.63,0.701-2.263,1.34c-0.778,0.775-1.268,1.734-1.463,2.8
			c-1.046,0.18-2.025,0.69-2.79,1.461c-0.627,0.622-1.092,1.408-1.334,2.257c-0.324,1.086-0.261,2.236,0.113,3.265
			c-1.005,0.469-1.859,1.233-2.399,2.23c-0.43,0.791-0.646,1.655-0.646,2.542c0.005,1.097,0.334,2.136,0.944,3.011
			c-0.609,0.87-0.944,1.914-0.944,3.006c0,0.876,0.227,1.751,0.651,2.542c0.546,0.996,1.4,1.762,2.395,2.226
			c-0.375,1.033-0.438,2.178-0.113,3.259c0.242,0.859,0.69,1.624,1.321,2.257c0.772,0.78,1.74,1.281,2.808,1.466
			c0.185,1.039,0.688,2.025,1.463,2.801c0.627,0.627,1.421,1.097,2.251,1.334c1.071,0.306,2.247,0.258,3.262-0.111
			c0.467,1.002,1.237,1.846,2.22,2.379c1.722,0.949,3.968,0.812,5.55-0.285c0.87,0.596,1.912,0.939,3.009,0.939
			c0.917,0,1.771-0.222,2.544-0.654c0.994-0.549,1.754-1.393,2.221-2.379c1.015,0.364,2.17,0.443,3.282,0.111
			c0.847-0.264,1.625-0.728,2.241-1.334c0.772-0.775,1.269-1.746,1.464-2.801c1.052-0.179,2.03-0.686,2.803-1.466
			c0.635-0.638,1.083-1.408,1.326-2.257c0.319-1.103,0.271-2.241-0.113-3.27c1.015-0.464,1.858-1.239,2.399-2.226
			c0.419-0.786,0.646-1.661,0.646-2.542c0-1.086-0.334-2.136-0.949-3.006c0.604-0.87,0.949-1.908,0.949-3
			c0-0.896-0.221-1.751-0.651-2.558c-0.551-0.991-1.4-1.746-2.399-2.215c0.379-1.039,0.438-2.179,0.119-3.265
			c-0.243-0.859-0.712-1.65-1.321-2.257c-0.777-0.775-1.74-1.281-2.808-1.461c-0.185-1.039-0.686-2.024-1.464-2.8
			c-0.638-0.639-1.4-1.087-2.268-1.34c-1.07-0.321-2.241-0.269-3.262,0.116c-0.174-0.38-0.432-0.723-0.704-1.044
			c0.01-4.831,2.167-9.746,6.302-13.648c0.503-0.438,1-0.886,1.529-1.249c0.108-0.095,0.211-0.147,0.319-0.232
			c2.887-1.93,6.365-3.063,10.085-3.063c7.908,0,14.328,6.418,14.328,14.317c0,5.821-4.488,10.567-10.186,11.095
			c-0.253-0.706-0.604-1.371-1.16-1.908c-1.89-1.846-5.125-1.83-6.977,0.068c-0.923,0.943-1.437,2.178-1.421,3.485
			c0.01,1.318,0.546,2.568,1.474,3.491c0.931,0.907,2.149,1.418,3.462,1.418c1.334,0,2.587-0.532,3.515-1.466
			c0.654-0.664,1.016-1.508,1.21-2.389c3.138-0.269,5.961-1.529,8.171-3.522c0.989,2.246,3.153,4.557,7.986,4.557
			c5.118,0,10.687-2.627,10.914-2.753c0.448-0.206,0.749-0.649,0.778-1.145c0.026-0.496-0.222-0.965-0.644-1.234
			c-2.905-1.793-4.055-3.143-4.88-4.614c-2.605-4.619-4.833-6.998-8.625-5.922c-0.367,0.111-0.623,0.306-0.952,0.453
			c-0.192-8.231-6.246-14.997-14.151-16.331c1.667-0.296,3.391-0.544,5.252-0.612c12.438-0.58,19.377,2.811,23.129,6.038
			c-2.906,3.28-4.569,7.23-4.569,11.322c0,0.749,0.601,1.351,1.35,1.351c0.747,0,1.351-0.602,1.351-1.351
			c0-2.7,0.88-5.326,2.431-7.699v8.427c0,0.744,0.599,1.351,1.35,1.351s1.35-0.606,1.35-1.351v-8.279
			c1.49,2.336,2.36,4.91,2.36,7.552c0,0.749,0.604,1.351,1.35,1.351c0.751,0,1.35-0.602,1.35-1.351
			c0-4.092-1.669-8.026-4.569-11.327c3.749-3.223,10.687-6.623,23.121-6.033c1.867,0.085,3.586,0.332,5.264,0.612
			c-7.91,1.334-13.965,8.1-14.154,16.331c-0.338-0.147-0.569-0.342-0.954-0.453c-3.792-1.076-6.002,1.276-8.62,5.922
			c-0.827,1.472-1.982,2.821-4.894,4.614c-0.417,0.27-0.664,0.738-0.638,1.234c0.029,0.495,0.324,0.938,0.772,1.145
			c0.232,0.116,5.795,2.753,10.91,2.753c4.825,0,7.004-2.311,7.984-4.557c2.199,1.998,5.036,3.264,8.169,3.522
			c0.194,0.881,0.563,1.714,1.213,2.378c0.938,0.96,2.178,1.477,3.512,1.477c1.297,0,2.536-0.511,3.465-1.418
			c0.949-0.928,1.461-2.162,1.471-3.491c0.017-1.308-0.495-2.558-1.413-3.485c-1.856-1.904-5.094-1.914-6.987-0.074
			c-0.554,0.549-0.901,1.202-1.149,1.909c-5.7-0.532-10.188-5.278-10.188-11.101c0-7.899,6.423-14.312,14.323-14.312
			c3.728,0,7.198,1.134,10.088,3.059c0.11,0.09,0.211,0.143,0.321,0.232c0.549,0.369,1.023,0.817,1.524,1.255
			c4.145,3.913,6.296,8.839,6.302,13.653c-0.27,0.332-0.527,0.664-0.701,1.044c-1.023-0.38-2.184-0.433-3.27-0.116
			c-0.86,0.253-1.63,0.707-2.258,1.34c-0.774,0.775-1.266,1.74-1.46,2.8c-1.055,0.174-2.03,0.686-2.801,1.461
			c-0.622,0.611-1.081,1.402-1.323,2.252c-0.327,1.081-0.264,2.23,0.11,3.264c-1.007,0.464-1.861,1.234-2.399,2.226
			c-0.422,0.791-0.644,1.656-0.644,2.542c0,1.086,0.333,2.136,0.944,3.011c-0.606,0.87-0.944,1.914-0.944,3.006
			c0,0.881,0.228,1.756,0.649,2.553c0.548,0.991,1.397,1.762,2.389,2.226c-0.38,1.018-0.438,2.156-0.111,3.259
			c0.254,0.865,0.702,1.624,1.329,2.252c0.771,0.785,1.729,1.275,2.801,1.466c0.185,1.039,0.695,2.024,1.46,2.8
			c0.612,0.617,1.397,1.07,2.258,1.34c1.081,0.327,2.246,0.253,3.264-0.116c0.464,1.007,1.234,1.846,2.21,2.378
			c1.698,0.96,3.949,0.834,5.548-0.284c0.87,0.611,1.914,0.944,3.016,0.944c0.892,0,1.767-0.228,2.542-0.654
			c0.997-0.543,1.762-1.397,2.226-2.384c1.023,0.374,2.22,0.422,3.265,0.11c0.844-0.236,1.635-0.706,2.268-1.334
			c0.774-0.775,1.266-1.745,1.46-2.789c1.055-0.19,2.036-0.696,2.812-1.467c0.633-0.638,1.081-1.402,1.328-2.251
			c0.316-1.087,0.259-2.236-0.115-3.27c1.012-0.464,1.855-1.239,2.399-2.226c0.422-0.791,0.648-1.666,0.648-2.542
			c0-1.086-0.338-2.136-0.949-3.006c0.601-0.87,0.943-1.909,0.949-3.011c0-0.887-0.217-1.74-0.659-2.563
			c-0.56-0.98-1.403-1.74-2.389-2.209c0.374-1.028,0.432-2.179,0.115-3.265c-0.247-0.859-0.712-1.65-1.328-2.262
			c-0.781-0.781-1.74-1.271-2.806-1.467c-0.18-1.039-0.691-2.024-1.461-2.8c-0.633-0.633-1.397-1.081-2.257-1.334
			c-1.081-0.316-2.247-0.264-3.265,0.116c-0.464-1.013-1.233-1.867-2.23-2.395c-1.751-0.949-3.96-0.807-5.526,0.295
			c-1.292-0.901-3.012-1.117-4.551-0.659c-0.459-5.447-2.953-10.272-6.798-13.742c-0.58-0.569-1.271-1.081-1.94-1.614
			c-0.143-0.1-0.279-0.221-0.417-0.321c-4.767-3.628-11.237-6.19-19.559-6.581c-0.58-0.026-1.092,0.011-1.661,0
			c6.354-2.373,10.573-8.807,9.798-15.857c-0.744-6.834-6.945-11.749-13.722-11.032c-0.738,0.09-1.266,0.754-1.197,1.487
			c0.09,0.749,0.686,1.261,1.487,1.202c5.326-0.643,10.162,3.286,10.736,8.638c0.755,6.866-4.224,13.052-11.095,13.822
			c-4.245,0.464-8.427-0.77-11.752-3.454c-2.7-2.157-4.53-5.089-5.387-8.4c-0.256-2.558,0.285-5.954,4.227-7.31
			c2.658-0.896,5.545,0.527,6.463,3.154c0.675,1.988-0.38,4.161-2.363,4.835c-1.437,0.485-3.023-0.274-3.522-1.719
			c-0.182-0.559-0.098-1.118,0.174-1.593c0.857,0.533,1.98,0.279,2.531-0.575c0.549-0.838,0.301-1.983-0.562-2.547
			c-0.205-0.121-0.442-0.084-0.67-0.11c-0.34-0.216-0.743-0.338-1.133-0.185c-2.424,0.828-3.716,3.491-2.882,5.906
			c0.789,2.268,2.917,3.702,5.184,3.702c0.574,0,1.187-0.105,1.767-0.307c3.38-1.16,5.199-4.851,4.039-8.247
			c-1.408-4.061-5.849-6.223-9.896-4.841c-1.548,0.543-2.808,1.381-3.778,2.452c0.496-3.908,1.99-7.525,4.482-10.305
			C91.854,60.585,96.304,58.624,101.219,58.603z M31.667,123.524c0.648-0.612,1.603-0.833,2.452-0.591
			c0.422,0.111,0.793,0.332,1.107,0.654c0.551,0.543,0.804,1.271,0.733,2.035l0.098,1.604l1.622-0.132
			c0.691,0,1.332,0.269,1.819,0.77c0.3,0.296,0.517,0.665,0.635,1.087c0.25,0.849,0.024,1.798-0.599,2.451l-2.051,2.184l2.996,0.101
			c0.901,0.031,1.735,0.538,2.162,1.302c0.216,0.386,0.324,0.791,0.324,1.24c0,0.764-0.335,1.46-0.926,1.961l-1.247,1.034
			l1.247,1.038c0.585,0.475,0.926,1.197,0.926,1.951c0,0.422-0.113,0.854-0.319,1.234c-0.432,0.791-1.266,1.281-2.167,1.313
			l-2.996,0.095l2.051,2.184c0.628,0.664,0.854,1.587,0.599,2.457c-0.113,0.422-0.335,0.785-0.646,1.097
			c-0.477,0.475-1.102,0.76-2.041,0.738l-1.627-0.153l0.14,1.635c0.087,0.766-0.182,1.493-0.738,2.047
			c-0.309,0.311-0.68,0.532-1.097,0.653c-0.849,0.243-1.804,0.011-2.463-0.601l-2.17-2.057l-0.103,3
			c-0.026,0.912-0.519,1.714-1.329,2.168c-0.994,0.559-2.407,0.306-3.186-0.606l-1.031-1.25l-1.034,1.25
			c-0.759,0.907-2.159,1.176-3.201,0.596c-0.799-0.443-1.292-1.245-1.318-2.157l-0.103-3l-2.17,2.057
			c-0.654,0.622-1.566,0.854-2.474,0.601c-0.406-0.116-0.783-0.337-1.086-0.653c-0.543-0.549-0.804-1.276-0.738-2.047l-0.108-1.603
			l-1.608,0.137c-0.693,0-1.334-0.269-1.816-0.754c-0.312-0.321-0.522-0.675-0.641-1.107c-0.248-0.844-0.021-1.793,0.599-2.446
			l2.051-2.184l-2.995-0.095c-0.925-0.032-1.725-0.517-2.162-1.308c-0.208-0.38-0.321-0.812-0.321-1.234
			c0-0.77,0.334-1.466,0.923-1.962l1.242-1.033l-1.242-1.028c-0.578-0.496-0.918-1.219-0.923-1.973c0-0.427,0.113-0.844,0.311-1.239
			c0.448-0.796,1.261-1.281,2.173-1.313l2.995-0.095l-2.051-2.183c-0.62-0.654-0.847-1.604-0.599-2.469
			c0.118-0.411,0.335-0.785,0.641-1.086c0.488-0.49,1.142-0.696,2.049-0.743l1.608,0.137l-0.129-1.603
			c-0.082-0.775,0.206-1.509,0.744-2.057c0.313-0.322,0.68-0.538,1.097-0.644c0.854-0.243,1.809-0.021,2.458,0.585l2.175,2.083
			l0.103-3.021c0.026-0.907,0.53-1.725,1.303-2.146c1.084-0.58,2.452-0.332,3.206,0.585l1.031,1.256l1.039-1.256
			c0.777-0.917,2.138-1.196,3.206-0.585c0.788,0.422,1.287,1.239,1.313,2.146l0.103,3.021L31.667,123.524z M50.264,129.784
			c-0.419,0.433-0.992,0.669-1.592,0.669c-0.588,0-1.145-0.227-1.566-0.643c-0.425-0.417-0.67-0.981-0.675-1.582
			c0-0.58,0.221-1.15,0.643-1.577c0.427-0.433,0.994-0.675,1.598-0.675c0.577,0,1.144,0.232,1.561,0.638
			c0.433,0.422,0.67,0.991,0.675,1.582C50.913,128.792,50.686,129.356,50.264,129.784z M64.094,122.917
			c0.061-0.079,0.147-0.068,0.206-0.111c2.015,2.964,4.823,3.233,5.611,3.233c0.119,0,0.201,0,0.222-0.011
			c0.735-0.068,1.273-0.686,1.236-1.439c-0.047-0.749-0.609-1.387-1.437-1.25c-0.146-0.011-2.661,0.105-4.113-3.312
			c-0.071-0.438-0.087-1.019,0.161-1.514c0.282-0.569,0.891-1.007,1.819-1.255c0.34-0.111,0.665-0.148,0.952-0.148
			c1.366,0,2.603,1.298,4.578,4.81c0.891,1.582,2.025,2.874,3.709,4.161c-1.938,0.707-4.838,1.551-7.493,1.551
			c-3.122,0-5.013-1.166-5.735-3.533C63.759,123.904,63.793,123.313,64.094,122.917z M80.921,101.185
			c-2.813-2.104-6.945-4.086-12.814-5.083c2.911-0.575,5.664-1.83,8.042-3.729c1.996-1.619,3.602-3.57,4.772-5.769V101.185
			L80.921,101.185z M114.218,126.62c0.422-0.411,0.986-0.644,1.566-0.644c0.601,0,1.171,0.242,1.603,0.68
			c0.417,0.422,0.639,0.992,0.639,1.572c-0.006,0.601-0.248,1.165-0.681,1.587c-0.844,0.828-2.32,0.828-3.158-0.037
			c-0.417-0.422-0.644-0.985-0.639-1.582C113.554,127.605,113.791,127.036,114.218,126.62z M94.917,127.605
			c-2.642,0-5.54-0.844-7.493-1.55c1.685-1.266,2.812-2.573,3.709-4.155c2.371-4.229,3.489-5.236,5.514-4.651
			c0.923,0.264,1.524,0.686,1.814,1.244c0.248,0.501,0.237,1.071,0.169,1.503c-1.329,3.186-3.665,3.344-4.061,3.344
			c-0.111,0-0.111-0.011-0.138-0.011c-0.701,0-1.281,0.543-1.345,1.234c-0.058,0.743,0.501,1.392,1.234,1.466
			c0.021,0,0.105,0.011,0.222,0.011c0.791,0,3.596-0.274,5.61-3.238c0.059,0.042,0.147,0.032,0.206,0.105
			c0.301,0.385,0.337,0.997,0.295,1.14C99.916,126.44,98.039,127.605,94.917,127.605z M135.063,122.58
			c0.021-0.901,0.533-1.725,1.313-2.146c1.055-0.59,2.431-0.326,3.206,0.591l1.044,1.261l1.028-1.261
			c0.76-0.917,2.131-1.176,3.201-0.601c0.786,0.432,1.281,1.255,1.308,2.162l0.101,3.016l2.178-2.077
			c0.648-0.612,1.608-0.833,2.457-0.591c0.417,0.111,0.786,0.332,1.092,0.644c0.549,0.554,0.812,1.286,0.749,2.057l0.101,1.593
			l1.613-0.132c0.686,0,1.323,0.269,1.819,0.77c0.301,0.296,0.517,0.665,0.633,1.087c0.253,0.849,0.026,1.798-0.596,2.451
			l-2.052,2.184l2.995,0.101c0.918,0.031,1.725,0.517,2.162,1.292c0.211,0.396,0.322,0.801,0.322,1.239
			c-0.006,0.774-0.332,1.481-0.923,1.972l-1.245,1.034l1.245,1.038c0.585,0.491,0.923,1.203,0.923,1.951
			c0,0.422-0.111,0.854-0.316,1.234c-0.443,0.797-1.239,1.281-2.168,1.313l-2.995,0.095l2.052,2.184
			c0.622,0.653,0.849,1.603,0.596,2.457c-0.116,0.422-0.332,0.785-0.644,1.097c-0.475,0.475-1.097,0.743-1.993,0.743
			c-0.016,0-0.037,0-0.058,0l-1.608-0.142l0.132,1.618c0.079,0.771-0.19,1.498-0.738,2.047c-0.322,0.321-0.681,0.537-1.103,0.653
			c-0.849,0.253-1.804,0.011-2.457-0.601l-2.173-2.057l-0.101,3c-0.026,0.912-0.521,1.714-1.323,2.157
			c-1.018,0.564-2.441,0.312-3.196-0.596l-1.033-1.25l-1.033,1.25c-0.775,0.912-2.168,1.176-3.196,0.596
			c-0.796-0.443-1.297-1.245-1.318-2.151l-0.09-3.017l-2.183,2.067c-0.659,0.611-1.656,0.833-2.447,0.611
			c-0.433-0.132-0.802-0.354-1.112-0.664c-0.549-0.554-0.807-1.281-0.744-2.047l-0.11-1.624l-1.619,0.153
			c-0.68,0-1.312-0.274-1.798-0.749c-0.312-0.321-0.527-0.686-0.644-1.097c-0.253-0.865-0.021-1.793,0.602-2.457l2.051-2.184
			l-2.995-0.095c-0.901-0.032-1.735-0.544-2.162-1.308c-0.206-0.38-0.321-0.812-0.321-1.234c0-0.77,0.337-1.472,0.923-1.957
			l1.249-1.033l-1.249-1.039c-0.58-0.495-0.923-1.207-0.923-1.961c0-0.433,0.11-0.844,0.316-1.24
			c0.432-0.785,1.266-1.281,2.167-1.312l2.995-0.095l-2.051-2.184c-0.617-0.653-0.844-1.603-0.597-2.463
			c0.116-0.416,0.333-0.791,0.633-1.091c0.485-0.485,1.019-0.865,2.062-0.744l1.619,0.137l-0.143-1.613
			c-0.085-0.77,0.189-1.498,0.732-2.035c0.316-0.327,0.686-0.549,1.103-0.654c0.849-0.242,1.809-0.021,2.457,0.586l2.188,2.093
			L135.063,122.58z M83.466,52.564c-0.169-0.543-0.585-0.976-1.194-0.976c-0.504,0-0.854,0.322-1.092,0.728
			c-0.011,0.016-0.037,0.01-0.053,0.026c-1.015,1.239-2.9,1.598-4.292,0.817c-1.055-0.586-1.73-1.693-1.761-2.9
			c-0.016-0.543-0.335-1.013-0.825-1.219c-0.493-0.216-1.05-0.1-1.448,0.27c-0.875,0.812-2.138,1.139-3.301,0.796
			c-0.562-0.163-1.047-0.453-1.463-0.865c-0.722-0.722-1.079-1.714-1.004-2.748c0.05-0.4-0.264-0.786-0.543-1.07
			c-0.255-0.253-0.725-0.375-1.102-0.375c-0.973-0.01-1.885-0.333-2.576-1.018c-0.4-0.396-0.696-0.896-0.854-1.46
			c-0.334-1.139-0.026-2.405,0.794-3.291c0.364-0.391,0.478-0.96,0.271-1.445c-0.206-0.506-0.68-0.812-1.226-0.833
			c-1.221-0.031-2.302-0.686-2.89-1.745c-0.285-0.522-0.427-1.076-0.427-1.661c0-1.028,0.448-1.994,1.236-2.643
			c0.314-0.258,0.493-0.638,0.493-1.039c0-0.396-0.179-0.781-0.493-1.028c-0.788-0.654-1.236-1.614-1.236-2.626
			c0-0.585,0.143-1.149,0.422-1.655c0.593-1.065,1.685-1.725,2.9-1.772c0.541-0.01,1.015-0.337,1.216-0.822
			c0.195-0.485,0.108-1.039-0.272-1.445c-0.831-0.907-1.139-2.141-0.789-3.306c0.158-0.559,0.448-1.039,0.865-1.46
			c0.627-0.633,1.463-0.997,2.663-0.997c0.026,0,0.053,0,0.074,0c0.396,0.063,0.789-0.11,1.081-0.385
			c0.288-0.285,0.427-0.675,0.377-1.065c-0.089-1.023,0.282-2.025,1.004-2.742c0.417-0.422,0.918-0.728,1.464-0.865
			c1.168-0.353,2.42-0.042,3.282,0.786c0.385,0.364,0.968,0.48,1.442,0.269c0.509-0.195,0.823-0.675,0.839-1.208
			c0.037-1.218,0.712-2.326,1.769-2.9c1.358-0.765,3.262-0.411,4.295,0.807c0.253,0.316,0.63,0.485,1.031,0.485
			c0.388,0,0.783-0.169,1.026-0.485c1.031-1.239,2.911-1.582,4.287-0.807c1.052,0.575,1.727,1.688,1.762,2.895
			c0.016,0.533,0.34,1.018,0.83,1.208c0.485,0.222,1.052,0.116,1.447-0.264c0.881-0.812,2.162-1.139,3.286-0.791
			c0.563,0.147,1.06,0.454,1.466,0.875c0.732,0.717,1.081,1.704,1.002,2.742c-0.037,0.401,0.279,0.786,0.564,1.065
			c0.253,0.264,0.732,0.38,1.102,0.38c1.008,0.021,1.883,0.327,2.558,1.002c0.401,0.406,0.701,0.907,0.854,1.461
			c0.332,1.171,0.048,2.394-0.796,3.291c-0.359,0.385-0.465,0.959-0.259,1.45c0.2,0.491,0.675,0.807,1.208,0.828
			c1.207,0.042,2.32,0.718,2.895,1.762c0.29,0.517,0.428,1.055,0.428,1.661c0,1.018-0.454,1.978-1.234,2.631
			c-0.316,0.264-0.49,0.643-0.49,1.034c0,0.4,0.174,0.791,0.49,1.039c0.786,0.653,1.234,1.608,1.234,2.626
			c0,0.564-0.143,1.149-0.422,1.65c-0.58,1.05-1.693,1.725-2.9,1.767c-0.533,0.016-1.008,0.332-1.208,0.833
			c-0.206,0.485-0.11,1.039,0.259,1.44c0.833,0.88,1.144,2.146,0.796,3.296c-0.153,0.564-0.453,1.055-0.854,1.46
			c-0.644,0.649-1.619,1.034-2.753,1.008c-0.369-0.048-0.791,0.11-1.064,0.374c-0.296,0.301-0.428,0.675-0.391,1.076
			c0.095,1.018-0.269,2.024-1.013,2.752c-0.39,0.406-0.891,0.696-1.466,0.86c-1.155,0.337-2.415,0.021-3.291-0.791
			c-0.366-0.354-0.943-0.464-1.447-0.27c-0.49,0.206-0.81,0.675-0.825,1.219c-0.034,1.202-0.709,2.31-1.756,2.89
			C86.152,53.877,84.513,53.598,83.466,52.564z M88.299,92.353c2.376,1.908,5.126,3.153,8.037,3.717
			c-5.809,1.019-9.901,2.98-12.715,5.058V86.789C84.781,88.909,86.358,90.792,88.299,92.353z"/>
		<path d="M128.282,139.292c0,6.781,5.516,12.298,12.298,12.298c6.792,0,12.297-5.517,12.297-12.298
			c0-6.792-5.516-12.309-12.297-12.309C133.804,126.978,128.282,132.5,128.282,139.292z M131.209,141.337
			c-0.143-0.654-0.232-1.34-0.232-2.046c0-0.707,0.09-1.387,0.227-2.046l2.047,2.057L131.209,141.337z M132.306,144.064l2.848-2.854
			l3.586,3.592l-2.821,2.832C134.404,146.775,133.171,145.551,132.306,144.064z M137.067,139.302l3.586-3.586l3.592,3.586
			l-3.592,3.586L137.067,139.302z M140.59,148.889c-0.659,0-1.292-0.068-1.914-0.195l1.993-1.993l1.957,1.962
			C141.967,148.799,141.292,148.889,140.59,148.889z M145.353,147.571l-2.795-2.779l3.591-3.591l2.764,2.763
			C148.073,145.466,146.85,146.716,145.353,147.571z M149.993,137.367c0.121,0.622,0.194,1.255,0.194,1.909
			c0,0.659-0.073,1.308-0.194,1.93l-1.915-1.919L149.993,137.367z M148.928,134.614l-2.769,2.779l-3.586-3.586l2.806-2.8
			C146.86,131.876,148.084,133.111,148.928,134.614z M140.59,129.678c0.718,0,1.397,0.089,2.062,0.231l-1.983,1.973l-2.009-2.004
			C139.277,129.747,139.926,129.678,140.59,129.678z M135.902,130.949l2.837,2.848l-3.586,3.586l-2.853-2.863
			C133.16,133.027,134.394,131.798,135.902,130.949z"/>
		<path d="M11.567,139.292c0,6.781,5.514,12.298,12.298,12.298c6.782,0,12.295-5.517,12.295-12.298
			c0-6.792-5.513-12.309-12.295-12.309C17.094,126.978,11.567,132.5,11.567,139.292z M19.09,131.007l2.808,2.8l-3.586,3.586
			l-2.769-2.779C16.375,133.111,17.595,131.876,19.09,131.007z M23.799,135.716l3.586,3.586l-3.586,3.586l-3.591-3.586
			L23.799,135.716z M14.463,141.216c-0.124-0.622-0.195-1.271-0.195-1.925c0-0.654,0.071-1.298,0.195-1.914l1.912,1.919
			L14.463,141.216z M15.539,143.963l2.763-2.763l3.591,3.591l-2.797,2.779C17.605,146.716,16.385,145.466,15.539,143.963z
			 M23.871,148.889c-0.714,0-1.39-0.09-2.036-0.227l1.954-1.962l1.993,1.993C25.17,148.821,24.53,148.889,23.871,148.889z
			 M28.54,147.634l-2.818-2.827l3.586-3.591l2.845,2.853C31.29,145.551,30.048,146.775,28.54,147.634z M33.25,137.246
			c0.14,0.659,0.227,1.339,0.227,2.046c0,0.706-0.087,1.392-0.232,2.046l-2.041-2.035L33.25,137.246z M32.16,134.519l-2.853,2.863
			l-3.586-3.586l2.834-2.848C30.059,131.798,31.301,133.027,32.16,134.519z M23.799,131.898l-1.98-1.982
			c0.662-0.132,1.345-0.232,2.062-0.232c0.665,0,1.3,0.079,1.928,0.2L23.799,131.898z"/>
	</g>
</g>
<g>
</g>
<g>
</g>
<g>
</g>
<g>
</g>
<g>
</g>
<g>
</g>
<g>
</g>
<g>
</g>
<g>
</g>
<g>
</g>
<g>
</g>
<g>
</g>
<g>
</g>
<g>
</g>
<g>
</g>
</svg>
