<?xml version="1.0" encoding="iso-8859-1"?>
<!-- Generator: Adobe Illustrator 16.0.0, SVG Export Plug-In . SVG Version: 6.00 Build 0)  -->
<!DOCTYPE svg PUBLIC "-//W3C//DTD SVG 1.1//EN" "http://www.w3.org/Graphics/SVG/1.1/DTD/svg11.dtd">
<svg version="1.1" id="Capa_1" xmlns="http://www.w3.org/2000/svg" xmlns:xlink="http://www.w3.org/1999/xlink" x="0px" y="0px"
	 width="135.629px" height="135.629px" viewBox="0 0 135.629 135.629" style="enable-background:new 0 0 135.629 135.629;"
	 xml:space="preserve">
<g>
	<path d="M135.032,77.733c-0.644-2.235-2.616-3.902-5.062-3.902c-2.953,0-5.348,2.395-5.348,5.348c0,2.964,2.384,5.353,5.348,5.353
		c0.11,0,0.189-0.053,0.3-0.063c-2.066,4.957-6.955,8.443-12.646,8.443c-9.75,0-17.671-7.932-17.671-17.661
		c0-12.482,10.146-22.626,22.623-22.626c1.191,0,2.151-0.968,2.151-2.154c0-1.188-0.965-2.159-2.151-2.159
		c-3.428,0-6.671,0.707-9.692,1.877c0.442-1.381,0.748-2.824,0.748-4.351c0-9.65-7.847-17.502-17.497-17.502
		c-11.765,0-21.333,9.568-21.333,21.331c0,9.643,3.436,17.331,9.215,21.808H72.6l-1.163-1.713c-0.397-0.58-0.917-0.971-1.453-1.313
		V32.535c0.546-0.366,1.039-0.831,1.453-1.435l7.513-11.082c0.448-0.664,0.495-1.516,0.11-2.226
		c-0.374-0.706-1.107-1.149-1.909-1.149h-2.7c0.088-0.433,0.259-0.831,0.259-1.289c0-3.808-3.082-6.893-6.89-6.893
		s-6.89,3.085-6.89,6.893c0,0.458,0.177,0.856,0.258,1.289H57.85c-0.799,0-1.532,0.443-1.911,1.149
		c-0.377,0.709-0.327,1.562,0.121,2.226l7.504,11.077c0.562,0.83,1.292,1.429,2.091,1.809v35.169
		c-0.793,0.348-1.534,0.869-2.096,1.688l-1.16,1.713H51.614c5.782-4.477,9.218-12.165,9.218-21.808
		c0-11.763-9.569-21.331-21.336-21.331c-4.675,0-9.07,1.819-12.376,5.126c-3.304,3.304-5.124,7.699-5.124,12.376
		c0,1.521,0.301,2.963,0.744,4.345c-3.011-1.165-6.257-1.872-9.677-1.872c-1.192,0-2.159,0.971-2.159,2.159
		c0,1.187,0.967,2.154,2.159,2.154c12.475,0,22.626,10.154,22.626,22.626c0,9.74-7.926,17.661-17.669,17.661
		c-5.664,0-10.534-3.46-12.619-8.364c0.092,0,0.168,0.053,0.261,0.053c2.953,0,5.35-2.399,5.35-5.353
		c0-2.958-2.392-5.348-5.35-5.348c-2.415,0-4.374,1.625-5.044,3.818C0.237,78.093,0,78.625,0,79.21c0,9.94,8.084,18.03,18.02,18.03
		c11.941,0,21.645-9.587,21.935-21.458h19.512l-3.419,5.047c-0.43,0.639-0.469,1.461-0.14,2.136
		c-7.058,4.124-11.857,11.696-11.857,20.44c0,13.109,10.66,23.762,23.754,23.762c13.091,0,23.754-10.663,23.754-23.762
		c0-8.912-5.01-16.611-12.298-20.678c0.074-0.222,0.143-0.448,0.143-0.69c0-0.675-0.312-1.276-0.786-1.677l-3.113-4.588h20.168
		c0.285,11.859,9.988,21.452,21.933,21.452c9.94,0,18.024-8.079,18.024-18.024C135.648,78.641,135.411,78.124,135.032,77.733z
		 M39.638,71.332c-0.606-4.093-2.024-7.91-4.255-11.18c0.356,0.026,0.696,0.108,1.062,0.108c6.605,0,11.979-5.374,11.979-11.979
		c0-0.608-0.261-1.154-0.665-1.55c-0.601-2.052-2.42-3.578-4.667-3.578c-2.726,0-4.941,2.207-4.941,4.941
		c0,2.515,1.912,4.514,4.353,4.822c-1.397,1.83-3.586,3.027-6.059,3.027c-5.571,0-10.109-4.535-10.109-10.101
		c0-3.522,1.366-6.837,3.862-9.326c2.484-2.489,5.798-3.863,9.318-3.863c9.382,0,17.018,7.63,17.018,17.012
		C56.534,59.385,52.015,70.594,39.638,71.332z M65.67,84.8v37.263c-3.338-2.215-6.394-9.208-6.394-18.637
		C59.276,94.008,62.327,87.005,65.67,84.8z M69.984,122.062V84.8c3.338,2.205,6.397,9.208,6.397,18.626
		C76.381,112.854,73.327,119.848,69.984,122.062z M48.384,103.426c0-7.467,4.282-13.89,10.476-17.149
		c-2.412,4.304-3.907,10.336-3.907,17.149c0,6.824,1.495,12.856,3.907,17.149C52.666,117.316,48.384,110.903,48.384,103.426z
		 M87.271,103.426c0,7.478-4.282,13.891-10.479,17.149c2.415-4.293,3.913-10.325,3.913-17.149c0-6.813-1.492-12.846-3.913-17.149
		C82.988,89.536,87.271,95.959,87.271,103.426z M79.123,49.671c0-9.381,7.625-17.009,17.012-17.009
		c7.267,0,13.179,5.917,13.179,13.181c0,5.566-4.541,10.101-10.114,10.101c-2.463,0-4.636-1.187-6.038-2.996
		c2.51-0.237,4.498-2.283,4.498-4.849c0-2.734-2.21-4.941-4.941-4.941c-2.193,0-3.997,1.464-4.641,3.452
		c-0.506,0.393-0.865,0.986-0.865,1.682c0,6.605,5.379,11.979,11.987,11.979c0.363,0,0.717-0.082,1.075-0.108
		c-2.226,3.27-3.654,7.087-4.25,11.18C83.637,70.604,79.123,59.39,79.123,49.671z"/>
</g>
<g>
</g>
<g>
</g>
<g>
</g>
<g>
</g>
<g>
</g>
<g>
</g>
<g>
</g>
<g>
</g>
<g>
</g>
<g>
</g>
<g>
</g>
<g>
</g>
<g>
</g>
<g>
</g>
<g>
</g>
</svg>
