<?xml version="1.0" encoding="iso-8859-1"?>
<!-- Generator: Adobe Illustrator 16.0.0, SVG Export Plug-In . SVG Version: 6.00 Build 0)  -->
<!DOCTYPE svg PUBLIC "-//W3C//DTD SVG 1.1//EN" "http://www.w3.org/Graphics/SVG/1.1/DTD/svg11.dtd">
<svg version="1.1" id="Capa_1" xmlns="http://www.w3.org/2000/svg" xmlns:xlink="http://www.w3.org/1999/xlink" x="0px" y="0px"
	 width="111.527px" height="111.527px" viewBox="0 0 111.527 111.527" style="enable-background:new 0 0 111.527 111.527;"
	 xml:space="preserve">
<g>
	<path d="M91.567,28.674c1.087,3.127,4.019,5.384,7.521,5.384c4.397,0,7.979-3.575,7.979-7.981s-3.565-7.981-7.979-7.981
		c-3.818,0-6.993,2.685-7.778,6.26c-14.782,1.759-27.232,11.124-33.384,24.062v-32.79c3.354-0.944,5.822-3.995,5.822-7.646
		c0-4.406-3.57-7.981-7.982-7.981c-4.411,0-7.981,3.575-7.981,7.981c0,3.651,2.468,6.702,5.821,7.646v32.801
		c-6.141-12.944-18.591-22.314-33.383-24.073c-0.789-3.575-3.963-6.26-7.781-6.26c-4.406,0-7.981,3.575-7.981,7.981
		s3.57,7.981,7.981,7.981c3.494,0,6.426-2.257,7.512-5.384c18.829,2.365,33.458,18.447,33.458,37.914v4.978
		c-1.592-4.767-4.097-9.581-7.992-13.531C32.872,45.302,10.702,46.934,10.71,46.938l-1.827,0.14l-0.161,1.819
		C8.64,49.8,6.874,71.149,19.306,83.764c9.94,10.088,25.748,11.174,32.081,11.174c0.901,0,1.577-0.021,2.025-0.042v1.181
		c0,0.322,0.077,0.612,0.195,0.887v12.402c0,1.197,0.965,2.162,2.16,2.162c1.195,0,2.16-0.965,2.16-2.162V96.952
		c0.119-0.264,0.189-0.564,0.189-0.865v-1.191c0.448,0.021,1.123,0.042,2.03,0.042c6.331,0,22.146-1.086,32.087-11.164
		c12.435-12.613,10.673-33.969,10.578-34.87l-0.158-1.819l-1.835-0.14c0-0.006-22.159-1.638-34.71,11.095
		c-3.899,3.955-6.404,8.775-7.992,13.553v-5.004C58.121,47.121,72.741,31.039,91.567,28.674z M22.372,80.73
		c-9.012-9.139-9.558-24.258-9.444-29.549c5.476-0.13,20.402,0.74,29.41,9.885c9.012,9.145,9.558,24.258,9.45,29.558
		C46.414,90.734,31.385,89.87,22.372,80.73z M69.188,61.056c9.007-9.139,23.941-9.993,29.415-9.88
		c0.105,5.292-0.433,20.396-9.45,29.555c-9.007,9.129-23.836,9.983-29.412,9.883C59.621,85.335,60.151,70.242,69.188,61.056z"/>
</g>
<g>
</g>
<g>
</g>
<g>
</g>
<g>
</g>
<g>
</g>
<g>
</g>
<g>
</g>
<g>
</g>
<g>
</g>
<g>
</g>
<g>
</g>
<g>
</g>
<g>
</g>
<g>
</g>
<g>
</g>
</svg>
