<?xml version="1.0" encoding="iso-8859-1"?>
<!-- Generator: Adobe Illustrator 16.0.0, SVG Export Plug-In . SVG Version: 6.00 Build 0)  -->
<!DOCTYPE svg PUBLIC "-//W3C//DTD SVG 1.1//EN" "http://www.w3.org/Graphics/SVG/1.1/DTD/svg11.dtd">
<svg version="1.1" id="Capa_1" xmlns="http://www.w3.org/2000/svg" xmlns:xlink="http://www.w3.org/1999/xlink" x="0px" y="0px"
	 width="193.331px" height="193.331px" viewBox="0 0 193.331 193.331" style="enable-background:new 0 0 193.331 193.331;"
	 xml:space="preserve">
<g>
	<g>
		<path d="M189.895,90.643c2.88-4.021,4.023-9.112,3.148-13.995c-0.707-3.953-2.916-7.394-6.207-9.688
			c-3.285-2.294-7.271-3.164-11.237-2.458c-1.182,0.211-1.957,1.334-1.746,2.51c0.211,1.173,1.335,1.936,2.505,1.74
			c2.812-0.515,5.664,0.113,8.006,1.751c2.352,1.635,3.929,4.087,4.424,6.9c0.67,3.731-0.211,7.636-2.415,10.713
			c-2.125,2.979-5.247,4.915-8.791,5.452c-8.774,1.348-13.942-4.503-22.238-14.96c-1.033-1.302-2.035-2.729-3.037-4.122
			c1.472-0.055,2.958-0.442,4.414-1.252c3.981-2.247,5.416-7.335,3.169-11.352c-1.914-3.401-6.249-4.611-9.666-2.7
			c-1.435,0.799-2.447,2.118-2.885,3.694c-0.438,1.572-0.231,3.223,0.56,4.622c0.901,1.614,2.541,2.582,4.261,2.7
			c-2.178-0.065-3.929-1.432-5.152-2.961c-6.587-8.822-14.565-17.236-28.076-17.236c-0.036,0-0.079,0-0.11,0
			c-6.808,0.029-12.978,2.756-17.387,7.687c-0.98,1.089-1.785,2.341-2.552,3.606v-7.361l0.269-0.011
			c4.54-0.026,12.15-0.076,13.706-10.826c0.126-0.963,0.11-1.912,0.079-2.948c-0.096-2.755-0.206-5.864,4.435-11.875
			c0.459-0.599,0.559-1.403,0.29-2.112c-0.269-0.707-0.907-1.221-1.656-1.34c0,0-5.326-1.057-11.327,2.139
			c-0.358-1.355-0.854-2.537-1.308-3.634c-1.06-2.547-1.762-4.229-0.648-7.116c0.284-0.746,0.126-1.587-0.385-2.181
			c-0.522-0.601-1.332-0.859-2.12-0.699c-0.147,0.045-3.76,0.88-6.977,3.515c-2.452,2.009-5.039,5.347-5.104,10.51
			c-5.714-2.308-10.661-1.139-10.945-1.065c-0.741,0.174-1.334,0.735-1.556,1.466c-0.227,0.728-0.053,1.511,0.453,2.083
			c5.065,5.643,5.194,8.76,5.308,11.507c0.045,1.039,0.098,1.999,0.309,2.942c1.479,6.655,5.292,9.888,11.654,9.888
			c0.414,0,0.799-0.037,1.202-0.053v7.317c-0.788-1.318-1.629-2.598-2.649-3.742c-4.401-4.931-10.579-7.657-17.384-7.686
			c-0.037,0-0.069,0-0.108,0c-13.521,0-21.508,8.435-28.089,17.255c-1.231,1.526-2.961,2.969-5.147,2.942
			c1.727-0.119,3.359-1.081,4.255-2.689c0.805-1.427,1.01-3.062,0.567-4.638c-0.438-1.572-1.464-2.88-2.89-3.694
			c-3.396-1.901-7.739-0.696-9.666,2.71c-2.241,4-0.815,9.099,3.18,11.346c1.453,0.809,2.938,1.21,4.409,1.252
			c-1.005,1.397-2.004,2.813-3.035,4.121C29.696,89.084,24.57,94.954,15.753,93.583c-3.544-0.541-6.663-2.474-8.791-5.456
			c-2.204-3.077-3.085-6.982-2.415-10.713c0.509-2.813,2.08-5.275,4.43-6.9c2.352-1.643,5.199-2.251,8.007-1.75
			c1.16,0.2,2.294-0.567,2.505-1.74c0.211-1.176-0.567-2.3-1.743-2.511c-3.937-0.706-7.944,0.169-11.243,2.458
			c-3.301,2.294-5.508,5.734-6.217,9.687c-0.873,4.873,0.271,9.975,3.148,13.999c1.962,2.742,4.596,4.767,7.594,6.012
			c-2.998,1.244-5.626,3.27-7.594,6.022c-2.876,4.008-4.021,9.112-3.148,13.984c0.709,3.95,2.917,7.404,6.212,9.693
			c3.293,2.299,7.277,3.174,11.24,2.457c1.173-0.211,1.956-1.34,1.745-2.51c-0.211-1.182-1.35-1.973-2.505-1.74
			c-2.813,0.495-5.666-0.116-8.008-1.751c-2.349-1.635-3.926-4.093-4.43-6.908c-0.669-3.724,0.211-7.636,2.416-10.705
			c2.128-2.975,5.247-4.915,8.791-5.453c8.775-1.35,13.943,4.504,22.249,14.956c1.036,1.308,2.03,2.736,3.04,4.129
			c-1.477,0.058-2.961,0.438-4.419,1.25c-3.989,2.246-5.416,7.33-3.169,11.348c1.302,2.311,3.715,3.602,6.199,3.602
			c1.179,0,2.365-0.289,3.467-0.901c1.426-0.791,2.447-2.12,2.885-3.691c0.438-1.571,0.232-3.228-0.562-4.63
			c-0.901-1.613-2.534-2.573-4.261-2.695c2.107-0.005,3.921,1.43,5.163,2.97c6.581,8.817,14.567,17.228,28.078,17.223
			c0.034,0,0.071,0,0.103,0c6.811-0.021,12.983-2.742,17.39-7.678c0.98-1.097,1.788-2.342,2.552-3.607v7.362l-0.269,0.01
			c-4.541,0.021-12.145,0.074-13.7,10.821c-0.135,0.965-0.113,1.914-0.079,2.953c0.095,2.753,0.203,5.864-4.435,11.876
			c-0.459,0.591-0.567,1.402-0.29,2.109c0.274,0.707,0.907,1.224,1.656,1.345c0,0,0.799,0.132,2.117,0.132
			c2.03,0,5.563-0.332,9.202-2.278c0.367,1.36,0.859,2.542,1.313,3.639c1.062,2.542,1.764,4.224,0.651,7.114
			c-0.285,0.754-0.134,1.582,0.385,2.188c0.414,0.475,1.015,0.743,1.629,0.743c0.164,0,0.324-0.021,0.482-0.053
			c0.15-0.037,3.757-0.886,6.977-3.518c2.449-2.004,5.033-5.347,5.102-10.504c5.706,2.31,10.658,1.139,10.938,1.064
			c0.749-0.179,1.334-0.738,1.556-1.466c0.227-0.717,0.053-1.514-0.454-2.077c-5.062-5.643-5.194-8.754-5.3-11.507
			c-0.053-1.034-0.105-2.004-0.316-2.942c-1.471-6.655-5.283-9.894-11.651-9.894c-0.408,0-0.799,0.042-1.202,0.063v-7.325
			c0.788,1.318,1.629,2.601,2.649,3.75c4.394,4.925,10.579,7.646,17.382,7.673c0.037,0,0.068,0,0.116,0
			c13.536,0,21.521-8.443,28.123-17.292c1.218-1.519,2.848-3.006,5.109-2.9c-1.719,0.116-3.358,1.076-4.255,2.689
			c-0.797,1.424-1.008,3.069-0.56,4.641c0.438,1.571,1.461,2.88,2.89,3.687c1.098,0.606,2.284,0.901,3.454,0.901
			c2.484,0,4.904-1.286,6.207-3.612c2.241-3.992,0.807-9.086-3.18-11.343c-1.466-0.808-2.942-1.192-4.414-1.245
			c1.013-1.392,2.004-2.815,3.038-4.123c8.3-10.469,13.447-16.322,22.243-14.972c3.544,0.554,6.665,2.483,8.791,5.458
			c2.204,3.074,3.085,6.992,2.415,10.71c-0.507,2.821-2.078,5.279-4.43,6.903c-2.353,1.64-5.21,2.246-8,1.751
			c-1.171-0.222-2.294,0.563-2.505,1.751c-0.211,1.17,0.559,2.288,1.74,2.499c3.95,0.718,7.952-0.158,11.237-2.446
			c3.302-2.3,5.517-5.738,6.218-9.693c0.875-4.867-0.269-9.982-3.148-13.995c-1.962-2.748-4.593-4.772-7.594-6.012
			C185.302,95.413,187.923,93.388,189.895,90.643z M151.668,65.389c-0.237-0.412-0.296-0.896-0.169-1.355
			c0.132-0.459,0.433-0.844,0.838-1.076c1.34-0.754,3.038-0.274,3.787,1.05c0.664,1.181,0.664,2.558,0.115,3.699
			c0.011-0.369-0.084-0.751-0.279-1.097c-0.385-0.715-1.128-1.107-1.888-1.107c-0.358,0-0.717,0.092-1.05,0.282
			C152.554,66.048,151.932,65.874,151.668,65.389z M40.312,65.771c-1.031-0.583-2.354-0.208-2.937,0.828
			c-0.195,0.346-0.28,0.728-0.274,1.094c-0.541-1.139-0.546-2.51,0.113-3.686c0.512-0.907,1.458-1.421,2.429-1.421
			c0.458,0,0.923,0.114,1.35,0.351c0.417,0.231,0.715,0.611,0.844,1.075c0.129,0.459,0.068,0.944-0.174,1.366
			C41.414,65.879,40.802,66.048,40.312,65.771z M41.677,127.929c0.237,0.411,0.298,0.896,0.169,1.35
			c-0.129,0.465-0.433,0.854-0.839,1.076c-1.339,0.749-3.04,0.274-3.783-1.044c-0.665-1.182-0.665-2.563-0.119-3.708
			c-0.005,0.375,0.079,0.766,0.274,1.103c0.583,1.044,1.906,1.424,2.938,0.833C40.802,127.285,41.414,127.454,41.677,127.929z
			 M88.685,132.754c-3.576,4.003-8.612,6.218-14.175,6.228c-11.578,0.043-18.317-6.913-24.558-15.293
			c-0.021-0.031-0.026-0.073-0.056-0.11c-0.068-0.09-0.14-0.143-0.211-0.243c-1.068-1.439-2.133-2.91-3.196-4.402
			c-1.685-2.363-3.359-4.715-5.097-6.908c-5.353-6.734-10.249-12.757-16.54-15.367c6.291-2.61,11.188-8.627,16.54-15.367
			c1.738-2.18,3.407-4.535,5.097-6.9c1.081-1.519,2.16-3.019,3.251-4.477c0.047-0.063,0.108-0.113,0.155-0.166
			c0.023-0.034,0.029-0.077,0.056-0.108c6.23-8.353,12.954-15.304,24.471-15.304c0.029,0,0.061,0,0.092,0
			c5.563,0.021,10.6,2.231,14.175,6.23c2.489,2.793,4.05,6.328,4.796,10.176c-1.015-0.817-2.194-1.487-3.56-1.957
			c-5.034-1.727-10.547,0.979-12.29,6.018c-0.702,2.067-0.562,4.282,0.393,6.23c0.957,1.959,2.626,3.436,4.683,4.132
			c0.746,0.258,1.519,0.382,2.284,0.382c1.039,0,2.075-0.237,3.035-0.707c1.674-0.809,2.932-2.236,3.539-4.002
			c0.522-1.506,0.419-3.143-0.282-4.591c-0.707-1.444-1.927-2.521-3.443-3.032c-1.128-0.385-2.365,0.217-2.745,1.345
			c0,0.006,0,0.006,0,0.011c-0.599,0.701-0.723,1.717-0.206,2.531c0.514,0.799,1.469,1.129,2.35,0.907
			c0.039,0.065,0.129,0.082,0.163,0.147c0.201,0.398,0.227,0.852,0.079,1.279c-0.227,0.669-0.707,1.221-1.345,1.521
			c-0.635,0.298-1.355,0.34-2.025,0.113c-0.965-0.334-1.748-1.015-2.196-1.933s-0.514-1.97-0.19-2.943
			c0.962-2.797,4.013-4.282,6.8-3.327c4.638,1.595,5.015,5.759,4.458,9.118c-1.094,3.207-3.035,6.051-5.74,8.224
			c-3.763,3.029-8.498,4.382-13.268,3.876c-3.731-0.398-7.072-2.241-9.421-5.158c-2.344-2.911-3.41-6.576-3.003-10.296
			c0.314-2.858,1.716-5.426,3.963-7.238c2.251-1.809,5.065-2.624,7.929-2.326c1.213,0.161,2.251-0.73,2.375-1.911
			c0.129-1.195-0.73-2.252-1.912-2.379c-8.269-0.907-15.751,5.105-16.648,13.39c-0.535,4.859,0.862,9.653,3.931,13.471
			c1.759,2.188,3.984,3.85,6.458,5.021c-2.468,1.171-4.693,2.821-6.452,5.025c-3.066,3.812-4.467,8.602-3.932,13.474
			c0.902,8.269,8.396,14.302,16.648,13.379c1.187-0.121,2.041-1.192,1.912-2.368c-0.124-1.181-1.163-2.057-2.375-1.914
			c-5.888,0.628-11.243-3.649-11.892-9.561c-0.406-3.718,0.664-7.378,3.008-10.294c2.344-2.921,5.69-4.757,9.416-5.157
			c4.791-0.527,9.506,0.844,13.268,3.871c3.059,2.462,5.131,5.79,6.099,9.523c0.237,3.063-0.557,6.434-4.612,7.836
			c-2.792,0.96-5.848-0.548-6.8-3.312c-0.335-0.986-0.264-2.035,0.185-2.953c0.448-0.928,1.231-1.613,2.212-1.946
			c0.669-0.227,1.374-0.194,2.009,0.122c0.633,0.306,1.112,0.838,1.345,1.519c0.147,0.422,0.118,0.875-0.079,1.281
			c-0.034,0.068-0.122,0.09-0.164,0.143c-0.881-0.222-1.835,0.105-2.349,0.907c-0.517,0.802-0.393,1.835,0.205,2.531
			c0,0.011,0,0.011,0,0.011c0.383,1.128,1.604,1.729,2.742,1.339c1.519-0.517,2.745-1.593,3.446-3.026
			c0.707-1.456,0.805-3.08,0.282-4.599c-0.606-1.767-1.864-3.196-3.538-4.008c-1.669-0.802-3.552-0.918-5.297-0.327
			c-2.067,0.707-3.736,2.167-4.699,4.14c-0.955,1.956-1.094,4.171-0.393,6.238c1.376,4.008,5.139,6.528,9.162,6.528
			c1.036,0,2.091-0.158,3.127-0.517c1.268-0.433,2.36-1.055,3.322-1.793C92.698,126.51,91.147,130.007,88.685,132.754z
			 M89.942,99.727c-1.619-1.298-3.417-2.263-5.281-3.059c1.864-0.791,3.657-1.782,5.281-3.08c1.854-1.484,3.349-3.282,4.617-5.223
			v7.243c-0.037,0.164-0.103,0.322-0.103,0.496v8.706C93.209,102.933,91.751,101.182,89.942,99.727z M107.429,149.982
			c0.147,0.696,0.163,1.413,0.195,2.173c0.116,2.584,0.258,5.948,3.718,10.853c-2.131-0.169-4.852-0.812-7.478-2.679
			c-0.744-0.527-1.706-0.544-2.452-0.032c-0.749,0.496-1.107,1.403-0.902,2.278c1.556,6.771-2.024,10.23-4.994,11.87
			c0.01-2.389-0.793-4.34-1.54-6.128c-0.738-1.771-1.437-3.453-1.54-5.711c-0.032-0.807-0.522-1.529-1.269-1.866
			c-0.285-0.127-0.588-0.19-0.891-0.19c-0.485,0-0.959,0.153-1.355,0.475c-2.423,1.951-5.021,2.774-7.064,3.091
			c3.09-5.157,2.971-8.522,2.884-11.116c-0.026-0.771-0.065-1.467,0.037-2.179c1.021-7.082,4.925-7.093,9.45-7.124l3.225-0.116
			C100.954,143.349,105.684,142.167,107.429,149.982z M95.899,49.734c-3.499,0.242-8.234,1.432-9.978-6.399
			c-0.158-0.701-0.174-1.421-0.206-2.176c-0.108-2.581-0.25-5.945-3.71-10.85c2.128,0.169,4.849,0.804,7.478,2.679
			c0.735,0.524,1.706,0.535,2.452,0.037c0.746-0.501,1.107-1.408,0.901-2.278c-1.556-6.781,2.025-10.238,4.994-11.881
			c-0.011,2.394,0.794,4.337,1.545,6.125c0.741,1.777,1.438,3.462,1.54,5.714c0.031,0.804,0.522,1.532,1.263,1.872
			c0.752,0.335,1.606,0.227,2.244-0.285c2.426-1.956,5.031-2.776,7.071-3.09c-3.09,5.163-2.979,8.527-2.884,11.108
			c0.026,0.772,0.062,1.474-0.037,2.181c-1.023,7.074-4.926,7.098-9.45,7.124L95.899,49.734z M98.789,97.706
			c0.037-0.152,0.103-0.321,0.103-0.495v-8.698c1.253,1.872,2.711,3.617,4.515,5.062c1.624,1.3,3.417,2.291,5.278,3.082
			c-1.856,0.791-3.654,1.762-5.278,3.059c-1.859,1.487-3.349,3.28-4.617,5.221V97.706z M152.539,127.406
			c0.168,0,0.337,0.048,0.495,0.132c1.05,0.58,2.368,0.211,2.938-0.833c0.195-0.337,0.29-0.728,0.285-1.103
			c0.537,1.145,0.543,2.526-0.116,3.697c-0.749,1.329-2.458,1.804-3.786,1.065c-0.417-0.232-0.712-0.622-0.839-1.076
			c-0.127-0.464-0.074-0.949,0.169-1.371C151.853,127.597,152.185,127.406,152.539,127.406z M151.948,112.024
			c-1.729,2.193-3.407,4.54-5.089,6.908c-1.07,1.492-2.142,2.974-3.206,4.413c-0.074,0.09-0.138,0.143-0.201,0.228
			c-0.021,0.042-0.026,0.073-0.062,0.115c-6.223,8.354-12.946,15.293-24.464,15.293c-0.026,0-0.068,0-0.101,0
			c-5.553-0.01-10.6-2.225-14.175-6.228c-2.486-2.79-4.047-6.333-4.793-10.173c1.015,0.812,2.193,1.487,3.56,1.962
			c1.022,0.343,2.083,0.517,3.116,0.517c4.013,0,7.778-2.531,9.165-6.539c0.701-2.066,0.564-4.281-0.385-6.232
			c-0.965-1.951-2.626-3.438-4.683-4.135c-1.756-0.602-3.645-0.496-5.321,0.321c-1.672,0.817-2.929,2.241-3.536,4.003
			c-0.521,1.519-0.413,3.143,0.288,4.588c0.706,1.455,1.919,2.531,3.443,3.037c1.134,0.391,2.368-0.211,2.742-1.339v-0.011
			c0.602-0.707,0.723-1.719,0.206-2.531c-0.512-0.802-1.461-1.129-2.347-0.907c-0.037-0.073-0.132-0.084-0.164-0.147
			c-0.2-0.4-0.227-0.859-0.079-1.281c0.227-0.676,0.707-1.219,1.345-1.514c0.622-0.316,1.351-0.358,2.025-0.116
			c0.965,0.338,1.74,1.013,2.188,1.931c0.448,0.928,0.521,1.972,0.189,2.953c-0.96,2.784-4.023,4.271-6.797,3.322
			c-4.639-1.604-5.016-5.759-4.459-9.123c1.097-3.196,3.035-6.049,5.74-8.227c3.755-3.027,8.49-4.388,13.268-3.871
			c3.724,0.4,7.072,2.236,9.413,5.157c2.353,2.916,3.417,6.576,3.012,10.294c-0.322,2.869-1.72,5.432-3.966,7.24
			c-2.252,1.809-5.062,2.632-7.926,2.32c-1.208-0.143-2.252,0.744-2.379,1.914c-0.121,1.187,0.738,2.247,1.914,2.368
			c8.27,0.901,15.752-5.1,16.648-13.379c0.533-4.872-0.864-9.661-3.939-13.474c-1.75-2.193-3.976-3.854-6.449-5.025
			c2.468-1.171,4.693-2.821,6.444-5.025c3.069-3.818,4.467-8.606,3.939-13.466c-0.902-8.274-8.38-14.307-16.648-13.39
			c-1.187,0.127-2.041,1.194-1.914,2.379c0.132,1.181,1.187,2.083,2.378,1.911c5.896-0.627,11.248,3.649,11.892,9.563
			c0.406,3.715-0.664,7.37-3.017,10.291c-2.341,2.916-5.689,4.76-9.407,5.157c-4.794,0.512-9.514-0.846-13.269-3.878
			c-3.059-2.455-5.131-5.783-6.096-9.519c-0.245-3.067,0.557-6.432,4.609-7.831c2.805-0.955,5.848,0.54,6.797,3.316
			c0.338,0.981,0.264,2.03-0.185,2.953s-1.229,1.608-2.204,1.933c-0.675,0.227-1.387,0.185-2.009-0.113
			c-0.633-0.313-1.113-0.846-1.345-1.526c-0.148-0.427-0.122-0.881,0.079-1.287c0.031-0.068,0.121-0.081,0.163-0.134
			c0.881,0.221,1.835-0.108,2.347-0.907c0.527-0.81,0.396-1.83-0.206-2.539c0,0,0,0,0-0.006c-0.379-1.134-1.613-1.727-2.742-1.345
			c-1.519,0.52-2.742,1.601-3.443,3.035c-0.706,1.447-0.804,3.074-0.279,4.591c0.599,1.767,1.861,3.198,3.528,4.002
			c0.97,0.47,1.998,0.707,3.037,0.707c0.76,0,1.529-0.119,2.263-0.377c2.066-0.704,3.728-2.167,4.698-4.137
			c0.954-1.949,1.097-4.164,0.385-6.244c-1.719-5.042-7.225-7.731-12.281-6.004c-1.269,0.438-2.365,1.058-3.32,1.793
			c0.76-3.771,2.31-7.256,4.76-10.012c3.575-4.002,8.622-6.209,14.175-6.23c0.026,0,0.063,0,0.101,0
			c11.512,0,18.24,6.942,24.463,15.304c0.032,0.031,0.037,0.074,0.063,0.108c0.048,0.063,0.105,0.114,0.147,0.167
			c1.087,1.463,2.168,2.958,3.259,4.477c1.683,2.365,3.359,4.72,5.089,6.9c5.353,6.739,10.241,12.743,16.532,15.372
			C162.189,99.257,157.294,105.284,151.948,112.024z"/>
	</g>
</g>
<g>
</g>
<g>
</g>
<g>
</g>
<g>
</g>
<g>
</g>
<g>
</g>
<g>
</g>
<g>
</g>
<g>
</g>
<g>
</g>
<g>
</g>
<g>
</g>
<g>
</g>
<g>
</g>
<g>
</g>
</svg>
