<?xml version="1.0" encoding="iso-8859-1"?>
<!-- Generator: Adobe Illustrator 16.0.0, SVG Export Plug-In . SVG Version: 6.00 Build 0)  -->
<!DOCTYPE svg PUBLIC "-//W3C//DTD SVG 1.1//EN" "http://www.w3.org/Graphics/SVG/1.1/DTD/svg11.dtd">
<svg version="1.1" id="Capa_1" xmlns="http://www.w3.org/2000/svg" xmlns:xlink="http://www.w3.org/1999/xlink" x="0px" y="0px"
	 width="135.644px" height="135.644px" viewBox="0 0 135.644 135.644" style="enable-background:new 0 0 135.644 135.644;"
	 xml:space="preserve">
<g>
	<path d="M135.011,85.728c-0.644-2.236-2.615-3.907-5.062-3.907c-2.953,0-5.348,2.394-5.348,5.357c0,2.953,2.395,5.348,5.348,5.348
		c0.105,0,0.189-0.063,0.295-0.063c-2.066,4.957-6.955,8.438-12.646,8.438c-9.745,0-17.666-7.921-17.666-17.666
		c0-12.477,10.146-22.62,22.612-22.62c1.197,0,2.162-0.968,2.162-2.154c0-1.189-0.976-2.16-2.162-2.16
		c-3.417,0-6.665,0.707-9.682,1.877c0.443-1.382,0.749-2.824,0.749-4.351c0-9.65-7.853-17.503-17.497-17.503
		c-2.574,0-5.005,0.53-7.288,1.366c1.688-3.262,2.731-6.906,2.731-10.826c0-13.103-10.663-23.755-23.754-23.755
		c-13.097,0-23.754,10.658-23.754,23.755c0,3.92,1.042,7.559,2.731,10.826c-2.283-0.836-4.714-1.366-7.285-1.366
		c-4.675,0-9.07,1.819-12.376,5.126c-3.304,3.304-5.124,7.705-5.118,12.377c0,1.521,0.301,2.964,0.738,4.345
		c-3.011-1.166-6.252-1.872-9.671-1.872c-1.192,0-2.16,0.97-2.16,2.16c0,1.187,0.973,2.154,2.16,2.154
		c12.479,0,22.625,10.153,22.625,22.62c0,9.756-7.931,17.666-17.668,17.666c-5.664,0-10.534-3.454-12.62-8.363
		c0.093,0,0.164,0.053,0.253,0.053c2.961,0,5.353-2.395,5.353-5.358c0-2.953-2.392-5.347-5.353-5.347
		c-2.408,0-4.372,1.629-5.042,3.817C0.237,86.082,0,86.62,0,87.2c0,9.945,8.084,18.024,18.025,18.024
		c11.942,0,21.645-9.576,21.935-21.452h25.689V108.9c-0.67,0.354-1.287,0.896-1.772,1.613l-7.507,11.08
		c-0.448,0.664-0.496,1.519-0.119,2.225c0.38,0.707,1.107,1.15,1.912,1.15h2.895c-0.026,0.231-0.134,0.442-0.134,0.686
		c0,3.797,3.083,6.881,6.89,6.881c3.813,0,6.89-3.084,6.89-6.881c0-0.243-0.113-0.454-0.135-0.686h2.897c0.032,0,0.074,0,0.111,0
		c1.191,0,2.156-0.971,2.156-2.152c0-0.675-0.316-1.275-0.785-1.677l-7.198-10.626c-0.485-0.717-1.097-1.25-1.772-1.613V83.772
		h25.714c0.295,11.859,9.993,21.452,21.932,21.452c9.936,0,18.02-8.079,18.02-18.024C135.628,86.635,135.391,86.124,135.011,85.728z
		 M87.249,26.869c0,7.473-4.282,13.893-10.468,17.149c2.405-4.298,3.902-10.331,3.902-17.149c0-6.821-1.487-12.852-3.902-17.144
		C82.967,12.979,87.249,19.402,87.249,26.869z M69.958,45.5V8.238c3.338,2.215,6.391,9.207,6.391,18.631
		C76.349,36.297,73.307,43.291,69.958,45.5z M65.649,8.243V45.5c-3.333-2.209-6.389-9.207-6.389-18.631S62.306,10.453,65.649,8.243z
		 M58.844,9.725c-2.413,4.292-3.91,10.322-3.91,17.144c0,6.818,1.492,12.852,3.91,17.149c-6.193-3.257-10.476-9.677-10.476-17.149
		C48.363,19.402,52.645,12.979,58.844,9.725z M39.609,79.332c-0.598-4.082-2.02-7.899-4.25-11.18
		c0.359,0.026,0.704,0.116,1.065,0.116c6.605,0,11.976-5.379,11.976-11.987c0-0.604-0.258-1.155-0.665-1.542
		c-0.593-2.06-2.413-3.586-4.659-3.586c-2.731,0-4.941,2.212-4.941,4.941c0,2.521,1.912,4.52,4.354,4.825
		c-1.405,1.827-3.586,3.035-6.059,3.035c-5.574,0-10.109-4.536-10.109-10.107c0-3.523,1.366-6.832,3.86-9.326
		c2.492-2.489,5.795-3.863,9.321-3.863c9.381,0,17.009,7.631,17.009,17.012C56.51,67.382,51.991,78.583,39.609,79.332z
		 M51.614,79.463c5.782-4.467,9.218-12.161,9.218-21.803c0-3.148-0.73-6.12-1.954-8.81c2.115,0.859,4.401,1.339,6.771,1.556v29.057
		H51.614L51.614,79.463z M69.958,79.463V50.407c2.371-0.216,4.659-0.696,6.782-1.561c-1.236,2.695-1.959,5.667-1.959,8.815
		c0,9.642,3.436,17.336,9.215,21.803H69.958z M79.102,57.661c0-9.382,7.626-17.013,17.013-17.013c7.267,0,13.178,5.92,13.178,13.184
		c-0.005,5.571-4.54,10.106-10.114,10.106c-2.463,0-4.625-1.187-6.033-3c2.516-0.232,4.499-2.281,4.499-4.849
		c0-2.729-2.215-4.941-4.941-4.941c-2.199,0-3.992,1.463-4.636,3.448c-0.517,0.396-0.864,0.989-0.864,1.685
		c0,6.608,5.379,11.987,11.986,11.987c0.363,0,0.717-0.09,1.07-0.116c-2.22,3.27-3.649,7.098-4.245,11.18
		C83.626,78.593,79.102,67.392,79.102,57.661z"/>
</g>
<g>
</g>
<g>
</g>
<g>
</g>
<g>
</g>
<g>
</g>
<g>
</g>
<g>
</g>
<g>
</g>
<g>
</g>
<g>
</g>
<g>
</g>
<g>
</g>
<g>
</g>
<g>
</g>
<g>
</g>
</svg>
