<?xml version="1.0" encoding="iso-8859-1"?>
<!-- Generator: Adobe Illustrator 16.0.0, SVG Export Plug-In . SVG Version: 6.00 Build 0)  -->
<!DOCTYPE svg PUBLIC "-//W3C//DTD SVG 1.1//EN" "http://www.w3.org/Graphics/SVG/1.1/DTD/svg11.dtd">
<svg version="1.1" id="Capa_1" xmlns="http://www.w3.org/2000/svg" xmlns:xlink="http://www.w3.org/1999/xlink" x="0px" y="0px"
	 width="179.191px" height="179.19px" viewBox="0 0 179.191 179.19" style="enable-background:new 0 0 179.191 179.19;"
	 xml:space="preserve">
<g>
	<g>
		<path d="M87.47,91.987c7.299,0,13.737-4.113,17.176-10.168c0.074-0.113,0.143-0.2,0.206-0.329c1.244-2.334,2.099-4.894,2.33-7.657
			c0.232-2.798-0.147-5.498-1.007-7.986c-0.063-0.361-0.18-0.736-0.448-1.026c-0.005-0.005-0.011-0.005-0.016-0.01
			c-1.593-3.932-4.388-7.233-8-9.439c-0.026-0.04-0.037-0.082-0.063-0.114c-0.354-0.412-0.833-0.643-1.334-0.73
			c-2.199-1.107-4.619-1.846-7.211-2.067c-2.627-0.227-5.163,0.113-7.534,0.854c-0.488,0-0.983,0.121-1.384,0.479
			c-0.037,0.032-0.047,0.074-0.084,0.113c-3.895,1.593-7.172,4.38-9.393,7.932c-0.026,0.029-0.058,0.034-0.087,0.055
			c-0.34,0.29-0.532,0.669-0.646,1.062c-1.231,2.312-2.025,4.86-2.257,7.594c-0.904,10.874,7.214,20.451,18.088,21.368
			C86.363,91.966,86.919,91.987,87.47,91.987z M93.972,86.134l-4.2-4.968l6.257-5.292l4.172,4.931
			C98.629,83.099,96.483,84.934,93.972,86.134z M86.975,77.867l-5.297-6.26l6.257-5.297l5.3,6.265L86.975,77.867z M102.875,73.487
			c-0.101,1.063-0.307,2.112-0.591,3.088l-2.959-3.488l3.449-2.922C102.921,71.252,102.969,72.359,102.875,73.487z M101.403,65.662
			l-4.856,4.121l-5.3-6.265l4.835-4.082C98.375,61.003,100.211,63.141,101.403,65.662z M87.455,56.726
			c0.433,0,0.865,0.016,1.289,0.053c1.065,0.092,2.097,0.292,3.083,0.572l-3.384,2.858l-2.808-3.312
			C86.229,56.834,86.827,56.726,87.455,56.726z M81.055,58.184l4.076,4.838l-6.257,5.287l-4.11-4.843
			C76.357,61.169,78.535,59.354,81.055,58.184z M72.08,74.055c-0.118-1.016-0.145-2.075-0.058-3.138
			c0.098-1.123,0.335-2.199,0.664-3.241l2.893,3.42L72.08,74.055z M73.43,78.574l4.941-4.174l5.297,6.257L78.69,84.87
			C76.407,83.278,74.598,81.105,73.43,78.574z M86.46,83.958l3.02,3.562c-1.081,0.143-2.181,0.195-3.31,0.1
			c-1.136-0.095-2.226-0.326-3.27-0.648L86.46,83.958z"/>
		<path d="M179.001,106.389c-0.892-4.029-5.152-6.702-9.123-5.816c-1.819,0.396-3.317,1.481-4.408,2.953
			c-9.867-3.955-18.568,1.603-28.551,8.147c-2.125,1.408-4.256,2.953-6.386,4.52c1.829-5.073,1.371-10.432-1.678-15.62
			c-0.59-1.028-1.914-1.377-2.953-0.775c-1.018,0.591-1.376,1.914-0.77,2.953c4.113,7.045,2.299,14.286-5.015,20.551
			c-7.014,4.182-14.328,6.592-23.229,3.628c-1.397-0.47-2.674-1.097-3.871-1.809c4.952-5.042,7.462-12.177,6.603-19.913
			c1.36-0.169,2.663-0.633,3.765-1.413c1.44-1.007,2.516-2.384,3.117-3.986c1.698-0.158,3.401-0.512,4.836-1.477
			c1.181-0.802,2.141-1.909,2.773-3.196c0.807-1.624,1.06-3.464,0.765-5.204c1.729-0.433,3.285-1.414,4.419-2.816
			c0.929-1.103,1.535-2.384,1.799-3.826c0.321-1.722,0.095-3.488-0.617-5.049c1.218-1.205,2.057-2.766,2.394-4.504
			c0.248-1.392,0.132-2.84-0.321-4.179c-0.58-1.746-1.683-3.215-3.138-4.219c0.907-1.521,1.334-3.325,1.145-5.129
			c-0.121-1.426-0.628-2.803-1.45-3.941c-0.986-1.458-2.389-2.545-4.003-3.138c0.016-1.72-0.49-3.426-1.481-4.865
			c-0.817-1.179-1.92-2.128-3.18-2.75c-1.599-0.794-3.471-1.073-5.221-0.778c-0.438-1.716-1.408-3.293-2.812-4.454
			c-1.097-0.896-2.42-1.503-3.812-1.761c-1.756-0.335-3.491-0.093-5.052,0.604c-1.202-1.231-2.758-2.057-4.482-2.365
			c-1.437-0.269-2.834-0.161-4.227,0.293c-1.719,0.583-3.183,1.7-4.203,3.153c-1.532-0.918-3.412-1.308-5.139-1.149
			c-1.464,0.134-2.798,0.625-3.947,1.447c-1.458,0.997-2.544,2.392-3.143,3.995c-1.843-0.032-3.42,0.509-4.838,1.479
			c-1.173,0.794-2.133,1.906-2.776,3.193c-0.815,1.635-1.065,3.478-0.762,5.21c-1.727,0.433-3.277,1.421-4.417,2.813
			c-0.891,1.042-1.514,2.365-1.809,3.855c-0.314,1.724-0.082,3.478,0.625,5.039c-1.213,1.194-2.052,2.742-2.381,4.456
			c-0.27,1.442-0.172,2.855,0.292,4.237c0.583,1.701,1.701,3.183,3.148,4.203c-0.912,1.516-1.339,3.33-1.149,5.163
			c0.155,1.426,0.656,2.787,1.45,3.931c0.999,1.445,2.399,2.521,4.002,3.111c-0.016,1.714,0.485,3.406,1.479,4.847
			c0.799,1.181,1.864,2.109,3.188,2.784c1.598,0.791,3.47,1.07,5.21,0.765c0.438,1.708,1.408,3.28,2.818,4.435
			c1.097,0.896,2.407,1.509,3.818,1.777c1.097,0.195,2.154,0.116,3.19-0.09c-0.696,7.536,1.819,14.486,6.668,19.422
			c-1.197,0.707-2.471,1.335-3.865,1.804c-8.894,2.975-16.216,0.575-23.225-3.606c-7.312-6.255-9.131-13.521-5.018-20.562
			c0.604-1.028,0.253-2.368-0.772-2.964c-1.031-0.601-2.36-0.264-2.953,0.781c-3.035,5.188-3.494,10.536-1.669,15.619
			c-2.139-1.561-4.261-3.116-6.394-4.524c-9.983-6.544-18.689-12.103-28.542-8.142c-1.097-1.461-2.6-2.553-4.398-2.948
			c-4.055-0.934-8.25,1.782-9.136,5.796c-0.448,1.972-0.098,4.018,0.988,5.731c1.097,1.74,2.803,2.948,4.812,3.401
			c0.551,0.121,1.112,0.185,1.669,0.185c3.607,0,6.679-2.468,7.462-5.975c0.161-0.733,0.103-1.45,0.061-2.151
			c6.204-2.584,11.862-0.332,19.704,4.52c-5.244,0.037-9.893,2.215-13.566,6.471c-0.701-0.428-1.442-0.818-2.262-1.019
			c-4.103-0.901-8.213,1.72-9.142,5.801c-0.931,4.13,1.674,8.216,5.809,9.155c0.551,0.11,1.113,0.179,1.669,0.179
			c3.555,0,6.697-2.525,7.47-5.979c0.382-1.683,0.063-3.37-0.67-4.915c5.107-6.275,12.656-7.161,21.355-2.362
			c0.126,0.073,0.256,0.084,0.385,0.11c0.274,0.195,0.546,0.374,0.815,0.569c0.859,0.623,1.735,1.256,2.608,1.904
			c-4.823,0.316-9.11,2.452-12.554,6.418c-0.696-0.412-1.427-0.797-2.241-0.997c-4.055-0.896-8.258,1.788-9.149,5.796
			c-0.454,1.987-0.1,4.033,0.989,5.764c1.097,1.719,2.803,2.932,4.807,3.385c0.551,0.111,1.118,0.19,1.68,0.19
			c3.618,0,6.689-2.468,7.462-5.985c0.385-1.683,0.066-3.381-0.669-4.92c5.125-6.291,12.68-7.151,21.368-2.353
			c0.266,0.138,0.546,0.232,0.823,0.264c3.937,1.762,8.126,2.948,12.672,2.948c2.896,0,5.93-0.464,9.126-1.529
			c2.188-0.733,4.126-1.809,5.925-3.037c1.798,1.233,3.736,2.325,5.925,3.042c3.195,1.061,6.228,1.524,9.123,1.524
			c4.545,0,8.722-1.187,12.672-2.948c0.279-0.031,0.559-0.116,0.822-0.264c8.67-4.814,16.231-3.938,21.368,2.353
			c-0.743,1.539-1.05,3.243-0.67,4.904c0.775,3.543,3.839,6.012,7.457,6.012c0.559,0,1.123-0.079,1.677-0.19
			c2.009-0.453,3.718-1.666,4.82-3.396c1.081-1.72,1.439-3.766,0.991-5.743c-0.896-4.019-5.104-6.708-9.149-5.806
			c-0.812,0.185-1.545,0.569-2.247,0.996c-3.443-3.965-7.73-6.127-12.545-6.418c0.87-0.622,1.745-1.255,2.6-1.903
			c0.274-0.195,0.554-0.374,0.817-0.569c0.121-0.042,0.264-0.053,0.374-0.111c8.712-4.804,16.259-3.923,21.357,2.363
			c-0.732,1.545-1.038,3.243-0.669,4.909c0.785,3.491,3.923,5.985,7.478,5.985c0.559,0,1.123-0.068,1.677-0.189
			c4.124-0.929,6.729-5.047,5.801-9.149c-0.923-4.071-5.067-6.697-9.145-5.796c-0.817,0.185-1.565,0.575-2.268,1.018
			c-3.681-4.271-8.326-6.449-13.562-6.486c7.852-4.856,13.51-7.093,19.696-4.52c-0.043,0.713-0.105,1.43,0.062,2.146
			c0.786,3.513,3.855,5.98,7.468,5.98c0.559,0,1.123-0.068,1.677-0.189c2.004-0.449,3.713-1.656,4.81-3.396
			C179.096,110.401,179.45,108.355,179.001,106.389z M10.921,108.772c-0.396,1.782-2.252,2.89-3.977,2.547
			c-0.873-0.2-1.619-0.738-2.099-1.487c-0.472-0.759-0.627-1.635-0.427-2.499c0.335-1.514,1.696-2.611,3.241-2.611
			c0.242,0,0.485,0.043,0.738,0.096c0.875,0.2,1.616,0.717,2.096,1.461C10.963,107.017,11.108,107.902,10.921,108.772z
			 M20.646,125.763c-0.388,1.751-2.294,2.891-3.968,2.537c-1.809-0.411-2.948-2.204-2.544-3.992c0.351-1.534,1.685-2.61,3.251-2.61
			c0.243,0,0.491,0.032,0.741,0.09c0.868,0.195,1.608,0.717,2.088,1.472C20.696,124.002,20.851,124.894,20.646,125.763z
			 M36.144,135.667c-0.39,1.771-2.247,2.91-3.981,2.525c-0.873-0.195-1.614-0.723-2.094-1.466c-0.475-0.765-0.627-1.65-0.427-2.521
			c0.335-1.508,1.7-2.605,3.256-2.605c0.243,0,0.491,0.037,0.741,0.096c0.862,0.189,1.603,0.711,2.078,1.466
			C36.181,133.9,36.344,134.791,36.144,135.667z M77.113,101.542c-0.701-0.126-1.334-0.432-1.88-0.875
			c-1.118-0.918-1.674-2.362-1.448-3.808c0.137-0.833-0.237-1.683-0.949-2.136s-1.637-0.475-2.349-0.021
			c-1.231,0.786-2.855,0.854-4.082,0.259c-0.644-0.332-1.168-0.786-1.566-1.366c-0.696-1.018-0.901-2.272-0.562-3.453
			c0.171-0.623,0.071-1.271-0.293-1.814c-0.361-0.533-0.938-0.865-1.576-0.938c-1.237-0.111-2.36-0.771-3.056-1.782
			c-0.393-0.557-0.63-1.221-0.707-1.912c-0.146-1.466,0.479-2.848,1.674-3.718c0.686-0.506,1.016-1.36,0.836-2.181
			c-0.171-0.83-0.82-1.479-1.653-1.674c-1.413-0.325-2.584-1.355-3.05-2.732c-0.227-0.665-0.269-1.35-0.14-2.041
			c0.232-1.237,0.979-2.268,2.046-2.858c0.562-0.312,0.957-0.852,1.076-1.484c0.119-0.63-0.05-1.279-0.464-1.772
			c-0.789-0.949-1.118-2.19-0.907-3.375c0.145-0.728,0.443-1.371,0.886-1.9c0.923-1.129,2.365-1.683,3.823-1.461
			c0.852,0.11,1.677-0.256,2.139-0.973c0.459-0.72,0.454-1.643-0.008-2.354c-0.789-1.215-0.873-2.777-0.227-4.066
			c0.313-0.633,0.783-1.179,1.357-1.561c0.992-0.691,2.273-0.896,3.449-0.562c0.611,0.177,1.281,0.077,1.809-0.308
			c0.53-0.356,0.87-0.944,0.931-1.582c0.113-1.242,0.744-2.334,1.804-3.046c0.548-0.377,1.191-0.609,2.325-0.717
			c1.292,0,2.54,0.63,3.328,1.69c0.501,0.686,1.355,1.015,2.191,0.815c0.828-0.18,1.474-0.82,1.653-1.669
			c0.298-1.403,1.345-2.587,2.695-3.035c0.664-0.211,1.35-0.274,2.083-0.129c1.21,0.221,2.241,0.959,2.842,2.035
			c0.314,0.562,0.857,0.968,1.49,1.076c0.627,0.113,1.281-0.061,1.777-0.464c0.938-0.791,2.151-1.147,3.401-0.886
			c0.706,0.119,1.339,0.403,1.877,0.836c1.118,0.928,1.672,2.387,1.445,3.839c-0.132,0.833,0.242,1.686,0.954,2.139
			c0.712,0.47,1.635,0.47,2.357,0.005c1.224-0.789,2.795-0.875,4.098-0.227c0.616,0.319,1.149,0.783,1.55,1.345
			c0.696,1.016,0.902,2.273,0.56,3.468c-0.175,0.609-0.069,1.273,0.306,1.813c0.354,0.536,0.938,0.865,1.576,0.929
			c1.234,0.113,2.347,0.772,3.043,1.806c0.396,0.56,0.639,1.219,0.701,1.909c0.148,1.447-0.49,2.863-1.671,3.723
			c-0.686,0.501-1.019,1.361-0.839,2.18c0.174,0.831,0.822,1.479,1.661,1.675c1.445,0.319,2.584,1.334,3.048,2.731
			c0.227,0.665,0.274,1.355,0.158,2.025c-0.231,1.231-0.991,2.268-2.057,2.85c-0.564,0.319-0.97,0.854-1.081,1.487
			c-0.121,0.636,0.053,1.29,0.464,1.791c0.786,0.952,1.124,2.183,0.896,3.399c-0.126,0.696-0.416,1.311-0.88,1.88
			c-0.907,1.104-2.326,1.68-3.803,1.442c-0.844-0.111-1.677,0.247-2.136,0.976c-0.475,0.706-0.475,1.635,0,2.347
			c0.786,1.233,0.865,2.795,0.222,4.087c-0.327,0.643-0.775,1.16-1.334,1.545c-1.023,0.696-2.326,0.912-3.491,0.58
			c-0.622-0.18-1.281-0.074-1.809,0.306c-0.527,0.358-0.87,0.944-0.923,1.582c-0.116,1.239-0.76,2.347-1.772,3.038
			c-0.559,0.369-1.229,0.616-2.32,0.717c-1.323,0-2.578-0.628-3.338-1.688c-0.501-0.691-1.365-1.018-2.193-0.839
			c-0.828,0.175-1.484,0.823-1.669,1.672c-0.309,1.419-1.351,2.589-2.716,3.043c-0.659,0.211-1.34,0.274-2.067,0.126
			c-1.216-0.221-2.252-0.975-2.853-2.046c-0.314-0.559-0.862-0.954-1.5-1.07c-0.124-0.021-0.253-0.037-0.385-0.037
			c-0.506,0-1.002,0.175-1.392,0.512C79.565,101.432,78.268,101.748,77.113,101.542z M89.598,122.504
			c-4.098-3.896-6.286-9.471-5.875-15.688c0.669,0.327,1.361,0.591,2.104,0.744c0.53,0.095,1.06,0.143,1.579,0.143
			c0.902,0,1.785-0.143,2.655-0.433c1.717-0.58,3.188-1.698,4.217-3.153c0.284,0.158,0.611,0.242,0.923,0.369
			C96.377,111.641,94.2,118.127,89.598,122.504z M143.485,133.146c0.475-0.77,1.224-1.275,2.078-1.466
			c0.253-0.058,0.501-0.084,0.743-0.084c1.551,0,2.922,1.097,3.254,2.604c0.2,0.86,0.042,1.746-0.433,2.511
			c-0.475,0.759-1.224,1.271-2.099,1.466c-1.804,0.375-3.592-0.754-3.981-2.547C142.847,134.791,143.01,133.9,143.485,133.146z
			 M158.978,123.242c0.48-0.77,1.234-1.276,2.094-1.471c0.242-0.059,0.501-0.09,0.743-0.09c1.566,0,2.9,1.075,3.249,2.604
			c0.406,1.793-0.733,3.586-2.531,3.992c-1.756,0.369-3.592-0.78-3.987-2.541C158.34,124.894,158.503,124.002,158.978,123.242z
			 M174.345,109.816c-0.48,0.765-1.224,1.286-2.089,1.487c-1.798,0.385-3.591-0.765-3.986-2.553
			c-0.185-0.854-0.042-1.751,0.433-2.51c0.475-0.765,1.229-1.256,2.114-1.461c0.237-0.068,0.485-0.095,0.728-0.095
			c1.546,0,2.906,1.097,3.243,2.626C174.978,108.182,174.831,109.067,174.345,109.816z"/>
	</g>
</g>
<g>
</g>
<g>
</g>
<g>
</g>
<g>
</g>
<g>
</g>
<g>
</g>
<g>
</g>
<g>
</g>
<g>
</g>
<g>
</g>
<g>
</g>
<g>
</g>
<g>
</g>
<g>
</g>
<g>
</g>
</svg>
