<?xml version="1.0" encoding="iso-8859-1"?>
<!-- Generator: Adobe Illustrator 16.0.0, SVG Export Plug-In . SVG Version: 6.00 Build 0)  -->
<!DOCTYPE svg PUBLIC "-//W3C//DTD SVG 1.1//EN" "http://www.w3.org/Graphics/SVG/1.1/DTD/svg11.dtd">
<svg version="1.1" id="Capa_1" xmlns="http://www.w3.org/2000/svg" xmlns:xlink="http://www.w3.org/1999/xlink" x="0px" y="0px"
	 width="191.652px" height="191.652px" viewBox="0 0 191.652 191.652" style="enable-background:new 0 0 191.652 191.652;"
	 xml:space="preserve">
<g>
	<g>
		<path d="M191.015,90.518c-0.506-0.931-1.287-1.664-2.23-2.112c0.343-0.983,0.385-2.057,0.09-3.077
			c-0.232-0.828-0.654-1.561-1.266-2.188c-0.738-0.722-1.656-1.197-2.627-1.381c-0.189-0.983-0.664-1.901-1.402-2.645
			c-0.602-0.596-1.334-1.023-2.162-1.276c-1.013-0.285-2.114-0.248-3.069,0.097c-0.448-0.933-1.181-1.727-2.109-2.247
			c-1.682-0.901-3.765-0.788-5.284,0.253c-1.497-1.03-3.58-1.165-5.283-0.248c-0.955,0.525-1.683,1.308-2.126,2.231
			c-0.976-0.34-2.051-0.377-3.063-0.087c-0.844,0.248-1.571,0.68-2.162,1.286c-0.728,0.728-1.202,1.641-1.393,2.624
			c-0.996,0.182-1.914,0.664-2.642,1.397c-0.611,0.627-1.039,1.355-1.271,2.178c-0.29,1.015-0.243,2.083,0.105,3.056
			c-0.929,0.448-1.709,1.176-2.221,2.099c-0.422,0.746-0.644,1.59-0.644,2.447c0,0.551,0.111,1.081,0.27,1.582h-7.099
			c0.966-0.551,1.872-1.176,2.68-1.912c3.259-2.911,5.062-6.977,5.062-11.47c0.031-8.91-5.495-14.196-11.296-18.554
			c-1.355-1.037-2.722-2.689-1.809-4.799c-0.443,1.511,0.185,3.185,1.624,3.983c1.914,1.076,4.324,0.385,5.399-1.505
			c0.597-1.081,0.765-2.329,0.428-3.518c-0.338-1.192-1.107-2.181-2.188-2.784c-1.271-0.707-2.753-0.881-4.161-0.488
			c-1.392,0.401-2.542,1.313-3.243,2.565c-0.559,1.026-0.754,2.07-0.754,3.106c-1.002-0.726-2.02-1.438-2.964-2.184
			c-6.95-5.523-10.853-8.941-9.945-14.845c0.358-2.37,1.672-4.464,3.654-5.885c2.067-1.469,4.678-2.041,7.167-1.608
			c1.898,0.335,3.533,1.392,4.619,2.969c1.103,1.577,1.519,3.494,1.182,5.39c-0.122,0.735,0.348,1.437,1.086,1.571
			c0.728,0.119,1.445-0.356,1.566-1.092c0.469-2.607-0.111-5.236-1.614-7.414c-1.503-2.165-3.771-3.618-6.375-4.082
			c-3.217-0.577-6.571,0.18-9.218,2.07c-2.584,1.851-4.271,4.577-4.746,7.673c-0.939,6.059,2.33,10.104,6.897,14.056H65.146
			c4.58-3.953,7.831-8.002,6.903-14.056c-0.478-3.106-2.154-5.833-4.76-7.687c-2.645-1.893-6.009-2.639-9.205-2.062
			c-2.592,0.469-4.857,1.922-6.378,4.087c-1.5,2.173-2.085,4.796-1.613,7.398c0.129,0.735,0.788,1.194,1.571,1.092
			c0.733-0.129,1.218-0.839,1.078-1.571c-0.334-1.891,0.082-3.797,1.179-5.374c1.089-1.577,2.742-2.634,4.622-2.974
			c2.521-0.454,5.103,0.134,7.169,1.603c1.983,1.427,3.28,3.515,3.652,5.896c0.907,5.894-2.993,9.311-9.948,14.834
			c-0.944,0.746-1.948,1.458-2.958,2.178c0-1.034-0.161-2.081-0.751-3.101c-0.712-1.263-1.861-2.175-3.254-2.576
			c-1.41-0.393-2.879-0.227-4.163,0.493c-1.081,0.609-1.864,1.603-2.188,2.795c-0.335,1.189-0.166,2.436,0.433,3.507
			c0.53,0.923,1.376,1.587,2.381,1.872c1.025,0.282,2.102,0.153,3.019-0.367c1.437-0.793,2.078-2.479,1.619-3.994
			c0.913,2.088-0.403,3.73-1.743,4.777c-5.833,4.358-11.372,9.656-11.356,18.586c0.011,4.488,1.809,8.554,5.065,11.465
			c0.783,0.696,1.635,1.313,2.537,1.849H41.17c0.135-0.454,0.216-0.926,0.216-1.411c0-0.865-0.216-1.685-0.638-2.437
			c-0.517-0.943-1.295-1.674-2.233-2.117c0.34-0.976,0.388-2.051,0.113-3.071c-0.25-0.825-0.704-1.582-1.281-2.154
			c-0.707-0.723-1.64-1.216-2.624-1.397c-0.19-0.994-0.675-1.917-1.416-2.647c-0.598-0.599-1.36-1.042-2.149-1.263
			c-1.015-0.293-2.123-0.253-3.077,0.087c-0.448-0.937-1.184-1.729-2.112-2.236c-1.659-0.917-3.763-0.783-5.287,0.248
			c-1.484-1.021-3.541-1.194-5.292-0.242c-0.917,0.511-1.648,1.308-2.096,2.235c-0.976-0.34-2.046-0.39-3.083-0.092
			c-0.788,0.231-1.529,0.675-2.165,1.284c-0.725,0.73-1.2,1.643-1.389,2.626c-0.992,0.182-1.912,0.664-2.624,1.392
			C3.446,83.81,3.02,84.529,2.75,85.402c-0.292,1.015-0.242,2.091,0.114,3.069c-0.947,0.448-1.73,1.181-2.247,2.117
			C0.211,91.354,0,92.171,0,93.017c0,1.031,0.319,2.02,0.87,2.845C0.309,96.688,0,97.674,0,98.702c0,0.844,0.216,1.682,0.628,2.431
			c0.506,0.929,1.289,1.667,2.236,2.114c-0.34,0.986-0.39,2.057-0.103,3.075c0.243,0.827,0.665,1.561,1.273,2.188
			c0.741,0.723,1.648,1.197,2.624,1.381c0.189,0.986,0.664,1.904,1.405,2.647c0.599,0.591,1.334,1.019,2.17,1.271
			c1.004,0.279,2.102,0.247,3.061-0.101c0.448,0.934,1.189,1.725,2.118,2.246c0.767,0.412,1.571,0.617,2.404,0.617h0.032
			c1.026,0,2.014-0.306,2.829-0.87c1.5,1.039,3.591,1.171,5.287,0.248c0.952-0.527,1.68-1.308,2.123-2.23
			c0.973,0.332,2.051,0.374,3.067,0.09c0.833-0.248,1.571-0.681,2.159-1.287c0.73-0.728,1.205-1.64,1.395-2.621
			c0.994-0.185,1.912-0.664,2.64-1.397c0.612-0.627,1.025-1.355,1.258-2.178c0.303-1.018,0.256-2.083-0.101-3.053
			c0.934-0.449,1.717-1.177,2.229-2.104c0.422-0.743,0.643-1.587,0.643-2.441c0-0.549-0.108-1.081-0.269-1.582h7.122
			c-0.973,0.554-1.891,1.176-2.7,1.914c-3.262,2.911-5.065,6.977-5.065,11.47c-0.032,8.906,5.492,14.196,11.295,18.552
			c1.355,1.039,2.719,2.689,1.809,4.804c0.443-1.508-0.187-3.185-1.625-3.98c-1.911-1.065-4.319-0.386-5.4,1.502
			c-0.598,1.082-0.762,2.331-0.427,3.513c0.335,1.197,1.107,2.183,2.188,2.79c0.82,0.458,1.738,0.695,2.655,0.695
			c0.509,0,1.015-0.068,1.508-0.205c1.392-0.401,2.542-1.313,3.238-2.568c0.562-1.023,0.757-2.072,0.757-3.106
			c0.999,0.728,2.02,1.44,2.953,2.179c6.961,5.526,10.86,8.943,9.954,14.844c-0.356,2.373-1.669,4.467-3.657,5.891
			c-2.062,1.467-4.675,2.057-7.164,1.608c-1.896-0.332-3.533-1.392-4.617-2.969c-1.102-1.577-1.519-3.491-1.184-5.39
			c0.124-0.738-0.346-1.439-1.084-1.571c-0.741-0.126-1.447,0.354-1.566,1.087c-0.482,2.609,0.108,5.241,1.614,7.414
			c1.5,2.167,3.757,3.623,6.378,4.087c0.707,0.121,1.424,0.185,2.138,0.185c2.521,0,5.021-0.791,7.085-2.257
			c2.586-1.852,4.282-4.577,4.756-7.673c0.939-6.097-2.365-10.157-6.992-14.133h61.496c-4.609,3.981-7.932,8.042-6.992,14.133
			c0.475,3.105,2.156,5.832,4.767,7.684c2.062,1.477,4.557,2.251,7.072,2.251c0.722,0,1.439-0.063,2.136-0.185
			c2.594-0.469,4.861-1.919,6.381-4.092c1.503-2.168,2.088-4.794,1.613-7.394c-0.127-0.738-0.791-1.213-1.571-1.092
			c-0.733,0.127-1.219,0.833-1.076,1.571c0.332,1.894-0.084,3.797-1.181,5.374c-1.087,1.577-2.742,2.632-4.62,2.975
			c-2.51,0.458-5.104-0.127-7.161-1.604c-1.993-1.429-3.291-3.512-3.66-5.901c-0.906-5.89,2.99-9.307,9.951-14.828
			c0.938-0.749,1.946-1.461,2.953-2.178c0,1.027,0.164,2.082,0.754,3.101c0.707,1.26,1.856,2.173,3.254,2.578
			c0.496,0.138,1.002,0.211,1.492,0.211c0.929,0,1.836-0.237,2.663-0.706c1.081-0.606,1.862-1.604,2.188-2.801
			c0.338-1.187,0.169-2.431-0.432-3.501c-0.527-0.923-1.377-1.588-2.384-1.872c-1.023-0.29-2.099-0.148-3.017,0.363
			c-1.435,0.791-2.072,2.479-1.619,3.992c-0.907-2.088,0.406-3.729,1.746-4.777c5.832-4.361,11.369-9.656,11.354-18.584
			c-0.011-4.487-1.809-8.554-5.068-11.465c-0.785-0.711-1.682-1.308-2.589-1.851h6.972c-0.121,0.459-0.217,0.929-0.217,1.413
			c0,0.865,0.217,1.683,0.639,2.437c0.517,0.944,1.281,1.672,2.235,2.114c-0.332,0.981-0.39,2.057-0.11,3.075
			c0.242,0.822,0.686,1.582,1.276,2.151c0.706,0.723,1.646,1.218,2.637,1.397c0.189,0.997,0.664,1.914,1.402,2.647
			c0.612,0.596,1.36,1.039,2.162,1.26c1.008,0.301,2.115,0.254,3.064-0.09c0.448,0.939,1.196,1.73,2.125,2.236
			c0.743,0.417,1.582,0.633,2.426,0.633l0,0c1.018-0.005,2.015-0.321,2.832-0.881c1.471,1.018,3.543,1.197,5.289,0.243
			c0.917-0.512,1.65-1.303,2.099-2.236c0.971,0.343,2.046,0.396,3.08,0.095c0.791-0.231,1.529-0.675,2.167-1.281
			c0.723-0.732,1.197-1.646,1.387-2.626c1.002-0.18,1.914-0.665,2.626-1.393c0.591-0.58,1.013-1.302,1.287-2.173
			c0.29-1.018,0.242-2.093-0.116-3.068c0.949-0.448,1.729-1.182,2.247-2.115c0.405-0.77,0.616-1.587,0.616-2.431
			c0-1.028-0.321-2.02-0.87-2.84c0.56-0.828,0.87-1.814,0.87-2.848C191.643,92.104,191.426,91.264,191.015,90.518z M139.852,56.082
			c0.696-0.206,1.45-0.113,2.104,0.248c0.448,0.248,0.775,0.664,0.907,1.154c0.132,0.499,0.079,1.016-0.175,1.464
			c-0.337,0.611-1.117,0.828-1.719,0.479c-0.358-0.197-0.496-0.656-0.295-1.021c0.353-0.651,0.121-1.468-0.533-1.835
			c-0.205-0.113-0.433-0.166-0.653-0.166c-0.153,0-0.333,0.032-0.485,0.09C139.256,56.309,139.546,56.174,139.852,56.082z
			 M51.442,56.562c-0.654,0.361-0.886,1.185-0.53,1.835c0.201,0.369,0.082,0.815-0.303,1.021c-0.295,0.164-0.625,0.206-0.96,0.122
			c-0.335-0.093-0.585-0.304-0.777-0.606c-0.256-0.443-0.319-0.96-0.169-1.453c0.124-0.496,0.459-0.912,0.907-1.16
			c0.411-0.232,0.875-0.351,1.35-0.351c0.256,0,0.509,0.031,0.757,0.108c0.324,0.092,0.599,0.227,0.854,0.414
			C52.236,56.34,51.804,56.361,51.442,56.562z M37.79,96.866c0.026,0.017,0.016,0.053,0.04,0.069
			c0.549,0.448,0.847,1.102,0.847,1.798c0,0.391-0.103,0.775-0.304,1.129c-0.403,0.732-1.149,1.187-1.969,1.207
			c-0.541,0.011-1.015,0.332-1.215,0.823c-0.206,0.49-0.114,1.055,0.258,1.45c0.572,0.611,0.789,1.461,0.562,2.257
			c-0.114,0.38-0.33,0.728-0.588,1.013c-0.453,0.448-1.139,0.78-1.89,0.68c-0.388-0.01-0.789,0.111-1.073,0.385
			c-0.292,0.285-0.422,0.676-0.39,1.071c0.061,0.701-0.188,1.392-0.686,1.898c-0.274,0.274-0.609,0.475-1.015,0.585
			c-0.789,0.222-1.664,0.016-2.268-0.554c-0.367-0.358-0.944-0.47-1.458-0.259c-0.485,0.206-0.804,0.681-0.814,1.213
			c-0.021,0.828-0.469,1.566-1.2,1.968c-1.01,0.554-2.268,0.284-2.953-0.56c-0.264-0.316-0.643-0.49-1.036-0.49H20.63
			c-0.406,0-0.788,0.18-1.034,0.496c-0.43,0.537-1.083,0.838-1.791,0.838l-0.029,1.351v-1.351c-0.382,0-0.759-0.095-1.113-0.29
			c-0.717-0.396-1.176-1.154-1.202-1.982c-0.016-0.527-0.335-1.007-0.823-1.202c-0.166-0.074-0.34-0.105-0.527-0.105
			c-0.334,0-0.669,0.121-0.923,0.363c-0.606,0.564-1.54,0.754-2.247,0.56c-0.4-0.116-0.767-0.333-1.015-0.591
			c-0.509-0.512-0.757-1.197-0.675-1.894c0.032-0.4-0.221-0.791-0.514-1.075c-0.253-0.254-0.686-0.385-1.047-0.385
			c-0.788,0-1.329-0.211-1.782-0.665c-0.293-0.29-0.488-0.638-0.602-1.033c-0.227-0.786-0.021-1.646,0.551-2.247
			c0.364-0.385,0.477-0.954,0.277-1.444c-0.211-0.491-0.675-0.812-1.21-0.839c-0.825-0.026-1.593-0.49-1.978-1.202
			c-0.198-0.354-0.301-0.738-0.301-1.129c0-0.706,0.313-1.365,0.836-1.809c0.313-0.259,0.493-0.641,0.493-1.041
			c0-0.398-0.18-0.781-0.493-1.037c-0.541-0.443-0.836-1.094-0.836-1.803c0-0.398,0.103-0.778,0.29-1.14
			c0.396-0.712,1.163-1.176,1.988-1.205c0.535-0.016,0.999-0.34,1.199-0.831c0.211-0.485,0.114-1.047-0.255-1.437
			c-0.578-0.625-0.789-1.469-0.562-2.241c0.114-0.409,0.33-0.754,0.591-1.031c0.454-0.443,1.047-0.686,1.896-0.675
			c0.414,0.045,0.793-0.108,1.068-0.387c0.298-0.288,0.433-0.681,0.39-1.081c-0.071-0.696,0.177-1.377,0.646-1.856
			c0.313-0.293,0.67-0.509,1.031-0.617c0.788-0.227,1.664-0.016,2.27,0.551c0.382,0.367,0.944,0.47,1.439,0.264
			c0.499-0.203,0.817-0.675,0.833-1.202c0.026-0.828,0.485-1.584,1.191-1.978c0.364-0.2,0.741-0.298,1.152-0.298
			c0.707,0,1.36,0.309,1.804,0.849c0.517,0.614,1.561,0.614,2.078,0c0.712-0.849,1.917-1.118,2.932-0.556
			c0.73,0.393,1.194,1.149,1.221,1.982c0.016,0.527,0.335,1.016,0.831,1.202c0.499,0.206,1.049,0.104,1.442-0.264
			c0.601-0.562,1.463-0.788,2.281-0.54c0.361,0.108,0.728,0.313,1.002,0.588c0.498,0.488,0.746,1.179,0.688,1.891
			c-0.044,0.4,0.222,0.788,0.506,1.07c0.253,0.248,0.68,0.382,1.042,0.382c0.741,0,1.318,0.211,1.793,0.691
			c0.292,0.277,0.493,0.617,0.588,0.994c0.222,0.788,0.024,1.658-0.562,2.262c-0.356,0.385-0.475,0.947-0.274,1.437
			c0.2,0.485,0.675,0.814,1.215,0.836c0.831,0.034,1.587,0.482,1.993,1.221c0.187,0.351,0.295,0.73,0.295,1.123
			c0,0.622-0.279,1.184-0.712,1.627c-0.464,0.216-0.838,0.588-0.838,1.134C37.125,96.279,37.418,96.63,37.79,96.866z
			 M51.732,135.601c-0.69,0.194-1.447,0.115-2.106-0.254c-0.448-0.248-0.77-0.664-0.907-1.154c-0.134-0.496-0.074-1.018,0.18-1.467
			c0.231-0.416,0.664-0.648,1.107-0.648c0.211,0,0.422,0.059,0.609,0.164c0.356,0.195,0.499,0.659,0.298,1.018
			c-0.356,0.648-0.124,1.466,0.53,1.835c0.356,0.2,0.783,0.222,1.139,0.085C52.326,135.368,52.046,135.511,51.732,135.601z
			 M140.142,135.115c0.654-0.358,0.886-1.182,0.533-1.835c-0.201-0.364-0.085-0.812,0.295-1.019
			c0.295-0.169,0.633-0.216,0.965-0.116c0.332,0.096,0.586,0.301,0.775,0.602c0.253,0.443,0.321,0.965,0.169,1.455
			c-0.127,0.496-0.459,0.913-0.907,1.16c-0.633,0.364-1.393,0.454-2.104,0.254c-0.321-0.096-0.601-0.227-0.854-0.417
			C139.356,135.326,139.788,135.315,140.142,135.115z M47.321,90.594c-2.668-2.389-4.153-5.748-4.163-9.455
			c-0.026-7.723,4.611-12.221,10.217-16.385c0.011-0.005,0.021,0,0.032-0.01c0.021-0.016,0.037-0.04,0.061-0.055
			c0.997-0.744,2.012-1.474,3.04-2.212c1.582-1.124,3.13-2.231,4.593-3.385c0.375-0.304,0.747-0.602,1.124-0.896
			c0.211,0.14,0.432,0.29,0.709,0.29h66.287c0.116,0,0.211-0.108,0.332-0.14c0.312,0.248,0.617,0.496,0.934,0.751
			c1.455,1.155,3.017,2.268,4.599,3.391c1.044,0.744,2.077,1.479,3.068,2.231c0.011,0.005,0.011,0.016,0.021,0.026
			c0.011,0,0.011,0,0.011,0c5.601,4.168,10.257,8.667,10.241,16.4c-0.011,3.712-1.477,7.072-4.166,9.46
			c-1.931,1.732-4.409,2.795-7.088,3.262c0.611-0.715,1.171-1.519,1.498-2.523c1.139-3.304-0.623-6.911-3.929-8.045
			c-1.366-0.453-2.821-0.369-4.119,0.264c-1.266,0.625-2.215,1.712-2.663,3.046c-0.396,1.145-0.332,2.37,0.195,3.457
			c0.532,1.089,1.466,1.912,2.615,2.31c1.999,0.704,4.235-0.377,4.957-2.407c0.185-0.562-0.084-1.097-0.527-1.442
			c-0.01-0.016,0-0.042-0.01-0.059c-0.063-0.097-0.175-0.103-0.259-0.179c-0.016-0.006-0.026-0.032-0.048-0.037c0,0,0,0-0.01,0
			c-0.475-0.411-1.129-0.562-1.678-0.222c-0.537,0.346-0.664,0.981-0.511,1.571c-0.322,0.232-0.686,0.361-1.061,0.232
			c-0.475-0.164-0.854-0.498-1.065-0.941c-0.211-0.438-0.242-0.928-0.073-1.402c0.222-0.659,0.686-1.189,1.308-1.495
			c0.633-0.319,1.371-0.359,2.041-0.129c1.893,0.646,2.9,2.721,2.252,4.614c-1.087,3.154-3.913,3.38-6.191,2.998
			c-2.12-0.728-3.997-2.02-5.463-3.817c-2.025-2.516-2.943-5.669-2.584-8.878c0.559-5.139,5.115-8.889,10.356-8.321
			c3.955,0.438,6.861,4.023,6.423,7.991c-0.095,0.741,0.454,1.411,1.192,1.493c0.785,0.084,1.413-0.456,1.481-1.194
			c0.591-5.448-3.349-10.368-8.801-10.974c-0.228-0.021-0.448,0.005-0.676,0c-0.242-0.248-0.569-0.409-0.959-0.409H61.232
			c-0.363,0-0.709,0.156-0.962,0.404c-0.401,0-0.799-0.032-1.227,0.01c-2.623,0.288-4.999,1.582-6.657,3.657
			c-1.664,2.073-2.421,4.659-2.139,7.302c0.087,0.738,0.686,1.257,1.479,1.191c0.746-0.079,1.273-0.749,1.199-1.49
			c-0.2-1.917,0.335-3.807,1.562-5.313c1.213-1.506,2.932-2.452,4.843-2.663c5.065-0.562,9.785,3.159,10.362,8.316
			c0.641,5.945-3.18,11.335-8.764,12.896c-2.133,0.211-4.514-0.232-5.498-3.072c-0.643-1.896,0.356-3.966,2.247-4.611
			c1.392-0.467,2.89,0.264,3.354,1.64c0.166,0.464,0.129,0.968-0.082,1.411c-0.216,0.438-0.583,0.765-1.057,0.928
			c-0.38,0.124-0.757,0-1.055-0.232c0.147-0.588,0.029-1.226-0.517-1.566c-0.551-0.356-1.205-0.195-1.674,0.216
			c-0.005,0-0.005,0-0.011,0c-0.021,0.005-0.029,0.032-0.05,0.037c-0.074,0.076-0.192,0.087-0.253,0.179
			c-0.011,0.016,0,0.042-0.011,0.058c-0.454,0.348-0.717,0.886-0.52,1.447c0.72,2.025,2.956,3.106,4.941,2.415
			c1.168-0.396,2.096-1.21,2.613-2.302c0.52-1.091,0.596-2.325,0.211-3.467c-0.944-2.774-3.984-4.269-6.787-3.32
			c-3.299,1.134-5.065,4.746-3.937,8.044c0.309,0.92,0.789,1.685,1.329,2.354C51.635,93.336,49.217,92.281,47.321,90.594z
			 M119.876,97.226h6.054c-4.566,2.942-7.367,8.236-6.744,13.984c0.374,3.476,2.22,6.408,4.835,8.338H67.629
			c2.586-1.94,4.385-4.883,4.78-8.343c0.427-3.929-0.701-7.778-3.174-10.863c-1.031-1.292-2.312-2.331-3.673-3.19h6.156
			c0.754,0,1.35-0.604,1.35-1.347c0-0.747-0.596-1.35-1.35-1.35h-6.054c4.564-2.938,7.364-8.234,6.745-13.979
			c-0.377-3.518-2.283-6.486-4.946-8.419h56.679c-2.669,1.933-4.562,4.902-4.947,8.435c-0.427,3.926,0.702,7.781,3.175,10.858
			c1.039,1.297,2.315,2.333,3.676,3.193h-6.159c-0.749,0-1.351,0.604-1.351,1.35C118.531,96.63,119.127,97.226,119.876,97.226z
			 M144.271,101.091c2.663,2.384,4.15,5.742,4.161,9.455c0.026,7.726-4.614,12.219-10.226,16.385c0,0.011-0.021,0-0.021,0.011
			c-0.026,0.016-0.042,0.036-0.063,0.053c-1.002,0.743-2.015,1.471-3.037,2.215c-1.582,1.123-3.133,2.226-4.599,3.386
			c-0.306,0.236-0.569,0.464-0.87,0.701c-0.143-0.053-0.259-0.169-0.417-0.169H62.928c-0.309,0-0.551,0.147-0.773,0.316
			c-0.345-0.285-0.696-0.56-1.049-0.844c-1.464-1.155-3.022-2.268-4.604-3.391c-1.034-0.749-2.07-1.477-3.059-2.231
			c-0.021-0.005-0.021-0.016-0.032-0.025c-0.011,0-0.011,0-0.021,0c-5.59-4.166-10.238-8.665-10.228-16.4
			c0.011-3.719,1.479-7.077,4.164-9.461c1.912-1.709,4.369-2.779,7.003-3.254c-0.588,0.696-1.068,1.529-1.414,2.51
			c-1.139,3.307,0.625,6.914,3.937,8.048c0.567,0.189,1.16,0.29,1.738,0.29c0.804,0,1.627-0.185,2.365-0.559
			c1.268-0.623,2.22-1.709,2.668-3.043c0.383-1.145,0.335-2.368-0.2-3.454c-0.53-1.092-1.463-1.909-2.597-2.315
			c-2.004-0.707-4.25,0.375-4.957,2.404c-0.201,0.564,0.071,1.098,0.511,1.445c0.014,0.016,0,0.048,0.014,0.063
			c0.058,0.101,0.171,0.105,0.258,0.174c0.016,0.005,0.021,0.037,0.042,0.042c0,0,0.005,0,0.011,0
			c0.477,0.406,1.128,0.564,1.669,0.222c0.551-0.343,0.665-0.991,0.525-1.577c0.324-0.231,0.68-0.363,1.047-0.227
			c0.485,0.158,0.854,0.496,1.065,0.939c0.208,0.438,0.243,0.928,0.079,1.402c-0.221,0.659-0.691,1.191-1.3,1.498
			c-0.638,0.321-1.371,0.353-2.041,0.126c-1.896-0.648-2.9-2.721-2.251-4.614c1.089-3.153,3.923-3.375,6.188-2.995
			c2.133,0.728,4.005,2.02,5.463,3.817c2.025,2.521,2.953,5.675,2.592,8.881c-0.562,5.146-5.112,8.901-10.362,8.321
			c-3.958-0.438-6.853-4.023-6.415-7.989c0.092-0.743-0.453-1.413-1.194-1.486c-0.804-0.08-1.413,0.453-1.479,1.191
			c-0.593,5.453,3.338,10.373,8.799,10.974c0.48,0.053,0.939,0.017,1.408,0.011c0.222,0.164,0.469,0.322,0.783,0.322h69.622
			c0.322,0,0.564-0.153,0.786-0.333c0.285-0.005,0.564,0.026,0.833,0c2.632-0.29,5.01-1.582,6.666-3.659
			c1.661-2.072,2.415-4.656,2.136-7.299c-0.09-0.743-0.707-1.287-1.482-1.197c-0.738,0.085-1.275,0.754-1.191,1.487
			c0.195,1.914-0.343,3.808-1.561,5.311c-1.224,1.508-2.933,2.452-4.852,2.663c-5.084,0.532-9.788-3.164-10.362-8.316
			c-0.644-5.948,3.185-11.338,8.77-12.898c2.13-0.211,4.509,0.242,5.484,3.074c0.648,1.898-0.358,3.96-2.247,4.609
			c-1.381,0.464-2.89-0.264-3.354-1.646c-0.169-0.464-0.127-0.971,0.074-1.408c0.221-0.438,0.59-0.771,1.064-0.934
			c0.38-0.121,0.76,0.005,1.061,0.232c-0.153,0.591-0.026,1.229,0.512,1.565c0.559,0.354,1.213,0.195,1.682-0.216
			c0.006,0,0.006,0,0.011,0c0.021-0.005,0.026-0.031,0.048-0.037c0.084-0.079,0.194-0.089,0.253-0.179
			c0.016-0.016,0-0.043,0.016-0.059c0.453-0.343,0.723-0.886,0.522-1.45c-0.718-2.024-2.953-3.105-4.947-2.409
			c-1.16,0.39-2.088,1.207-2.615,2.299s-0.602,2.331-0.211,3.47c0.749,2.21,2.826,3.607,5.062,3.607c0.569,0,1.171-0.095,1.725-0.29
			c3.301-1.134,5.067-4.746,3.929-8.042c-0.306-0.913-0.76-1.688-1.298-2.362C139.963,98.343,142.367,99.397,144.271,101.091z
			 M188.109,96.841c0.532,0.442,0.833,1.097,0.833,1.798c0,0.396-0.111,0.78-0.301,1.139c-0.385,0.712-1.149,1.182-1.978,1.208
			c-0.532,0.016-1.007,0.338-1.208,0.828c-0.2,0.49-0.11,1.044,0.254,1.439c0.574,0.627,0.791,1.466,0.563,2.241
			c-0.121,0.411-0.332,0.759-0.596,1.028c-0.442,0.443-0.991,0.591-1.888,0.675c-0.38-0.021-0.791,0.11-1.076,0.385
			c-0.29,0.29-0.422,0.686-0.39,1.081c0.079,0.696-0.169,1.377-0.644,1.861c-0.306,0.291-0.664,0.507-1.028,0.612
			c-0.786,0.227-1.661,0.016-2.268-0.554c-0.374-0.358-0.938-0.459-1.45-0.264c-0.485,0.205-0.807,0.675-0.822,1.207
			c-0.032,0.823-0.485,1.582-1.192,1.973c-0.363,0.2-0.738,0.301-1.16,0.301c-0.696,0-1.35-0.312-1.804-0.85
			c-0.521-0.611-1.561-0.611-2.083,0c-0.695,0.839-1.903,1.124-2.932,0.56c-0.717-0.391-1.182-1.149-1.208-1.978
			c-0.021-0.533-0.337-1.013-0.833-1.208c-0.158-0.073-0.337-0.105-0.517-0.105c-0.338,0-0.67,0.122-0.928,0.364
			c-0.597,0.559-1.461,0.785-2.278,0.543c-0.358-0.11-0.718-0.316-1.008-0.585c-0.49-0.491-0.743-1.182-0.68-1.894
			c0.037-0.4-0.222-0.785-0.507-1.07c-0.253-0.248-0.686-0.38-1.049-0.38c-0.733-0.026-1.318-0.211-1.793-0.69
			c-0.285-0.279-0.485-0.617-0.586-0.997c-0.221-0.786-0.01-1.661,0.56-2.263c0.348-0.379,0.464-0.943,0.269-1.439
			c-0.195-0.484-0.664-0.812-1.207-0.833c-0.844-0.037-1.593-0.485-1.994-1.224c-0.185-0.348-0.295-0.732-0.295-1.123
			c0-0.622,0.279-1.187,0.712-1.629c0.464-0.217,0.828-0.586,0.828-1.132c0-0.475-0.296-0.825-0.654-1.062
			c-0.031-0.016-0.021-0.055-0.042-0.071c-0.549-0.448-0.844-1.102-0.844-1.798c0-0.393,0.11-0.77,0.301-1.129
			c0.406-0.732,1.145-1.187,1.967-1.202c0.543-0.011,1.018-0.335,1.229-0.828c0.195-0.49,0.111-1.057-0.269-1.447
			c-0.56-0.614-0.791-1.463-0.56-2.257c0.111-0.383,0.322-0.728,0.586-1.016c0.453-0.448,1.149-0.583,1.893-0.68
			c0.386,0.039,0.786-0.104,1.076-0.388c0.285-0.282,0.417-0.675,0.385-1.071c-0.068-0.702,0.185-1.392,0.686-1.896
			c0.279-0.274,0.606-0.475,1.008-0.588c0.785-0.227,1.666-0.011,2.268,0.551c0.39,0.367,0.959,0.469,1.45,0.258
			c0.501-0.203,0.817-0.68,0.827-1.213c0.021-0.828,0.47-1.566,1.197-1.967c1.018-0.546,2.273-0.279,2.959,0.556
			c0.253,0.314,0.638,0.493,1.033,0.493h0.005c0.406,0,0.786-0.185,1.039-0.499c0.665-0.825,1.904-1.102,2.933-0.551
			c0.706,0.396,1.17,1.155,1.196,1.982c0.017,0.527,0.333,1.005,0.828,1.203c0.507,0.211,1.05,0.103,1.445-0.264
			c0.601-0.562,1.545-0.757,2.246-0.556c0.401,0.118,0.76,0.329,1.023,0.593c0.495,0.509,0.749,1.194,0.675,1.891
			c-0.048,0.401,0.211,0.789,0.506,1.076c0.254,0.253,0.686,0.388,1.055,0.388c0.765-0.021,1.313,0.211,1.783,0.664
			c0.284,0.287,0.475,0.638,0.59,1.036c0.228,0.783,0.026,1.643-0.559,2.247c-0.354,0.385-0.464,0.952-0.264,1.442
			s0.675,0.815,1.202,0.838c0.833,0.026,1.593,0.49,1.983,1.202c0.189,0.359,0.295,0.736,0.295,1.129
			c0,0.709-0.306,1.366-0.839,1.809c-0.311,0.261-0.484,0.644-0.484,1.044C187.603,96.197,187.793,96.582,188.109,96.841z"/>
		<path d="M181.417,90.555c0-0.006-0.011,0-0.011,0c-1.139-2.226-2.942-4.024-5.179-5.152c-0.01-0.016,0-0.037-0.021-0.053
			c-0.105-0.092-0.222-0.082-0.338-0.135c-1.492-0.686-3.138-1.097-4.883-1.097c-1.74,0-3.396,0.411-4.884,1.103
			c-0.105,0.058-0.221,0.042-0.321,0.129c-0.016,0.011-0.011,0.037-0.021,0.053c-3.828,1.928-6.486,5.854-6.486,10.428
			c0,6.452,5.258,11.709,11.713,11.709c6.465,0,11.738-5.258,11.738-11.709c0-1.875-0.49-3.618-1.266-5.184
			C181.428,90.62,181.438,90.581,181.417,90.555z M175.437,88.034c1.377,0.789,2.516,1.912,3.312,3.278l-2.553,2.542l-3.291-3.293
			L175.437,88.034z M174.298,95.759l-3.296,3.291l-3.285-3.291l3.285-3.288L174.298,95.759z M170.991,86.818
			c0.575,0,1.129,0.063,1.683,0.166l-1.672,1.669l-1.672-1.669C169.873,86.882,170.417,86.818,170.991,86.818z M166.557,88.034
			l2.542,2.526l-3.286,3.288l-2.558-2.552C164.057,89.935,165.196,88.817,166.557,88.034z M162.147,97.51
			c-0.105-0.548-0.168-1.107-0.168-1.679c0-0.615,0.073-1.221,0.185-1.803l1.724,1.732L162.147,97.51z M166.467,103.58
			c-1.36-0.791-2.479-1.925-3.265-3.296l2.59-2.605l3.285,3.291L166.467,103.58z M170.991,104.84c-0.606,0-1.218-0.063-1.782-0.185
			l1.793-1.787l1.793,1.787C172.21,104.776,171.608,104.84,170.991,104.84z M175.532,103.58l-2.605-2.616l3.291-3.29l2.589,2.589
			C178.021,101.64,176.903,102.772,175.532,103.58z M179.856,97.494l-1.735-1.735l1.725-1.716c0.11,0.577,0.174,1.179,0.174,1.788
			C180.02,96.402,179.951,96.951,179.856,97.494z"/>
		<path d="M20.59,84.14c-6.462,0-11.728,5.255-11.728,11.712c0,1.869,0.479,3.609,1.263,5.181c0.021,0.027,0.011,0.069,0.034,0.096
			c0.011,0.005,0.011,0,0.021,0.005c1.128,2.226,2.942,4.023,5.168,5.147c0.011,0.016,0.011,0.036,0.021,0.053
			c0.103,0.1,0.232,0.084,0.335,0.142c1.474,0.686,3.127,1.087,4.87,1.087c1.74,0,3.396-0.406,4.87-1.103
			c0.113-0.058,0.235-0.042,0.335-0.126c0.019-0.017,0.013-0.037,0.024-0.053c3.829-1.926,6.484-5.854,6.484-10.429
			C32.303,89.395,27.061,84.14,20.59,84.14z M25.118,88.103c1.36,0.793,2.479,1.927,3.261,3.301l-2.586,2.603l-3.291-3.288
			L25.118,88.103z M23.873,95.923l-3.277,3.285l-3.293-3.285l3.293-3.288L23.873,95.923z M20.59,86.839
			c0.612,0,1.215,0.066,1.783,0.185l-1.793,1.793l-1.793-1.793C19.383,86.905,19.976,86.839,20.59,86.839z M16.055,88.103
			l2.603,2.621l-3.288,3.288l-2.586-2.592C13.571,90.048,14.689,88.906,16.055,88.103z M11.747,97.637
			c-0.114-0.575-0.18-1.173-0.18-1.785c0-0.567,0.082-1.123,0.169-1.661l1.732,1.732L11.747,97.637z M16.147,103.644
			c-1.376-0.791-2.518-1.915-3.317-3.275l2.555-2.542l3.288,3.291L16.147,103.644z M20.59,104.861c-0.572,0-1.128-0.063-1.68-0.163
			l1.669-1.672l1.674,1.672C21.708,104.798,21.163,104.861,20.59,104.861z M25.036,103.644l-2.55-2.526l3.288-3.285l2.555,2.552
			C27.53,101.75,26.396,102.868,25.036,103.644z M29.603,95.852c0,0.617-0.068,1.221-0.182,1.801l-1.73-1.729l1.746-1.751
			C29.539,94.718,29.603,95.279,29.603,95.852z"/>
	</g>
</g>
<g>
</g>
<g>
</g>
<g>
</g>
<g>
</g>
<g>
</g>
<g>
</g>
<g>
</g>
<g>
</g>
<g>
</g>
<g>
</g>
<g>
</g>
<g>
</g>
<g>
</g>
<g>
</g>
<g>
</g>
</svg>
