<?xml version="1.0" encoding="iso-8859-1"?>
<!-- Generator: Adobe Illustrator 16.0.0, SVG Export Plug-In . SVG Version: 6.00 Build 0)  -->
<!DOCTYPE svg PUBLIC "-//W3C//DTD SVG 1.1//EN" "http://www.w3.org/Graphics/SVG/1.1/DTD/svg11.dtd">
<svg version="1.1" id="Capa_1" xmlns="http://www.w3.org/2000/svg" xmlns:xlink="http://www.w3.org/1999/xlink" x="0px" y="0px"
	 width="181.352px" height="181.352px" viewBox="0 0 181.352 181.352" style="enable-background:new 0 0 181.352 181.352;"
	 xml:space="preserve">
<g>
	<g>
		<path d="M180.188,88.968c-2.193-6.193-6.924-10.151-10.451-8.888c-1.772,0.625-1.772,2.442-1.772,3.768
			c-0.011,1.601-0.095,2.613-1.16,3.251c-1.187,0.68-3.564,0.143-6.106-0.551c-3.037-0.82-6.418-1.542-8.943-0.646
			c-7.637,2.705-10.731,11.146-11.786,14.905c-2.753-0.659-5.796-1.946-9.351-3.644c5.4-0.121,9.861-2.705,12.772-7.684
			c0.369-0.641,0.153-1.469-0.49-1.846c-0.628-0.372-1.466-0.161-1.846,0.485c-3.718,6.349-10.257,8.042-18.473,4.746
			c-0.09-0.037-0.153,0.016-0.243,0c-0.3-0.169-0.585-0.316-0.886-0.485c-2.815-1.571-5.737-3.169-8.78-4.52
			c-0.205-0.134-0.369-0.282-0.574-0.417c-0.18-0.113-0.38-0.074-0.58-0.097c-5.996-2.489-12.482-3.634-19.486-1.047v-5.514
			c0.649,0.243,1.329,0.411,2.041,0.411c0.983,0,1.951-0.248,2.798-0.72c1.137-0.625,2.022-1.619,2.534-2.797
			c1.171,0.472,2.516,0.559,3.771,0.19c0.96-0.279,1.782-0.778,2.479-1.469c0.875-0.881,1.45-2.004,1.635-3.206
			c1.218-0.185,2.336-0.752,3.211-1.632c0.696-0.686,1.203-1.55,1.461-2.484c0.369-1.273,0.301-2.592-0.179-3.771
			c1.17-0.501,2.162-1.382,2.8-2.521c0.464-0.854,0.717-1.819,0.717-2.798c0-1.242-0.396-2.434-1.117-3.412
			c0.722-0.983,1.117-2.175,1.117-3.419c0-0.97-0.253-1.938-0.717-2.8c-0.633-1.139-1.635-2.02-2.806-2.523
			c0.475-1.181,0.56-2.51,0.185-3.763c-0.264-0.946-0.77-1.787-1.461-2.489c-0.875-0.88-1.993-1.442-3.206-1.632
			c-0.189-1.205-0.754-2.328-1.629-3.201c-0.686-0.686-1.529-1.194-2.489-1.474c-1.239-0.364-2.584-0.282-3.766,0.192
			c-0.506-1.165-1.382-2.159-2.518-2.792c-1.938-1.068-4.464-0.884-6.215,0.396c-1.756-1.284-4.277-1.469-6.215-0.396
			c-1.139,0.627-2.015,1.627-2.523,2.797c-1.176-0.475-2.563-0.545-3.752-0.192c-0.949,0.264-1.804,0.77-2.5,1.463
			c-0.875,0.878-1.447,2.001-1.637,3.206c-1.215,0.185-2.333,0.752-3.206,1.632c-0.686,0.686-1.195,1.542-1.463,2.489
			c-0.351,1.247-0.282,2.582,0.198,3.763c-1.176,0.504-2.17,1.379-2.806,2.523c-0.477,0.852-0.73,1.819-0.73,2.8
			c0,1.245,0.4,2.431,1.118,3.415c-0.717,0.983-1.118,2.175-1.118,3.422c0,0.989,0.242,1.922,0.73,2.803
			c0.63,1.139,1.635,2.02,2.806,2.518c-0.48,1.187-0.562,2.516-0.198,3.773c0.274,0.934,0.788,1.793,1.463,2.473
			c0.88,0.88,1.996,1.442,3.206,1.626c0.19,1.208,0.751,2.331,1.637,3.201c0.686,0.696,1.551,1.21,2.489,1.474
			c1.242,0.361,2.592,0.277,3.757-0.195c0.503,1.173,1.379,2.167,2.518,2.792c1.469,0.838,3.314,0.901,4.896,0.303v5.55
			c-7.035-2.618-13.537-1.469-19.559,1.031c-0.187,0.023-0.388-0.016-0.562,0.092c-0.211,0.129-0.366,0.277-0.566,0.411
			c-3.035,1.351-5.973,2.953-8.786,4.524c-0.309,0.169-0.583,0.316-0.891,0.48c-0.079,0.021-0.146-0.031-0.232,0
			c-8.213,3.301-14.742,1.608-18.478-4.746c-0.377-0.641-1.226-0.857-1.851-0.48c-0.638,0.377-0.854,1.205-0.493,1.846
			c2.922,4.967,7.383,7.557,12.783,7.678c-3.555,1.698-6.61,2.99-9.347,3.649c-1.026-3.755-4.153-12.2-11.789-14.905
			c-2.523-0.902-5.909-0.18-8.926,0.641c-2.55,0.69-4.959,1.231-6.114,0.551c-1.079-0.638-1.171-1.658-1.171-3.256
			c0-1.324,0-3.143-1.771-3.762c-3.547-1.282-8.24,2.689-10.45,8.883c-2.22,6.275-1.118,12.187,2.518,13.479
			c1.614,0.56,2.845-0.701,3.747-1.809c1.01-1.239,1.685-1.982,2.948-1.787c1.474,0.227,2.89,2.188,4.385,4.271
			c1.727,2.404,3.699,5.131,6.529,6.127c1.54,0.554,3.185,0.823,4.88,0.823c0.013,0,0,0,0.013,0c7.931,0,14.892-5.88,15.185-6.128
			c0.129-0.121,0.214-0.285,0.301-0.438c4.163-0.912,8.511-3.049,13.165-5.342c2.123-1.045,4.229-2.231,6.378-3.428
			c0.258-0.148,0.525-0.296,0.789-0.433c-2.139,3.375-2.813,7.13-1.922,11.037c-1.432-0.907-3.18-1.646-5.287-1.646
			c-2.544,0-5.076,1.05-7.544,3.138c-6.61,5.553-4.936,12.303,0.717,23.594c2.025,4.092,3.301,8.638,2.921,17.544
			c-0.005,0.105,0.05,0.175,0.071,0.274c0.011,0.079,0.021,0.132,0.053,0.222c0.103,0.295,0.267,0.559,0.546,0.733h0.005l0,0
			c0.216,0.121,0.454,0.189,0.691,0.189s0.464-0.073,0.669-0.185c0.005,0,0.011,0,0.016-0.005
			c0.875-0.517,21.552-12.814,24.197-27.222c0.875-4.772-0.316-9.229-3.531-13.258c-1.063-1.339-3.639-2.763-6.286-2.763
			c-1.437,0-2.679,0.485-3.773,1.239c-2.679-6.46-0.34-12.461,6.528-17.01c5.55-2.441,11.338-3.694,17.561-1.685
			c-3.786,2.494-6.584,6.064-7.857,10.399c-1.701,5.758-0.735,12.255,2.679,17.808c0.253,0.417,0.696,0.644,1.15,0.644
			c0.243,0,0.485-0.063,0.707-0.2c0.633-0.38,0.833-1.218,0.443-1.856c-3.009-4.909-3.882-10.604-2.381-15.631
			c1.134-3.833,3.649-6.966,7.069-9.117v8.817c-2.323,0.606-4.071,2.626-4.071,5.131c0,2.979,2.418,5.405,5.4,5.405
			c2.979,0,5.4-2.426,5.4-5.405c0-2.489-1.72-4.504-4.029-5.126v-8.791c3.391,2.152,5.888,5.279,7.017,9.092
			c1.481,5.021,0.611,10.71-2.384,15.625c-0.383,0.639-0.189,1.472,0.438,1.856c0.222,0.137,0.47,0.2,0.712,0.2
			c0.454,0,0.896-0.227,1.149-0.644c3.412-5.548,4.383-12.039,2.685-17.803c-1.276-4.335-4.071-7.899-7.854-10.399
			c6.209-2.02,12.01-0.762,17.558,1.685c6.866,4.548,9.197,10.544,6.528,16.994c-1.107-0.76-2.362-1.234-3.786-1.234
			c-2.647,0-5.221,1.424-6.286,2.764c-3.222,4.023-4.397,8.485-3.522,13.257c2.637,14.407,23.319,26.7,24.194,27.222
			c0.011,0,0.011,0,0.021,0.006c0.2,0.11,0.433,0.185,0.664,0.185c0.032,0,0.053,0,0.085,0c0.053,0,0.084-0.059,0.126-0.063
			c0.158-0.026,0.338-0.042,0.485-0.127c0.031-0.021,0.031-0.079,0.084-0.105c0.243-0.152,0.369-0.363,0.485-0.653
			c0.016-0.048,0.042-0.079,0.059-0.116c0.021-0.11,0.115-0.174,0.115-0.285c0-0.169-0.042-0.337-0.095-0.469
			c-0.327-8.665,0.938-13.126,2.942-17.139c5.643-11.296,7.31-18.052,0.707-23.594c-2.479-2.088-5.01-3.138-7.541-3.138
			c-2.12,0-3.871,0.738-5.3,1.65c0.886-3.912,0.222-7.667-1.909-11.042c0.259,0.132,0.517,0.284,0.78,0.433
			c2.142,1.196,4.251,2.378,6.381,3.428c4.641,2.293,8.986,4.43,13.163,5.347c0.09,0.147,0.152,0.312,0.301,0.433
			c0.295,0.248,7.256,6.128,15.182,6.128c1.698,0,3.349-0.274,4.878-0.823c2.827-1.002,4.799-3.718,6.528-6.127
			c1.487-2.078,2.922-4.051,4.388-4.271c1.239-0.195,1.94,0.559,2.942,1.787c0.76,0.912,1.593,1.957,2.911,1.957
			c0.29,0,0.564-0.059,0.833-0.148c1.192-0.422,2.146-1.35,2.795-2.684C181.707,97.115,181.617,92.986,180.188,88.968z
			 M26.146,107.372c-1.397,0-2.731-0.227-3.974-0.67c-2.046-0.717-3.673-2.979-5.244-5.162c-1.846-2.553-3.573-4.968-6.181-5.363
			c-0.287-0.042-0.551-0.063-0.791-0.063c-2.365,0-3.741,1.683-4.648,2.811c-0.295,0.354-0.728,0.892-0.768,0.976
			c-1.851-0.659-2.618-5.089-0.867-10.03c1.635-4.596,4.546-7.338,6.42-7.338c0.206,0,0.377,0.026,0.454-0.01
			c0.098,0.187,0.098,0.872,0.098,1.331c0.01,1.638,0.01,4.111,2.51,5.579c1.983,1.16,5.01,0.583,8.187-0.276
			c2.624-0.707,5.458-1.366,7.317-0.701c6.188,2.188,8.973,9.336,10.001,12.796c-2.586,0.2-4.962-0.343-7.372-1.819
			c0.696-2.637-0.562-5.458-3.169-6.497c-2.771-1.112-6.043,0.306-7.132,3.043c-0.556,1.354-0.541,2.853,0.042,4.202
			c0.572,1.351,1.653,2.4,3.009,2.938c0.651,0.264,1.345,0.401,2.046,0.401c1.545,0,2.938-0.67,3.953-1.74
			c2.225,1.339,4.472,1.982,6.74,2.104C34.208,105.442,30.272,107.372,26.146,107.372z M28.647,99.062
			c-0.562,1.392-2.204,2.114-3.636,1.556c-0.691-0.274-1.236-0.808-1.521-1.498c-0.298-0.686-0.303-1.439-0.021-2.13
			c0.43-1.071,1.458-1.762,2.592-1.762c0.345,0,0.702,0.068,1.031,0.205C28.529,95.997,29.225,97.638,28.647,99.062z
			 M74.622,118.536c0.04,0.965-0.042,1.94-0.232,2.958c-0.087,0.47-0.309,0.929-0.433,1.397l-8.709-7.81
			c-0.042-1.123-0.2-2.167-0.454-3.159l9.498,6.513C74.39,118.494,74.508,118.488,74.622,118.536z M70.318,130.237l-5.735-8.311
			c0.237-1.134,0.412-2.246,0.541-3.327l7.899,7.082C72.312,127.242,71.365,128.756,70.318,130.237z M65.971,135.405l-3.099-7.277
			c0.309-0.901,0.588-1.803,0.841-2.705l4.823,6.977c0.031,0.037,0.087,0.021,0.113,0.059
			C67.798,133.481,66.901,134.446,65.971,135.405z M46.828,121.272l15.746-4.092c-0.082,1.155-0.242,2.362-0.496,3.639
			l-13.753,4.234C47.714,123.667,47.239,122.433,46.828,121.272z M45.705,114.897l15.865-3.944c0.535,0.97,0.844,2.13,0.978,3.448
			l-16.492,4.287C45.715,117.255,45.642,116.026,45.705,114.897z M57.483,134.578l-4.767,1.523
			c-0.235-1.075-0.509-2.051-0.789-2.947l7.138-2.421C58.569,132.036,58.039,133.312,57.483,134.578z M61.354,123.862
			c-0.33,1.197-0.696,2.395-1.104,3.612l-9.295,3.148c-0.211-0.48-0.432-0.944-0.653-1.393c-0.319-0.617-0.546-1.139-0.81-1.714
			L61.354,123.862z M53.18,138.791l2.808-0.896c-0.833,1.751-1.669,3.412-2.447,4.899C53.465,141.328,53.341,140.015,53.18,138.791z
			 M58.337,139.208l0.496,2.562c-1.005,0.781-1.938,1.472-2.813,2.1C56.716,142.515,57.504,140.942,58.337,139.208z M60.302,135.258
			c-0.011-0.058-0.093-0.089-0.113-0.147c0.453-1.044,0.907-2.136,1.329-3.243l2.371,5.559c-0.907,0.838-1.804,1.655-2.7,2.399
			L60.302,135.258z M48.919,108.912c1.964-1.672,3.937-2.505,5.809-2.505c2.173,0,3.937,1.123,5.142,2.178l-13.429,3.349
			C46.991,110.826,47.801,109.846,48.919,108.912z M71.405,110.415c1.16,1.445,1.922,2.927,2.468,4.445l-8.43-5.764
			c0.538-0.274,1.128-0.428,1.782-0.428C69.045,108.669,70.822,109.682,71.405,110.415z M85.746,78.112
			c-0.949-0.521-1.561-1.526-1.593-2.618l-0.098-3.003l-2.181,2.059c-0.788,0.749-1.911,1.031-2.987,0.728
			c-0.496-0.146-0.938-0.403-1.311-0.789c-0.654-0.649-0.988-1.55-0.896-2.473l-0.132-1.604l-1.619,0.146
			c-0.826,0-1.608-0.324-2.186-0.902c-0.369-0.366-0.644-0.825-0.788-1.323c-0.314-1.058-0.04-2.175,0.733-2.985l2.057-2.194
			l-3.006-0.079c-1.102-0.029-2.091-0.622-2.616-1.582c-0.253-0.472-0.377-0.973-0.377-1.498c0-0.928,0.411-1.798,1.118-2.381
			l1.247-1.037l-1.237-1.041c-0.717-0.596-1.128-1.464-1.128-2.384c0-0.527,0.124-1.031,0.377-1.49
			c0.541-0.949,1.529-1.561,2.621-1.592l2.99-0.093l-2.046-2.181c-0.757-0.799-1.021-1.943-0.733-2.977
			c0.14-0.512,0.403-0.96,0.788-1.339c0.562-0.564,1.316-0.889,2.397-0.889c0.021,0,0.042,0,0.071,0l1.614,0.145l-0.135-1.613
			c-0.098-0.926,0.243-1.828,0.902-2.479c0.351-0.369,0.804-0.639,1.321-0.778c1.015-0.292,2.173-0.023,2.972,0.723l2.165,2.046
			l0.113-2.984c0.037-1.097,0.643-2.097,1.592-2.621c1.258-0.701,2.961-0.382,3.889,0.741l1.031,1.247l1.021-1.247
			c0.928-1.118,2.607-1.438,3.878-0.733c0.949,0.522,1.554,1.521,1.588,2.607l0.079,3.006l2.193-2.057
			c0.786-0.751,1.993-1.015,2.975-0.728c0.527,0.15,0.97,0.414,1.334,0.789c0.648,0.651,0.986,1.556,0.896,2.484l0.127,1.593
			l1.624-0.148c0.812,0,1.603,0.327,2.173,0.904c0.379,0.377,0.643,0.82,0.791,1.327c0.306,1.06,0.031,2.172-0.723,2.977
			l-2.067,2.186l3.006,0.093c1.092,0.031,2.094,0.643,2.605,1.582c0.264,0.464,0.39,0.973,0.39,1.5c0,0.926-0.411,1.793-1.118,2.389
			l-1.244,1.036l1.244,1.037c0.707,0.588,1.118,1.453,1.118,2.371c0,0.524-0.132,1.041-0.38,1.489
			c-0.527,0.952-1.523,1.562-2.615,1.596l-3.006,0.089l2.067,2.188c0.754,0.804,1.022,1.917,0.723,2.979
			c-0.138,0.499-0.412,0.958-0.786,1.324c-0.575,0.583-1.318,0.881-2.489,0.891l-1.613-0.145l0.143,1.614
			c0.089,0.923-0.237,1.825-0.887,2.473c-0.363,0.372-0.817,0.638-1.328,0.788c-1.039,0.298-2.188,0.021-2.979-0.722l-2.199-2.07
			L97.134,75.5c-0.031,1.086-0.636,2.085-1.604,2.608c-1.236,0.696-2.937,0.38-3.865-0.738l-1.02-1.247l-1.031,1.247
			C88.683,78.503,86.993,78.809,85.746,78.112z M93.366,104.524c0,1.492-1.216,2.705-2.7,2.705s-2.7-1.213-2.7-2.705
			c0-1.481,1.216-2.7,2.7-2.7S93.366,103.043,93.366,104.524z M135.264,118.688l-16.495-4.287c0.121-1.318,0.442-2.473,0.98-3.448
			l15.862,3.949C135.675,116.026,135.596,117.255,135.264,118.688z M132.996,125.054l-13.764-4.234
			c-0.253-1.271-0.411-2.483-0.496-3.639l15.741,4.092C134.082,122.433,133.603,123.667,132.996,125.054z M112.672,132.458
			c0.032-0.037,0.09-0.021,0.111-0.059l4.809-6.977c0.264,0.902,0.554,1.804,0.844,2.7l-3.101,7.288
			C114.412,134.451,113.511,133.486,112.672,132.458z M108.295,125.677l7.899-7.083c0.122,1.087,0.316,2.199,0.554,3.333
			l-5.737,8.311C109.936,128.761,109.002,127.242,108.295,125.677z M106.924,121.5c-0.189-1.019-0.264-1.999-0.231-2.959
			c0.11-0.047,0.231-0.042,0.332-0.11l9.508-6.518c-0.253,0.996-0.411,2.035-0.453,3.158l-8.718,7.815
			C107.225,122.423,106.992,121.969,106.924,121.5z M128.593,136.107l-4.768-1.524c-0.559-1.266-1.086-2.547-1.582-3.844l7.135,2.42
			C129.099,134.051,128.824,135.026,128.593,136.107z M119.791,131.862c0.433,1.107,0.876,2.193,1.329,3.248
			c-0.021,0.063-0.101,0.095-0.11,0.153l-0.902,4.571c-0.896-0.754-1.793-1.561-2.7-2.398L119.791,131.862z M122.971,139.197
			c0.834,1.74,1.63,3.312,2.342,4.667c-0.875-0.622-1.824-1.323-2.832-2.104L122.971,139.197z M125.344,137.9l2.801,0.896
			c-0.153,1.218-0.296,2.536-0.338,4.008C127.005,141.312,126.178,139.651,125.344,137.9z M131.023,129.235
			c-0.222,0.449-0.442,0.907-0.664,1.393l-9.292-3.148c-0.411-1.218-0.791-2.415-1.107-3.612l11.876,3.655
			C131.551,128.097,131.313,128.613,131.023,129.235z M109.909,110.404c0.574-0.733,2.367-1.74,4.166-1.74
			c0.653,0,1.233,0.153,1.787,0.427l-8.438,5.77C107.984,113.342,108.759,111.854,109.909,110.404z M132.395,108.912
			c1.118,0.938,1.925,1.919,2.479,3.026l-13.415-3.348c1.202-1.055,2.974-2.179,5.125-2.179
			C128.477,106.401,130.417,107.235,132.395,108.912z M178.021,98.603c-0.332,0.68-0.749,1.123-1.086,1.308
			c-0.19-0.095-0.633-0.622-0.918-0.98c-1.013-1.234-2.589-3.175-5.442-2.748c-2.604,0.396-4.345,2.816-6.19,5.363
			c-1.572,2.184-3.196,4.44-5.242,5.163c-1.234,0.442-2.579,0.664-3.977,0.664c-4.123,0-8.042-1.92-10.6-3.491
			c2.268-0.116,4.515-0.765,6.74-2.104c1.018,1.07,2.415,1.74,3.949,1.74c0.707,0,1.397-0.138,2.046-0.401
			c1.361-0.543,2.426-1.582,3.001-2.932c0.58-1.35,0.596-2.848,0.058-4.208c-1.097-2.742-4.382-4.155-7.135-3.043
			c-2.589,1.033-3.87,3.85-3.175,6.491c-2.404,1.472-4.799,2.02-7.366,1.819c1.012-3.47,3.812-10.602,9.998-12.796
			c1.872-0.648,4.693-0.005,7.325,0.707c3.18,0.865,6.186,1.447,8.189,0.271c2.489-1.463,2.489-3.937,2.489-5.574
			c0-0.453,0-1.145-0.021-1.226c1.877-0.662,5.199,2.162,7.003,7.243C178.822,93.187,178.97,96.614,178.021,98.603z M154.216,95.433
			c0.338-0.137,0.686-0.205,1.039-0.205c1.145,0,2.151,0.69,2.584,1.762c0.29,0.69,0.274,1.455-0.021,2.135
			c-0.301,0.681-0.828,1.219-1.52,1.487c-1.424,0.56-3.074-0.158-3.639-1.556C152.097,97.638,152.792,95.997,154.216,95.433z"/>
		<path d="M104.509,56.497c0-7.615-6.186-13.806-13.811-13.806s-13.809,6.191-13.809,13.806c0,7.614,6.188,13.808,13.809,13.808
			C98.312,70.305,104.509,64.111,104.509,56.497z M88.024,67.244l2.586-2.587l2.632,2.629c-0.815,0.195-1.674,0.324-2.555,0.324
			C89.775,67.605,88.889,67.46,88.024,67.244z M95.984,66.205l-3.473-3.465l4.348-4.348l3.488,3.488
			C99.33,63.711,97.822,65.203,95.984,66.205z M90.616,60.834l-4.34-4.348l4.34-4.34l4.343,4.34L90.616,60.834z M101.809,56.497
			c0,0.923-0.143,1.803-0.354,2.663l-2.679-2.674l2.669-2.668C101.661,54.683,101.809,55.574,101.809,56.497z M100.348,51.097
			l-3.488,3.483l-4.348-4.34l3.462-3.457C97.807,47.788,99.319,49.277,100.348,51.097z M93.237,45.713l-2.608,2.621l-2.586-2.576
			c0.857-0.216,1.743-0.361,2.666-0.361C91.578,45.396,92.422,45.52,93.237,45.713z M85.313,46.847l3.398,3.393l-4.348,4.34
			L81,51.21C82.004,49.38,83.489,47.875,85.313,46.847z M79.603,56.497c0-0.881,0.124-1.722,0.327-2.542l2.534,2.531l-2.544,2.539
			C79.727,58.216,79.603,57.372,79.603,56.497z M80.995,61.772l3.375-3.375l4.348,4.349l-3.41,3.401
			C83.479,65.121,81.994,63.608,80.995,61.772z"/>
	</g>
</g>
<g>
</g>
<g>
</g>
<g>
</g>
<g>
</g>
<g>
</g>
<g>
</g>
<g>
</g>
<g>
</g>
<g>
</g>
<g>
</g>
<g>
</g>
<g>
</g>
<g>
</g>
<g>
</g>
<g>
</g>
</svg>
