<?xml version="1.0" encoding="iso-8859-1"?>
<!-- Generator: Adobe Illustrator 16.0.0, SVG Export Plug-In . SVG Version: 6.00 Build 0)  -->
<!DOCTYPE svg PUBLIC "-//W3C//DTD SVG 1.1//EN" "http://www.w3.org/Graphics/SVG/1.1/DTD/svg11.dtd">
<svg version="1.1" id="Capa_1" xmlns="http://www.w3.org/2000/svg" xmlns:xlink="http://www.w3.org/1999/xlink" x="0px" y="0px"
	 width="155.334px" height="155.334px" viewBox="0 0 155.334 155.334" style="enable-background:new 0 0 155.334 155.334;"
	 xml:space="preserve">
<g>
	<path d="M129.146,61.404C128.43,54.306,121.906,0,89.596,0c-2.331,0-4.757,0.295-7.235,0.875c-2.919,0.691-7.034,3.691-8.886,7.895
		c-1.076,2.434-1.247,4.962-0.583,7.446c-3.251,0.129-6.476,0.836-9.468,2.191c-6.091,2.755-10.682,7.675-12.928,13.855
		c-5.495,15.169,3.915,26.694,15.105,39.881c-8.021-2.922-16.103-1.83-23.448,3.349c-1.69-1.276-3.768-2.065-6.046-2.065
		c-5.563,0-10.088,4.527-10.088,10.093c0,5.559,4.525,10.094,10.088,10.094c5.561,0,10.091-4.535,10.091-10.094
		c0-1.708-0.47-3.304-1.231-4.725c9.711-6.637,20.682-4.875,31.065,5.194c0.169,0.168,0.401,0.147,0.596,0.242
		c11.407,12.188,22.365,25.055,18.589,43.723c-0.695,3.459-2.057,6.602-3.807,9.449c-0.043,0.021-0.09,0.032-0.116,0.063
		c-8.11,6.739-16.145,7.235-22.626,1.403c-5.033-4.525-5.447-12.287-0.934-17.318c3.478-3.839,9.421-4.166,13.266-0.707
		c1.402,1.256,2.226,2.996,2.331,4.884s-0.549,3.702-1.814,5.104c-0.833,0.938-1.978,1.466-3.22,1.635
		c0.141-0.38,0.291-0.775,0.316-1.197c0.143-2.278-1.603-4.234-3.886-4.382c-2.284-0.138-4.24,1.603-4.38,3.892
		c-0.037,0.591,0.063,1.16,0.264,1.688c-0.124,0.707,0.071,1.455,0.644,1.973c1.901,1.692,4.343,2.573,6.89,2.42
		c2.55-0.132,4.891-1.25,6.589-3.153c2.036-2.268,3.059-5.179,2.911-8.211c-0.158-3.037-1.492-5.843-3.755-7.868
		c-5.598-5.057-14.283-4.593-19.364,1.018c-6.107,6.809-5.54,17.308,1.252,23.414c3.844,3.476,8.166,5.195,12.695,5.195
		c1.103,0,2.221-0.148,3.344-0.349c-7.673,4.44-17.373,5.315-26.665,2.405c-14.144-4.451-22.032-19.564-17.587-33.708
		c0.356-1.14-0.277-2.357-1.416-2.711c-1.139-0.348-2.354,0.285-2.705,1.424c-5.163,16.411,3.989,33.961,20.411,39.118
		c4.034,1.266,8.155,1.898,12.184,1.898c6.505,0,12.796-1.635,18.199-4.83c7.946-4.683,13.347-12.393,15.219-21.711
		c4.425-21.964-9.471-36.703-21.727-49.694c-2.808-2.982-5.59-5.93-8.14-8.928C56.95,55.284,50.016,46.251,54.554,33.729
		c1.435-3.944,4.05-7.237,7.488-9.582c-2.753,4.192-3.338,9.439-1.727,15.612C63.83,53.238,74.949,55.872,92.96,55.872
		c0,0,0,0,0.011,0c1.271,0,2.584-0.016,3.955-0.042l1.044-0.011c6.392,0,14.207,1.015,28.065,8.348l0,0
		c0.242,0.124,0.506,0.164,0.775,0.195c0.09,0.005,0.152,0.058,0.237,0.058c0.021,0,0.037,0,0.053,0
		c1.213,0.006,2.215-0.949,2.215-2.159C129.32,61.958,129.268,61.667,129.146,61.404z M36.107,89.29c-3.183,0-5.77-2.59-5.77-5.774
		c0-3.175,2.587-5.762,5.77-5.762c3.185,0,5.771,2.587,5.771,5.762C41.884,86.7,39.298,89.29,36.107,89.29z M89.1,51.461
		c-2.637-0.077-5.057-0.216-7.182-0.459l5.3-27.504c1.793,1.002,3.612,2.178,5.463,3.56L89.1,51.461z M98.239,6.096
		c2.389,1.037,4.551,2.542,6.549,4.319l-18.71,7.81c-1.903-0.828-3.76-1.384-5.59-1.695l17.239-9.99
		C97.928,6.426,98.081,6.252,98.239,6.096z M76.865,20.735c1.653,0.227,3.27,0.583,4.842,1.199c0.464,0.177,0.959,0.15,1.424,0.011
		L77.67,50.316c-2.526-0.541-4.617-1.297-6.344-2.268c0.005-0.016,0.021-0.029,0.021-0.045L76.865,20.735z M91.057,20.822
		l16.975-7.085c1.951,2.315,3.708,4.931,5.247,7.736l-17.207,2.781C94.416,22.977,92.729,21.848,91.057,20.822z M115.014,25.573
		c0.11-0.016,0.18-0.076,0.274-0.108c1.002,2.128,1.898,4.298,2.7,6.492l-13.706-0.562c-1.239-1.2-2.494-2.371-3.755-3.488
		L115.014,25.573z M112.968,40.537c-1.351-1.545-2.769-3.096-4.219-4.628l10.736,0.443c0.665,2.117,1.25,4.185,1.772,6.209
		l-7.9-2.014C113.231,40.516,113.104,40.537,112.968,40.537z M105.453,38.707c1.703,1.809,3.375,3.649,4.988,5.508l-1.176,8.672
		c-1.809-0.422-3.602-0.789-5.379-1.004L105.453,38.707z M114.196,48.663c2.325,2.843,4.445,5.59,6.323,8.105
		c-2.447-1.068-4.81-1.964-7.066-2.689L114.196,48.663z M117.655,46.105l4.741,1.208c0.527,2.375,0.949,4.564,1.287,6.518
		C121.996,51.563,119.971,48.945,117.655,46.105z M83.357,5.081c2.146-0.509,4.245-0.762,6.238-0.762
		c0.997,0,1.909,0.168,2.843,0.292L76.82,13.655c-0.053-1.052,0.143-2.106,0.602-3.138C78.722,7.575,81.707,5.463,83.357,5.081z
		 M65.675,26.476c1.751-2.635,4.424-4.201,6.642-5.113l-4.783,23.636c-1.392-1.703-2.375-3.775-3.04-6.317
		C63.197,33.705,63.603,29.613,65.675,26.476z M96.852,51.521c-1.181,0.021-2.299,0.031-3.406,0.031l3.143-21.347
		c1.672,1.432,3.333,2.958,4.979,4.569l-1.999,16.836c-0.532-0.016-1.038-0.101-1.571-0.101L96.852,51.521z"/>
</g>
<g>
</g>
<g>
</g>
<g>
</g>
<g>
</g>
<g>
</g>
<g>
</g>
<g>
</g>
<g>
</g>
<g>
</g>
<g>
</g>
<g>
</g>
<g>
</g>
<g>
</g>
<g>
</g>
<g>
</g>
</svg>
