<?xml version="1.0" encoding="iso-8859-1"?>
<!-- Generator: Adobe Illustrator 16.0.0, SVG Export Plug-In . SVG Version: 6.00 Build 0)  -->
<!DOCTYPE svg PUBLIC "-//W3C//DTD SVG 1.1//EN" "http://www.w3.org/Graphics/SVG/1.1/DTD/svg11.dtd">
<svg version="1.1" id="Capa_1" xmlns="http://www.w3.org/2000/svg" xmlns:xlink="http://www.w3.org/1999/xlink" x="0px" y="0px"
	 width="209.562px" height="209.562px" viewBox="0 0 209.562 209.562" style="enable-background:new 0 0 209.562 209.562;"
	 xml:space="preserve">
<g>
	<path d="M209.021,111.567c-1.692-4.969-7.416-7.77-12.373-6.04c-2.313,0.791-4.141,2.436-5.321,4.561
		c-13.396-3.861-23.998,4.713-36.091,14.717c-2.85,2.363-5.645,4.945-8.47,7.551c-0.024,0.013-0.049,0.055-0.073,0.079
		c1.438-5.048,1.169-10.071-0.779-14.925c5.285-2.387,19.973-10.192,22.371-24.539c0.853-5.057-1.57-10.181-3.714-14.696
		c-1.814-3.848-3.52-7.49-2.691-9.74c0.663-1.802,2.052-2.22,4.853-2.731c2.132-0.386,5.334-0.935,5.883-4.241
		c0.584-3.398-1.182-6.845-4.976-9.706c-3.318-2.521-7.922-4.372-12.951-5.216c-1.942-0.316-3.879-0.484-5.767-0.484
		c-8.854,0-15.162,3.446-16.032,8.765c-0.555,3.273,2.308,4.859,4.213,5.919c2.467,1.376,3.654,2.226,3.702,4.152
		c0.062,2.412-2.746,5.298-5.724,8.354c-3.495,3.581-7.435,7.651-8.274,12.69c-2.333,13.978,8.415,25.9,12.878,30.181
		c5.066,8.306,3.471,17.476-4.677,26.183c-5.596,4.227-11.6,7.551-18.486,8.635c3.836-2.545,7.112-5.852,9.463-9.938
		c4.743-8.244,5.602-18.596,2.411-28.406c-0.42-1.314-1.839-2.021-3.142-1.595c-1.31,0.407-2.028,1.827-1.596,3.142
		c2.765,8.445,2.033,17.336-1.991,24.351c-3.587,6.235-9.572,10.534-16.852,12.093c-0.019,0-0.03,0-0.049,0h-0.013
		c-7.282-1.559-13.268-5.857-16.854-12.093c-4.028-7.015-4.759-15.905-1.988-24.351c0.43-1.314-0.28-2.734-1.598-3.142
		c-1.303-0.438-2.731,0.28-3.142,1.595c-3.218,9.785-2.332,20.137,2.415,28.406c2.362,4.123,5.66,7.447,9.544,9.998
		c-6.838-1.047-12.839-4.322-18.41-8.512c-8.293-8.744-9.959-18.012-4.835-26.366c4.479-4.281,15.208-16.204,12.875-30.181
		c-0.84-5.045-4.792-9.109-8.272-12.69c-2.981-3.057-5.788-5.943-5.724-8.366c0.049-1.915,1.221-2.765,3.703-4.141
		c1.902-1.06,4.765-2.646,4.216-5.919c-0.904-5.312-7.191-8.753-16.045-8.753c-1.887,0-3.809,0.167-5.76,0.484
		c-5.057,0.843-9.639,2.695-12.958,5.215c-3.766,2.862-5.557,6.309-4.975,9.706c0.548,3.276,3.766,3.849,5.885,4.241
		c2.801,0.499,4.189,0.91,4.856,2.731c0.844,2.244-0.883,5.885-2.697,9.74c-2.141,4.545-4.545,9.657-3.711,14.696
		c2.396,14.346,17.086,22.152,22.372,24.539c-1.952,4.823-2.22,9.877-0.779,14.925c-0.024-0.037-0.049-0.067-0.073-0.079
		c-2.825-2.606-5.626-5.188-8.473-7.551c-12.083-10.005-22.667-18.603-36.096-14.718c-1.172-2.149-2.987-3.77-5.313-4.561
		c-5.008-1.741-10.668,1.084-12.37,6.028c-0.855,2.46-0.694,5.103,0.436,7.44c1.154,2.339,3.13,4.086,5.586,4.945
		c1.029,0.353,2.101,0.535,3.179,0.535c4.153,0,7.864-2.648,9.216-6.582c0.344-0.98,0.463-1.991,0.487-3.002
		c8.991-2.674,16.319,1.431,26.512,9.541c-7.295-1.107-14.09,1.115-19.802,6.467c-0.88-0.712-1.873-1.314-2.987-1.698
		c-4.978-1.729-10.689,1.084-12.373,6.028c-1.745,5.078,0.95,10.631,6.049,12.385c1.023,0.354,2.083,0.536,3.154,0.536
		c4.165,0,7.876-2.643,9.222-6.582c0.767-2.235,0.636-4.549-0.144-6.619c7.758-7.679,17.966-7.751,28.851-0.049
		c0.149,0.128,0.35,0.146,0.512,0.22c0.344,0.316,0.661,0.584,1.011,0.906c1.267,1.176,2.558,2.375,3.873,3.538
		c-6.722-0.621-12.994,1.571-18.319,6.577c-0.898-0.701-1.857-1.34-2.98-1.712c-4.969-1.711-10.68,1.103-12.364,6.047
		c-0.862,2.46-0.682,5.097,0.441,7.435c1.154,2.338,3.117,4.074,5.586,4.944c1.023,0.359,2.095,0.536,3.176,0.536
		c4.153,0,7.861-2.654,9.213-6.606c0.743-2.168,0.648-4.47-0.131-6.601c7.757-7.685,17.978-7.746,28.838-0.062
		c0.283,0.207,0.6,0.354,0.926,0.402c5.94,3.513,12.513,5.942,20.076,5.942c2.232,0,4.582-0.256,7.003-0.706
		c2.444,0.45,4.795,0.706,7.036,0.706c7.557,0,14.127-2.43,20.082-5.942c0.328-0.062,0.646-0.195,0.925-0.402
		c10.857-7.672,21.075-7.623,28.839,0.062c-0.804,2.131-0.896,4.433-0.134,6.601c1.352,3.952,5.06,6.606,9.213,6.606
		c1.077,0,2.149-0.177,3.172-0.536c2.473-0.87,4.445-2.606,5.59-4.944c1.139-2.338,1.304-4.993,0.444-7.422
		c-1.698-4.957-7.41-7.758-12.366-6.06c-1.108,0.384-2.083,1.011-2.979,1.712c-5.327-5.006-11.587-7.18-18.322-6.589
		c1.315-1.169,2.606-2.362,3.873-3.526c0.341-0.311,0.651-0.59,0.986-0.895c0.177-0.085,0.378-0.128,0.536-0.231
		c10.875-7.679,21.081-7.647,28.838,0.036c-0.779,2.059-0.913,4.373-0.14,6.625c1.352,3.934,5.066,6.576,9.225,6.576
		c1.072,0,2.132-0.182,3.167-0.535c2.46-0.853,4.444-2.606,5.583-4.933c1.157-2.338,1.31-4.98,0.463-7.44
		c-1.692-4.957-7.404-7.764-12.379-6.041c-1.133,0.391-2.125,0.986-2.99,1.705c-5.711-5.37-12.507-7.574-19.802-6.467
		c10.193-8.11,17.519-12.215,26.513-9.547c0.024,1.01,0.14,2.021,0.499,3.008c1.352,3.934,5.048,6.576,9.201,6.576
		c1.077,0,2.155-0.183,3.172-0.536c2.466-0.853,4.451-2.606,5.59-4.944C209.703,116.652,209.873,114.009,209.021,111.567z
		 M146.339,96.755c-2.812-0.472-4.719-3.142-4.256-5.955c0.414-2.494,2.569-4.32,5.078-4.32c0.305,0,0.585,0.024,0.865,0.088
		c2.801,0.46,4.725,3.142,4.256,5.955C151.819,95.297,149.165,97.23,146.339,96.755z M131.719,86.903
		c0.591-3.504,3.812-6.832,6.942-10.032c3.727-3.821,7.246-7.438,7.124-11.971c-0.122-4.981-3.97-7.115-6.26-8.382
		c-0.561-0.317-1.376-0.765-1.632-0.765c-0.036,0-0.079,0.013-0.092,0.024c0.384-2.213,4.396-4.588,11.119-4.588
		c1.607,0,3.264,0.128,4.944,0.411c4.189,0.703,8.111,2.25,10.771,4.265c2.198,1.681,3.301,3.471,3.288,4.542
		c-0.279,0.183-1.369,0.387-2.088,0.512c-2.588,0.463-6.899,1.23-8.653,5.895c-1.577,4.226,0.579,8.783,2.856,13.615
		c1.912,4.055,3.872,8.244,3.288,11.773c-1.681,10.038-11.289,16.501-16.946,19.485l1.687-10.014
		c4.561-0.405,8.349-3.721,9.115-8.318c0.914-5.517-2.812-10.774-8.36-11.703c-5.571-0.91-10.766,2.886-11.679,8.354
		c-0.779,4.676,1.814,9.137,5.979,10.951l-1.619,9.73c-0.135-0.067-0.299-0.134-0.438-0.146
		C136.7,105.74,130.094,96.743,131.719,86.903z M63.231,96.755c-2.929,0.487-5.486-1.458-5.949-4.25
		c-0.466-2.812,1.428-5.483,4.247-5.955c0.292-0.052,0.572-0.076,0.874-0.076c2.512,0,4.664,1.827,5.081,4.309
		C67.944,93.613,66.039,96.283,63.231,96.755z M46.203,92.18c-0.584-3.505,1.391-7.682,3.285-11.755
		c2.277-4.82,4.427-9.389,2.855-13.615c-1.72-4.665-6.064-5.432-8.652-5.894c-0.512-0.098-1.19-0.217-1.577-0.217
		c-0.158,0-0.262,0.024-0.283,0.085c-0.241-1.446,0.88-3.249,3.063-4.917c2.655-1.997,6.579-3.543,10.774-4.265
		c1.678-0.283,3.331-0.411,4.938-0.411c6.722,0,10.756,2.375,11.216,4.189c-0.192,0.268-1.172,0.804-1.803,1.16
		c-2.286,1.264-6.123,3.41-6.259,8.391c-0.131,4.521,3.397,8.138,7.139,11.971c3.118,3.206,6.354,6.531,6.927,10.007
		c1.647,9.828-4.999,18.837-9.383,23.61c-0.137,0.037-0.292,0.104-0.417,0.135l-1.62-9.709c4.165-1.827,6.759-6.284,5.979-10.973
		c-0.917-5.456-6.068-9.24-11.691-8.342c-5.538,0.935-9.268,6.184-8.352,11.691c0.768,4.612,4.546,7.919,9.116,8.33l1.684,10.032
		C57.495,108.682,47.881,102.235,46.203,92.18z M14.247,116.28c-0.84,2.411-3.547,3.788-6.041,2.947
		c-1.206-0.401-2.189-1.278-2.731-2.424c-0.557-1.132-0.642-2.423-0.219-3.616c0.661-1.925,2.469-3.216,4.488-3.216
		c0.524,0,1.042,0.098,1.553,0.269c1.2,0.408,2.177,1.266,2.725,2.411C14.585,113.777,14.664,115.068,14.247,116.28z
		 M24.504,139.955c-0.834,2.411-3.635,3.787-6.043,2.947c-2.481-0.853-3.803-3.557-2.947-6.041c0.648-1.924,2.463-3.215,4.481-3.215
		c0.524,0,1.047,0.098,1.559,0.268C24.029,134.768,25.354,137.471,24.504,139.955z M43.341,155.189
		c-0.661,1.925-2.469,3.216-4.497,3.216c-0.523,0-1.047-0.085-1.553-0.256c-1.19-0.401-2.167-1.278-2.731-2.411
		c-0.56-1.151-0.648-2.436-0.216-3.629c0.655-1.925,2.469-3.216,4.488-3.216c0.524,0,1.047,0.085,1.553,0.256
		c1.19,0.408,2.183,1.272,2.731,2.411C43.679,152.705,43.758,153.996,43.341,155.189z M169.167,149.149
		c0.506-0.171,1.023-0.256,1.547-0.256c2.021,0,3.824,1.291,4.494,3.216c0.414,1.193,0.347,2.478-0.226,3.629
		c-0.554,1.133-1.51,1.997-2.722,2.411c-2.473,0.841-5.212-0.536-6.04-2.96c-0.414-1.193-0.354-2.484,0.219-3.629
		C167.006,150.422,167.968,149.563,169.167,149.149z M188.014,133.914c0.511-0.17,1.035-0.268,1.559-0.268
		c2.016,0,3.824,1.291,4.494,3.215c0.401,1.206,0.341,2.484-0.22,3.629c-0.561,1.157-1.528,1.998-2.728,2.412
		c-2.473,0.853-5.219-0.549-6.053-2.947C184.208,137.471,185.529,134.768,188.014,133.914z M204.076,116.816
		c-0.554,1.133-1.51,1.997-2.728,2.411c-2.448,0.853-5.2-0.536-6.028-2.947c-0.408-1.206-0.347-2.497,0.22-3.629
		c0.56-1.146,1.516-1.997,2.728-2.411c0.505-0.171,1.022-0.269,1.553-0.269c2.021,0,3.824,1.291,4.481,3.216
		C204.716,114.381,204.649,115.672,204.076,116.816z"/>
</g>
<g>
</g>
<g>
</g>
<g>
</g>
<g>
</g>
<g>
</g>
<g>
</g>
<g>
</g>
<g>
</g>
<g>
</g>
<g>
</g>
<g>
</g>
<g>
</g>
<g>
</g>
<g>
</g>
<g>
</g>
</svg>
