<?xml version="1.0" encoding="iso-8859-1"?>
<!-- Generator: Adobe Illustrator 16.0.0, SVG Export Plug-In . SVG Version: 6.00 Build 0)  -->
<!DOCTYPE svg PUBLIC "-//W3C//DTD SVG 1.1//EN" "http://www.w3.org/Graphics/SVG/1.1/DTD/svg11.dtd">
<svg version="1.1" id="Capa_1" xmlns="http://www.w3.org/2000/svg" xmlns:xlink="http://www.w3.org/1999/xlink" x="0px" y="0px"
	 width="151.184px" height="151.184px" viewBox="0 0 151.184 151.184" style="enable-background:new 0 0 151.184 151.184;"
	 xml:space="preserve">
<g>
	<g>
		<path d="M8.917,70.994c0.005,1.604,0.011,3.122,0.309,4.728c2.916,15.932,13.447,16.611,21.553,16.406
			c0,0.042-0.011,0.079-0.006,0.11c1.44,11.116,7.133,20.852,15.633,26.715c5.5,3.797,11.868,5.748,18.478,5.748
			c2.655,0,5.35-0.311,8.04-0.954c11.151-2.663,18.602-8.817,24.113-16.411c0.406-0.231,0.77-0.574,1.013-1.018
			c3.691-6.597,7.183-12.065,11.691-15.014c-0.744,2.584-0.454,5.4,1.002,8.406c2.235,4.646,5.927,6.813,11.591,6.813
			c2.642,0,5.848-0.443,10.399-1.43c4.672-1.002,8.569-0.585,14.854,1.308c0.254,0.08,0.527,0.116,0.791,0.116
			c0.017,0,0.037,0,0.053,0c1.456,0.079,2.753-1.196,2.753-2.7c0-0.548-0.147-1.044-0.433-1.466
			c-1.429-4.566-9.592-28.329-24.996-28.329c-2.272,0-4.588,0.53-6.882,1.566c-1.809,0.817-3.986,3.138-4.635,5.985
			c-0.174,0.775-0.19,1.54-0.127,2.289c-2.246,0.38-4.25,1.145-6.106,2.173c0.438-1.065,0.865-2.142,1.292-3.201
			c0.2-0.496,0.417-0.96,0.611-1.455c0.111-0.133,0.27-0.206,0.349-0.364c7.209-12.899,17.519-17.598,29.02-13.247
			c1.382,0.535,2.953-0.171,3.491-1.566c0.527-1.392-0.174-2.953-1.566-3.48c-8.738-3.316-17.044-2.367-24.131,2.455
			c6.549-13.477,11.98-21.146,23.234-22.101c1.477-0.124,2.584-1.438,2.463-2.922c-0.127-1.484-1.445-2.618-2.922-2.463
			c-16.732,1.427-23.234,15.483-30.775,31.762c-1.683,3.641-3.228,7.48-4.783,11.362c-0.016,0.042-0.031,0.084-0.048,0.115
			c-1.271-7.675-5.658-13.911-12.962-18.09c0.127-0.638,0.206-1.292,0.211-1.951c0.026-2.824-1.049-5.492-3.037-7.504
			c-3.944-4.024-10.911-4.101-14.956-0.138c-4.153,4.095-4.211,10.8-0.129,14.953c2.009,2.041,4.688,3.164,7.549,3.164
			c2.784,0,5.416-1.073,7.404-3.027c0.205-0.205,0.354-0.438,0.543-0.653c9.635,5.669,12.672,15.688,8.622,28.481
			c-5.39,10.378-12.672,19.164-25.803,22.307c-7.879,1.861-15.768,0.443-22.199-3.992c-7.095-4.904-11.892-13.057-13.247-22.423
			c0.158,0,0.303,0,0.458,0.006c0.994,0.037,2.025,0.068,3.08,0.068l0,0c7.657,0,16.788-1.872,19.457-16.438
			c0.295-1.605,0.3-3.124,0.306-4.728c0.016-4.72,0.035-10.072,8.311-19.997c0.606-0.728,0.788-1.727,0.469-2.624
			c-0.311-0.902-1.079-1.566-2.009-1.756c-0.464-0.087-10.08-1.685-19.38,3.277c-0.501-2.705-1.36-5.005-2.144-7.117
			c-1.613-4.33-2.782-7.457-0.62-12.5c0.393-0.918,0.248-1.978-0.379-2.756c-0.625-0.78-1.635-1.16-2.603-0.959
			c-0.443,0.082-10.806,2.128-16.551,10.573c-2.452,3.602-3.684,7.776-3.684,12.458c-9.033-4.569-18.333-3.063-18.781-2.972
			c-0.934,0.19-1.695,0.854-2.015,1.751c-0.316,0.896-0.134,1.896,0.472,2.624C8.886,60.929,8.902,66.274,8.917,70.994z
			 M115.019,92.359c0.886-2.178,3.386-3.206,3.702-3.322c3.312,0.254,7.13,1.509,11.665,4.019c1.308,0.738,2.947,0.253,3.67-1.044
			c0.723-1.308,0.253-2.948-1.05-3.67c-5.125-2.854-9.565-4.214-13.5-4.594c-0.073-0.29-0.084-0.585-0.01-0.923
			c0.258-1.176,1.255-2.136,1.592-2.294c1.608-0.717,3.181-1.086,4.673-1.086c8.622,0,15.24,12.276,18.446,20.529
			c-4.762-0.997-8.385-1.044-12.599-0.132c-10.916,2.347-13.832,2.02-15.994-2.452C114.655,95.413,114.46,93.725,115.019,92.359z
			 M84.517,64.515c-1.967,1.938-5.37,1.909-7.312-0.071c-1.996-2.03-1.964-5.313,0.066-7.317c0.973-0.957,2.257-1.479,3.617-1.479
			c1.403,0,2.716,0.562,3.697,1.553c0.976,0.984,1.492,2.292,1.481,3.673C86.057,62.25,85.503,63.548,84.517,64.515z M22.504,56.943
			c0.892,0.68,2.107,0.751,3.062,0.158c0.957-0.591,1.447-1.703,1.236-2.813c-2.449-12.859,5.537-18.6,10.908-20.959
			c-0.583,4.4,0.725,7.907,1.999,11.33c1.092,2.932,2.226,5.967,2.247,9.872c0.005,1.015,0.583,1.943,1.495,2.397
			c0.912,0.464,2.004,0.361,2.813-0.248c5.028-3.741,10.32-4.822,14.23-5.007c-6.336,9.015-6.357,14.868-6.373,19.29
			c-0.005,1.413-0.011,2.639-0.216,3.773c-2.03,11.095-8.1,12.024-14.149,12.024l0,0c-0.991,0-1.964-0.032-2.903-0.063
			c-0.92-0.032-1.803-0.063-2.637-0.063c-0.831,0-1.716,0.026-2.634,0.063c-6.647,0.2-14.689,0.96-17.049-11.955
			c-0.206-1.134-0.211-2.357-0.216-3.773c-0.016-4.422-0.032-10.275-6.365-19.29C11.963,51.873,17.397,53.006,22.504,56.943z"/>
	</g>
</g>
<g>
</g>
<g>
</g>
<g>
</g>
<g>
</g>
<g>
</g>
<g>
</g>
<g>
</g>
<g>
</g>
<g>
</g>
<g>
</g>
<g>
</g>
<g>
</g>
<g>
</g>
<g>
</g>
<g>
</g>
</svg>
