<?xml version="1.0" encoding="iso-8859-1"?>
<!-- Generator: Adobe Illustrator 16.0.0, SVG Export Plug-In . SVG Version: 6.00 Build 0)  -->
<!DOCTYPE svg PUBLIC "-//W3C//DTD SVG 1.1//EN" "http://www.w3.org/Graphics/SVG/1.1/DTD/svg11.dtd">
<svg version="1.1" id="Capa_1" xmlns="http://www.w3.org/2000/svg" xmlns:xlink="http://www.w3.org/1999/xlink" x="0px" y="0px"
	 width="163.31px" height="163.31px" viewBox="0 0 163.31 163.31" style="enable-background:new 0 0 163.31 163.31;"
	 xml:space="preserve">
<g>
	<g>
		<path d="M154.616,107.235c-0.597,0.343-0.966,1.191-0.797,1.909c0.153,0.712,0.78,1.022,1.393,0.68
			c1.382-0.796,2.863-2.742,3.765-5.511c0.949-3.27,1.15-6.444,0.127-8.405c-0.464-0.96-1.039-1.487-1.698-1.598
			c-1.566-0.238-2.521,1.713-3.501,3.723c-0.907,2.02-1.498,4.213-1.625,4.667c-0.643,2.094-1.17,4.799-1.187,7.209
			c-0.11,2.362,0.132,4.382,1.419,4.988c1.297,0.606,2.984-0.031,4.735-1.703c1.604-1.714,3.265-4.493,4.361-7.915
			c1.007-3.808,1.424-7.516,0.738-10.353c-0.638-3.175-2.015-4.915-3.749-5.067l-8.665-0.844c-2.758-0.27-5.511,0.648-7.726,2.294
			c-0.98,0.712-1.714,1.556-2.431,2.457c-0.733,0.902-1.287,1.883-1.683,2.948l-4.65-1.271c2.505-0.622,4.582-2.398,5.289-5.268
			c0.279-1.023,0.369-2.057,0.2-3.032c-0.232-0.991-0.628-1.903-1.218-2.674c-1.14-1.577-2.891-2.589-4.989-2.815
			c-3.454-0.301-6.771,1.671-7.277,4.166l-0.116,0.49c-0.126,0.859,0.116,1.734,0.729,2.562c0.732,0.997,1.877,1.788,3.217,2.204
			c1.117,0.349,2.277,0.327,3.259-0.142c0.738-0.333,1.318-0.892,1.692-1.566c0.686-0.596,0.812-1.619,0.232-2.315
			c-0.538-0.601-1.413-0.786-2.136-0.58c-0.338,0.037-0.654,0.116-0.96,0.316c-0.875,0.564-1.044,1.577-0.4,2.353
			c0.158,0.184,0.348,0.337,0.563,0.453c-0.574,0.248-1.229,0.29-1.861,0.116c-0.907-0.259-1.666-0.775-2.141-1.435
			c-0.475-0.664-0.612-1.402-0.391-2.115c0.38-1.903,2.764-3.279,5.284-2.984c1.613,0.227,2.975,1.05,3.85,2.252
			c0.433,0.602,0.791,1.297,0.918,2.03c0.11,0.733,0.053,1.503-0.158,2.263c-0.274,0.98-0.696,1.818-1.234,2.499
			c-0.559,0.67-1.35,1.16-2.184,1.492c-1.688,0.67-3.797,0.649-6.254,0.026c-0.11-0.031-0.242-0.042-0.338-0.031l-12.477-3.401
			c-0.575-0.158-1.118-0.021-1.191,0.306c-0.074,0.322,0.332,0.733,0.886,0.912l12.498,3.939c0.053,0.026,0.095,0.059,0.137,0.074
			c2.41,0.796,4.172,1.908,5.2,3.38c0.991,1.435,1.46,3.317,0.765,5.221c-0.522,1.503-1.577,2.679-2.927,3.228
			c-1.424,0.532-3.027,0.464-4.509-0.227c-1.155-0.543-2.01-1.445-2.516-2.399c-0.485-0.976-0.602-1.993-0.349-2.97
			c0.211-0.711,0.749-1.238,1.529-1.519c0.781-0.295,1.698-0.321,2.605-0.036c0.622,0.2,1.139,0.569,1.487,1.075
			c-0.248-0.011-0.496,0.005-0.738,0.09c-0.991,0.284-1.435,1.218-1.013,2.141c0.137,0.333,0.374,0.575,0.644,0.791
			c0.527,0.569,1.345,0.881,2.109,0.649c0.886-0.264,1.339-1.166,1.118-2.036c0.095-0.775-0.111-1.529-0.58-2.241
			c-0.633-0.949-1.625-1.604-2.737-1.914c-1.366-0.358-2.668-0.279-3.792,0.158c-1.002,0.358-1.708,0.949-2.088,1.729
			c-0.074,0.138-0.121,0.306-0.169,0.464c-0.306,1.292-0.248,2.621,0.475,3.987c0.686,1.345,1.846,2.637,3.396,3.433
			c1.888,0.949,3.934,1.044,5.774,0.358c1.914-0.633,3.222-2.278,3.939-4.25c0.864-2.784,0.126-5.363-1.52-7.229l4.546,1.439
			c-0.538,2.188-0.231,4.551,0.644,6.797c0.98,2.542,2.811,4.757,5.289,5.959l3.001,1.439c0.332,0.148,0.738,0.101,1.086-0.168
			c0.332-0.259,0.586-0.696,0.633-1.134c0.006-0.017,0.032-0.2,0.074-0.522c0.063-0.332,0.132-0.791,0.231-1.34
			c0.201-1.117,0.364-2.699,0.749-4.387c0.391-1.683,0.896-3.491,1.466-5.284c0.586-1.777,1.535-3.46,2.647-4.878
			c0.428-0.559,0.438-1.439,0.006-1.936c-0.417-0.501-1.118-0.438-1.546,0.116c-0.511,0.653-0.938,1.339-1.318,2.046
			c-0.442,0.696-0.822,1.424-1.149,2.168c-0.69,1.466-1.107,3.031-1.508,4.535c-0.981,2.937-1.219,5.922-1.624,7.704l-1.619-0.701
			c-2.057-0.896-3.438-2.537-4.383-4.625c-0.938-2.072-0.938-4.188-0.385-6.26c0.475-2.12,1.904-3.817,3.645-5.115
			c1.761-1.308,3.934-1.956,6.127-1.672l8.606,1.187c0.876,0.111,1.646,1.271,2.036,3.26c0.554,2.346,0.115,5.426-0.696,8.664
			l-0.042,0.143c-1.651,4.94-4.425,7.968-5.712,7.388c-0.563-0.269-0.765-4.735,0.597-8.892c1.002-3.707,2.215-5.932,2.552-6.159
			c0.38,0.195,1.182,2.573,0.011,6.413C156.372,105.42,155.343,106.787,154.616,107.235z"/>
		<path d="M129.372,141.971c-0.707-0.037-1.461,0.479-1.709,1.154c-0.253,0.686,0.105,1.282,0.802,1.329
			c1.582,0.068,3.924-0.707,6.117-2.589c2.605-2.188,4.44-4.778,4.651-6.978c0.116-1.033-0.079-1.803-0.569-2.24
			c-1.182-1.05-3.069,0.042-4.937,1.233c-1.877,1.208-3.554,2.7-3.913,3.021c-1.613,1.461-3.564,3.396-4.872,5.416
			c-1.329,1.978-2.236,3.766-1.466,4.973c0.765,1.208,2.552,1.614,4.894,1.118c2.252-0.606,5.199-1.956,7.91-4.298
			c1.461-1.313,2.763-2.7,3.839-4.076c1.076-1.397,1.814-2.88,2.368-4.198c1.218-2.984,0.996-5.199-0.422-6.301l-6.798-5.39
			c-2.141-1.688-4.941-2.415-7.73-2.257c-1.224,0.073-2.353,0.326-3.375,0.748c-1.076,0.38-2.131,0.881-3.038,1.556l-3.228-3.58
			c1.239,0.416,2.511,0.532,3.787,0.306c1.233-0.259,2.383-0.918,3.517-1.877c1.683-1.335,2.315-3.449,2.241-5.326
			c-0.047-1.909-1.044-3.761-2.726-5.1c-1.371-1.098-3.001-1.598-4.462-1.646c-1.54-0.095-2.958,0.279-3.896,1.202
			c-0.111,0.116-0.222,0.237-0.327,0.369c-0.538,0.696-0.854,1.508-0.786,2.553c0.074,1.207,0.575,2.499,1.472,3.58
			c0.759,0.892,1.745,1.498,2.842,1.65c0.797,0.122,1.604-0.016,2.294-0.363c0.907-0.143,1.614-0.875,1.424-1.856
			c-0.121-0.796-0.748-1.424-1.466-1.655c-0.316-0.158-0.627-0.264-0.98-0.248c-0.949,0.073-1.714,0.77-1.582,1.782
			c0.031,0.237,0.11,0.464,0.211,0.681c-0.606-0.116-1.182-0.428-1.614-0.924c-0.611-0.701-0.97-1.55-1.007-2.367
			c-0.048-0.807,0.295-1.461,0.786-2.015c1.381-1.366,4.16-1.213,6.096,0.396c1.239,1.065,1.92,2.479,1.993,3.955
			c0.063,1.461-0.422,3.032-1.688,4.023c-3.059,2.774-6.919,1.856-10.325-1.877c-0.095-0.09-0.18-0.164-0.285-0.217l-8.653-9.592
			c-0.406-0.448-0.934-0.628-1.187-0.391c-0.248,0.227-0.116,0.786,0.264,1.25l8.396,10.062c0.031,0.048,0.053,0.111,0.09,0.147
			c1.613,1.999,2.483,3.882,2.562,5.659c0.058,1.74-0.606,3.527-2.188,4.804c-1.234,1.002-2.79,1.371-4.203,1.139
			c-1.461-0.311-2.8-1.233-3.676-2.615c-1.35-2.22-0.97-4.73,0.485-6.08c0.56-0.475,1.298-0.628,2.125-0.448
			c0.808,0.185,1.614,0.67,2.199,1.366c0.411,0.49,0.665,1.128,0.686,1.729c-0.189-0.132-0.411-0.259-0.653-0.327
			c-0.992-0.295-1.867,0.248-2.015,1.255c-0.074,0.332,0.005,0.686,0.116,1.007c0.126,0.781,0.643,1.467,1.418,1.688
			c0.896,0.264,1.767-0.253,2.062-1.097c0.49-0.574,0.712-1.392,0.701-2.226c-0.026-1.133-0.496-2.215-1.261-3.084
			c-0.938-1.029-2.125-1.688-3.274-1.894c-1.018-0.227-1.936-0.138-2.695,0.321c-0.126,0.096-0.273,0.18-0.39,0.296
			c-0.981,0.923-1.604,2.125-1.751,3.639c-0.147,1.481,0.116,3.206,1.018,4.698c1.081,1.83,2.769,3.027,4.667,3.449
			c1.931,0.459,3.939-0.18,5.611-1.467c2.193-1.914,3.043-4.402,2.626-6.897l3.032,3.655c-1.608,1.603-2.689,3.659-3.111,6.08
			c-0.564,2.657-0.216,5.505,1.239,7.862l1.735,2.811c0.179,0.322,0.563,0.491,1.007,0.454c0.433-0.037,0.875-0.27,1.155-0.596
			c0.005-0.017,0.132-0.153,0.343-0.401c0.221-0.242,0.537-0.58,0.917-1.007c0.728-0.892,1.756-2.078,2.985-3.28
			c0.601-0.606,1.275-1.213,1.961-1.819c0.665-0.648,1.361-1.266,2.109-1.841c1.467-1.171,3.17-2.04,4.842-2.673
			c0.659-0.232,1.16-0.966,1.06-1.604c-0.101-0.648-0.712-0.991-1.371-0.765c-3.032,1.149-5.843,3.006-8.047,5.194
			c-2.39,1.973-4.245,4.266-5.511,5.611l-0.981-1.461c-1.239-1.836-1.55-4.019-1.218-6.275c0.174-1.098,0.554-2.131,1.06-3.038
			c0.543-0.891,1.219-1.692,1.983-2.452c1.55-1.492,3.707-2.136,5.832-2.336c2.193-0.121,4.388,0.517,6.064,1.951l6.592,5.648
			c0.675,0.563,0.675,1.94-0.063,3.822c-0.812,2.263-2.811,4.631-5.273,6.877l-0.116,0.116c-3.986,3.317-8.036,4.239-8.754,3.138
			c-0.374-0.596,1.936-4.34,5.29-7.167c2.821-2.562,5.109-3.718,5.463-3.775c0.269,0.417-0.385,2.806-3.459,5.374
			C131.818,141.407,130.236,142.002,129.372,141.971z"/>
		<path d="M97.979,156.81c-0.96,0.533-2.421,1.061-4.403,1.281c-1.909,0.248-3.547,0.059-4.259-0.511
			c-0.562-0.417-1.479-0.406-2.062,0.021c-0.583,0.428-0.612,1.118-0.045,1.545c1.308,0.96,3.662,1.535,6.544,1.124
			c1.688-0.195,3.265-0.597,4.614-1.149c1.324-0.58,2.389-1.393,3.085-2.194c0.675-0.796,0.929-1.55,0.754-2.188
			c-0.411-1.487-2.631-1.709-4.835-1.598c-2.226-0.031-4.473,0.301-4.937,0.348c-2.146,0.433-4.835,0.965-7.029,1.914
			c-2.181,0.971-3.913,2.067-3.932,3.428c-0.01,1.451,1.266,2.801,3.502,3.528c1.11,0.391,2.46,0.681,3.984,0.839
			c0.762,0.068,1.55,0.126,2.381,0.11c0.833-0.048,1.695-0.126,2.586-0.259c1.925-0.3,3.792-0.732,5.458-1.308
			c1.646-0.675,3.096-1.45,4.271-2.278c2.653-1.809,3.639-3.875,3.043-5.547l-2.811-8.211c-0.896-2.595-2.837-4.63-5.284-6.06
			c-2.13-1.202-4.345-1.545-6.637-1.529l-0.772-4.746c0.799,1.019,1.841,1.846,3.021,2.294c1.171,0.412,2.511,0.543,3.972,0.338
			c1.049-0.111,2.02-0.522,2.811-1.123c0.807-0.586,1.471-1.324,1.951-2.146c0.991-1.598,1.118-3.781,0.453-5.764
			c-0.559-1.672-1.661-2.99-2.868-3.797c-1.234-0.865-2.637-1.366-3.913-1.098c-0.158,0.032-0.327,0.074-0.48,0.122
			c-0.796,0.358-1.523,0.827-2.024,1.734c-0.596,1.039-0.859,2.395-0.686,3.792c0.132,1.154,0.648,2.209,1.481,2.942
			c0.617,0.538,1.36,0.859,2.142,0.938c0.416,0.195,0.87,0.227,1.266,0.116c0.379-0.163,0.722-0.479,0.906-0.912
			c0.333-0.754,0.138-1.598-0.337-2.188c-0.18-0.295-0.391-0.564-0.686-0.733c-0.844-0.469-1.852-0.216-2.289,0.659
			c-0.116,0.217-0.158,0.454-0.179,0.691c-0.459-0.433-0.781-1.018-0.865-1.672c-0.137-0.923,0.021-1.819,0.422-2.516
			c0.422-0.664,1.013-1.118,1.709-1.292c1.914-0.374,4.166,1.261,4.936,3.665c0.464,1.566,0.279,3.106-0.475,4.383
			c-0.749,1.233-1.982,2.367-3.575,2.494c-2.036,0.231-3.744-0.185-5.058-1.456c-1.315-1.292-2.17-3.237-2.618-5.737
			c-0.026-0.11-0.065-0.232-0.113-0.332l-2.072-12.757c-0.108-0.591-0.443-1.038-0.783-0.98c-0.335,0.053-0.541,0.575-0.464,1.181
			l1.592,13.016c0,0.053-0.01,0.105-0.005,0.163c0.259,2.5-0.005,4.693-0.912,6.191c-0.91,1.513-2.437,2.494-4.451,2.858
			c-3.201,0.279-5.919-2.162-5.832-5.512c0.05-2.499,1.751-4.683,3.715-4.904c0.73-0.084,1.442,0.243,2.025,0.808
			c0.583,0.538,0.999,1.35,1.118,2.268c0.087,0.648-0.053,1.292-0.367,1.846c-0.087-0.222-0.211-0.428-0.361-0.597
			c-0.67-0.664-1.69-0.807-2.375-0.047c-0.235,0.264-0.364,0.569-0.448,0.901c-0.314,0.723-0.246,1.577,0.284,2.194
			c0.609,0.706,1.619,0.838,2.334,0.216c0.722-0.316,1.345-0.844,1.788-1.54c0.593-0.954,0.789-2.104,0.604-3.259
			c-0.227-1.382-0.86-2.595-1.722-3.412c-0.746-0.644-1.566-1.065-2.447-1.134c-0.155-0.01-0.335-0.005-0.501,0.016
			c-2.581,0.391-4.936,3.091-5.126,6.613c-0.087,2.094,0.665,4.145,2.067,5.447c1.39,1.261,3.415,2.067,5.514,1.804
			c2.884-0.559,4.962-1.909,5.956-4.419l0.566,4.725c-2.196,0.612-4.237,1.566-5.906,3.418c-1.912,2.109-3.148,4.498-3.214,7.309
			l-0.079,3.316c-0.005,0.364,0.214,0.713,0.594,0.929c0.387,0.222,0.88,0.274,1.294,0.143c0.034-0.011,0.72-0.232,1.817-0.586
			c1.094-0.332,2.578-0.754,4.276-1.081c1.683-0.253,3.525-0.785,5.408-0.886c0.938-0.073,1.877-0.079,2.815,0.021
			c0.929,0.042,1.83,0.11,2.722,0.343c0.686,0.163,1.487-0.174,1.771-0.76c0.29-0.591-0.073-1.213-0.749-1.376
			c-1.613-0.438-3.222-0.443-4.841-0.475c-1.635-0.032-3.237,0.147-4.77,0.442c-3.04,0.533-5.88,1.171-7.657,1.767l-0.031-1.745
			c-0.032-2.204,0.875-4.33,2.381-5.965c1.503-1.624,3.425-2.531,5.523-2.953c1.065-0.179,2.139-0.137,3.183,0.105
			c1.034,0.243,2.03,0.538,2.995,1.092c1.909,1.103,3.428,2.838,4.061,4.947l2.5,8.315c0.253,0.844-0.501,1.999-2.141,3.159
			c-0.992,0.67-2.168,1.376-3.57,1.856c-1.408,0.464-2.964,0.827-4.614,1.081l-0.158,0.021c-2.55,0.454-4.836,0.122-6.439-0.321
			c-1.629-0.453-2.586-1.129-2.592-1.804c-0.01-0.337,1.016-1.002,2.55-1.608c1.532-0.622,3.592-1.129,5.764-1.534
			c3.787-0.533,6.318-0.338,6.635-0.217C99.376,155.656,98.933,156.251,97.979,156.81z"/>
		<path d="M66.373,135.775c1.967,0.754,4.087,0.723,5.79-0.18c1.727-0.971,2.995-2.61,3.499-4.662
			c0.419-1.688,0.211-3.411-0.351-4.788c-0.293-0.69-0.67-1.292-1.129-1.771c-0.461-0.501-0.989-0.965-1.577-1.213
			c-0.153-0.085-0.324-0.127-0.467-0.169c-0.841-0.232-1.769-0.005-2.666,0.448c-1.055,0.517-2.004,1.487-2.603,2.753
			c-0.504,1.049-0.644,2.22-0.335,3.312c0.222,0.78,0.646,1.545,1.273,1.94c0.52,0.744,1.495,0.976,2.289,0.459
			c0.675-0.422,0.983-1.239,0.886-2.004c0.016-0.354-0.032-0.696-0.166-1.013c-0.443-0.912-1.448-1.181-2.302-0.616
			c-0.211,0.142-0.388,0.316-0.546,0.506c-0.135-0.628-0.09-1.281,0.174-1.888c0.372-0.86,0.983-1.472,1.717-1.909
			c0.73-0.417,1.469-0.485,2.148-0.195c1.772,0.854,2.835,3.232,2.173,5.701c-0.443,1.555-1.477,2.9-2.782,3.533
			c-1.297,0.633-2.895,0.717-4.369,0.126c-1.864-0.812-3.014-2.305-3.457-3.981c-0.443-1.703-0.113-3.797,0.865-6.175
			c0.047-0.111,0.077-0.232,0.087-0.338l5.152-11.85c0.237-0.554,0.187-1.128-0.113-1.271c-0.298-0.147-0.751,0.163-1.015,0.717
			l-5.693,11.812c-0.037,0.043-0.082,0.09-0.103,0.132c-2.225,4.546-5.663,6.486-9.389,4.704c-1.487-0.591-2.378-1.988-2.75-3.396
			c-0.335-1.444-0.087-2.989,0.799-4.355c1.416-2.094,4.05-3.021,5.746-2.104c0.622,0.379,1.102,0.933,1.297,1.719
			c0.188,0.785,0.098,1.688-0.308,2.547c-0.298,0.58-0.751,1.039-1.303,1.34c0.05-0.243,0.061-0.485,0.019-0.723
			c-0.153-1.002-1.071-1.466-2.014-1.266c-0.33,0.084-0.606,0.274-0.854,0.501c-0.638,0.433-1.042,1.208-0.96,2.009
			c0.103,0.986,0.96,1.509,1.877,1.377c0.783,0.147,1.572,0.068,2.323-0.285c1.016-0.459,1.793-1.318,2.268-2.389
			c0.562-1.276,0.691-2.658,0.412-3.845c-0.222-1.013-0.783-1.682-1.463-2.23c-0.124-0.101-0.271-0.179-0.417-0.264
			c-1.149-0.617-2.597-0.559-4.071-0.058c-1.395,0.442-2.813,1.392-3.829,2.815c-1.215,1.74-1.68,3.85-1.184,5.675
			c0.487,1.813,1.669,3.696,3.657,4.487c1.334,0.585,2.628,0.881,3.865,0.807c1.276-0.132,2.457-0.574,3.52-1.318l-2.067,4.293
			c-1.062-0.374-2.225-0.522-3.354-0.596c-1.123-0.101-2.289,0-3.467,0.29c-2.727,0.686-5.166,2.188-6.7,4.456l-1.854,2.753
			c-0.203,0.306-0.208,0.722-0.016,1.112c0.221,0.374,0.622,0.659,1.065,0.759c0.01,0,0.192,0.059,0.517,0.127
			c0.324,0.09,0.772,0.222,1.318,0.38c1.102,0.312,2.555,0.849,4.168,1.444c1.653,0.555,3.401,1.256,5.039,2.194
			c1.648,0.907,3.262,1.861,4.472,3.254c0.485,0.543,1.34,0.696,1.896,0.369c0.562-0.338,0.593-1.044,0.114-1.571
			c-2.241-2.495-5.239-3.939-8.053-5.29c-2.9-1.144-5.611-2.146-7.415-2.657l0.928-1.492c1.179-1.873,3.069-3.144,5.223-3.676
			c2.088-0.459,4.324-0.428,6.241,0.501c1.927,0.985,3.565,2.288,4.564,4.335c1.005,2.035,1.334,4.271,0.738,6.37l-2.386,8.348
			c-0.243,0.844-1.506,1.477-3.499,1.497c-2.344,0.011-5.498-0.447-8.456-1.951l-0.145-0.078c-4.759-2.137-7.162-5.601-6.465-6.703
			c0.377-0.574,4.662,0.116,8.693,1.877c1.725,0.854,3.085,1.635,4.1,2.168c0.983,0.585,1.532,1.039,1.635,1.218
			c-0.134,0.185-0.804,0.396-1.917,0.358c-1.118-0.005-2.671-0.284-4.417-1.238c-1.706-0.876-2.998-1.936-3.314-2.732
			c-0.282-0.622-1.049-1.107-1.756-1.081c-0.717,0.037-1.118,0.602-0.875,1.271c0.541,1.608,2.354,3.116,4.931,4.456
			c0.757,0.39,1.519,0.738,2.268,1.007c0.778,0.243,1.524,0.391,2.247,0.496c1.463,0.2,2.75,0.163,3.781-0.127
			c0.994-0.29,1.603-0.786,1.798-1.419c0.847-2.942-6.79-5.737-7.543-6.359c-3.998-1.635-10.505-3.744-12.14-1.424
			c-0.789,1.208-0.361,2.927,1.063,4.836c0.725,0.949,1.685,1.951,2.884,2.922c1.237,0.891,2.689,1.756,4.303,2.541
			c0.891,0.417,1.777,0.791,2.658,1.118c0.907,0.279,1.798,0.507,2.661,0.67c1.729,0.354,3.364,0.532,4.796,0.495
			c3.246-0.189,5.189-1.413,5.595-3.084l2.067-8.438c0.654-2.695,0.124-5.484-1.205-7.868c-1.105-2.215-2.785-3.776-4.751-4.873
			l1.912-4.414C62.162,132.394,63.717,134.466,66.373,135.775z"/>
		<path d="M39.733,118.256c1.237,1.688,2.977,2.896,4.97,2.979c1.949,0.137,3.902-0.543,5.453-1.988
			c1.263-1.187,2.024-2.753,2.299-4.229c0.288-1.497-0.011-2.811-0.675-3.966c-0.09-0.142-0.188-0.273-0.301-0.4
			c-0.583-0.648-1.453-1.007-2.494-1.07c-1.173-0.121-2.492,0.174-3.694,0.907c-0.988,0.611-1.729,1.519-2.08,2.604
			c-0.259,0.797-0.253,1.625,0.055,2.326c0.042,0.891,0.738,1.64,1.669,1.64c0.788,0.011,1.479-0.517,1.835-1.213
			c0.2-0.29,0.356-0.591,0.398-0.944c0.114-1.018-0.562-1.787-1.587-1.782c-0.248,0-0.501,0.053-0.733,0.132
			c0.177-0.574,0.599-1.112,1.15-1.466c0.762-0.501,1.68-0.759,2.51-0.701c0.823,0.058,1.487,0.417,1.906,1.033
			c0.277,0.406,0.433,0.902,0.499,1.413c0.114,0.485,0.103,1.013-0.005,1.54c-0.206,1.061-0.783,2.168-1.719,3.017
			c-1.237,1.081-2.769,1.582-4.271,1.482c-1.435-0.18-2.813-0.992-3.715-2.268c-1.176-1.672-1.29-3.576-0.759-5.237
			c0.562-1.688,1.922-3.248,4.034-4.709c0.1-0.073,0.182-0.147,0.258-0.253l10.729-7.198c0.503-0.332,0.777-0.833,0.593-1.14
			c-0.155-0.289-0.728-0.264-1.236,0.053l-11.156,6.877c-0.047,0.021-0.103,0.031-0.14,0.063c-4.303,2.61-8.284,2.421-10.444-1.107
			c-0.928-1.303-0.989-2.942-0.485-4.34c0.49-1.397,1.55-2.558,3.035-3.228c2.323-1.013,5.034-0.354,5.957,1.345
			c0.303,0.659,0.479,1.355,0.182,2.136c-0.269,0.78-0.841,1.481-1.65,1.978c-0.557,0.348-1.189,0.49-1.819,0.433
			c0.171-0.18,0.329-0.38,0.408-0.602c0.422-0.923-0.108-1.819-1.015-2.136c-0.335-0.116-0.665-0.11-1.016-0.042
			c-0.762,0.016-1.526,0.438-1.89,1.176c-0.454,0.881,0.044,1.767,0.844,2.151c0.562,0.549,1.279,0.896,2.101,1.019
			c1.095,0.158,2.212-0.143,3.19-0.791c1.166-0.786,2.03-1.878,2.437-3.017c0.34-0.971,0.301-1.867-0.045-2.663
			c-0.068-0.138-0.118-0.301-0.2-0.443c-0.625-1.149-1.872-1.893-3.37-2.246c-1.479-0.343-3.13-0.332-4.783,0.332
			c-1.988,0.807-3.441,2.305-4.023,4.118c-0.62,1.799-0.578,3.997,0.638,5.732c0.804,1.229,1.69,2.188,2.818,2.774
			c1.145,0.563,2.371,0.827,3.665,0.791l-4.037,2.499c-0.704-0.896-1.561-1.661-2.518-2.315c-0.892-0.68-1.912-1.233-3.04-1.629
			c-2.624-0.902-5.545-0.938-8.068,0.132l-3.032,1.318c-0.335,0.147-0.562,0.501-0.57,0.923c-0.016,0.433,0.158,0.891,0.483,1.218
			c0.01,0.017,0.124,0.138,0.351,0.396c0.216,0.248,0.54,0.591,0.896,1.018c0.788,0.86,1.658,2.142,2.763,3.48
			c1.076,1.351,2.162,2.891,3.03,4.572c0.952,1.608,1.724,3.317,2.009,5.142c0.119,0.707,0.736,1.324,1.39,1.329
			c0.675-0.011,1.062-0.564,0.944-1.244c-0.49-3.338-2.283-6.128-3.91-8.791c-0.836-1.308-1.856-2.441-2.629-3.533
			c-0.789-1.07-1.556-2.01-2.154-2.711l1.592-0.765c1.98-0.943,4.266-0.985,6.349-0.279c1.993,0.754,3.916,1.946,5.002,3.802
			c1.118,1.852,1.764,3.84,1.484,6.102c-0.277,2.268-1.128,4.271-2.813,5.732l-6.518,5.727c-0.623,0.56-2.123,0.47-3.771-0.605
			c-1.01-0.607-2.062-1.467-3.104-2.5c-0.541-0.533-1.052-1.086-1.566-1.688c-0.485-0.617-0.934-1.313-1.376-2.015l-0.108-0.121
			c-2.813-4.388-3.035-8.575-1.833-9.139c0.319-0.143,1.302,0.511,2.473,1.682c1.142,1.177,2.7,2.706,3.842,4.599
			c0.976,1.656,1.748,3.017,2.278,4.023c0.511,1.018,0.738,1.709,0.712,1.904c-0.206,0.09-0.881-0.105-1.809-0.733
			c-0.896-0.628-2.117-1.655-3.045-3.423c-0.962-1.666-1.463-3.264-1.303-4.097c0.122-0.686-0.321-1.482-0.917-1.856
			c-0.62-0.343-1.258-0.105-1.419,0.596c-0.4,1.63,0.306,3.881,1.727,6.418c0.81,1.487,1.912,2.731,3.019,3.676
			c1.097,0.949,2.207,1.619,3.23,1.93c0.986,0.301,1.759,0.217,2.268-0.211c2.349-2.035-2.586-8.49-2.89-9.418
			c-2.458-3.549-6.848-8.833-9.434-7.768c-1.311,0.59-1.906,2.268-1.711,4.661c0.103,1.182,0.33,2.579,0.865,4.003
			c0.551,1.424,1.295,2.938,2.236,4.467c0.991,1.688,2.244,3.137,3.499,4.371c1.252,1.239,2.521,2.257,3.742,2.995
			c2.866,1.535,5.097,1.63,6.373,0.406l6.302-5.959c2.001-1.909,3.093-4.572,3.262-7.282c0.213-2.416-0.251-4.709-1.395-6.65
			l3.992-2.679C38.048,113.104,38.12,115.778,39.733,118.256z"/>
		<path d="M6.941,75.225c-0.361-0.633-1.042-0.762-1.535-0.267c-1.107,1.163-1.861,3.425-2.046,6.326
			c-0.042,3.385,0.865,6.459,2.204,8.062c0.686,0.791,1.435,1.134,2.083,1.05c2.896-0.438,2.54-8.538,2.608-9.463
			c0.087-2.178-0.306-4.92-0.912-7.227c-0.517-2.284-1.403-4.164-2.774-4.38c-1.427-0.216-2.842,0.875-4.034,2.982
			c-1.184,2.091-1.793,5.205-1.972,8.774c0.113,3.908,0.804,7.547,2.17,10.094c1.55,2.858,3.375,4.15,5.094,3.808l8.532-1.604
			c2.711-0.517,5.07-2.151,6.716-4.355c1.339-1.915,2.37-4.093,2.447-6.345l4.817-0.095c-1.102,0.665-1.988,1.556-2.624,2.658
			c-0.648,1.107-1.028,2.431-0.946,3.892c0.065,2.125,0.917,4.039,2.555,5.205c1.561,1.182,3.552,1.656,5.632,1.271
			c3.452-0.69,5.92-3.459,5.804-5.995c0.008-0.175-0.005-0.338-0.026-0.512c-0.113-0.859-0.63-1.63-1.463-2.252
			c-1.021-0.733-2.226-1.202-3.644-1.234c-1.16-0.021-2.291,0.332-3.175,1.07c-0.617,0.533-0.999,1.219-1.163,1.962
			c-0.469,0.78-0.3,1.772,0.469,2.278c0.659,0.438,1.519,0.38,2.194-0.021c0.33-0.121,0.62-0.311,0.854-0.569
			c0.662-0.791,0.527-1.804-0.334-2.367c-0.211-0.116-0.443-0.222-0.675-0.28c0.475-0.385,1.079-0.605,1.738-0.611
			c0.939-0.011,1.825,0.285,2.484,0.78c0.659,0.501,1.015,1.166,1.01,1.904c0.021,1.956-1.701,3.923-4.24,4.329
			c-1.635,0.259-3.185-0.147-4.385-1.049c-1.213-0.902-1.824-2.357-1.898-3.93c-0.126-2.024,0.789-3.691,2.181-4.799
			c1.432-1.117,3.441-1.682,5.967-1.782c0.114-0.005,0.243-0.026,0.335-0.063l12.928-0.242c0.604-0.011,1.068-0.301,1.031-0.633
			c0.042-0.338-0.427-0.619-1.025-0.635l-13.113-0.253c-0.063-0.013-0.113-0.029-0.156-0.029c-2.544-0.097-4.551-0.669-5.967-1.783
			c-1.392-1.104-2.323-2.773-2.181-4.799c0.069-1.582,0.675-3.029,1.898-3.926c1.205-0.901,2.756-1.303,4.38-1.06
			c2.555,0.427,4.261,2.378,4.25,4.342c0.016,0.736-0.335,1.4-1.01,1.901c-0.664,0.501-1.545,0.783-2.483,0.772
			c-0.659-0.005-1.263-0.227-1.743-0.617c0.237-0.053,0.47-0.145,0.681-0.285c0.852-0.551,1.004-1.566,0.335-2.354
			c-0.232-0.269-0.541-0.443-0.844-0.572c-0.675-0.406-1.54-0.464-2.202-0.029c-0.772,0.509-0.941,1.503-0.477,2.275
			c0.168,0.763,0.546,1.442,1.168,1.976c0.886,0.735,2.015,1.086,3.175,1.065c1.421-0.026,2.608-0.493,3.644-1.226
			c0.833-0.622,1.35-1.395,1.463-2.257c0.021-0.164,0.035-0.324,0.029-0.499c0.113-2.552-2.365-5.318-5.812-6.009
			c-2.08-0.377-4.065,0.103-5.626,1.279c-1.637,1.162-2.489,3.079-2.555,5.194c-0.098,1.447,0.288,2.755,0.928,3.857
			c0.623,1.094,1.498,1.985,2.586,2.649l-4.772-0.095c-0.108-2.26-1.189-4.435-2.555-6.331c-1.669-2.164-4.061-3.762-6.792-4.221
			l-3.267-0.541c-0.345-0.055-0.73,0.119-0.994,0.47c-0.253,0.351-0.356,0.836-0.274,1.273c0,0.011,0.026,0.2,0.079,0.524
			c0.039,0.33,0.113,0.783,0.174,1.35c0.076,1.124,0.356,2.679,0.496,4.396c0.19,1.711,0.098,3.596,0.087,5.466
			c-0.082,1.866-0.401,3.712-1.17,5.41c-0.33,0.644-0.045,1.487,0.517,1.856c0.562,0.348,1.21,0.11,1.458-0.544
			c0.562-1.513,1.065-3.116,1.237-4.729c0.221-1.604,0.119-3.206,0.19-4.754c0.031-3.099-0.52-5.999-0.633-7.837l1.74,0.217
			c2.201,0.282,4.071,1.471,5.474,3.198c1.463,1.711,2.226,3.747,2.139,5.896c0.137,2.151-0.604,4.188-2.041,5.938
			c-1.371,1.746-3.217,2.969-5.411,3.296l-8.585,1.276c-0.87,0.121-1.951-0.78-2.905-2.568c-0.968-2.104-1.674-5.152-1.722-8.469
			l0.005-0.153c0.113-2.581,0.594-4.812,1.237-6.344c0.588-1.545,1.548-2.381,2.181-2.312c0.356,0.04,0.725,1.124,1.205,2.734
			c0.443,1.619,0.783,3.731,0.707,5.933c0.042,3.818-0.411,6.286-0.675,6.581c-0.422-0.073-1.891-2.12-1.875-6.111
			c0.119-1.912,0.591-3.499,1.2-4.135C7.199,76.768,7.292,75.861,6.941,75.225z"/>
		<path d="M21.158,36.792c0.675-0.166,1.252-0.868,1.308-1.593c0.042-0.73-0.453-1.21-1.139-1.047
			c-1.545,0.388-3.549,1.788-5.147,4.211c-1.88,2.845-2.932,5.838-2.51,8.008c0.161,1.033,0.562,1.725,1.176,2.009
			c1.438,0.67,2.927-0.928,4.396-2.586c1.464-1.674,2.642-3.602,2.906-3.995c1.155-1.854,2.463-4.261,3.159-6.573
			c0.741-2.252,1.081-4.237,0.026-5.179c-1.073-0.954-2.882-0.825-5.025,0.293c-1.988,1.221-4.414,3.354-6.394,6.349
			c-1.026,1.669-1.885,3.375-2.539,5.007c-0.675,1.619-0.949,3.277-1.094,4.701c-0.309,3.219,0.506,5.266,2.154,5.935l8.039,3.251
			c2.523,1.02,5.461,0.946,8.068-0.006c1.129-0.411,2.139-0.976,3.019-1.68c0.96-0.653,1.788-1.432,2.468-2.338l4.108,2.534
			c-1.3-0.05-2.56,0.206-3.715,0.783c-1.145,0.572-2.035,1.556-2.85,2.787c-1.231,1.748-1.258,3.947-0.638,5.745
			c0.583,1.814,2.036,3.293,4.029,4.124c1.653,0.665,3.283,0.675,4.783,0.324c1.492-0.355,2.74-1.104,3.359-2.246
			c0.087-0.146,0.137-0.301,0.206-0.454c0.335-0.799,0.385-1.685,0.045-2.655c-0.406-1.144-1.271-2.231-2.437-3.019
			c-0.979-0.648-2.096-0.952-3.19-0.788c-0.807,0.113-1.529,0.469-2.102,1.015c-0.799,0.388-1.297,1.284-0.844,2.16
			c0.346,0.741,1.123,1.16,1.891,1.17c0.335,0.066,0.68,0.077,1.015-0.037c0.917-0.33,1.448-1.221,1.015-2.144
			c-0.098-0.216-0.232-0.416-0.398-0.588c0.62-0.065,1.253,0.082,1.809,0.428c0.793,0.501,1.376,1.207,1.65,1.975
			c0.298,0.778,0.114,1.474-0.187,2.139c-0.918,1.695-3.631,2.338-5.951,1.339c-1.474-0.664-2.55-1.83-3.035-3.229
			c-0.503-1.397-0.438-3.035,0.475-4.335c2.144-3.525,6.141-3.715,10.439-1.107c0.114,0.066,0.216,0.108,0.335,0.129l10.995,6.795
			c0.511,0.312,1.068,0.335,1.237,0.048c0.166-0.288-0.108-0.799-0.591-1.134L44.583,56c-0.042-0.031-0.074-0.082-0.113-0.113
			c-2.109-1.463-3.47-3.019-4.032-4.709c-0.546-1.658-0.417-3.575,0.759-5.234c0.907-1.294,2.286-2.104,3.715-2.273
			c1.503-0.095,3.035,0.406,4.271,1.487c0.952,0.841,1.513,1.948,1.719,3.011c0.108,0.541,0.113,1.061,0.005,1.545
			c-0.065,0.519-0.221,1-0.498,1.416c-0.403,0.615-1.068,0.976-1.906,1.026c-0.831,0.063-1.748-0.195-2.521-0.691
			c-0.541-0.358-0.962-0.901-1.139-1.477c0.232,0.087,0.485,0.132,0.733,0.132c1.015,0.006,1.7-0.767,1.587-1.777
			c-0.042-0.34-0.197-0.659-0.393-0.939c-0.34-0.704-1.036-1.239-1.841-1.215c-0.931,0-1.626,0.733-1.669,1.629
			c-0.309,0.696-0.313,1.524-0.055,2.334c0.335,1.086,1.091,1.993,2.081,2.602c1.202,0.736,2.521,1.031,3.694,0.907
			c1.042-0.065,1.912-0.427,2.495-1.073c0.113-0.122,0.211-0.25,0.3-0.396c0.665-1.16,0.962-2.468,0.675-3.974
			c-0.274-1.479-1.021-3.04-2.3-4.24c-1.55-1.442-3.488-2.117-5.455-1.975c-1.996,0.089-3.721,1.278-4.968,2.974
			c-1.592,2.452-1.68,5.103-0.588,7.364l-3.942-2.655c1.107-1.967,1.535-4.271,1.284-6.703c-0.208-2.71-1.35-5.339-3.396-7.203
			l-2.458-2.221c-0.274-0.242-0.68-0.306-1.083-0.145c-0.401,0.155-0.772,0.503-0.941,0.907c-0.005,0.01-0.084,0.179-0.214,0.483
			c-0.132,0.284-0.335,0.706-0.585,1.213c-0.48,1.044-1.105,2.483-1.938,3.986c-0.422,0.754-0.886,1.532-1.392,2.299
			c-0.448,0.799-0.947,1.598-1.498,2.365c-1.062,1.535-2.483,2.835-3.902,3.932c-0.572,0.411-0.838,1.247-0.572,1.846
			c0.269,0.602,0.965,0.746,1.517,0.338c2.586-1.973,4.785-4.522,6.28-7.265c1.762-2.544,2.866-5.297,3.726-6.921l1.355,1.128
			c1.685,1.43,2.587,3.423,2.895,5.68c0.325,2.257-0.324,4.256-1.395,6.123c-1.036,1.885-2.958,3.095-4.938,3.878
			c-2.069,0.752-4.358,0.752-6.367-0.155l-7.916-3.56c-0.807-0.356-1.21-1.685-1.015-3.705c0.134-2.407,1.418-5.239,3.119-8.1
			l0.098-0.129c2.921-4.298,6.486-6.342,7.527-5.466c0.515,0.448-0.633,4.72-3.061,8.356c-1.988,3.259-3.85,5.021-4.174,5.16
			c-0.351-0.314-0.401-2.792,1.814-6.128C18.951,38.018,20.327,37.014,21.158,36.792z"/>
		<path d="M50.903,11.255c1.737-0.82,3.417-0.988,4.248-0.69c0.665,0.232,1.54-0.042,1.972-0.622
			c0.438-0.583,0.274-1.253-0.39-1.495c-0.77-0.274-1.748-0.361-2.876-0.248c-1.15,0.087-2.416,0.406-3.731,1.021
			c-3.132,1.35-5.61,3.349-6.436,5.395c-0.422,0.962-0.448,1.756-0.092,2.317c0.836,1.327,2.985,0.836,5.081,0.183
			c2.139-0.615,4.185-1.582,4.611-1.777c1.943-1.002,4.385-2.252,6.215-3.829c1.825-1.577,3.225-2.985,2.824-4.367
			c-0.388-1.36-2.009-2.312-4.385-2.441c-2.354-0.047-5.577,0.377-8.844,1.901c-1.756,0.841-3.425,1.809-4.844,2.824
			c-1.411,1.052-2.56,2.257-3.451,3.375c-2.009,2.51-2.392,4.725-1.371,6.178l5.025,7.085c1.587,2.225,4.055,3.675,6.79,4.324
			c1.181,0.271,2.331,0.34,3.449,0.232c1.129-0.09,2.281-0.248,3.338-0.641l2.086,4.34c-1.06-0.757-2.265-1.21-3.533-1.355
			c-1.247-0.081-2.576,0.211-3.916,0.81c-1.991,0.789-3.174,2.669-3.66,4.488c-0.499,1.83-0.026,3.92,1.191,5.666
			c1.016,1.435,2.426,2.381,3.818,2.829c1.463,0.506,2.921,0.562,4.074-0.066c0.145-0.077,0.295-0.166,0.414-0.264
			c0.691-0.545,1.248-1.221,1.464-2.231c0.276-1.184,0.129-2.56-0.414-3.844c-0.472-1.071-1.255-1.928-2.271-2.392
			c-0.749-0.338-1.537-0.427-2.32-0.288c-0.912-0.124-1.777,0.393-1.875,1.381c-0.103,0.805,0.319,1.572,0.957,1.999
			c0.248,0.237,0.538,0.433,0.857,0.514c0.941,0.203,1.87-0.277,2.015-1.266c0.04-0.237,0.026-0.48-0.016-0.717
			c0.562,0.285,1.015,0.751,1.297,1.34c0.393,0.846,0.501,1.75,0.306,2.542c-0.2,0.786-0.675,1.339-1.294,1.714
			c-1.695,0.923-4.348-0.005-5.746-2.091c-0.886-1.371-1.139-2.916-0.788-4.353c0.351-1.419,1.247-2.806,2.748-3.401
			c3.72-1.783,7.156,0.158,9.378,4.704c0.061,0.113,0.127,0.211,0.201,0.298l5.6,11.641c0.264,0.546,0.718,0.865,1.016,0.717
			c0.303-0.156,0.335-0.728,0.113-1.279l-5.216-12.031c-0.016-0.048-0.021-0.108-0.044-0.156c-0.994-2.365-1.305-4.461-0.862-6.162
			c0.443-1.701,1.592-3.175,3.454-4.003c1.469-0.583,3.069-0.496,4.375,0.137c1.292,0.63,2.333,1.98,2.776,3.531
			c0.664,2.473-0.401,4.849-2.17,5.708c-0.675,0.29-1.438,0.222-2.149-0.189c-0.751-0.433-1.345-1.052-1.719-1.912
			c-0.264-0.593-0.319-1.252-0.171-1.885c0.14,0.185,0.334,0.358,0.545,0.498c0.862,0.562,1.856,0.304,2.3-0.611
			c0.145-0.312,0.185-0.657,0.174-1c0.09-0.775-0.211-1.587-0.886-2.02c-0.789-0.517-1.772-0.279-2.286,0.448
			c-0.63,0.412-1.058,1.184-1.284,1.957c-0.319,1.097-0.164,2.257,0.335,3.309c0.599,1.258,1.55,2.241,2.603,2.761
			c0.896,0.454,1.824,0.675,2.668,0.443c0.14-0.045,0.314-0.098,0.464-0.164c0.588-0.258,1.118-0.717,1.577-1.218
			c0.459-0.482,0.836-1.081,1.128-1.772c0.562-1.381,0.789-3.095,0.351-4.791c-0.519-2.051-1.772-3.694-3.499-4.654
			c-1.701-0.907-3.823-0.938-5.791-0.185c-2.634,1.281-4.164,3.344-4.454,5.914L60.055,29c1.972-1.123,3.618-2.726,4.693-4.967
			c1.279-2.405,1.769-5.205,1.042-7.884l-0.859-3.204c-0.108-0.351-0.403-0.62-0.836-0.717c-0.427-0.097-0.918,0-1.273,0.248
			c-0.029,0.021-0.644,0.401-1.606,1.01c-0.959,0.643-2.284,1.479-3.799,2.299c-1.545,0.757-3.209,1.685-4.947,2.373
			c-1.75,0.68-3.625,1.067-5.413,1.208c-0.707,0.032-1.381,0.59-1.469,1.237c-0.108,0.648,0.39,1.139,1.086,1.102
			c3.262-0.237,6.452-1.252,9.218-2.71c2.824-1.263,5.303-2.861,6.874-3.855l0.53,1.686c0.648,2.083,0.355,4.324-0.606,6.37
			c-0.965,2.064-2.587,3.375-4.475,4.408c-1.917,0.981-4.164,1.013-6.254,0.599c-2.149-0.503-4.071-1.735-5.287-3.586l-4.735-7.27
			c-0.491-0.743-0.108-2.067,1.144-3.649c1.432-1.943,3.992-3.694,7.008-5.142l0.137-0.063c4.767-2.102,8.931-1.793,9.308-0.552
			c0.201,0.696-3.103,3.586-7.101,5.395c-3.449,1.651-5.961,2.118-6.307,2.093C45.932,14.971,47.224,12.848,50.903,11.255z"/>
		<path d="M83.334,25.048c-2.107-0.261-4.127,0.541-5.514,1.798c-1.4,1.311-2.138,3.359-2.067,5.448
			c0.193,3.509,2.563,6.205,5.129,6.61c0.158,0.026,0.335,0.032,0.498,0.021c0.878-0.068,1.706-0.496,2.45-1.139
			c0.87-0.805,1.492-2.025,1.719-3.407c0.182-1.149-0.011-2.307-0.596-3.256c-0.443-0.709-1.068-1.237-1.793-1.545
			c-0.696-0.614-1.711-0.491-2.331,0.216c-0.53,0.609-0.578,1.479-0.293,2.186c0.098,0.335,0.216,0.659,0.448,0.902
			c0.686,0.772,1.717,0.633,2.381-0.037c0.153-0.166,0.288-0.372,0.361-0.599c0.33,0.557,0.448,1.191,0.364,1.84
			c-0.119,0.928-0.53,1.732-1.118,2.273c-0.591,0.562-1.297,0.896-2.025,0.81c-1.951-0.227-3.662-2.413-3.704-4.902
			c-0.093-3.338,2.634-5.761,5.822-5.502c2.017,0.355,3.541,1.339,4.448,2.845c0.907,1.498,1.179,3.705,0.912,6.199
			c-0.01,0.126-0.005,0.25,0.017,0.358L86.86,48.993c-0.074,0.593,0.134,1.128,0.464,1.187c0.335,0.05,0.68-0.394,0.788-0.994
			l2.106-12.938c0.017-0.053,0.045-0.103,0.062-0.156c0.442-2.505,1.294-4.432,2.61-5.729c1.297-1.268,3.032-1.685,5.067-1.453
			c1.604,0.118,2.832,1.263,3.586,2.483c0.743,1.273,0.928,2.824,0.464,4.385c-0.775,2.405-3.032,4.05-4.931,3.668
			c-0.701-0.174-1.297-0.633-1.719-1.297c-0.411-0.691-0.564-1.587-0.422-2.515c0.11-0.649,0.411-1.221,0.864-1.659
			c0.021,0.243,0.085,0.48,0.185,0.691c0.438,0.875,1.44,1.128,2.284,0.659c0.295-0.172,0.506-0.438,0.686-0.733
			c0.484-0.59,0.675-1.447,0.343-2.188c-0.19-0.438-0.533-0.749-0.907-0.912c-0.401-0.113-0.854-0.092-1.276,0.103
			c-0.786,0.087-1.514,0.404-2.136,0.944c-0.828,0.735-1.35,1.782-1.481,2.945c-0.175,1.392,0.089,2.753,0.686,3.789
			c0.501,0.907,1.229,1.379,2.024,1.734c0.153,0.059,0.312,0.114,0.48,0.13c1.271,0.264,2.668-0.232,3.912-1.092
			c1.224-0.825,2.32-2.144,2.869-3.802c0.664-1.986,0.549-4.168-0.453-5.772c-0.485-0.82-1.15-1.556-1.951-2.144
			c-0.791-0.611-1.746-1.025-2.816-1.123c-1.466-0.19-2.784-0.077-3.944,0.329c-1.171,0.438-2.173,1.258-2.998,2.252l0.768-4.698
			c2.31-0.026,4.535-0.388,6.639-1.638c2.415-1.461,4.324-3.53,5.157-6.159l1.002-3.164c0.116-0.346-0.01-0.752-0.316-1.07
			c-0.3-0.335-0.78-0.475-1.233-0.443c-0.011,0-0.19,0.005-0.538,0.021c-0.332,0.005-0.786,0.01-1.371,0.023
			c-1.149,0-2.711-0.05-4.419-0.227c-3.48-0.093-7.502-0.752-10.645-2.497c-0.612-0.367-1.469-0.279-1.912,0.2
			c-0.433,0.485-0.282,1.173,0.33,1.529c1.424,0.865,2.948,1.442,4.509,1.809c1.556,0.422,3.141,0.789,4.686,0.944
			c3.105,0.237,5.964,0.53,7.868,0.453l-0.465,1.695c-0.585,2.123-2.057,3.89-3.96,5.018c-0.949,0.567-1.92,0.88-2.975,1.128
			c-1.044,0.259-2.104,0.319-3.169,0.161c-2.139-0.367-4.05-1.263-5.577-2.866c-1.54-1.619-2.484-3.715-2.495-5.93l-0.055-8.677
			c-0.01-0.881,1.015-1.772,2.927-2.392c2.231-0.757,5.342-1.107,8.643-0.53l0.153,0.016c2.568,0.369,4.72,1.128,6.133,2.101
			c1.429,0.918,2.151,1.841,1.982,2.489c-0.211,0.72-4.514,1.174-8.891,0.681c-3.76-0.659-6.156-1.34-6.412-1.63
			c0.126-0.369,2.365-1.761,6.307-0.946c1.898,0.34,3.417,0.988,3.966,1.653c0.438,0.54,1.297,0.814,1.972,0.572
			c0.686-0.243,0.907-0.896,0.491-1.469c-0.976-1.377-3.117-2.392-5.985-2.89c-3.352-0.717-6.523-0.097-8.314,1.055
			c-0.87,0.562-1.313,1.213-1.324,1.877c-0.011,1.54,2.046,2.41,4.174,2.932c2.134,0.483,4.366,0.984,4.831,1.01
			c1.081,0.158,2.32,0.221,3.586,0.206c1.249,0.061,2.531,0.061,3.718-0.068c2.356-0.245,4.355-0.912,4.762-2.23
			c0.422-1.39-0.47-2.906-2.395-4.327c-0.97-0.701-2.183-1.371-3.606-1.97c-1.424-0.567-3.069-0.917-4.842-1.221
			C91.115-0.37,87.405,0.15,84.706,1.017C83.189,1.487,82.05,2.191,81.304,3c-0.762,0.789-1.107,1.64-1.065,2.515l0.38,8.667
			c0.113,2.813,1.413,5.184,3.354,7.259c1.68,1.825,3.721,2.727,5.928,3.32l-0.583,4.78C88.338,26.986,86.25,25.599,83.334,25.048z"
			/>
		<path d="M113.835,34.303c-1.682-1.273-3.686-1.917-5.61-1.463c-1.914,0.427-3.597,1.637-4.673,3.457
			c-0.886,1.495-1.17,3.206-1.012,4.696c0.142,1.514,0.78,2.713,1.745,3.631c0.11,0.113,0.269,0.211,0.391,0.295
			c0.754,0.456,1.682,0.557,2.694,0.324c1.165-0.195,2.347-0.856,3.27-1.901c0.786-0.862,1.239-1.943,1.266-3.083
			c0.011-0.83-0.206-1.643-0.707-2.22c-0.284-0.847-1.16-1.36-2.057-1.097c-0.759,0.216-1.275,0.909-1.413,1.682
			c-0.116,0.327-0.179,0.675-0.121,1.013c0.163,1.013,1.039,1.551,2.02,1.261c0.248-0.077,0.459-0.19,0.654-0.335
			c-0.021,0.614-0.264,1.247-0.686,1.737c-0.58,0.696-1.382,1.179-2.204,1.366c-0.802,0.179-1.54,0.026-2.12-0.448
			c-1.45-1.351-1.835-3.866-0.475-6.075c0.87-1.382,2.199-2.315,3.67-2.618c1.43-0.232,2.975,0.15,4.208,1.123
			c1.582,1.279,2.236,3.062,2.184,4.812c-0.084,1.777-0.954,3.66-2.562,5.664c-0.085,0.092-0.127,0.2-0.175,0.309l-8.279,9.919
			c-0.374,0.464-0.501,1.026-0.253,1.258c0.243,0.232,0.775,0.056,1.182-0.393l8.774-9.732c0.048-0.037,0.101-0.063,0.122-0.108
			c3.406-3.72,7.271-4.638,10.325-1.867c1.266,0.986,1.761,2.565,1.688,4.021c-0.074,1.477-0.765,2.895-1.993,3.955
			c-1.941,1.608-4.726,1.758-6.107,0.387c-0.484-0.54-0.812-1.194-0.78-2.009c0.042-0.804,0.391-1.653,1.013-2.354
			c0.433-0.49,1.002-0.799,1.624-0.923c-0.11,0.216-0.189,0.443-0.222,0.686c-0.137,1.004,0.628,1.706,1.582,1.777
			c0.338,0.01,0.665-0.098,0.971-0.243c0.743-0.231,1.35-0.854,1.477-1.664c0.189-0.967-0.512-1.701-1.419-1.84
			c-0.695-0.358-1.481-0.504-2.304-0.385c-1.092,0.15-2.1,0.767-2.838,1.664c-0.896,1.081-1.418,2.365-1.477,3.576
			c-0.073,1.03,0.259,1.856,0.791,2.552c0.105,0.132,0.206,0.261,0.327,0.375c0.938,0.917,2.357,1.278,3.897,1.202
			c1.461-0.048,3.085-0.554,4.456-1.65c1.682-1.34,2.679-3.204,2.727-5.1c0.073-1.888-0.564-4.011-2.247-5.329
			c-1.107-0.944-2.262-1.603-3.485-1.869c-1.261-0.222-2.521-0.124-3.755,0.271l3.206-3.539c0.923,0.669,1.962,1.147,3.048,1.513
			c1.045,0.409,2.184,0.649,3.396,0.707c2.795,0.113,5.579-0.659,7.688-2.402l2.558-2.128c0.279-0.227,0.411-0.643,0.312-1.052
			c-0.111-0.422-0.411-0.807-0.797-1.028c-0.016,0-0.163-0.1-0.453-0.269c-0.29-0.174-0.675-0.428-1.165-0.728
			c-0.971-0.606-2.173-1.561-3.597-2.555s-2.896-2.159-4.188-3.525c-1.339-1.297-2.584-2.7-3.364-4.387
			c-0.327-0.646-1.086-1.057-1.709-0.896c-0.627,0.195-0.849,0.823-0.559,1.471c1.424,3.051,3.913,5.247,6.212,7.327
			c2.447,1.917,4.794,3.628,6.365,4.633l-1.313,1.182c-1.645,1.471-3.817,2.151-6.021,2.064c-2.136-0.153-4.282-0.788-5.854-2.241
			c-0.797-0.741-1.482-1.54-2.036-2.421c-0.543-0.907-0.907-1.917-1.107-3.024c-0.374-2.247-0.11-4.427,1.087-6.302l4.646-7.309
			c0.459-0.735,1.903-1.028,3.792-0.472c1.128,0.303,2.383,0.822,3.701,1.523c0.644,0.351,1.313,0.738,1.968,1.182
			c0.616,0.478,1.249,0.999,1.882,1.545l0.116,0.113c3.944,3.391,5.306,7.367,4.319,8.234c-0.533,0.443-4.445-1.408-7.8-4.227
			c-0.717-0.638-1.329-1.26-1.883-1.809c-0.563-0.524-1.038-1.005-1.439-1.421c-0.775-0.836-1.181-1.438-1.218-1.619
			c0.169-0.137,0.881-0.153,1.93,0.188c1.05,0.334,2.479,1.01,3.892,2.426c1.397,1.329,2.315,2.705,2.39,3.564
			c0.105,0.675,0.712,1.332,1.397,1.516c0.701,0.156,1.239-0.264,1.202-0.983c-0.059-1.69-1.382-3.633-3.47-5.659
			c-1.208-1.21-2.579-2.102-3.919-2.689c-1.318-0.604-2.584-0.933-3.639-0.943c-1.033-0.011-1.761,0.29-2.141,0.841
			c-1.656,2.597,4.873,7.425,5.421,8.224c3.364,2.706,9.044,6.534,11.232,4.762c1.097-0.933,1.192-2.7,0.338-4.933
			c-0.422-1.107-1.055-2.365-1.94-3.602c-0.929-1.205-2.078-2.442-3.396-3.646c-1.439-1.339-3.032-2.386-4.604-3.207
			c-1.551-0.828-3.054-1.458-4.425-1.824c-3.19-0.688-5.368-0.121-6.243,1.392l-4.372,7.501c-1.393,2.386-1.683,5.236-1.081,7.889
			c0.453,2.408,1.571,4.438,3.186,6.015l-3.08,3.694C116.9,38.77,116.05,36.251,113.835,34.303z"/>
		<path d="M161.867,58.964c-0.459-1.917-1.309-3.639-2.142-5.194c-0.864-1.545-1.751-2.905-2.758-3.942
			c-2.331-2.294-4.435-3.008-5.985-2.196l-7.736,3.953c-2.452,1.263-4.256,3.504-5.179,6.069c-0.849,2.252-1.112,4.612-0.563,6.776
			l-4.588,1.448c1.688-1.859,2.436-4.472,1.561-7.286c-0.723-1.982-2.015-3.623-3.934-4.261c-1.836-0.68-3.893-0.572-5.77,0.377
			c-1.556,0.783-2.716,2.075-3.406,3.42c-0.718,1.371-0.771,2.7-0.475,3.989c0.058,0.169,0.115,0.324,0.179,0.47
			c0.369,0.791,1.087,1.374,2.078,1.729c1.123,0.438,2.437,0.535,3.797,0.155c1.118-0.308,2.109-0.97,2.731-1.911
			c0.496-0.707,0.675-1.474,0.591-2.236c0.231-0.867-0.232-1.777-1.118-2.041c-0.765-0.232-1.571,0.077-2.104,0.649
			c-0.273,0.216-0.521,0.469-0.648,0.788c-0.411,0.938,0.032,1.869,1.013,2.154c0.237,0.071,0.485,0.092,0.738,0.076
			c-0.348,0.512-0.865,0.892-1.487,1.084c-0.896,0.276-1.835,0.261-2.61-0.032c-0.785-0.295-1.308-0.82-1.519-1.527
			c-0.264-0.973-0.121-2.004,0.343-2.966c0.501-0.965,1.366-1.867,2.51-2.402c1.487-0.696,3.091-0.746,4.509-0.227
			c1.345,0.562,2.41,1.732,2.927,3.229c0.696,1.904,0.228,3.784-0.759,5.221c-1.018,1.464-2.784,2.571-5.189,3.375
			c-0.116,0.042-0.231,0.098-0.327,0.161l-12.318,3.873c-0.559,0.172-0.98,0.583-0.896,0.913c0.074,0.33,0.602,0.458,1.191,0.303
			l12.656-3.436c0.053-0.005,0.116-0.005,0.158-0.021c2.458-0.622,4.567-0.643,6.255,0.021c0.822,0.335,1.624,0.833,2.173,1.503
			c0.559,0.675,0.98,1.516,1.244,2.494c0.222,0.765,0.264,1.537,0.163,2.268c-0.121,0.733-0.484,1.435-0.917,2.03
			c-0.886,1.202-2.241,2.025-3.871,2.247c-2.51,0.306-4.878-1.086-5.268-2.993c-0.222-0.701-0.096-1.437,0.39-2.094
			c0.475-0.67,1.234-1.189,2.136-1.437c0.628-0.18,1.271-0.13,1.856,0.103c-0.2,0.119-0.396,0.274-0.564,0.464
			c-0.644,0.768-0.475,1.777,0.401,2.344c0.306,0.187,0.596,0.285,0.959,0.316c0.729,0.206,1.604,0.018,2.136-0.588
			c0.586-0.701,0.454-1.7-0.231-2.31c-0.364-0.675-0.965-1.231-1.683-1.566c-1.007-0.464-2.156-0.503-3.274-0.145
			c-1.34,0.414-2.484,1.224-3.212,2.201c-0.611,0.826-0.859,1.701-0.717,2.571l0.1,0.485c0.522,2.499,3.823,4.464,7.294,4.163
			c2.088-0.222,3.85-1.242,4.988-2.813c0.559-0.783,0.98-1.695,1.208-2.679c0.174-0.971,0.089-2.001-0.206-3.021
			c-0.69-2.832-2.737-4.606-5.199-5.255l4.608-1.252c0.411,1.058,1.002,2.046,1.729,2.938c0.738,0.896,1.487,1.722,2.484,2.431
			c2.241,1.608,5.015,2.474,7.768,2.142l3.285-0.398c0.354-0.042,0.67-0.313,0.797-0.717c0.147-0.417,0.115-0.91-0.105-1.302
			c0-0.011-0.101-0.185-0.232-0.48c-0.137-0.298-0.338-0.725-0.564-1.241c-0.469-1.044-0.976-2.5-1.672-4.101
			c-0.653-1.608-1.233-3.406-1.592-5.26c-0.485-1.804-0.718-3.676-0.48-5.511c0.079-0.71-0.321-1.482-0.986-1.664
			c-0.643-0.185-1.191,0.242-1.239,0.928c-0.216,1.669-0.142,3.31,0.127,4.902c0.132,0.801,0.343,1.571,0.549,2.367
			c0.147,0.781,0.348,1.548,0.58,2.294c0.442,1.49,1.018,2.89,1.534,4.143c0.443,1.258,0.907,2.365,1.276,3.217l-1.74,0.282
			c-2.168,0.34-4.366-0.264-6.149-1.54c-1.761-1.269-3.206-2.979-3.723-5.065c-0.575-2.072-0.585-4.184,0.312-6.267
			c0.917-2.107,2.257-3.771,4.292-4.72l7.868-3.657c0.775-0.356,2.146,0.156,3.476,1.648c1.519,1.764,3.211,4.453,4.061,7.688
			l0.042,0.15c0.644,2.513,0.886,4.786,0.653,6.449c-0.273,1.686-0.817,2.732-1.477,2.84c-0.337,0.059-1.097-0.859-1.888-2.299
			c-0.833-1.442-1.835-3.375-2.394-5.516c-0.433-1.872-0.865-3.38-1.045-4.509c-0.2-1.128-0.221-1.851-0.142-2.03
			c0.374-0.037,2.525,1.468,3.496,5.363c0.442,1.88,0.453,3.539,0.063,4.314c-0.307,0.623-0.111,1.519,0.39,2.03
			c0.496,0.519,1.182,0.448,1.535-0.177c0.765-1.432,0.785-3.813,0.11-6.652c-0.78-3.322-2.674-5.98-4.382-7.156
			c-0.85-0.567-1.646-0.712-2.241-0.438c-2.816,1.292,0.11,8.894,0.11,9.872c0.527,2.123,1.846,4.617,2.896,6.697
			c1.154,2.057,2.567,3.607,3.934,3.423C162.225,71.655,163.86,65.962,161.867,58.964z"/>
	</g>
</g>
<g>
</g>
<g>
</g>
<g>
</g>
<g>
</g>
<g>
</g>
<g>
</g>
<g>
</g>
<g>
</g>
<g>
</g>
<g>
</g>
<g>
</g>
<g>
</g>
<g>
</g>
<g>
</g>
<g>
</g>
</svg>
