<?xml version="1.0" encoding="iso-8859-1"?>
<!-- Generator: Adobe Illustrator 16.0.0, SVG Export Plug-In . SVG Version: 6.00 Build 0)  -->
<!DOCTYPE svg PUBLIC "-//W3C//DTD SVG 1.1//EN" "http://www.w3.org/Graphics/SVG/1.1/DTD/svg11.dtd">
<svg version="1.1" id="Capa_1" xmlns="http://www.w3.org/2000/svg" xmlns:xlink="http://www.w3.org/1999/xlink" x="0px" y="0px"
	 width="164.715px" height="164.716px" viewBox="0 0 164.715 164.716" style="enable-background:new 0 0 164.715 164.716;"
	 xml:space="preserve">
<g>
	<g>
		<path d="M164.014,76.373c-0.591-1.076-1.529-1.907-2.626-2.375c0.443-1.118,0.506-2.365,0.169-3.533
			c-0.253-0.902-0.738-1.722-1.413-2.387c-0.834-0.83-1.889-1.371-3.027-1.561c-0.189-1.129-0.733-2.186-1.561-3.035
			c-0.665-0.664-1.487-1.155-2.373-1.408c-1.16-0.334-2.437-0.276-3.555,0.156c-0.485-1.097-1.318-2.036-2.395-2.619
			c-1.888-1.026-4.229-0.86-5.906,0.34c-1.677-1.2-4.061-1.371-5.938-0.335c-1.065,0.577-1.914,1.516-2.384,2.603
			c-1.107-0.422-2.394-0.499-3.544-0.146c-0.896,0.259-1.703,0.744-2.378,1.408c-0.822,0.833-1.36,1.906-1.551,3.035
			c-1.139,0.189-2.183,0.73-3.032,1.55c-0.675,0.665-1.149,1.463-1.424,2.391c-0.337,1.185-0.264,2.421,0.169,3.539
			c-1.097,0.479-2.024,1.3-2.615,2.375c-0.454,0.804-0.696,1.738-0.696,2.689c0,0.686,0.158,1.347,0.4,1.975h-9.186
			c1.339-0.696,2.626-1.49,3.744-2.495c3.659-3.267,5.685-7.857,5.695-12.922c0.031-10.086-6.255-16.087-12.857-21.022
			c-1.677-1.316-3.312-3.434-1.793-6.133c0.887-1.577,2.911-2.144,4.504-1.247c0.549,0.314,0.949,0.809,1.118,1.432
			c0.169,0.604,0.095,1.245-0.222,1.809c-0.211,0.366-0.559,0.641-0.98,0.765c-0.401,0.118-0.844,0.071-1.245-0.14
			c-0.231-0.13-0.4-0.346-0.475-0.609c-0.084-0.277-0.042-0.562,0.095-0.788c0.359-0.654,0.138-1.464-0.517-1.849
			c-0.644-0.356-1.477-0.135-1.835,0.52c-0.496,0.862-0.611,1.891-0.348,2.834c0.264,0.963,0.896,1.762,1.761,2.247
			c1.023,0.566,2.194,0.706,3.302,0.396c1.117-0.324,2.035-1.039,2.594-2.044c0.665-1.181,0.817-2.552,0.465-3.86
			c-0.359-1.3-1.219-2.381-2.395-3.051c-2.89-1.629-6.55-0.583-8.185,2.289c-0.706,1.266-0.886,2.561-0.802,3.834
			c-1.244-0.896-2.51-1.788-3.681-2.711c-7.989-6.338-12.445-10.249-11.391-17.051c0.422-2.761,1.917-5.178,4.227-6.837
			c2.387-1.695,5.413-2.37,8.304-1.869c2.193,0.391,4.113,1.627,5.389,3.462c1.271,1.835,1.762,4.061,1.371,6.265
			c-0.126,0.733,0.354,1.435,1.087,1.566c0.717,0.14,1.444-0.354,1.571-1.092c0.527-2.911-0.116-5.854-1.814-8.284
			c-1.688-2.418-4.219-4.05-7.129-4.567c-3.576-0.643-7.362,0.195-10.35,2.326c-2.897,2.08-4.793,5.136-5.329,8.619
			c-1.329,8.683,5.034,13.732,12.392,19.586c1.651,1.308,3.423,2.576,5.216,3.839c1.16,0.833,2.32,1.68,3.47,2.534
			c0.021,0.016,0.032,0.031,0.053,0.047c0.011,0.006,0.021,0.006,0.021,0.011c6.233,4.651,11.749,9.975,11.718,18.787
			c-0.011,4.282-1.709,8.171-4.799,10.913c-2.373,2.123-5.475,3.406-8.775,3.86c0.896-0.862,1.666-1.894,2.131-3.223
			c1.244-3.667-0.718-7.662-4.367-8.914c-1.497-0.515-3.101-0.412-4.503,0.284c-1.424,0.686-2.468,1.896-2.985,3.365
			c-0.898,2.586,0.496,5.445,3.091,6.346c2.23,0.765,4.635-0.432,5.399-2.642c0.164-0.49-0.036-0.944-0.348-1.295
			c-0.053-0.113,0.011-0.234-0.074-0.335c-0.49-0.767-1.486-0.988-2.246-0.514c-0.675,0.443-0.844,1.278-0.543,2.004
			c-0.401,0.253-0.854,0.382-1.318,0.222c-1.192-0.412-1.825-1.701-1.413-2.9c0.273-0.794,0.827-1.453,1.603-1.825
			c0.775-0.355,1.641-0.422,2.447-0.14c2.246,0.775,3.448,3.238,2.679,5.49c-1.276,3.702-4.572,3.992-7.24,3.543
			c-2.479-0.838-4.667-2.354-6.347-4.43c-2.333-2.887-3.391-6.528-2.998-10.225c0.654-5.962,5.962-10.283,11.981-9.635
			c2.246,0.248,4.25,1.35,5.663,3.106c1.419,1.743,2.047,3.934,1.804,6.188c-0.084,0.749,0.454,1.414,1.208,1.484
			c0.785,0.134,1.402-0.454,1.471-1.205c0.338-2.953-0.517-5.854-2.367-8.177c-1.872-2.32-4.515-3.763-7.473-4.098
			c-7.378-0.777-14.148,4.596-14.966,12.031c-0.485,4.406,0.788,8.754,3.57,12.222c1.297,1.619,2.879,2.927,4.617,3.934h-7.585
			c-0.325,0-0.562,0.153-0.793,0.338C82.17,81.143,81.841,81,81.454,81h-7.478c1.69-1.018,3.238-2.278,4.514-3.865
			c2.784-3.468,4.05-7.8,3.557-12.222c-0.793-7.436-7.403-12.917-14.958-12.021c-2.953,0.324-5.611,1.771-7.472,4.087
			c-1.864,2.323-2.71,5.224-2.375,8.177c0.087,0.751,0.675,1.35,1.479,1.205c0.746-0.087,1.268-0.751,1.2-1.484
			c-0.245-2.225,0.398-4.419,1.804-6.188c1.413-1.761,3.428-2.853,5.663-3.101c2.89-0.324,5.725,0.525,7.987,2.339
			c2.268,1.825,3.689,4.401,3.995,7.307c0.396,3.699-0.662,7.322-3,10.228c-1.901,2.365-4.461,3.958-7.338,4.701
			c-2.205,0.169-5.073-0.332-6.228-3.67c-0.778-2.252,0.427-4.715,2.674-5.498c1.68-0.562,3.488,0.324,4.055,1.969
			c0.2,0.58,0.161,1.205-0.114,1.746c-0.274,0.556-0.741,0.954-1.302,1.154c-0.409,0.124-0.82,0.108-1.197-0.073
			c-0.066-0.045-0.077-0.113-0.119-0.143c0.324-0.723,0.14-1.566-0.556-2.004c-0.751-0.485-1.75-0.264-2.247,0.504
			c-0.066,0.113-0.021,0.231-0.066,0.34c-0.33,0.34-0.527,0.794-0.345,1.292c0.356,1.062,1.128,1.928,2.138,2.423
			c1.021,0.515,2.188,0.572,3.262,0.201c1.252-0.432,2.278-1.329,2.858-2.529c0.578-1.191,0.662-2.547,0.232-3.799
			c-1.034-3.059-4.419-4.714-7.48-3.657c-3.665,1.248-5.622,5.26-4.369,8.915c0.422,1.237,1.118,2.194,1.917,3.035
			c-3.256-0.485-6.241-1.732-8.58-3.818c-3.071-2.752-4.796-6.631-4.807-10.913c-0.031-8.838,5.492-14.146,11.72-18.797
			c0.005-0.006,0.016-0.006,0.026-0.011c0.021-0.016,0.032-0.032,0.058-0.048c1.139-0.854,2.302-1.685,3.462-2.523
			c1.793-1.274,3.565-2.542,5.216-3.85c7.356-5.843,13.721-10.903,12.395-19.585c-0.536-3.483-2.42-6.528-5.332-8.62
			c-2.974-2.125-6.705-2.969-10.347-2.326c-2.911,0.517-5.442,2.139-7.127,4.567c-1.685,2.431-2.333,5.374-1.814,8.285
			c0.124,0.733,0.841,1.236,1.572,1.092c0.738-0.119,1.231-0.833,1.083-1.566c-0.388-2.204,0.103-4.43,1.374-6.265
			c1.273-1.835,3.196-3.056,5.387-3.462c2.9-0.527,5.93,0.158,8.301,1.869c2.312,1.658,3.818,4.076,4.234,6.837
			C80,28.036,75.54,31.946,67.571,38.28c-1.173,0.928-2.426,1.819-3.683,2.716c0.087-1.263-0.098-2.574-0.799-3.839
			c-1.626-2.866-5.302-3.892-8.187-2.283c-1.189,0.67-2.036,1.751-2.392,3.051c-0.356,1.295-0.19,2.668,0.475,3.85
			c0.562,1.015,1.474,1.729,2.592,2.06c1.102,0.306,2.289,0.166,3.288-0.401c0.865-0.485,1.498-1.273,1.761-2.246
			c0.264-0.96,0.14-1.959-0.34-2.834c-0.361-0.643-1.199-0.875-1.843-0.52c-0.646,0.369-0.873,1.205-0.517,1.848
			c0.129,0.243,0.166,0.527,0.103,0.789c-0.082,0.264-0.243,0.48-0.488,0.604c-0.372,0.222-0.804,0.276-1.237,0.15
			c-0.419-0.113-0.77-0.383-0.98-0.778c-0.319-0.562-0.391-1.191-0.222-1.803c0.166-0.604,0.567-1.116,1.118-1.434
			c1.592-0.886,3.617-0.33,4.509,1.247c1.511,2.705-0.119,4.828-1.798,6.138C52.326,49.522,46.04,55.511,46.074,65.62
			c0.016,5.06,2.041,9.64,5.706,12.917c1.07,0.968,2.302,1.74,3.575,2.421H46.44c0.201-0.57,0.324-1.184,0.324-1.799
			c0-0.946-0.25-1.874-0.704-2.673c-0.583-1.081-1.517-1.912-2.608-2.394c0.427-1.115,0.514-2.362,0.158-3.552
			c-0.272-0.928-0.757-1.717-1.411-2.365c-0.825-0.838-1.891-1.376-3.035-1.566c-0.189-1.139-0.722-2.188-1.55-3.024
			c-0.651-0.665-1.474-1.15-2.371-1.416c-1.17-0.333-2.438-0.274-3.551,0.153c-0.488-1.092-1.318-2.025-2.389-2.618
			c-1.835-1.015-4.231-0.865-5.917,0.351c-1.685-1.221-4.045-1.384-5.935-0.351c-1.068,0.593-1.912,1.526-2.381,2.618
			c-1.113-0.433-2.365-0.496-3.549-0.163c-0.907,0.276-1.722,0.772-2.375,1.416c-0.826,0.83-1.371,1.9-1.548,3.034
			c-1.152,0.19-2.199,0.728-3.035,1.562c-0.648,0.653-1.152,1.469-1.421,2.375c-0.335,1.189-0.264,2.423,0.166,3.541
			c-1.094,0.488-2.025,1.313-2.608,2.383C0.248,77.269,0,78.197,0,79.154c0,1.181,0.367,2.305,1.031,3.237
			C0.367,83.336,0,84.465,0,85.636c0,0.954,0.237,1.882,0.691,2.689c0.583,1.075,1.524,1.914,2.618,2.383
			c-0.435,1.118-0.517,2.363-0.161,3.533c0.253,0.902,0.741,1.725,1.416,2.389c0.825,0.828,1.883,1.371,3.035,1.562
			c0.177,1.128,0.722,2.183,1.548,3.032c0.664,0.664,1.492,1.154,2.375,1.408c1.168,0.332,2.436,0.279,3.549-0.164
			c0.491,1.098,1.318,2.036,2.392,2.627c1.896,1.027,4.219,0.859,5.914-0.349c0.939,0.665,2.067,1.034,3.246,1.039h0.011
			c0.928,0,1.856-0.243,2.689-0.696c1.058-0.585,1.906-1.523,2.376-2.61c1.102,0.422,2.375,0.485,3.536,0.153
			c0.896-0.259,1.716-0.744,2.381-1.408c0.828-0.833,1.361-1.904,1.55-3.032c1.139-0.19,2.188-0.733,3.03-1.551
			c0.675-0.664,1.15-1.46,1.426-2.394c0.335-1.182,0.269-2.421-0.163-3.539c1.091-0.479,2.025-1.308,2.607-2.383
			c0.461-0.797,0.704-1.73,0.704-2.689c0-0.686-0.158-1.351-0.401-1.973h9.115c-1.318,0.69-2.571,1.498-3.67,2.494
			c-3.673,3.259-5.698,7.857-5.714,12.926c-0.034,10.082,6.247,16.089,12.857,21.02c1.685,1.318,3.309,3.433,1.803,6.133
			c-0.896,1.582-2.921,2.146-4.509,1.25c-0.562-0.316-0.954-0.812-1.123-1.424c-0.161-0.611-0.092-1.25,0.222-1.819
			c0.211-0.364,0.562-0.638,0.988-0.765c0.404-0.116,0.847-0.079,1.237,0.132c0.237,0.137,0.404,0.354,0.48,0.617
			c0.087,0.269,0.056,0.554-0.098,0.785c-0.361,0.654-0.134,1.466,0.514,1.852c0.641,0.343,1.463,0.132,1.84-0.522
			c0.499-0.865,0.612-1.888,0.335-2.832c-0.264-0.965-0.886-1.761-1.748-2.246c-1.015-0.569-2.199-0.723-3.307-0.396
			c-1.107,0.321-2.035,1.039-2.586,2.041c-0.665,1.181-0.825,2.552-0.464,3.86c0.351,1.308,1.216,2.383,2.387,3.053
			c0.931,0.522,1.933,0.765,2.932,0.765c2.107,0,4.153-1.097,5.261-3.037c0.706-1.266,0.886-2.573,0.793-3.834
			c1.237,0.896,2.51,1.788,3.689,2.71c7.981,6.339,12.448,10.247,11.388,17.05c-0.417,2.763-1.917,5.184-4.232,6.839
			c-2.368,1.693-5.4,2.379-8.295,1.867c-2.193-0.391-4.121-1.624-5.389-3.459c-1.273-1.836-1.761-4.061-1.371-6.266
			c0.124-0.732-0.351-1.439-1.086-1.565c-0.728-0.143-1.453,0.348-1.571,1.091c-0.525,2.911,0.113,5.854,1.814,8.285
			c1.685,2.415,4.219,4.05,7.129,4.566c0.789,0.143,1.593,0.217,2.387,0.217c2.818,0,5.632-0.881,7.96-2.542
			c2.903-2.094,4.799-5.137,5.324-8.622c1.329-8.68-5.044-13.742-12.393-19.586c-1.659-1.308-3.43-2.573-5.213-3.85
			c-1.17-0.817-2.331-1.666-3.47-2.521c-0.023-0.016-0.034-0.031-0.055-0.048c-0.005-0.005-0.016,0-0.026-0.005
			c-6.214-4.656-11.747-9.972-11.717-18.805c0.01-4.282,1.711-8.158,4.804-10.911c2.376-2.141,5.477-3.428,8.81-3.881
			c-0.92,0.87-1.685,1.898-2.144,3.243c-1.237,3.67,0.707,7.662,4.366,8.906c0.622,0.222,1.271,0.333,1.912,0.333
			c0.886,0,1.761-0.201,2.586-0.602c1.416-0.686,2.468-1.888,2.977-3.364c0.896-2.584-0.499-5.432-3.09-6.339
			c-2.257-0.78-4.643,0.427-5.4,2.642c-0.166,0.491,0.034,0.944,0.359,1.292c0.031,0.116-0.014,0.237,0.053,0.338
			c0.495,0.76,1.495,0.98,2.246,0.506c0.686-0.432,0.854-1.266,0.562-2.004c0.388-0.253,0.849-0.369,1.308-0.221
			c1.192,0.411,1.83,1.708,1.418,2.9c-0.274,0.801-0.836,1.46-1.608,1.824c-0.772,0.369-1.627,0.433-2.441,0.147
			c-2.252-0.775-3.454-3.237-2.685-5.489c1.276-3.702,4.559-4.003,7.238-3.549c2.479,0.844,4.669,2.346,6.359,4.435
			c2.328,2.89,3.386,6.528,2.993,10.226c-0.654,5.959-5.983,10.272-11.989,9.634c-2.236-0.247-4.237-1.35-5.653-3.105
			c-1.421-1.751-2.057-3.939-1.814-6.191c0.093-0.743-0.453-1.408-1.199-1.481c-0.805-0.164-1.408,0.448-1.479,1.197
			c-0.335,2.953,0.53,5.854,2.376,8.184c1.875,2.32,4.514,3.755,7.47,4.098c7.425,0.797,14.146-4.593,14.963-12.039
			c0.485-4.398-0.789-8.743-3.565-12.213c-1.303-1.619-2.879-2.928-4.622-3.935h7.586c0.313,0,0.572-0.153,0.793-0.337
			c0.256,0.253,0.585,0.405,0.968,0.405h7.478c-1.696,1.008-3.238,2.284-4.515,3.866c-2.779,3.47-4.05,7.799-3.562,12.213
			c0.799,7.436,7.401,12.909,14.963,12.028c2.953-0.332,5.585-1.771,7.467-4.087c1.872-2.33,2.711-5.23,2.368-8.184
			c-0.084-0.744-0.696-1.351-1.472-1.197c-0.754,0.079-1.271,0.743-1.207,1.481c0.242,2.236-0.385,4.425-1.814,6.191
			c-1.402,1.761-3.417,2.853-5.653,3.101c-2.9,0.295-5.727-0.522-7.983-2.336c-2.257-1.825-3.694-4.403-3.998-7.304
			c-0.387-3.708,0.665-7.325,2.999-10.236c1.911-2.362,4.479-3.96,7.369-4.714c2.204-0.164,5.067,0.337,6.212,3.681
			c0.771,2.252-0.433,4.714-2.679,5.5c-1.688,0.564-3.491-0.327-4.061-1.972c-0.2-0.575-0.158-1.203,0.116-1.746
			c0.264-0.554,0.728-0.954,1.292-1.154c0.4-0.143,0.822-0.116,1.207,0.078c0.053,0.032,0.074,0.111,0.111,0.138
			c-0.322,0.723-0.132,1.566,0.554,1.999c0.759,0.49,1.761,0.269,2.246-0.496c0.074-0.111,0.021-0.232,0.063-0.343
			c0.332-0.349,0.538-0.802,0.358-1.287c-0.358-1.075-1.128-1.93-2.141-2.437c-1.034-0.506-2.184-0.559-3.259-0.2
			c-1.266,0.433-2.284,1.329-2.858,2.537c-0.58,1.191-0.665,2.547-0.232,3.797c0.817,2.431,3.122,3.96,5.569,3.96
			c0.627,0,1.271-0.1,1.908-0.316c3.66-1.255,5.622-5.268,4.367-8.912c-0.422-1.229-1.098-2.204-1.889-3.032
			c3.228,0.49,6.213,1.735,8.543,3.823c3.069,2.753,4.789,6.634,4.799,10.911c0.021,8.838-5.505,14.144-11.717,18.8
			c-0.011,0.005-0.021,0-0.032,0.005c-0.011,0.016-0.021,0.032-0.053,0.048c-1.139,0.854-2.299,1.688-3.459,2.525
			c-1.793,1.271-3.565,2.531-5.227,3.85c-7.349,5.844-13.721,10.9-12.387,19.575c0.54,3.491,2.426,6.539,5.323,8.628
			c2.334,1.66,5.118,2.541,7.966,2.541c0.78,0,1.593-0.079,2.384-0.216c2.91-0.517,5.452-2.142,7.129-4.567
			c1.683-2.431,2.342-5.373,1.814-8.284c-0.127-0.743-0.854-1.239-1.571-1.092c-0.733,0.127-1.229,0.833-1.087,1.566
			c0.391,2.204-0.1,4.43-1.371,6.265c-1.266,1.836-3.195,3.049-5.389,3.465c-2.891,0.527-5.917-0.158-8.304-1.872
			c-2.31-1.655-3.805-4.076-4.227-6.845c-1.031-6.803,3.428-10.705,11.391-17.039c1.171-0.933,2.426-1.818,3.691-2.715
			c-0.095,1.266,0.095,2.573,0.791,3.839c1.107,1.94,3.153,3.037,5.263,3.037c1.002,0,2.004-0.253,2.933-0.77
			c1.181-0.67,2.035-1.751,2.384-3.059c0.363-1.298,0.2-2.669-0.465-3.85c-0.563-1.008-1.477-1.729-2.594-2.052
			c-1.098-0.295-2.3-0.174-3.291,0.4c-0.865,0.485-1.498,1.276-1.762,2.247c-0.273,0.96-0.132,1.962,0.338,2.837
			c0.358,0.644,1.191,0.865,1.846,0.517c0.644-0.369,0.875-1.202,0.517-1.846c-0.132-0.242-0.169-0.527-0.105-0.785
			c0.085-0.264,0.243-0.48,0.485-0.612c0.391-0.221,0.822-0.253,1.234-0.147c0.422,0.116,0.785,0.38,0.996,0.78
			c0.322,0.56,0.375,1.197,0.222,1.804c-0.163,0.606-0.564,1.118-1.118,1.439c-1.593,0.876-3.617,0.327-4.514-1.249
			c-1.503-2.706,0.11-4.826,1.804-6.139c6.607-4.931,12.894-10.922,12.856-21.025c-0.021-5.062-2.046-9.64-5.706-12.92
			c-1.065-0.954-2.263-1.751-3.512-2.426h8.875c-0.19,0.569-0.322,1.187-0.322,1.799c0,0.949,0.259,1.877,0.712,2.673
			c0.575,1.081,1.514,1.909,2.601,2.395c-0.422,1.107-0.512,2.368-0.158,3.544c0.279,0.928,0.765,1.725,1.418,2.367
			c0.817,0.834,1.888,1.377,3.032,1.566c0.19,1.139,0.718,2.188,1.551,3.017c0.653,0.664,1.471,1.149,2.367,1.413
			c1.171,0.348,2.447,0.295,3.555-0.143c0.485,1.092,1.318,2.025,2.384,2.61c1.835,1.019,4.229,0.865,5.917-0.343
			c0.949,0.676,2.077,1.028,3.248,1.028c0.954,0,1.846-0.231,2.689-0.686c1.065-0.585,1.914-1.519,2.384-2.61
			c0.633,0.248,1.318,0.364,2.015,0.364c0.517,0,1.022-0.074,1.539-0.211c0.907-0.274,1.72-0.76,2.363-1.413
			c0.833-0.823,1.371-1.894,1.561-3.027c1.139-0.189,2.193-0.732,3.032-1.561c0.648-0.654,1.149-1.477,1.424-2.384
			c0.332-1.182,0.269-2.426-0.163-3.533c1.091-0.496,2.024-1.313,2.61-2.384c0.453-0.796,0.695-1.725,0.695-2.684
			c0-1.182-0.363-2.305-1.028-3.244c0.665-0.949,1.028-2.077,1.028-3.248C164.7,78.115,164.468,77.188,164.014,76.373z
			 M43.005,83.384c0.016,0.021,0.01,0.053,0.029,0.068c0.657,0.549,1.036,1.35,1.036,2.193c0,0.501-0.118,0.96-0.355,1.387
			c-0.488,0.871-1.416,1.445-2.41,1.461c-0.541,0.026-1.015,0.343-1.221,0.834c-0.198,0.49-0.103,1.044,0.271,1.449
			c0.696,0.729,0.949,1.783,0.675,2.742c-0.134,0.485-0.38,0.887-0.73,1.234c-0.551,0.554-1.334,0.775-2.294,0.833
			c-0.39-0.053-0.788,0.111-1.07,0.38c-0.285,0.29-0.425,0.675-0.388,1.065c0.087,0.854-0.222,1.688-0.82,2.299
			c-0.335,0.338-0.773,0.586-1.226,0.728c-0.947,0.28-2.025,0.021-2.761-0.675c-0.372-0.353-0.955-0.475-1.442-0.264
			c-0.496,0.2-0.814,0.675-0.831,1.219c-0.026,1.013-0.588,1.925-1.463,2.409c-1.184,0.654-2.731,0.338-3.586-0.675
			c-0.52-0.616-1.561-0.616-2.078,0c-0.854,1.019-2.371,1.329-3.565,0.675c-0.886-0.484-1.453-1.413-1.463-2.409
			c-0.016-0.544-0.334-1.019-0.833-1.219c-0.156-0.079-0.333-0.11-0.517-0.11c-0.335,0-0.669,0.116-0.923,0.348
			c-0.746,0.696-1.803,0.965-2.771,0.676c-0.454-0.116-0.875-0.364-1.221-0.718c-0.604-0.601-0.907-1.444-0.826-2.299
			c0.042-0.391-0.231-0.791-0.524-1.065C9.445,95.697,8.997,95.56,8.62,95.56c-0.799,0.037-1.582-0.264-2.149-0.817
			c-0.335-0.337-0.575-0.765-0.72-1.239c-0.285-0.965-0.021-2.004,0.665-2.731c0.361-0.39,0.475-0.965,0.274-1.455
			c-0.197-0.491-0.686-0.812-1.213-0.833c-1.01-0.027-1.927-0.58-2.415-1.467c-0.232-0.416-0.345-0.881-0.345-1.376
			c0-0.854,0.367-1.667,1.02-2.21c0.319-0.264,0.488-0.633,0.488-1.033c0-0.396-0.169-0.786-0.488-1.039
			c-0.653-0.543-1.02-1.34-1.02-2.183c0-0.503,0.113-0.957,0.345-1.371c0.488-0.88,1.421-1.453,2.415-1.471
			c0.527-0.016,1.016-0.332,1.203-0.82c0.211-0.495,0.113-1.052-0.264-1.458c-0.696-0.743-0.955-1.771-0.675-2.742
			c0.135-0.469,0.383-0.886,0.747-1.236c0.533-0.551,1.334-0.886,2.289-0.82c0.361,0.074,0.788-0.116,1.07-0.39
			c0.29-0.285,0.419-0.686,0.388-1.086c-0.092-0.83,0.211-1.677,0.82-2.283c0.335-0.335,0.751-0.572,1.215-0.723
			c0.968-0.287,2.025-0.016,2.771,0.675c0.372,0.356,0.96,0.48,1.44,0.259c0.499-0.2,0.817-0.675,0.833-1.221
			c0.026-1.005,0.578-1.912,1.463-2.397c1.194-0.654,2.721-0.34,3.597,0.68c0.253,0.319,0.62,0.485,1.021,0.485
			c0.388,0,0.788-0.166,1.031-0.49c0.854-1.026,2.416-1.318,3.565-0.681c0.875,0.485,1.453,1.413,1.469,2.413
			c0.016,0.54,0.34,1.01,0.825,1.21c0.509,0.222,1.065,0.113,1.447-0.259c0.736-0.69,1.772-0.962,2.756-0.669
			c0.464,0.119,0.883,0.372,1.223,0.728c0.601,0.596,0.907,1.442,0.833,2.296c-0.045,0.387,0.242,0.789,0.517,1.057
			c0.266,0.253,0.714,0.391,1.076,0.391c0.865-0.029,1.582,0.258,2.16,0.836c0.335,0.334,0.577,0.751,0.73,1.215
			c0.274,0.971,0.01,2.025-0.675,2.753c-0.359,0.391-0.472,0.963-0.266,1.458c0.2,0.488,0.675,0.805,1.215,0.82
			c1.01,0.034,1.917,0.591,2.41,1.477c0.237,0.409,0.351,0.873,0.351,1.366c0,0.759-0.335,1.46-0.881,1.983
			c-0.493,0.2-0.875,0.591-0.875,1.165C42.314,82.804,42.623,83.151,43.005,83.384z M160.977,83.341
			c0.653,0.555,1.022,1.34,1.022,2.199c0,0.496-0.115,0.949-0.348,1.371c-0.485,0.881-1.413,1.445-2.399,1.472
			c-0.554,0.016-1.023,0.337-1.229,0.822c-0.2,0.496-0.095,1.05,0.264,1.456c0.706,0.743,0.976,1.771,0.686,2.742
			c-0.132,0.469-0.375,0.886-0.738,1.229c-0.538,0.559-1.318,0.791-2.289,0.828c-0.337-0.037-0.791,0.115-1.075,0.39
			c-0.285,0.285-0.433,0.686-0.391,1.087c0.101,0.833-0.222,1.677-0.817,2.283c-0.332,0.332-0.765,0.574-1.229,0.723
			c-0.253,0.079-0.517,0.11-0.78,0.11c-0.729,0-1.435-0.274-1.973-0.786c-0.38-0.353-0.96-0.475-1.435-0.258
			c-0.495,0.2-0.822,0.675-0.833,1.213c-0.031,1.013-0.591,1.92-1.466,2.404c-1.192,0.648-2.722,0.354-3.597-0.68
			c-0.253-0.316-0.617-0.485-1.018-0.485c-0.396,0-0.786,0.169-1.039,0.49c-0.865,1.018-2.415,1.313-3.564,0.681
			c-0.865-0.485-1.45-1.414-1.467-2.421c-0.01-0.532-0.337-1.002-0.822-1.202c-0.496-0.217-1.039-0.111-1.445,0.258
			c-0.738,0.686-1.782,0.944-2.752,0.67c-0.465-0.126-0.887-0.379-1.234-0.728c-0.602-0.596-0.907-1.439-0.833-2.294
			c0.053-0.391-0.243-0.785-0.517-1.06c-0.259-0.253-0.712-0.391-1.076-0.391c-0.96,0-1.582-0.259-2.151-0.844
			c-0.338-0.332-0.58-0.743-0.728-1.208c-0.285-0.97-0.021-2.024,0.675-2.752c0.348-0.391,0.464-0.96,0.264-1.456
			c-0.2-0.485-0.675-0.807-1.224-0.822c-1.007-0.032-1.914-0.591-2.404-1.477c-0.232-0.417-0.349-0.881-0.349-1.366
			c0-0.759,0.338-1.471,0.876-1.998c0.495-0.201,0.875-0.591,0.875-1.155c0-0.485-0.306-0.839-0.686-1.07
			c-0.021-0.021-0.011-0.048-0.031-0.063c-0.654-0.554-1.034-1.35-1.034-2.191c0-0.499,0.116-0.958,0.358-1.384
			c0.485-0.873,1.414-1.445,2.405-1.463c0.538-0.026,1.013-0.34,1.224-0.831c0.2-0.49,0.095-1.047-0.274-1.453
			c-0.696-0.728-0.96-1.782-0.675-2.742c0.126-0.482,0.379-0.886,0.728-1.231c0.548-0.556,1.339-0.912,2.299-0.833
			c0.422,0.071,0.78-0.113,1.065-0.382c0.285-0.288,0.433-0.675,0.38-1.063c-0.074-0.854,0.231-1.693,0.833-2.302
			c0.332-0.335,0.77-0.583,1.234-0.73c0.928-0.269,2.014-0.01,2.752,0.675c0.391,0.358,0.971,0.487,1.445,0.266
			c0.496-0.201,0.812-0.675,0.822-1.215c0.032-1.016,0.591-1.928,1.467-2.413c1.213-0.653,2.752-0.335,3.586,0.675
			c0.527,0.62,1.561,0.62,2.088,0c0.854-1.015,2.362-1.329,3.564-0.675c0.876,0.485,1.445,1.414,1.461,2.413
			c0.026,0.54,0.332,1.015,0.833,1.215c0.475,0.221,1.039,0.108,1.45-0.266c0.738-0.686,1.793-0.944,2.753-0.675
			c0.454,0.132,0.876,0.379,1.224,0.73c0.602,0.598,0.907,1.448,0.822,2.302c-0.031,0.388,0.243,0.786,0.527,1.063
			c0.254,0.253,0.707,0.382,1.087,0.382c0.78-0.005,1.582,0.271,2.141,0.828c0.343,0.346,0.575,0.754,0.718,1.236
			c0.295,0.96,0.031,2.001-0.665,2.742c-0.358,0.377-0.464,0.963-0.264,1.453s0.675,0.804,1.213,0.831
			c1.002,0.029,1.931,0.583,2.415,1.463c0.232,0.422,0.343,0.886,0.343,1.384c0,0.846-0.363,1.664-1.028,2.202
			c-0.311,0.253-0.484,0.633-0.484,1.028C160.513,82.692,160.661,83.077,160.977,83.341z"/>
		<path d="M153.109,76.465c-0.011-0.011-0.021-0.005-0.031-0.011c-1.276-2.528-3.322-4.574-5.854-5.838
			c-0.021-0.023-0.011-0.055-0.032-0.076c-0.116-0.113-0.274-0.113-0.422-0.166c-1.646-0.751-3.459-1.184-5.379-1.184
			c-1.925,0-3.765,0.442-5.421,1.205c-0.11,0.063-0.264,0.053-0.369,0.145c-0.011,0.021-0.011,0.042-0.021,0.071
			c-2.541,1.258-4.598,3.304-5.885,5.848c0,0.005,0,0-0.011,0.005c-0.011,0.016-0.011,0.047-0.021,0.068
			c-0.876,1.756-1.414,3.707-1.414,5.806c0,7.246,5.896,13.147,13.152,13.147c7.246,0,13.157-5.901,13.157-13.147
			c0-2.046-0.532-3.957-1.35-5.692C153.151,76.594,153.172,76.512,153.109,76.465z M150.441,77.219l-3.122,3.127l-4.008-4.008
			l3.101-3.098C148.11,74.168,149.492,75.545,150.441,77.219z M145.41,82.255l-4.008,4.014l-4.008-4.014l4.008-4.002L145.41,82.255z
			 M141.402,71.89c0.791,0,1.54,0.103,2.278,0.264l-2.278,2.281l-2.278-2.281C139.851,71.993,140.622,71.89,141.402,71.89z
			 M136.381,73.229l3.111,3.108l-4.008,4.008l-3.132-3.138C133.302,75.539,134.694,74.158,136.381,73.229z M131.224,84.612
			c-0.169-0.733-0.274-1.492-0.274-2.273c0-0.827,0.116-1.635,0.306-2.398l2.32,2.32L131.224,84.612z M132.3,87.354l3.185-3.186
			l4.008,4.014l-3.217,3.211C134.61,90.435,133.228,89.042,132.3,87.354z M141.402,92.786c-0.807,0-1.624-0.111-2.378-0.306
			l2.378-2.395l2.395,2.389C143.015,92.659,142.224,92.786,141.402,92.786z M146.517,91.384l-3.206-3.207l4.008-4.013l3.185,3.18
			C149.565,89.026,148.194,90.429,146.517,91.384z M151.569,84.602l-2.357-2.347l2.326-2.31c0.179,0.77,0.306,1.556,0.306,2.378
			C151.843,83.12,151.738,83.874,151.569,84.602z"/>
		<path d="M23.3,69.222c-7.245,0-13.149,5.903-13.149,13.149c0,2.046,0.525,3.96,1.345,5.69c0.055,0.053,0.026,0.131,0.087,0.184
			c0.01,0.011,0.021,0.006,0.032,0.011c1.276,2.526,3.333,4.572,5.854,5.838c0.029,0.021,0.011,0.053,0.04,0.074
			c0.113,0.116,0.279,0.116,0.414,0.169c1.659,0.748,3.468,1.181,5.379,1.181c1.933,0,3.766-0.442,5.432-1.202
			c0.114-0.063,0.267-0.053,0.359-0.147c0.021-0.021,0.01-0.042,0.032-0.069c2.542-1.26,4.601-3.306,5.875-5.848
			c0-0.006,0.01,0,0.01-0.006c0.021-0.016,0.011-0.047,0.032-0.068c0.875-1.756,1.416-3.718,1.416-5.811
			C36.45,75.125,30.56,69.222,23.3,69.222z M32.405,77.356l-3.19,3.185l-4.008-4.008l3.219-3.211
			C30.101,74.271,31.477,75.658,32.405,77.356z M27.308,82.444L23.3,86.458l-3.994-4.014l3.994-4.005L27.308,82.444z M23.3,71.922
			c0.815,0,1.627,0.113,2.381,0.309L23.3,74.622l-2.386-2.387C21.687,72.046,22.48,71.922,23.3,71.922z M18.188,73.327l3.206,3.206
			l-4.005,4.008l-3.188-3.18C15.137,75.677,16.508,74.276,18.188,73.327z M13.165,84.755c-0.179-0.781-0.303-1.566-0.303-2.384
			c0-0.791,0.103-1.534,0.271-2.263l2.354,2.342L13.165,84.755z M14.262,87.486l3.122-3.133l4.005,4.008l-3.099,3.101
			C16.601,90.54,15.211,89.163,14.262,87.486z M23.3,92.817c-0.788,0-1.54-0.1-2.278-0.264l2.278-2.277l2.278,2.277
			C24.851,92.718,24.083,92.817,23.3,92.817z M28.324,91.473l-3.111-3.111l4.008-4.008l3.138,3.144
			C31.401,89.169,30.008,90.55,28.324,91.473z M33.75,82.366c0,0.822-0.114,1.629-0.309,2.394l-2.32-2.32l2.36-2.362
			C33.647,80.826,33.75,81.58,33.75,82.366z"/>
	</g>
</g>
<g>
</g>
<g>
</g>
<g>
</g>
<g>
</g>
<g>
</g>
<g>
</g>
<g>
</g>
<g>
</g>
<g>
</g>
<g>
</g>
<g>
</g>
<g>
</g>
<g>
</g>
<g>
</g>
<g>
</g>
</svg>
