<?xml version="1.0" encoding="iso-8859-1"?>
<!-- Generator: Adobe Illustrator 16.0.0, SVG Export Plug-In . SVG Version: 6.00 Build 0)  -->
<!DOCTYPE svg PUBLIC "-//W3C//DTD SVG 1.1//EN" "http://www.w3.org/Graphics/SVG/1.1/DTD/svg11.dtd">
<svg version="1.1" id="Capa_1" xmlns="http://www.w3.org/2000/svg" xmlns:xlink="http://www.w3.org/1999/xlink" x="0px" y="0px"
	 width="218.148px" height="218.148px" viewBox="0 0 218.148 218.148" style="enable-background:new 0 0 218.148 218.148;"
	 xml:space="preserve">
<g>
	<g>
		<path d="M108.223,85.649c17.032,0,30.89-13.856,30.89-30.884c0-17.022-13.853-30.884-30.89-30.884
			c-17.028,0-30.881,13.862-30.881,30.884C77.342,71.793,91.195,85.649,108.223,85.649z M86.713,66.55l7.395-7.395l9.526,9.526
			l-7.45,7.45C92.188,73.876,88.92,70.572,86.713,66.55z M98.511,54.747l9.527-9.523l9.52,9.523l-9.52,9.526L98.511,54.747z
			 M108.223,79.414c-1.988,0-3.903-0.302-5.76-0.749l5.575-5.575l5.663,5.663C111.929,79.158,110.114,79.414,108.223,79.414z
			 M120.03,76.266l-7.584-7.584l9.521-9.526l7.647,7.636C127.355,70.782,124.043,74.049,120.03,76.266z M132.117,49.004
			c0.45,1.857,0.755,3.766,0.755,5.76c0,1.982-0.299,3.885-0.73,5.736l-5.761-5.754L132.117,49.004z M129.603,42.711l-7.636,7.626
			l-9.521-9.521l7.56-7.565C124.019,35.459,127.337,38.726,129.603,42.711z M108.223,30.116c1.878,0,3.693,0.255,5.45,0.648
			l-5.629,5.639l-5.544-5.551C104.341,30.414,106.241,30.116,108.223,30.116z M96.203,33.383l7.426,7.426l-9.526,9.523l-7.383-7.383
			C88.939,38.945,92.206,35.642,96.203,33.383z M83.577,54.765c0-1.891,0.262-3.711,0.661-5.474l5.456,5.456l-5.462,5.468
			C83.833,58.455,83.577,56.646,83.577,54.765z"/>
		<path d="M42.466,117.367c0.024,0,0.268,0.006,0.295,0.006c2.024,0,3.921-0.56,5.617-1.449c8.823,9.25,10.211,11.363,16.161,27.834
			c0.326,0.926,0.636,1.857,1.005,2.783c0.255,0.712,0.499,1.395,0.773,2.155c0.079,0.237,0.292,0.359,0.423,0.554
			c5.082,11.418,13.518,22.841,26.113,33.302c2.844,2.362,5.624,4.513,8.348,6.461c0.231,0.767,0.487,1.534,0.768,2.296
			c3.647,9.949,10.957,17.871,20.575,22.322c6.619,3.057,13.572,4.524,20.417,4.518c18.438,0,36.121-10.497,44.365-28.289
			c0.348-0.75,0.341-1.718,0.055-2.497c-0.383-1.071-1.339-1.833-2.466-1.997c-1.157-0.158-2.259,0.305-2.947,1.205
			c-5.895,7.801-15.497,12.994-26.335,14.243c-10.833,1.242-27.608-0.731-49-15.583c-1.696-7.228-0.935-14.784,2.238-21.635
			c2.926-6.338,8.138-11.143,14.696-13.554c5.785-2.119,11.96-2.01,17.695,0.024c-0.183,1.741,0,3.501,0.634,5.193
			c1.681,4.445,5.991,7.43,10.753,7.43c1.389,0,2.74-0.25,4.05-0.743c5.925-2.229,8.914-8.878,6.686-14.81
			c-2.168-5.723-8.976-8.859-14.797-6.673c-2.052,0.779-3.781,2.106-5.072,3.812c-6.68-2.43-13.853-2.612-20.66-0.444
			c0.104-4.378-1.188-8.27-4.043-11.539c-8.997-10.278-29.743-10.814-34.039-10.814h-0.006c-1.147,0.024-2.189,0.646-2.725,1.669
			c-0.536,1.01-0.475,2.223,0.155,3.184c4.396,6.619,5.514,10.626,5.836,14.59c0.804,10.133,2.362,19.357,12.41,20.947
			c0.846,0.134,1.626,0.183,2.369,0.194c-2.463,5.736-3.568,11.838-3.206,17.927c-0.91-0.719-1.827-1.461-2.755-2.229
			c-12.684-10.528-20.919-22.049-25.465-33.411c-0.082-0.231-0.173-0.481-0.256-0.713c-6.561-16.97-4.926-33.515,2.476-45.809
			c0.356,0.466,0.612,0.996,1.035,1.419c1.546,1.553,3.48,2.7,5.599,3.307c2.75,0.785,5.749,0.636,8.36-0.393
			c1.136,2.588,3.094,4.795,5.614,6.177c4.339,2.415,9.98,2.016,13.923-0.834c2.201,1.589,4.856,2.469,7.624,2.469
			c2.204,0,4.372-0.566,6.284-1.629c2.521-1.394,4.493-3.589,5.62-6.177c2.612,1.022,5.62,1.184,8.379,0.387
			c2.125-0.618,4.055-1.766,5.583-3.307c1.967-1.952,3.222-4.451,3.647-7.13c2.71-0.426,5.183-1.693,7.149-3.65
			c1.553-1.543,2.691-3.486,3.281-5.587c0.811-2.78,0.646-5.736-0.39-8.373c2.595-1.136,4.799-3.093,6.205-5.623
			c1.06-1.928,1.62-4.099,1.62-6.306c-0.007-2.762-0.89-5.413-2.473-7.605c1.583-2.21,2.473-4.841,2.473-7.614
			c0.006-2.226-0.536-4.345-1.62-6.312c-1.413-2.53-3.61-4.487-6.205-5.617c1.035-2.637,1.2-5.587,0.402-8.388
			c-0.621-2.131-1.724-4.007-3.294-5.578c-1.967-1.96-4.451-3.224-7.143-3.647c-0.433-2.682-1.688-5.176-3.647-7.143
			c-1.528-1.532-3.453-2.679-5.59-3.316c-2.747-0.785-5.761-0.63-8.373,0.399c-1.126-2.582-3.087-4.783-5.602-6.181
			c-4.306-2.393-9.986-2.007-13.92,0.837c-3.928-2.831-9.548-3.248-13.911-0.843c-2.533,1.403-4.491,3.599-5.623,6.187
			c-2.615-1.029-5.657-1.179-8.357-0.393c-2.113,0.6-4.052,1.739-5.611,3.303C72.69,12.628,71.43,15.127,71,17.81
			c-2.694,0.423-5.176,1.687-7.146,3.653c-1.553,1.559-2.688,3.489-3.291,5.587c-0.807,2.78-0.63,5.73,0.405,8.373
			c-2.594,1.136-4.795,3.093-6.205,5.629c-1.078,1.967-1.623,4.086-1.617,6.287c0,2.768,0.874,5.417,2.463,7.611
			c-1.583,2.202-2.463,4.854-2.463,7.639c0,2.208,0.545,4.323,1.623,6.305c1.403,2.524,3.611,4.488,6.199,5.611
			c-1.035,2.637-1.212,5.587-0.405,8.36c0.609,2.122,1.757,4.056,3.297,5.587c1.739,1.741,3.922,2.825,6.266,3.367
			c-5.654,8.102-9.003,18.063-9.329,28.933c-1.964-2.722-4.394-5.432-7.8-9.018c1.178-1.833,1.921-3.97,1.97-6.278
			c0.076-3.255-1.12-6.348-3.37-8.704c-2.259-2.363-5.294-3.703-8.851-3.778c-6.677,0-12.032,5.236-12.188,11.928
			C30.395,111.619,35.747,117.221,42.466,117.367z M156.358,206.994c3.659-0.414,7.19-1.242,10.552-2.424
			c-11.953,8.068-27.729,9.877-41.747,3.392c-6.01-2.776-10.951-7.173-14.364-12.678
			C130.205,206.714,145.812,208.199,156.358,206.994z M147.87,149.037c0.578-1.279,1.619-2.259,2.916-2.746
			c0.609-0.219,1.225-0.341,1.852-0.341c2.186,0,4.152,1.364,4.914,3.386c1.022,2.715-0.348,5.748-3.039,6.771
			c-0.608,0.226-1.224,0.347-1.863,0.347c-2.174,0-4.141-1.369-4.901-3.397C147.249,151.74,147.291,150.322,147.87,149.037z
			 M101.409,155.705c-4.171-0.658-6.199-3.021-7.17-15.297c-0.35-4.262-1.498-8.11-3.796-12.451
			c8.175,0.682,18.861,2.953,23.668,8.439c2.125,2.43,2.929,5.31,2.47,8.773c-0.107,0.53-0.98,1.998-2.26,2.303
			c-1.488-9.621-8.884-12.52-9.24-12.647c-1.607-0.585-3.355,0.213-3.97,1.809c-0.618,1.589,0.179,3.386,1.756,4.03
			c0.244,0.104,5.782,2.467,5.462,11.064C107.751,153.646,106.104,156.436,101.409,155.705z M68.251,84.021
			c-0.798-0.798-1.392-1.803-1.708-2.905c-0.661-2.284-0.052-4.79,1.595-6.537l4.765-5.061l-6.954-0.188
			c-2.381-0.061-4.582-1.403-5.73-3.468c-0.56-1.026-0.849-2.137-0.849-3.285c0-2.04,0.898-3.952,2.457-5.236l2.902-2.402
			l-2.896-2.405c-1.559-1.291-2.457-3.194-2.457-5.228c0-1.139,0.283-2.238,0.843-3.258c1.154-2.085,3.355-3.425,5.742-3.501
			l6.908-0.204l-4.725-5.045c-1.647-1.745-2.25-4.26-1.589-6.54c0.316-1.111,0.898-2.088,1.714-2.907
			c1.285-1.282,2.999-1.988,4.82-1.988l4.36,0.362l-0.35-3.735c-0.189-2.007,0.518-3.992,1.958-5.426
			c0.804-0.81,1.809-1.4,2.911-1.708c2.277-0.654,4.795-0.049,6.519,1.583l5.042,4.783l0.219-6.944
			c0.076-2.396,1.422-4.592,3.498-5.745c2.808-1.544,6.473-0.841,8.51,1.616l2.408,2.887l2.393-2.898
			c2.034-2.451,5.751-3.124,8.489-1.611c2.088,1.175,3.428,3.355,3.507,5.745l0.188,6.932l5.066-4.758
			c1.742-1.638,4.348-2.232,6.504-1.608c1.132,0.345,2.118,0.917,2.935,1.739c1.431,1.428,2.144,3.413,1.961,5.438l-0.348,3.741
			l4.378-0.387c1.809,0,3.508,0.707,4.786,1.977c0.816,0.825,1.401,1.808,1.718,2.907c0.663,2.326,0.079,4.774-1.596,6.546
			l-4.737,5.045l6.917,0.204c2.388,0.076,4.579,1.416,5.742,3.501c0.561,1.014,0.841,2.113,0.841,3.273
			c0,2.025-0.907,3.934-2.467,5.225l-2.898,2.399l2.898,2.408c1.56,1.291,2.467,3.191,2.473,5.206c0,1.148-0.292,2.277-0.841,3.273
			c-1.162,2.082-3.354,3.431-5.741,3.498l-6.918,0.213l4.737,5.042c1.645,1.748,2.253,4.253,1.59,6.543
			c-0.316,1.102-0.907,2.101-1.705,2.904c-1.279,1.285-2.99,1.991-4.816,1.991l-4.36-0.368l0.354,3.727
			c0.177,2.027-0.523,4.003-1.973,5.438c-0.804,0.819-1.784,1.397-2.898,1.717c-2.266,0.646-4.811,0.049-6.528-1.586l-5.054-4.756
			l-0.201,6.927c-0.079,2.393-1.418,4.582-3.507,5.736c-2.783,1.553-6.448,0.849-8.495-1.62l-2.399-2.896l-2.402,2.901
			c-2.031,2.463-5.678,3.173-8.497,1.607c-2.077-1.147-3.41-3.343-3.486-5.742l-0.204-6.948l-5.051,4.777
			c-1.742,1.641-4.284,2.238-6.531,1.598c-1.12-0.325-2.095-0.913-2.911-1.711c-1.434-1.434-2.149-3.422-1.964-5.443l-0.28-3.696
			l-3.724,0.338C71.25,86.023,69.542,85.311,68.251,84.021z M42.883,99.197L42.883,99.197c1.604,0.037,3.093,0.685,4.199,1.845
			c1.096,1.154,1.684,2.664,1.644,4.253c-0.073,3.224-2.75,5.849-5.958,5.849v3.117l-0.152-3.124
			c-3.285-0.076-5.904-2.813-5.828-6.104C36.855,101.755,39.467,99.197,42.883,99.197z"/>
	</g>
</g>
<g>
</g>
<g>
</g>
<g>
</g>
<g>
</g>
<g>
</g>
<g>
</g>
<g>
</g>
<g>
</g>
<g>
</g>
<g>
</g>
<g>
</g>
<g>
</g>
<g>
</g>
<g>
</g>
<g>
</g>
</svg>
