<?xml version="1.0" encoding="iso-8859-1"?>
<!-- Generator: Adobe Illustrator 16.0.0, SVG Export Plug-In . SVG Version: 6.00 Build 0)  -->
<!DOCTYPE svg PUBLIC "-//W3C//DTD SVG 1.1//EN" "http://www.w3.org/Graphics/SVG/1.1/DTD/svg11.dtd">
<svg version="1.1" id="Capa_1" xmlns="http://www.w3.org/2000/svg" xmlns:xlink="http://www.w3.org/1999/xlink" x="0px" y="0px"
	 width="193.238px" height="193.238px" viewBox="0 0 193.238 193.238" style="enable-background:new 0 0 193.238 193.238;"
	 xml:space="preserve">
<g>
	<g>
		<path d="M118.257,66.698c0-11.886-9.671-21.558-21.555-21.558c-3.035,0-5.925,0.648-8.549,1.788
			c-0.39,0.087-0.767,0.237-1.07,0.545c-0.016,0.016-0.021,0.045-0.037,0.061c-4.131,2.088-7.472,5.437-9.547,9.574
			c-0.047,0.037-0.103,0.053-0.145,0.098c-0.406,0.403-0.611,0.934-0.622,1.469c-1.005,2.483-1.582,5.184-1.582,8.023
			c0,2.851,0.583,5.569,1.593,8.063c0.029,0.511,0.221,1.02,0.611,1.413c0.037,0.039,0.092,0.05,0.129,0.087
			c2.078,4.158,5.437,7.528,9.589,9.616c0.006,0.008,0.006,0.019,0.016,0.029c0.288,0.285,0.643,0.443,1.01,0.536
			c2.642,1.154,5.542,1.813,8.604,1.813C108.586,88.261,118.257,78.595,118.257,66.698z M104.942,81.749l-5.318-5.321l6.679-6.679
			l5.358,5.357C110.083,77.909,107.758,80.193,104.942,81.749z M96.573,73.376l-6.682-6.679l6.682-6.679l6.681,6.679L96.573,73.376z
			 M113.401,62.643c0.321,1.308,0.538,2.658,0.538,4.055s-0.217,2.737-0.533,4.04l-4.05-4.05L113.401,62.643z M111.655,58.29
			l-5.347,5.347l-6.679-6.679l5.302-5.305C107.752,53.198,110.073,55.487,111.655,58.29z M96.703,49.472
			c1.328,0,2.603,0.182,3.839,0.464l-3.968,3.969l-3.911-3.908C93.952,49.683,95.297,49.472,96.703,49.472z M88.294,51.74
			l5.215,5.21l-6.679,6.682l-5.179-5.179C83.213,55.645,85.497,53.322,88.294,51.74z M79.93,70.542
			c-0.287-1.237-0.464-2.516-0.464-3.839c0-1.334,0.182-2.613,0.469-3.855l3.844,3.845L79.93,70.542z M81.652,74.927l5.184-5.184
			l6.679,6.679l-5.226,5.229C85.48,80.074,83.203,77.746,81.652,74.927z M96.573,79.486l3.984,3.984
			c-1.242,0.287-2.526,0.469-3.854,0.469c-1.406,0-2.75-0.216-4.056-0.535L96.573,79.486z"/>
		<path d="M11.544,80.467c-3.868-2.413-7.831-2.574-9.537-2.624c-0.762,0.056-1.437,0.504-1.777,1.179
			c-0.34,0.68-0.301,1.484,0.103,2.13c3.488,5.511,3.148,8.155,2.853,10.489c-0.116,0.907-0.211,1.754-0.169,2.607
			c0.454,8.859,6.302,10.199,10.191,10.647c-4.725,26.024,12.295,51.231,38.338,56.431c2.592,0.527,5.178,0.781,7.728,0.775
			c15.066,0,28.728-8.791,35.279-22.228v22.733c0,1.192,0.965,2.162,2.16,2.162c1.192,0,2.16-0.975,2.16-2.162v-22.533
			c6.592,13.321,20.197,22.033,35.179,22.027c2.547,0,5.131-0.248,7.726-0.775c12.757-2.541,23.752-9.903,30.971-20.725
			c7.057-10.578,9.641-23.234,7.367-35.706c3.897-0.448,9.74-1.793,10.193-10.647c0.043-0.854-0.058-1.695-0.168-2.607
			c-0.296-2.333-0.633-4.978,2.853-10.489c0.417-0.662,0.253-1.511-0.121-2.202c-0.38-0.691-1.298-1.123-2.089-1.123
			c-1.281,0-5.146,0.227-8.996,2.639c-0.406-1.026-0.881-1.912-1.329-2.758c-1.092-2.062-1.813-3.43-1.118-5.914
			c0.222-0.772-0.005-1.593-0.58-2.144c-0.574-0.557-1.418-0.743-2.162-0.49c-0.231,0.076-5.769,1.938-8.326,6.998
			c-0.938,1.858-1.351,3.87-1.239,6.027c-1.466-0.406-3.012-0.612-4.599-0.612c-2.716,0-4.588,0.612-4.794,0.68
			c-0.717,0.243-1.255,0.854-1.413,1.598c-0.158,0.746,0.095,1.519,0.648,2.033c4.789,4.422,5.142,7.066,5.458,9.397
			c0.122,0.907,0.248,1.751,0.518,2.562c1.682,5.258,4.951,7.91,9.697,7.91c1.129,0,2.241-0.143,3.296-0.316
			c2.142,11.448-0.211,23.061-6.682,32.77c-6.581,9.851-16.601,16.559-28.229,18.89c-10.937,2.178-21.721-1.034-29.626-7.779
			c2.922,1.107,5.985,1.735,9.128,1.735c1.73,0,3.486-0.174,5.221-0.532c8.285-1.65,15.441-6.344,20.161-13.205
			c3.032-4.408,4.809-9.371,5.283-14.502c1.852-0.859,6.492-3.443,7.288-8.037c0.633-3.648-1.308-7.408-5.742-11.189
			c0,0-0.412-0.349-0.417-0.354c-1.777-1.492-5.094-4.298-6.561-8.469c-0.295-0.828-1.049-1.398-1.925-1.445
			c-0.87-0.119-1.688,0.443-2.062,1.239c-0.765,1.613-7.282,16.026-2.331,23.894c1.556,2.469,4.034,3.924,7.293,4.462
			c-0.484,4.208-1.877,8.315-4.377,11.954c-4.087,5.934-10.283,9.994-17.449,11.428c-5.601,1.123-11.338,0.059-16.084-3.026
			c-4.161-2.689-7.048-6.671-8.436-11.285c-0.221-0.797-0.447-1.588-0.611-2.415c0-0.017-0.016-0.027-0.016-0.048
			c-1.371-8.559,4.448-16.822,13.275-18.589c3.407-0.675,6.861-0.026,9.725,1.835c2.843,1.841,4.768,4.651,5.421,7.932
			c1.034,5.184-2.483,10.272-7.847,11.349c-1.171,0.231-1.925,1.371-1.688,2.552c0.237,1.171,1.376,1.936,2.547,1.683
			c7.699-1.545,12.735-8.918,11.228-16.433c-0.876-4.424-3.476-8.21-7.314-10.71c-3.812-2.463-8.396-3.328-12.915-2.426
			c-5.584,1.118-10.206,4.318-13.22,8.59v-10.652c0.983,0.354,2.02,0.586,3.095,0.586c1.551,0,3.038-0.385,4.388-1.134
			c1.767-0.976,3.138-2.516,3.935-4.324c1.819,0.723,3.907,0.839,5.854,0.279c1.477-0.433,2.826-1.229,3.892-2.305
			c1.371-1.365,2.252-3.111,2.552-4.985c1.889-0.298,3.618-1.179,4.983-2.55c1.081-1.073,1.878-2.418,2.305-3.895
			c0.564-1.943,0.438-4.011-0.29-5.854c1.809-0.786,3.359-2.16,4.346-3.934c0.732-1.339,1.123-2.858,1.123-4.387
			c-0.005-1.933-0.617-3.784-1.729-5.313c1.112-1.526,1.725-3.38,1.725-5.312c0.005-1.556-0.375-3.035-1.129-4.401
			c-0.986-1.767-2.531-3.138-4.34-3.926c0.728-1.84,0.854-3.905,0.295-5.854c-0.438-1.49-1.213-2.798-2.305-3.889
			c-1.371-1.371-3.101-2.251-4.983-2.547c-0.3-1.874-1.181-3.617-2.552-4.98c-1.065-1.073-2.405-1.867-3.908-2.31
			c-1.908-0.557-4.013-0.438-5.848,0.285c-0.786-1.803-2.151-3.346-3.924-4.33c-3.032-1.685-6.958-1.408-9.713,0.593
			c-2.737-1.98-6.647-2.278-9.708-0.593c-1.767,0.979-3.138,2.516-3.926,4.324c-1.825-0.723-3.942-0.825-5.849-0.279
			c-1.469,0.422-2.818,1.215-3.905,2.305c-1.371,1.368-2.252,3.116-2.542,4.98c-1.885,0.301-3.618,1.176-4.989,2.547
			c-1.086,1.086-1.88,2.431-2.302,3.895c-0.562,1.943-0.438,4.008,0.293,5.849c-1.814,0.788-3.359,2.159-4.348,3.937
			c-0.751,1.371-1.128,2.845-1.124,4.379c0,1.933,0.609,3.792,1.722,5.318c-1.113,1.535-1.722,3.386-1.722,5.337
			c0,1.543,0.377,3.02,1.129,4.385c0.983,1.77,2.521,3.138,4.337,3.924c-0.73,1.843-0.854,3.905-0.292,5.848
			c0.427,1.482,1.226,2.832,2.299,3.9c1.374,1.365,3.106,2.246,4.986,2.55c0.295,1.869,1.176,3.614,2.542,4.985
			c1.076,1.081,2.42,1.872,3.905,2.305c1.922,0.56,4.019,0.443,5.849-0.284c0.788,1.809,2.154,3.354,3.921,4.324
			c2.333,1.297,5.189,1.407,7.636,0.495v10.826c-3.014-4.335-7.673-7.577-13.318-8.701c-4.498-0.896-9.097-0.042-12.909,2.426
			c-3.828,2.495-6.426,6.286-7.312,10.711c-1.508,7.53,3.53,14.892,11.229,16.432c1.158,0.232,2.308-0.527,2.545-1.683
			c0.232-1.181-0.525-2.314-1.69-2.552c-5.363-1.065-8.883-6.165-7.847-11.354c0.654-3.27,2.581-6.086,5.424-7.927
			c2.866-1.861,6.323-2.51,9.713-1.835c8.833,1.767,14.655,10.036,13.279,18.595c0,0.016-0.016,0.026-0.016,0.042
			c-0.164,0.817-0.39,1.603-0.606,2.399c-1.392,4.609-4.277,8.606-8.44,11.301c-4.746,3.08-10.46,4.15-16.087,3.027
			c-7.169-1.439-13.368-5.5-17.447-11.428c-2.499-3.639-3.892-7.747-4.374-11.955c3.256-0.543,5.735-1.993,7.291-4.461
			c4.952-7.868-1.566-22.275-2.326-23.895c-0.374-0.796-1.168-1.315-2.064-1.239c-0.881,0.042-1.64,0.617-1.928,1.445
			c-1.463,4.171-4.783,6.977-6.56,8.469l-0.417,0.354c-4.443,3.786-6.378,7.546-5.745,11.201c0.793,4.593,5.437,7.177,7.285,8.031
			c0.475,5.12,2.257,10.088,5.287,14.502c4.725,6.86,11.883,11.56,20.163,13.204c1.743,0.349,3.489,0.533,5.227,0.533
			c3.143,0,6.223-0.633,9.139-1.735c-7.902,6.75-18.684,9.967-29.642,7.784c-23.81-4.752-39.35-27.85-34.905-51.659
			c1.057,0.169,2.165,0.322,3.293,0.322c4.751,0,8.013-2.658,9.698-7.91c0.261-0.812,0.39-1.656,0.514-2.563
			c0.314-2.333,0.67-4.975,5.458-9.397c0.562-0.519,0.807-1.292,0.649-2.03c-0.156-0.746-0.696-1.35-1.414-1.6
			c-0.205-0.069-2.075-0.681-4.791-0.681c-1.582,0-3.122,0.206-4.596,0.612c0.108-2.154-0.308-4.168-1.242-6.028
			c-2.555-5.06-8.095-6.921-8.327-6.998c-0.744-0.248-1.587-0.058-2.165,0.491c-0.588,0.564-0.809,1.384-0.593,2.151
			c0.701,2.483-0.024,3.844-1.118,5.911C12.43,78.55,11.942,79.441,11.544,80.467z M175.812,101.083
			c-1.023,0.158-2.142,0.353-3.27,0.353c-2.089,0-4.198-0.585-5.59-4.92c-0.185-0.569-0.253-1.17-0.338-1.813
			c-0.295-2.176-0.675-4.997-3.775-8.802c2.141,0.063,4.15,0.63,5.97,1.685c0.785,0.448,1.75,0.372,2.441-0.195
			c0.701-0.562,0.976-1.501,0.696-2.355c-1.746-5.281,0.616-8.419,2.884-10.115c0.27,1.891,1.065,3.401,1.804,4.807
			c0.78,1.458,1.509,2.834,1.767,4.736c0.111,0.804,0.67,1.484,1.439,1.75c0.771,0.269,1.625,0.074,2.205-0.493
			c1.688-1.643,3.56-2.531,5.184-3.019c-2.02,4.478-1.656,7.301-1.377,9.477c0.085,0.648,0.169,1.247,0.138,1.843
			c-0.306,5.99-3.586,6.307-7.389,6.682L175.812,101.083z M142.996,116.16c-2.311-3.67-0.791-10.562,0.88-15.472
			c1.915,2.779,4.262,4.762,5.959,6.186c2.199,1.877,4.726,4.635,4.293,7.166c-0.269,1.577-1.646,2.869-2.995,3.792
			c-0.095-1.239-0.237-2.499-0.485-3.749c-0.227-1.166-1.35-1.909-2.536-1.688c-1.177,0.231-1.925,1.371-1.693,2.536
			c0.243,1.224,0.285,2.431,0.349,3.644C145.057,118.19,143.781,117.405,142.996,116.16z M89,100.313
			c-1.458-0.791-2.396-2.341-2.444-4.023c-0.029-0.849-0.551-1.608-1.334-1.93c-0.778-0.322-1.685-0.164-2.312,0.427
			c-1.216,1.149-3.009,1.577-4.572,1.123c-0.788-0.227-1.477-0.633-2.043-1.207c-1.005-1.008-1.506-2.397-1.377-3.823
			c0.061-0.639-0.387-1.258-0.835-1.711c-0.406-0.406-1.128-0.623-1.735-0.623c-1.403-0.016-2.634-0.442-3.591-1.392
			c-0.562-0.557-0.976-1.258-1.197-2.03c-0.464-1.604-0.034-3.359,1.124-4.586c0.583-0.619,0.743-1.521,0.419-2.312
			c-0.321-0.786-1.083-1.305-1.933-1.327c-1.674-0.044-3.211-0.983-4.016-2.436c-0.396-0.717-0.596-1.49-0.596-2.299
			c0-1.432,0.633-2.771,1.724-3.678c0.496-0.412,0.783-1.021,0.783-1.664s-0.288-1.252-0.783-1.664
			c-1.091-0.901-1.719-2.235-1.719-3.659c0-0.799,0.195-1.572,0.583-2.284c0.812-1.466,2.359-2.405,4.034-2.458
			c0.849-0.029,1.605-0.551,1.927-1.334c0.324-0.783,0.164-1.685-0.419-2.308c-1.149-1.226-1.577-2.979-1.118-4.585
			c0.227-0.775,0.63-1.461,1.205-2.035c0.902-0.902,2.16-1.382,3.821-1.377c0.665,0.056,1.271-0.171,1.725-0.625
			c0.448-0.453,0.675-1.086,0.62-1.724c-0.129-1.414,0.369-2.797,1.374-3.805c0.567-0.57,1.268-0.984,2.041-1.205
			c1.587-0.464,3.364-0.034,4.567,1.113c0.617,0.583,1.524,0.743,2.307,0.43c0.789-0.321,1.311-1.078,1.34-1.928
			c0.053-1.685,0.994-3.222,2.449-4.031c1.967-1.076,4.554-0.575,5.97,1.129c0.409,0.495,1.015,0.78,1.661,0.78
			c0.551-0.14,1.253-0.285,1.669-0.786c1.416-1.719,4.029-2.193,5.946-1.128c1.466,0.814,2.404,2.357,2.457,4.031
			c0.026,0.849,0.549,1.605,1.334,1.933c0.791,0.338,1.688,0.164,2.31-0.425c1.224-1.146,3.032-1.561,4.567-1.123
			c0.791,0.237,1.481,0.641,2.057,1.221c1.007,0.997,1.497,2.387,1.371,3.813c-0.059,0.641,0.396,1.257,0.849,1.711
			c0.401,0.403,1.129,0.619,1.729,0.619c1.351-0.037,2.627,0.433,3.576,1.382c0.569,0.575,0.985,1.266,1.213,2.038
			c0.464,1.624,0.047,3.341-1.124,4.583c-0.574,0.617-0.748,1.519-0.422,2.307c0.327,0.789,1.081,1.308,1.925,1.334
			c1.683,0.053,3.228,0.992,4.034,2.452c0.396,0.712,0.586,1.479,0.586,2.299c0,1.426-0.622,2.758-1.714,3.66
			c-0.496,0.412-0.786,1.023-0.786,1.669c0,0.649,0.29,1.252,0.786,1.669c1.092,0.901,1.714,2.235,1.719,3.651
			c0,0.799-0.205,1.598-0.585,2.294c-0.812,1.464-2.362,2.402-4.034,2.452c-0.844,0.026-1.604,0.546-1.931,1.334
			c-0.326,0.789-0.158,1.69,0.422,2.305c1.155,1.227,1.582,2.982,1.118,4.585c-0.227,0.772-0.638,1.474-1.207,2.036
			c-0.902,0.901-2.109,1.308-3.823,1.376c-0.676-0.042-1.266,0.174-1.72,0.628c-0.448,0.453-0.675,1.086-0.622,1.722
			c0.132,1.416-0.358,2.806-1.376,3.808c-0.564,0.574-1.25,0.98-2.03,1.213c-1.604,0.448-3.37,0.026-4.583-1.118
			c-0.617-0.586-1.519-0.76-2.305-0.428c-0.785,0.322-1.308,1.082-1.334,1.926c-0.058,1.682-0.991,3.227-2.457,4.028
			c-1.949,1.087-4.525,0.596-5.962-1.134c-0.411-0.496-1.015-0.78-1.664-0.78l0,0c-0.643,0-1.252,0.284-1.664,0.78
			C93.543,100.909,90.983,101.416,89,100.313z M45.202,112.389c-1.17-0.237-2.312,0.522-2.539,1.688
			c-0.248,1.25-0.388,2.511-0.479,3.75c-1.35-0.918-2.727-2.21-2.996-3.792c-0.432-2.531,2.094-5.284,4.691-7.499
			c1.426-1.207,3.684-3.105,5.563-5.858c1.674,4.904,3.19,11.797,0.878,15.472c-0.788,1.245-2.051,2.031-3.773,2.41
			c0.071-1.213,0.114-2.42,0.351-3.644C47.135,113.76,46.373,112.622,45.202,112.389z M14.924,84.469
			c0.259-1.901,0.994-3.277,1.767-4.735c0.733-1.387,1.532-2.89,1.798-4.757c1.01,0.76,2.041,1.793,2.716,3.133
			c0.986,1.959,1.047,4.292,0.177,6.932c-0.28,0.854-0.005,1.793,0.691,2.354c0.693,0.567,1.669,0.644,2.447,0.195
			c1.819-1.055,3.823-1.622,5.972-1.685c-3.104,3.807-3.483,6.626-3.778,8.801c-0.087,0.644-0.158,1.244-0.34,1.819
			c-2.133,6.66-5.93,5.047-8.862,4.562l-2.792-0.369c-3.802-0.369-7.084-0.686-7.393-6.676c-0.026-0.602,0.061-1.2,0.142-1.846
			c0.28-2.184,0.641-5.007-1.384-9.49c1.606,0.482,3.488,1.371,5.189,3.03c0.585,0.566,1.447,0.762,2.209,0.493
			C14.26,85.949,14.816,85.268,14.924,84.469z"/>
	</g>
</g>
<g>
</g>
<g>
</g>
<g>
</g>
<g>
</g>
<g>
</g>
<g>
</g>
<g>
</g>
<g>
</g>
<g>
</g>
<g>
</g>
<g>
</g>
<g>
</g>
<g>
</g>
<g>
</g>
<g>
</g>
</svg>
