<?xml version="1.0" encoding="iso-8859-1"?>
<!-- Generator: Adobe Illustrator 16.0.0, SVG Export Plug-In . SVG Version: 6.00 Build 0)  -->
<!DOCTYPE svg PUBLIC "-//W3C//DTD SVG 1.1//EN" "http://www.w3.org/Graphics/SVG/1.1/DTD/svg11.dtd">
<svg version="1.1" id="Capa_1" xmlns="http://www.w3.org/2000/svg" xmlns:xlink="http://www.w3.org/1999/xlink" x="0px" y="0px"
	 width="159.005px" height="159.005px" viewBox="0 0 159.005 159.005" style="enable-background:new 0 0 159.005 159.005;"
	 xml:space="preserve">
<g>
	<g>
		<path d="M145.205,113.748c2.558,1.45,7.562-2.584,9.919-9.835c1.112-3.586,1.318-7.014,0.854-9.492
			c-0.564-2.516-1.698-4.087-3.19-4.298c-1.487-0.195-2.268,1.561-2.784,2.7c-0.654,1.508-1.234,2.162-2.1,2.193
			c-1.16,0.011-2.193-1.603-3.602-3.228c-1.593-1.908-3.47-3.87-5.764-4.166c-1.076-0.143-2.136-0.105-3.133,0.059
			c1.688-2.083,1.904-4.836,0.949-7.555c-0.205-0.601-0.849-0.88-1.46-0.633c-0.575,0.248-0.881,0.907-0.681,1.479
			c0.696,2.009,0.559,3.729-0.338,4.994c-0.844,1.26-2.109,2.109-3.237,2.62c0.042-0.131,0.11-0.258,0.137-0.4
			c0.285-1.007,0.332-2.035,0.2-3.011c-0.137-0.971-0.643-1.888-1.229-2.663c-1.191-1.577-3.017-2.592-5.199-2.813
			c-3.612-0.304-6.987,1.585-7.573,3.937c-0.053,0.147-0.095,0.316-0.11,0.464c-0.132,0.812,0.143,1.667,0.786,2.489
			c0.801,0.971,1.882,1.762,3.264,2.215c1.145,0.369,2.362,0.391,3.476-0.031c1.055-0.412,1.761-1.234,2.088-2.247
			c0.063-0.211,0.021-0.433-0.116-0.611c-0.042-0.306-0.126-0.612-0.358-0.876c-0.686-0.78-1.962-0.886-2.858-0.348
			c-0.896,0.532-1.06,1.519-0.374,2.278c0.163,0.189,0.364,0.337,0.585,0.469c-0.585,0.217-1.26,0.243-1.914,0.053
			c-0.943-0.274-1.719-0.796-2.246-1.46c-0.512-0.654-0.665-1.351-0.422-2.036c0.506-1.804,2.868-3.13,5.516-2.811
			c3.354,0.396,5.79,3.476,4.768,6.518c-0.485,1.957-1.898,3.254-3.607,3.85c-1.725,0.606-3.892,0.501-6.428-0.211
			c-0.111-0.042-0.232-0.053-0.338-0.053l-12.889-3.865c-0.596-0.174-1.123-0.084-1.249,0.18c-0.111,0.284,0.284,0.675,0.87,0.875
			l12.903,4.472c0.059,0.021,0.096,0.053,0.132,0.074c2.479,0.907,4.309,2.094,5.39,3.597c1.129,1.529,1.308,3.312,0.665,5.236
			c-0.412,1.534-1.688,2.579-3.102,3.032c-1.424,0.453-3.026,0.295-4.524-0.501c-2.294-1.271-3.575-3.818-2.874-5.542
			c0.296-0.623,0.76-1.15,1.545-1.382c0.786-0.243,1.72-0.211,2.637,0.11c0.644,0.222,1.171,0.628,1.54,1.16
			c-0.264-0.021-0.517-0.021-0.749,0.042c-1.012,0.222-1.35,1.177-1.012,2.083c0.343,0.929,1.46,1.593,2.531,1.382
			c0.343-0.063,0.648-0.242,0.833-0.485c0.2-0.079,0.354-0.221,0.427-0.432c0.322-1.019,0.158-2.126-0.427-3.069
			c-0.591-0.96-1.582-1.656-2.758-2.025c-1.393-0.442-2.812-0.47-3.972-0.116c-1.007,0.296-1.64,0.844-2.057,1.572
			c-0.089,0.126-0.147,0.273-0.211,0.411c-0.469,1.16-0.189,2.584,0.485,3.986c0.633,1.351,1.772,2.711,3.354,3.628
			c1.898,1.098,4.097,1.435,5.896,0.791c1.824-0.611,3.549-1.982,4.145-4.028c0.037-0.138,0.068-0.274,0.101-0.422
			c0.611,1.075,1.233,2.562,1.118,4.039c-0.148,1.466-0.844,3.069-2.616,4.271c-0.538,0.332-0.706,1.013-0.39,1.551
			c0.337,0.538,1.022,0.696,1.582,0.353c1.297-0.754,2.141-1.835,2.778-2.963c0.575-1.166,1.013-2.368,0.918-3.718
			c0.749,0.717,1.571,1.371,2.542,1.893c2.057,1.103,4.661,0.586,7.061-0.047c2.015-0.527,3.972-1.149,4.857-0.485
			c0.696,0.532,0.644,1.34,0.348,2.975C144.234,111.143,143.87,113.041,145.205,113.748z M139.013,104.867
			c-2.136,0.591-4.282,1.065-5.743,0.349c-2.093-1.013-3.522-2.816-4.571-4.599c-1.071-1.793-1.909-3.645-2.368-4.915l4.355,1.519
			c-0.152,1.999,0.986,4.113,2.943,4.957c2.356,1.018,5.104-0.422,6.106-3.254c0.896-2.857-0.617-5.689-3.085-6.206
			c-2.136-0.47-4.261,0.596-5.247,2.367l-4.425-1.339c1.097-0.765,2.764-1.804,4.746-2.627c2.03-0.807,4.146-1.471,6.466-1.06
			c1.592,0.274,3.164,1.925,4.403,3.639c1.561,2.025,2.963,4.146,5.052,4.198c2.288,0.053,3.554-2.268,4.318-3.687
			c0.132-0.332,0.333-0.786,0.364-0.986c0.026-0.042,0.021-0.073,0-0.084c1.498,0.237,2.283,4.641,0.644,10.051
			c-0.938,2.637-2.136,4.81-3.344,6.191c-1.239,1.35-2.362,1.972-2.964,1.74c-0.021-0.169,0.111-0.823,0.18-1.255
			c0.348-1.529,0.585-4.183-1.308-5.495C143.791,103.228,141.487,104.14,139.013,104.867z M133.081,96.799
			c0.464-1.25,1.666-2.057,2.953-1.703c1.239,0.332,2.046,1.777,1.551,3.153c-0.496,1.382-1.904,2.126-3.111,1.672
			C133.25,99.436,132.627,98.049,133.081,96.799z"/>
		<path d="M112.541,145.779c0.644,1.328,2.547,2.004,5.062,1.666c1.239-0.18,2.652-0.575,4.166-1.182
			c0.749-0.316,1.508-0.664,2.294-1.086c0.749-0.453,1.492-0.971,2.252-1.519c1.487-1.129,2.826-2.289,3.887-3.507
			c1.018-1.25,1.813-2.5,2.362-3.649c1.086-2.294,1.086-4.219,0-5.289c-1.061-1.013-2.742-0.085-3.882,0.495
			c-1.466,0.775-2.246,1.055-2.974,0.554c-0.907-0.644-0.907-2.668-1.018-4.735c-0.101-2.389-0.48-5.089-2.179-6.729
			c-0.791-0.754-1.677-1.329-2.552-1.793c2.404-0.828,4.472-2.7,5.168-5.585c0.147-0.633-0.211-1.244-0.823-1.387
			c-0.606-0.143-1.233,0.222-1.381,0.833c-0.475,2.136-1.889,3.228-3.249,3.803c-1.382,0.58-2.858,0.543-4.15,0.231
			c0.127-0.073,0.254-0.132,0.38-0.206c1.683-1.275,2.5-3.285,2.547-5.168c-0.079-2.014-0.996-3.938-2.626-5.41
			c-1.35-1.207-3.017-1.872-4.514-2.072c-1.466-0.164-2.9,0.047-3.918,0.791c-0.122,0.105-0.243,0.2-0.343,0.327
			c-0.285,0.311-0.475,0.686-0.591,1.118c-0.147,0.4-0.232,0.854-0.222,1.36c0.011,1.196,0.464,2.536,1.308,3.712
			c0.723,0.981,1.688,1.698,2.806,1.983c1.097,0.284,2.246,0.116,3.08-0.527c0.158-0.138,0.253-0.349,0.253-0.569
			c0.126-0.285,0.237-0.591,0.195-0.96c-0.116-1.044-1.092-1.898-2.115-1.973c-1.013-0.084-1.661,0.696-1.629,1.667
			c0.026,0.242,0.089,0.475,0.189,0.706c-0.617-0.189-1.187-0.564-1.598-1.107c-0.591-0.77-0.912-1.646-0.912-2.446
			c0.01-0.791,0.227-1.524,0.791-1.957c0.738-0.585,1.835-0.728,2.932-0.564c1.086,0.143,2.268,0.665,3.217,1.582
			c2.584,2.363,2.531,6.107,0.042,8.09c-1.688,1.149-3.438,1.529-5.184,1.002c-1.793-0.559-3.491-1.94-5.131-4.019
			c-0.085-0.105-0.164-0.169-0.259-0.242l-8.168-10.694c-0.369-0.496-0.887-0.76-1.118-0.564c-0.243,0.174-0.132,0.754,0.211,1.26
			l7.825,11.19c0.021,0.042,0.032,0.101,0.063,0.138c3.038,4.387,3.027,8.236-0.284,10.694c-1.309,0.864-2.869,1.107-4.271,0.653
			c-1.45-0.521-2.669-1.629-3.423-3.153c-0.564-1.197-0.707-2.479-0.527-3.564c0.18-1.076,0.696-1.983,1.461-2.579
			c0.564-0.406,1.292-0.475,2.088-0.185c0.791,0.306,1.54,0.881,2.089,1.667c0.369,0.559,0.58,1.233,0.559,1.866
			c-0.189-0.169-0.4-0.327-0.633-0.422c-0.949-0.422-1.846,0.021-2.067,1.034c-0.231,1.002,0.274,2.183,1.239,2.589
			c0.327,0.147,0.648,0.147,0.96,0.09c0.211,0.073,0.433,0.047,0.611-0.074c0.892-0.569,1.424-1.54,1.461-2.737
			c0.053-1.149-0.337-2.31-1.055-3.274c-0.859-1.171-1.988-1.993-3.105-2.347c-0.986-0.354-1.894-0.385-2.627-0.021
			c-0.137,0.069-0.273,0.143-0.4,0.243c-0.991,0.807-1.692,1.903-1.962,3.465c-0.253,1.503-0.11,3.306,0.612,4.968
			c0.896,2.004,2.431,3.448,4.303,4.092c1.914,0.76,3.944,0.295,5.732-0.802c0.11-0.084,0.222-0.179,0.332-0.264
			c-0.132,1.224-0.559,2.669-1.503,3.85c-0.923,1.234-2.457,2.025-4.614,1.909c-0.622-0.021-1.155,0.464-1.208,1.097
			c-0.062,0.633,0.412,1.171,1.055,1.192c1.456,0.047,2.816-0.206,3.998-0.729c1.16-0.585,2.141-1.471,2.884-2.531
			c0.175,1.002,0.454,2.004,0.944,2.996c1.013,2.093,3.491,3.301,5.764,4.166c1.909,0.728,3.839,1.318,4.166,2.383
			c0.264,0.844-0.242,1.498-1.413,2.7C113.336,143.205,111.871,144.418,112.541,145.779z M116.142,143.659
			c1.118-1.14,2.933-3.038,2.157-5.2c-0.696-1.936-3.153-2.631-5.579-3.496c-2.057-0.728-4.04-1.54-4.815-3
			c-1.091-2.025-1.229-4.388-1.06-6.481c0.147-2.136,0.696-3.939,1.007-5.311l2.647,3.781c-1.286,1.561-1.698,3.786-0.574,5.669
			c0.659,1.092,1.745,1.793,3.011,1.988c1.276,0.242,2.679-0.101,3.85-1.008c1.197-0.886,1.94-2.109,2.151-3.316
			c0.18-1.271-0.158-2.547-1.002-3.496c-1.439-1.619-3.723-1.941-5.647-1.197l-2.811-3.697c1.392,0.101,3.385,0.279,5.405,0.686
			c2.051,0.465,4.245,1.276,5.869,2.969c1.128,1.16,1.339,3.328,1.413,5.521c0.147,2.627,0,5.095,1.661,6.371
			c1.888,1.46,4.161,0.242,5.563-0.485c0.338-0.164,0.791-0.411,0.934-0.549c0.031-0.021,0.047-0.053,0.042-0.063
			c1.002,0.981-0.786,5.211-5.368,8.47c-2.194,1.724-4.562,2.589-6.323,3.026c-1.777,0.412-3.037,0.307-3.369-0.231
			C115.362,144.439,115.836,143.965,116.142,143.659z M112.662,124.959c1.061-0.796,2.595-0.633,3.417,0.38
			c0.817,1.013,0.554,2.553-0.616,3.428c-1.177,0.886-2.727,0.686-3.465-0.422C111.301,127.285,111.591,125.761,112.662,124.959z"/>
		<path d="M96.488,133.813c0.496-0.433,0.554-1.165,0.127-1.63c-0.391-0.453-1.118-0.506-1.608-0.152
			c-1.688,1.271-3.401,1.603-4.847,1.207c-1.466-0.432-2.668-1.371-3.496-2.305c0.143,0.011,0.279,0.011,0.417,0.027
			c1.055-0.027,2.062-0.28,2.932-0.702c0.865-0.517,1.604-1.218,2.162-1.998c1.129-1.619,1.54-3.612,1.065-5.812
			c-0.812-3.476-3.66-6.191-6.054-5.97c-0.158-0.011-0.338,0-0.48,0.021c-0.817,0.116-1.545,0.622-2.141,1.487
			c-0.686,1.027-1.094,2.367-1.104,3.807c-0.011,1.192,0.351,2.416,1.073,3.265c0.728,0.849,1.729,1.308,2.811,1.292
			c0.222,0,0.396-0.105,0.548-0.285c0.285-0.121,0.56-0.306,0.738-0.596c0.533-0.886,0.232-2.146-0.554-2.832
			c-0.791-0.701-1.771-0.559-2.294,0.316c-0.115,0.211-0.211,0.454-0.269,0.696c-0.385-0.495-0.611-1.128-0.633-1.813
			c-0.026-0.971,0.227-1.889,0.696-2.563c0.469-0.675,1.092-1.044,1.809-1.022c1.856-0.138,3.86,1.793,4.377,4.377
			c0.644,3.27-1.503,6.612-4.735,6.518c-2.015,0.116-3.681-0.749-4.788-2.246c-1.095-1.467-1.68-3.555-1.77-6.202
			c0-0.11-0.04-0.231-0.076-0.332l-0.309-13.452c-0.011-0.623-0.274-1.107-0.562-1.087c-0.301-0.031-0.562,0.464-0.562,1.087
			l-0.264,13.642c0,0.059-0.021,0.111-0.021,0.153c-0.108,2.637-0.654,4.735-1.762,6.212c-0.562,0.738-1.236,1.308-2.046,1.729
			c-0.799,0.412-1.706,0.527-2.721,0.527c-3.251,0.111-5.4-3.227-4.77-6.496c0.509-2.584,2.513-4.525,4.358-4.383
			c0.707-0.021,1.339,0.332,1.814,1.008c0.464,0.686,0.73,1.592,0.707,2.573c-0.021,0.686-0.243,1.308-0.63,1.813
			c-0.055-0.242-0.134-0.484-0.266-0.695c-0.527-0.876-1.517-1.013-2.3-0.307c-0.788,0.686-1.057,1.936-0.54,2.821
			c0.179,0.312,0.443,0.485,0.741,0.606c0.124,0.169,0.335,0.279,0.551,0.279c1.062,0.011,2.067-0.453,2.784-1.308
			c0.73-0.849,1.086-2.088,1.076-3.264c-0.016-1.435-0.443-2.774-1.128-3.808c-0.577-0.854-1.308-1.371-2.133-1.477
			c-0.15-0.021-0.325-0.031-0.475-0.021c-2.395-0.211-5.245,2.531-6.044,5.991c-0.464,2.204-0.042,4.197,1.097,5.812
			c0.562,0.785,1.294,1.471,2.16,1.993c0.88,0.422,1.891,0.664,2.932,0.696c0.135,0,0.298-0.032,0.427-0.032
			c-0.838,0.929-2.02,1.878-3.488,2.31c-1.463,0.401-3.164,0.096-4.854-1.181c-0.504-0.349-1.21-0.29-1.611,0.152
			c-0.409,0.475-0.351,1.208,0.147,1.63c2.32,1.666,5.01,2.367,7.499,1.371c-0.453,0.918-0.81,1.903-1.015,2.975
			c-0.398,2.304,0.886,4.65,2.226,6.739c1.123,1.813,2.333,3.375,1.972,4.44c-0.298,0.838-1.081,1.117-2.724,1.291
			c-1.237,0.153-3.164,0.364-3.428,1.862c-0.253,1.471,0.907,3.026,3.132,4.313c2.212,1.292,5.513,1.956,9.25,2.12
			c3.721-0.169,7.037-0.844,9.236-2.142c2.215-1.297,3.364-2.848,3.111-4.334c-0.264-1.477-2.173-1.688-3.417-1.846
			c-1.646-0.169-2.437-0.443-2.731-1.287c-0.358-1.055,0.838-2.615,1.945-4.44c1.329-2.099,2.627-4.45,2.205-6.739
			c-0.195-1.076-0.56-2.067-1.013-2.984C91.495,136.191,94.173,135.485,96.488,133.813z M79.611,135.817
			c1.329-0.068,2.457,0.938,2.531,2.241c0.076,1.297-1.053,2.415-2.521,2.483c-1.464-0.068-2.592-1.176-2.545-2.479
			C77.137,136.756,78.276,135.749,79.611,135.817z M85.461,143.901c-1.445,2.094-3.021,4.065-2.434,6.054
			c0.654,2.184,3.256,2.779,4.817,2.969c0.337,0.043,0.859,0.111,1.055,0.074c0.037,0,0.068-0.021,0.073-0.031
			c0.101,0.695-0.796,1.703-2.462,2.399c-1.656,0.701-4.071,1.244-6.864,1.339c-2.784-0.084-5.199-0.617-6.863-1.292
			c-1.669-0.664-2.592-1.64-2.586-2.246c0.158-0.09,0.822-0.153,1.247-0.211c1.556-0.2,4.152-0.796,4.796-2.99
			c0.578-1.988-1.004-3.96-2.447-6.038c-1.237-1.74-2.349-3.755-2.133-5.337c0.319-2.32,1.582-4.16,2.956-5.774
			c1.382-1.65,2.866-2.932,3.937-3.765l-0.092,4.608c-1.961,0.428-3.607,2.142-3.807,4.293c-0.243,2.542,1.982,4.746,4.968,4.856
			c2.992-0.121,5.196-2.347,4.943-4.883c-0.211-2.157-1.888-3.882-3.868-4.282l-0.103-4.625c1.057,0.823,2.57,2.109,3.955,3.744
			c1.392,1.625,2.668,3.46,3.006,5.796C87.782,140.131,86.685,142.156,85.461,143.901z"/>
		<path d="M47.746,137.342c2.294-0.887,4.768-2.12,5.756-4.203c0.475-0.976,0.762-1.983,0.929-2.99c0.762,1.055,1.74,1.93,2.9,2.525
			c1.194,0.507,2.555,0.766,4.008,0.707c0.63-0.021,1.094-0.564,1.041-1.197c-0.065-0.627-0.577-1.117-1.215-1.081
			c-2.149,0.111-3.715-0.664-4.622-1.903c-0.958-1.182-1.376-2.615-1.519-3.839c0.119,0.084,0.211,0.169,0.335,0.264
			c1.782,1.086,3.829,1.54,5.729,0.785c1.88-0.664,3.42-2.104,4.306-4.107c0.728-1.656,0.847-3.46,0.578-4.979
			c-0.266-1.55-0.983-2.632-1.967-3.438c-0.119-0.105-0.264-0.179-0.393-0.253c-0.757-0.369-1.664-0.337-2.626,0.032
			c-1.11,0.348-2.233,1.181-3.093,2.356c-0.717,0.981-1.107,2.136-1.036,3.286c0.042,1.191,0.572,2.151,1.463,2.721
			c0.177,0.116,0.398,0.137,0.609,0.079c0.319,0.063,0.633,0.063,0.968-0.09c0.954-0.422,1.463-1.603,1.236-2.6
			c-0.232-1.018-1.128-1.45-2.091-1.018c-0.232,0.105-0.443,0.242-0.62,0.422c-0.024-0.644,0.177-1.308,0.562-1.872
			c0.538-0.786,1.263-1.361,2.067-1.672c0.789-0.306,1.505-0.242,2.101,0.169c0.773,0.591,1.253,1.487,1.464,2.573
			c0.171,1.086,0.053,2.373-0.525,3.564c-0.746,1.529-1.954,2.637-3.407,3.164c-1.4,0.454-2.972,0.222-4.271-0.627
			c-3.312-2.447-3.343-6.312-0.33-10.689c0.069-0.111,0.114-0.222,0.145-0.332l7.678-11.059c0.353-0.517,0.454-1.081,0.211-1.261
			c-0.232-0.185-0.738,0.079-1.118,0.564l-8.24,10.89c-0.037,0.042-0.082,0.068-0.113,0.111c-1.643,2.077-3.319,3.47-5.112,4.039
			c-1.751,0.538-3.502,0.152-5.192-0.986c-2.51-1.967-2.563-5.722,0-8.09c0.957-0.917,2.133-1.439,3.214-1.592
			c1.107-0.164,2.199-0.032,2.937,0.564c0.567,0.422,0.799,1.149,0.799,1.951c0.01,0.791-0.319,1.677-0.896,2.446
			c-0.409,0.549-0.971,0.918-1.593,1.107c0.103-0.222,0.169-0.464,0.179-0.706c0.042-0.96-0.601-1.74-1.637-1.656
			c-1.016,0.084-1.97,0.928-2.102,1.982c-0.042,0.354,0.061,0.676,0.189,0.96c0.011,0.222,0.098,0.433,0.272,0.564
			c0.825,0.644,1.975,0.786,3.072,0.522c1.107-0.301,2.088-1.019,2.797-2.004c0.831-1.182,1.284-2.521,1.294-3.713
			c-0.021-0.991-0.295-1.835-0.82-2.479c-0.113-0.116-0.221-0.222-0.334-0.327c-1.016-0.749-2.447-0.949-3.926-0.786
			c-1.495,0.211-3.169,0.876-4.52,2.104c-1.643,1.461-2.549,3.396-2.597,5.4c0.053,1.888,0.886,3.902,2.576,5.168
			c0.124,0.073,0.243,0.132,0.366,0.211c-1.263,0.306-2.771,0.343-4.158-0.222c-1.361-0.569-2.766-1.661-3.262-3.797
			c-0.145-0.602-0.772-0.976-1.381-0.822c-0.612,0.137-0.984,0.759-0.799,1.381c0.686,2.891,2.758,4.757,5.189,5.58
			c-0.896,0.464-1.761,1.044-2.555,1.803c-1.701,1.635-2.091,4.335-2.149,6.729c-0.114,2.067-0.114,4.103-1.015,4.735
			c-0.736,0.517-1.49,0.222-2.982-0.538c-1.139-0.564-2.813-1.497-3.876-0.479c-1.091,1.064-1.081,3,0.016,5.278
			c0.556,1.16,1.339,2.395,2.365,3.649c1.055,1.224,2.405,2.373,3.911,3.491c0.756,0.559,1.5,1.06,2.257,1.513
			c0.778,0.412,1.55,0.766,2.299,1.065c1.503,0.606,2.921,1.008,4.163,1.182c2.534,0.332,4.419-0.354,5.065-1.683
			c0.67-1.371-0.794-2.589-1.69-3.48c-1.17-1.191-1.685-1.855-1.424-2.699C43.917,138.66,45.839,138.063,47.746,137.342z
			 M43.095,143.785c0.255,0.254,0.617,0.623,0.783,0.718c0.056,0.031,0.077,0.031,0.093,0.031c-0.34,0.633-1.593,0.802-3.37,0.422
			c-1.759-0.39-4.147-1.239-6.338-2.964c-4.612-3.259-6.394-7.478-5.601-8.405c0.19,0.031,0.783,0.337,1.16,0.548
			c1.426,0.718,3.715,1.92,5.584,0.475c1.664-1.286,1.479-3.754,1.619-6.391c0.087-2.194,0.287-4.367,1.416-5.527
			c1.603-1.688,3.775-2.499,5.812-2.974c2.001-0.422,3.984-0.612,5.376-0.718l-2.784,3.682c-1.912-0.707-4.188-0.364-5.601,1.238
			c-0.831,0.977-1.184,2.226-1.005,3.497c0.222,1.218,0.994,2.437,2.17,3.322c1.173,0.896,2.576,1.233,3.852,0.991
			c1.263-0.211,2.342-0.918,3.006-2.004c1.118-1.898,0.696-4.145-0.614-5.706l2.629-3.808c0.33,1.382,0.865,3.175,1.031,5.316
			c0.174,2.109,0.055,4.482-1.031,6.528c-0.772,1.455-2.753,2.288-4.802,3.017c-2.412,0.875-4.88,1.582-5.566,3.522
			C40.152,140.759,41.971,142.657,43.095,143.785z M47.189,128.45c-0.736,1.118-2.286,1.329-3.452,0.443
			c-1.176-0.876-1.463-2.405-0.643-3.428c0.823-1.013,2.354-1.192,3.419-0.401C47.572,125.877,47.875,127.396,47.189,128.45z"/>
		<path d="M19.86,107.62c2.381,0.633,4.999,1.14,7.059,0.021c0.96-0.517,1.78-1.171,2.521-1.888
			c-0.108,1.35,0.335,2.541,0.928,3.701c0.643,1.129,1.474,2.205,2.787,2.953c0.562,0.349,1.252,0.169,1.582-0.348
			c0.33-0.543,0.134-1.244-0.398-1.551c-1.762-1.197-2.481-2.8-2.616-4.261c-0.124-1.487,0.499-2.964,1.097-4.039
			c0.042,0.132,0.077,0.274,0.108,0.422c0.588,2.035,2.334,3.396,4.147,3.991c1.804,0.633,4.005,0.301,5.906-0.807
			c1.572-0.917,2.7-2.288,3.333-3.639c0.675-1.397,0.938-2.826,0.464-3.976c-0.058-0.147-0.113-0.296-0.211-0.422
			c-0.419-0.718-1.052-1.276-2.057-1.562c-1.165-0.337-2.586-0.316-3.984,0.127c-1.163,0.374-2.138,1.07-2.734,2.035
			c-0.594,0.96-0.738,2.067-0.419,3.074c0.074,0.211,0.219,0.354,0.419,0.433c0.189,0.243,0.503,0.411,0.844,0.485
			c1.052,0.2,2.159-0.464,2.531-1.393c0.334-0.917-0.011-1.871-1.016-2.082c-0.242-0.063-0.496-0.063-0.743-0.043
			c0.351-0.517,0.891-0.938,1.521-1.17c0.917-0.327,1.875-0.359,2.637-0.122c0.788,0.232,1.252,0.749,1.558,1.393
			c0.709,1.714-0.567,4.271-2.856,5.542c-1.479,0.791-3.101,0.965-4.524,0.512c-1.426-0.453-2.689-1.471-3.111-3.011
			c-0.644-1.915-0.485-3.702,0.644-5.231c1.073-1.519,2.9-2.7,5.379-3.628c0.113-0.042,0.222-0.105,0.306-0.158l12.712-4.44
			c0.59-0.211,0.999-0.596,0.87-0.87c-0.124-0.279-0.654-0.369-1.242-0.19l-13.067,3.961c-0.061,0-0.108,0-0.145,0.021
			c-2.586,0.722-4.736,0.833-6.476,0.231c-1.706-0.585-3.122-1.877-3.617-3.839c-1.042-3.043,1.387-6.117,4.735-6.528
			c2.634-0.333,5.023,1.007,5.524,2.8c0.232,0.675,0.087,1.387-0.422,2.035c-0.506,0.665-1.3,1.197-2.233,1.461
			c-0.659,0.201-1.329,0.18-1.919-0.042c0.216-0.11,0.422-0.274,0.58-0.464c0.686-0.77,0.517-1.751-0.385-2.289
			c-0.892-0.527-2.176-0.411-2.851,0.369c-0.232,0.264-0.335,0.57-0.356,0.876c-0.113,0.179-0.168,0.4-0.108,0.611
			c0.306,1.013,1.025,1.825,2.088,2.247c1.097,0.411,2.334,0.385,3.478,0.01c1.39-0.464,2.447-1.255,3.256-2.235
			c0.644-0.812,0.928-1.672,0.789-2.489c-0.026-0.147-0.069-0.312-0.119-0.453c-0.583-2.363-3.963-4.232-7.575-3.924
			c-2.184,0.237-4.008,1.255-5.194,2.837c-0.562,0.78-1.065,1.692-1.216,2.669c-0.134,0.98-0.082,2.004,0.211,3.016
			c0.053,0.138,0.113,0.264,0.156,0.401c-1.134-0.517-2.392-1.36-3.251-2.616c-0.917-1.255-1.046-2.984-0.366-4.983
			c0.2-0.582-0.108-1.236-0.686-1.479c-0.593-0.248-1.236,0.031-1.458,0.635c-0.947,2.737-0.725,5.49,0.983,7.547
			c-1.015-0.132-2.06-0.175-3.143-0.032c-2.312,0.312-4.164,2.268-5.74,4.188c-1.395,1.624-2.432,3.238-3.592,3.238
			c-0.854-0.021-1.447-0.686-2.106-2.189c-0.524-1.144-1.297-2.89-2.792-2.679c-1.485,0.211-2.608,1.782-3.175,4.304
			c-0.454,2.479-0.232,5.911,0.886,9.481c2.376,7.24,7.398,11.27,9.956,9.809c1.329-0.712,0.958-2.6,0.736-3.854
			c-0.314-1.625-0.356-2.442,0.34-2.975C15.878,106.492,17.835,107.104,19.86,107.62z M13.563,104.636
			c-1.901,1.308-1.648,3.966-1.292,5.495c0.071,0.348,0.164,0.854,0.25,1.033c0.021,0.031,0.042,0.053,0.053,0.053
			c-0.654,0.321-1.804-0.264-3.062-1.593c-1.221-1.339-2.431-3.507-3.375-6.148c-1.664-5.4-0.896-9.809,0.412-10.125
			c0.119,0.126,0.382,0.738,0.562,1.128c0.759,1.414,2.046,3.724,4.334,3.671c2.091-0.063,3.483-2.184,5.034-4.208
			c1.242-1.715,2.813-3.375,4.396-3.66c2.31-0.411,4.401,0.232,6.42,1.023c1.983,0.801,3.649,1.835,4.757,2.594l-4.417,1.34
			c-0.994-1.74-3.111-2.79-5.21-2.326c-2.468,0.544-3.986,3.375-3.08,6.233c1.015,2.812,3.787,4.256,6.125,3.228
			c1.975-0.859,3.114-3.006,2.921-5.021l4.385-1.529c-0.453,1.261-1.276,3.122-2.365,4.937c-1.039,1.793-2.468,3.617-4.58,4.635
			c-1.463,0.723-3.618,0.254-5.746-0.332C17.613,104.361,15.291,103.459,13.563,104.636z M24.606,100.101
			c-1.216,0.464-2.613-0.274-3.111-1.656c-0.506-1.371,0.309-2.826,1.535-3.164c1.279-0.348,2.494,0.454,2.958,1.692
			C26.441,98.238,25.832,99.631,24.606,100.101z"/>
		<path d="M13.795,45.238c-2.555-1.448-7.56,2.597-9.914,9.837c-1.113,3.586-1.318,7.014-0.854,9.492
			c0.562,2.518,1.695,4.089,3.188,4.295c1.49,0.203,2.268-1.556,2.785-2.695c0.653-1.508,1.236-2.167,2.101-2.194
			c1.16-0.011,2.191,1.604,3.602,3.22c1.592,1.911,3.467,3.87,5.761,4.168c1.076,0.145,2.139,0.103,3.133-0.05
			c-1.685,2.081-1.901,4.833-0.949,7.555c0.208,0.601,0.852,0.875,1.463,0.633c0.572-0.248,0.878-0.907,0.68-1.479
			c-0.691-2.004-0.562-3.731,0.335-4.991c0.846-1.269,2.109-2.115,3.243-2.629c-0.048,0.135-0.113,0.261-0.14,0.4
			c-0.285,1.01-0.335,2.041-0.201,3.009c0.137,0.971,0.644,1.894,1.226,2.671c1.194,1.571,3.019,2.587,5.202,2.813
			c3.612,0.303,6.987-1.587,7.57-3.937c0.053-0.15,0.098-0.309,0.113-0.464c0.129-0.815-0.14-1.664-0.788-2.484
			c-0.799-0.978-1.88-1.767-3.262-2.22c-1.145-0.372-2.365-0.388-3.478,0.023c-1.052,0.419-1.761,1.234-2.085,2.257
			c-0.063,0.208-0.021,0.43,0.113,0.604c0.045,0.313,0.126,0.619,0.369,0.88c0.675,0.783,1.954,0.891,2.85,0.356
			s1.065-1.519,0.372-2.283c-0.161-0.19-0.361-0.34-0.583-0.47c0.583-0.211,1.258-0.24,1.912-0.05
			c0.947,0.277,1.729,0.799,2.247,1.458c0.514,0.654,0.665,1.355,0.422,2.036c-0.503,1.798-2.869,3.132-5.513,2.813
			c-3.354-0.393-5.791-3.472-4.768-6.518c0.485-1.954,1.898-3.246,3.607-3.85c1.722-0.604,3.892-0.498,6.426,0.216
			c0.113,0.032,0.231,0.048,0.34,0.048l12.888,3.868c0.596,0.177,1.124,0.084,1.252-0.19c0.113-0.274-0.29-0.665-0.873-0.87
			l-12.907-4.466c-0.056-0.026-0.092-0.059-0.129-0.079c-2.479-0.902-4.311-2.086-5.389-3.597c-1.134-1.529-1.308-3.307-0.665-5.234
			c0.411-1.537,1.685-2.576,3.101-3.024c1.424-0.454,3.035-0.3,4.525,0.499c2.294,1.268,3.575,3.817,2.871,5.54
			c-0.306,0.627-0.759,1.155-1.542,1.387c-0.789,0.245-1.719,0.211-2.637-0.111c-0.643-0.229-1.17-0.638-1.532-1.168
			c0.253,0.026,0.506,0.021,0.738-0.037c1.015-0.221,1.35-1.173,1.015-2.085c-0.345-0.929-1.463-1.593-2.531-1.382
			c-0.335,0.068-0.649,0.242-0.833,0.485c-0.2,0.076-0.355,0.227-0.427,0.438c-0.322,1.015-0.161,2.122,0.427,3.074
			c0.602,0.949,1.582,1.65,2.756,2.017c1.392,0.443,2.813,0.472,3.973,0.119c1.004-0.29,1.648-0.847,2.051-1.571
			c0.093-0.129,0.153-0.269,0.216-0.414c0.469-1.157,0.19-2.587-0.485-3.981c-0.633-1.35-1.772-2.716-3.354-3.634
			c-1.912-1.091-4.098-1.426-5.896-0.788c-1.816,0.612-3.549,1.978-4.147,4.023c-0.034,0.146-0.066,0.28-0.098,0.422
			c-0.611-1.075-1.236-2.555-1.118-4.039c0.145-1.464,0.841-3.069,2.613-4.267c0.541-0.335,0.707-1.015,0.391-1.55
			c-0.335-0.541-1.026-0.702-1.582-0.356c-1.298,0.752-2.139,1.835-2.777,2.964c-0.578,1.163-1.015,2.36-0.917,3.71
			c-0.751-0.717-1.571-1.371-2.544-1.886c-2.057-1.109-4.659-0.593-7.059,0.045c-2.012,0.522-3.973,1.15-4.849,0.485
			c-0.706-0.535-0.653-1.345-0.355-2.979C14.768,47.841,15.135,45.945,13.795,45.238z M19.989,54.119
			c2.139-0.593,4.282-1.063,5.746-0.351c2.091,1.016,3.52,2.813,4.57,4.596c1.073,1.798,1.911,3.646,2.37,4.915l-4.369-1.513
			c0.166-2.001-0.973-4.113-2.932-4.962c-2.355-1.021-5.105,0.422-6.107,3.251c-0.896,2.858,0.62,5.693,3.087,6.21
			c2.133,0.472,4.261-0.599,5.245-2.365l4.427,1.334c-1.097,0.762-2.766,1.804-4.746,2.631c-2.03,0.804-4.147,1.469-6.465,1.057
			c-1.593-0.274-3.164-1.927-4.406-3.639c-1.562-2.02-2.964-4.142-5.05-4.192c-2.289-0.053-3.557,2.263-4.319,3.679
			c-0.134,0.329-0.334,0.788-0.367,0.983c-0.023,0.042-0.023,0.068,0,0.087c-1.497-0.24-2.28-4.646-0.643-10.051
			c0.939-2.639,2.138-4.812,3.343-6.188c1.242-1.355,2.365-1.976,2.953-1.749c0.032,0.177-0.098,0.831-0.169,1.263
			c-0.345,1.524-0.583,4.179,1.308,5.487C15.211,55.761,17.516,54.844,19.989,54.119z M25.924,62.192
			c-0.464,1.247-1.669,2.051-2.956,1.706c-1.236-0.33-2.046-1.78-1.547-3.159c0.496-1.382,1.901-2.122,3.109-1.664
			C25.755,59.548,26.373,60.939,25.924,62.192z"/>
		<path d="M46.47,13.205c-0.651-1.324-2.552-1.999-5.071-1.664c-1.236,0.179-2.649,0.577-4.163,1.187
			c-0.749,0.313-1.511,0.664-2.294,1.081c-0.751,0.453-1.495,0.968-2.252,1.519c-1.489,1.129-2.829,2.294-3.889,3.51
			c-1.016,1.258-1.814,2.505-2.36,3.649c-1.089,2.286-1.089,4.219,0,5.282c1.06,1.02,2.75,0.081,3.879-0.485
			c1.469-0.772,2.246-1.055,2.974-0.557c0.907,0.638,0.907,2.674,1.015,4.735c0.103,2.397,0.478,5.097,2.183,6.729
			c0.789,0.751,1.674,1.323,2.552,1.793c-2.418,0.825-4.493,2.7-5.168,5.592c-0.15,0.627,0.211,1.239,0.823,1.384
			c0.604,0.14,1.231-0.227,1.382-0.833c0.475-2.139,1.885-3.233,3.246-3.805c1.382-0.58,2.861-0.541,4.153-0.237
			c-0.129,0.073-0.253,0.14-0.379,0.213c-1.685,1.266-2.5,3.283-2.547,5.168c0.079,2.01,0.994,3.932,2.624,5.405
			c1.35,1.211,3.019,1.875,4.514,2.075c1.469,0.161,2.9-0.045,3.921-0.793c0.119-0.103,0.243-0.206,0.34-0.324
			c0.287-0.314,0.475-0.686,0.593-1.124c0.148-0.4,0.232-0.854,0.222-1.355c-0.011-1.2-0.464-2.54-1.311-3.715
			c-0.72-0.983-1.685-1.7-2.803-1.988c-1.097-0.279-2.247-0.124-3.08,0.53c-0.161,0.135-0.253,0.346-0.253,0.567
			c-0.129,0.285-0.237,0.599-0.195,0.955c0.113,1.055,1.091,1.906,2.112,1.978c1.015,0.087,1.664-0.696,1.632-1.664
			c-0.029-0.237-0.092-0.475-0.19-0.701c0.614,0.185,1.184,0.567,1.598,1.107c0.588,0.768,0.913,1.64,0.907,2.447
			c-0.005,0.785-0.222,1.521-0.788,1.948c-0.738,0.599-1.835,0.738-2.933,0.572c-1.083-0.146-2.268-0.665-3.222-1.577
			c-2.576-2.365-2.523-6.111-0.034-8.089c1.685-1.15,3.436-1.535,5.178-1.005c1.798,0.567,3.494,1.943,5.136,4.019
			c0.082,0.103,0.161,0.177,0.259,0.242l8.166,10.703c0.372,0.496,0.886,0.756,1.118,0.567c0.243-0.188,0.134-0.757-0.221-1.263
			l-7.815-11.19c-0.021-0.048-0.032-0.101-0.063-0.146c-3.035-4.379-3.024-8.234,0.285-10.691c1.308-0.87,2.868-1.107,4.271-0.659
			c1.453,0.52,2.668,1.627,3.425,3.159c0.562,1.189,0.707,2.473,0.527,3.565c-0.182,1.076-0.696,1.978-1.463,2.576
			c-0.562,0.408-1.29,0.475-2.088,0.182c-0.788-0.301-1.54-0.878-2.085-1.666c-0.372-0.557-0.583-1.227-0.562-1.864
			c0.19,0.174,0.401,0.324,0.633,0.422c0.949,0.422,1.835-0.021,2.067-1.031c0.232-0.999-0.274-2.183-1.236-2.597
			c-0.33-0.142-0.651-0.142-0.96-0.087c-0.211-0.066-0.433-0.042-0.612,0.082c-0.891,0.562-1.424,1.537-1.463,2.727
			c-0.053,1.155,0.34,2.31,1.055,3.277c0.862,1.171,1.991,1.999,3.109,2.35c0.983,0.355,1.89,0.388,2.626,0.021
			c0.134-0.071,0.274-0.15,0.398-0.242c0.994-0.814,1.696-1.901,1.962-3.462c0.253-1.511,0.113-3.314-0.611-4.973
			c-0.896-2.004-2.429-3.441-4.304-4.093c-1.911-0.751-3.941-0.292-5.729,0.805c-0.113,0.084-0.221,0.177-0.335,0.264
			c0.129-1.221,0.562-2.663,1.506-3.845c0.92-1.236,2.458-2.025,4.611-1.911c0.623,0.021,1.158-0.464,1.21-1.097
			c0.061-0.633-0.414-1.17-1.057-1.192c-1.453-0.045-2.813,0.214-3.997,0.728c-1.16,0.588-2.139,1.474-2.882,2.531
			c-0.174-0.996-0.454-2.006-0.947-2.99c-1.01-2.091-3.488-3.312-5.761-4.174c-1.912-0.72-3.839-1.312-4.169-2.381
			c-0.264-0.844,0.243-1.503,1.421-2.705C45.666,15.786,47.134,14.57,46.47,13.205z M42.863,15.333
			c-1.118,1.134-2.932,3.035-2.16,5.189c0.696,1.948,3.164,2.64,5.58,3.51c2.057,0.722,4.039,1.54,4.817,2.998
			c1.089,2.024,1.229,4.385,1.057,6.483c-0.145,2.139-0.696,3.932-1.004,5.313l-2.647-3.784c1.287-1.561,1.698-3.792,0.575-5.677
			c-0.659-1.084-1.746-1.78-3.014-1.985c-1.276-0.237-2.679,0.098-3.85,1.01c-1.194,0.881-1.94,2.104-2.151,3.319
			c-0.177,1.269,0.158,2.539,1.005,3.494c1.437,1.616,3.72,1.94,5.645,1.199l2.813,3.689c-1.395-0.092-3.388-0.272-5.405-0.686
			c-2.054-0.458-4.245-1.276-5.872-2.956c-1.128-1.171-1.339-3.336-1.414-5.529c-0.147-2.629,0-5.107-1.658-6.381
			c-1.891-1.453-4.163-0.24-5.566,0.496c-0.334,0.161-0.788,0.406-0.931,0.541c-0.031,0.026-0.047,0.053-0.042,0.068
			c-1.005-0.98,0.783-5.215,5.368-8.477c2.191-1.728,4.562-2.592,6.323-3.024c1.777-0.417,3.035-0.304,3.375,0.231
			C43.64,14.549,43.166,15.024,42.863,15.333z M46.34,34.032c-1.057,0.799-2.592,0.627-3.417-0.385
			c-0.815-1.013-0.551-2.553,0.62-3.434c1.173-0.88,2.724-0.68,3.462,0.433C47.701,31.709,47.411,33.228,46.34,34.032z"/>
		<path d="M62.514,25.175c-0.496,0.432-0.551,1.163-0.124,1.632c0.388,0.448,1.118,0.506,1.608,0.15
			c1.685-1.273,3.401-1.598,4.844-1.205c1.469,0.433,2.668,1.376,3.499,2.307c-0.146-0.01-0.28-0.016-0.419-0.028
			c-1.055,0.028-2.059,0.282-2.932,0.704c-0.865,0.517-1.605,1.21-2.162,2.004c-1.128,1.614-1.537,3.607-1.062,5.809
			c0.799,3.467,3.66,6.193,6.054,5.972c0.156,0.005,0.335,0,0.475-0.021c0.82-0.113,1.551-0.63,2.139-1.49
			c0.686-1.036,1.097-2.376,1.107-3.808c0.011-1.191-0.351-2.412-1.076-3.267c-0.728-0.852-1.727-1.313-2.808-1.3
			c-0.222,0-0.398,0.11-0.551,0.285c-0.285,0.124-0.562,0.308-0.738,0.604c-0.53,0.886-0.232,2.148,0.551,2.829
			c0.788,0.704,1.769,0.564,2.299-0.316c0.113-0.211,0.211-0.454,0.264-0.696c0.391,0.501,0.617,1.134,0.638,1.814
			c0.026,0.976-0.232,1.888-0.696,2.568c-0.47,0.675-1.092,1.039-1.809,1.018c-1.859,0.145-3.86-1.793-4.379-4.375
			c-0.644-3.267,1.505-6.604,4.735-6.518c2.015-0.113,3.684,0.754,4.791,2.246c1.094,1.475,1.68,3.562,1.77,6.205
			c0,0.119,0.039,0.237,0.076,0.34l0.309,13.45c0.011,0.627,0.274,1.113,0.562,1.086c0.301,0.031,0.562-0.459,0.562-1.086
			l0.264-13.645c0-0.053,0.021-0.103,0.021-0.15c0.107-2.637,0.653-4.735,1.761-6.212c0.562-0.738,1.237-1.316,2.044-1.738
			c0.802-0.409,1.708-0.53,2.721-0.525c3.254-0.105,5.4,3.23,4.772,6.497c-0.512,2.587-2.516,4.53-4.361,4.39
			c-0.706,0.021-1.339-0.334-1.813-1.01c-0.464-0.68-0.728-1.592-0.707-2.571c0.021-0.681,0.243-1.311,0.633-1.814
			c0.053,0.243,0.132,0.488,0.264,0.699c0.527,0.873,1.519,1.013,2.3,0.306c0.791-0.686,1.06-1.943,0.543-2.829
			c-0.18-0.303-0.443-0.48-0.744-0.604c-0.121-0.169-0.332-0.282-0.548-0.282c-1.065-0.006-2.067,0.453-2.784,1.312
			c-0.73,0.852-1.087,2.083-1.076,3.268c0.016,1.432,0.443,2.769,1.129,3.807c0.574,0.852,1.308,1.371,2.13,1.479
			c0.153,0.021,0.327,0.026,0.475,0.021c2.395,0.211,5.247-2.534,6.044-6.004c0.464-2.199,0.042-4.192-1.098-5.801
			c-0.559-0.794-1.292-1.479-2.156-1.999c-0.881-0.414-1.894-0.664-2.933-0.69c-0.137,0-0.3,0.031-0.427,0.031
			c0.839-0.928,2.02-1.877,3.485-2.314c1.467-0.401,3.164-0.087,4.857,1.181c0.501,0.354,1.207,0.293,1.608-0.155
			c0.411-0.47,0.354-1.2-0.147-1.624c-2.32-1.669-5.01-2.371-7.499-1.369c0.442-0.917,0.812-1.904,1.018-2.979
			c0.396-2.299-0.886-4.649-2.226-6.74c-1.123-1.813-2.336-3.369-1.972-4.432c0.295-0.849,1.081-1.124,2.721-1.302
			c1.239-0.156,3.159-0.361,3.428-1.852c0.253-1.479-0.907-3.029-3.133-4.316C86.416,0.822,83.12,0.163,79.383,0
			c-3.72,0.169-7.037,0.844-9.238,2.149c-2.215,1.297-3.365,2.848-3.111,4.327c0.266,1.484,2.17,1.69,3.43,1.846
			c1.635,0.169,2.423,0.443,2.721,1.287c0.355,1.062-0.839,2.618-1.949,4.442c-1.334,2.097-2.626,4.451-2.205,6.745
			c0.195,1.07,0.562,2.064,1.016,2.982C67.508,22.794,64.832,23.506,62.514,25.175z M79.394,23.171
			c-1.329,0.071-2.457-0.933-2.531-2.239c-0.076-1.297,1.052-2.415,2.521-2.486c1.464,0.066,2.593,1.179,2.545,2.479
			C81.868,22.232,80.729,23.237,79.394,23.171z M73.541,15.09c1.448-2.091,3.024-4.063,2.437-6.059
			c-0.654-2.178-3.256-2.777-4.817-2.966C70.82,6.022,70.3,5.962,70.124,5.99c-0.055,0.006-0.087,0.016-0.092,0.032
			c-0.103-0.696,0.793-1.706,2.463-2.397c1.661-0.699,4.071-1.245,6.864-1.345c2.784,0.089,5.196,0.625,6.863,1.294
			c1.661,0.67,2.589,1.638,2.584,2.247c-0.158,0.087-0.823,0.156-1.25,0.211c-1.551,0.201-4.147,0.804-4.791,2.988
			c-0.577,1.996,1.005,3.963,2.444,6.046c1.239,1.74,2.352,3.754,2.136,5.336c-0.322,2.32-1.582,4.164-2.953,5.777
			c-1.385,1.648-2.869,2.933-3.935,3.766l0.087-4.614c1.962-0.425,3.604-2.136,3.806-4.287c0.242-2.542-1.968-4.746-4.966-4.865
			c-2.987,0.129-5.199,2.35-4.946,4.883c0.211,2.16,1.896,3.886,3.871,4.282l0.108,4.633c-1.052-0.822-2.568-2.106-3.953-3.749
			c-1.392-1.624-2.666-3.465-3.008-5.798C71.223,18.857,72.32,16.833,73.541,15.09z"/>
		<path d="M111.259,21.65c-2.294,0.875-4.768,2.104-5.759,4.2c-0.475,0.978-0.76,1.988-0.928,2.992
			c-0.76-1.055-1.74-1.933-2.9-2.528c-1.192-0.506-2.553-0.762-4.008-0.707c-0.628,0.021-1.092,0.562-1.039,1.195
			c0.063,0.635,0.574,1.118,1.213,1.089c2.151-0.119,3.718,0.665,4.625,1.896c0.954,1.179,1.376,2.621,1.519,3.844
			c-0.121-0.084-0.211-0.182-0.338-0.264c-1.782-1.086-3.828-1.54-5.727-0.789c-1.883,0.665-3.423,2.102-4.309,4.111
			c-0.728,1.656-0.844,3.454-0.575,4.973c0.264,1.556,0.981,2.634,1.968,3.443c0.115,0.098,0.264,0.179,0.39,0.248
			c0.76,0.369,1.667,0.337,2.626-0.032c1.113-0.345,2.236-1.181,3.096-2.354c0.718-0.976,1.107-2.133,1.034-3.288
			c-0.043-1.187-0.57-2.154-1.461-2.716c-0.18-0.124-0.401-0.145-0.612-0.087c-0.316-0.053-0.633-0.053-0.965,0.093
			c-0.954,0.422-1.466,1.608-1.239,2.607c0.232,1.01,1.129,1.447,2.094,1.021c0.232-0.103,0.443-0.253,0.617-0.422
			c0.026,0.638-0.174,1.308-0.56,1.864c-0.537,0.788-1.266,1.365-2.066,1.674c-0.791,0.298-1.509,0.243-2.104-0.179
			c-0.77-0.588-1.25-1.485-1.461-2.563c-0.174-1.091-0.053-2.378,0.522-3.564c0.749-1.535,1.956-2.642,3.406-3.169
			c1.403-0.448,2.975-0.221,4.271,0.635c3.312,2.447,3.344,6.302,0.332,10.697c-0.068,0.103-0.115,0.211-0.147,0.324L95.096,56.95
			c-0.354,0.512-0.454,1.084-0.211,1.263c0.231,0.182,0.738-0.082,1.118-0.572l8.242-10.882c0.037-0.042,0.079-0.071,0.11-0.113
			c1.646-2.078,3.322-3.468,5.115-4.04c1.751-0.54,3.502-0.155,5.189,0.989c2.51,1.97,2.562,5.714,0,8.084
			c-0.955,0.917-2.131,1.442-3.212,1.593c-1.107,0.166-2.199,0.037-2.938-0.562c-0.569-0.428-0.801-1.155-0.801-1.957
			c-0.011-0.799,0.321-1.677,0.896-2.444c0.411-0.545,0.97-0.923,1.592-1.112c-0.1,0.227-0.168,0.464-0.179,0.707
			c-0.042,0.962,0.601,1.74,1.64,1.653c1.013-0.077,1.967-0.928,2.099-1.983c0.043-0.356-0.058-0.675-0.189-0.954
			c-0.011-0.222-0.095-0.433-0.264-0.567c-0.833-0.648-1.982-0.793-3.08-0.52c-1.107,0.293-2.088,1.016-2.795,1.999
			c-0.833,1.187-1.286,2.526-1.297,3.715c0.021,0.989,0.295,1.841,0.822,2.479c0.111,0.113,0.222,0.222,0.333,0.319
			c1.018,0.754,2.446,0.954,3.929,0.788c1.492-0.211,3.169-0.881,4.519-2.102c1.641-1.474,2.548-3.401,2.595-5.41
			c-0.053-1.88-0.886-3.895-2.573-5.157c-0.127-0.074-0.242-0.14-0.369-0.217c1.266-0.3,2.773-0.345,4.161,0.222
			c1.36,0.572,2.763,1.658,3.259,3.802c0.147,0.598,0.775,0.973,1.382,0.825c0.611-0.145,0.985-0.759,0.801-1.387
			c-0.686-2.895-2.758-4.756-5.188-5.579c0.896-0.469,1.761-1.041,2.552-1.804c1.704-1.629,2.094-4.329,2.152-6.731
			c0.11-2.069,0.11-4.095,1.012-4.735c0.738-0.509,1.493-0.222,2.985,0.543c1.139,0.562,2.811,1.498,3.876,0.475
			c1.092-1.067,1.081-3-0.016-5.278c-0.56-1.152-1.34-2.389-2.368-3.646c-1.055-1.221-2.404-2.376-3.907-3.494
			c-0.76-0.556-1.503-1.062-2.258-1.511c-0.78-0.417-1.55-0.772-2.299-1.07c-1.503-0.604-2.922-1.005-4.166-1.176
			c-2.531-0.335-4.419,0.351-5.062,1.68c-0.67,1.365,0.791,2.586,1.688,3.475c1.171,1.194,1.688,1.854,1.424,2.7
			C115.087,20.321,113.163,20.925,111.259,21.65z M115.911,15.206c-0.259-0.259-0.617-0.625-0.786-0.723
			c-0.053-0.026-0.074-0.031-0.09-0.026c0.338-0.638,1.593-0.81,3.37-0.427c1.756,0.39,4.145,1.241,6.339,2.969
			c4.608,3.251,6.391,7.475,5.6,8.397c-0.189-0.026-0.785-0.334-1.16-0.54c-1.429-0.723-3.718-1.928-5.584-0.475
			c-1.667,1.276-1.482,3.755-1.619,6.389c-0.09,2.191-0.29,4.364-1.419,5.529c-1.603,1.68-3.775,2.5-5.811,2.969
			c-1.999,0.427-3.981,0.612-5.374,0.715l2.784-3.684c1.909,0.712,4.182,0.377,5.601-1.237c0.828-0.962,1.182-2.225,1.002-3.494
			c-0.222-1.216-0.991-2.437-2.167-3.317c-1.177-0.902-2.579-1.234-3.855-0.992c-1.26,0.211-2.341,0.907-3.006,2.004
			c-1.118,1.894-0.696,4.146,0.617,5.706l-2.632,3.808c-0.326-1.387-0.864-3.175-1.028-5.318c-0.174-2.112-0.058-4.488,1.028-6.528
			c0.775-1.458,2.753-2.286,4.805-3.02c2.41-0.875,4.878-1.576,5.563-3.525C118.853,18.233,117.034,16.329,115.911,15.206z
			 M111.813,30.533c0.738-1.118,2.288-1.324,3.454-0.443c1.176,0.876,1.461,2.408,0.644,3.428c-0.812,1.016-2.357,1.195-3.423,0.401
			C111.438,33.109,111.127,31.596,111.813,30.533z"/>
		<path d="M139.145,51.366c-2.373-0.633-4.999-1.14-7.062-0.021c-0.959,0.517-1.776,1.171-2.521,1.891
			c0.111-1.35-0.332-2.544-0.928-3.699c-0.644-1.129-1.472-2.215-2.784-2.953c-0.564-0.348-1.256-0.18-1.582,0.355
			c-0.333,0.538-0.138,1.231,0.396,1.548c1.761,1.194,2.483,2.798,2.615,4.261c0.127,1.487-0.496,2.958-1.097,4.04
			c-0.042-0.14-0.074-0.274-0.105-0.422c-0.591-2.036-2.336-3.396-4.15-4c-1.804-0.628-4.003-0.293-5.906,0.81
			c-1.571,0.917-2.7,2.289-3.333,3.644c-0.675,1.395-0.938,2.827-0.464,3.977c0.058,0.145,0.116,0.29,0.211,0.422
			c0.422,0.717,1.055,1.273,2.057,1.558c1.165,0.34,2.589,0.314,3.986-0.134c1.16-0.372,2.136-1.068,2.732-2.025
			c0.59-0.959,0.738-2.067,0.422-3.077c-0.074-0.211-0.222-0.361-0.422-0.438c-0.19-0.242-0.501-0.411-0.844-0.485
			c-1.05-0.2-2.157,0.47-2.531,1.397c-0.333,0.913,0.01,1.864,1.018,2.081c0.242,0.053,0.495,0.063,0.743,0.037
			c-0.354,0.522-0.891,0.939-1.523,1.17c-0.918,0.33-1.872,0.364-2.637,0.124c-0.786-0.237-1.25-0.749-1.556-1.387
			c-0.712-1.717,0.563-4.271,2.853-5.545c1.487-0.799,3.101-0.963,4.524-0.509c1.43,0.448,2.689,1.474,3.111,3.008
			c0.644,1.917,0.485,3.699-0.644,5.231c-1.07,1.519-2.9,2.7-5.379,3.62c-0.11,0.042-0.221,0.104-0.306,0.167l-12.709,4.44
			c-0.591,0.211-1.002,0.599-0.87,0.873c0.121,0.271,0.654,0.364,1.239,0.185l13.067-3.958c0.063-0.01,0.111-0.005,0.148-0.021
			c2.541-0.726,4.693-0.839,6.434-0.237c1.703,0.593,3.116,1.882,3.617,3.833c1.039,3.056-1.397,6.127-4.735,6.539
			c-2.643,0.33-5.025-1.004-5.526-2.803c-0.232-0.675-0.085-1.384,0.422-2.035c0.506-0.659,1.302-1.189,2.235-1.463
			c0.659-0.195,1.329-0.174,1.914,0.042c-0.221,0.118-0.422,0.274-0.574,0.464c-0.686,0.772-0.522,1.756,0.374,2.283
			c0.896,0.535,2.184,0.417,2.858-0.361c0.232-0.269,0.338-0.572,0.358-0.883c0.111-0.18,0.164-0.396,0.105-0.606
			c-0.316-1.016-1.022-1.83-2.094-2.247c-1.091-0.411-2.325-0.388-3.475-0.01c-1.397,0.458-2.441,1.252-3.254,2.231
			c-0.644,0.819-0.928,1.669-0.791,2.489c0.031,0.15,0.074,0.308,0.121,0.458c0.586,2.36,3.966,4.229,7.578,3.921
			c2.173-0.237,4.003-1.258,5.189-2.834c0.559-0.783,1.064-1.704,1.218-2.674c0.132-0.973,0.084-2.004-0.222-3.014
			c-0.042-0.14-0.11-0.259-0.143-0.398c1.134,0.517,2.39,1.355,3.249,2.618c0.917,1.247,1.049,2.979,0.369,4.983
			c-0.206,0.578,0.105,1.237,0.686,1.479c0.585,0.242,1.233-0.032,1.455-0.636c0.938-2.734,0.718-5.487-0.986-7.554
			c1.013,0.145,2.062,0.187,3.144,0.042c2.314-0.314,4.16-2.273,5.737-4.19c1.397-1.622,2.437-3.241,3.597-3.235
			c0.854,0.021,1.45,0.686,2.109,2.186c0.521,1.142,1.286,2.895,2.789,2.684c1.487-0.216,2.61-1.788,3.175-4.303
			c0.454-2.483,0.232-5.914-0.886-9.487c-2.373-7.238-7.404-11.261-9.956-9.809c-1.329,0.714-0.955,2.603-0.733,3.852
			c0.312,1.63,0.349,2.444-0.337,2.979C143.126,52.5,141.17,51.877,139.145,51.366z M145.442,54.346
			c1.898-1.3,1.645-3.958,1.292-5.484c-0.074-0.351-0.164-0.854-0.254-1.034c-0.021-0.037-0.042-0.058-0.053-0.058
			c0.654-0.319,1.804,0.264,3.064,1.593c1.218,1.345,2.431,3.509,3.375,6.151c1.661,5.399,0.896,9.806-0.411,10.119
			c-0.122-0.129-0.386-0.735-0.564-1.128c-0.76-1.411-2.046-3.721-4.335-3.663c-2.088,0.061-3.48,2.183-5.031,4.208
			c-1.244,1.711-2.815,3.369-4.397,3.654c-2.31,0.417-4.398-0.227-6.418-1.021c-1.982-0.81-3.649-1.841-4.757-2.597l4.414-1.339
			c0.997,1.74,3.111,2.787,5.21,2.317c2.468-0.54,3.987-3.375,3.08-6.228c-1.013-2.819-3.776-4.261-6.123-3.228
			c-1.978,0.862-3.116,3-2.921,5.021l-4.388,1.529c0.453-1.263,1.276-3.122,2.368-4.937c1.038-1.793,2.468-3.617,4.577-4.643
			c1.466-0.715,3.617-0.256,5.748,0.334C141.391,54.617,143.711,55.529,145.442,54.346z M134.399,58.889
			c1.213-0.47,2.61,0.269,3.111,1.647c0.506,1.377-0.312,2.829-1.534,3.164c-1.282,0.351-2.495-0.448-2.953-1.698
			C132.564,60.75,133.17,59.357,134.399,58.889z"/>
	</g>
</g>
<g>
</g>
<g>
</g>
<g>
</g>
<g>
</g>
<g>
</g>
<g>
</g>
<g>
</g>
<g>
</g>
<g>
</g>
<g>
</g>
<g>
</g>
<g>
</g>
<g>
</g>
<g>
</g>
<g>
</g>
</svg>
