<?xml version="1.0" encoding="iso-8859-1"?>
<!-- Generator: Adobe Illustrator 16.0.0, SVG Export Plug-In . SVG Version: 6.00 Build 0)  -->
<!DOCTYPE svg PUBLIC "-//W3C//DTD SVG 1.1//EN" "http://www.w3.org/Graphics/SVG/1.1/DTD/svg11.dtd">
<svg version="1.1" id="Capa_1" xmlns="http://www.w3.org/2000/svg" xmlns:xlink="http://www.w3.org/1999/xlink" x="0px" y="0px"
	 width="219.046px" height="219.046px" viewBox="0 0 219.046 219.046" style="enable-background:new 0 0 219.046 219.046;"
	 xml:space="preserve">
<g>
	<g>
		<path d="M55.078,112.314c17.022,0,30.884-13.855,30.884-30.884S72.1,50.546,55.078,50.546c-17.017,0-30.884,13.856-30.884,30.884
			C24.187,98.458,38.049,112.314,55.078,112.314z M33.552,93.207l7.396-7.386l9.532,9.526l-7.45,7.45
			C39.033,100.541,35.772,97.234,33.552,93.207z M45.356,81.412l9.533-9.529l9.523,9.529l-9.523,9.526L45.356,81.412z
			 M55.078,106.079c-1.982,0-3.897-0.301-5.764-0.749l5.581-5.574l5.65,5.66C58.773,105.823,56.959,106.079,55.078,106.079z
			 M66.875,102.934l-7.578-7.581l9.523-9.526l7.636,7.629C74.207,97.448,70.909,100.714,66.875,102.934z M78.983,75.667
			c0.436,1.86,0.743,3.767,0.743,5.764c0,1.982-0.295,3.885-0.743,5.729l-5.748-5.748L78.983,75.667z M76.444,69.382l-7.624,7.621
			l-9.523-9.53l7.55-7.557C70.882,62.13,74.182,65.391,76.444,69.382z M55.078,56.781c1.875,0,3.69,0.256,5.443,0.649l-5.626,5.629
			l-5.542-5.541C51.192,57.074,53.086,56.781,55.078,56.781z M43.054,60.048l7.426,7.426l-9.532,9.53l-7.383-7.377
			C35.784,65.604,39.057,62.298,43.054,60.048z M30.422,81.43c0-1.891,0.256-3.705,0.648-5.468l5.456,5.456l-5.456,5.462
			C30.684,85.12,30.422,83.305,30.422,81.43z"/>
		<path d="M1.608,95.533c1.404,2.533,3.605,4.49,6.199,5.62c-1.029,2.637-1.215,5.584-0.411,8.36
			c0.624,2.119,1.75,4.049,3.297,5.584c1.945,1.954,4.445,3.227,7.139,3.647c0.423,2.679,1.69,5.176,3.642,7.136
			c1.546,1.553,3.486,2.691,5.599,3.301c2.762,0.785,5.764,0.633,8.37-0.396c1.133,2.594,3.09,4.798,5.611,6.181
			c4.333,2.417,9.989,2.016,13.904-0.841c2.208,1.602,4.844,2.472,7.651,2.472c1.352,0,2.667-0.279,3.946-0.693
			c1.124,14.267,7.907,26.926,18.121,35.762c0.143,0.134,0.305,0.273,0.448,0.414c0.268,0.219,0.523,0.444,0.804,0.657
			c12.254,10.814,30.083,18.45,53.387,19.51c2.43,0.116,4.78,0.158,7.069,0.158c31.585,0,49.091-10.132,58.34-18.968
			c9.226-8.835,14.322-20.112,14.322-31.755c0-1.724-1.4-3.118-3.118-3.118c-1.711,0-3.117,1.395-3.117,3.118
			c0,9.779-4.53,19.711-12.392,27.243c-9.036,8.646-26.999,18.614-60.824,17.092c-5.413-0.25-10.51-0.877-15.29-1.82
			c20.91-2.533,37.205-20.155,37.625-41.65c0.858,0.391,1.754,0.743,2.74,1.023c1.461,0.414,2.837,0.627,4.189,0.627
			c7.16,0,11.776-5.688,17.305-15.496c2.144-3.794,5.061-7.253,12.508-11.832c0.974-0.597,1.534-1.681,1.467-2.819
			c-0.073-1.145-0.725-2.161-1.76-2.648c-0.603-0.28-14.632-6.908-27.535-6.908c-12.294,0-17.695,5.946-20.076,11.657
			c-5.583-5.193-12.854-8.576-20.91-9.219c-0.475-2.244-1.559-4.326-3.227-6.004c-4.555-4.658-12.604-4.74-17.281-0.155
			c-4.789,4.726-4.847,12.468-0.131,17.272c2.311,2.356,5.392,3.659,8.704,3.659c3.228,0,6.248-1.242,8.537-3.501
			c1.425-1.4,2.399-3.094,3.002-4.933c14.657,1.249,26.244,13.445,26.244,28.431c0,20.186-16.429,36.62-36.614,36.62
			c-11.121,0-21.342-3.94-29.353-10.468c-11.375-10.156-17.199-23.278-17.199-36.078c0.755-0.919,1.446-1.899,1.927-2.983
			c2.618,1.029,5.611,1.188,8.382,0.39c2.131-0.621,4.064-1.76,5.587-3.301c1.958-1.948,3.242-4.444,3.666-7.136
			c2.707-0.427,5.176-1.687,7.146-3.66c1.547-1.559,2.695-3.489,3.273-5.583c0.816-2.783,0.648-5.73-0.387-8.37
			c2.594-1.133,4.802-3.09,6.199-5.623c1.071-1.928,1.632-4.104,1.632-6.303c-0.013-2.771-0.893-5.413-2.47-7.602
			c1.583-2.195,2.47-4.838,2.47-7.602c0.012-2.226-0.548-4.357-1.632-6.314c-1.403-2.533-3.605-4.491-6.199-5.624
			c1.035-2.64,1.203-5.587,0.399-8.382c-0.612-2.094-1.75-4.022-3.297-5.581c-1.945-1.964-4.448-3.225-7.14-3.647
			c-0.426-2.683-1.684-5.176-3.641-7.127c-1.546-1.559-3.425-2.673-5.599-3.315c-2.737-0.792-5.751-0.63-8.357,0.399
			c-1.132-2.582-3.093-4.783-5.611-6.187c-4.308-2.399-9.989-2.007-13.905,0.837c-3.934-2.837-9.521-3.254-13.904-0.843
			c-2.53,1.397-4.485,3.599-5.611,6.187c-2.63-1.029-5.663-1.185-8.37-0.387c-2.107,0.59-4.04,1.738-5.599,3.303
			c-1.958,1.958-3.23,4.451-3.653,7.128c-2.694,0.429-5.164,1.689-7.14,3.653c-1.546,1.559-2.694,3.486-3.297,5.587
			c-0.804,2.782-0.625,5.729,0.411,8.369c-2.594,1.133-4.807,3.091-6.199,5.63c-1.096,1.97-1.644,4.098-1.62,6.29
			c0,2.771,0.865,5.425,2.463,7.614c-1.599,2.195-2.463,4.85-2.463,7.639C-0.005,91.462,0.531,93.575,1.608,95.533z
			 M122.131,113.757c-2.259,2.234-6.199,2.204-8.439-0.085c-2.305-2.345-2.26-6.135,0.079-8.449c1.12-1.105,2.606-1.708,4.189-1.708
			c1.607,0,3.13,0.637,4.274,1.797c1.12,1.132,1.717,2.643,1.705,4.238C123.91,111.139,123.276,112.643,122.131,113.757z
			 M156.024,119.962c1.924-6.205,6.783-9.219,14.845-9.219c7.015,0,14.681,2.338,19.613,4.158c-4.445,3.318-7.41,6.638-9.736,10.76
			c-6.187,10.997-9.012,13.457-14.37,11.941c-2.442-0.683-4.031-1.809-4.805-3.338c-0.67-1.382-0.634-2.922-0.438-4.092
			c3.708-8.816,10.352-8.658,10.735-8.615c1.668,0.097,3.203-1.164,3.318-2.869c0.134-1.711-1.157-3.215-2.862-3.354
			c-0.432-0.024-9.042-0.561-14.845,8.385c-0.269-0.152-0.512-0.347-0.7-0.627C155.957,121.978,155.902,120.382,156.024,119.962z
			 M8.675,79.195c-1.559-1.288-2.451-3.185-2.451-5.231c-0.012-1.132,0.268-2.231,0.84-3.254c1.148-2.083,3.349-3.422,5.736-3.498
			l6.902-0.21l-4.737-5.039c-1.66-1.753-2.238-4.259-1.596-6.54c0.317-1.111,0.911-2.092,1.702-2.908
			c1.291-1.285,3.005-1.988,4.832-1.988l4.36,0.362l-0.356-3.736c-0.195-2.015,0.511-3.985,1.945-5.425
			c0.816-0.81,1.814-1.404,2.911-1.714c2.253-0.655,4.808-0.052,6.537,1.583l5.048,4.776l0.213-6.947
			c0.082-2.387,1.422-4.588,3.492-5.742c2.825-1.547,6.479-0.822,8.509,1.607l2.402,2.896l2.405-2.896
			c2.028-2.454,5.751-3.13,8.482-1.607c2.095,1.16,3.435,3.355,3.504,5.736l0.173,6.948l5.063-4.759
			c1.738-1.632,4.314-2.244,6.515-1.607c1.142,0.335,2.128,0.917,2.944,1.738c1.428,1.428,2.143,3.404,1.952,5.444l-0.35,3.742
			l4.384-0.387c1.802,0,3.504,0.703,4.783,1.976c0.816,0.832,1.41,1.815,1.72,2.914c0.648,2.326,0.067,4.768-1.595,6.54
			l-4.741,5.045l6.896,0.21c2.408,0.07,4.591,1.409,5.757,3.498c0.561,1.017,0.84,2.11,0.84,3.273c0,2.034-0.91,3.937-2.457,5.221
			l-2.911,2.399l2.911,2.402c1.546,1.291,2.457,3.19,2.469,5.206c0,1.139-0.292,2.274-0.853,3.273
			c-1.166,2.083-3.361,3.428-5.757,3.499l-6.896,0.213l4.747,5.036c1.65,1.748,2.244,4.253,1.583,6.546
			c-0.305,1.09-0.911,2.094-1.696,2.898c-1.291,1.284-2.986,1.99-4.813,1.99l-4.348-0.359l0.351,3.721
			c0.173,2.034-0.536,4.013-1.976,5.45c-0.792,0.815-1.766,1.388-2.886,1.711c-2.277,0.651-4.808,0.042-6.549-1.589l-5.051-4.744
			l-0.198,6.918c-0.082,2.393-1.422,4.585-3.504,5.735c-2.776,1.553-6.442,0.841-8.5-1.632l-2.399-2.88l-2.387,2.898
			c-2.034,2.454-5.675,3.173-8.5,1.602c-2.083-1.146-3.41-3.343-3.499-5.736l-0.204-6.941l-5.057,4.773
			c-1.741,1.638-4.277,2.229-6.53,1.596c-1.121-0.329-2.095-0.901-2.911-1.711c-1.434-1.431-2.146-3.423-1.958-5.45l-0.292-3.689
			l-3.717,0.334c-1.827,0-3.529-0.706-4.82-1.996c-0.804-0.799-1.403-1.803-1.702-2.905c-0.648-2.28-0.052-4.786,1.595-6.533
			l4.777-5.063l-6.941-0.186c-2.387-0.064-4.588-1.397-5.736-3.48c-0.56-1.017-0.84-2.119-0.84-3.279
			c0-2.04,0.892-3.946,2.451-5.231l2.898-2.402L8.675,79.195z"/>
	</g>
</g>
<g>
</g>
<g>
</g>
<g>
</g>
<g>
</g>
<g>
</g>
<g>
</g>
<g>
</g>
<g>
</g>
<g>
</g>
<g>
</g>
<g>
</g>
<g>
</g>
<g>
</g>
<g>
</g>
<g>
</g>
</svg>
