<?xml version="1.0" encoding="iso-8859-1"?>
<!-- Generator: Adobe Illustrator 16.0.0, SVG Export Plug-In . SVG Version: 6.00 Build 0)  -->
<!DOCTYPE svg PUBLIC "-//W3C//DTD SVG 1.1//EN" "http://www.w3.org/Graphics/SVG/1.1/DTD/svg11.dtd">
<svg version="1.1" id="Capa_1" xmlns="http://www.w3.org/2000/svg" xmlns:xlink="http://www.w3.org/1999/xlink" x="0px" y="0px"
	 width="190.845px" height="190.845px" viewBox="0 0 190.845 190.845" style="enable-background:new 0 0 190.845 190.845;"
	 xml:space="preserve">
<g>
	<g>
		<path d="M186.091,92.238c-4.883-5.794-11.703-8.293-15.095-5.45c-1.675,1.413-0.919,3.392-0.384,4.832
			c0.658,1.751,0.993,2.923,0.055,4.064c-1.114,1.379-3.951,1.647-6.947,1.928c-3.459,0.329-7.374,0.685-10.06,2.965
			c-7.276,6.12-7.191,16.69-6.789,21.221c-3.337,0.402-7.271,0.256-11.953-0.164c5.943-2.338,9.84-7.009,10.997-13.701
			c0.14-0.852-0.427-1.656-1.272-1.802c-0.835-0.171-1.663,0.42-1.803,1.267c-1.468,8.531-8.123,13.043-18.353,12.848
			c-0.104,0-0.152,0.092-0.25,0.109c-0.401-0.072-0.798-0.109-1.205-0.151c-3.733-0.585-7.618-1.133-11.515-1.364
			c-0.269-0.061-0.506-0.134-0.779-0.195c-0.244-0.061-0.433,0.073-0.658,0.129c-4.975-0.171-9.953,0.34-14.659,2.295
			c-4.707-1.961-9.685-2.473-14.672-2.295c-0.22-0.067-0.411-0.178-0.655-0.129c-0.274,0.062-0.512,0.135-0.779,0.195
			c-3.897,0.231-7.782,0.779-11.512,1.364c-0.411,0.061-0.81,0.109-1.221,0.151c-0.088-0.018-0.143-0.097-0.238-0.109
			c-10.227,0.28-16.885-4.299-18.35-12.848c-0.149-0.847-0.965-1.438-1.802-1.267c-0.846,0.146-1.422,0.95-1.273,1.802
			c1.16,6.692,5.051,11.363,10.994,13.701c-4.683,0.42-8.616,0.584-11.953,0.164c0.405-4.549,0.481-15.101-6.789-21.221
			c-2.694-2.262-6.61-2.636-10.06-2.965c-2.999-0.28-5.836-0.548-6.944-1.928c-0.935-1.172-0.606-2.308,0.055-4.064
			c0.536-1.44,1.285-3.443-0.387-4.832c-3.379-2.843-10.211-0.344-15.089,5.45c-5.015,5.958-6.241,12.899-2.792,15.798
			c1.358,1.146,3.215,0.512,4.832-0.438c1.327-0.786,2.655-1.504,3.994-0.749c1.541,0.864,2.29,3.604,3.081,6.509
			c0.911,3.355,1.946,7.148,4.64,9.42c3.361,2.826,7.794,4.281,13.167,4.281c5.913,0,10.827-1.76,11.031-1.846
			c0.207-0.072,0.369-0.207,0.518-0.371c4.957,0.713,10.595,0.158,16.648-0.433c2.752-0.28,5.568-0.7,8.418-1.157
			c0.381-0.061,0.755-0.115,1.136-0.158c-3.797,2.838-6.117,6.723-6.753,11.436c-1.921-2.526-4.89-4.737-9.191-4.737
			c-1.727,0-3.593,0.354-5.544,1.048c-9.514,3.367-10.467,11.459-8.915,26.171c0.542,5.328,0.067,10.839-4.016,20.466
			c-0.042,0.098-0.019,0.195-0.042,0.305c-0.021,0.104-0.034,0.158-0.034,0.262c-0.012,0.377,0.058,0.719,0.289,1.011l0,0v0.006
			c0.305,0.39,0.758,0.585,1.215,0.585c0.088,0,0.174-0.006,0.268-0.024c1.172-0.188,28.933-5.183,37.768-19.882
			c2.923-4.865,3.453-10.266,1.571-15.983c-0.81-2.497-4.329-6.126-8.58-6.126c-0.63,0-1.236,0.177-1.845,0.341
			c-0.295-8.22,4.743-13.871,14.209-16.032c4.064-0.226,8.05,0.024,11.846,1.156c-1.857,1.17-3.684,2.491-5.404,4.287
			c-4.561,4.731-6.823,10.82-6.366,17.195c0.49,7.021,4.232,13.738,10.263,18.438c0.286,0.22,0.621,0.341,0.959,0.341
			c0.459,0,0.922-0.207,1.227-0.615c0.53-0.663,0.405-1.668-0.268-2.191c-5.331-4.165-8.634-10.054-9.073-16.197
			c-0.387-5.48,1.568-10.741,5.508-14.809c2.177-2.254,4.503-3.824,6.92-5.018c2.415,1.175,4.741,2.758,6.902,5.018
			c3.945,4.067,5.895,9.328,5.511,14.809c-0.433,6.125-3.745,12.032-9.07,16.197c-0.679,0.523-0.798,1.51-0.268,2.191
			c0.305,0.391,0.767,0.615,1.221,0.615c0.344,0,0.673-0.121,0.962-0.341c6.022-4.7,9.762-11.417,10.261-18.438
			c0.444-6.362-1.814-12.464-6.369-17.195c-1.724-1.784-3.544-3.123-5.401-4.287c3.803-1.132,7.794-1.376,11.855-1.15
			c9.457,2.174,14.486,7.812,14.194,16.026c-0.615-0.146-1.218-0.341-1.852-0.341c-4.244,0-7.764,3.629-8.586,6.119
			c-1.881,5.742-1.352,11.125,1.571,15.99c8.842,14.699,36.596,19.693,37.777,19.882c0.098,0.019,0.183,0.024,0.268,0.024
			c0.013,0,0.024,0,0.037,0c0.414-0.019,0.821-0.226,1.132-0.561c0.013-0.019,0.037-0.006,0.055-0.024
			c0.049-0.061,0.019-0.14,0.062-0.213c0.158-0.231,0.365-0.45,0.365-0.761c0-0.385-0.134-0.725-0.378-1.006
			c-3.927-9.383-4.384-14.809-3.848-20.063c1.553-14.705,0.603-22.804-8.915-26.177c-1.942-0.694-3.817-1.048-5.547-1.048
			c-4.299,0-7.271,2.204-9.195,4.737c-0.639-4.713-2.965-8.598-6.752-11.436c0.383,0.067,0.755,0.122,1.139,0.158
			c2.85,0.439,5.662,0.877,8.421,1.157c6.053,0.609,11.691,1.163,16.647,0.433c0.146,0.146,0.311,0.299,0.518,0.371
			c0.207,0.086,5.115,1.846,11.034,1.846c5.37,0,9.803-1.438,13.164-4.281c2.704-2.265,3.739-6.064,4.646-9.42
			c0.785-2.904,1.54-5.645,3.081-6.516c1.327-0.73,2.661-0.03,3.988,0.756c1.62,0.938,3.483,1.589,4.841,0.438
			C192.333,105.144,191.109,98.196,186.091,92.238z M31.659,123.917c-4.619,0-8.373-1.182-11.168-3.531
			c-1.951-1.639-2.804-4.799-3.635-7.843c-0.965-3.557-1.875-6.924-4.564-8.415c-0.88-0.5-1.802-0.743-2.737-0.743
			c-1.756,0-3.2,0.847-4.351,1.522c-0.463,0.268-1.166,0.67-1.248,0.742c-1.784-1.498-0.917-6.563,3.172-11.411
			c3.249-3.861,6.872-5.587,9.024-5.587c0.697,0,1.267,0.167,1.589,0.38c0.03,0.244-0.256,0.996-0.441,1.501
			c-0.676,1.791-1.684,4.516,0.441,7.134c1.939,2.398,5.407,2.722,9.079,3.068c3.142,0.293,6.396,0.598,8.342,2.223
			c5.9,4.969,6.025,13.999,5.718,18.207c-2.929-0.847-5.349-2.424-7.395-5.061c1.86-2.594,1.623-6.198-0.798-8.427
			c-2.505-2.29-6.765-2.095-9.061,0.414c-1.16,1.261-1.75,2.898-1.678,4.609c0.076,1.698,0.813,3.276,2.077,4.444
			c1.188,1.091,2.725,1.688,4.329,1.688c0.99,0,1.934-0.274,2.804-0.694c1.915,2.43,4.141,4.043,6.61,5.121
			C36.049,123.612,33.954,123.917,31.659,123.917z M26.124,114.868c-0.648-0.596-1.029-1.412-1.069-2.283
			c-0.037-0.883,0.268-1.717,0.862-2.368c0.63-0.676,1.516-1.078,2.445-1.078c0.822,0,1.607,0.305,2.219,0.858
			c1.34,1.23,1.434,3.325,0.213,4.664C29.613,115.952,27.426,116.068,26.124,114.868z M70.705,159.501l-6.366-12.202
			c0.429-1.279,0.691-2.527,0.81-3.758l7.794,11.125c0.082,0.135,0.237,0.11,0.344,0.177c-0.369,1.108-0.855,2.192-1.492,3.246
			C71.497,158.607,71.046,159.033,70.705,159.501z M42.963,139.03l19.086,2.198c0.189,1.304,0.058,2.728-0.356,4.238l-19.921-2.083
			C41.998,141.642,42.415,140.248,42.963,139.03z M60.597,148.481c-0.566,1.248-1.248,2.526-2.058,3.83l-16.885-1.018
			c-0.101-1.777-0.119-3.349-0.079-4.798L60.597,148.481z M53.768,158.875l-11.566-0.371c-0.036-0.609-0.042-1.249-0.097-1.815
			c-0.088-0.815-0.125-1.491-0.195-2.252l14.604,0.883C55.659,156.506,54.743,157.687,53.768,158.875z M47.81,165.53l-5.913-0.292
			c0.195-1.304,0.28-2.484,0.326-3.617l8.951,0.292C50.078,163.143,48.949,164.367,47.81,165.53z M41.279,168.331l3.55,0.158
			c-1.717,1.682-3.38,3.228-4.926,4.58C40.463,171.406,40.951,169.78,41.279,168.331z M46.872,170.882l-0.511,3.093
			c-1.464,0.445-2.844,0.841-4.083,1.17C43.642,173.92,45.201,172.471,46.872,170.882z M50.547,167.205
			c0.947-0.986,1.9-2.021,2.85-3.069l0.322,7.148c-1.364,0.561-2.7,1.084-4.016,1.547l0.898-5.419
			C50.614,167.338,50.547,167.272,50.547,167.205z M56.356,160.634c0.712-0.889,1.416-1.766,2.077-2.661l2.42,9.688
			c0.012,0.067,0.067,0.092,0.088,0.135c-1.355,0.768-2.752,1.461-4.165,2.143L56.356,160.634z M60.789,154.533
			c0.743-1.175,1.397-2.325,1.985-3.501l5.791,11.088c-1.434,1.426-3.118,2.729-4.893,3.922L60.789,154.533z M48.955,133.769
			c1.617-0.572,3.13-0.883,4.503-0.883c4.247,0,6.561,2.831,7.739,5.078l-16.258-1.876
			C46.001,135.115,47.323,134.347,48.955,133.769z M73.068,144.706c0.685,2.082,0.922,4.055,0.874,5.967l-6.929-9.889
			c0.152-0.012,0.295-0.073,0.444-0.073C70.249,140.729,72.632,143.36,73.068,144.706z M147.864,139.03
			c0.548,1.218,0.969,2.612,1.188,4.348l-19.918,2.083c-0.414-1.517-0.548-2.96-0.358-4.263L147.864,139.03z M119.038,158.131
			c-0.646-1.077-1.132-2.161-1.498-3.251c0.11-0.104,0.263-0.079,0.354-0.183l7.794-11.107c0.128,1.193,0.384,2.454,0.811,3.727
			l-6.37,12.215C119.775,159.033,119.331,158.613,119.038,158.131z M128.05,151.043c0.59,1.17,1.242,2.326,1.979,3.496
			l-2.887,11.539c-1.771-1.182-3.452-2.467-4.889-3.916L128.05,151.043z M129.968,167.661l2.43-9.693
			c0.657,0.901,1.363,1.778,2.076,2.667l-0.427,9.311c-1.412-0.657-2.807-1.37-4.171-2.149
			C129.901,167.752,129.95,167.728,129.968,167.661z M143.011,165.53c-1.139-1.169-2.26-2.387-3.361-3.617l8.963-0.292
			c0.043,1.127,0.134,2.313,0.323,3.617L143.011,165.53z M148.722,156.695c-0.055,0.566-0.061,1.199-0.097,1.809l-11.563,0.371
			c-0.975-1.169-1.894-2.368-2.746-3.556l14.613-0.883C148.844,155.197,148.808,155.873,148.722,156.695z M137.427,164.135
			c0.943,1.048,1.899,2.083,2.85,3.069c0,0.085-0.067,0.134-0.055,0.207l0.901,5.425c-1.315-0.462-2.655-0.986-4.02-1.553
			L137.427,164.135z M143.955,170.882c1.675,1.607,3.233,3.038,4.598,4.28c-1.236-0.334-2.618-0.725-4.086-1.169L143.955,170.882z
			 M145.989,168.52l3.55-0.171c0.329,1.431,0.815,3.057,1.376,4.756C149.375,171.716,147.718,170.182,145.989,168.52z
			 M149.179,151.293l-16.885,1.018c-0.811-1.304-1.492-2.582-2.059-3.83l19.028-1.979
			C149.301,147.945,149.283,149.516,149.179,151.293z M123.374,140.729c0.14,0,0.298,0.049,0.444,0.073l-6.936,9.9
			c-0.049-1.924,0.188-3.896,0.877-5.991C118.192,143.36,120.579,140.729,123.374,140.729z M137.373,132.911
			c1.376,0,2.88,0.292,4.506,0.864c1.632,0.591,2.953,1.358,4.024,2.351L129.669,138
			C130.851,135.73,133.165,132.911,137.373,132.911z M187.036,105.6c-0.25-0.006-0.944-0.407-1.419-0.688
			c-1.157-0.664-2.594-1.522-4.348-1.522c-0.938,0-1.863,0.256-2.734,0.743c-2.697,1.485-3.604,4.853-4.566,8.428
			c-0.834,3.044-1.693,6.204-3.642,7.842c-2.789,2.351-6.546,3.538-11.161,3.538c-2.296,0-4.391-0.311-6.107-0.651
			c2.472-1.072,4.688-2.71,6.612-5.109c0.871,0.408,1.815,0.683,2.795,0.683c1.608,0,3.143-0.597,4.336-1.681
			c2.6-2.393,2.776-6.448,0.396-9.061c-2.302-2.509-6.552-2.722-9.072-0.408c-2.418,2.211-2.649,5.827-0.792,8.434
			c-2.04,2.631-4.463,4.214-7.398,5.061c-0.311-4.208-0.188-13.238,5.718-18.213c1.948-1.645,5.194-1.942,8.336-2.234
			c3.672-0.354,7.143-0.658,9.085-3.048c2.125-2.64,1.108-5.331,0.438-7.146c-0.183-0.5-0.469-1.267-0.529-1.361
			c1.687-1.397,6.394-0.043,10.704,5.069C187.791,99.104,188.662,104.151,187.036,105.6z M160.03,114.661
			c-1.224-1.339-1.132-3.434,0.207-4.664c0.615-0.554,1.407-0.858,2.217-0.858c0.938,0,1.809,0.378,2.448,1.078
			c1.218,1.339,1.139,3.428-0.207,4.651c-0.609,0.561-1.413,0.865-2.229,0.865C161.534,115.733,160.669,115.343,160.03,114.661z"/>
		<path d="M48.333,100.735c0.335,0.086,0.673,0.122,1.014,0.122c2.195,0,4.055-1.491,4.533-3.626c0.082-0.368,0.034-0.7,0.034-1.054
			c3.029-1.172,5.891-0.194,9.663,2.053c-2.539,0.271-4.801,1.446-6.634,3.479c-0.362-0.177-0.707-0.384-1.118-0.48
			c-2.469-0.549-4.987,1.059-5.547,3.513c-0.569,2.484,1.014,4.993,3.522,5.565c0.329,0.08,0.673,0.116,1.014,0.116
			c2.159,0,4.068-1.522,4.534-3.63c0.213-0.938,0.045-1.875-0.311-2.746c3.696-4.359,8.723-2.618,11.441-1.12
			c0.042,0.024,0.094-0.006,0.137,0.019c0.167,0.128,0.338,0.231,0.506,0.359c0.243,0.17,0.505,0.354,0.749,0.535
			c-2.377,0.359-4.491,1.547-6.229,3.459c-0.356-0.177-0.7-0.39-1.099-0.475c-2.451-0.53-5.011,1.09-5.553,3.507
			c-0.277,1.206-0.064,2.466,0.603,3.501c0.667,1.054,1.702,1.778,2.92,2.047c0.335,0.079,0.679,0.115,1.023,0.115
			c2.201,0,4.059-1.485,4.524-3.629c0.219-0.926,0.052-1.875-0.311-2.74c3.711-4.359,8.729-2.618,11.448-1.108
			c0.119,0.062,0.25,0.013,0.374,0.036c2.29,1.048,4.701,1.815,7.365,1.815c1.665,0,3.41-0.269,5.255-0.896
			c1.172-0.384,2.226-0.956,3.224-1.613c0.993,0.651,2.046,1.211,3.218,1.613c1.845,0.627,3.589,0.896,5.255,0.896
			c2.661,0,5.066-0.768,7.368-1.815c0.134-0.023,0.262,0.025,0.383-0.036c2.723-1.51,7.746-3.251,11.448,1.108
			c-0.365,0.883-0.523,1.803-0.311,2.729c0.463,2.155,2.332,3.641,4.524,3.641c0.347,0,0.682-0.036,1.017-0.115
			c1.218-0.269,2.259-0.993,2.929-2.047c0.657-1.053,0.883-2.295,0.609-3.501c-0.549-2.441-3.088-4.043-5.565-3.513
			c-0.396,0.091-0.743,0.298-1.103,0.48c-1.735-1.924-3.849-3.117-6.224-3.471c0.244-0.17,0.506-0.359,0.743-0.529
			c0.165-0.129,0.341-0.226,0.506-0.359c0.042-0.024,0.104,0.006,0.134-0.019c2.722-1.492,7.745-3.245,11.441,1.12
			c-0.365,0.883-0.523,1.809-0.316,2.74c0.469,2.113,2.381,3.642,4.542,3.642c0.341,0,0.676-0.036,1.018-0.128
			c2.509-0.566,4.085-3.051,3.513-5.565c-0.554-2.466-3.026-4.05-5.547-3.514c-0.402,0.098-0.755,0.316-1.114,0.487
			c-1.833-2.01-4.092-3.209-6.631-3.48c3.769-2.241,6.631-3.224,9.669-2.052c0,0.347-0.055,0.679,0.024,1.047
			c0.476,2.14,2.345,3.632,4.543,3.632c0.335,0,0.676-0.036,1.022-0.116c1.206-0.279,2.235-1.01,2.905-2.058
			c0.663-1.047,0.889-2.29,0.614-3.498c-0.535-2.451-3.166-4.053-5.547-3.529c-1.011,0.219-1.833,0.828-2.484,1.595
			c-5.596-2.144-10.522,1.011-16.16,4.701c-0.908,0.603-1.803,1.254-2.71,1.924c0.651-2.634,0.219-5.364-1.34-8.041
			c-0.433-0.746-1.389-0.977-2.131-0.56c-0.743,0.417-0.993,1.397-0.555,2.131c2.898,4.966-0.177,8.912-2.63,11.043
			c-3.903,2.326-7.962,3.678-12.846,2.046c-0.615-0.195-1.184-0.469-1.732-0.768c0.993-1.071,1.845-2.259,2.451-3.642
			c1.626-3.76,1.522-8.181-0.231-12.239c1.166-0.779,2.201-1.708,2.887-2.938c1.729,1.285,3.845,1.903,6.141,1.711
			c1.492-0.158,2.923-0.682,4.135-1.516c1.692-1.172,2.904-2.874,3.465-4.807c1.997,0.18,4.03-0.381,5.729-1.522
			c1.224-0.828,2.217-1.97,2.893-3.315c0.986-1.979,1.175-4.26,0.597-6.342c2.168-0.313,4.135-1.416,5.517-3.118
			c0.962-1.153,1.596-2.487,1.869-4.003c0.384-2.021,0.037-4.071-0.943-5.849c1.547-1.303,2.605-3.105,2.996-5.151
			c0.262-1.47,0.146-2.962-0.329-4.363c-0.713-2.141-2.155-3.842-4.037-4.89c1.297-1.727,1.93-3.928,1.698-6.11
			c-0.134-1.471-0.657-2.917-1.51-4.116c-1.169-1.702-2.861-2.923-4.811-3.504c0.171-2.012-0.353-4.034-1.522-5.749
			c-0.858-1.221-1.997-2.207-3.318-2.874c-1.948-0.974-4.263-1.184-6.339-0.605c-0.316-2.144-1.412-4.132-3.117-5.56
			c-1.169-0.944-2.509-1.559-3.988-1.836c-2.064-0.365-4.107-0.019-5.864,0.944c-1.303-1.553-3.105-2.606-5.133-2.981
			c-1.489-0.268-2.975-0.167-4.415,0.293c-2.088,0.703-3.821,2.195-4.874,4.046c-1.748-1.291-4.016-1.945-6.117-1.689
			c-1.528,0.131-2.92,0.648-4.123,1.498c-1.708,1.172-2.932,2.875-3.498,4.813c-2.04-0.195-4.052,0.375-5.724,1.513
			c-1.224,0.831-2.22,1.973-2.893,3.325c-0.993,1.97-1.178,4.253-0.6,6.33c-2.159,0.316-4.123,1.428-5.511,3.118
			c-0.926,1.09-1.574,2.469-1.885,4.028c-0.368,2.013-0.012,4.071,0.953,5.849c-1.532,1.291-2.594,3.094-2.981,5.112
			c-0.286,1.498-0.179,2.986,0.308,4.42c0.709,2.083,2.177,3.809,4.052,4.883c-1.297,1.721-1.933,3.922-1.708,6.123
			c0.162,1.482,0.685,2.917,1.517,4.116c1.172,1.687,2.874,2.904,4.819,3.471c-0.177,2.016,0.347,4.028,1.513,5.73
			c0.837,1.23,1.945,2.208,3.325,2.919c1.945,0.941,4.259,1.166,6.33,0.585c0.311,2.14,1.407,4.128,3.118,5.532
			c1.145,0.935,2.518,1.577,3.988,1.857c2.064,0.375,4.116,0.012,5.855-0.941c0.587,0.685,1.297,1.254,2.064,1.72
			c-1.678,4.016-1.763,8.375-0.155,12.066c0.6,1.389,1.458,2.569,2.451,3.641c-0.548,0.293-1.118,0.579-1.727,0.779
			c-4.883,1.633-8.942,0.281-12.833-2.045c-2.457-2.132-5.544-6.087-2.636-11.043c0.435-0.734,0.186-1.69-0.557-2.131
			c-0.755-0.429-1.702-0.195-2.131,0.56c-1.559,2.676-1.988,5.407-1.333,8.041c-0.904-0.646-1.809-1.321-2.713-1.924
			c-5.62-3.69-10.537-6.82-16.151-4.701c-0.648-0.768-1.483-1.376-2.487-1.596c-2.445-0.523-5.012,1.084-5.547,3.517
			c-0.277,1.203-0.064,2.463,0.603,3.504C46.081,99.718,47.116,100.467,48.333,100.735z M54.815,107.269l-0.329-0.036
			c-0.828-0.184-1.352-0.999-1.172-1.827c0.155-0.683,0.737-1.175,1.72-1.175c0.037,0,0.076,0,0.113,0
			c0.399,0.109,0.743,0.328,0.965,0.663c0.219,0.359,0.289,0.755,0.201,1.169C56.158,106.77,55.528,107.269,54.815,107.269z
			 M63.535,112.84l-0.344-0.036c-0.398-0.092-0.743-0.335-0.959-0.67c-0.219-0.347-0.289-0.743-0.201-1.157
			c0.149-0.657,0.743-1.163,1.726-1.163c0.034,0,0.07,0,0.106,0c0.393,0.085,0.737,0.329,0.953,0.651
			c0.219,0.354,0.289,0.756,0.201,1.176C64.863,112.354,64.25,112.84,63.535,112.84z M127.289,109.778
			c0.719,0,1.346,0.506,1.504,1.205c0.092,0.391,0.019,0.798-0.201,1.151c-0.213,0.353-0.56,0.585-0.955,0.67
			c-0.828,0.164-1.65-0.347-1.827-1.169c-0.092-0.391-0.019-0.805,0.201-1.157C126.223,110.143,126.564,109.899,127.289,109.778z
			 M136.021,104.206c0.712,0,1.333,0.494,1.491,1.2c0.188,0.828-0.335,1.644-1.169,1.827c-0.822,0.164-1.656-0.372-1.833-1.176
			c-0.091-0.384-0.019-0.81,0.195-1.169C134.937,104.572,135.284,104.34,136.021,104.206z M140.192,95.374
			c0.213-0.356,0.56-0.587,1.303-0.718c0.7,0,1.327,0.505,1.479,1.203c0.092,0.387,0.019,0.807-0.194,1.154
			c-0.226,0.35-0.566,0.594-0.956,0.673c-0.822,0.183-1.645-0.353-1.833-1.172C139.899,96.114,139.972,95.715,140.192,95.374z
			 M89.256,84.587c-0.094-0.021-0.189-0.027-0.277-0.027c-0.366,0-0.722,0.131-1.008,0.38c-1.267,1.087-2.999,1.522-4.677,1.23
			c-0.962-0.195-1.833-0.6-2.588-1.197c-1.546-1.267-2.314-3.289-1.997-5.283c0.094-0.611-0.174-1.196-0.685-1.546
			c-0.512-0.344-1.178-0.338-1.696,0c-1.684,1.072-3.921,1.172-5.642,0.338c-0.886-0.451-1.604-1.093-2.152-1.884
			c-0.959-1.41-1.249-3.143-0.78-4.789c0.131-0.436,0.049-0.923-0.213-1.304c-0.262-0.386-0.679-0.636-1.139-0.667
			c-1.711-0.155-3.243-1.059-4.217-2.469c-0.542-0.779-0.874-1.689-0.978-2.667c-0.201-2.016,0.661-3.942,2.311-5.139
			c0.499-0.375,0.737-0.986,0.606-1.583c-0.131-0.605-0.591-1.071-1.19-1.199c-1.952-0.423-3.565-1.869-4.214-3.763
			c-0.313-0.925-0.38-1.878-0.195-2.832c0.326-1.689,1.352-3.124,2.832-3.942c0.405-0.223,0.691-0.621,0.779-1.084
			c0.085-0.447-0.037-0.917-0.338-1.279c-1.09-1.315-1.541-3.017-1.245-4.676c0.198-0.996,0.609-1.888,1.208-2.594
			c1.272-1.546,3.23-2.326,5.282-2.025c0.591,0.092,1.209-0.183,1.544-0.7c0.332-0.518,0.332-1.172-0.006-1.689
			c-1.09-1.671-1.208-3.809-0.311-5.611c0.436-0.88,1.078-1.613,1.87-2.149c1.385-0.962,3.145-1.224,4.777-0.801
			c0.444,0.131,0.922,0.064,1.303-0.198c0.38-0.262,0.63-0.679,0.667-1.154c0.152-1.689,1.047-3.236,2.475-4.208
			c0.773-0.545,1.666-0.874,2.658-0.956c1.964-0.268,3.958,0.673,5.164,2.301c0.365,0.487,0.983,0.704,1.583,0.6
			c0.597-0.134,1.066-0.612,1.19-1.2c0.411-1.945,1.851-3.547,3.736-4.195c0.91-0.292,1.863-0.387,2.862-0.186
			c1.671,0.311,3.105,1.333,3.921,2.816c0.226,0.387,0.624,0.688,1.072,0.773c0.462,0.107,0.928-0.042,1.284-0.334
			c1.291-1.087,2.969-1.547,4.695-1.225c0.968,0.177,1.839,0.594,2.588,1.173c1.546,1.278,2.308,3.312,1.997,5.3
			c-0.098,0.612,0.17,1.215,0.688,1.553c0.518,0.329,1.176,0.338,1.693,0c1.687-1.09,3.872-1.197,5.65-0.317
			c0.853,0.417,1.596,1.066,2.144,1.857c0.962,1.403,1.254,3.142,0.785,4.789c-0.134,0.441-0.049,0.923,0.214,1.315
			c0.262,0.387,0.676,0.636,1.139,0.661c1.704,0.149,3.239,1.053,4.207,2.469c0.548,0.792,0.889,1.695,0.969,2.655
			c0.207,1.997-0.677,3.979-2.314,5.151c-0.493,0.38-0.73,0.98-0.603,1.583c0.128,0.618,0.597,1.081,1.193,1.196
			c1.979,0.432,3.556,1.842,4.208,3.769c0.311,0.907,0.383,1.87,0.213,2.798c-0.329,1.689-1.358,3.142-2.844,3.961
			c-0.402,0.216-0.688,0.621-0.779,1.077c-0.092,0.454,0.036,0.929,0.341,1.285c1.103,1.315,1.553,3.017,1.236,4.695
			c-0.171,0.965-0.579,1.827-1.206,2.582c-1.254,1.541-3.245,2.32-5.261,2c-0.627-0.107-1.212,0.162-1.541,0.679
			c-0.341,0.511-0.341,1.172,0,1.689c1.09,1.689,1.206,3.849,0.305,5.65c-0.426,0.88-1.071,1.608-1.845,2.144
			c-1.413,0.962-3.185,1.255-4.805,0.792c-0.457-0.131-0.926-0.049-1.303,0.219c-0.384,0.268-0.627,0.673-0.664,1.154
			c-0.152,1.689-1.054,3.224-2.447,4.189c-0.78,0.536-1.699,0.886-2.674,0.974c-1.991,0.198-3.985-0.7-5.163-2.313
			c-0.359-0.499-0.972-0.73-1.583-0.606c-0.598,0.125-1.072,0.594-1.191,1.178c-0.423,1.945-1.869,3.581-3.76,4.229
			c-0.916,0.304-1.857,0.387-2.855,0.173c-1.678-0.311-3.112-1.339-3.94-2.825C90.108,84.946,89.715,84.666,89.256,84.587z
			 M93.518,91.169c0.07,0.027,0.125,0.07,0.189,0.082c0.554,0.106,1.102,0.149,1.647,0.149c0.648,0,1.282-0.168,1.918-0.317
			c1.397,3.249,1.498,6.784,0.213,9.737c-0.5,1.145-1.221,2.137-2.077,3.002c-0.843-0.877-1.559-1.863-2.064-3.002
			C92.072,97.892,92.167,94.412,93.518,91.169z M49.561,94.698c0.037,0,0.076,0,0.113,0c0.405,0.095,0.749,0.338,0.965,0.676
			c0.219,0.341,0.29,0.74,0.195,1.151c-0.155,0.706-0.773,1.199-1.492,1.199l-0.329-0.04c-0.399-0.097-0.743-0.329-0.962-0.673
			c-0.216-0.347-0.286-0.755-0.198-1.166C48.002,95.185,48.58,94.698,49.561,94.698z"/>
		<path d="M95.439,73.276c11.287,0,20.871-8.83,21.814-20.104c0.274-3.285-0.249-6.442-1.321-9.353
			c-0.055-0.131-0.024-0.268-0.128-0.387c-0.012-0.018-0.042-0.012-0.055-0.03c-1.79-4.549-5.035-8.375-9.237-10.863
			c-0.03-0.048-0.012-0.118-0.049-0.137c-0.225-0.268-0.535-0.381-0.855-0.436c-0.018-0.015-0.036-0.027-0.055-0.039
			c-0.061-0.013-0.118-0.062-0.173-0.073c-2.47-1.267-5.207-2.11-8.145-2.359c-2.923-0.21-5.748,0.164-8.388,1.011
			c-0.43-0.062-0.871,0.018-1.228,0.325c-0.07,0.062-0.055,0.149-0.118,0.217c-4.497,1.771-8.27,4.972-10.775,9.061
			c-0.043,0.03-0.107,0.012-0.149,0.063c-0.268,0.21-0.375,0.536-0.441,0.853c-1.404,2.57-2.32,5.444-2.582,8.513
			C72.556,61.585,81.547,72.189,93.588,73.2C94.218,73.243,94.828,73.276,95.439,73.276z M93.856,70.095
			c-1.945-0.149-3.76-0.685-5.48-1.404l6.01-5.075l5.063,5.992C97.653,70.006,95.79,70.244,93.856,70.095z M102.662,68.554
			l-5.895-6.963l8.655-7.322l5.858,6.914C109.222,64.471,106.214,67.035,102.662,68.554z M94.754,59.213l-7.334-8.68l8.662-7.325
			l7.335,8.674L94.754,59.213z M114.148,52.923c-0.152,1.863-0.663,3.596-1.333,5.282l-5.018-5.931l5.882-4.969
			C114.082,49.093,114.313,50.972,114.148,52.923z M112.657,44.082l-6.866,5.818l-7.334-8.68l6.823-5.77
			C108.565,37.502,111.134,40.496,112.657,44.082z M96.98,32.613c1.863,0.158,3.604,0.664,5.264,1.324l-5.8,4.899l-4.938-5.842
			c1.267-0.28,2.57-0.448,3.909-0.448C95.933,32.546,96.457,32.57,96.98,32.613z M88.27,33.992l5.793,6.859l-8.662,7.325
			l-5.788-6.838C81.702,38.102,84.695,35.496,88.27,33.992z M76.672,49.793c0.162-1.934,0.691-3.748,1.395-5.456l4.96,5.849
			l-5.931,5.018C76.728,53.459,76.517,51.651,76.672,49.793z M78.094,58.434l6.945-5.867l7.334,8.662l-6.997,5.916
			C82.116,65.056,79.571,62.033,78.094,58.434z"/>
	</g>
</g>
<g>
</g>
<g>
</g>
<g>
</g>
<g>
</g>
<g>
</g>
<g>
</g>
<g>
</g>
<g>
</g>
<g>
</g>
<g>
</g>
<g>
</g>
<g>
</g>
<g>
</g>
<g>
</g>
<g>
</g>
</svg>
