<?xml version="1.0" encoding="iso-8859-1"?>
<!-- Generator: Adobe Illustrator 16.0.0, SVG Export Plug-In . SVG Version: 6.00 Build 0)  -->
<!DOCTYPE svg PUBLIC "-//W3C//DTD SVG 1.1//EN" "http://www.w3.org/Graphics/SVG/1.1/DTD/svg11.dtd">
<svg version="1.1" id="Capa_1" xmlns="http://www.w3.org/2000/svg" xmlns:xlink="http://www.w3.org/1999/xlink" x="0px" y="0px"
	 width="194.415px" height="194.415px" viewBox="0 0 194.415 194.415" style="enable-background:new 0 0 194.415 194.415;"
	 xml:space="preserve">
<g>
	<g>
		<path d="M153.536,104.922c0.095-0.11,0.227-0.174,0.295-0.306c5.611-10.027,13.526-13.835,22.364-10.893
			c0.232,1.938,1.039,3.842,2.521,5.323c1.734,1.772,4.061,2.748,6.539,2.748c2.415,0,4.698-0.928,6.417-2.626
			c1.746-1.709,2.722-3.998,2.742-6.444c0.021-2.447-0.906-4.751-2.615-6.497c-3.433-3.488-9.461-3.546-12.957-0.118
			c-0.701,0.698-1.229,1.474-1.661,2.317c-6.117-1.851-11.912-1.21-17.027,1.761c4.635-9.289,8.827-14.818,16.278-16.137
			c0.396,0.736,0.86,1.432,1.461,2.041c1.74,1.767,4.056,2.745,6.534,2.745c2.415,0,4.693-0.936,6.418-2.626
			c1.745-1.701,2.716-3.995,2.742-6.441c0.021-2.447-0.913-4.757-2.627-6.502c-3.428-3.488-9.46-3.536-12.951-0.113
			c-1.598,1.572-2.457,3.596-2.647,5.671c-12.261,2.252-17.481,13.197-23.366,25.908c-1.192,2.568-2.273,5.279-3.37,7.989
			c-1.244-5.236-4.34-9.571-9.16-12.746c3.212-3.776,8.332-10.455,0.512-19.485c-0.717-0.825-1.556-1.521-2.468-2.262
			c-2.368-1.912-5.047-4.076-6.713-12.316c-0.185-0.941-0.85-1.69-1.746-2.014c-0.901-0.319-1.898-0.129-2.62,0.475
			c-0.228,0.179-4.546,3.857-6.354,10.326c-2.653-1.835-5.569-2.761-8.718-2.761c-6.663,0-11.794,4.321-12.01,4.503
			c-0.762,0.649-1.103,1.664-0.886,2.637c0.216,0.971,0.952,1.743,1.911,2.015c3.241,0.902,4.261,2.608,5.812,5.216
			c0.636,1.07,1.323,2.215,2.199,3.369c-6.352,3.144-9.171,8.462-9.311,8.738c-0.438,0.841-0.396,1.856,0.108,2.655
			c0.501,0.799,1.294,1.287,2.341,1.276h0.807c7.779,0,10.389,2.067,12.683,3.892c0.917,0.741,1.782,1.405,2.742,1.911
			c2.805,1.514,5.336,2.247,7.768,2.247c5.157,0,8.363-3.375,10.573-6.193c7.309,4.59,9.561,12.489,6.354,22.578
			c-4.388,8.469-10.167,15.361-20.804,17.897c-6.328,1.487-12.667,0.354-17.827-3.217c-1.092-0.754-2.041-1.682-2.993-2.604
			c3.106-4.324,5.173-9.556,5.909-15.193c0.188-1.481-0.849-2.831-2.333-3.032c-1.453-0.195-2.824,0.854-3.024,2.336
			c-0.567,4.225-2.041,8.101-4.174,11.454c-2.123-3.354-3.602-7.229-4.153-11.459c-0.195-1.466-1.587-2.562-3.024-2.341
			c-1.479,0.2-2.521,1.55-2.333,3.037c0.735,5.653,2.803,10.874,5.909,15.188c-0.949,0.938-1.901,1.872-2.987,2.61
			c-5.173,3.564-11.496,4.704-17.83,3.212c-10.634-2.548-16.421-9.43-20.801-17.894c-3.214-10.077-0.96-17.993,6.357-22.578
			c2.207,2.813,5.421,6.194,10.573,6.194c2.428,0,4.967-0.729,7.765-2.247c0.965-0.522,1.825-1.187,2.742-1.911
			c2.294-1.825,4.891-3.892,12.686-3.892h0.804c0.913,0.032,1.841-0.477,2.344-1.276c0.501-0.799,0.538-1.814,0.103-2.655
			c-0.137-0.277-2.961-5.596-9.315-8.738c0.88-1.155,1.566-2.299,2.201-3.364c1.551-2.598,2.576-4.319,5.812-5.221
			c0.962-0.271,1.695-1.044,1.912-2.015c0.216-0.979-0.124-1.988-0.886-2.637c-0.216-0.182-5.344-4.504-12.01-4.504
			c-3.148,0-6.064,0.926-8.72,2.761C72.544,58.226,68.228,54.548,68,54.369c-0.728-0.604-1.722-0.788-2.624-0.475
			c-0.896,0.324-1.561,1.073-1.748,2.015c-1.669,8.239-4.348,10.417-6.713,12.316c-0.913,0.741-1.751,1.437-2.468,2.262
			c-7.82,9.047-2.7,15.71,0.512,19.485c-4.825,3.175-7.91,7.521-9.163,12.751c-1.097-2.721-2.181-5.432-3.37-7.994
			c-5.88-12.712-11.103-23.657-23.366-25.908c-0.198-2.075-1.052-4.101-2.65-5.672c-3.489-3.428-9.521-3.364-12.955,0.113
			c-1.719,1.746-2.647,4.056-2.626,6.502c0.024,2.447,1,4.741,2.745,6.458c1.722,1.685,4,2.61,6.415,2.61
			c2.479,0,4.799-0.979,6.534-2.745c0.604-0.609,1.068-1.305,1.463-2.041c7.451,1.318,11.641,6.853,16.282,16.137
			c-5.125-2.972-10.926-3.615-17.033-1.767c-0.438-0.838-0.97-1.627-1.664-2.312c-3.494-3.428-9.524-3.375-12.954,0.113
			c-3.536,3.607-3.483,9.413,0.118,12.941c1.725,1.692,4.003,2.626,6.421,2.626c2.479,0,4.801-0.98,6.533-2.742
			c1.442-1.466,2.286-3.33,2.523-5.334c8.833-2.953,16.762,0.862,22.362,10.897c0.068,0.121,0.203,0.185,0.295,0.312
			c0.158,0.374,0.325,0.749,0.483,1.139c0.403,1.018,0.831,2.046,1.252,3.063c-4.883-2.51-10.336-2.953-16.061-1.229
			c-0.432-0.822-0.957-1.619-1.653-2.305c-3.493-3.433-9.513-3.375-12.954,0.116c-3.536,3.607-3.483,9.403,0.119,12.937
			c1.722,1.692,4.002,2.626,6.42,2.626c2.474,0,4.796-0.971,6.529-2.737c1.474-1.503,2.292-3.401,2.518-5.342
			c8.838-2.932,16.762,0.865,22.37,10.895c0.132,0.232,0.353,0.359,0.53,0.554c4.672,7.014,11.037,12.847,21.099,15.246
			c2.251,0.532,4.498,0.791,6.716,0.791c5.519,0,10.839-1.641,15.435-4.815c1.258-0.869,2.413-1.871,3.52-2.937
			c1.107,1.065,2.262,2.067,3.52,2.937c4.596,3.175,9.912,4.805,15.427,4.805c2.221,0,4.472-0.264,6.719-0.791
			c10.051-2.395,16.427-8.227,21.099-15.24c0.174-0.18,0.396-0.316,0.527-0.549c5.605-10.014,13.537-13.832,22.37-10.9
			c0.237,2.01,1.086,3.882,2.531,5.343c1.729,1.761,4.05,2.736,6.528,2.736c2.415,0,4.693-0.933,6.413-2.626
			c3.602-3.527,3.659-9.339,0.115-12.936c-3.433-3.491-9.455-3.544-12.946-0.116c-0.695,0.675-1.229,1.466-1.666,2.3
			c-5.727-1.72-11.175-1.276-16.053,1.229c0.417-1.018,0.844-2.057,1.245-3.054C153.209,105.656,153.372,105.302,153.536,104.922z
			 M182.603,89.967c0.707-0.699,1.646-1.076,2.632-1.076c1.018,0,1.973,0.401,2.689,1.129c0.707,0.712,1.086,1.664,1.076,2.663
			c-0.006,1.004-0.412,1.938-1.129,2.645c-1.435,1.405-3.907,1.395-5.311-0.053C181.11,93.806,181.132,91.412,182.603,89.967z
			 M181.78,66.978c0.707-0.696,1.64-1.073,2.626-1.073c1.018,0,1.973,0.398,2.689,1.128c0.701,0.717,1.087,1.661,1.076,2.668
			c-0.016,1.002-0.411,1.938-1.123,2.645c-1.43,1.416-3.913,1.392-5.326-0.061C180.277,70.822,180.304,68.43,181.78,66.978z
			 M134.957,86.876c-0.411,0.48-0.807,0.952-1.165,1.387c-0.354,0.448-0.723,0.936-1.107,1.442c-2.32,3.09-4.192,5.287-7.198,5.287
			c-1.487,0-3.238-0.533-5.194-1.593c-0.686-0.366-1.287-0.87-1.94-1.397c-2.215-1.761-5.1-4.065-11.47-4.838
			c1.619-1.469,3.918-3.035,6.945-3.818c0.98-0.261,1.734-1.036,1.951-2.035c0.216-1.005-0.143-2.039-0.934-2.669
			c-1.92-1.571-2.964-3.288-4.05-5.12c-1.05-1.764-2.188-3.676-4.124-5.236c1.345-0.552,2.942-0.984,4.646-0.984
			c3.148,0,6.033,1.513,8.585,4.499c0.723,0.849,1.909,1.165,2.959,0.788c1.049-0.361,1.771-1.36,1.793-2.479
			c0.073-3.283,1.102-5.962,2.23-7.899c2.114,6.075,4.983,8.403,7.198,10.19c0.654,0.527,1.266,1.008,1.782,1.598
			C140.964,79.879,138.18,83.125,134.957,86.876z M58.54,73.994c0.514-0.591,1.128-1.07,1.782-1.601
			c2.215-1.785,5.086-4.107,7.198-10.183c1.129,1.933,2.16,4.611,2.231,7.899c0.021,1.118,0.741,2.112,1.793,2.479
			c1.062,0.366,2.236,0.066,2.958-0.788c2.55-2.985,5.432-4.499,8.58-4.499c1.708,0,3.312,0.432,4.651,0.989
			c-1.933,1.561-3.075,3.473-4.122,5.231c-1.091,1.832-2.122,3.554-4.05,5.126c-0.788,0.633-1.149,1.674-0.934,2.668
			c0.217,0.994,0.973,1.77,1.954,2.036c3.029,0.789,5.326,2.344,6.945,3.818c-6.362,0.768-9.25,3.056-11.465,4.833
			c-0.659,0.527-1.258,1.021-1.943,1.397c-1.961,1.06-3.709,1.593-5.194,1.593c-3.003,0-4.878-2.175-7.198-5.281
			c-0.379-0.506-0.746-1-1.107-1.448c-0.355-0.43-0.751-0.907-1.163-1.387C56.241,83.125,53.448,79.879,58.54,73.994z
			 M12.695,72.304c-0.714,0.728-1.669,1.128-2.689,1.128c-0.994,0-1.927-0.39-2.637-1.076c-0.717-0.707-1.115-1.653-1.123-2.645
			c-0.005-1.018,0.374-1.951,1.076-2.668c0.717-0.741,1.674-1.129,2.689-1.129c0.989,0,1.922,0.367,2.629,1.063
			C14.114,68.43,14.143,70.822,12.695,72.304z M11.852,95.286c-0.712,0.732-1.661,1.128-2.684,1.128
			c-0.992,0-1.922-0.377-2.634-1.086c-1.474-1.453-1.5-3.829-0.053-5.297c0.717-0.728,1.672-1.128,2.695-1.128
			c0.992,0,1.922,0.38,2.629,1.07c0.717,0.707,1.124,1.65,1.128,2.645C12.943,93.616,12.566,94.56,11.852,95.286z M21.167,114.779
			c-0.712,0.728-1.664,1.123-2.679,1.123c-0.994,0-1.928-0.374-2.634-1.07c-1.479-1.461-1.5-3.845-0.056-5.306
			c0.72-0.738,1.674-1.139,2.689-1.139c0.989,0,1.922,0.391,2.631,1.076c0.712,0.706,1.118,1.655,1.124,2.646
			C22.264,113.102,21.869,114.061,21.167,114.779z M173.295,109.463c0.712-0.686,1.646-1.076,2.632-1.076
			c1.013,0,1.967,0.4,2.689,1.139c1.455,1.461,1.429,3.86-0.058,5.306c-1.43,1.402-3.908,1.382-5.311-0.053
			c-0.701-0.718-1.087-1.677-1.081-2.669C172.178,111.103,172.578,110.159,173.295,109.463z"/>
	</g>
</g>
<g>
</g>
<g>
</g>
<g>
</g>
<g>
</g>
<g>
</g>
<g>
</g>
<g>
</g>
<g>
</g>
<g>
</g>
<g>
</g>
<g>
</g>
<g>
</g>
<g>
</g>
<g>
</g>
<g>
</g>
</svg>
