<?xml version="1.0" encoding="iso-8859-1"?>
<!-- Generator: Adobe Illustrator 16.0.0, SVG Export Plug-In . SVG Version: 6.00 Build 0)  -->
<!DOCTYPE svg PUBLIC "-//W3C//DTD SVG 1.1//EN" "http://www.w3.org/Graphics/SVG/1.1/DTD/svg11.dtd">
<svg version="1.1" id="Capa_1" xmlns="http://www.w3.org/2000/svg" xmlns:xlink="http://www.w3.org/1999/xlink" x="0px" y="0px"
	 width="128.89px" height="128.89px" viewBox="0 0 128.89 128.89" style="enable-background:new 0 0 128.89 128.89;"
	 xml:space="preserve">
<g>
	<g>
		<path d="M20.131,54.425c-0.53-1.128-1.236-2.181-2.148-3.082c-4.029-3.955-10.985-3.884-14.953,0.14
			c-1.975,2.02-3.051,4.68-3.029,7.499c0.021,2.811,1.149,5.463,3.159,7.44c1.988,1.962,4.622,3.032,7.415,3.032
			c2.863,0,5.54-1.123,7.538-3.164c1.756-1.777,2.75-4.087,2.948-6.547c11.222-3.907,21.254,0.804,28.323,13.444
			c0.087,0.153,0.243,0.228,0.356,0.358c0.201,0.496,0.412,0.966,0.612,1.461c0.701,1.756,1.424,3.528,2.159,5.311
			c-6.307-3.755-13.479-4.546-21.033-2.141c-0.53-1.129-1.237-2.178-2.149-3.074c-4.029-3.95-10.99-3.887-14.953,0.137
			c-1.982,2.015-3.056,4.678-3.035,7.504c0.026,2.816,1.15,5.463,3.164,7.446c1.994,1.951,4.622,3.032,7.415,3.032
			c2.855,0,5.534-1.123,7.538-3.159c1.756-1.782,2.748-4.087,2.948-6.55c11.227-3.907,21.26,0.802,28.323,13.438
			c0.093,0.158,0.259,0.242,0.377,0.379c5.65,8.57,13.419,15.662,25.61,18.573c2.695,0.639,5.385,0.955,8.037,0.955
			c6.613,0,12.973-1.962,18.483-5.754c8.485-5.864,14.19-15.604,15.631-26.715c0.189-1.472-0.854-2.827-2.331-3.027
			c-1.477-0.163-2.827,0.85-3.032,2.337c-1.234,9.592-6.097,17.966-13.342,22.96c-6.434,4.445-14.323,5.869-22.19,3.992
			c-13.142-3.138-20.411-11.923-25.801-22.307c-4.029-12.714-1.042-22.702,8.461-28.384c2.732,3.557,6.46,7.76,12.757,7.76
			c2.863,0,5.858-0.871,9.181-2.664c1.145-0.622,2.157-1.413,3.26-2.283c2.868-2.283,6.117-4.875,15.814-4.875l1.008,0.011
			c0.996-0.087,1.84-0.47,2.347-1.276c0.506-0.804,0.543-1.819,0.11-2.66c-0.174-0.324-3.723-7.021-11.749-10.703
			c1.276-1.577,2.226-3.159,3.09-4.623c1.898-3.172,3.265-5.466,7.425-6.626c0.971-0.271,1.698-1.044,1.915-2.02
			c0.216-0.973-0.122-1.988-0.887-2.637c-0.253-0.216-6.344-5.339-14.248-5.339c-3.981,0-7.657,1.258-10.979,3.747
			c-2.004-8.224-7.488-12.883-7.768-13.115c-0.718-0.606-1.72-0.789-2.616-0.469c-0.896,0.316-1.561,1.078-1.751,2.012
			c-2.072,10.26-5.426,12.973-8.387,15.364c-1.087,0.875-2.086,1.7-2.933,2.689c-9.558,11.042-2.927,18.829,1.068,23.496
			c-6.637,4.164-10.666,10.12-11.863,17.386c-0.016-0.036-0.032-0.079-0.05-0.116c-1.553-3.875-3.098-7.715-4.783-11.358
			C43.427,46.186,37.083,32.852,22.12,30.336c-0.134-2.55-1.149-5.06-3.111-6.982c-4.029-3.952-10.99-3.884-14.953,0.14
			C2.076,25.508,1,28.177,1.026,31c0.029,2.824,1.152,5.469,3.164,7.452c1.988,1.949,4.617,3.03,7.404,3.03
			c2.863,0,5.54-1.123,7.543-3.164c0.804-0.817,1.4-1.751,1.885-2.727c10.093,1.577,15.369,9.039,21.573,21.798
			C35.96,52.848,28.252,51.838,20.131,54.425z M14.268,62.515c-0.983,0.996-2.289,1.55-3.689,1.55c-1.36,0-2.649-0.532-3.623-1.492
			c-0.989-0.965-1.54-2.262-1.55-3.639c-0.011-1.376,0.514-2.684,1.479-3.667c0.983-1.002,2.296-1.553,3.699-1.553
			c1.361,0,2.647,0.527,3.618,1.479c0.989,0.965,1.54,2.262,1.55,3.644C15.763,60.218,15.235,61.518,14.268,62.515z M25.624,86.271
			c-0.978,1.002-2.284,1.55-3.684,1.55c-1.366,0-2.655-0.532-3.628-1.481c-0.988-0.971-1.54-2.268-1.55-3.644
			c-0.011-1.377,0.514-2.685,1.479-3.666c0.983-1.007,2.296-1.555,3.699-1.555c1.361,0,2.647,0.527,3.618,1.477
			c0.989,0.97,1.54,2.262,1.55,3.644C27.119,83.982,26.591,85.285,25.624,86.271z M70.3,35.762c0.648-0.746,1.424-1.355,2.247-2.025
			c2.784-2.247,6.417-5.189,8.975-13.321c1.651,2.5,3.381,6.225,3.48,10.982c0.021,1.123,0.738,2.112,1.793,2.484
			c1.045,0.39,2.231,0.066,2.953-0.789c3.228-3.773,6.893-5.685,10.916-5.685c2.579,0,4.957,0.778,6.819,1.646
			c-2.732,1.896-4.219,4.379-5.664,6.811c-1.355,2.278-2.637,4.427-5.067,6.399c-0.786,0.641-1.15,1.674-0.939,2.666
			c0.222,1,0.971,1.788,1.962,2.043c4.403,1.149,7.583,3.578,9.63,5.69c-8.475,0.741-12.146,3.663-14.93,5.882
			c-0.822,0.665-1.593,1.284-2.468,1.754c-2.468,1.339-4.688,2.014-6.613,2.014c-4.229,0-6.781-3.385-9.244-6.662
			c-0.459-0.612-0.901-1.195-1.329-1.735c-0.427-0.538-0.912-1.094-1.407-1.677C67.479,47.659,63.759,43.316,70.3,35.762z
			 M15.283,34.499c-0.983,1.005-2.294,1.556-3.694,1.556c-1.36,0-2.645-0.53-3.617-1.481c-0.989-0.965-1.54-2.263-1.551-3.644
			C6.41,29.548,6.935,28.24,7.9,27.256c0.983-1.015,2.297-1.553,3.699-1.553c1.36,0,2.647,0.527,3.612,1.474
			C17.247,29.184,17.281,32.469,15.283,34.499z"/>
	</g>
</g>
<g>
</g>
<g>
</g>
<g>
</g>
<g>
</g>
<g>
</g>
<g>
</g>
<g>
</g>
<g>
</g>
<g>
</g>
<g>
</g>
<g>
</g>
<g>
</g>
<g>
</g>
<g>
</g>
<g>
</g>
</svg>
