<?xml version="1.0" encoding="iso-8859-1"?>
<!-- Generator: Adobe Illustrator 16.0.0, SVG Export Plug-In . SVG Version: 6.00 Build 0)  -->
<!DOCTYPE svg PUBLIC "-//W3C//DTD SVG 1.1//EN" "http://www.w3.org/Graphics/SVG/1.1/DTD/svg11.dtd">
<svg version="1.1" id="Capa_1" xmlns="http://www.w3.org/2000/svg" xmlns:xlink="http://www.w3.org/1999/xlink" x="0px" y="0px"
	 width="236.037px" height="236.037px" viewBox="0 0 236.037 236.037" style="enable-background:new 0 0 236.037 236.037;"
	 xml:space="preserve">
<g>
	<g>
		<path d="M234.426,128.813c-11.633-2.837-19.143,5.126-27.854,14.344c-1.771,1.877-3.485,3.902-5.231,5.938
			c0.586-5.146-0.97-10.04-4.735-14.286c0.19-0.353,0.475-0.638,0.602-1.027c0.67-1.941,0.548-4.029-0.349-5.875
			c-1.803-3.718-6.518-5.4-10.283-3.555c-3.802,1.856-5.41,6.477-3.543,10.305c1.275,2.61,3.986,4.313,6.897,4.313
			c1.191,0,2.32-0.264,3.354-0.786c0.127-0.053,0.2-0.163,0.338-0.242c4.936,5.801,4.683,12.968-0.728,20.403
			c-5.949,5.748-12.588,9.819-21.97,9.022c-5.584-0.521-10.468-3.18-13.705-7.525c-3.665-4.894-5.021-11.485-3.718-18.098
			c0.079-0.349,0.036-0.696-0.074-1.013c0.053-0.569,0.127-1.14,0.116-1.72c-0.195-4.556-2.146-8.754-5.517-11.822
			c-1.239-1.15-2.668-1.994-4.16-2.722c0.1-0.073,0.195-0.126,0.29-0.211c1.914-1.782,3.032-4.205,3.148-6.834
			c0.1-2.205-0.686-4.327-2.188-5.951c-1.493-1.627-3.544-2.565-5.743-2.658c-1.318-0.021-2.015,0.73-2.184,1.74
			c-0.279,0.398-0.484,0.841-0.506,1.371c-0.058,1.448,1.06,2.658,2.505,2.722c0.786,0.021,1.466-0.298,1.978-0.82
			c0.274,0.177,0.559,0.335,0.786,0.577c0.717,0.783,1.081,1.793,1.038,2.845c-0.073,1.463-0.686,2.813-1.767,3.829
			c-1.075,0.997-2.383,1.461-3.944,1.461c-0.316-0.011-0.617,0.084-0.917,0.222c-0.201,0.01-0.391-0.032-0.591-0.032
			c-5.553,0.243-10.685,2.632-14.429,6.739c-0.396,0.433-0.738,0.907-1.081,1.361v-18.914c14.308-1.128,25.655-12.994,25.655-27.59
			c0-15.335-12.487-27.81-27.817-27.81c-15.33,0-27.796,12.484-27.796,27.81c0,14.597,11.338,26.462,25.65,27.59v18.923
			c-0.354-0.453-0.702-0.928-1.081-1.36c-3.739-4.108-8.892-6.497-14.429-6.739c-0.179,0-0.358,0.031-0.548,0.031
			c-0.3-0.137-0.622-0.221-0.981-0.221c-1.577,0.031-2.869-0.454-3.955-1.461c-1.076-1.016-1.692-2.365-1.761-3.839
			c-0.042-1.042,0.337-2.057,1.044-2.834c0.232-0.242,0.527-0.4,0.796-0.577c0.501,0.53,1.192,0.841,1.962,0.82
			c1.45-0.063,2.579-1.274,2.51-2.721c-0.021-0.53-0.232-0.983-0.517-1.382c-0.189-1.004-0.917-1.74-2.167-1.729
			c-4.572,0.19-8.137,4.05-7.958,8.609c0.116,2.624,1.234,5.052,3.154,6.834c0.095,0.084,0.2,0.137,0.3,0.232
			c-1.487,0.706-2.911,1.55-4.166,2.699c-3.354,3.069-5.315,7.277-5.511,11.823c-0.031,0.654,0.053,1.276,0.111,1.909
			c-0.179,0.396-0.274,0.828-0.179,1.292c1.308,6.597-0.042,13.179-3.707,18.083c-3.259,4.355-8.121,7.003-13.711,7.52
			c-8.295,0.791-14.449-2.32-19.86-7.024c-0.264-0.222-0.527-0.442-0.791-0.664c-0.422-0.38-0.833-0.802-1.255-1.224
			c-5.495-7.483-5.753-14.697-0.786-20.52c0.111,0.069,0.19,0.169,0.306,0.232c1.065,0.522,2.193,0.786,3.364,0.786l0,0
			c2.921,0,5.632-1.688,6.919-4.324c1.846-3.808,0.253-8.433-3.565-10.305c-3.686-1.771-8.469-0.11-10.257,3.575
			c-0.902,1.836-1.028,3.935-0.359,5.864c0.132,0.391,0.417,0.686,0.606,1.028c-3.775,4.25-5.336,9.129-4.741,14.286
			c-1.735-2.036-3.475-4.061-5.236-5.928c-8.707-9.218-16.263-17.196-27.844-14.354c-1.171,0.274-1.877,1.456-1.603,2.6
			c0.295,1.16,1.445,1.894,2.615,1.593c7.341-1.767,12.551,1.83,19.533,8.844c-5.569-1.286-11.074-0.021-15.979,3.971
			c-0.923,0.765-1.055,2.126-0.301,3.043c0.749,0.907,2.109,1.034,3.038,0.301c6.571-5.39,14.359-4.551,21.938,2.347
			c0.079,0.074,0.179,0.053,0.279,0.116c0.248,0.295,0.506,0.559,0.759,0.854c0.348,0.411,0.717,0.833,1.071,1.238
			c-1.218-0.152-2.484-0.142-3.771,0.059c-0.126-0.443-0.179-0.907-0.433-1.318c-1.107-1.835-3.164-2.953-4.63-3.111
			c-3.934-0.348-7.056,0.791-9.571,3.449c-6.565,6.865-5.97,21.705-5.959,22.338l0.164,3.944l3.243-2.299
			c4.261-3.032,6.86-3.839,9.487-4.15c6.724-0.775,12.825-2.009,13.664-8.717c0.274-2.142-0.048-3.987-0.902-5.511
			c3.349,1.086,6.655,3.807,10.41,7.214c0.185,0.163,0.427,0.153,0.644,0.242c4.835,3.507,10.436,5.943,17.365,5.943
			c0.917,0,1.867-0.042,2.832-0.116c6.824-0.601,12.772-3.902,16.77-9.229c2.784-3.712,4.324-8.258,4.788-13.057
			c2.368,2.236,5.484,3.713,8.976,3.86c0.917-0.042,1.692-0.517,2.057-1.255c1.239-0.644,2.141-1.856,2.204-3.344
			c0.1-2.199-1.635-4.092-3.855-4.182c-2.083-0.101-3.812,1.45-4.092,3.485c-3.364-1.672-5.626-5.188-5.453-9.154
			c0.137-3.417,1.614-6.545,4.119-8.849c2.505-2.289,5.732-3.428,9.16-3.312c4.387,0.19,8.448,2.1,11.422,5.337
			c2.526,2.764,3.987,6.191,4.261,9.841c-0.042,0.728-0.042,1.46-0.01,2.178c0,0.021,0.01,0.042,0.01,0.068v8.205
			c-2.731,0.929-4.735,3.418-4.735,6.455c0,0.791,0.211,1.503,0.454,2.215h-3.206c-0.786,0-1.529,0.443-1.909,1.149
			c-0.379,0.707-0.332,1.562,0.111,2.226l7.51,11.063c0.98,1.456,2.404,2.268,3.938,2.268c1.524,0,2.964-0.812,3.935-2.257
			l7.509-11.074c0.448-0.664,0.501-1.519,0.116-2.226c-0.374-0.706-1.107-1.149-1.909-1.149h-3.211
			c0.242-0.712,0.448-1.439,0.448-2.215c0-3.032-1.993-5.526-4.726-6.455v-8.205c0-0.026,0.017-0.048,0.017-0.068
			c0.031-0.733,0.031-1.461-0.011-2.178c0.269-3.655,1.734-7.083,4.261-9.841c2.975-3.254,7.035-5.146,11.428-5.337
			c3.465-0.115,6.639,1.023,9.149,3.312c2.516,2.304,3.971,5.432,4.129,8.849c0.169,3.966-2.088,7.499-5.453,9.154
			c-0.279-2.035-2.014-3.575-4.103-3.485c-2.22,0.1-3.939,1.982-3.844,4.182c0.068,1.487,0.976,2.7,2.198,3.344
			c0.333,0.754,1.081,1.266,1.946,1.266c0.042,0,0.079-0.011,0.11-0.011c3.48-0.147,6.565-1.614,8.918-3.818
			c0.543,4.609,2.046,8.965,4.735,12.562c3.986,5.315,9.962,8.606,16.77,9.218c0.971,0.095,1.898,0.116,2.811,0.116
			c6.919,0,12.52-2.426,17.36-5.933c0.227-0.09,0.479-0.09,0.67-0.253c3.738-3.407,7.066-6.133,10.409-7.215
			c-0.854,1.514-1.176,3.339-0.901,5.49c0.839,6.739,6.945,7.974,13.663,8.728c2.61,0.312,5.227,1.118,9.482,4.161l3.237,2.31
			l0.174-3.966c0.026-0.622,0.606-15.473-5.964-22.338c-2.521-2.647-5.516-3.829-9.571-3.449c-1.466,0.158-3.502,1.276-4.614,3.111
			c-0.253,0.411-0.295,0.875-0.433,1.318c-1.292-0.2-2.562-0.211-3.775-0.048c0.348-0.416,0.732-0.849,1.075-1.26
			c0.259-0.301,0.512-0.56,0.755-0.854c0.095-0.053,0.2-0.031,0.284-0.111c7.562-6.892,15.367-7.709,21.933-2.33
			c0.938,0.748,2.294,0.617,3.037-0.301c0.76-0.928,0.617-2.289-0.306-3.043c-4.899-4.008-10.415-5.278-15.983-3.981
			c6.977-7.019,12.176-10.637,19.538-8.833c1.187,0.301,2.33-0.433,2.6-1.593C236.267,130.248,235.582,129.098,234.426,128.813z
			 M193.125,132.367c-0.301,0.85-0.907,1.535-1.729,1.936c-1.608,0.786-3.718,0.053-4.493-1.551
			c-0.812-1.682-0.116-3.717,1.551-4.524c0.469-0.222,0.96-0.332,1.461-0.332c1.308,0,2.479,0.728,3.037,1.909
			C193.362,130.606,193.415,131.523,193.125,132.367z M43.08,130.269c0.559-1.181,1.729-1.909,3.038-1.909
			c0.506,0,1.007,0.111,1.456,0.332c1.682,0.808,2.373,2.832,1.571,4.525c-0.564,1.149-1.756,1.893-3.038,1.893
			c-0.522,0-1.012-0.115-1.471-0.348c-0.812-0.391-1.429-1.076-1.719-1.92C42.626,131.988,42.679,131.081,43.08,130.269z
			 M21.016,168.807c-2.157,0.254-4.625,0.781-8.032,2.7c0.285-4.841,1.403-11.823,4.709-15.271c1.397-1.466,3.059-2.173,5.083-2.173
			c0.306,0,0.612,0.011,0.907,0.042c0.253,0.042,1.055,0.443,1.429,1.087c0.063,0.105-0.016,0.231,0.011,0.326
			c-2.473,1.171-5.068,3.059-7.773,6.033c-0.791,0.875-0.738,2.246,0.137,3.048c0.875,0.796,2.251,0.749,3.042-0.137
			c2.384-2.616,4.572-4.282,6.639-5.21c0.602,0.021,2.188,0.295,3.059,1.297c0.617,0.728,0.839,1.835,0.665,3.274
			C30.544,166.582,29.1,167.884,21.016,168.807z M141.556,84.348c0,9.584-5.78,17.824-14.049,21.466
			c3.307-5.068,5.432-12.681,5.432-21.466c0-8.799-2.125-16.411-5.432-21.476C135.776,66.521,141.556,74.758,141.556,84.348z
			 M94.585,84.348c0-9.584,5.785-17.827,14.048-21.476c-3.312,5.065-5.432,12.677-5.432,21.476c0,8.785,2.12,16.411,5.432,21.466
			C100.37,102.167,94.585,93.932,94.585,84.348z M118.073,82.077c-1.191,0-2.162,0.973-2.162,2.162V107.2
			c-4.303-2.278-8.384-11-8.384-22.853c0-13.835,5.558-23.49,10.546-23.49c5,0,10.553,9.64,10.553,23.49
			c0,11.852-4.082,20.585-8.391,22.853V84.239C120.235,83.045,119.259,82.077,118.073,82.077z M205.813,160.085
			c0.875-1.019,2.499-1.276,3.063-1.298c2.067,0.929,4.24,2.595,6.629,5.2c0.802,0.886,2.173,0.938,3.048,0.137
			c0.87-0.807,0.944-2.173,0.132-3.048c-2.711-2.964-5.289-4.862-7.763-6.022c0.026-0.105-0.053-0.231,0.011-0.337
			c0.358-0.644,1.171-1.034,1.387-1.065c0.327-0.042,0.633-0.063,0.934-0.063c2.025,0,3.687,0.707,5.089,2.173
			c3.496,3.649,4.445,10.811,4.704,15.267c-3.401-1.914-5.869-2.441-8.026-2.7c-8.079-0.907-9.523-2.21-9.872-4.979
			C204.969,161.909,205.19,160.812,205.813,160.085z"/>
	</g>
</g>
<g>
</g>
<g>
</g>
<g>
</g>
<g>
</g>
<g>
</g>
<g>
</g>
<g>
</g>
<g>
</g>
<g>
</g>
<g>
</g>
<g>
</g>
<g>
</g>
<g>
</g>
<g>
</g>
<g>
</g>
</svg>
