<?xml version="1.0" encoding="iso-8859-1"?>
<!-- Generator: Adobe Illustrator 16.0.0, SVG Export Plug-In . SVG Version: 6.00 Build 0)  -->
<!DOCTYPE svg PUBLIC "-//W3C//DTD SVG 1.1//EN" "http://www.w3.org/Graphics/SVG/1.1/DTD/svg11.dtd">
<svg version="1.1" id="Capa_1" xmlns="http://www.w3.org/2000/svg" xmlns:xlink="http://www.w3.org/1999/xlink" x="0px" y="0px"
	 width="196.115px" height="196.115px" viewBox="0 0 196.115 196.115" style="enable-background:new 0 0 196.115 196.115;"
	 xml:space="preserve">
<g>
	<g>
		<path d="M192.751,117.77c-2.742-3.839-6.771-6.328-11.359-7.04c-11.544-1.745-18.262,6.767-26.082,16.628
			c-0.048,0.062-0.09,0.11-0.116,0.174c-0.006,0.005-0.011,0-0.016,0.005c-1.693,1.888-5.137,4.614-9.176,1.946
			c-2.273-1.503-2.896-4.599-1.393-6.861c1.123-1.688,3.438-2.141,5.12-1.018c0.586,0.391,1.008,1.013,1.15,1.703
			c0.126,0.701,0,1.419-0.396,2.01c-0.301,0.459-0.775,0.706-1.276,0.78c-0.143-0.929-0.96-1.614-1.904-1.519
			c-1.012,0.079-1.729,0.954-1.645,1.93c0.016,0.222,0.089,0.411,0.163,0.602c0.053,0.379,0.2,0.748,0.559,0.97
			c2.1,1.393,4.941,0.828,6.345-1.249c0.796-1.208,1.075-2.627,0.796-4.04c-0.301-1.429-1.103-2.626-2.32-3.443
			c-0.585-0.38-1.239-0.585-1.909-0.771c0.312-0.311,0.665-0.569,0.902-0.949c0.838-1.334,1.117-2.921,0.77-4.455
			c-0.69-3.106-3.966-5.189-7.077-4.482c-0.775,0.168-1.466,0.49-2.094,0.922c-3.101-3.712-7.103-5.579-11.633-5.479
			c1.097-0.78,2.173-1.561,3.238-2.342c0.284-0.211,0.563-0.379,0.827-0.58c0.074-0.026,0.143,0.011,0.217-0.026
			c7.535-4.16,14.069-3.333,18.473,2.257c-0.681,1.25-0.944,2.68-0.628,4.088c0.602,2.684,3.038,4.619,5.774,4.619
			c0.433,0,0.865-0.042,1.292-0.132c1.529-0.349,2.848-1.276,3.713-2.605c0.849-1.339,1.123-2.932,0.78-4.472
			c-0.717-3.153-3.939-5.179-7.071-4.482c-0.765,0.169-1.461,0.501-2.099,0.938c-3.381-4.05-7.826-5.872-12.852-5.381
			c7.535-4.828,12.661-7.172,18.499-4.606c-0.09,0.653-0.116,1.329,0.053,1.993c0.606,2.731,2.979,4.636,5.774,4.636
			c0.427,0,0.865-0.053,1.292-0.143c1.54-0.343,2.858-1.287,3.713-2.626c0.844-1.339,1.112-2.911,0.77-4.421
			c-0.69-3.111-3.971-5.184-7.062-4.499c-1.523,0.334-2.811,1.237-3.659,2.542c-8.101-3.433-15.309,1.205-23.588,6.64
			c-1.941,1.263-3.871,2.687-5.817,4.121c-0.216,0.152-0.438,0.321-0.653,0.475c2.114-4.501,1.872-9.321-0.854-13.967
			c-0.369-0.654-1.218-0.87-1.846-0.485c-0.644,0.372-0.859,1.205-0.485,1.846c3.533,6.049,2.004,12.264-4.213,17.61
			c-5.896,3.502-12.245,5.643-19.781,3.133c-1.387-0.464-2.607-1.123-3.768-1.861c4.596-4.414,6.826-10.974,5.561-18.006
			c-0.037-0.211-0.2-0.341-0.327-0.512c0.333-0.103,0.707-0.164,1.028-0.319c1.461-0.644,2.632-1.751,3.365-3.122
			c1.519,0.388,3.127,0.264,4.588-0.345c1.091-0.464,2.02-1.195,2.763-2.165c1.034-1.35,1.524-3.029,1.435-4.678
			c1.725,0.021,3.327-0.546,4.609-1.613c0.923-0.752,1.64-1.73,2.062-2.819c0.591-1.477,0.644-3.09,0.174-4.606
			c1.351-0.778,2.421-1.994,3.027-3.509c0.411-1.076,0.564-2.271,0.396-3.452c-0.232-1.69-1.061-3.219-2.305-4.316
			c1.213-1.145,1.982-2.7,2.136-4.438c0.11-1.184-0.101-2.365-0.559-3.412c-0.644-1.464-1.751-2.653-3.138-3.394
			c0.405-1.506,0.295-3.119-0.349-4.593c-0.495-1.102-1.233-2.051-2.136-2.726c-1.323-1.034-3.037-1.529-4.683-1.466
			c0.042-1.656-0.512-3.283-1.613-4.609c-0.781-0.92-1.725-1.606-2.832-2.038c-1.461-0.572-3.096-0.625-4.599-0.172
			c-0.791-1.36-1.999-2.415-3.496-2.992c-1.103-0.433-2.263-0.588-3.479-0.443c-1.705,0.245-3.232,1.065-4.318,2.318
			c-1.166-1.2-2.731-1.972-4.417-2.138c-1.195-0.093-2.365,0.092-3.415,0.562c-1.469,0.633-2.655,1.737-3.396,3.132
			c-1.521-0.412-3.158-0.288-4.582,0.334c-1.118,0.475-2.075,1.237-2.756,2.16c-1.041,1.35-1.534,3.029-1.437,4.683
			c-0.042-0.014-0.103-0.014-0.129-0.014c-1.64,0-3.23,0.572-4.448,1.611c-0.907,0.712-1.632,1.69-2.091,2.84
			c-0.567,1.474-0.633,3.093-0.174,4.606c-1.342,0.777-2.392,1.988-2.99,3.478c-0.443,1.084-0.588,2.299-0.422,3.488
			c0.221,1.685,1.06,3.207,2.307,4.309c-1.221,1.149-1.978,2.711-2.139,4.445c-0.087,1.182,0.108,2.354,0.557,3.417
			c0.656,1.463,1.764,2.637,3.135,3.375c-0.398,1.505-0.285,3.132,0.359,4.59c0.464,1.079,1.208,2.036,2.138,2.764
			c1.237,0.931,2.742,1.442,4.258,1.442c0.143,0,0.298-0.006,0.427-0.016c-0.037,1.659,0.535,3.298,1.616,4.612
			c0.783,0.928,1.743,1.637,2.829,2.057c1.464,0.562,3.083,0.633,4.591,0.168c0.778,1.311,1.948,2.333,3.375,2.921
			c-0.143,0.172-0.335,0.335-0.364,0.583c-1.242,7.029,0.994,13.592,5.58,18.011c-1.166,0.738-2.386,1.398-3.776,1.862
			c-7.538,2.515-13.877,0.374-19.778-3.128c-6.217-5.347-7.76-11.566-4.213-17.615c0.372-0.644,0.158-1.464-0.485-1.846
			c-0.638-0.385-1.469-0.169-1.849,0.485c-2.721,4.638-2.958,9.466-0.852,13.966c-0.216-0.158-0.438-0.316-0.654-0.475
			c-1.943-1.439-3.876-2.837-5.822-4.129c-8.271-5.421-15.485-10.043-23.58-6.631c-0.839-1.29-2.139-2.196-3.657-2.542
			c-3.093-0.69-6.37,1.387-7.063,4.488c-0.346,1.516-0.09,3.098,0.767,4.427c0.844,1.35,2.16,2.277,3.72,2.631
			c0.422,0.101,0.854,0.143,1.276,0.143h0.005c2.803,0,5.163-1.914,5.767-4.638c0.15-0.667,0.129-1.337,0.053-1.996
			c5.849-2.576,10.969-0.211,18.507,4.606c-5.034-0.493-9.476,1.326-12.857,5.376c-0.617-0.427-1.334-0.754-2.101-0.934
			c-3.132-0.686-6.357,1.34-7.069,4.482c-0.346,1.551-0.087,3.133,0.777,4.472c0.849,1.34,2.165,2.258,3.715,2.611
			c0.427,0.1,0.849,0.137,1.279,0.137c2.761,0,5.173-1.94,5.774-4.619c0.319-1.414,0.053-2.832-0.627-4.093
			c4.385-5.59,10.924-6.412,18.473-2.257c0.082,0.037,0.143,0,0.216,0.026c0.287,0.2,0.562,0.374,0.828,0.575
			c1.052,0.785,2.138,1.561,3.238,2.346c-4.53-0.11-8.519,1.757-11.63,5.475c-0.62-0.433-1.324-0.749-2.097-0.918
			c-3.108-0.701-6.386,1.382-7.079,4.478c-0.346,1.54-0.074,3.127,0.772,4.461c0.237,0.369,0.59,0.638,0.896,0.944
			c-0.659,0.174-1.311,0.385-1.912,0.78c-1.197,0.796-2.014,2.015-2.299,3.438c-0.293,1.413,0,2.837,0.788,4.039
			c1.397,2.094,4.235,2.647,6.344,1.255c0.345-0.231,0.525-0.58,0.562-0.976c0.087-0.189,0.153-0.385,0.174-0.596
			c0.087-0.996-0.644-1.872-1.659-1.936c-0.944-0.09-1.732,0.586-1.896,1.514c-0.517-0.074-0.994-0.316-1.284-0.775
			c-0.396-0.585-0.535-1.303-0.396-2.009c0.143-0.707,0.562-1.308,1.145-1.698c1.698-1.129,4.002-0.686,5.126,1.018
			c1.5,2.263,0.88,5.342-1.393,6.861c-4.039,2.668-7.485-0.074-9.176-1.946c0,0-0.005,0-0.005-0.005
			c-0.048-0.063-0.093-0.116-0.119-0.174c-7.825-9.861-14.531-18.404-26.087-16.628c-4.596,0.702-8.625,3.201-11.362,7.03
			c-2.813,3.938-3.931,8.912-3.061,13.668c1.3,7.314,7.92,12.271,15.164,11.85c-1.128,2.969-2.581,8.517,0.259,13.104
			c1.194,1.925,3.451,2.905,5.437,3.771c1.535,0.67,3.127,1.36,3.462,2.215c0.237,0.617-0.037,1.05-0.756,1.936
			c-0.578,0.738-1.577,1.956-0.728,3.333c0.752,1.213,2.17,1.877,4.013,1.877c1.912,0,4.221-0.743,6.312-2.024
			c4.287-2.653,6.328-6.608,4.751-9.16c-0.243-0.385-0.815-1.034-1.967-1.034c-0.454,0-0.912,0.095-1.35,0.19
			c-0.83,0.189-1.587,0.326-2.072-0.201c-0.614-0.669-0.53-2.394-0.443-4.07c0.113-2.162,0.237-4.614-0.949-6.55
			c-3.636-5.864-11.913-6.191-13.869-6.191c-0.011,0-0.021,0-0.026,0c-0.129,0.011-0.264,0.09-0.393,0.122
			c-0.143-0.027-0.287-0.133-0.438-0.105c-6.431,1.176-12.572-3.133-13.737-9.545c-0.73-4.045,0.227-8.279,2.613-11.612
			c1.5-2.12,3.499-3.687,5.75-4.726c-0.016,0.021-0.047,0.032-0.071,0.048c-5.01,3.992-5.848,11.333-1.856,16.343
			c1.907,2.367,4.693,3.606,7.517,3.606c2.099,0,4.19-0.686,5.957-2.088c3.422-2.722,3.99-7.726,1.263-11.138
			c-2.278-2.843-6.441-3.301-9.305-1.044c-0.314,0.242-0.458,0.591-0.485,0.96c-0.253,0.432-0.438,0.912-0.438,1.466
			c0,1.629,1.318,2.947,2.953,2.947c1.643,0,2.943-1.318,2.943-2.947c0-0.375-0.084-0.744-0.211-1.055
			c0.931,0.132,1.793,0.585,2.42,1.376c1.793,2.257,1.432,5.559-0.831,7.356c-2.961,2.362-7.307,1.851-9.666-1.097
			c-3.051-3.855-2.416-9.487,1.434-12.557c4.936-3.938,10.726-3.227,16.297,1.983c0.237,0.222,0.557,0.301,0.849,0.321
			c2.661,2.59,5.411,5.959,8.601,9.982c1.458,1.814,2.824,3.761,4.25,5.738c-1.938-0.364-3.953-0.063-5.906,1.028
			c-3.673,2.072-4.981,6.75-2.917,10.436c1.176,2.094,3.346,3.265,5.582,3.265c1.065,0,2.139-0.27,3.127-0.822
			c1.242-0.702,2.144-1.852,2.55-3.238c0.393-1.397,0.211-2.843-0.498-4.108c-0.599-1.06-1.587-1.846-2.779-2.156
			c-1.173-0.338-2.394-0.169-3.473,0.422c-0.458,0.264-0.606,0.749-0.583,1.233c-0.061,0.138-0.122,0.274-0.142,0.428
			c-0.146,0.996,0.535,1.908,1.529,2.051c0.965,0.148,1.866-0.521,2.035-1.477c0.443,0.158,0.815,0.422,1.047,0.834
			c0.351,0.616,0.443,1.35,0.248,2.046c-0.182,0.686-0.63,1.255-1.258,1.613c-1.77,0.997-4.029,0.364-5.049-1.402
			c-1.332-2.39-0.485-5.432,1.906-6.761c4.008-2.283,7.151,0.396,8.786,2.395c6.805,9.148,14.586,17.402,28.128,17.402
			c0.034,0,0.071,0,0.108,0c6.713-0.027,12.804-2.711,17.157-7.558c2.753-3.074,4.564-6.913,5.519-11.079
			c0.973,4.166,2.787,7.989,5.532,11.079c4.34,4.857,10.431,7.536,17.144,7.558c0.037,0,0.068,0,0.111,0
			c13.558,0,21.325-8.232,28.134-17.413c1.64-1.993,4.782-4.662,8.78-2.384c2.373,1.329,3.237,4.377,1.903,6.75
			c-1.013,1.771-3.259,2.395-5.052,1.413c-0.612-0.343-1.061-0.928-1.255-1.613c-0.195-0.696-0.111-1.43,0.247-2.046
			c0.232-0.412,0.617-0.676,1.061-0.834c0.158,0.971,1.06,1.641,2.035,1.477c0.997-0.137,1.677-1.055,1.524-2.051
			c-0.026-0.153-0.105-0.29-0.147-0.433c0.021-0.49-0.127-0.976-0.586-1.234c-1.044-0.585-2.288-0.765-3.47-0.416
			c-1.187,0.327-2.167,1.091-2.779,2.151c-0.712,1.255-0.875,2.711-0.501,4.103c0.391,1.397,1.292,2.547,2.558,3.249
			c0.991,0.559,2.067,0.816,3.122,0.816c2.236,0,4.403-1.186,5.579-3.264c2.067-3.681,0.771-8.358-2.916-10.431
			c-1.925-1.092-3.939-1.408-5.906-1.028c1.429-1.978,2.816-3.935,4.25-5.738c3.186-4.018,5.923-7.377,8.586-9.972
			c0.321-0.011,0.622-0.105,0.864-0.332c5.569-5.21,11.364-5.928,16.295-1.983c3.855,3.069,4.488,8.701,1.445,12.551
			c-2.368,2.964-6.713,3.465-9.672,1.103c-2.252-1.798-2.626-5.1-0.833-7.351c0.628-0.791,1.503-1.24,2.426-1.388
			c-0.132,0.333-0.216,0.686-0.216,1.061c0,1.629,1.312,2.947,2.942,2.947c1.635,0,2.953-1.318,2.953-2.947
			c0-0.554-0.185-1.019-0.438-1.466c-0.026-0.364-0.169-0.718-0.485-0.96c-2.848-2.273-7.029-1.793-9.292,1.044
			c-2.727,3.428-2.157,8.432,1.244,11.138c1.757,1.402,3.866,2.088,5.965,2.088c2.811,0,5.621-1.233,7.515-3.606
			c3.992-5.026,3.153-12.351-1.861-16.338c-0.026-0.031-0.053-0.042-0.085-0.053c2.273,1.028,4.267,2.6,5.77,4.726
			c2.389,3.333,3.343,7.567,2.615,11.612c-1.154,6.412-7.309,10.688-13.731,9.545c-0.19-0.043-0.349,0.078-0.533,0.115
			c-0.189-0.062-0.385-0.132-0.564-0.132c-1.64,0-9.998,0.306-13.637,6.191c-1.187,1.914-1.044,4.382-0.949,6.544
			c0.09,1.683,0.174,3.401-0.443,4.076c-0.484,0.518-1.229,0.386-2.072,0.195c-0.438-0.105-0.896-0.189-1.35-0.189
			c-1.149,0-1.725,0.648-1.967,1.039c-1.577,2.562,0.464,6.491,4.756,9.149c2.1,1.286,4.388,2.024,6.308,2.024
			c1.851,0,3.264-0.664,4.013-1.877c0.85-1.371-0.121-2.595-0.728-3.333c-0.712-0.886-0.986-1.318-0.743-1.936
			c0.321-0.849,1.908-1.54,3.448-2.209c1.988-0.865,4.245-1.856,5.438-3.771c2.837-4.588,1.387-10.136,0.253-13.1
			c7.245,0.417,13.848-4.54,15.177-11.85C196.685,126.688,195.566,121.704,192.751,117.77z M157.376,103.125
			c0.237-0.058,0.475-0.084,0.712-0.084c1.493,0,2.79,1.028,3.128,2.531c0.189,0.828,0.042,1.688-0.417,2.415
			c-0.464,0.728-1.182,1.234-2.025,1.424c-1.724,0.391-3.47-0.754-3.839-2.446c-0.189-0.817-0.042-1.683,0.417-2.405
			C155.815,103.806,156.532,103.305,157.376,103.125z M163.44,90.414c0.465-0.723,1.182-1.237,2.025-1.413
			c0.232-0.056,0.47-0.087,0.701-0.087c1.482,0,2.811,1.052,3.133,2.531c0.179,0.815,0.042,1.685-0.411,2.392
			c-0.459,0.741-1.182,1.245-2.021,1.448c-1.803,0.39-3.475-0.738-3.844-2.444C162.834,92.001,162.982,91.137,163.44,90.414z
			 M33.1,92.84c-0.334,1.484-1.621,2.526-3.138,2.526c-0.231,0-0.472-0.026-0.698-0.082c-0.847-0.188-1.569-0.707-2.03-1.448
			c-0.454-0.722-0.588-1.577-0.409-2.402c0.335-1.464,1.651-2.521,3.133-2.521c0.232,0,0.469,0.032,0.707,0.087
			c0.836,0.176,1.556,0.69,2.02,1.413C33.142,91.137,33.287,92.001,33.1,92.84z M41.187,106.959
			c-0.366,1.688-2.138,2.827-3.833,2.447c-0.846-0.189-1.566-0.707-2.03-1.435c-0.459-0.728-0.604-1.587-0.414-2.421
			c0.335-1.481,1.635-2.525,3.125-2.525c0.24,0,0.478,0.026,0.715,0.084c0.841,0.18,1.561,0.696,2.024,1.435
			C41.231,105.271,41.376,106.131,41.187,106.959z M29.118,148.098c0.752,1.223,0.639,3.132,0.557,4.988
			c-0.113,2.236-0.237,4.541,1.155,6.043c0.773,0.823,1.73,1.245,2.879,1.245c0.648,0,1.252-0.127,1.743-0.237
			c0.189-0.053,0.374-0.095,0.556-0.116c0.221,1.06-1.063,3.375-3.963,5.179c-2.457,1.519-5.468,2.015-6.415,1.239
			c0.108-0.143,0.232-0.327,0.335-0.438c0.741-0.923,1.967-2.468,1.16-4.604c-0.733-1.908-2.84-2.831-4.891-3.723
			c-1.701-0.76-3.483-1.514-4.21-2.721c-2.075-3.349-1.118-7.631-0.206-10.23l1.877,3.032c-1.294,1.471-1.592,3.654-0.517,5.415
			c0.847,1.366,2.329,2.173,3.937,2.173c0.852,0,1.685-0.242,2.413-0.696c1.036-0.643,1.767-1.66,2.064-2.842
			c0.285-1.219,0.079-2.437-0.562-3.491c-1.034-1.683-3.138-2.404-5.028-1.972l-1.864-3.012
			C22.812,143.699,27.067,144.76,29.118,148.098z M23.083,148.841c0.667,0,1.263,0.338,1.624,0.912
			c0.269,0.428,0.351,0.949,0.237,1.445c-0.118,0.495-0.422,0.917-0.854,1.181c-0.301,0.19-0.641,0.301-0.997,0.301
			c-0.67,0-1.282-0.337-1.632-0.912c-0.562-0.891-0.285-2.078,0.612-2.615C22.384,148.946,22.735,148.841,23.083,148.841z
			 M144.493,111.357c0.237-0.053,0.475-0.079,0.723-0.079c1.477,0,2.811,1.05,3.127,2.521c0.19,0.828,0.053,1.683-0.406,2.41
			c-0.464,0.738-1.191,1.239-2.024,1.429c-1.725,0.375-3.465-0.722-3.834-2.446c-0.189-0.834-0.053-1.688,0.406-2.416
			C142.943,112.048,143.649,111.542,144.493,111.357z M89.302,82.709c-0.113-0.385-0.417-0.694-0.789-0.838
			c-0.156-0.058-0.335-0.098-0.501-0.098c-0.227,0-0.454,0.066-0.659,0.179c-1.081,0.593-2.436,0.686-3.641,0.243
			c-0.657-0.269-1.247-0.696-1.722-1.269c-0.984-1.168-1.253-2.761-0.752-4.163c0.185-0.514,0.071-1.065-0.327-1.447
			c-0.385-0.369-0.947-0.485-1.458-0.288c-0.514,0.201-1.044,0.319-1.605,0.319c-0.944,0-1.872-0.33-2.607-0.881
			c-0.578-0.442-1.016-1.015-1.313-1.69c-0.527-1.16-0.479-2.489,0.103-3.639c0.179-0.356,0.19-0.789,0.034-1.155
			c-0.153-0.364-0.482-0.638-0.854-0.762c-1.237-0.341-2.236-1.237-2.771-2.41c-0.274-0.641-0.382-1.393-0.335-2.12
			c0.127-1.514,1.039-2.813,2.452-3.488c0.482-0.222,0.783-0.715,0.772-1.236c-0.01-0.541-0.335-1.016-0.814-1.227
			c-1.393-0.588-2.371-1.901-2.587-3.404c-0.108-0.738-0.021-1.445,0.253-2.115c0.475-1.205,1.458-2.123,2.652-2.502
			c0.382-0.124,0.696-0.409,0.841-0.789c0.134-0.367,0.113-0.789-0.087-1.15c-0.62-1.128-0.717-2.462-0.253-3.644
			c0.282-0.701,0.714-1.297,1.276-1.746c1.139-0.955,2.748-1.252,4.179-0.749c0.522,0.155,1.057,0.037,1.435-0.349
			c0.358-0.377,0.472-0.949,0.271-1.439c-0.567-1.39-0.351-3.003,0.593-4.219c0.401-0.562,0.984-1.015,1.675-1.3
			c1.144-0.52,2.494-0.467,3.639,0.113c0.351,0.171,0.788,0.182,1.139,0.032c0.369-0.164,0.644-0.475,0.772-0.86
			c0.351-1.242,1.237-2.23,2.437-2.763c0.535-0.237,1.092-0.346,1.685-0.346l0.387,0.021c1.519,0.129,2.819,1.042,3.489,2.428
			c0.227,0.482,0.699,0.778,1.231,0.778c0.011,0,0.024,0,0.029,0c0.532-0.011,1.01-0.335,1.213-0.81
			c0.606-1.413,1.88-2.371,3.375-2.587c0.738-0.098,1.466,0,2.146,0.277c1.197,0.458,2.104,1.418,2.489,2.634
			c0.115,0.372,0.411,0.686,0.791,0.831c0.385,0.153,0.791,0.122,1.154-0.074c1.107-0.606,2.474-0.701,3.665-0.243
			c0.686,0.269,1.266,0.696,1.735,1.242c0.986,1.182,1.239,2.742,0.732,4.185c-0.179,0.501-0.058,1.052,0.333,1.437
			c0.379,0.361,0.954,0.485,1.455,0.274c1.408-0.562,3.027-0.334,4.224,0.588c0.564,0.427,1.013,0.994,1.313,1.679
			c0.532,1.189,0.479,2.468-0.11,3.652c-0.185,0.345-0.195,0.777-0.037,1.145c0.147,0.361,0.475,0.643,0.849,0.767
			c1.234,0.351,2.247,1.237,2.779,2.429c0.29,0.654,0.406,1.36,0.332,2.106c-0.126,1.511-1.044,2.819-2.452,3.489
			c-0.485,0.227-0.791,0.717-0.78,1.237c0.011,0.54,0.332,1.015,0.812,1.226c1.418,0.609,2.373,1.886,2.584,3.396
			c0.1,0.723,0.016,1.458-0.232,2.102c-0.485,1.231-1.461,2.138-2.679,2.521c-0.38,0.113-0.696,0.411-0.85,0.788
			c-0.132,0.369-0.11,0.799,0.096,1.16c0.622,1.137,0.722,2.458,0.247,3.663c-0.258,0.675-0.68,1.242-1.266,1.716
			c-1.144,0.983-2.747,1.237-4.16,0.752c-0.507-0.18-1.055-0.066-1.439,0.335c-0.359,0.382-0.48,0.949-0.285,1.442
			c0.564,1.403,0.338,3.035-0.575,4.221c-0.453,0.596-1.018,1.039-1.682,1.324c-1.187,0.501-2.526,0.475-3.665-0.098
			c-0.354-0.177-0.791-0.188-1.14-0.032c-0.369,0.15-0.648,0.475-0.774,0.847c-0.343,1.239-1.234,2.236-2.399,2.771
			c-0.549,0.242-1.134,0.345-1.757,0.345l-0.348-0.01c-1.526-0.135-2.824-1.063-3.488-2.463c-0.227-0.485-0.62-0.825-1.247-0.789
			c-0.535,0.01-1.01,0.335-1.221,0.82c-0.599,1.427-1.878,2.389-3.391,2.59c-0.702,0.11-1.426,0.016-2.138-0.277
			C90.615,84.896,89.702,83.928,89.302,82.709z M92.996,88.863c0.037-0.221-0.082-0.403-0.129-0.599
			c0.177,0.011,0.356,0.114,0.546,0.114c0.312,0,0.604-0.021,0.896-0.071c1.685-0.221,3.217-1.046,4.319-2.31
			c1.149,1.227,2.705,1.98,4.438,2.144c0.09,0.005,0.147-0.01,0.222-0.01c-0.101,0.237-0.206,0.469-0.148,0.738
			c1.129,6.367-0.861,12.137-5.067,15.918C93.866,101.006,91.867,95.236,92.996,88.863z M92.996,110.819
			c1.88-0.622,3.531-1.566,5.065-2.642c1.524,1.075,3.19,2.02,5.068,2.642c2.547,0.844,4.94,1.213,7.261,1.229
			c-1.719,0.771-3.38,1.677-4.883,2.89c-3.715,2.99-6.246,7.035-7.436,11.581c-1.187-4.546-3.715-8.591-7.436-11.581
			c-1.506-1.218-3.169-2.125-4.881-2.89C88.049,112.032,90.457,111.668,92.996,110.819z M47.781,113.794
			c0.324-1.466,1.648-2.516,3.127-2.516c0.248,0,0.485,0.026,0.723,0.079c0.828,0.185,1.55,0.69,2.009,1.418
			c0.459,0.729,0.594,1.582,0.406,2.426c-0.369,1.715-2.133,2.812-3.839,2.437c-0.833-0.185-1.556-0.69-2.02-1.429
			C47.744,115.497,47.591,114.627,47.781,113.794z M90.517,148.619c-3.823,4.271-9.192,6.64-15.143,6.65c-0.032,0-0.058,0-0.09,0
			c-12.15,0-19.43-7.541-25.782-16.074c-0.005-0.016,0-0.031-0.005-0.042c-0.026-0.031-0.058-0.063-0.089-0.1
			c-1.152-1.546-2.286-3.096-3.399-4.667c-0.324-0.433-0.646-0.865-0.976-1.309c0.562,0.116,1.105,0.211,1.68,0.211
			c1.667,0,3.33-0.517,4.907-1.561c3.499-2.347,4.472-7.082,2.139-10.6c-0.285-0.422-0.686-0.707-1.047-1.033
			c1.97-0.617,3.515-2.205,3.979-4.335c0.33-1.403,0.056-2.821-0.625-4.093c4.406-5.59,10.966-6.401,18.494-2.235
			c0.098,0.063,0.19,0,0.298,0.031c0.443,0.2,0.875,0.433,1.324,0.612c-0.034,0-0.071-0.032-0.103-0.021
			c-0.168,0.021-0.334,0.084-0.514,0.116c-0.383,0.026-0.762-0.037-1.145,0.016c-4.751,0.517-9.023,2.837-12.021,6.587
			c-3.009,3.729-4.369,8.405-3.845,13.162c0.875,7.989,8.04,13.711,16.087,12.941c0.738-0.085,1.273-0.749,1.197-1.492
			c-0.084-0.738-0.691-1.382-1.479-1.192c-6.5,0.628-12.398-4.019-13.126-10.536c-0.438-4.039,0.728-7.994,3.262-11.169
			c0.512-0.628,1.089-1.192,1.685-1.72c-1.469,2.916-1.946,6.497-1.173,10.173c0.638,3.037,2.426,5.653,5.044,7.335
			c1.912,1.234,4.092,1.883,6.317,1.883c0.799,0,1.627-0.084,2.426-0.258c2.516-0.544,4.649-2.01,6.049-4.166
			c1.387-2.137,1.872-4.693,1.326-7.178c-0.432-2.072-1.64-3.854-3.412-5.004c-1.772-1.16-3.884-1.572-5.972-1.118
			c-1.727,0.363-3.225,1.382-4.174,2.863c-0.741,1.145-0.979,2.452-0.937,3.775c-0.016,0.111-0.079,0.195-0.079,0.312
			c0,0.137,0.069,0.264,0.093,0.406c0.021,0.158-0.034,0.321,0.005,0.479c0.016,0.074,0.09,0.116,0.113,0.169
			c0.409,1.107,1.464,1.909,2.706,1.914c1.64,0.037,2.979-1.266,3-2.89c0.029-1.466-1.047-2.642-2.439-2.89
			c0.562-0.76,1.35-1.303,2.289-1.503c1.366-0.28,2.776-0.032,3.942,0.738c1.165,0.774,1.948,1.925,2.246,3.296
			c0.367,1.787,0.042,3.617-0.968,5.152c-1.002,1.545-2.542,2.6-4.34,2.995c-2.333,0.495-4.725,0.042-6.724-1.239
			c-1.999-1.303-3.37-3.302-3.865-5.633c-0.772-3.606-0.19-7.108,1.582-9.607c1.474-2.078,3.773-3.396,6.637-3.882
			c4.746-0.211,9.336,1.171,13.052,4.161c4.028,3.248,6.565,7.842,7.111,12.983C96.819,137.05,94.799,143.826,90.517,148.619z
			 M120.837,155.29c-0.032,0-0.063,0-0.09,0c-5.948-0.021-11.316-2.378-15.14-6.66c-4.301-4.804-6.305-11.58-5.532-18.583
			c0.557-5.143,3.08-9.751,7.108-12.983c3.713-2.995,8.321-4.383,13.047-4.161c2.848,0.49,5.168,1.804,6.634,3.887
			c1.771,2.5,2.352,6.001,1.582,9.608c-0.496,2.331-1.867,4.329-3.865,5.632c-1.999,1.287-4.393,1.729-6.724,1.234
			c-1.799-0.375-3.338-1.445-4.34-2.99c-1.013-1.535-1.335-3.365-0.955-5.163c0.285-1.36,1.065-2.526,2.236-3.28
			c1.176-0.775,2.578-1.012,3.939-0.738c0.938,0.195,1.719,0.749,2.288,1.498c-1.392,0.248-2.468,1.424-2.441,2.89
			c0.026,1.624,1.366,2.927,3.006,2.9c1.239-0.026,2.294-0.817,2.705-1.925c0.026-0.068,0.101-0.1,0.111-0.174
			c0.042-0.153-0.017-0.316,0.005-0.475c0.021-0.137,0.095-0.27,0.095-0.411c0-0.111-0.068-0.2-0.084-0.306
			c0.047-1.324-0.19-2.637-0.934-3.776c-0.965-1.466-2.447-2.499-4.171-2.858c-2.104-0.464-4.209-0.042-5.976,1.107
			c-1.771,1.166-2.979,2.933-3.406,4.994c-0.549,2.505-0.068,5.058,1.323,7.188c1.397,2.146,3.533,3.639,6.049,4.166
			c0.797,0.174,1.624,0.264,2.426,0.264c2.221,0,4.403-0.643,6.317-1.888c2.601-1.688,4.388-4.298,5.042-7.33
			c0.791-3.681,0.311-7.262-1.176-10.178c0.58,0.549,1.176,1.092,1.682,1.725c2.553,3.169,3.718,7.119,3.265,11.158
			c-0.728,6.519-6.64,11.175-13.131,10.542c-0.807-0.195-1.408,0.459-1.477,1.197c-0.095,0.754,0.459,1.418,1.197,1.486
			c8.047,0.887,15.214-4.936,16.089-12.93c0.522-4.762-0.839-9.43-3.839-13.168c-3.006-3.729-7.277-6.07-12.029-6.587
			c-0.385-0.042-0.759,0.011-1.144-0.016c-0.175-0.026-0.333-0.105-0.512-0.116c-0.037,0-0.068,0.032-0.111,0.032
			c0.448-0.19,0.881-0.411,1.324-0.606c0.116-0.037,0.205,0.016,0.306-0.048c7.525-4.161,14.059-3.354,18.494,2.236
			c-0.681,1.255-0.955,2.689-0.628,4.097c0.464,2.12,2.01,3.713,3.977,4.33c-0.358,0.332-0.775,0.617-1.044,1.033
			c-2.331,3.502-1.371,8.253,2.141,10.6c1.577,1.055,3.254,1.562,4.904,1.562c0.564,0,1.112-0.101,1.683-0.195
			c-0.333,0.442-0.654,0.859-0.981,1.303c-1.107,1.561-2.235,3.111-3.386,4.646c-0.031,0.048-0.068,0.079-0.1,0.111
			c-0.006,0.016,0,0.031-0.006,0.036C140.248,147.729,132.986,155.29,120.837,155.29z M178.111,154.969
			c-0.754,1.207-2.51,1.973-4.213,2.721c-2.052,0.892-4.161,1.814-4.889,3.724c-0.807,2.136,0.416,3.681,1.16,4.604
			c0.11,0.121,0.248,0.295,0.332,0.438c-0.954,0.754-3.95,0.274-6.412-1.239c-2.911-1.814-4.192-4.124-3.972-5.189
			c0.164,0.032,0.349,0.08,0.56,0.116c0.49,0.105,1.092,0.237,1.74,0.237c1.149,0,2.125-0.422,2.879-1.239
			c1.393-1.503,1.261-3.817,1.155-6.043c-0.105-1.856-0.195-3.771,0.559-4.989c2.041-3.306,6.238-4.382,8.997-4.735l-1.862,3.012
			c-1.882-0.428-3.971,0.29-5.025,1.956c-0.644,1.05-0.849,2.289-0.559,3.491c0.295,1.197,1.013,2.215,2.057,2.853
			c0.738,0.443,1.566,0.686,2.415,0.686c1.619,0,3.08-0.807,3.939-2.172c1.081-1.762,0.785-3.935-0.517-5.416l1.877-3.021
			C179.229,147.338,180.184,151.62,178.111,154.969z M174.035,149.137c0.896,0.553,1.176,1.729,0.611,2.615
			c-0.537,0.865-1.734,1.182-2.62,0.622c-0.428-0.274-0.738-0.686-0.85-1.191c-0.11-0.496-0.031-1.019,0.237-1.461
			c0.349-0.56,0.96-0.907,1.624-0.907C173.387,148.841,173.74,148.946,174.035,149.137z"/>
		<path d="M98.076,74.72c8.56,0,15.873-6.407,17.013-14.908c0.337-2.608,0.042-5.142-0.728-7.507
			c-0.037-0.063-0.011-0.146-0.063-0.211c-0.011-0.011-0.021-0.011-0.032-0.021c-1.223-3.607-3.596-6.71-6.771-8.828
			c-0.021-0.04-0.006-0.077-0.026-0.103c-0.121-0.163-0.332-0.205-0.501-0.303c-1.967-1.21-4.198-2.046-6.64-2.365
			c-2.283-0.295-4.509-0.113-6.597,0.443c-0.354-0.058-0.726,0.01-1.028,0.248c-0.042,0.032-0.037,0.098-0.074,0.113
			c-3.596,1.221-6.666,3.565-8.78,6.677c-0.029,0.021-0.065,0-0.103,0.021c-0.164,0.13-0.206,0.335-0.303,0.53
			c-1.237,1.991-2.133,4.258-2.463,6.716c-1.242,9.397,5.363,18.069,14.752,19.322C96.555,74.667,97.314,74.72,98.076,74.72z
			 M96.139,71.88c-1.416-0.182-2.716-0.63-3.947-1.192l4.585-3.493l3.505,4.588C98.926,71.994,97.552,72.081,96.139,71.88z
			 M103.097,71.045l-4.182-5.493l6.792-5.178l4.161,5.432C108.17,68.191,105.828,70.019,103.097,71.045z M97.267,63.419
			l-5.194-6.792l6.808-5.189l5.191,6.797L97.267,63.419z M112.41,59.461c-0.18,1.35-0.606,2.592-1.129,3.797l-3.459-4.517
			l4.466-3.417C112.51,56.669,112.6,58.04,112.41,59.461z M111.566,52.495l-5.369,4.105l-5.188-6.795l5.331-4.082
			C108.734,47.409,110.548,49.769,111.566,52.495z M98.066,43.045c0.638,0,1.278,0.032,1.927,0.119
			c1.351,0.185,2.587,0.593,3.778,1.123l-4.397,3.37l-3.38-4.428C96.674,43.132,97.359,43.045,98.066,43.045z M93.135,43.937
			l4.1,5.36l-6.8,5.197l-4.103-5.369C88.039,46.766,90.388,44.936,93.135,43.937z M83.701,55.612c0.19-1.405,0.627-2.71,1.184-3.937
			l3.423,4.454l-4.514,3.457C83.593,58.277,83.524,56.973,83.701,55.612z M84.489,62.409l5.44-4.163l5.194,6.792l-5.482,4.182
			C87.282,67.53,85.489,65.159,84.489,62.409z"/>
		<path d="M98.082,80.526c11.443,0,21.23-8.575,22.766-19.937c1.682-12.551-7.151-24.149-19.699-25.851
			c-12.717-1.679-24.197,7.373-25.864,19.744C73.6,67.042,82.454,78.636,95.01,80.32C96.041,80.458,97.066,80.526,98.082,80.526z
			 M77.945,54.839c1.35-10.033,10.001-17.605,20.121-17.605c0.896,0,1.803,0.061,2.71,0.179
			c11.085,1.484,18.879,11.729,17.392,22.811c-1.466,10.918-11.591,18.905-22.802,17.418C84.273,76.152,76.461,65.924,77.945,54.839
			z"/>
	</g>
</g>
<g>
</g>
<g>
</g>
<g>
</g>
<g>
</g>
<g>
</g>
<g>
</g>
<g>
</g>
<g>
</g>
<g>
</g>
<g>
</g>
<g>
</g>
<g>
</g>
<g>
</g>
<g>
</g>
<g>
</g>
</svg>
