<?xml version="1.0" encoding="iso-8859-1"?>
<!-- Generator: Adobe Illustrator 16.0.0, SVG Export Plug-In . SVG Version: 6.00 Build 0)  -->
<!DOCTYPE svg PUBLIC "-//W3C//DTD SVG 1.1//EN" "http://www.w3.org/Graphics/SVG/1.1/DTD/svg11.dtd">
<svg version="1.1" id="Capa_1" xmlns="http://www.w3.org/2000/svg" xmlns:xlink="http://www.w3.org/1999/xlink" x="0px" y="0px"
	 width="162.563px" height="162.564px" viewBox="0 0 162.563 162.564" style="enable-background:new 0 0 162.563 162.564;"
	 xml:space="preserve">
<g>
	<g>
		<path d="M161.756,102.616c-0.907-1.861-2.5-3.259-4.451-3.934c-3.96-1.382-8.517,0.849-9.871,4.824
			c-0.254,0.733-0.343,1.472-0.375,2.21c-6.623,1.888-12.107-1.055-19.554-6.924c0.717,0.084,1.445,0.2,2.136,0.2
			c4.551,0,8.775-1.793,12.461-5.179c0.648,0.517,1.393,0.955,2.221,1.234c0.817,0.295,1.682,0.427,2.536,0.427h0.011
			c3.296,0,6.265-2.104,7.324-5.241c1.408-4.045-0.78-8.472-4.83-9.875c-3.971-1.339-8.506,0.876-9.856,4.823
			c-0.596,1.724-0.521,3.506,0.059,5.109c-5.901,5.748-13.632,5.759-21.917-0.084c-0.115-0.096-0.264-0.121-0.39-0.18
			c-0.253-0.227-0.507-0.433-0.76-0.664c-0.807-0.76-1.65-1.52-2.489-2.278c0.338,0.016,0.696,0.095,1.034,0.095
			c4.566,0,8.774-1.777,12.456-5.168c0.664,0.517,1.402,0.971,2.235,1.247c0.812,0.285,1.677,0.428,2.531,0.428
			c3.312,0,6.265-2.112,7.336-5.255c0.675-1.951,0.559-4.061-0.364-5.935c-0.907-1.875-2.489-3.262-4.44-3.937
			c-3.96-1.382-8.511,0.864-9.877,4.828c-0.58,1.711-0.506,3.504,0.084,5.097c-5.922,5.746-13.658,5.767-21.927-0.077
			c-0.163-0.11-0.332-0.166-0.532-0.231c-5.517-3.31-11.729-5.366-19.106-4.53v-1.382c0-0.237-0.063-0.458-0.129-0.675
			c0.865,0.29,1.762,0.475,2.695,0.475c1.41,0,2.803-0.361,4.013-1.036c1.556-0.841,2.771-2.17,3.499-3.747
			c1.613,0.583,3.459,0.675,5.157,0.161c1.371-0.388,2.584-1.107,3.565-2.112c1.223-1.218,2.004-2.752,2.31-4.396
			c1.672-0.295,3.195-1.078,4.397-2.299c1.002-0.999,1.714-2.226,2.12-3.575c0.485-1.701,0.396-3.51-0.189-5.158
			c1.571-0.728,2.911-1.943,3.775-3.504c0.675-1.236,1.023-2.607,1.023-4.008c0-1.711-0.533-3.364-1.477-4.735
			c0.96-1.382,1.477-3.035,1.477-4.741c0-1.448-0.349-2.808-1.034-4.024c-0.864-1.542-2.193-2.773-3.765-3.504
			c0.58-1.624,0.675-3.428,0.179-5.145c-0.39-1.363-1.097-2.565-2.114-3.57c-1.224-1.221-2.742-2.009-4.393-2.307
			c-0.306-1.646-1.087-3.186-2.31-4.4c-0.997-1-2.194-1.701-3.576-2.118c-1.688-0.475-3.522-0.398-5.136,0.179
			c-0.749-1.571-1.948-2.9-3.505-3.747c-2.75-1.519-6.265-1.302-8.764,0.443c-2.511-1.745-6.054-1.951-8.754-0.448
			c-1.556,0.852-2.787,2.181-3.499,3.752c-1.643-0.577-3.499-0.654-5.137-0.179c-1.35,0.379-2.592,1.118-3.596,2.118
			c-1.213,1.221-1.996,2.76-2.299,4.4c-1.674,0.298-3.198,1.086-4.4,2.307c-1,1-1.725,2.236-2.107,3.576
			c-0.496,1.7-0.412,3.504,0.179,5.139c-1.571,0.746-2.911,1.962-3.765,3.504c-0.696,1.237-1.037,2.592-1.037,4.024
			c0,1.706,0.536,3.359,1.479,4.736c-0.96,1.376-1.479,3.034-1.479,4.746c0,1.426,0.34,2.776,1.037,4.023
			c0.865,1.556,2.194,2.781,3.765,3.493c-0.591,1.643-0.675,3.452-0.179,5.158c0.372,1.339,1.107,2.582,2.112,3.565
			c1.226,1.221,2.742,2.004,4.396,2.299c0.303,1.659,1.086,3.193,2.299,4.396c1,1.005,2.236,1.73,3.575,2.123
			c1.685,0.479,3.509,0.4,5.147-0.172c0.738,1.572,1.938,2.893,3.488,3.736c2.025,1.149,4.585,1.3,6.792,0.562
			c-0.079,0.222-0.129,0.454-0.129,0.702v1.392c-7.343-0.814-13.542,1.21-19.04,4.467c-0.221,0.076-0.442,0.124-0.638,0.287
			c-8.256,5.843-16.016,5.819-21.919,0.087c0.562-1.605,0.654-3.388,0.071-5.115c-1.361-3.941-5.915-6.188-9.872-4.822
			c-1.954,0.675-3.536,2.08-4.443,3.937c-0.917,1.88-1.037,3.963-0.361,5.94c1.068,3.133,4.021,5.25,7.333,5.25
			c0.857,0,1.706-0.143,2.531-0.427c0.833-0.288,1.572-0.741,2.236-1.242c3.684,3.38,7.889,5.173,12.458,5.173
			c0.335,0,0.696-0.09,1.031-0.105c-0.836,0.765-1.68,1.524-2.489,2.278c-0.253,0.232-0.509,0.438-0.762,0.67
			c-0.124,0.062-0.274,0.1-0.388,0.174c-8.269,5.843-16.013,5.838-21.914,0.084c0.562-1.603,0.654-3.385,0.059-5.104
			c-1.351-3.941-5.875-6.172-9.87-4.822c-4.04,1.397-6.194,5.824-4.817,9.869c1.067,3.138,4.028,5.241,7.343,5.241
			c0.854,0,1.695-0.137,2.529-0.422c0.836-0.295,1.563-0.732,2.228-1.238c3.678,3.391,7.902,5.178,12.453,5.178
			c0.701,0,1.432-0.11,2.144-0.2c-7.457,5.875-12.965,8.822-19.564,6.935c-0.031-0.743-0.124-1.487-0.377-2.22
			c-1.355-3.939-5.909-6.187-9.866-4.82c-4.045,1.382-6.205,5.812-4.828,9.872c1.086,3.122,4.04,5.231,7.338,5.231
			c0.854,0,1.709-0.132,2.534-0.422c1.835-0.622,3.256-1.909,4.163-3.46c1.685,0.475,3.333,0.781,4.915,0.781
			c8.203,0,15.19-5.796,23.04-12.293c2.038-1.682,4.04-3.522,6.064-5.395c-0.883,3.628-0.651,7.262,0.72,10.742
			c-4.303,1.956-15.412,8.042-17.25,19.042c-0.662,3.977,1.231,7.984,2.885,11.528c1.329,2.811,2.7,5.705,2.091,7.361
			c-0.482,1.271-1.463,1.582-3.581,1.945c-1.701,0.312-4.316,0.775-4.751,3.465c-0.459,2.722,0.944,5.479,3.937,7.747
			c2.592,1.972,6.188,3.417,10.125,4.071c1.511,0.253,3.035,0.379,4.514,0.379c6.961,0,11.918-2.747,12.625-6.986
			c0.454-2.685-1.858-3.955-3.364-4.81c-1.896-1.044-2.71-1.656-2.753-3.022c-0.05-1.776,2.186-4.076,4.356-6.301
			c2.734-2.801,5.812-5.959,6.476-9.941c1.824-10.895-6.508-20.176-10.012-23.535c-3.855-6.328-2.597-13.347,3.654-20.007
			c4.013-3.024,8.224-5.403,12.994-6.368c-2.592,1.901-4.791,4.309-6.431,7.17c-3.7,6.434-4.385,14.518-1.88,22.158
			c0.367,1.14,1.598,1.762,2.722,1.387c1.134-0.358,1.756-1.582,1.381-2.721c-2.12-6.486-1.558-13.3,1.519-18.668
			c2.365-4.116,6.172-7.037,10.723-8.543v5.69c-4.756,0.991-8.353,5.221-8.353,10.262c0,5.785,4.704,10.499,10.481,10.499
			c5.791,0,10.486-4.714,10.486-10.499c0-5.036-3.557-9.244-8.297-10.251v-5.69c4.545,1.516,8.314,4.427,10.681,8.532
			c3.08,5.368,3.649,12.182,1.514,18.668c-0.364,1.139,0.248,2.362,1.382,2.721c1.128,0.375,2.367-0.247,2.727-1.387
			c2.51-7.641,1.824-15.72-1.883-22.158c-1.656-2.872-3.855-5.284-6.452-7.19c4.78,0.954,8.978,3.33,12.991,6.367
			c6.275,6.666,7.541,13.69,3.686,20.028c-3.501,3.359-11.833,12.656-10.014,23.525c0.653,3.976,3.738,7.15,6.46,9.951
			c2.156,2.225,4.393,4.524,4.366,6.296c-0.037,1.371-0.865,1.967-2.747,3.027c-1.52,0.838-3.818,2.125-3.375,4.814
			c0.712,4.234,5.669,6.981,12.635,6.981c1.472,0,2.99-0.126,4.498-0.379c3.939-0.654,7.541-2.1,10.131-4.071
			c2.989-2.268,4.387-5.025,3.938-7.736c-0.442-2.7-3.037-3.164-4.756-3.476c-2.131-0.363-3.102-0.675-3.576-1.945
			c-0.611-1.672,0.76-4.572,2.078-7.361c1.672-3.533,3.555-7.536,2.89-11.528c-1.846-11-12.946-17.086-17.244-19.042
			c1.371-3.486,1.604-7.114,0.712-10.742c2.025,1.872,4.034,3.718,6.07,5.395c7.836,6.502,14.834,12.293,23.039,12.293
			c1.582,0,3.228-0.307,4.91-0.781c0.901,1.551,2.325,2.821,4.16,3.46c0.823,0.29,1.683,0.422,2.542,0.422
			c3.301,0,6.26-2.109,7.33-5.242C162.806,106.586,162.668,104.483,161.756,102.616z M143.584,86.579
			c0.479-1.392,1.793-2.322,3.264-2.322c0.375,0,0.765,0.065,1.118,0.171c1.793,0.622,2.764,2.59,2.136,4.388
			c-0.602,1.751-2.626,2.731-4.382,2.136C143.927,90.35,142.967,88.382,143.584,86.579z M129.003,74.801
			c0.495-1.397,1.793-2.336,3.264-2.336c0.38,0,0.76,0.069,1.118,0.187c0.875,0.304,1.571,0.926,1.973,1.746
			c0.396,0.82,0.464,1.759,0.152,2.624c-0.596,1.751-2.6,2.731-4.382,2.139C129.346,78.566,128.401,76.594,129.003,74.801z
			 M31.373,79.18c-1.78,0.572-3.784-0.382-4.385-2.144c-0.311-0.856-0.248-1.798,0.153-2.618c0.409-0.82,1.107-1.458,1.97-1.743
			c0.364-0.122,0.751-0.19,1.123-0.19c1.469,0,2.782,0.938,3.262,2.339C34.128,76.594,33.16,78.566,31.373,79.18z M16.8,90.966
			c-1.772,0.591-3.787-0.385-4.385-2.136c-0.612-1.793,0.345-3.754,2.138-4.387c0.351-0.116,0.738-0.18,1.118-0.18
			c1.464,0,2.787,0.928,3.262,2.32C19.542,88.382,18.593,90.35,16.8,90.966z M8.855,109.282c-1.759,0.601-3.763-0.38-4.38-2.142
			c-0.614-1.798,0.335-3.765,2.139-4.382c0.351-0.127,0.741-0.19,1.112-0.19c1.463,0,2.782,0.934,3.262,2.326
			C11.621,106.698,10.653,108.659,8.855,109.282z M74.586,67.265c-1.236-0.675-2.015-1.967-2.064-3.38
			c-0.021-0.85-0.546-1.611-1.324-1.931c-0.789-0.324-1.685-0.15-2.315,0.422c-1.015,0.968-2.494,1.34-3.86,0.939
			c-0.638-0.171-1.231-0.527-1.703-1.01c-0.841-0.846-1.263-2.017-1.16-3.217c0.066-0.633-0.356-1.257-0.81-1.706
			c-0.401-0.406-1.097-0.623-1.685-0.623c-1.237,0.026-2.236-0.355-3.035-1.165c-0.485-0.475-0.82-1.065-1.015-1.701
			c-0.396-1.373-0.042-2.813,0.939-3.862c0.583-0.62,0.762-1.517,0.422-2.315c-0.335-0.788-1.087-1.302-1.928-1.323
			c-1.432-0.037-2.689-0.799-3.375-2.052c-0.335-0.601-0.509-1.247-0.509-1.935c0-1.197,0.53-2.32,1.447-3.077
			c0.504-0.398,0.789-1.015,0.789-1.669c0-0.63-0.285-1.242-0.789-1.661c-0.917-0.767-1.453-1.896-1.453-3.075
			c0-0.69,0.164-1.339,0.493-1.927c0.686-1.237,1.975-2.014,3.396-2.067c0.836-0.029,1.603-0.546,1.917-1.329
			c0.33-0.788,0.155-1.685-0.417-2.307c-0.97-1.026-1.323-2.51-0.938-3.855c0.182-0.654,0.535-1.236,1.015-1.717
			c0.757-0.751,1.761-1.149,3.196-1.149c0.644,0.053,1.276-0.158,1.729-0.622c0.454-0.454,0.686-1.078,0.614-1.717
			c-0.113-1.205,0.325-2.365,1.166-3.219c0.477-0.475,1.049-0.809,1.703-1.01c1.326-0.372,2.813-0.026,3.854,0.947
			c0.615,0.566,1.495,0.738,2.31,0.408c0.789-0.321,1.297-1.073,1.324-1.917c0.061-1.413,0.833-2.71,2.075-3.385
			c1.656-0.917,3.805-0.496,5.01,0.962c0.411,0.496,1.015,0.788,1.669,0.788l0,0c0.644-0.01,1.247-0.303,1.664-0.788
			c1.203-1.447,3.335-1.88,5.015-0.952c1.231,0.675,2.009,1.973,2.06,3.375c0.021,0.854,0.556,1.611,1.326,1.923
			c0.775,0.334,1.682,0.163,2.305-0.404c1.022-0.973,2.547-1.329,3.844-0.957c0.67,0.195,1.239,0.545,1.725,1.015
			c0.833,0.854,1.255,2.025,1.16,3.22c-0.063,0.643,0.348,1.263,0.802,1.706c0.411,0.412,1.097,0.623,1.692,0.623
			c1.129-0.019,2.236,0.355,3.038,1.16c0.484,0.485,0.812,1.057,1.012,1.711c0.391,1.371,0.043,2.813-0.938,3.85
			c-0.58,0.617-0.749,1.524-0.422,2.317c0.332,0.789,1.076,1.308,1.931,1.329c1.429,0.053,2.689,0.81,3.385,2.078
			c0.333,0.572,0.496,1.236,0.496,1.911c0,1.2-0.527,2.328-1.455,3.08c-0.501,0.403-0.791,1.015-0.791,1.661
			c0.005,0.644,0.29,1.255,0.791,1.68c0.917,0.762,1.45,1.88,1.45,3.056c0,0.675-0.169,1.329-0.501,1.925
			c-0.696,1.236-1.951,2.02-3.386,2.067c-0.85,0.021-1.614,0.556-1.925,1.329c-0.332,0.788-0.153,1.685,0.422,2.31
			c0.98,1.044,1.334,2.489,0.943,3.868c-0.189,0.63-0.548,1.236-1.012,1.7c-0.765,0.754-1.793,1.118-3.196,1.15
			c-0.622-0.037-1.276,0.168-1.729,0.623c-0.453,0.458-0.686,1.078-0.622,1.722c0.116,1.194-0.316,2.365-1.16,3.195
			c-0.475,0.493-1.05,0.823-1.714,1.016c-1.329,0.385-2.816,0.039-3.845-0.939c-0.611-0.572-1.519-0.741-2.305-0.427
			c-0.788,0.33-1.305,1.081-1.331,1.933c-0.056,1.411-0.833,2.705-2.07,3.38c-1.645,0.92-3.807,0.499-5.009-0.959
			c-0.412-0.488-1.015-0.789-1.674-0.789s-1.237,0.3-1.674,0.789C78.38,67.771,76.2,68.188,74.586,67.265z M48.438,120.097
			c0.206,0,0.417,0.021,0.622,0.058c2.052,0.343,3.444,2.294,3.099,4.346c-0.34,2.02-2.289,3.449-4.335,3.09
			c-1.005-0.168-1.875-0.712-2.447-1.529c-0.583-0.812-0.815-1.813-0.654-2.811C45.042,121.431,46.603,120.097,48.438,120.097z
			 M60.176,127.511c-0.43,2.643-2.908,5.189-5.302,7.646c-2.785,2.848-5.664,5.822-5.561,9.419c0.113,3.971,3.148,5.674,4.967,6.671
			c0.454,0.253,1.134,0.627,1.21,0.337c-0.303,1.656-3.488,3.344-8.376,3.344c-1.213,0-2.484-0.111-3.784-0.327
			c-3.214-0.532-6.199-1.708-8.219-3.254c-1.611-1.229-2.457-2.567-2.57-3.132c0.211-0.132,1.01-0.274,1.516-0.364
			c2.06-0.358,5.498-0.976,6.864-4.704c1.252-3.369-0.506-7.098-2.207-10.715c-1.463-3.091-2.993-6.308-2.55-8.944
			c1.242-7.456,8.208-12.308,12.583-14.708l-1.189,7.072c-3.546,0.38-6.468,3.043-7.084,6.666c-0.356,2.135,0.137,4.271,1.395,6.021
			c1.257,1.756,3.119,2.922,5.263,3.28c0.443,0.074,0.886,0.11,1.329,0.11c3.965,0,7.312-2.831,7.976-6.755
			c0.612-3.665-1.381-7.14-4.606-8.644l1.189-7.098c0.011,0,0.011,0,0.011,0C56.382,113.115,61.442,119.997,60.176,127.511z
			 M87.427,95.048c0,3.412-2.766,6.19-6.167,6.19s-6.167-2.784-6.167-6.19c0-3.401,2.766-6.165,6.167-6.165
			S87.427,91.647,87.427,95.048z M113.446,120.155c0.211-0.037,0.422-0.058,0.627-0.058c1.841,0,3.401,1.329,3.718,3.153
			c0.158,0.997-0.073,1.993-0.653,2.811c-0.575,0.823-1.461,1.361-2.437,1.529c-0.211,0.037-0.422,0.053-0.622,0.053
			c-1.856,0-3.418-1.323-3.713-3.143C110.008,122.449,111.399,120.503,113.446,120.155z M126.355,123.503
			c0.442,2.637-1.065,5.854-2.542,8.954c-1.698,3.618-3.476,7.336-2.22,10.705c1.397,3.729,4.841,4.356,6.876,4.704
			c0.507,0.095,1.266,0.228,1.245-0.063c0.147,1.013-0.707,2.353-2.3,3.561c-2.02,1.529-5.021,2.71-8.216,3.253
			c-6.561,1.087-11.802-1.102-12.276-2.531c0.163-0.194,0.864-0.58,1.323-0.838c1.819-1.013,4.867-2.7,4.968-6.671
			c0.105-3.597-2.79-6.571-5.574-9.419c-2.389-2.457-4.856-5.004-5.3-7.646c-1.244-7.504,3.808-14.386,7.172-18.046l1.192,7.083
			c-3.228,1.487-5.221,4.978-4.609,8.643c0.648,3.924,4.003,6.771,7.984,6.771c0.442,0,0.886-0.053,1.339-0.116
			c2.131-0.358,3.987-1.523,5.247-3.28c1.25-1.756,1.751-3.902,1.403-6.027c-0.612-3.617-3.502-6.296-7.088-6.665l-1.191-7.066
			C118.149,111.174,125.101,116.032,126.355,123.503z M158.038,107.14c-0.602,1.756-2.584,2.753-4.382,2.142
			c-1.799-0.612-2.753-2.59-2.142-4.388c0.49-1.393,1.788-2.326,3.265-2.326c0.374,0,0.759,0.063,1.128,0.19
			c0.86,0.301,1.572,0.917,1.968,1.745C158.291,105.336,158.333,106.276,158.038,107.14z"/>
		<path d="M100.742,37.542c0-10.708-8.712-19.428-19.44-19.428c-2.731,0-5.324,0.567-7.694,1.604
			c-0.372,0.092-0.756,0.242-1.025,0.541c-0.011,0.01-0.021,0.032-0.034,0.042c-3.681,1.88-6.642,4.849-8.509,8.537
			c-0.05,0.037-0.103,0.048-0.124,0.093c-0.4,0.388-0.591,0.917-0.617,1.447c-0.891,2.212-1.413,4.638-1.413,7.188
			c0,2.558,0.527,4.994,1.429,7.23c0.045,0.501,0.221,0.994,0.601,1.371c0.032,0.031,0.074,0.042,0.108,0.071
			c1.867,3.715,4.854,6.706,8.553,8.601c0.011,0,0.011,0.011,0.011,0.011c0.285,0.292,0.63,0.442,1.01,0.535
			c2.365,1.036,4.983,1.629,7.739,1.629C92.03,56.977,100.742,48.268,100.742,37.542z M78.148,52.318l3.045-3.04l3.096,3.082
			c-0.973,0.189-1.962,0.309-2.987,0.309C80.229,52.658,79.174,52.526,78.148,52.318z M88.7,50.649l-4.438-4.44l5.608-5.611
			l4.469,4.467C92.99,47.403,91.055,49.32,88.7,50.649z M81.199,43.142l-5.611-5.611l5.611-5.611l5.616,5.611L81.199,43.142z
			 M96.434,37.542c0,1.086-0.116,2.133-0.337,3.143l-3.159-3.153l3.153-3.153C96.297,35.403,96.434,36.463,96.434,37.542z
			 M94.335,30.008l-4.464,4.467l-5.608-5.611l4.427-4.422C91.044,25.771,92.979,27.683,94.335,30.008z M84.284,22.742l-3.085,3.071
			l-3.035-3.034c1.015-0.217,2.075-0.335,3.148-0.335C82.327,22.438,83.311,22.546,84.284,22.742z M73.79,24.524l4.353,4.346
			l-5.61,5.61l-4.314-4.313C69.547,27.817,71.464,25.879,73.79,24.524z M66.204,37.542c0-1.015,0.113-2.001,0.303-2.975l2.964,2.964
			l-2.964,2.972C66.317,39.535,66.204,38.557,66.204,37.542z M68.208,44.914l4.324-4.321l5.61,5.611l-4.369,4.364
			C71.454,49.207,69.537,47.268,68.208,44.914z"/>
	</g>
</g>
<g>
</g>
<g>
</g>
<g>
</g>
<g>
</g>
<g>
</g>
<g>
</g>
<g>
</g>
<g>
</g>
<g>
</g>
<g>
</g>
<g>
</g>
<g>
</g>
<g>
</g>
<g>
</g>
<g>
</g>
</svg>
