<?xml version="1.0" encoding="iso-8859-1"?>
<!-- Generator: Adobe Illustrator 16.0.0, SVG Export Plug-In . SVG Version: 6.00 Build 0)  -->
<!DOCTYPE svg PUBLIC "-//W3C//DTD SVG 1.1//EN" "http://www.w3.org/Graphics/SVG/1.1/DTD/svg11.dtd">
<svg version="1.1" id="Capa_1" xmlns="http://www.w3.org/2000/svg" xmlns:xlink="http://www.w3.org/1999/xlink" x="0px" y="0px"
	 width="254.344px" height="254.344px" viewBox="0 0 254.344 254.344" style="enable-background:new 0 0 254.344 254.344;"
	 xml:space="preserve">
<g>
	<path d="M230.012,102.815c-8.732,0-16.344,4.665-20.654,11.594V93.681c0-1.376-1.121-2.494-2.484-2.494
		c-1.358,0-2.497,1.136-2.497,2.494c0,11.983-9.736,21.738-21.72,21.738c-9.316,0-16.892-7.578-16.892-16.891
		c0-3.486,1.358-6.759,3.794-9.226c2.472-2.46,5.712-3.796,9.2-3.796h0.013c5.468,0,9.919,4.448,9.919,9.917
		c0,2.311-1.15,4.308-2.801,5.672c-0.427-2.326-2.375-4.113-4.822-4.113c-2.74,0-4.993,2.226-4.993,4.993
		c0,2.07,1.267,3.849,3.057,4.604c0.432,0.74,1.199,1.264,2.131,1.264c6.856,0,12.422-5.587,12.422-12.419
		c0-8.221-6.686-14.909-14.9-14.909c-0.012,0-0.024,0-0.036,0c-1.632,0-3.19,0.292-4.713,0.69c1.096-2.962,1.76-6.104,1.76-9.426
		c0-1.392-1.121-2.484-2.479-2.484c-1.389,0-2.49,1.124-2.49,2.484c0,12.443-10.133,22.551-22.579,22.551
		c-9.682,0-17.549-7.882-17.549-17.546c0-5.541,3.337-10.275,8.123-12.37c0.073,2.938,2.454,5.3,5.396,5.3
		c2.983,0,5.406-2.426,5.406-5.419c0-2.277-1.425-4.202-3.422-5.008c-0.463-0.597-1.145-1.02-1.948-1.02
		c-7.66,0-14.228,4.664-17.059,11.277c-2.826-6.622-9.408-11.29-17.059-11.29c-0.81,0-1.492,0.411-1.945,1.02
		c-2.034,0.779-3.504,2.719-3.504,5.021c0,2.993,2.438,5.419,5.413,5.419s5.355-2.39,5.398-5.346
		c4.807,2.085,8.181,6.859,8.181,12.422c0,9.685-7.895,17.558-17.558,17.558c-12.446,0-22.573-10.12-22.573-22.563
		c0-1.379-1.12-2.496-2.487-2.496c-1.379,0-2.487,1.123-2.487,2.496c0,3.334,0.679,6.491,1.772,9.451
		c-1.516-0.423-3.087-0.715-4.747-0.715c-8.211,0-14.916,6.683-14.916,14.921c0,6.856,5.587,12.407,12.428,12.407
		c0.834,0,1.541-0.423,1.988-1.072c1.867-0.704,3.2-2.494,3.2-4.622c0-2.743-2.232-4.999-4.997-4.999
		c-2.405,0-4.302,1.714-4.807,3.985c-1.69-1.379-2.834-3.361-2.834-5.7c0-5.468,4.445-9.928,9.919-9.928
		c7.17,0,13.025,5.849,13.025,13.034c0,9.301-7.587,16.891-16.891,16.891c-12.008,0-21.748-9.739-21.748-21.738
		c0-1.376-1.124-2.481-2.494-2.481c-1.373,0-2.484,1.124-2.484,2.481v20.728c-4.296-6.914-11.907-11.578-20.651-11.578
		C10.924,102.849,0,113.772,0,127.178c0,13.402,10.93,24.338,24.335,24.338c8.732,0,16.343-4.658,20.651-11.587v20.727
		c0,1.377,1.124,2.479,2.484,2.479c1.382,0,2.494-1.12,2.494-2.479c0-11.982,9.74-21.738,21.748-21.738
		c9.304,0,16.891,7.594,16.891,16.892c0,7.186-5.849,13.037-13.025,13.037c-5.474,0-9.919-4.464-9.919-9.932
		c0-2.308,1.145-4.293,2.804-5.657c0.423,2.326,2.369,4.099,4.819,4.099c2.743,0,4.996-2.21,4.996-4.993
		c0-2.07-1.26-3.849-3.057-4.585c-0.423-0.755-1.197-1.278-2.131-1.278c-6.853,0-12.428,5.577-12.428,12.415
		c0,8.208,6.686,14.913,14.915,14.925c1.66,0,3.225-0.293,4.738-0.707c-1.09,2.947-1.763,6.102-1.763,9.427
		c0,1.376,1.121,2.496,2.488,2.496c1.379,0,2.487-1.12,2.487-2.496c0-12.446,10.126-22.579,22.572-22.579
		c9.682,0,17.558,7.88,17.558,17.574c0,5.541-3.349,10.29-8.138,12.396c-0.055-2.965-2.436-5.328-5.374-5.328
		c-2.987,0-5.413,2.442-5.413,5.408c0,2.289,1.422,4.213,3.413,5.035c0.453,0.609,1.15,1.005,1.951,1.005
		c7.663,0,14.228-4.634,17.053-11.277c2.832,6.619,9.401,11.296,17.065,11.296c0.815,0,1.485-0.414,1.948-1.023
		c2.033-0.779,3.495-2.728,3.495-5.042c0-2.983-2.436-5.407-5.407-5.407c-2.966,0-5.371,2.399-5.407,5.334
		c-4.798-2.082-8.172-6.874-8.172-12.422c0-9.693,7.88-17.536,17.549-17.536c12.446,0,22.579,10.12,22.579,22.554
		c0,1.389,1.12,2.497,2.49,2.497s2.479-1.133,2.479-2.497c0-3.312-0.676-6.479-1.772-9.438c1.528,0.401,3.1,0.693,4.737,0.693
		c0.013,0,0.013,0,0.013,0c8.202,0,14.912-6.674,14.912-14.912c0-6.862-5.584-12.434-12.422-12.434c-0.84,0-1.547,0.438-1.985,1.078
		c-1.875,0.725-3.202,2.514-3.202,4.633c0,2.753,2.24,5,4.993,5c2.411,0,4.299-1.705,4.798-3.977
		c1.692,1.37,2.838,3.361,2.838,5.699c0,5.469-4.445,9.913-9.913,9.913c0,0,0,0-0.013,0c-3.482,0-6.734-1.352-9.194-3.806
		c-2.466-2.447-3.812-5.724-3.812-9.213c0-9.316,7.587-16.891,16.891-16.891c11.996,0,21.738,9.748,21.738,21.738
		c0,1.376,1.133,2.49,2.497,2.49c1.352,0,2.478-1.133,2.478-2.49v-20.729c4.293,6.924,11.904,11.588,20.648,11.588
		c13.421,0,24.345-10.924,24.345-24.338C254.344,113.736,243.426,102.815,230.012,102.815z M248.242,124.666h-36.468
		c2.558-3.094,9.48-5.849,18.237-5.849C238.762,118.817,245.685,121.572,248.242,124.666z M211.774,129.655h36.468
		c-2.558,3.094-9.486,5.834-18.23,5.834C221.255,135.489,214.344,132.749,211.774,129.655z M230.012,107.811
		c7.051,0,13.146,3.809,16.532,9.465c-4.293-2.146-10.005-3.449-16.532-3.449c-6.491,0-12.282,1.367-16.6,3.556
		C216.786,111.684,222.918,107.811,230.012,107.811z M42.518,124.666H6.062c2.555-3.094,9.484-5.849,18.231-5.849
		S39.963,121.572,42.518,124.666z M6.062,129.655h36.462c-2.561,3.094-9.484,5.834-18.231,5.834S8.622,132.749,6.062,129.655z
		 M24.286,107.811c7.045,0,13.156,3.809,16.542,9.465c-4.29-2.146-10.007-3.449-16.542-3.449c-6.533,0-12.257,1.303-16.541,3.449
		C11.131,111.632,17.247,107.811,24.286,107.811z M24.286,146.511c-7.051,0-13.162-3.806-16.547-9.475
		c4.29,2.143,10.007,3.446,16.547,3.446c6.54,0,12.264-1.304,16.547-3.446C37.454,142.687,31.338,146.511,24.286,146.511z
		 M182.632,133.906c-12.087,0-21.902,9.815-21.902,21.884c0,0.841,0.134,1.645,0.243,2.461c-3.817-2.004-8.147-3.258-12.775-3.258
		c-9.669,0-17.862,6.149-21.059,14.693c-3.2-8.574-11.399-14.718-21.075-14.718c-4.627,0-8.948,1.254-12.771,3.27
		c0.119-0.804,0.25-1.607,0.25-2.448c0-12.068-9.813-21.884-21.897-21.884c-8.96,0-16.897,4.421-21.738,11.204v-8.221l8.586-5.821
		c0.575-0.39,0.944-0.901,1.336-1.413h36.508c1.008,2.606,3.504,4.47,6.463,4.47c0.682,0,1.303-0.207,1.946-0.39v3.508
		c0,0.926,0.511,1.777,1.331,2.204c0.365,0.194,0.767,0.292,1.172,0.292c0.49,0,0.978-0.128,1.416-0.408l11.198-7.617
		c1.541-1.035,2.43-2.582,2.43-4.226c0-1.656-0.883-3.203-2.423-4.238l-11.204-7.59c-0.768-0.524-1.766-0.572-2.57-0.144
		c-0.816,0.438-1.328,1.279-1.328,2.208v2.85c-0.642-0.168-1.248-0.387-1.945-0.387c-2.969,0-5.462,1.884-6.46,4.49H60.353
		c-0.414-0.791-1.005-1.51-1.833-2.058l-8.595-5.831v-7.575c4.841,6.783,12.796,11.204,21.738,11.204
		c12.084,0,21.896-9.81,21.896-21.885c0-0.85-0.131-1.665-0.25-2.472c3.83,2.015,8.138,3.27,12.772,3.27
		c9.669,0,17.869-6.144,21.068-14.706c3.191,8.574,11.402,14.717,21.071,14.717c4.628,0,8.951-1.254,12.764-3.267
		c-0.116,0.804-0.231,1.62-0.231,2.457c0,12.075,9.815,21.885,21.896,21.885c8.951,0,16.891-4.421,21.726-11.204v8.211l-8.598,5.83
		c-0.572,0.387-0.938,0.911-1.327,1.422h-36.505c-1.011-2.606-3.501-4.49-6.467-4.49c-0.676,0-1.303,0.207-1.942,0.387v-3.499
		c0-0.922-0.512-1.763-1.327-2.208c-0.804-0.423-1.803-0.387-2.569,0.144l-11.208,7.59c-1.534,1.047-2.414,2.582-2.414,4.226
		c0,1.66,0.88,3.194,2.414,4.241l11.208,7.6c0.42,0.28,0.907,0.426,1.412,0.426c0.39,0,0.804-0.097,1.169-0.292
		c0.816-0.426,1.328-1.279,1.328-2.211v-2.861c0.651,0.17,1.254,0.39,1.948,0.39c2.959,0,5.456-1.869,6.467-4.476h35.999
		c0.408,0.792,1.011,1.492,1.839,2.059l8.586,5.827v7.575C199.523,138.327,191.589,133.906,182.632,133.906z M230.012,146.511
		c-7.058,0-13.165-3.806-16.551-9.475c4.293,2.143,10.017,3.446,16.551,3.446c6.54,0,12.264-1.304,16.544-3.435
		C243.17,142.687,237.062,146.511,230.012,146.511z"/>
</g>
<g>
</g>
<g>
</g>
<g>
</g>
<g>
</g>
<g>
</g>
<g>
</g>
<g>
</g>
<g>
</g>
<g>
</g>
<g>
</g>
<g>
</g>
<g>
</g>
<g>
</g>
<g>
</g>
<g>
</g>
</svg>
