<?xml version="1.0" encoding="iso-8859-1"?>
<!-- Generator: Adobe Illustrator 16.0.0, SVG Export Plug-In . SVG Version: 6.00 Build 0)  -->
<!DOCTYPE svg PUBLIC "-//W3C//DTD SVG 1.1//EN" "http://www.w3.org/Graphics/SVG/1.1/DTD/svg11.dtd">
<svg version="1.1" id="Capa_1" xmlns="http://www.w3.org/2000/svg" xmlns:xlink="http://www.w3.org/1999/xlink" x="0px" y="0px"
	 width="173.125px" height="173.125px" viewBox="0 0 173.125 173.125" style="enable-background:new 0 0 173.125 173.125;"
	 xml:space="preserve">
<g>
	<g>
		<path d="M138.262,54.335c1.687-2.152,2.618-4.819,2.618-7.608c0.013-2.088-0.523-4.171-1.546-6.01
			c-1.432-2.594-3.758-4.558-6.467-5.587c1.193-2.648,1.449-5.681,0.651-8.543c-0.603-1.994-1.687-3.833-3.148-5.31
			c-1.979-1.979-4.53-3.206-7.24-3.538c-0.358-2.725-1.576-5.267-3.543-7.246c-1.449-1.464-3.289-2.554-5.328-3.148
			c-2.819-0.81-5.889-0.56-8.52,0.618c-1.022-2.707-2.989-5.027-5.59-6.467C95.888-0.86,90.31-0.36,86.544,2.577
			c-3.767-2.938-9.298-3.455-13.625-1.081c-2.594,1.434-4.545,3.754-5.586,6.467c-2.631-1.184-5.742-1.416-8.537-0.618
			c-1.994,0.582-3.845,1.666-5.325,3.142c-1.963,1.979-3.203,4.527-3.522,7.24c-2.731,0.338-5.267,1.559-7.252,3.541
			c-1.471,1.474-2.555,3.319-3.136,5.319c-0.828,2.85-0.572,5.882,0.63,8.537c-2.719,1.029-5.039,2.987-6.479,5.587
			c-1.017,1.851-1.541,3.934-1.528,5.992c0,2.795,0.919,5.462,2.622,7.621c-1.69,2.155-2.622,4.825-2.622,7.633
			c0,2.125,0.527,4.144,1.547,5.991c1.428,2.601,3.76,4.558,6.46,5.587c-1.184,2.649-1.434,5.688-0.63,8.528
			c0.582,2.009,1.666,3.848,3.136,5.322c1.979,1.979,4.521,3.209,7.246,3.543c0.344,2.729,1.565,5.268,3.535,7.24
			c1.467,1.486,3.318,2.576,5.325,3.148c2.801,0.81,5.895,0.566,8.525-0.621c0.429,1.145,1.124,2.149,1.851,3.117
			c-1.403-0.39-2.837-0.736-4.369-0.919c-12.005-1.479-23.09,7.124-24.582,19.187c-1.19,9.938,5.888,19.004,15.777,20.204
			c0.643,0.085,1.267,0.122,1.888,0.122c3.312,0,6.531-1.097,9.191-3.173c3.161-2.472,5.17-6.022,5.657-10.005
			c0.411-3.312-0.487-6.588-2.539-9.219c-1.516-1.948-3.522-3.361-5.818-4.135c-2.195-1.656-5.261-1.607-7.258,0.378
			c-1.708,1.687-2.089,4.159-1.178,6.235c0.225,0.949,0.612,1.875,1.354,2.631c2.183,2.21,5.724,2.24,7.925,0.085
			c0.53-0.53,0.922-1.146,1.203-1.784c1.072,1.528,1.583,3.349,1.361,5.212c-0.326,2.655-1.666,5.036-3.766,6.674
			c-2.11,1.65-4.692,2.381-7.401,2.04c-7.167-0.877-12.309-7.441-11.441-14.656c1.157-9.322,9.682-15.973,19.022-14.84
			c11.959,1.462,18.73,10.272,19.086,24.813c0.012,0.706,0.344,1.333,0.816,1.778v36.193c0,1.383,1.136,2.49,2.494,2.49
			c1.379,0,2.496-1.113,2.496-2.49v-36.279c0.436-0.42,0.703-1.004,0.716-1.687c0.344-14.534,7.118-23.346,19.09-24.813
			c9.304-1.169,17.847,5.512,19.01,14.828c0.865,7.215-4.263,13.785-11.447,14.662c-2.631,0.335-5.285-0.396-7.398-2.04
			c-2.106-1.644-3.446-4.024-3.77-6.674c-0.219-1.863,0.293-3.684,1.364-5.212c0.28,0.651,0.682,1.254,1.206,1.79
			c2.204,2.168,5.76,2.138,7.934-0.085c0.743-0.756,1.139-1.693,1.37-2.655c0.889-2.07,0.499-4.536-1.205-6.211
			c-1.985-1.973-5.042-2.027-7.223-0.39c-2.301,0.773-4.305,2.192-5.845,4.146c-2.046,2.631-2.966,5.906-2.546,9.226
			c0.5,3.982,2.509,7.526,5.663,9.998c2.667,2.077,5.852,3.173,9.194,3.173c0.621,0,1.242-0.037,1.876-0.122
			c9.9-1.199,16.995-10.267,15.783-20.216c-1.486-12.057-12.532-20.643-24.563-19.169c-1.529,0.183-2.984,0.53-4.391,0.92
			c0.725-0.962,1.425-1.974,1.851-3.118c2.644,1.193,5.736,1.425,8.55,0.615c2.003-0.591,3.842-1.681,5.31-3.148
			c1.985-1.967,3.215-4.518,3.544-7.24c2.728-0.334,5.273-1.559,7.258-3.549c1.468-1.48,2.552-3.319,3.13-5.313
			c0.828-2.85,0.572-5.888-0.639-8.537c2.722-1.035,5.048-2.993,6.479-5.593c1.011-1.842,1.547-3.909,1.547-5.995
			C140.88,59.143,139.937,56.473,138.262,54.335z M84.069,115.516c-1.504-2.728-3.361-5.084-5.623-6.99
			c1.945,0.067,3.857-0.279,5.623-1.084V115.516z M89.062,115.346v-7.886c1.592,0.719,3.276,1.23,5.075,1.23
			c0.101,0,0.195-0.037,0.308-0.037C92.287,110.486,90.523,112.758,89.062,115.346z M134.974,65.515
			c-1.267,2.277-3.666,3.742-6.271,3.821l-5.541,0.17l3.781,4.034c1.814,1.933,2.472,4.6,1.729,7.146
			c-0.342,1.184-0.987,2.287-1.863,3.167c-1.571,1.559-3.758,2.326-5.943,2.141l-2.99-0.274l0.269,2.98
			c0.194,2.217-0.585,4.379-2.156,5.943c-0.889,0.895-1.942,1.522-3.166,1.875c-2.466,0.707-5.249,0.055-7.143-1.735l-4.024-3.8
			l-0.159,5.548c-0.072,2.612-1.534,5.011-3.806,6.266c-3.044,1.692-7.042,0.919-9.282-1.76l-1.934-2.308l-1.918,2.308
			c-2.22,2.679-6.248,3.44-9.268,1.754c-2.274-1.255-3.739-3.653-3.815-6.272l-0.162-5.547l-4.028,3.8
			c-1.909,1.79-4.628,2.46-7.146,1.729c-1.2-0.342-2.265-0.969-3.169-1.869c-1.571-1.56-2.351-3.727-2.149-5.949l0.268-2.984
			l-2.986,0.277c-2.135,0.204-4.36-0.575-5.919-2.134c-0.904-0.898-1.528-1.964-1.888-3.178c-0.725-2.533-0.076-5.204,1.738-7.146
			l3.791-4.049l-5.547-0.149c-2.609-0.066-5.021-1.525-6.275-3.803c-0.615-1.096-0.91-2.308-0.91-3.58
			c0-2.22,0.962-4.296,2.676-5.712l2.32-1.918l-2.302-1.909c-1.69-1.41-2.676-3.486-2.676-5.718
			c-0.012-1.239,0.301-2.445,0.91-3.559c1.261-2.277,3.669-3.742,6.275-3.812l5.535-0.155l-3.778-4.041
			c-1.79-1.915-2.469-4.646-1.738-7.139c0.362-1.215,0.983-2.29,1.888-3.182c1.564-1.565,3.772-2.345,5.931-2.138l2.987,0.274
			l-0.28-2.993c-0.201-2.201,0.566-4.363,2.137-5.928c0.88-0.886,1.964-1.528,3.182-1.872c2.469-0.71,5.237-0.055,7.14,1.732
			l4.028,3.812l0.155-5.55c0.088-2.606,1.547-5.014,3.809-6.266c3.044-1.677,7.078-0.898,9.292,1.763l1.927,2.314l1.924-2.32
			c2.216-2.685,6.239-3.428,9.271-1.763c2.271,1.264,3.738,3.666,3.806,6.266l0.134,5.557l4.05-3.806
			c1.905-1.775,4.688-2.436,7.143-1.745c1.218,0.362,2.289,0.993,3.178,1.884c1.571,1.559,2.351,3.727,2.156,5.94l-0.269,2.986
			l2.99-0.274c2.155-0.186,4.372,0.573,5.919,2.131c0.9,0.907,1.534,1.979,1.888,3.182c0.73,2.539,0.072,5.206-1.742,7.14
			l-3.781,4.04l5.554,0.155c2.605,0.076,5.005,1.534,6.26,3.818c0.627,1.108,0.925,2.308,0.913,3.571
			c0,2.219-0.975,4.296-2.697,5.711l-2.314,1.927l2.314,1.921c1.705,1.403,2.697,3.479,2.709,5.684
			C135.9,63.195,135.595,64.413,134.974,65.515z"/>
		<path d="M86.599,23.896c-16.685,0-30.26,13.573-30.26,30.257c0,16.682,13.576,30.257,30.26,30.257
			c16.693,0,30.272-13.576,30.272-30.257C116.872,37.462,103.287,23.896,86.599,23.896z M86.599,28.876
			c2.302,0,4.49,0.405,6.622,0.993l-6.802,6.789l-6.692-6.71C81.922,29.324,84.2,28.876,86.599,28.876z M96.826,54.122
			L86.419,64.535L76.007,54.122L86.419,43.71L96.826,54.122z M74.691,31.994l8.187,8.193L72.466,50.6l-8.144-8.145
			C66.678,38.004,70.283,34.381,74.691,31.994z M61.341,54.152c0-2.311,0.405-4.506,0.999-6.631l6.622,6.613l-6.622,6.622
			C61.746,58.631,61.341,56.442,61.341,54.152z M64.316,65.808l8.162-8.154l10.413,10.413l-8.205,8.217
			C70.259,73.888,66.666,70.268,64.316,65.808z M86.599,79.414c-2.412,0-4.701-0.448-6.915-1.084l6.735-6.735l6.829,6.82
			C91.102,79.009,88.913,79.414,86.599,79.414z M98.293,76.421l-8.346-8.342l10.416-10.413l8.402,8.397
			C106.368,70.472,102.75,74.076,98.293,76.421z M111.872,54.152c0,2.408-0.432,4.686-1.071,6.894l-6.899-6.912l6.888-6.902
			C111.433,49.434,111.872,51.735,111.872,54.152z M100.364,50.594L89.948,40.181l8.321-8.318
			c4.457,2.338,8.086,5.931,10.473,10.352L100.364,50.594z"/>
	</g>
</g>
<g>
</g>
<g>
</g>
<g>
</g>
<g>
</g>
<g>
</g>
<g>
</g>
<g>
</g>
<g>
</g>
<g>
</g>
<g>
</g>
<g>
</g>
<g>
</g>
<g>
</g>
<g>
</g>
<g>
</g>
</svg>
