<?xml version="1.0" encoding="iso-8859-1"?>
<!-- Generator: Adobe Illustrator 16.0.0, SVG Export Plug-In . SVG Version: 6.00 Build 0)  -->
<!DOCTYPE svg PUBLIC "-//W3C//DTD SVG 1.1//EN" "http://www.w3.org/Graphics/SVG/1.1/DTD/svg11.dtd">
<svg version="1.1" id="Capa_1" xmlns="http://www.w3.org/2000/svg" xmlns:xlink="http://www.w3.org/1999/xlink" x="0px" y="0px"
	 width="221.346px" height="221.347px" viewBox="0 0 221.346 221.347" style="enable-background:new 0 0 221.346 221.347;"
	 xml:space="preserve">
<g>
	<g>
		<path d="M214.126,109.389c-4.914-5.499-11.813-8.543-19.412-8.567c-0.037,0-0.073,0-0.116,0c-15.356,0-24.168,9.353-31.877,19.747
			c-1.839,2.247-5.327,5.182-9.846,2.654c-2.673-1.51-3.636-4.92-2.131-7.605c1.126-1.99,3.665-2.697,5.662-1.582
			c1.432,0.81,1.942,2.648,1.139,4.098c-0.262,0.463-0.688,0.779-1.187,0.938c-0.201-1.084-1.194-1.826-2.284-1.675
			c-1.132,0.165-1.894,1.2-1.723,2.326c0.018,0.128,0.134,0.165,0.17,0.28c-0.128,0.651,0.055,1.303,0.646,1.638
			c1.218,0.683,2.618,0.853,3.977,0.476c1.34-0.378,2.454-1.255,3.13-2.461c1.656-2.953,0.608-6.686-2.332-8.339
			c-3.508-1.976-7.935-0.73-9.913,2.768c-2.339,4.178-0.853,9.493,3.318,11.831c1.65,0.926,3.324,1.383,4.993,1.383
			c0.56,0,1.102-0.128,1.65-0.226c-1.577,2.204-3.143,4.415-4.774,6.467c-3.61,4.555-6.71,8.343-9.736,11.277
			c-0.341,0.024-0.688,0.104-0.962,0.359c-6.278,5.876-12.806,6.667-18.365,2.234c-4.342-3.465-5.066-9.804-1.62-14.151
			c2.68-3.33,7.545-3.891,10.882-1.236c2.539,2.021,2.972,5.725,0.943,8.264c-0.7,0.877-1.687,1.376-2.703,1.553
			c0.134-0.371,0.231-0.756,0.231-1.163c0-1.839-1.479-3.337-3.325-3.337c-1.856,0-3.33,1.498-3.33,3.337
			c0,0.591,0.2,1.12,0.469,1.595c0.019,0.439,0.17,0.865,0.548,1.157c3.233,2.569,7.965,2.046,10.547-1.193
			c3.093-3.885,2.453-9.56-1.426-12.642c-4.676-3.738-11.532-2.959-15.259,1.73c-4.485,5.632-3.574,13.853,1.985,18.4
			c-2.461-1.175-4.631-2.91-6.281-5.212c-2.694-3.763-3.767-8.549-2.95-13.11c1.297-7.239,8.238-12.074,15.484-10.771
			c0.841,0.128,1.656-0.414,1.809-1.267c0.14-0.853-0.414-1.662-1.261-1.802c-3.032-0.549-6.004-0.152-8.707,0.87
			c4.274-2.49,7.508-6.628,8.738-11.722c0.298-1.236,0.39-2.855,0.341-4.722c0-0.28-0.024-0.561-0.043-0.847
			c-0.615-12.72-7.496-35.862-7.837-37.007c-0.158-0.529-0.584-0.938-1.12-1.065s-1.114,0.03-1.492,0.436
			c-0.362,0.393-3.806,3.979-8.095,8.823c-4.29-4.838-7.73-8.431-8.099-8.812c-0.387-0.398-0.956-0.554-1.492-0.435
			c-0.536,0.131-0.965,0.536-1.121,1.066c-0.344,1.147-7.222,24.286-7.84,37.007c-0.018,0.28-0.042,0.566-0.042,0.846
			c-0.049,1.873,0.042,3.492,0.344,4.723c1.239,5.1,4.482,9.243,8.76,11.739c-2.707-1.041-5.693-1.424-8.723-0.889
			c-0.849,0.141-1.416,0.956-1.26,1.803c0.149,0.853,0.974,1.4,1.809,1.267c7.276-1.291,14.185,3.525,15.488,10.766
			c0.819,4.566-0.262,9.347-2.954,13.116c-1.653,2.308-3.83,4.03-6.281,5.225c5.569-4.555,6.473-12.781,1.991-18.414
			c-3.742-4.688-10.595-5.469-15.266-1.735c-1.875,1.491-3.069,3.635-3.337,6.022c-0.268,2.387,0.408,4.749,1.903,6.625
			c1.249,1.559,3.029,2.557,5.027,2.77c1.988,0.25,3.958-0.328,5.529-1.582c0.368-0.293,0.53-0.701,0.551-1.151
			c0.274-0.481,0.472-1.011,0.472-1.607c0-1.839-1.489-3.337-3.333-3.337c-1.842,0-3.331,1.498-3.331,3.337
			c0,0.407,0.101,0.804,0.237,1.175c-1.06-0.176-2.021-0.7-2.7-1.553c-0.98-1.218-1.422-2.764-1.249-4.323
			c0.177-1.559,0.95-2.959,2.183-3.934c3.349-2.661,8.224-2.106,10.881,1.23c3.453,4.335,2.731,10.687-1.617,14.151
			c-5.565,4.433-12.09,3.641-18.374-2.235c-0.268-0.249-0.618-0.335-0.953-0.359c-3.02-2.929-6.116-6.722-9.733-11.276
			c-1.629-2.053-3.194-4.263-4.777-6.473c0.548,0.104,1.096,0.225,1.653,0.225c1.662,0,3.352-0.438,4.993-1.37
			c4.165-2.356,5.657-7.666,3.312-11.843c-1.973-3.493-6.418-4.713-9.897-2.768c-1.428,0.798-2.454,2.11-2.898,3.681
			c-0.441,1.583-0.244,3.233,0.566,4.664c0.682,1.206,1.796,2.083,3.133,2.46c1.346,0.378,2.737,0.207,3.958-0.463
			c0.594-0.341,0.768-0.998,0.649-1.638c0.036-0.116,0.155-0.165,0.173-0.286c0.158-1.121-0.603-2.156-1.726-2.326
			c-1.084-0.158-2.077,0.584-2.281,1.668c-0.499-0.164-0.932-0.475-1.193-0.938c-0.393-0.7-0.496-1.51-0.28-2.283
			c0.219-0.773,0.725-1.419,1.422-1.809c1.998-1.12,4.534-0.402,5.651,1.577c1.501,2.686,0.548,6.095-2.128,7.605
			c-4.521,2.539-8.017-0.401-9.858-2.655c-7.706-10.394-16.511-19.747-31.868-19.747c-0.037,0-0.076,0-0.119,0
			c-7.6,0.024-14.496,3.069-19.409,8.567c-5.432,6.077-7.989,14.614-7.027,23.413c0.722,6.619,3.982,12.587,9.177,16.764
			c4.479,3.593,9.928,5.505,15.582,5.505c0.195,0,0.393-0.025,0.594-0.031c0.037,0,0.055,0.031,0.094,0.031
			c0.067,0,0.131,0,0.198-0.013c0.083-0.006,0.149-0.036,0.238-0.049c0.542-0.024,1.09-0.024,1.632-0.085
			c5.389-0.597,10.221-3.246,13.612-7.465c3.392-4.227,4.938-9.512,4.354-14.895c-0.992-9.061-9.161-15.631-18.234-14.656
			c-0.853,0.097-1.477,0.858-1.382,1.711c0.091,0.864,0.871,1.467,1.714,1.388c7.337-0.767,13.993,4.543,14.796,11.886
			c0.5,4.549-0.81,9.037-3.678,12.6c-0.527,0.65-1.136,1.211-1.735,1.777c1.589-3.258,2.083-7.24,1.224-11.308
			c-0.731-3.446-2.759-6.394-5.706-8.306c-2.957-1.924-6.491-2.582-9.922-1.839c-2.844,0.597-5.279,2.266-6.859,4.701
			c-1.577,2.436-2.113,5.328-1.507,8.159c0.493,2.345,1.863,4.359,3.879,5.663c2.019,1.315,4.421,1.766,6.783,1.267
			c1.97-0.414,3.66-1.571,4.752-3.258c0.865-1.334,1.139-2.88,1.06-4.439c0.006-0.061,0.037-0.121,0.037-0.182
			c0-0.086-0.037-0.159-0.042-0.244c-0.027-0.256,0.042-0.512-0.012-0.768c-0.027-0.115-0.131-0.158-0.183-0.256
			c-0.487-1.217-1.659-2.094-3.048-2.119c-1.839-0.023-3.355,1.449-3.379,3.289c-0.018,1.638,1.172,2.959,2.725,3.251
			c-0.636,0.841-1.51,1.449-2.551,1.675c-1.541,0.329-3.118,0.03-4.433-0.822c-1.309-0.853-2.208-2.174-2.527-3.702
			c-0.43-2.021-0.049-4.079,1.075-5.821c1.126-1.729,2.862-2.923,4.893-3.355c2.633-0.547,5.325-0.055,7.578,1.407
			c2.25,1.462,3.797,3.721,4.351,6.351c0.861,4.074,0.213,8.025-1.791,10.846c-1.662,2.338-4.262,3.823-7.486,4.371
			c-5.337,0.256-10.525-1.327-14.724-4.7c-4.545-3.653-7.401-8.866-8.035-14.675c-0.868-7.929,1.413-15.582,6.248-20.996
			c4.32-4.825,10.394-7.501,17.095-7.526c0.034,0,0.07,0,0.101,0c13.712,0,21.924,8.531,29.106,18.152
			c0.006,0.006,0,0.024,0.006,0.036c0.03,0.055,0.076,0.08,0.112,0.128c1.297,1.741,2.582,3.501,3.842,5.279
			c0.329,0.47,0.667,0.896,1.002,1.358c-2.476-0.475-4.993,0.049-7.337,1.607c-3.979,2.654-5.076,8.05-2.439,12.032
			c1.397,2.095,3.699,3.228,6.056,3.228c1.382,0,2.78-0.391,4.022-1.206c1.358-0.913,2.287-2.29,2.612-3.885
			c0.323-1.607,0.006-3.245-0.904-4.598c-1.589-2.381-4.826-3.044-7.222-1.442c-0.481,0.328-0.624,0.852-0.584,1.388
			c-0.058,0.146-0.207,0.256-0.219,0.414c-0.101,1.133,0.73,2.119,1.857,2.204c1.054,0.092,1.939-0.67,2.128-1.687
			c0.572,0.091,1.102,0.347,1.446,0.871c0.442,0.651,0.597,1.449,0.436,2.234c-0.161,0.786-0.618,1.468-1.285,1.918
			c-1.9,1.267-4.482,0.755-5.748-1.157c-1.69-2.551-0.987-6.004,1.565-7.696c4.539-3.015,8.418,0.091,10.333,2.204
			c0,0.006,0.012,0,0.019,0.006c0.042,0.055,0.091,0.129,0.137,0.189c8.86,11.155,16.511,20.788,29.523,18.803
			c5.188-0.791,9.752-3.617,12.857-7.952c0.475-0.657,0.815-1.4,1.202-2.095v12.482c0,0.865,0.7,1.56,1.559,1.56
			c0.862,0,1.559-0.694,1.559-1.56V144.84c0.301,0.512,0.529,1.047,0.874,1.534c3.105,4.329,7.663,7.161,12.856,7.952
			c13.037,2.004,20.673-7.647,29.526-18.803c0.043-0.061,0.092-0.135,0.128-0.189c0.006-0.006,0.013,0,0.019-0.006
			c1.924-2.131,5.791-5.236,10.327-2.217c2.558,1.699,3.258,5.158,1.571,7.703c-1.273,1.906-3.849,2.418-5.748,1.163
			c-0.658-0.444-1.127-1.132-1.285-1.918c-0.146-0.785,0-1.583,0.438-2.234c0.347-0.512,0.877-0.78,1.437-0.871
			c0.195,1.022,1.084,1.778,2.138,1.687c1.126-0.085,1.942-1.071,1.857-2.204c-0.013-0.158-0.165-0.262-0.22-0.414
			c0.03-0.523-0.121-1.06-0.591-1.382c-2.387-1.577-5.62-0.932-7.222,1.443c-0.913,1.357-1.224,2.983-0.913,4.591
			c0.335,1.607,1.255,2.983,2.612,3.897c1.236,0.815,2.643,1.199,4.025,1.199c2.35,0,4.664-1.133,6.052-3.233
			c2.637-3.982,1.541-9.378-2.441-12.032c-2.345-1.559-4.865-2.07-7.344-1.596c0.335-0.463,0.67-0.895,1.005-1.363
			c1.261-1.772,2.545-3.532,3.843-5.286c0.036-0.036,0.072-0.073,0.121-0.122c0.007-0.012,0-0.023,0.007-0.036
			c7.179-9.614,15.393-18.146,29.105-18.146c0.03,0,0.067,0,0.098,0c6.71,0.019,12.775,2.694,17.099,7.526
			c4.828,5.419,7.112,13.079,6.247,20.995c-0.646,5.803-3.495,11.01-8.037,14.675c-4.202,3.374-9.384,4.957-14.724,4.701
			c-3.222-0.548-5.821-2.034-7.478-4.372c-1.998-2.819-2.661-6.771-1.784-10.852c0.554-2.624,2.101-4.883,4.348-6.344
			c2.259-1.462,4.95-1.955,7.574-1.413c2.022,0.426,3.764,1.632,4.89,3.354c1.133,1.736,1.504,3.794,1.078,5.828
			c-0.322,1.521-1.212,2.837-2.521,3.689c-1.315,0.865-2.887,1.163-4.434,0.828c-1.041-0.225-1.924-0.84-2.551-1.668
			c1.559-0.311,2.733-1.632,2.722-3.258c-0.024-1.839-1.528-3.318-3.38-3.288c-1.388,0.024-2.563,0.907-3.038,2.125
			c-0.049,0.098-0.158,0.134-0.183,0.256c-0.055,0.256,0.019,0.511-0.013,0.761c0,0.092-0.042,0.158-0.042,0.244
			c0,0.079,0.036,0.127,0.036,0.188c-0.073,1.565,0.201,3.118,1.072,4.451c1.09,1.687,2.776,2.831,4.737,3.245
			c2.356,0.5,4.779,0.062,6.783-1.266c2.009-1.304,3.386-3.319,3.879-5.657c0.614-2.838,0.079-5.729-1.505-8.166
			c-1.583-2.441-4.019-4.104-6.862-4.7c-3.434-0.73-6.96-0.098-9.913,1.839c-2.953,1.918-4.98,4.858-5.711,8.306
			c-0.859,4.073-0.372,8.062,1.224,11.313c-0.615-0.566-1.218-1.133-1.748-1.784c-2.868-3.562-4.171-8.05-3.672-12.599
			c0.798-7.355,7.411-12.678,14.791-11.886c0.828,0.079,1.626-0.523,1.705-1.389c0.104-0.853-0.523-1.626-1.383-1.711
			c-9.054-1.017-17.238,5.584-18.225,14.656c-0.591,5.377,0.95,10.668,4.348,14.895c3.392,4.232,8.215,6.881,13.609,7.465
			c0.548,0.062,1.09,0.062,1.638,0.086c0.092,0.012,0.152,0.042,0.238,0.049c0.066,0.006,0.134,0.012,0.2,0.012
			c0.037,0,0.055-0.03,0.092-0.03c0.194,0,0.396,0.03,0.603,0.03c5.645,0,11.095-1.912,15.582-5.505
			c5.194-4.177,8.446-10.126,9.177-16.757C222.122,124.002,219.558,115.466,214.126,109.389z M95.199,102.2
			c0.006-0.338,0.049-0.73,0.067-1.093c0.063-0.816,0.14-1.632,0.338-2.454c1.099-4.533,8.275-13.683,15.07-21.562
			c6.796,7.873,13.978,17.025,15.074,21.562c0.2,0.816,0.273,1.638,0.335,2.454c0.018,0.362,0.055,0.755,0.066,1.093
			c0.067,7.069-4.713,13.533-11.871,15.269c-1.178,0.286-2.39,0.426-3.598,0.433c-1.203-0.007-2.412-0.146-3.593-0.433
			c0,0,0,0-0.006,0C99.912,115.733,95.144,109.27,95.199,102.2z M117.166,119.965c0-0.018-0.006-0.042-0.012-0.066
			c0.2-0.079,0.393-0.183,0.605-0.268C117.552,119.746,117.345,119.85,117.166,119.965z M119.154,67.645
			c1.596,5.55,3.824,14.166,5.346,22.027c-3.215-4.801-7.672-10.263-11.755-14.97C115.114,72.014,117.345,69.571,119.154,67.645z
			 M102.189,67.645c1.808,1.927,4.046,4.375,6.409,7.057c-4.083,4.707-8.543,10.169-11.752,14.97
			C98.365,81.811,100.606,73.194,102.189,67.645z M104.196,119.898c0,0.024-0.012,0.049-0.012,0.073
			c-0.219-0.14-0.454-0.256-0.679-0.378C103.742,119.68,103.958,119.813,104.196,119.898z"/>
		<path d="M110.674,112.037c4.29,0,7.794-3.495,7.794-7.794c0-4.287-3.504-7.794-7.794-7.794c-4.296,0-7.794,3.507-7.794,7.794
			C102.88,108.542,106.378,112.037,110.674,112.037z M110.674,99.566c2.582,0,4.677,2.098,4.677,4.677
			c0,2.582-2.095,4.677-4.677,4.677c-2.582,0-4.676-2.095-4.676-4.677C105.998,101.665,108.093,99.566,110.674,99.566z"/>
	</g>
</g>
<g>
</g>
<g>
</g>
<g>
</g>
<g>
</g>
<g>
</g>
<g>
</g>
<g>
</g>
<g>
</g>
<g>
</g>
<g>
</g>
<g>
</g>
<g>
</g>
<g>
</g>
<g>
</g>
<g>
</g>
</svg>
