<?xml version="1.0" encoding="iso-8859-1"?>
<!-- Generator: Adobe Illustrator 16.0.0, SVG Export Plug-In . SVG Version: 6.00 Build 0)  -->
<!DOCTYPE svg PUBLIC "-//W3C//DTD SVG 1.1//EN" "http://www.w3.org/Graphics/SVG/1.1/DTD/svg11.dtd">
<svg version="1.1" id="Capa_1" xmlns="http://www.w3.org/2000/svg" xmlns:xlink="http://www.w3.org/1999/xlink" x="0px" y="0px"
	 width="182.729px" height="182.73px" viewBox="0 0 182.729 182.73" style="enable-background:new 0 0 182.729 182.73;"
	 xml:space="preserve">
<g>
	<g>
		<path d="M47.64,106.541c14.742,0,26.747-12.003,26.747-26.747c0-14.747-12.005-26.747-26.747-26.747s-26.745,12-26.745,26.747
			C20.896,94.538,32.893,106.541,47.64,106.541z M29.012,89.998l6.41-6.407l8.24,8.247l-6.447,6.455
			C33.752,96.341,30.923,93.472,29.012,89.998z M39.234,79.777l8.239-8.25l8.25,8.25l-8.25,8.248L39.234,79.777z M47.64,101.14
			c-1.722,0-3.38-0.264-4.989-0.648l4.828-4.831l4.904,4.904C50.854,100.914,49.277,101.14,47.64,101.14z M57.868,98.414
			l-6.576-6.57l8.25-8.248l6.616,6.613C64.209,93.657,61.346,96.489,57.868,98.414z M68.338,74.799
			c0.385,1.608,0.648,3.262,0.648,4.988c0,1.712-0.264,3.365-0.643,4.963l-4.979-4.979L68.338,74.799z M66.152,69.349l-6.605,6.605
			l-8.25-8.25l6.55-6.544C61.319,63.069,64.188,65.9,66.152,69.349z M47.64,58.436c1.626,0,3.198,0.216,4.72,0.562l-4.88,4.878
			l-4.802-4.802C44.278,58.702,45.924,58.436,47.64,58.436z M37.22,61.265l6.426,6.434l-8.24,8.25l-6.399-6.394
			C30.934,66.077,33.763,63.227,37.22,61.265z M26.296,79.788c0-1.637,0.222-3.214,0.567-4.746l4.725,4.73l-4.736,4.735
			C26.518,82.978,26.296,81.41,26.296,79.788z"/>
		<path d="M1.337,92.006c1.221,2.188,3.127,3.887,5.368,4.856c-0.896,2.289-1.05,4.842-0.354,7.246
			c0.541,1.846,1.519,3.507,2.858,4.841c1.695,1.688,3.844,2.79,6.183,3.159c0.367,2.32,1.463,4.482,3.153,6.181
			c1.339,1.345,3.03,2.341,4.854,2.863c2.365,0.681,4.979,0.559,7.241-0.332c0.983,2.246,2.673,4.149,4.862,5.342
			c3.752,2.104,8.648,1.745,12.053-0.723c1.912,1.382,4.195,2.142,6.607,2.142c1.925,0,3.76-0.48,5.439-1.419
			c1.506-0.823,2.674-2.067,3.639-3.438c2.268,9.112,7.457,16.934,14.705,21.938c5.514,3.803,11.873,5.748,18.473,5.748
			c2.658,0,5.348-0.316,8.048-0.954c11.147-2.663,18.6-8.823,24.11-16.411c0.422-0.232,0.791-0.58,1.022-1.023
			c3.691-6.586,7.183-12.055,11.691-15.003c-0.76,2.584-0.453,5.4,0.997,8.411c2.235,4.641,5.927,6.803,11.591,6.803
			c2.631,0,5.848-0.438,10.404-1.418c4.667-0.997,8.559-0.575,14.85,1.308c0.259,0.079,0.522,0.11,0.786,0.11
			c0.042,0.006,0.084,0,0.11,0c1.487,0,2.7-1.207,2.7-2.699c0-0.538-0.143-1.029-0.416-1.461
			c-1.44-4.567-9.608-28.329-25.007-28.329c-2.273,0-4.594,0.527-6.877,1.566c-1.813,0.817-3.981,3.138-4.63,5.99
			c-0.174,0.771-0.189,1.519-0.121,2.283c-2.247,0.364-4.261,1.145-6.106,2.162c0.432-1.055,0.859-2.13,1.281-3.19
			c0.2-0.495,0.416-0.965,0.611-1.461c0.116-0.131,0.274-0.205,0.349-0.358c7.214-12.903,17.55-17.597,29.014-13.247
			c1.414,0.555,2.953-0.168,3.486-1.565c0.532-1.393-0.169-2.953-1.566-3.48c-8.732-3.314-17.033-2.368-24.142,2.457
			c6.56-13.476,11.991-21.144,23.25-22.106c1.472-0.124,2.584-1.437,2.452-2.921c-0.126-1.484-1.46-2.598-2.921-2.455
			c-16.728,1.424-23.235,15.48-30.766,31.765c-1.688,3.644-3.237,7.482-4.793,11.359c-0.026,0.036-0.037,0.078-0.048,0.115
			c-1.261-7.673-5.653-13.911-12.951-18.098c0.115-0.639,0.205-1.282,0.211-1.946c0.026-2.829-1.039-5.495-3.038-7.51
			c-3.939-4.023-10.91-4.105-14.961-0.134c-4.16,4.097-4.197,10.808-0.115,14.958c2.004,2.04,4.677,3.164,7.541,3.164
			c2.795,0,5.41-1.076,7.393-3.027c0.206-0.2,0.354-0.438,0.56-0.653c9.629,5.674,12.667,15.698,8.616,28.481
			c-5.389,10.384-12.666,19.174-25.792,22.312c-7.871,1.861-15.765,0.454-22.204-3.992c-6.138-4.239-10.544-10.926-12.506-18.71
			c1.086,0.011,2.17-0.079,3.235-0.363c1.841-0.533,3.504-1.529,4.838-2.869c1.696-1.683,2.803-3.854,3.164-6.17
			c2.344-0.374,4.482-1.466,6.183-3.159c1.35-1.344,2.344-3.031,2.855-4.841c0.704-2.399,0.551-4.968-0.345-7.256
			c2.247-0.981,4.164-2.679,5.369-4.873c0.917-1.666,1.41-3.544,1.41-5.452c0-2.397-0.772-4.693-2.139-6.589
			c1.371-1.907,2.139-4.195,2.139-6.592c0.011-1.922-0.467-3.76-1.405-5.471c-1.231-2.186-3.127-3.889-5.374-4.865
			c0.896-2.284,1.049-4.838,0.351-7.259c-0.543-1.851-1.5-3.478-2.855-4.833c-1.69-1.7-3.844-2.789-6.188-3.158
			c-0.361-2.32-1.463-4.482-3.153-6.173c-1.35-1.355-2.974-2.315-4.844-2.871c-2.375-0.691-4.983-0.546-7.241,0.345
			c-0.994-2.235-2.673-4.147-4.852-5.357c-3.773-2.088-8.638-1.753-12.052,0.73c-3.407-2.463-8.282-2.809-12.042-0.73
			c-2.191,1.21-3.892,3.111-4.87,5.353c-2.268-0.892-4.886-1.021-7.235-0.335c-1.833,0.517-3.499,1.506-4.849,2.861
			c-1.698,1.696-2.798,3.858-3.162,6.172c-2.336,0.375-4.475,1.464-6.188,3.17c-1.337,1.345-2.331,3.019-2.845,4.838
			C5.743,58.156,5.882,60.716,6.779,63c-2.247,0.981-4.164,2.679-5.36,4.875c-0.947,1.695-1.416,3.53-1.411,5.45
			c0,2.391,0.767,4.685,2.138,6.592c-1.371,1.9-2.138,4.203-2.138,6.615C-0.069,88.462,0.403,90.292,1.337,92.006z M146.56,118.068
			c0.896-2.173,3.385-3.206,3.712-3.317c3.302,0.253,7.119,1.493,11.66,4.014c1.281,0.732,2.947,0.258,3.675-1.044
			c0.733-1.303,0.254-2.948-1.049-3.676c-5.137-2.843-9.566-4.203-13.489-4.588c-0.085-0.296-0.096-0.591-0.021-0.923
			c0.253-1.182,1.25-2.136,1.604-2.3c1.592-0.717,3.164-1.086,4.656-1.086c8.622,0,15.24,12.276,18.441,20.524
			c-4.757-0.991-8.385-1.034-12.594-0.127c-10.916,2.347-13.837,2.025-15.994-2.452C146.206,121.131,146.006,119.439,146.56,118.068
			z M116.062,90.24c-1.967,1.93-5.368,1.904-7.313-0.079c-1.994-2.03-1.962-5.312,0.079-7.316c0.976-0.955,2.257-1.479,3.617-1.479
			c1.408,0,2.721,0.557,3.713,1.556c0.97,0.983,1.486,2.289,1.477,3.676C117.598,87.972,117.06,89.259,116.062,90.24z M7.454,77.861
			c-1.351-1.124-2.123-2.777-2.123-4.525c-0.005-1,0.245-1.946,0.73-2.824c1-1.812,2.9-2.972,4.973-3.03l5.967-0.185l-4.082-4.364
			c-1.438-1.516-1.951-3.688-1.382-5.664c0.274-0.962,0.78-1.809,1.474-2.523c1.113-1.11,2.592-1.722,4.174-1.722l3.773,0.319
			l-0.313-3.24c-0.166-1.738,0.448-3.452,1.692-4.691c0.696-0.704,1.559-1.215,2.521-1.487c1.969-0.567,4.158-0.037,5.648,1.376
			l4.374,4.137l0.185-6.014c0.068-2.07,1.231-3.977,3.035-4.973c2.412-1.334,5.587-0.73,7.369,1.403l2.081,2.5l2.078-2.51
			c1.751-2.123,4.973-2.71,7.338-1.392c1.814,1.002,2.977,2.903,3.035,4.967l0.169,6.009l4.385-4.126
			c1.49-1.413,3.726-1.933,5.632-1.387c1,0.292,1.835,0.793,2.547,1.503c1.237,1.234,1.87,2.953,1.698,4.712l-0.298,3.24
			l3.786-0.335c1.559,0,3.035,0.612,4.145,1.717c0.709,0.709,1.226,1.561,1.487,2.518c0.567,2.015,0.063,4.132-1.384,5.664
			l-4.108,4.369l5.983,0.185c2.067,0.058,3.974,1.226,4.978,3.024c0.488,0.883,0.736,1.835,0.73,2.84
			c0,1.748-0.783,3.401-2.133,4.519l-2.513,2.083l2.513,2.081c1.35,1.118,2.133,2.771,2.138,4.514c0,0.991-0.253,1.967-0.736,2.837
			c-1.004,1.804-2.905,2.964-4.978,3.027l-5.983,0.185l4.108,4.371c1.426,1.509,1.946,3.687,1.374,5.67
			c-0.277,0.949-0.783,1.818-1.477,2.515c-1.099,1.113-2.586,1.72-4.164,1.72l-3.783-0.327l0.313,3.243
			c0.15,1.74-0.453,3.459-1.69,4.704c-0.714,0.712-1.55,1.213-2.529,1.481c-1.025,0.295-2.138,0.27-3.169-0.016
			c-0.475-0.591-1.166-0.944-1.949-0.986c-0.169-0.127-0.364-0.222-0.536-0.374l-4.374-4.113l-0.179,5.985
			c-0.074,2.077-1.226,3.976-3.035,4.967c-2.402,1.351-5.587,0.744-7.359-1.396l-2.08-2.506l-2.078,2.511
			c-1.761,2.141-4.915,2.747-7.359,1.392c-1.804-0.985-2.956-2.89-3.024-4.973l-0.185-5.996l-4.375,4.124
			c-1.489,1.419-3.694,1.946-5.643,1.382c-0.973-0.279-1.824-0.78-2.521-1.481c-1.242-1.239-1.875-2.97-1.703-4.71l-0.248-3.211
			l-3.228,0.301c-1.571,0-3.053-0.612-4.168-1.725c-0.693-0.691-1.21-1.561-1.482-2.516c-0.562-1.978-0.042-4.155,1.384-5.664
			l4.134-4.393l-6.014-0.163c-2.062-0.058-3.958-1.213-4.962-3.006c-0.485-0.892-0.741-1.851-0.741-2.848
			c0-1.764,0.783-3.417,2.127-4.535l2.519-2.08L7.454,77.861z"/>
	</g>
</g>
<g>
</g>
<g>
</g>
<g>
</g>
<g>
</g>
<g>
</g>
<g>
</g>
<g>
</g>
<g>
</g>
<g>
</g>
<g>
</g>
<g>
</g>
<g>
</g>
<g>
</g>
<g>
</g>
<g>
</g>
</svg>
