<?xml version="1.0" encoding="iso-8859-1"?>
<!-- Generator: Adobe Illustrator 16.0.0, SVG Export Plug-In . SVG Version: 6.00 Build 0)  -->
<!DOCTYPE svg PUBLIC "-//W3C//DTD SVG 1.1//EN" "http://www.w3.org/Graphics/SVG/1.1/DTD/svg11.dtd">
<svg version="1.1" id="Capa_1" xmlns="http://www.w3.org/2000/svg" xmlns:xlink="http://www.w3.org/1999/xlink" x="0px" y="0px"
	 width="118.136px" height="118.135px" viewBox="0 0 118.136 118.135" style="enable-background:new 0 0 118.136 118.135;"
	 xml:space="preserve">
<g>
	<g>
		<path d="M98.433,70.753c-1.904-1.734-4.077-3.037-6.387-4.008c0.422-0.301,0.844-0.585,1.239-0.943
			c2.426-2.242,3.834-5.29,3.95-8.583c0.116-2.755-0.85-5.384-2.722-7.409c-1.882-2.025-4.408-3.204-7.172-3.312
			c-0.326,0.016-0.616,0.113-0.917,0.248c-1.456,0.369-2.573,1.605-2.621,3.188c-0.079,1.917,1.413,3.53,3.333,3.607
			c1.281,0.047,2.399-0.638,3.043-1.648c0.39,0.267,0.817,0.488,1.16,0.849c1.075,1.176,1.655,2.706,1.582,4.308
			c-0.09,2.144-1.008,4.127-2.584,5.588c-1.577,1.455-3.555,2.22-5.759,2.13c-0.401,0-0.765,0.121-1.087,0.301
			c-0.3,0-0.574-0.058-0.875-0.042c-7.193,0.321-13.832,3.412-18.697,8.717c-1.01,1.097-1.906,2.257-2.689,3.48V56.22
			c0.19-0.185,0.422-0.314,0.572-0.546l3.354-4.952c0.292-0.416,0.34-0.901,0.313-1.381c0.788-0.335,1.568-0.709,2.307-1.152
			c0.148-0.092,0.322-0.176,0.47-0.274c3.032-1.943,5.469-4.812,6.781-8.316c0.201-0.541,0.354-1.179,0.501-1.875
			c0.338-1.36,0.47-2.773,0.459-4.2c0.517-10.995-2.542-29.262-2.964-31.73c-0.126-0.756-0.653-1.387-1.371-1.658
			C70.921-0.129,70.13,0,69.518,0.48c-1.012,0.833-5.479,4.493-10.462,9.025C54.072,4.973,49.621,1.313,48.59,0.48
			C47.997,0,47.198-0.129,46.457,0.134c-0.717,0.271-1.236,0.902-1.371,1.658c-0.422,2.474-3.483,20.741-2.966,31.736
			c-0.011,1.432,0.113,2.84,0.453,4.201c0.137,0.69,0.309,1.329,0.509,1.869c1.313,3.504,3.742,6.373,6.776,8.321
			c0.153,0.098,0.324,0.182,0.48,0.274c0.73,0.443,1.498,0.822,2.302,1.152c-0.042,0.479,0.021,0.965,0.313,1.382l3.346,4.951
			c0.158,0.232,0.391,0.361,0.58,0.546v21.01c-0.788-1.219-1.685-2.384-2.689-3.491c-4.862-5.305-11.509-8.406-18.702-8.717
			c-0.311-0.016-0.599,0.047-0.912,0.042c-0.335-0.174-0.68-0.301-1.036-0.306c-2.278,0.1-4.19-0.676-5.767-2.131
			c-1.577-1.461-2.494-3.443-2.587-5.592c-0.092-2.165,1.052-4.034,2.742-5.158c0.654,1.016,1.762,1.701,3.046,1.653
			c1.917-0.076,3.42-1.69,3.333-3.607c-0.066-1.54-1.118-2.766-2.515-3.164c-0.324-0.168-0.659-0.282-1.028-0.266
			c-5.685,0.227-10.125,5.039-9.891,10.721c0.119,3.299,1.527,6.347,3.953,8.588c0.377,0.348,0.809,0.638,1.237,0.938
			c-2.312,0.976-4.482,2.273-6.384,4.014c-4.337,3.955-6.858,9.37-7.106,15.24c-0.432,9.924,7.301,18.352,17.215,18.789
			c0.625,0.09,1.191-0.148,1.592-0.554c2.226-0.569,3.937-2.463,4.04-4.873c0.119-2.942-2.154-5.442-5.115-5.568
			c-2.942-0.132-5.453,2.151-5.561,5.094c0,0.11,0.053,0.2,0.053,0.306c-4.86-2.283-8.153-7.314-7.9-13.004
			c0.211-4.72,2.236-9.07,5.719-12.256c3.483-3.18,7.992-4.799,12.711-4.614c6.033,0.274,11.609,2.869,15.691,7.325
			c3.473,3.786,5.508,8.517,5.877,13.558c-0.055,0.844-0.05,1.698-0.01,2.568c-2.729,0.923-4.715,3.417-4.715,6.449
			c0,0.786,0.198,1.509,0.443,2.215H49.41c-0.793,0-1.532,0.443-1.911,1.145c-0.367,0.701-0.33,1.566,0.118,2.226l7.518,11.074
			c0.978,1.439,2.396,2.257,3.937,2.257s2.958-0.817,3.937-2.257l7.507-11.085c0.448-0.659,0.496-1.514,0.11-2.22
			c-0.379-0.712-1.107-1.145-1.908-1.145h-3.225c0.242-0.707,0.453-1.435,0.453-2.215c0-3.032-1.98-5.526-4.704-6.449
			c0.034-0.859,0.04-1.72-0.021-2.568c0.361-5.041,2.416-9.771,5.872-13.559c4.093-4.455,9.661-7.056,15.705-7.324
			c4.656-0.195,9.218,1.429,12.709,4.614c3.475,3.18,5.511,7.536,5.722,12.255c0.242,5.69-3.032,10.716-7.905,13.005
			c0-0.105,0.058-0.195,0.048-0.306c-0.111-2.938-2.61-5.236-5.569-5.095c-2.953,0.122-5.241,2.621-5.1,5.569
			c0.111,2.446,1.867,4.355,4.146,4.889c0.369,0.326,0.854,0.537,1.402,0.537c0.037,0,0.068,0,0.101,0
			c9.925-0.442,17.655-8.869,17.212-18.789C105.288,80.125,102.762,74.708,98.433,70.753z M51.667,43.843
			c-0.578-0.417-1.118-0.892-1.629-1.395c-0.293-0.296-0.557-0.609-0.81-0.934c-0.185-0.232-0.385-0.464-0.562-0.712
			c-0.396-0.58-0.757-1.184-1.044-1.814c-0.026-0.055-0.053-0.116-0.074-0.152c-0.25-0.546-0.422-1.124-0.591-1.696
			c-0.113-0.448-0.232-0.846-0.306-1.403c-0.011-0.061-0.029-0.113-0.029-0.185c-0.084-0.664-0.113-1.458-0.145-2.246
			c0.031-1.371,0.237-2.761,0.751-4.121c1.15-3.077,6.318-8.543,11.847-13.764c5.529,5.221,10.695,10.681,11.844,13.758
			c0.517,1.361,0.723,2.75,0.754,4.127c-0.031,0.783-0.063,1.576-0.137,2.23c-0.011,0.071-0.021,0.135-0.037,0.2
			c-0.074,0.562-0.195,0.944-0.306,1.393c-0.169,0.577-0.343,1.154-0.586,1.706c-0.026,0.05-0.053,0.097-0.073,0.142
			c-0.301,0.635-0.654,1.234-1.045,1.819c-0.189,0.258-0.39,0.501-0.59,0.744c-0.254,0.309-0.507,0.611-0.786,0.896
			c-2.154,2.138-5.065,3.483-8.1,3.749c-0.316,0.021-0.625,0.048-0.938,0.042c-0.325,0-0.633-0.021-0.944-0.042
			c-2.312-0.205-4.559-1.018-6.439-2.333C51.678,43.848,51.673,43.843,51.667,43.843z M69.365,6.225
			c0.648,4.293,1.418,10.109,1.903,15.684c-2.441-2.998-5.7-6.312-9.007-9.45C64.807,10.141,67.293,7.976,69.365,6.225z
			 M48.78,6.225c2.067,1.746,4.556,3.921,7.101,6.233c-3.307,3.132-6.568,6.452-9.002,9.444
			C47.364,16.329,48.126,10.518,48.78,6.225z"/>
		<circle cx="59.071" cy="34.203" r="6.075"/>
	</g>
</g>
<g>
</g>
<g>
</g>
<g>
</g>
<g>
</g>
<g>
</g>
<g>
</g>
<g>
</g>
<g>
</g>
<g>
</g>
<g>
</g>
<g>
</g>
<g>
</g>
<g>
</g>
<g>
</g>
<g>
</g>
</svg>
