<?xml version="1.0" encoding="iso-8859-1"?>
<!-- Generator: Adobe Illustrator 16.0.0, SVG Export Plug-In . SVG Version: 6.00 Build 0)  -->
<!DOCTYPE svg PUBLIC "-//W3C//DTD SVG 1.1//EN" "http://www.w3.org/Graphics/SVG/1.1/DTD/svg11.dtd">
<svg version="1.1" id="Capa_1" xmlns="http://www.w3.org/2000/svg" xmlns:xlink="http://www.w3.org/1999/xlink" x="0px" y="0px"
	 width="144.276px" height="144.276px" viewBox="0 0 144.276 144.276" style="enable-background:new 0 0 144.276 144.276;"
	 xml:space="preserve">
<g>
	<path d="M141.819,92.114c-3.074-4.994-7.931-7.584-10.89-5.78c-1.508,0.949-1.139,2.637-0.901,3.766
		c0.312,1.455,0.385,2.199-0.338,2.863c-0.532,0.49-1.477,0.707-3.074,0.707c-0.696,0-1.439-0.042-2.183-0.074
		c-0.828-0.058-1.667-0.105-2.495-0.105c-1.608,0-3.681,0.132-5.426,1.234c-7.805,4.83-7.536,16.411-7.51,16.906
		c0.006,0.158,0.079,0.321,0.138,0.475c-0.043,0.169-0.138,0.327-0.111,0.517c1.45,8.116-3.96,15.895-12.061,17.35
		c-5.089,0.912-10.415-0.284-14.617-3.274c-3.434-2.458-5.78-5.922-6.898-9.83c0.47,0.791,0.955,1.562,1.546,2.326
		c2.784,3.491,6.882,5.289,11.026,5.289c3.069,0,6.17-1.007,8.743-3.043c4.973-3.955,5.801-11.237,1.841-16.194
		c-3.259-4.104-9.239-4.768-13.331-1.503c-1.641,1.302-2.674,3.175-2.911,5.263c-0.195,1.688,0.179,3.333,1.013,4.772
		c0.527,1.371,1.829,2.362,3.385,2.362c2.021,0,3.645-1.635,3.645-3.654s-1.624-3.649-3.645-3.649c-0.627,0-1.202,0.2-1.708,0.485
		v-0.011c0.158-1.366,0.838-2.589,1.914-3.454c2.927-2.325,7.203-1.84,9.534,1.081c3.032,3.797,2.399,9.355-1.408,12.408
		c-4.898,3.892-12.07,3.075-15.973-1.819c-4.976-6.254-4.095-13.562,2.473-20.576c0.259-0.28,0.364-0.623,0.349-0.986
		c3.259-3.386,7.467-6.835,12.403-10.748c2.436-1.914,5.036-3.76,7.715-5.685c-0.681,2.548-0.322,5.216,1.16,7.826
		c1.682,2.979,4.793,4.651,7.994,4.651c1.519,0,3.054-0.38,4.467-1.176c3.654-2.052,4.946-6.682,2.89-10.342
		c-0.828-1.466-2.183-2.542-3.817-2.995c-1.635-0.454-3.349-0.243-4.82,0.585c-1.25,0.696-2.146,1.846-2.542,3.217
		c-0.374,1.377-0.205,2.811,0.501,4.061c0.147,0.274,0.417,0.422,0.691,0.538c0.306,0.269,0.664,0.475,1.097,0.543
		c1.218,0.18,2.357-0.664,2.536-1.903c0.185-1.213-0.67-2.362-1.888-2.531c-0.11-0.016-0.222,0.016-0.332,0.016
		c0.189-0.675,0.633-1.234,1.255-1.587c0.839-0.485,1.824-0.591,2.769-0.333c0.934,0.264,1.709,0.871,2.188,1.715
		c0.633,1.139,0.791,2.457,0.448,3.717c-0.354,1.256-1.182,2.315-2.315,2.953c-3.09,1.74-7.045,0.623-8.796-2.468
		c-2.204-3.913-1.102-7.899,3.059-11.264c11.301-8.396,21.437-17.993,21.395-34.678c-0.021-8.213-3.312-15.644-9.25-20.967
		c-6.57-5.877-15.836-8.619-25.344-7.594c-7.156,0.789-13.579,4.293-18.088,9.903c-2.621,3.262-4.295,7.032-5.187,10.979
		c-0.892-3.947-2.571-7.723-5.184-10.979c-4.509-5.61-10.935-9.115-18.091-9.903c-9.526-1.041-18.766,1.722-25.336,7.594
		c-5.946,5.308-9.229,12.754-9.25,20.967c-0.05,16.699,10.102,26.293,21.41,34.691c4.148,3.373,5.242,7.354,3.041,11.261
		c-1.751,3.09-5.698,4.188-8.796,2.457c-2.349-1.318-3.183-4.313-1.854-6.665c0.47-0.828,1.247-1.461,2.184-1.703
		c0.943-0.253,1.927-0.138,2.773,0.332c0.622,0.343,1.065,0.912,1.252,1.587c-0.113,0-0.216-0.031-0.334-0.016
		c-1.219,0.164-2.067,1.318-1.883,2.531c0.177,1.239,1.315,2.088,2.536,1.909c0.438-0.063,0.799-0.285,1.113-0.564
		c0.264-0.11,0.524-0.248,0.675-0.517c0.701-1.239,0.875-2.685,0.49-4.061c-0.382-1.377-1.284-2.526-2.526-3.223
		c-1.474-0.822-3.185-1.033-4.828-0.58c-1.63,0.454-2.985,1.509-3.813,2.99c-2.051,3.66-0.762,8.29,2.885,10.347
		c1.413,0.791,2.948,1.182,4.466,1.182c3.207,0,6.323-1.688,8.003-4.651c1.468-2.615,1.84-5.284,1.154-7.836
		c2.685,1.914,5.276,3.754,7.705,5.7c4.946,3.923,9.154,7.351,12.405,10.736c-0.016,0.354,0.098,0.707,0.356,0.986
		c6.565,7.009,7.44,14.307,2.473,20.562c-3.91,4.904-11.077,5.737-15.973,1.835c-3.813-3.032-4.446-8.617-1.411-12.414
		c2.328-2.921,6.61-3.406,9.537-1.075c1.076,0.854,1.756,2.094,1.912,3.459v0.006c-0.517-0.285-1.079-0.485-1.706-0.485
		c-2.02,0-3.645,1.635-3.645,3.649c0,2.024,1.625,3.659,3.645,3.659c1.55,0,2.85-0.986,3.38-2.357
		c0.831-1.455,1.205-3.085,1.01-4.782c-0.237-2.094-1.268-3.945-2.911-5.269c-4.087-3.259-10.07-2.584-13.326,1.508
		c-3.96,4.963-3.138,12.234,1.835,16.2c2.581,2.052,5.669,3.043,8.738,3.043c4.145,0,8.25-1.814,11.032-5.3
		c0.598-0.754,1.083-1.529,1.542-2.32c-1.123,3.929-3.465,7.378-6.895,9.835c-4.201,3-9.527,4.177-14.618,3.27
		c-8.1-1.461-13.51-9.234-12.058-17.35c0.032-0.185-0.071-0.332-0.113-0.522c0.066-0.147,0.14-0.306,0.145-0.475
		c0.016-0.495,0.292-12.07-7.51-16.906c-1.745-1.076-3.817-1.229-5.429-1.229c-0.825,0-1.669,0.047-2.494,0.1
		c-0.752,0.032-1.479,0.079-2.181,0.079c-1.598,0-2.55-0.216-3.08-0.712c-0.722-0.664-0.659-1.424-0.34-2.858
		c0.243-1.128,0.612-2.811-0.902-3.765c-2.932-1.804-7.802,0.791-10.884,5.779c-2.004,3.238-2.879,6.84-2.275,9.387
		c0.309,1.308,0.994,2.331,1.972,2.933c1.268,0.775,2.689-0.011,3.763-0.876c0.859-0.696,1.69-1.35,2.716-0.97
		c1.184,0.442,2.064,2.479,2.921,4.43c1.055,2.415,2.247,5.152,4.543,6.581c2.128,1.308,4.644,1.978,7.478,1.978
		c3.555,0,6.853-1.039,8.894-1.861c-0.789,8.985,5.326,17.281,14.365,18.899c1.273,0.228,2.565,0.343,3.844,0.343
		c4.564,0,9.083-1.434,12.82-4.107c4.672-3.328,7.713-8.232,8.564-13.827c0.061-0.391,0.021-0.738,0.065-1.107
		c0.042,0.369,0.005,0.717,0.063,1.107c0.854,5.568,3.895,10.483,8.566,13.827c3.739,2.674,8.259,4.107,12.82,4.107
		c1.286,0,2.573-0.115,3.844-0.343c9.039-1.618,15.15-9.914,14.365-18.899c2.041,0.817,5.347,1.861,8.886,1.861
		c2.837,0,5.353-0.67,7.488-1.978c2.299-1.429,3.485-4.166,4.546-6.581c0.891-2.052,1.734-3.987,2.921-4.43
		c1.013-0.38,1.852,0.273,2.716,0.97c1.07,0.865,2.494,1.646,3.766,0.876c0.98-0.602,1.661-1.625,1.962-2.933
		C144.704,98.948,143.823,95.346,141.819,92.114z M17.527,111.309c-1.577-0.976-2.552-3.201-3.488-5.348
		c-1.078-2.479-2.191-5.041-4.433-5.891c-0.53-0.195-1.067-0.306-1.598-0.306c-1.664,0-2.885,0.981-3.771,1.688
		c-0.29,0.243-0.733,0.58-0.651,0.686c-0.364-0.222-0.622-0.644-0.762-1.25c-0.438-1.861,0.324-4.751,1.938-7.351
		c2.072-3.354,4.772-5.105,6.373-5.105c0.316,0,0.588,0.063,0.651,0c0.034,0.164-0.084,0.729-0.166,1.107
		c-0.298,1.351-0.788,3.629,1.149,5.422c1.366,1.25,3.344,1.424,4.91,1.424c0.743,0,1.521-0.043,2.32-0.085
		c0.783-0.053,1.576-0.095,2.354-0.095c1.864,0,3.101,0.253,4.013,0.817c4.514,2.79,5.751,8.659,6.091,12.028l-4.493-2.778
		c0.675-2.268-0.124-4.788-2.236-6.097c-2.46-1.519-5.891-0.695-7.401,1.74c-0.757,1.224-0.994,2.652-0.665,4.061
		c0.33,1.403,1.181,2.584,2.407,3.354c0.854,0.527,1.83,0.796,2.83,0.796c1.426,0,2.75-0.559,3.736-1.514l4.44,2.764
		c-1.835,0.696-4.606,1.498-7.491,1.498C21.271,112.891,19.23,112.358,17.527,111.309z M25.192,106.172
		c-0.751,1.224-2.458,1.635-3.694,0.865c-0.611-0.369-1.036-0.971-1.199-1.672c-0.166-0.696-0.048-1.413,0.329-2.025
		c0.491-0.791,1.345-1.266,2.278-1.266c0.499,0,0.983,0.138,1.411,0.406C25.574,103.261,25.962,104.913,25.192,106.172z
		 M37.265,72.557c-0.087-0.077-0.15-0.143-0.237-0.211c-0.016-0.016-0.05-0.005-0.065-0.021
		c-10.61-7.934-20.018-17.004-19.968-32.244c0.021-7.436,2.984-14.165,8.348-18.971c5.999-5.35,14.478-7.894,23.248-6.911
		c6.436,0.696,12.218,3.86,16.279,8.898c3.75,4.673,5.513,10.455,5.218,16.38c-0.617,3.633-2.292,6.555-4.936,8.435
		c-3.164,2.246-7.594,2.974-12.139,2.015c-2.964-0.633-5.514-2.371-7.167-4.926c-1.65-2.55-2.22-5.579-1.587-8.554
		c0.485-2.317,1.846-4.282,3.823-5.568c1.978-1.273,4.327-1.711,6.636-1.231c1.761,0.364,3.278,1.411,4.266,2.911
		c0.994,1.519,1.334,3.338,0.955,5.12c-0.269,1.273-1.026,2.365-2.088,3.117c-0.14-1.909-1.716-3.415-3.651-3.375
		c-2.012,0.026-3.618,1.682-3.589,3.696c0.026,2.02,1.685,3.642,3.691,3.597c0.509-0.005,0.994-0.113,1.432-0.316
		c1.221-0.127,2.397-0.52,3.452-1.205c1.758-1.152,2.963-2.911,3.401-4.968c0.53-2.491,0.053-5.033-1.339-7.15
		c-1.382-2.128-3.504-3.565-5.967-4.082c-3.003-0.644-6.081-0.082-8.662,1.604c-2.581,1.685-4.358,4.261-4.994,7.285
		c-0.778,3.676-0.082,7.436,1.964,10.584c2.046,3.148,5.194,5.302,8.873,6.085c1.495,0.33,2.987,0.475,4.432,0.475
		c3.452,0,6.671-0.917,9.294-2.603c-3.937,5.113-10.331,8.182-17.199,7.436c-8.24-0.907-14.217-8.342-13.315-16.566
		c0.079-0.751-0.454-1.416-1.194-1.484c-0.757-0.147-1.408,0.454-1.49,1.192c-1.058,9.727,5.982,18.497,15.709,19.554
		c10.993,1.242,20.907-6.054,23.467-16.53c2.565,10.465,12.489,17.74,23.469,16.53c9.719-1.058,16.77-9.827,15.71-19.554
		c-0.079-0.738-0.744-1.305-1.492-1.192c-0.738,0.093-1.266,0.749-1.192,1.484c0.902,8.224-5.078,15.66-13.315,16.566
		c-5.1,0.546-10.077-0.907-14.064-4.103c-1.223-0.999-2.257-2.138-3.185-3.354c2.631,1.7,5.864,2.623,9.339,2.623
		c1.45,0,2.942-0.145,4.43-0.475c3.681-0.783,6.835-2.937,8.881-6.085c2.046-3.148,2.742-6.908,1.967-10.584
		c-0.638-3.024-2.415-5.595-5.005-7.285c-2.578-1.685-5.663-2.236-8.653-1.604c-2.474,0.517-4.599,1.954-5.975,4.082
		c-1.387,2.133-1.861,4.659-1.34,7.15c0.438,2.057,1.65,3.815,3.412,4.968c1.018,0.664,2.167,1.005,3.359,1.139
		c0.469,0.222,0.976,0.361,1.514,0.367c2.009,0.031,3.675-1.577,3.701-3.597c0.026-2.015-1.576-3.67-3.591-3.705
		c-1.936-0.021-3.507,1.479-3.654,3.375c-1.061-0.749-1.825-1.835-2.094-3.108c-0.374-1.782-0.037-3.602,0.954-5.12
		c0.997-1.511,2.511-2.547,4.271-2.917c2.311-0.485,4.657-0.058,6.64,1.237c1.978,1.273,3.338,3.262,3.823,5.568
		c0.633,2.964,0.063,6.004-1.587,8.554c-1.656,2.552-4.198,4.292-7.167,4.912c-4.551,0.983-8.976,0.232-12.145-2.015
		c-2.647-1.877-4.316-4.799-4.937-8.432c-0.298-5.936,1.467-11.702,5.216-16.374c4.056-5.055,9.84-8.214,16.284-8.91
		c8.775-0.957,17.239,1.562,23.245,6.922c5.363,4.796,8.327,11.535,8.349,18.971c0.042,15.217-9.355,24.29-19.96,32.239
		c-0.021,0.016-0.053,0.006-0.079,0.021c-0.116,0.079-0.185,0.161-0.285,0.253c-1.861,1.376-3.739,2.727-5.616,4.063
		c-0.765,0.554-1.514,1.086-2.272,1.65c0.817-2.89,0.374-5.854-1.477-8.662c-2.801-4.198-8.49-5.353-12.667-2.576
		c-3.486,2.315-4.425,7.024-2.115,10.52c0.939,1.414,2.368,2.368,4.019,2.706c1.672,0.337,3.354,0.011,4.768-0.934
		c2.226-1.487,2.879-4.361,1.767-6.716c-0.053-0.248-0.143-0.475-0.279-0.686v-0.005l0,0c-0.354-0.583-0.944-1.016-1.678-1.079
		c-1.239-0.107-2.32,0.799-2.409,2.036c-0.116,1.236,0.791,2.328,2.035,2.423c0.063,0.005,0.121-0.021,0.189-0.021
		c-0.115,0.712-0.479,1.374-1.117,1.8c-0.808,0.549-1.777,0.729-2.732,0.538c-0.959-0.189-1.771-0.749-2.31-1.54
		c-1.487-2.257-0.886-5.297,1.345-6.792c2.964-1.943,6.961-1.139,8.934,1.814c2.558,3.839,1.682,8.016-2.479,11.771
		c-0.006,0.005,0,0.01-0.006,0.016c-0.068,0.058-0.152,0.116-0.221,0.163c-11.671,9.261-19.409,16.042-20.517,25.761
		c-1.112-9.719-8.844-16.5-20.514-25.761c-0.071-0.053-0.145-0.116-0.216-0.152c-0.005-0.011-0.005-0.021-0.01-0.026
		c-4.153-3.744-5.034-7.932-2.479-11.771c1.964-2.953,5.977-3.763,8.93-1.814c2.236,1.485,2.84,4.535,1.345,6.792
		c-0.535,0.791-1.35,1.35-2.304,1.54c-0.947,0.19-1.917,0.011-2.724-0.538c-0.641-0.432-1.016-1.094-1.124-1.8
		c0.066,0,0.126,0.026,0.195,0.021c1.237-0.113,2.139-1.191,2.036-2.423c-0.103-1.237-1.182-2.139-2.408-2.036
		c-0.73,0.063-1.318,0.496-1.674,1.073l0,0v0.006c-0.129,0.216-0.227,0.438-0.279,0.69c-1.118,2.368-0.467,5.224,1.764,6.716
		c1.405,0.944,3.09,1.261,4.757,0.934c1.664-0.333,3.096-1.292,4.023-2.706c2.318-3.496,1.371-8.21-2.104-10.52
		c-4.187-2.787-9.872-1.637-12.669,2.576c-1.859,2.808-2.307,5.75-1.474,8.662c-0.762-0.564-1.524-1.107-2.278-1.656
		C41.023,75.304,39.122,73.944,37.265,72.557z M141.471,100.888c-0.143,0.606-0.4,1.028-0.506,1.208
		c-0.175-0.048-0.617-0.396-0.907-0.628c-1.187-0.954-3.19-2.235-5.363-1.397c-2.246,0.85-3.364,3.412-4.44,5.891
		c-0.938,2.146-1.914,4.383-3.491,5.348c-1.692,1.049-3.733,1.582-6.059,1.582c-2.885,0-5.664-0.812-7.499-1.509l4.44-2.753
		c0.986,0.971,2.31,1.514,3.738,1.514c0.997,0,1.968-0.284,2.821-0.796c1.229-0.771,2.073-1.951,2.405-3.344
		c0.332-1.407,0.095-2.842-0.665-4.071c-1.508-2.436-4.951-3.264-7.403-1.74c-1.229,0.766-2.078,1.941-2.41,3.333
		c-0.222,0.938-0.101,1.872,0.174,2.769l-4.487,2.774c0.343-3.359,1.576-9.239,6.091-12.034c0.912-0.564,2.151-0.807,4.013-0.807
		c0.786,0,1.577,0.047,2.357,0.095c0.791,0.042,1.577,0.084,2.325,0.084c1.572,0,3.544-0.158,4.91-1.424
		c1.93-1.782,1.444-4.061,1.149-5.421c-0.09-0.363-0.216-0.971-0.332-0.896c1.339-0.812,4.693,0.886,7.183,4.894
		C141.144,96.137,141.909,99.027,141.471,100.888z M118.78,104.147c0.163-0.701,0.591-1.286,1.202-1.666
		c0.427-0.269,0.907-0.406,1.413-0.406c0.938,0,1.793,0.475,2.283,1.266c0.369,0.612,0.491,1.329,0.327,2.025
		c-0.169,0.701-0.585,1.297-1.202,1.672c-0.427,0.273-0.912,0.406-1.402,0.406c-0.944,0-1.793-0.475-2.294-1.271
		C118.732,105.555,118.611,104.843,118.78,104.147z"/>
</g>
<g>
</g>
<g>
</g>
<g>
</g>
<g>
</g>
<g>
</g>
<g>
</g>
<g>
</g>
<g>
</g>
<g>
</g>
<g>
</g>
<g>
</g>
<g>
</g>
<g>
</g>
<g>
</g>
<g>
</g>
</svg>
