<?xml version="1.0" encoding="iso-8859-1"?>
<!-- Generator: Adobe Illustrator 16.0.0, SVG Export Plug-In . SVG Version: 6.00 Build 0)  -->
<!DOCTYPE svg PUBLIC "-//W3C//DTD SVG 1.1//EN" "http://www.w3.org/Graphics/SVG/1.1/DTD/svg11.dtd">
<svg version="1.1" id="Capa_1" xmlns="http://www.w3.org/2000/svg" xmlns:xlink="http://www.w3.org/1999/xlink" x="0px" y="0px"
	 width="215.747px" height="215.747px" viewBox="0 0 215.747 215.747" style="enable-background:new 0 0 215.747 215.747;"
	 xml:space="preserve">
<g>
	<g>
		<path d="M156.263,108.897v-0.527c0-0.222-0.137-0.38-0.231-0.57c0.095-0.174,0.231-0.337,0.231-0.559v-0.522
			c4.103-1.829,16.622-7.918,22.392-15.854c0.073-0.045,0.142-0.029,0.211-0.087c0.11-0.113,0.11-0.274,0.163-0.411
			c1.608-2.342,2.589-4.838,2.589-7.431c0-11.646-19.98-21.373-25.37-23.775v-0.52c0-0.744-0.596-1.35-1.35-1.35
			c-0.755,0-1.351,0.606-1.351,1.35v0.52c-5.39,2.407-25.376,12.134-25.376,23.775c0,2.587,1.019,5.076,2.59,7.42
			c0.079,0.143,0.068,0.309,0.169,0.422c0.062,0.058,0.147,0.042,0.221,0.093c5.77,7.941,18.278,14.02,22.392,15.854v0.521
			c0,0.222,0.137,0.386,0.242,0.564c-0.105,0.18-0.242,0.338-0.242,0.564v0.522c-5.39,2.409-25.376,12.139-25.376,23.777
			c0,2.59,1.013,5.078,2.595,7.42c0.073,0.143,0.063,0.306,0.169,0.422c0.062,0.063,0.142,0.042,0.221,0.095
			c5.765,7.942,18.278,14.017,22.386,15.853v0.517c0,0.749,0.597,1.35,1.351,1.35c0.749,0,1.35-0.601,1.35-1.35v-0.517
			c4.103-1.83,16.622-7.91,22.386-15.853c0.074-0.048,0.147-0.031,0.211-0.09c0.116-0.11,0.116-0.274,0.169-0.411
			c1.604-2.342,2.605-4.836,2.605-7.43C181.649,121.026,161.652,111.302,156.263,108.897z M178.949,132.675
			c0,1.566-0.517,3.122-1.36,4.656l-21.326-21.325v-4.166C164.268,115.536,178.949,124.079,178.949,132.675z M163.92,149.466
			l-7.657-7.652v-9.07l13.12,13.11C167.622,147.15,165.755,148.368,163.92,149.466z M140.453,145.854l13.109-13.11v9.07
			l-7.646,7.652C144.081,148.368,142.215,147.15,140.453,145.854z M140.453,96.119l13.109-13.112v9.073l-7.646,7.651
			C144.081,98.64,142.215,97.414,140.453,96.119z M163.92,99.731l-7.657-7.651v-9.073l13.12,13.112
			C167.622,97.414,165.755,98.64,163.92,99.731z M156.263,95.898l5.231,5.221c-1.888,1.037-3.681,1.925-5.231,2.653V95.898z
			 M171.524,94.45L156.263,79.2v-9.11l19.808,19.802C174.825,91.468,173.265,93.003,171.524,94.45z M178.949,82.941
			c0,1.566-0.517,3.122-1.36,4.656l-21.326-21.326v-4.163C164.268,65.803,178.949,74.346,178.949,82.941z M153.562,62.104v4.163
			l-21.314,21.32c-0.844-1.529-1.361-3.09-1.361-4.651C130.887,74.346,145.568,65.803,153.562,62.104z M133.767,89.886
			l19.796-19.802v9.11l-15.25,15.256C136.572,93.003,135.011,91.468,133.767,89.886z M148.342,101.119l5.221-5.221v7.874
			C152.023,103.054,150.23,102.155,148.342,101.119z M153.562,111.84V116l-21.314,21.326c-0.844-1.529-1.361-3.091-1.361-4.651
			C130.887,124.079,145.568,115.536,153.562,111.84z M133.767,139.62l19.796-19.802v9.107l-15.25,15.261
			C136.572,142.736,135.011,141.202,133.767,139.62z M148.342,150.853l5.221-5.221v7.873
			C152.023,152.782,150.23,151.886,148.342,150.853z M156.263,145.632l5.231,5.221c-1.888,1.033-3.681,1.93-5.231,2.652V145.632z
			 M171.524,144.187l-15.262-15.261v-9.107l19.808,19.802C174.825,141.202,173.265,142.736,171.524,144.187z"/>
		<path d="M84.631,140.601c0.077-0.042,0.148-0.021,0.211-0.084c0.114-0.116,0.114-0.274,0.164-0.411
			c1.608-2.342,2.607-4.836,2.607-7.431c0-11.648-19.997-21.373-25.386-23.777v-0.522c0-0.222-0.134-0.385-0.237-0.564
			c0.103-0.179,0.237-0.343,0.237-0.564v-0.521c4.105-1.83,16.622-7.913,22.388-15.854c0.077-0.045,0.145-0.029,0.211-0.087
			c0.113-0.113,0.113-0.274,0.161-0.412c1.611-2.341,2.61-4.838,2.61-7.43c0-11.646-19.997-21.374-25.387-23.775v-0.52
			c0-0.744-0.599-1.35-1.35-1.35c-0.752,0-1.35,0.606-1.35,1.35v0.52c-5.39,2.407-25.376,12.134-25.376,23.775
			c0,2.592,1.015,5.089,2.61,7.436c0.063,0.137,0.058,0.292,0.161,0.406c0.066,0.058,0.135,0.042,0.211,0.087
			c5.762,7.941,18.291,14.02,22.389,15.854v0.521c0,0.222,0.14,0.386,0.237,0.564c-0.098,0.18-0.237,0.338-0.237,0.564v0.522
			c-5.39,2.409-25.376,12.139-25.376,23.777c0,2.595,1.01,5.089,2.61,7.436c0.063,0.137,0.058,0.29,0.166,0.406
			c0.056,0.063,0.129,0.042,0.201,0.084c5.767,7.947,18.289,14.022,22.388,15.857v0.517c0,0.744,0.594,1.351,1.35,1.351
			c0.744,0,1.35-0.606,1.35-1.351v-0.517C66.343,154.623,78.859,148.543,84.631,140.601z M46.438,145.854l13.104-13.11v9.07
			l-7.652,7.652C50.056,148.368,48.191,147.15,46.438,145.854z M46.438,96.119l13.104-13.112v9.073l-7.652,7.651
			C50.056,98.64,48.191,97.414,46.438,96.119z M69.895,99.731l-7.657-7.651v-9.073L75.36,96.119
			C73.599,97.414,71.732,98.64,69.895,99.731z M69.895,149.466l-7.657-7.652v-9.07l13.123,13.11
			C73.599,147.15,71.732,148.368,69.895,149.466z M62.237,145.632l5.234,5.221c-1.896,1.033-3.689,1.93-5.234,2.652V145.632z
			 M77.504,144.187l-15.261-15.261v-9.107L82.05,139.62C80.803,141.202,79.242,142.736,77.504,144.187z M84.929,132.675
			c0,1.566-0.52,3.122-1.355,4.656l-21.331-21.325v-4.166C70.245,115.536,84.929,124.079,84.929,132.675z M62.237,95.898
			l5.234,5.221c-1.896,1.037-3.689,1.925-5.234,2.653V95.898z M77.504,94.45L62.243,79.2v-9.11L82.05,89.892
			C80.803,91.468,79.242,93.003,77.504,94.45z M84.929,82.941c0,1.566-0.52,3.122-1.355,4.656L62.243,66.271v-4.163
			C70.245,65.803,84.929,74.346,84.929,82.941z M59.538,62.104v4.163L38.225,87.598c-0.844-1.535-1.36-3.09-1.36-4.656
			C36.864,74.346,51.546,65.803,59.538,62.104z M39.741,89.892L59.538,70.09v9.11L44.289,94.456
			C42.549,93.008,40.978,91.474,39.741,89.892z M54.322,101.119l5.221-5.221v7.874C57.995,103.054,56.207,102.155,54.322,101.119z
			 M59.538,111.84V116l-21.313,21.326c-0.844-1.534-1.36-3.091-1.36-4.656C36.864,124.079,51.546,115.536,59.538,111.84z
			 M39.741,139.625l19.796-19.802v9.113l-15.249,15.25C42.549,142.736,40.978,141.207,39.741,139.625z M54.322,150.853l5.221-5.221
			v7.873C57.995,152.782,56.207,151.886,54.322,150.853z"/>
		<path d="M108.404,133.761v-0.517c0-0.222-0.138-0.385-0.24-0.569c0.103-0.185,0.24-0.343,0.24-0.564v-0.517
			c4.1-1.835,16.608-7.91,22.388-15.847c0.074-0.047,0.158-0.031,0.222-0.1c0.116-0.111,0.116-0.291,0.18-0.433
			c1.592-2.342,2.584-4.825,2.584-7.404c0-11.644-19.986-21.362-25.373-23.772v-0.512c0-0.222-0.138-0.385-0.24-0.569
			c0.103-0.182,0.24-0.338,0.24-0.559v-0.53c4.1-1.833,16.608-7.908,22.388-15.844c0.074-0.047,0.158-0.032,0.222-0.097
			c0.116-0.114,0.116-0.288,0.18-0.428c1.592-2.344,2.584-4.828,2.584-7.406c0-11.217-18.51-20.635-24.698-23.48
			c5.513-0.962,9.731-5.75,9.731-11.551c0-5.973-9.528-20.812-10.607-22.486c-0.514-0.767-1.761-0.767-2.272,0
			C104.85,2.25,95.312,17.089,95.312,23.062c0,5.785,4.198,10.573,9.717,11.546c-6.189,2.834-24.712,12.264-24.712,23.478
			c0,2.586,1.015,5.081,2.608,7.438c0.071,0.129,0.061,0.29,0.164,0.398c0.063,0.066,0.145,0.042,0.208,0.093
			c5.77,7.937,18.302,14.017,22.389,15.854v0.524c0,0.219,0.143,0.377,0.24,0.559c-0.098,0.185-0.24,0.348-0.24,0.57v0.517
			c-5.387,2.41-25.373,12.134-25.373,23.783c0,2.584,1.01,5.084,2.597,7.43c0.066,0.133,0.061,0.296,0.161,0.406
			c0.066,0.063,0.137,0.048,0.211,0.09c5.769,7.937,18.301,14.017,22.389,15.857v0.521c0,0.222,0.137,0.375,0.237,0.56
			c-0.101,0.185-0.237,0.348-0.237,0.569v0.517c-5.39,2.41-25.384,12.135-25.384,23.778c0,2.584,1.015,5.084,2.607,7.43
			c0.063,0.133,0.058,0.296,0.161,0.406c0.065,0.063,0.142,0.048,0.211,0.09c5.553,7.636,17.328,13.537,21.877,15.615
			c-5.58,0.906-9.862,5.727-9.862,11.564c0,5.964,9.537,20.809,10.616,22.48c0.261,0.38,0.675,0.611,1.134,0.611
			c0.461,0,0.881-0.231,1.136-0.611c1.084-1.677,10.613-16.517,10.613-22.48c0-5.844-4.293-10.668-9.875-11.564
			c4.538-2.078,16.304-7.974,21.846-15.609c0.079-0.048,0.158-0.032,0.222-0.096c0.116-0.115,0.116-0.295,0.179-0.442
			c1.593-2.337,2.595-4.82,2.595-7.394C133.777,145.896,113.791,136.171,108.404,133.761z M131.077,157.539
			c0,1.551-0.517,3.111-1.351,4.641l-21.322-21.315v-4.16C116.406,140.4,131.077,148.943,131.077,157.539z M116.059,174.33
			l-7.649-7.646v-9.07l13.102,13.109C119.739,172.021,117.894,173.233,116.059,174.33z M92.591,170.723l13.113-13.109v9.07
			l-7.657,7.646C96.209,173.233,94.358,172.021,92.591,170.723z M92.591,120.989l13.113-13.104v9.07l-7.657,7.646
			C96.209,123.505,94.358,122.286,92.591,120.989z M92.591,71.255l13.113-13.104v9.065l-7.657,7.654
			C96.209,73.773,94.358,72.558,92.591,71.255z M116.059,74.87l-7.649-7.654V58.15l13.102,13.104
			C119.739,72.553,117.894,73.773,116.059,74.87z M116.059,124.602l-7.649-7.657v-9.065l13.102,13.104
			C119.739,122.286,117.894,123.505,116.059,124.602z M105.704,170.501v7.868c-1.54-0.712-3.333-1.608-5.229-2.647L105.704,170.501z
			 M108.404,170.501l5.218,5.221c-1.894,1.039-3.676,1.931-5.218,2.647V170.501z M108.404,120.763l5.218,5.221
			c-1.894,1.038-3.676,1.935-5.218,2.646V120.763z M123.652,119.317l-15.248-15.256v-9.11l19.804,19.8
			C126.953,116.333,125.402,117.872,123.652,119.317z M131.077,107.811c0,1.551-0.517,3.111-1.351,4.641l-21.322-21.312V86.98
			C116.406,90.664,131.077,99.212,131.077,107.811z M108.404,71.034l5.218,5.223c-1.894,1.042-3.676,1.933-5.218,2.645V71.034z
			 M123.652,69.589l-15.248-15.256v-9.11l19.804,19.792C126.953,66.596,125.402,68.142,123.652,69.589z M131.077,58.069
			c0,1.561-0.517,3.116-1.351,4.643l-21.322-21.312v-4.163C116.406,40.936,131.077,49.484,131.077,58.069z M98.013,23.056
			c0-3.881,5.756-13.948,9.052-19.234c3.282,5.286,9.047,15.354,9.047,19.234c0,4.989-4.061,9.05-9.047,9.05
			C102.073,32.105,98.013,28.045,98.013,23.056z M105.704,37.247v4.152L84.378,62.73c-0.841-1.529-1.36-3.09-1.36-4.651
			C83.018,49.484,97.699,40.936,105.704,37.247z M85.896,65.02l19.808-19.807v9.115L90.442,69.583
			C88.691,68.142,87.144,66.602,85.896,65.02z M100.475,76.257l5.229-5.223v7.874C104.164,78.189,102.371,77.293,100.475,76.257z
			 M105.704,86.976v4.152l-21.326,21.334c-0.841-1.529-1.36-3.09-1.36-4.662C83.018,99.212,97.699,90.664,105.704,86.976z
			 M85.896,114.751l19.808-19.805v9.115l-15.262,15.256C88.691,117.872,87.144,116.333,85.896,114.751z M100.475,125.983
			l5.229-5.221v7.873C104.164,127.924,102.371,127.027,100.475,125.983z M105.704,136.709v4.155l-21.326,21.337
			c-0.841-1.54-1.36-3.091-1.36-4.651C83.018,148.943,97.699,140.39,105.704,136.709z M85.896,164.479l19.808-19.808v9.118
			l-15.262,15.256C88.691,167.601,87.144,166.062,85.896,164.479z M116.111,192.64c0,3.881-5.754,13.942-9.047,19.227
			c-3.277-5.284-9.052-15.346-9.052-19.227c0-5,4.061-9.061,9.052-9.061C112.051,183.59,116.111,187.64,116.111,192.64z
			 M123.652,169.051l-15.248-15.256v-9.112l19.804,19.797C126.953,166.062,125.402,167.601,123.652,169.051z"/>
		<path d="M113.77,23.812c0-3.699-3.017-6.713-6.705-6.713c-3.689,0-6.708,3.019-6.708,6.713c0,3.705,3.024,6.705,6.708,6.705
			C110.753,30.518,113.77,27.512,113.77,23.812z M103.057,23.812c0-2.215,1.804-4.013,4.008-4.013c2.207,0,4.005,1.798,4.005,4.013
			c0,2.207-1.798,4.005-4.005,4.005C104.86,27.818,103.057,26.02,103.057,23.812z"/>
		<path d="M100.356,191.88c0,3.707,3.024,6.713,6.708,6.713c3.688,0,6.705-3.011,6.705-6.713c0-3.696-3.017-6.708-6.705-6.708
			C103.381,185.172,100.356,188.184,100.356,191.88z M111.069,191.88c0,2.215-1.798,4.013-4.005,4.013
			c-2.204,0-4.008-1.798-4.008-4.013c0-2.204,1.804-4.008,4.008-4.008C109.271,187.872,111.069,189.665,111.069,191.88z"/>
	</g>
</g>
<g>
</g>
<g>
</g>
<g>
</g>
<g>
</g>
<g>
</g>
<g>
</g>
<g>
</g>
<g>
</g>
<g>
</g>
<g>
</g>
<g>
</g>
<g>
</g>
<g>
</g>
<g>
</g>
<g>
</g>
</svg>
