<?xml version="1.0" encoding="iso-8859-1"?>
<!-- Generator: Adobe Illustrator 16.0.0, SVG Export Plug-In . SVG Version: 6.00 Build 0)  -->
<!DOCTYPE svg PUBLIC "-//W3C//DTD SVG 1.1//EN" "http://www.w3.org/Graphics/SVG/1.1/DTD/svg11.dtd">
<svg version="1.1" id="Capa_1" xmlns="http://www.w3.org/2000/svg" xmlns:xlink="http://www.w3.org/1999/xlink" x="0px" y="0px"
	 width="161.547px" height="161.547px" viewBox="0 0 161.547 161.547" style="enable-background:new 0 0 161.547 161.547;"
	 xml:space="preserve">
<g>
	<g>
		<path d="M23.091,74.271c0.021,0,0.232,0,0.261,0c1.748,0,3.401-0.48,4.859-1.257c7.641,8.018,8.849,9.848,13.996,24.107
			c0.292,0.801,0.556,1.608,0.87,2.415c0.222,0.611,0.433,1.208,0.67,1.861c0.077,0.206,0.253,0.312,0.361,0.479
			c4.396,9.889,11.713,19.786,22.615,28.836c2.463,2.041,4.87,3.907,7.23,5.6c0.201,0.665,0.422,1.329,0.665,1.983
			c3.159,8.616,9.492,15.482,17.819,19.338c5.737,2.652,11.76,3.913,17.687,3.913c15.968,0,31.282-9.092,38.417-24.501
			c0.306-0.653,0.301-1.487,0.053-2.162c-0.337-0.923-1.171-1.587-2.141-1.725c-0.997-0.142-1.94,0.253-2.547,1.039
			c-5.11,6.755-13.427,11.254-22.818,12.34c-9.371,1.076-23.91-0.638-42.431-13.495c-1.463-6.265-0.804-12.804,1.938-18.741
			c2.534-5.484,7.053-9.65,12.722-11.729c5.005-1.829,10.362-1.751,15.325,0.017c-0.158,1.508-0.006,3.037,0.554,4.498
			c1.45,3.85,5.188,6.434,9.308,6.434c1.207,0,2.373-0.217,3.512-0.644c5.121-1.936,7.721-7.688,5.78-12.825
			c-1.878-4.951-7.773-7.668-12.814-5.779c-1.777,0.675-3.265,1.824-4.383,3.301c-5.79-2.094-12.002-2.268-17.897-0.391
			c0.095-3.791-1.023-7.161-3.497-9.987c-7.791-8.901-25.758-9.36-29.489-9.36c0,0-0.005,0-0.01,0
			c-0.989,0.011-1.896,0.562-2.354,1.437c-0.464,0.873-0.412,1.932,0.129,2.755c3.808,5.732,4.772,9.202,5.06,12.641
			c0.696,8.774,2.046,16.764,10.74,18.141c0.741,0.116,1.416,0.152,2.059,0.163c-2.138,4.968-3.09,10.257-2.782,15.525
			c-0.789-0.623-1.587-1.266-2.381-1.931c-10.979-9.117-18.112-19.095-22.053-28.935c-0.077-0.206-0.148-0.422-0.222-0.623
			c-4.116-10.631-4.467-21.054-1.938-30.05c6.194-0.129,22.343-1.656,30.153-13.614c2.845-4.366,2.682-10.099,2.542-15.161
			c-0.113-4.055-0.231-8.247,1.411-9.942c1.295-1.345,3.272-1.01,5.392-0.496c1.055,0.253,2.157,0.522,3.238,0.522
			c2.252,0,3.48-1.15,4.103-2.115c1.936-2.966,1.703-6.929-0.648-11.158c-2.057-3.681-5.563-7.267-9.903-10.091
			c-9.245-6.027-20.095-6.621-23.702-1.103c-1.893,2.906,0.148,5.58,1.498,7.354c1.685,2.215,2.402,3.446,1.711,5.131
			c-0.891,2.181-4.781,3.763-8.538,5.292c-4.688,1.906-10.001,4.065-12.852,8.43c-8.991,13.779-0.923,32.049,0.522,35.055
			c-1.115,3.847-1.803,7.902-1.922,12.129c-1.695-2.359-3.799-4.704-6.755-7.807c1.015-1.582,1.664-3.436,1.695-5.432
			c0.076-2.819-0.97-5.498-2.908-7.539c-1.957-2.049-4.596-3.214-7.676-3.274c-5.777,0-10.42,4.538-10.549,10.33
			C12.647,69.293,17.277,74.137,23.091,74.271z M121.731,151.891c3.169-0.363,6.232-1.076,9.139-2.094
			c-10.357,6.987-24.016,8.559-36.16,2.938c-5.205-2.41-9.481-6.217-12.44-10.984C99.087,151.648,112.592,152.94,121.731,151.891z
			 M114.38,101.698c0.501-1.107,1.402-1.951,2.531-2.378c0.522-0.195,1.06-0.296,1.604-0.296c1.888,0,3.596,1.182,4.255,2.927
			c0.887,2.352-0.3,4.983-2.637,5.864c-0.521,0.195-1.049,0.295-1.603,0.295c-1.888,0-3.592-1.176-4.256-2.942
			C113.837,104.045,113.874,102.811,114.38,101.698z M74.138,107.462c-3.612-0.569-5.363-2.615-6.199-13.241
			c-0.309-3.691-1.297-7.029-3.288-10.79c7.085,0.586,16.334,2.553,20.503,7.314c1.841,2.099,2.542,4.599,2.136,7.594
			c-0.09,0.459-0.844,1.735-1.951,1.993C84.047,92,77.643,89.501,77.334,89.385c-1.392-0.512-2.897,0.185-3.438,1.561
			c-0.535,1.382,0.15,2.938,1.521,3.491c0.206,0.085,5.007,2.131,4.73,9.587C79.642,105.701,78.209,108.1,74.138,107.462z
			 M44.892,32.951c1.922-2.948,6.21-4.699,10.362-6.384c4.802-1.948,9.753-3.963,11.501-8.255c1.93-4.736-0.789-8.311-2.413-10.444
			c-0.335-0.438-0.793-1.042-1.025-1.453c0.978-1.042,2.866-1.216,3.968-1.216c3.489,0,7.981,1.572,12.016,4.203
			c3.552,2.326,6.523,5.308,8.132,8.208c1.182,2.104,1.545,4.011,1.028,5.221c-0.448-0.042-1.097-0.205-1.725-0.351
			c-1.26-0.313-2.694-0.654-4.266-0.654c-2.469,0-4.58,0.891-6.276,2.642c-3.217,3.319-3.061,8.672-2.921,13.846
			c0.119,4.474,0.261,9.109-1.674,12.052c-5.674,8.688-17.355,10.671-23.694,11.08c1.182-2.65,2.624-5.129,4.34-7.391
			c0.292-0.385,0.422-0.817,0.482-1.261c1.366,0.638,2.813,1.07,4.335,1.07c3.533,0,6.805-1.767,8.728-4.725
			c1.516-2.328,2.041-5.097,1.468-7.826c-0.572-2.721-2.165-5.06-4.498-6.576c-4.656-3.035-11.361-1.622-14.401,3.03
			c-1.519,2.325-2.041,5.102-1.469,7.823c0.34,1.653,1.102,3.127,2.138,4.39c-0.412,0.18-0.793,0.427-1.086,0.807
			c-1.593,2.104-2.953,4.396-4.158,6.809C41.738,51.387,39.652,40.99,44.892,32.951z M52.878,40.732
			c0.933-1.418,2.505-2.268,4.195-2.268c0.979,0,1.912,0.28,2.74,0.81c1.118,0.736,1.882,1.859,2.154,3.159
			c0.274,1.308,0.021,2.647-0.714,3.766c-1.456,2.23-4.665,2.937-6.927,1.463c-1.124-0.735-1.891-1.858-2.154-3.159
			C51.89,43.194,52.15,41.85,52.878,40.732z M23.46,58.535L23.46,58.535c1.387,0.034,2.676,0.601,3.633,1.601
			c0.955,1.004,1.464,2.305,1.427,3.681c-0.066,2.798-2.373,5.065-5.157,5.065v2.7l-0.124-2.7c-2.848-0.063-5.115-2.434-5.055-5.287
			C18.237,60.75,20.505,58.535,23.46,58.535z"/>
	</g>
</g>
<g>
</g>
<g>
</g>
<g>
</g>
<g>
</g>
<g>
</g>
<g>
</g>
<g>
</g>
<g>
</g>
<g>
</g>
<g>
</g>
<g>
</g>
<g>
</g>
<g>
</g>
<g>
</g>
<g>
</g>
</svg>
