<?xml version="1.0" encoding="iso-8859-1"?>
<!-- Generator: Adobe Illustrator 16.0.0, SVG Export Plug-In . SVG Version: 6.00 Build 0)  -->
<!DOCTYPE svg PUBLIC "-//W3C//DTD SVG 1.1//EN" "http://www.w3.org/Graphics/SVG/1.1/DTD/svg11.dtd">
<svg version="1.1" id="Capa_1" xmlns="http://www.w3.org/2000/svg" xmlns:xlink="http://www.w3.org/1999/xlink" x="0px" y="0px"
	 width="160.412px" height="160.412px" viewBox="0 0 160.412 160.412" style="enable-background:new 0 0 160.412 160.412;"
	 xml:space="preserve">
<g>
	<path d="M143.246,50.399c-6.388,0-11.588,5.2-11.588,11.585c0,1.613,0.341,3.148,0.932,4.545
		c-8.793,4.476-14.219,11.597-15.868,20.703c-1.108-2.63-2.229-5.225-3.344-7.76c-0.225-0.524-0.444-1.035-0.669-1.546
		c0.012-0.268,0.012-0.524-0.067-0.792c-4.841-16.535-0.384-28.975,12.501-35.152c2.059,1.845,4.737,2.986,7.709,2.986
		c6.375,0,11.575-5.2,11.575-11.572s-5.193-11.572-11.575-11.572c-6.394,0-11.588,5.2-11.588,11.572
		c0,1.614,0.341,3.148,0.932,4.546c-9.621,4.904-15.107,13.049-16.143,23.395c-6.326-17.26-8.865-28.488-1.132-38.928
		c1.26,0.469,2.6,0.761,4.03,0.761c6.376,0,11.576-5.2,11.576-11.585C120.527,5.2,115.333,0,108.951,0
		c-6.394,0-11.587,5.2-11.587,11.584c0,3.148,1.272,5.998,3.312,8.087c-10.31,14.224-4.312,30.26,2.654,48.71
		c1.639,4.32,3.544,8.698,5.475,13.104c0.341,0.768,0.67,1.535,1.005,2.29c-5.87-4.792-12.715-6.951-20.119-6.409
		c-0.523-6.54-3.465-27.864-19.686-36.663c-2.713-1.458-5.91-2.159-10.081-2.159c-2.838,0-5.718,0.32-8.507,0.63
		c-2.493,0.274-4.932,0.554-7.146,0.554c-2.862,0-4.768-0.472-5.998-1.483c-2.183-1.784-2.013-4.022-1.471-7.45
		c0.417-2.658,0.983-6.3-2.284-8.062c-6.813-3.729-17.719,3.042-24.155,14.934C3.783,49.8,4.075,62.271,11.032,66.055
		c2.813,1.522,5.718-0.417,8.001-2.481c2.088-1.881,4.241-3.754,7.051-2.825c3.151,0.993,5.49,5.614,7.959,10.513
		c2.786,5.526,5.946,11.782,11.414,14.736c4.521,2.466,9.691,3.689,15.378,3.702l0,0c10.687,0,20.533-4.317,25.1-6.68
		c12.373-2.805,22.986,3.051,30.166,16.836c4.177,12.896,5.432,26.104-2.691,39.598c-4.927,8.16-12.623,13.615-21.666,15.357
		c-10.132,1.961-21.168-0.853-30.217-7.709c-1.103-0.828-2.667-0.621-3.492,0.487c-0.828,1.096-0.618,2.679,0.487,3.507
		c8.038,6.077,17.498,9.316,26.792,9.316c2.466,0,4.944-0.231,7.368-0.693c10.448-2.01,19.339-8.294,24.989-17.684
		c7.259-12.074,7.771-23.894,5.414-35.207c0.042-0.342,0.023-0.67-0.073-1.023c-4.841-16.525-0.39-28.969,12.501-35.141
		c2.052,1.852,4.737,2.999,7.709,2.999c6.375,0,11.575-5.2,11.575-11.588C154.815,55.673,149.627,50.399,143.246,50.399z
		 M132.852,26.811c3.635,0,6.595,2.968,6.595,6.604c0,3.635-2.96,6.604-6.595,6.604c-3.636,0-6.606-2.969-6.606-6.604
		C126.245,29.778,129.216,26.811,132.852,26.811z M108.951,4.986c3.636,0,6.595,2.969,6.595,6.604s-2.959,6.604-6.595,6.604
		c-3.635,0-6.606-2.969-6.606-6.604S105.316,4.986,108.951,4.986z M60.854,84.639c-4.844,0-9.222-1.035-13-3.093
		c-4.098-2.205-6.759-7.484-9.341-12.599c-2.962-5.849-5.754-11.39-10.906-13.013c-1.029-0.329-2.058-0.49-3.062-0.49
		c-3.977,0-6.784,2.524-8.835,4.363c-0.773,0.691-1.93,1.738-2.281,1.814c-3.796-2.059-4.177-11.448,1.334-21.632
		c4.771-8.79,11.341-13.384,15.375-13.384c0.755,0,1.428,0.149,1.96,0.39c0.18,0.401-0.058,1.948-0.219,2.989
		c-0.523,3.322-1.309,8.354,3.236,12.087c2.856,2.338,6.598,2.609,9.165,2.609c2.438,0,4.99-0.283,7.69-0.587
		c2.655-0.292,5.398-0.59,7.961-0.59c3.304,0,5.754,0.49,7.7,1.543c12.084,6.556,15.673,22.049,16.732,29.771l-12.656-6.872
		c1.568-5.346-0.74-11.28-5.842-14.035c-5.696-3.087-13.335-0.792-16.404,4.874c-1.546,2.838-1.881,6.11-0.965,9.222
		c0.917,3.099,2.993,5.645,5.831,7.185c1.769,0.959,3.766,1.458,5.767,1.458c3.611,0,6.92-1.666,9.198-4.348l12.212,6.622
		c-0.5,0.237-0.907,0.612-1.146,1.083C75.592,82.148,68.379,84.639,60.854,84.639z M66.364,67.988
		c-1.815,3.343-6.272,4.688-9.651,2.862c-1.672-0.911-2.887-2.405-3.422-4.226c-0.542-1.827-0.344-3.754,0.566-5.419
		c1.248-2.302,3.647-3.73,6.266-3.73c1.172,0,2.338,0.298,3.379,0.862C66.952,60.206,68.236,64.532,66.364,67.988z M143.246,68.582
		c-3.636,0-6.607-2.963-6.607-6.598c0-3.636,2.972-6.598,6.607-6.598c3.635,0,6.594,2.962,6.594,6.598
		C149.84,65.619,146.881,68.582,143.246,68.582z"/>
</g>
<g>
</g>
<g>
</g>
<g>
</g>
<g>
</g>
<g>
</g>
<g>
</g>
<g>
</g>
<g>
</g>
<g>
</g>
<g>
</g>
<g>
</g>
<g>
</g>
<g>
</g>
<g>
</g>
<g>
</g>
</svg>
