<?xml version="1.0" encoding="iso-8859-1"?>
<!-- Generator: Adobe Illustrator 16.0.0, SVG Export Plug-In . SVG Version: 6.00 Build 0)  -->
<!DOCTYPE svg PUBLIC "-//W3C//DTD SVG 1.1//EN" "http://www.w3.org/Graphics/SVG/1.1/DTD/svg11.dtd">
<svg version="1.1" id="Capa_1" xmlns="http://www.w3.org/2000/svg" xmlns:xlink="http://www.w3.org/1999/xlink" x="0px" y="0px"
	 width="171.878px" height="171.878px" viewBox="0 0 171.878 171.878" style="enable-background:new 0 0 171.878 171.878;"
	 xml:space="preserve">
<g>
	<path d="M145.293,11.61c-2.516-3.314-6.449-6.338-11.085-8.509C129.941,1.103,125.433,0,121.499,0
		c-5.067,0-8.833,1.841-10.336,5.055c-1.323,2.809,0.839,4.937,2.41,6.492c1.962,1.938,3.111,3.271,2.573,5.416
		c-0.638,2.521-4.224,4.606-8.021,6.808c-4.341,2.523-9.255,5.374-11.401,9.969c-7.409,15.757,5.089,33.951,5.632,34.718
		c0.185,0.264,0.433,0.464,0.701,0.614c0.854,7.208,3.744,14.897,6.861,23.151c1.418,3.744,3.063,7.53,4.74,11.348
		c0.296,0.665,0.575,1.324,0.87,1.983c-5.505-4.482-11.965-6.423-18.995-5.495c1.445-1.804,2.742-4.029,3.392-6.687
		c1.213-4.915-0.026-10.088-3.665-15.38c-4.066-5.922-9.185-8.678-16.1-8.678c-5.661,0-12.778,1.798-23.789,6.017
		c-9.002,3.434-17.16,3.882-30.217,2.041c-0.061-0.005-0.113,0.026-0.174,0.021c-0.269-0.016-0.53,0.016-0.789,0.103
		c-0.103,0.032-0.195,0.061-0.288,0.103c-0.29,0.14-0.554,0.335-0.765,0.604c-0.005,0.01-0.019,0.01-0.029,0.023v0.005v0.006
		c-0.216,0.29-0.316,0.619-0.367,0.959c-0.01,0.092-0.005,0.174-0.01,0.269c-0.005,0.271,0.037,0.53,0.129,0.791
		c0.021,0.058,0,0.116,0.026,0.177c0.88,1.901,21.826,46.498,49.48,46.498c5.255,0,10.428-1.635,15.375-4.852
		c2.515-1.635,5.368-5.843,5.695-10.431c0.158-2.31-0.359-4.45-1.456-6.37c11.533-3.512,21.421,1.508,28.018,14.154
		c3.618,11.169,4.699,22.602-2.336,34.287c-4.266,7.066-10.927,11.792-18.768,13.3c-8.775,1.688-18.326-0.738-26.167-6.66
		c-0.96-0.733-2.305-0.543-3.022,0.417c-0.72,0.954-0.535,2.304,0.419,3.021c6.961,5.278,15.153,8.079,23.211,8.079
		c2.141,0,4.282-0.201,6.381-0.612c9.055-1.734,16.743-7.166,21.647-15.304c7.515-12.514,6.666-24.727,3.201-36.26
		c0.058-0.396,0.031-0.817-0.164-1.218c-0.132-0.285-0.306-0.507-0.442-0.781c-1.799-5.474-4.124-10.768-6.354-15.873
		c-0.185-0.453-0.38-0.896-0.575-1.339c0.011-0.222,0.011-0.454-0.058-0.686c-4.24-14.479-0.274-25.355,11.169-30.626
		c1.086-0.501,1.556-1.782,1.055-2.866c-0.501-1.081-1.771-1.556-2.863-1.055c-9.055,4.169-14.133,11.502-15.071,20.878
		c-2.416-6.621-4.198-12.242-4.868-17.199c6.486-1.118,21.374-4.983,27.206-17.421c2.151-4.591,1.208-10.188,0.374-15.13
		c-0.732-4.337-1.424-8.429,0.111-10.536c0.838-1.155,1.909-1.624,3.681-1.624c0.728,0,1.455,0.074,2.136,0.135
		c3.301,0.311,5.553-0.211,6.534-2.302C148.868,19.035,148.108,15.319,145.293,11.61z M72.372,121.965
		c-0.134,0.158-0.203,0.337-0.285,0.527c-2.618-0.153-5.179-0.781-7.673-1.772l14.958-13.711c0.63,0.048,1.29,0.116,1.898,0.116
		c1.35,0,2.626-0.127,3.863-0.338L72.372,121.965z M52.651,113.2l15.283-8.47c1.994,0.633,3.942,1.129,5.859,1.52l-13.561,12.445
		C57.598,117.176,55.059,115.31,52.651,113.2z M70.139,100.913l-4.92-24.185c2.576-0.852,4.838-1.5,6.9-1.993l4.364,27.675
		C74.457,102.084,72.34,101.588,70.139,100.913z M92.701,80.434c2.905,4.224,3.934,8.213,3.037,11.873
		c-0.754,3.074-2.737,5.463-4.52,7.082l-3.52-23.831C89.547,76.671,91.192,78.231,92.701,80.434z M83.108,73.926
		c0,0.024-0.005,0.045,0,0.071l4.087,27.675c-1.804,0.791-3.921,1.15-6.281,1.129l-4.556-28.885c1.36-0.187,2.629-0.292,3.802-0.292
		C81.223,73.636,82.167,73.781,83.108,73.926z M57.917,79.365c1.113-0.422,2.16-0.812,3.186-1.188l4.292,21.112
		c-2.057-0.781-4.14-1.656-6.236-2.59l-3.823-16.438C56.195,79.975,57.052,79.698,57.917,79.365z M37.965,96.072l8.143-0.791
		c0.14-0.011,0.258-0.085,0.388-0.111c1.798,0.997,3.651,1.962,5.537,2.911l-10.262,3.254
		C40.425,99.553,39.141,97.802,37.965,96.072z M31.872,86.287c2.36,1.559,5.173,3.352,8.306,5.229l-4.875,0.475
		C34.005,89.944,32.855,88.02,31.872,86.287z M47.613,90.83l-1.825-8.49c1.835-0.216,3.623-0.512,5.39-0.918l2.998,12.883
		C51.95,93.192,49.757,92.032,47.613,90.83z M41.445,82.68l1.124,5.234c-3.093-1.849-5.978-3.673-8.553-5.374
		C36.646,82.717,39.104,82.772,41.445,82.68z M44.665,104.941l13.083-4.145c1.582,0.707,3.172,1.371,4.759,1.993l-12.87,7.13
		c-0.103,0.063-0.161,0.143-0.248,0.211C47.742,108.475,46.171,106.734,44.665,104.941z M86.381,118.441
		c-2.756,1.793-5.574,2.953-8.419,3.586l11.66-13.863c0.4,0.98,0.575,2.035,0.496,3.174
		C89.885,114.539,87.802,117.524,86.381,118.441z M143.663,20.116c-0.005,0.005-1.149,0.076-2.341-0.051
		c-0.812-0.079-1.683-0.155-2.553-0.155c-3.164,0-5.511,1.113-7.172,3.401c-2.6,3.575-1.767,8.543-0.881,13.798
		c0.765,4.53,1.556,9.213-0.026,12.577c-4.81,10.238-17.581,13.769-23.557,14.893c0.069-4.488,1.371-8.517,4.335-12.409
		c1.061,0.417,2.178,0.691,3.317,0.691c3.454,0,6.586-1.901,8.179-4.957c2.342-4.504,0.575-10.067-3.929-12.414
		c-4.377-2.286-10.136-0.438-12.397,3.913c-1.14,2.184-1.355,4.672-0.612,7.021c0.386,1.237,1.023,2.339,1.846,3.277
		c-2.716,3.634-4.224,7.399-4.793,11.317c-2.975-5.988-6.697-16.398-2.441-25.444c1.576-3.37,5.685-5.756,9.66-8.066
		c4.604-2.673,8.955-5.203,10.036-9.484c1.196-4.68-1.762-7.607-3.718-9.545c-0.564-0.564-1.435-1.421-1.535-1.59
		c0.754-1.608,3.153-2.563,6.423-2.563c3.302,0,7.172,0.955,10.874,2.687c4.008,1.88,7.372,4.44,9.472,7.204
		C143.626,16.551,144.232,18.75,143.663,20.116z M110.14,45.117c-0.385-1.242-0.273-2.571,0.333-3.721
		c0.844-1.624,2.499-2.628,4.334-2.628c0.791,0,1.535,0.187,2.247,0.556c2.389,1.242,3.322,4.195,2.083,6.587
		c-1.213,2.317-4.245,3.296-6.592,2.08C111.39,47.38,110.541,46.364,110.14,45.117z"/>
</g>
<g>
</g>
<g>
</g>
<g>
</g>
<g>
</g>
<g>
</g>
<g>
</g>
<g>
</g>
<g>
</g>
<g>
</g>
<g>
</g>
<g>
</g>
<g>
</g>
<g>
</g>
<g>
</g>
<g>
</g>
</svg>
