<?xml version="1.0" encoding="iso-8859-1"?>
<!-- Generator: Adobe Illustrator 16.0.0, SVG Export Plug-In . SVG Version: 6.00 Build 0)  -->
<!DOCTYPE svg PUBLIC "-//W3C//DTD SVG 1.1//EN" "http://www.w3.org/Graphics/SVG/1.1/DTD/svg11.dtd">
<svg version="1.1" id="Capa_1" xmlns="http://www.w3.org/2000/svg" xmlns:xlink="http://www.w3.org/1999/xlink" x="0px" y="0px"
	 width="171.032px" height="171.032px" viewBox="0 0 171.032 171.032" style="enable-background:new 0 0 171.032 171.032;"
	 xml:space="preserve">
<g>
	<g>
		<path d="M124.329,109.735c2.581,5.359,6.85,7.861,13.384,7.861c3.038,0,6.759-0.512,12.02-1.644
			c5.396-1.169,9.889-0.67,17.147,1.51c0.292,0.098,0.597,0.134,0.907,0.134c0.043,0,0.091,0,0.128,0c1.717,0,3.117-1.4,3.117-3.117
			c0-0.627-0.17-1.199-0.486-1.693c-1.656-5.285-11.083-32.711-28.875-32.711c-2.618,0-5.298,0.612-7.94,1.809
			c-2.083,0.932-4.585,3.611-5.34,6.899c-0.207,0.896-0.22,1.778-0.146,2.655c-2.594,0.426-4.92,1.32-7.052,2.508
			c0.5-1.242,0.999-2.472,1.486-3.689c0.231-0.578,0.475-1.114,0.706-1.688c0.128-0.146,0.316-0.23,0.408-0.414
			c8.33-14.894,20.216-20.325,33.503-15.292c1.619,0.621,3.409-0.201,4.024-1.809c0.609-1.611-0.194-3.413-1.803-4.022
			c-10.096-3.824-19.68-2.73-27.87,2.832c7.563-15.552,13.841-24.405,26.835-25.523c1.699-0.137,2.984-1.659,2.838-3.374
			c-0.146-1.708-1.705-2.999-3.373-2.837c-19.309,1.653-26.835,17.877-35.536,36.684c-1.949,4.208-3.733,8.641-5.529,13.116
			c-0.019,0.049-0.03,0.085-0.055,0.134c-1.455-8.869-6.527-16.057-14.961-20.895c0.755-3.824-0.335-7.932-3.252-10.918
			c-4.549-4.652-12.602-4.729-17.272-0.155c-4.801,4.731-4.871,12.471-0.155,17.274c2.314,2.36,5.417,3.657,8.716,3.657
			c3.219,0,6.251-1.242,8.553-3.498c0.243-0.238,0.408-0.505,0.633-0.755c11.119,6.546,14.614,18.104,9.95,32.863
			c-6.224,11.996-14.614,22.141-29.773,25.77c-9.146,2.174-18.219,0.523-25.62-4.598c-4.741-3.258-8.525-7.781-11.244-13.086
			c4.752-5.054,16.891-19.898,13.119-36.321c-1.352-5.864-6.248-10.327-10.556-14.261c-3.474-3.163-7.039-6.418-7.146-9.137
			c-0.076-2.107,1.19-3.154,3.897-4.875c2.195-1.391,5.468-3.486,4.551-7.383c-1.303-5.729-7.906-9.289-17.235-9.289
			c-2.886,0-5.879,0.359-8.89,1.048C7.024,36.505-1.55,44.604,0.234,52.333c0.904,3.906,4.762,4.348,7.319,4.641
			c3.191,0.374,4.79,0.755,5.648,2.694c1.099,2.481-0.703,6.984-2.448,11.335C8.57,76.428,6.125,82.572,7.478,88.43
			c4.092,17.823,24.226,25.818,29.021,27.48c3.19,6.491,7.806,12.051,13.579,16.021c6.348,4.385,13.701,6.644,21.339,6.644
			c3.054,0,6.171-0.365,9.277-1.103c12.873-3.074,21.47-10.193,27.839-18.949c0.487-0.268,0.907-0.67,1.176-1.182
			c4.274-7.599,8.293-13.907,13.493-17.311C122.313,103.02,122.648,106.259,124.329,109.735z M129.273,101.229
			c1.022-2.49,3.872-3.678,4.269-3.824c3.817,0.292,8.227,1.729,13.481,4.628c1.479,0.853,3.397,0.292,4.237-1.2
			c0.828-1.504,0.293-3.403-1.218-4.244c-5.931-3.281-11.039-4.858-15.588-5.297c-0.085-0.342-0.098-0.682-0.013-1.072
			c0.28-1.357,1.438-2.472,1.84-2.648c1.839-0.834,3.653-1.254,5.383-1.254c9.949,0,17.598,14.169,21.3,23.705
			c-5.48-1.146-9.683-1.206-14.541-0.158c-12.617,2.715-15.979,2.338-18.475-2.826C128.859,104.761,128.627,102.8,129.273,101.229z
			 M94.053,69.075c-2.269,2.241-6.202,2.208-8.452-0.079c-2.302-2.344-2.265-6.128,0.098-8.442c1.124-1.111,2.609-1.708,4.181-1.708
			c1.619,0,3.129,0.648,4.289,1.793C96.44,62.983,96.404,66.777,94.053,69.075z M36.154,93.411
			c-0.986,1.188-2.375,1.942-3.909,2.082l-0.573,0.024c-2.986,0-5.456-2.234-5.739-5.212c-0.304-3.186,2.021-6.022,5.763-6.357
			c2.987,0,5.456,2.229,5.736,5.219C37.588,90.707,37.128,92.205,36.154,93.411z M38.176,100.298
			c-0.027-0.152-0.113-0.274-0.143-0.408c1.084-0.682,2.095-1.498,2.935-2.521c2.034-2.466,2.993-5.596,2.694-8.786
			c-0.648-6.585-6.479-11.475-13.119-10.802c-6.585,0.642-11.423,6.521-10.793,13.122c0.597,6.187,5.736,10.862,11.947,10.862
			c0.137,0,0.28-0.023,0.417-0.023c0.304,2.094,0.755,4.141,1.315,6.138c-6.808-3.252-17.378-9.871-19.89-20.831
			c-0.91-3.965,1.072-8.93,2.987-13.719c2.207-5.557,4.515-11.293,2.351-16.173c-2.387-5.407-7.551-6.014-10.632-6.366
			c-0.63-0.076-1.489-0.171-2.013-0.302c-0.207-3.535,6.004-8.766,15.287-10.899c2.545-0.585,5.063-0.883,7.49-0.883
			c6.223,0,10.12,1.945,11.03,4.028c-0.405,0.341-1.166,0.81-1.69,1.154c-2.606,1.668-6.99,4.457-6.783,10.354
			c0.167,5.331,4.75,9.49,9.17,13.518c3.824,3.492,7.782,7.097,8.698,11.049c2.658,11.569-4.981,22.829-9.694,28.449
			C39.028,105.022,38.48,102.703,38.176,100.298z"/>
	</g>
</g>
<g>
</g>
<g>
</g>
<g>
</g>
<g>
</g>
<g>
</g>
<g>
</g>
<g>
</g>
<g>
</g>
<g>
</g>
<g>
</g>
<g>
</g>
<g>
</g>
<g>
</g>
<g>
</g>
<g>
</g>
</svg>
