<?xml version="1.0" encoding="iso-8859-1"?>
<!-- Generator: Adobe Illustrator 16.0.0, SVG Export Plug-In . SVG Version: 6.00 Build 0)  -->
<!DOCTYPE svg PUBLIC "-//W3C//DTD SVG 1.1//EN" "http://www.w3.org/Graphics/SVG/1.1/DTD/svg11.dtd">
<svg version="1.1" id="Capa_1" xmlns="http://www.w3.org/2000/svg" xmlns:xlink="http://www.w3.org/1999/xlink" x="0px" y="0px"
	 width="220.479px" height="220.479px" viewBox="0 0 220.479 220.479" style="enable-background:new 0 0 220.479 220.479;"
	 xml:space="preserve">
<g>
	<g>
		<path d="M3.748,96.216c7.657-4.253,14.547-1.826,24.466,3.836c-6.607,0.274-12.346,3.368-16.566,9.338
			c-0.792,1.132-0.523,2.691,0.597,3.482c0.438,0.311,0.943,0.451,1.437,0.451c0.78,0,1.559-0.366,2.037-1.048
			c5.669-8.022,14.583-9.493,25.148-4.153c0.155,0.073,0.322,0.086,0.487,0.135c0.311,0.207,0.621,0.401,0.941,0.621
			c0.523,0.353,1.065,0.706,1.595,1.071c-1.391,0.183-2.768,0.585-4.141,1.188c-0.192-0.311-0.304-0.651-0.554-0.919
			c-1.653-1.852-4.07-2.497-5.642-2.497c-0.146,0-0.725,0.042-0.868,0.067c-4.098,0.699-7.204,2.77-9.24,6.144
			c-5.775,9.572-0.356,26.598-0.119,27.315c0.28,0.877,1.017,1.511,1.915,1.693c0.155,0.024,0.305,0.036,0.46,0.036
			c0.743,0,1.452-0.329,1.933-0.907c3.815-4.688,6.473-6.399,9.271-7.525c7.252-2.911,13.67-6.169,12.541-13.927
			c-0.356-2.454-1.333-4.408-2.749-5.827c4.077,0.164,8.616,2.186,13.859,4.816c0.387,0.195,0.792,0.244,1.2,0.231
			c3.852,1.407,7.879,2.302,12.151,2.302c3.586,0,7.34-0.657,11.274-2.082c1.945-0.086,3.909-0.354,5.849-1.023
			c1.124-0.384,2.171-0.901,3.148-1.498c0.17,0.438,0.405,0.816,0.654,1.193c-2.512,1.766-4.25,4.604-4.409,7.904
			c-0.097,2.313,0.712,4.536,2.284,6.247c1.571,1.718,3.714,2.722,6.034,2.813c0.04,0,0.076,0,0.113,0
			c1.328,0,2.433-1.047,2.487-2.387c0.018-0.463-0.131-0.901-0.341-1.279c0-0.036,0.024-0.072,0.024-0.098
			c0.048-1.156-0.85-2.143-2.003-2.191c-0.591-0.024-1.126,0.194-1.525,0.572c-0.411-0.195-0.786-0.463-1.111-0.816
			c-0.673-0.719-1.017-1.687-0.978-2.654c0.131-2.898,2.582-5.127,5.499-5.036c3.635,0.152,6.527,3.002,6.859,6.54
			c-0.019,0.384-0.019,0.798,0,1.205c0,0.013,0.006,0.025,0.006,0.037v5.279c-0.904,0.725-1.516,1.803-1.516,3.051
			c0,0.024,0.006,0.036,0.006,0.055h-1.608c-0.922,0-1.772,0.512-2.208,1.327c-0.438,0.816-0.38,1.803,0.137,2.569l4.366,6.425
			c0.798,1.175,2.013,1.851,3.31,1.851s2.506-0.664,3.31-1.851l4.36-6.425c0.518-0.767,0.572-1.753,0.127-2.569
			c-0.426-0.815-1.284-1.327-2.204-1.327h-1.619c0-0.019,0.012-0.03,0.012-0.055c0-1.248-0.621-2.326-1.51-3.051v-5.255
			c0-0.024,0.012-0.049,0.012-0.079c0.019-0.39,0.013-0.804-0.006-1.199c0.323-3.514,3.222-6.363,6.862-6.528
			c1.413-0.024,2.753,0.421,3.788,1.382c1.035,0.944,1.632,2.235,1.687,3.654c0.042,0.98-0.299,1.936-0.956,2.654
			c-0.329,0.354-0.7,0.621-1.12,0.816c-0.391-0.378-0.932-0.597-1.535-0.572c-1.15,0.049-2.04,1.035-1.984,2.191
			c0,0.025,0.018,0.049,0.018,0.086c-0.219,0.383-0.384,0.815-0.359,1.291c0.067,1.376,1.225,2.521,2.601,2.387
			c2.326-0.098,4.487-1.108,6.059-2.813c1.564-1.711,2.375-3.945,2.253-6.247c-0.115-2.734-1.291-5.262-3.294-7.112
			c-0.341-0.305-0.707-0.548-1.065-0.804c0.249-0.39,0.486-0.755,0.645-1.182c0.98,0.604,2.028,1.114,3.154,1.498
			c2.016,0.707,4.062,1.035,6.096,1.096c3.83,1.358,7.514,2.01,11.021,2.01c4.28,0,8.299-0.913,12.147-2.302
			c0.396,0.013,0.81-0.036,1.206-0.231c5.236-2.643,9.772-4.652,13.858-4.816c-1.431,1.419-2.398,3.361-2.758,5.827
			c-1.127,7.758,5.297,11.021,12.543,13.927c2.795,1.126,5.456,2.837,9.269,7.525c0.48,0.591,1.193,0.907,1.942,0.907
			c0.14,0,0.304-0.012,0.45-0.036c0.907-0.171,1.645-0.816,1.924-1.693c0.238-0.718,5.657-17.743-0.128-27.315
			c-2.027-3.374-5.133-5.444-9.243-6.144c-0.14-0.025-0.712-0.067-0.858-0.067c-1.564,0-3.988,0.646-5.633,2.497
			c-0.249,0.279-0.377,0.621-0.554,0.919c-1.382-0.603-2.752-1.005-4.141-1.188c0.529-0.365,1.065-0.719,1.596-1.071
			c0.316-0.22,0.627-0.414,0.932-0.627c0.164-0.043,0.341-0.056,0.486-0.129c10.553-5.34,19.479-3.875,25.148,4.153
			c0.487,0.682,1.261,1.048,2.04,1.048c0.499,0,0.999-0.141,1.438-0.451c1.12-0.791,1.388-2.351,0.597-3.482
			c-4.214-5.965-9.962-9.064-16.562-9.338c9.919-5.663,16.824-8.089,24.46-3.836c1.212,0.679,2.733,0.244,3.392-0.959
			c0.676-1.199,0.243-2.725-0.95-3.395c-12.074-6.726-22.877-0.167-35.414,7.411c-2.539,1.546-5.085,3.267-7.654,5.011
			c2.234-5.55,2.021-11.472-0.871-17.351c0.323-0.338,0.713-0.576,0.98-0.962c1.346-1.952,1.845-4.314,1.419-6.64
			c-0.883-4.737-5.358-8.038-10.352-7.134c-4.811,0.898-8.007,5.551-7.131,10.382c0.805,4.195,4.47,7.24,8.727,7.24
			c0.535,0,1.077-0.052,1.613-0.143c0.158-0.031,0.28-0.131,0.438-0.171c3.714,8.001,1.212,15.938-7.173,22.563
			c-0.627,0.353-1.242,0.719-1.888,1.048c-0.244,0.109-0.487,0.219-0.73,0.34c-4.579,2.217-9.311,3.654-14.364,3.679
			c3.86-2.362,6.983-5.968,8.592-10.55c2.186-6.247,1.814-12.97-1.054-18.938c-2.868-5.967-7.886-10.461-14.133-12.644
			c-7.66-2.688-15.899-2.214-23.206,1.284c-1.522,0.728-2.929,1.614-4.28,2.561V77.23c0.036-0.055,0.091-0.076,0.128-0.125
			l1.948-2.874c0.518-0.768,0.572-1.754,0.128-2.57c-0.427-0.816-1.285-1.328-2.204-1.328h-5.015c-0.923,0-1.769,0.512-2.208,1.328
			c-0.429,0.81-0.38,1.802,0.137,2.563l1.939,2.868c0.039,0.055,0.101,0.073,0.137,0.131v1.614
			c-1.346-0.941-2.755-1.821-4.269-2.549c-7.316-3.504-15.552-3.973-23.196-1.284c-6.248,2.188-11.268,6.677-14.136,12.644
			c-2.868,5.968-3.249,12.69-1.053,18.938c1.616,4.606,4.783,8.188,8.668,10.537c-5.063,0-9.804-1.425-14.398-3.653
			c-0.262-0.122-0.524-0.243-0.786-0.365c-0.624-0.316-1.242-0.683-1.857-1.022c-8.388-6.632-10.899-14.569-7.185-22.576
			c0.149,0.04,0.274,0.14,0.426,0.165c0.542,0.104,1.09,0.149,1.626,0.149l0,0c4.259,0,7.925-3.044,8.723-7.252
			c0.886-4.819-2.314-9.478-7.133-10.37c-4.899-0.88-9.472,2.396-10.336,7.122c-0.438,2.338,0.061,4.701,1.41,6.652
			c0.268,0.387,0.667,0.63,0.983,0.959c-2.886,5.882-3.112,11.813-0.865,17.354c-2.563-1.738-5.109-3.465-7.657-5.011
			c-12.528-7.584-23.364-14.142-35.405-7.411c-1.203,0.67-1.635,2.21-0.959,3.395C1.022,96.46,2.551,96.895,3.748,96.216z
			 M176.024,121.307c0.408-2.819,1.705-4.074,4.227-4.074c0.73,0,1.248,0.122,1.327,0.135c2.003,1.668,3.934,4.189,5.785,7.83
			c0.444,0.877,1.314,1.364,2.229,1.364c0.377,0,0.761-0.085,1.126-0.269c1.23-0.633,1.711-2.131,1.09-3.349
			c-2.131-4.189-4.457-7.112-6.881-9.17c0.049-0.073,0.086-0.158,0.128-0.22c0.493-0.554,1.438-0.846,1.949-0.852
			c2.637,0.45,4.542,1.692,5.809,3.799c2.898,4.805,1.997,13.201,0.786,18.853c-2.601-2.582-5.128-4.274-8.111-5.468
			C176.773,126.391,175.574,124.504,176.024,121.307z M172.171,83.134c-0.598,0.861-1.474,1.428-2.516,1.623
			c-2.18,0.375-4.141-1.042-4.542-3.099c-0.384-2.125,1.017-4.171,3.117-4.558c0.244-0.046,0.481-0.07,0.713-0.07
			c1.875,0,3.501,1.343,3.83,3.2C172.986,81.252,172.755,82.281,172.171,83.134z M112.759,91.771
			c0.024,0.049,0.061,0.091,0.091,0.137h-0.091V91.771z M112.759,96.895h3.879c0.81,0,1.564-0.386,2.033-1.047
			c0.457-0.661,0.585-1.501,0.316-2.268c-1.205-3.437-2.989-6.573-5.224-9.298c1.632-1.382,3.458-2.569,5.443-3.517
			c6.102-2.944,12.988-3.315,19.376-1.077c4.986,1.744,8.999,5.331,11.301,10.102c2.284,4.768,2.595,10.139,0.841,15.125
			c-2.271,6.479-8.488,10.413-15.016,10.187h-0.007c-1.51-0.055-3.026-0.243-4.53-0.779c-6.125-2.149-9.358-8.884-7.216-15.007
			c1.626-4.634,6.735-7.097,11.369-5.468c3.446,1.208,5.273,5.005,4.055,8.455c-0.876,2.5-3.629,3.815-6.113,2.968
			c-1.747-0.624-2.673-2.539-2.058-4.29c0.456-1.297-0.231-2.725-1.528-3.182c-1.304-0.466-2.734,0.231-3.179,1.528
			c-1.517,4.333,0.773,9.1,5.108,10.647c5.115,1.766,10.711-0.938,12.477-6.025c2.125-6.056-1.084-12.696-7.124-14.814
			c-7.222-2.527-15.192,1.291-17.72,8.521c-1.51,4.29-1.145,8.793,0.646,12.623c-0.463,0.535-0.736,1.291-0.767,2.058
			c-0.055,1.389,1.357,2.898,2.733,2.96c-0.012,0.39-0.183,0.767-0.475,1.035c-0.286,0.268-0.634,0.463-1.06,0.39
			c-0.213,0-0.414,0.073-0.615,0.122c-0.109,0-0.201-0.013-0.316-0.013c-2.496,0.122-4.768,1.022-6.644,2.411V96.895H112.759z
			 M107.777,91.789v0.125h-0.082C107.714,91.872,107.76,91.832,107.777,91.789z M69.824,104.908
			c-1.748-4.99-1.446-10.357,0.84-15.128c2.296-4.768,6.306-8.354,11.292-10.099c6.396-2.238,13.281-1.867,19.385,1.078
			c1.985,0.947,3.806,2.141,5.444,3.517c-2.244,2.731-4.022,5.861-5.225,9.298c-0.268,0.768-0.149,1.607,0.316,2.269
			c0.469,0.654,1.224,1.047,2.034,1.047h3.866v22.348c-1.884-1.395-4.141-2.296-6.646-2.411c-0.101-0.013-0.195,0.012-0.301,0.012
			c-0.192-0.055-0.387-0.128-0.585-0.128c-0.843,0.061-1.534-0.608-1.564-1.431l0.654-0.719c1.379-0.061,2.451-1.212,2.399-2.594
			c-0.031-0.773-0.454-1.419-1.042-1.857c1.729-3.796,2.077-8.223,0.594-12.464c-2.533-7.234-10.495-11.049-17.729-8.525
			c-6.041,2.122-9.234,8.763-7.125,14.818c1.775,5.081,7.386,7.785,12.495,6.013c4.326-1.534,6.622-6.302,5.1-10.635
			c-0.454-1.297-1.882-1.997-3.179-1.528c-1.297,0.457-1.985,1.885-1.528,3.182c0.612,1.745-0.313,3.666-2.046,4.284
			c-2.506,0.859-5.261-0.462-6.141-2.957c-1.203-3.461,0.618-7.252,4.064-8.461c4.652-1.616,9.746,0.834,11.375,5.469
			c2.143,6.122-1.087,12.856-7.209,15.007C81.396,117.111,72.616,112.885,69.824,104.908z M51.584,77.029
			c0.237,0,0.475,0.024,0.706,0.064c2.113,0.393,3.517,2.445,3.13,4.551c-0.387,2.077-2.326,3.523-4.545,3.112
			c-1.029-0.189-1.921-0.761-2.506-1.623c-0.587-0.858-0.807-1.888-0.612-2.917C48.098,78.372,49.714,77.029,51.584,77.029z
			 M44.521,121.307c0.469,3.197-0.749,5.072-9.459,8.586c-2.987,1.188-5.505,2.88-8.111,5.468
			c-1.212-5.657-2.116-14.065,0.786-18.858c1.272-2.106,3.172-3.349,5.83-3.793c0.49,0,1.434,0.292,1.924,0.846
			c0.052,0.062,0.094,0.141,0.137,0.213c-2.423,2.059-4.749,4.987-6.884,9.177c-0.621,1.212-0.137,2.728,1.093,3.349
			c0.362,0.178,0.749,0.269,1.129,0.269c0.911,0,1.781-0.487,2.226-1.358c1.851-3.641,3.766-6.168,5.785-7.83
			c0.095-0.024,0.6-0.128,1.328-0.128C42.812,117.232,44.115,118.487,44.521,121.307z"/>
	</g>
</g>
<g>
</g>
<g>
</g>
<g>
</g>
<g>
</g>
<g>
</g>
<g>
</g>
<g>
</g>
<g>
</g>
<g>
</g>
<g>
</g>
<g>
</g>
<g>
</g>
<g>
</g>
<g>
</g>
<g>
</g>
</svg>
