<?xml version="1.0" encoding="iso-8859-1"?>
<!-- Generator: Adobe Illustrator 16.0.0, SVG Export Plug-In . SVG Version: 6.00 Build 0)  -->
<!DOCTYPE svg PUBLIC "-//W3C//DTD SVG 1.1//EN" "http://www.w3.org/Graphics/SVG/1.1/DTD/svg11.dtd">
<svg version="1.1" id="Capa_1" xmlns="http://www.w3.org/2000/svg" xmlns:xlink="http://www.w3.org/1999/xlink" x="0px" y="0px"
	 width="220.288px" height="220.287px" viewBox="0 0 220.288 220.287" style="enable-background:new 0 0 220.288 220.287;"
	 xml:space="preserve">
<g>
	<path d="M196.731,86.603c-8.892,0-16.559,5.021-20.582,12.316c-0.612-0.185-1.271-0.155-1.814,0.211l-4.957,3.364V82.579
		c11.76-0.313,21.252-9.914,21.252-21.739c0-9.856-8.021-17.885-17.877-17.885c-0.602,0-1.145,0.243-1.529,0.625
		c-2.178,0.654-3.818,2.586-3.818,5.007c0,2.932,2.368,5.297,5.3,5.297c2.922,0,5.284-2.365,5.284-5.297
		c0-0.098-0.042-0.169-0.053-0.267c4.894,2.06,8.343,6.877,8.343,12.498c0,9.637-7.836,17.474-17.477,17.474
		c-12.34,0-22.391-10.038-22.391-22.389c0-1.199-0.971-2.154-2.157-2.154c-1.191,0-2.156,0.971-2.156,2.154
		c0,3.381,0.696,6.587,1.856,9.563c-1.361-0.433-2.785-0.735-4.271-0.735c-6.75,0-12.551,3.921-15.42,9.563H96.011
		c-2.866-5.643-8.667-9.563-15.417-9.563c-1.484,0-2.898,0.303-4.253,0.725c1.144-2.977,1.84-6.178,1.84-9.553
		c0-1.199-0.983-2.154-2.149-2.154c-1.2,0-2.16,0.971-2.16,2.154c0,12.346-10.046,22.389-22.388,22.389
		c-9.64,0-17.487-7.836-17.487-17.463c0-5.601,3.425-10.423,8.269-12.485c-0.011,0.085-0.055,0.146-0.055,0.227
		c0,2.937,2.37,5.302,5.292,5.302c2.932,0,5.297-2.365,5.297-5.302c0-2.365-1.593-4.311-3.726-4.986
		c-0.393-0.388-0.939-0.641-1.537-0.641c-9.846,0-17.869,8.018-17.869,17.885c0,11.82,9.481,21.441,21.254,21.734v19.261
		l-4.97-3.365c-0.625-0.427-1.445-0.464-2.139-0.14c-4.092-6.992-11.593-11.752-20.266-11.752C10.568,86.568,0,97.137,0,110.128
		c0,12.983,10.568,23.551,23.548,23.551c8.889,0,16.545-5.01,20.58-12.298c0.201,0.063,0.401,0.148,0.601,0.148
		c0.419,0,0.847-0.127,1.224-0.369l4.97-3.365v19.913c-11.773,0.306-21.254,9.914-21.254,21.737c0,9.861,8.008,17.887,17.869,17.887
		c0.598,0,1.144-0.242,1.526-0.633c2.183-0.653,3.818-2.604,3.818-5.01c0-2.921-2.371-5.283-5.302-5.283
		c-2.922,0-5.292,2.362-5.292,5.283c0,0.105,0.042,0.18,0.053,0.274c-4.881-2.046-8.343-6.876-8.343-12.498
		c0-9.646,7.847-17.481,17.481-17.481c12.348,0,22.394,10.035,22.394,22.386c0,1.208,0.971,2.151,2.16,2.151
		c1.181,0,2.149-0.97,2.149-2.151c0-3.375-0.696-6.592-1.859-9.561c1.369,0.422,2.787,0.728,4.271,0.728
		c6.75,0,12.551-3.913,15.417-9.561h28.252c2.869,5.647,8.67,9.561,15.42,9.561c1.486,0,2.9-0.295,4.271-0.728
		c-1.16,2.974-1.856,6.186-1.856,9.561c0,1.197,0.98,2.157,2.156,2.157c1.197,0,2.157-0.976,2.157-2.157
		c0-12.351,10.041-22.386,22.391-22.386c9.641,0,17.477,7.831,17.477,17.471c0,5.601-3.406,10.426-8.253,12.488
		c0.005-0.096,0.048-0.148,0.048-0.232c0-2.922-2.363-5.295-5.29-5.295s-5.3,2.373-5.3,5.295c0,2.362,1.593,4.313,3.729,4.988
		c0.385,0.391,0.938,0.644,1.54,0.644c9.846,0,17.877-8.016,17.877-17.888c0-11.817-9.492-21.452-21.252-21.742V118.46l4.957,3.364
		c0.354,0.242,0.786,0.363,1.218,0.363c0.316,0,0.617-0.1,0.918-0.221c4.092,6.981,11.597,11.754,20.261,11.754
		c12.988,0,23.557-10.584,23.557-23.562C220.288,97.176,209.719,86.603,196.731,86.603z M215.146,108.002h-36.83
		c2.204-3.271,9.112-6.285,18.415-6.285C206.033,101.717,212.941,104.715,215.146,108.002z M178.316,112.321h36.83
		c-2.205,3.27-9.113,6.286-18.415,6.286C187.423,118.607,180.52,115.612,178.316,112.321z M196.731,90.922
		c7.356,0,13.689,4.2,16.928,10.291c-4.251-2.362-10.215-3.828-16.928-3.828c-6.719,0-12.683,1.466-16.934,3.828
		C183.041,95.127,189.369,90.922,196.731,90.922z M139.683,69.084c5.516,0,9.998,4.482,9.998,10.006
		c0,2.418-1.182,4.567-2.964,5.962c-0.242-2.479-2.257-4.427-4.799-4.427c-2.71,0-4.894,2.191-4.894,4.891
		c0,2.149,1.445,3.937,3.386,4.591c0.39,0.521,1.002,0.886,1.688,0.886c6.56,0,11.896-5.337,11.896-11.892
		c0-0.34-0.09-0.675-0.11-1.016c3.243,2.187,7.003,3.586,11.032,4.174c-0.755,12.248-11.818,16.719-21.458,16.719
		c-9.281,0-16.827-7.543-16.827-16.833C126.647,74.938,132.49,69.084,139.683,69.084z M93.609,82.12
		c0,9.281-7.539,16.82-16.82,16.82c-9.619,0-20.693-4.459-21.444-16.69c4.018-0.594,7.776-1.994,11.021-4.169
		c-0.021,0.335-0.114,0.654-0.114,1.005c0,6.555,5.318,11.886,11.887,11.886c0.604,0,1.165-0.276,1.558-0.688
		c2.02-0.593,3.518-2.391,3.518-4.612c0-2.705-2.194-4.88-4.894-4.88c-2.489,0-4.448,1.88-4.777,4.282
		c-1.793-1.397-2.982-3.541-2.982-5.977c0-5.513,4.478-9.991,9.996-9.991C87.766,69.084,93.609,74.928,93.609,82.12z
		 M41.937,108.002H5.113c2.209-3.271,9.115-6.285,18.409-6.285C32.833,101.717,39.727,104.715,41.937,108.002z M5.107,112.311
		h36.835c-2.209,3.28-9.115,6.286-18.42,6.286C14.222,118.597,7.317,115.602,5.107,112.311z M23.522,90.922
		c7.367,0,13.7,4.2,16.936,10.291c-4.25-2.362-10.217-3.828-16.936-3.828c-6.718,0-12.675,1.466-16.922,3.828
		C9.827,95.127,16.168,90.922,23.522,90.922z M23.522,129.387c-7.354,0-13.689-4.188-16.922-10.273
		c4.253,2.368,10.209,3.829,16.922,3.829c6.719,0,12.675-1.466,16.936-3.829C37.217,125.188,30.884,129.387,23.522,129.387z
		 M80.573,151.229c-5.514,0-9.996-4.482-9.996-9.998c0-2.415,1.179-4.566,2.961-5.965c0.243,2.469,2.268,4.43,4.799,4.43
		c2.71,0,4.894-2.193,4.894-4.894c0-2.167-1.442-3.938-3.385-4.593c-0.391-0.527-1-0.886-1.69-0.886
		c-6.558,0-11.886,5.337-11.886,11.886c0,0.349,0.082,0.676,0.103,1.018c-3.235-2.178-6.993-3.586-11.021-4.171
		c0.757-12.25,11.82-16.695,21.455-16.695c9.281,0,16.819,7.535,16.819,16.816C93.609,145.386,87.766,151.229,80.573,151.229z
		 M126.647,138.203c0-9.281,7.541-16.832,16.822-16.832c9.618,0,20.692,4.461,21.452,16.695c-4.029,0.591-7.783,1.982-11.021,4.166
		c0.021-0.338,0.105-0.654,0.105-1.002c0-6.561-5.331-11.876-11.887-11.876c-0.616,0-1.17,0.264-1.571,0.686
		c-2.015,0.591-3.496,2.395-3.496,4.609c0,2.7,2.184,4.883,4.894,4.883c2.479,0,4.445-1.888,4.768-4.282
		c1.804,1.382,2.99,3.523,2.99,5.97c0,5.511-4.482,9.999-10.004,9.999C132.49,151.239,126.647,145.386,126.647,138.203z
		 M165.058,126.148c-4.439-5.717-12.044-9.102-21.589-9.102c-11.654,0-21.157,9.492-21.157,21.156c0,1.192,0.121,2.363,0.354,3.48
		H97.583c0.231-1.128,0.34-2.288,0.34-3.485c0-11.649-9.498-21.146-21.152-21.146c-9.545,0-17.149,3.391-21.582,9.107v-11.254
		l1.685-1.139c0.578-0.396,0.997-0.907,1.36-1.45h21.911c0.364,0.554,0.817,1.028,1.426,1.45l10.979,7.436
		c0.351,0.242,0.789,0.369,1.221,0.369c0.34,0,0.696-0.09,1.016-0.259c0.706-0.363,1.149-1.107,1.149-1.914v-2.668
		c0.422,0.089,0.799,0.269,1.242,0.269c3.768,0,6.842-3.054,6.842-6.84c0-3.789-3.053-6.845-6.842-6.845
		c-0.443,0-0.82,0.179-1.242,0.261v-3.296c0-0.788-0.443-1.526-1.149-1.911c-0.709-0.367-1.566-0.335-2.226,0.113l-10.979,7.436
		c-0.81,0.562-1.413,1.276-1.793,2.08H58.638c-0.372-0.788-0.929-1.519-1.732-2.08l-1.685-1.139V94.157
		c4.438,5.706,12.042,9.104,21.584,9.104c11.657,0,21.151-9.5,21.151-21.146c0-1.205-0.113-2.365-0.345-3.488h25.091
		c-0.232,1.123-0.354,2.289-0.354,3.488c0,11.657,9.503,21.157,21.157,21.157c9.545,0,17.148-3.396,21.584-9.104v11.243
		l-1.688,1.144c-0.591,0.401-1.044,0.896-1.424,1.442h-21.906c-0.358-0.535-0.785-1.031-1.36-1.447l-10.979-7.431
		c-0.664-0.453-1.519-0.495-2.215-0.113c-0.717,0.361-1.16,1.097-1.16,1.912v2.668c-0.411-0.087-0.802-0.256-1.255-0.256
		c-3.766,0-6.837,3.04-6.837,6.829c0,3.766,3.062,6.835,6.837,6.835c0.453,0,0.844-0.169,1.255-0.254v3.302
		c0,0.796,0.443,1.529,1.16,1.909c0.316,0.168,0.654,0.253,1.013,0.253c0.422,0,0.844-0.116,1.218-0.358l10.975-7.446
		c0.812-0.56,1.36-1.276,1.74-2.057h21.146c0.38,0.78,0.98,1.497,1.793,2.057l1.688,1.149v10.61h-0.032V126.148z M196.731,129.396
		c-7.362,0-13.69-4.197-16.934-10.293c4.251,2.367,10.215,3.828,16.934,3.828c6.713,0,12.677-1.461,16.928-3.828
		C210.42,125.199,204.087,129.396,196.731,129.396z"/>
</g>
<g>
</g>
<g>
</g>
<g>
</g>
<g>
</g>
<g>
</g>
<g>
</g>
<g>
</g>
<g>
</g>
<g>
</g>
<g>
</g>
<g>
</g>
<g>
</g>
<g>
</g>
<g>
</g>
<g>
</g>
</svg>
