<?xml version="1.0" encoding="iso-8859-1"?>
<!-- Generator: Adobe Illustrator 16.0.0, SVG Export Plug-In . SVG Version: 6.00 Build 0)  -->
<!DOCTYPE svg PUBLIC "-//W3C//DTD SVG 1.1//EN" "http://www.w3.org/Graphics/SVG/1.1/DTD/svg11.dtd">
<svg version="1.1" id="Capa_1" xmlns="http://www.w3.org/2000/svg" xmlns:xlink="http://www.w3.org/1999/xlink" x="0px" y="0px"
	 width="256.001px" height="256.001px" viewBox="0 0 256.001 256.001" style="enable-background:new 0 0 256.001 256.001;"
	 xml:space="preserve">
<g>
	<g>
		<path d="M254.49,143.248c-12.678-5.492-22.792,2.089-34.52,10.863c-2.381,1.778-4.743,3.745-7.131,5.724
			c1.687-5.748,0.883-11.612-2.581-17.184c0.279-0.384,0.657-0.651,0.895-1.06c1.151-2.07,1.419-4.487,0.762-6.747
			c-1.328-4.576-6.352-7.426-11.004-6.092c-2.277,0.648-4.171,2.183-5.321,4.266c-1.146,2.082-1.413,4.481-0.749,6.771
			c1.096,3.77,4.591,6.388,8.513,6.388c0.84,0,1.674-0.128,2.472-0.365c0.146-0.049,0.262-0.146,0.402-0.195
			c4.5,7.6,2.776,15.734-4.933,23.176c-0.597,0.39-1.181,0.858-1.79,1.23c-0.207,0.134-0.414,0.243-0.621,0.365
			c-7.143,4.371-14.809,6.783-24.259,4.268c-5.578-1.491-10.06-4.889-13.013-9.541c11.801-6.199,20.983-16.216,26.165-28.686
			c5.852-14.076,5.888-29.558,0.134-43.647c4.116-1.328,8.689-3.517,7.489-11.804c-0.529-3.666-3.774-6.604,0.269-17.017
			c0,0-6.905,0.868-11.332,7.246c-2.155-6.287-7.295-7.407-6.741-14.249c0,0-11.861,6.646-5.224,18.45
			c-7.496-2.582-13.671,0.999-13.671,0.999c9.542,5.854,8.72,10.169,10.517,13.394c4.348,7.843,9.767,6.104,13.999,4.545
			c0.012,0.037,0.006,0.062,0.018,0.101c5.328,12.918,5.316,27.155-0.055,40.063c-4.7,11.313-13.03,20.436-23.717,26.104
			c-2.034-5.724-2.016-12.275,0.371-18.511v-0.019c4.348,0.871,11.381,0.426,10.406-11.993c-0.188-2.57-0.889-8.15,1.681-13.469
			c0,0-26.773,9.661-16.642,22.691c-0.365,0.256-0.676,0.603-0.871,1.035c-4.67,11.296-13.815,19.394-24.539,23.182v-15.875
			c4.378-0.548,8.464-2.466,11.661-5.724c4-4.037,6.168-9.48,6.107-15.332l-0.092-10.4l-3.452,1.498
			c-0.171,0.073-16.873,7.194-27,0.356c-1.142-0.767-2.694-0.451-3.461,0.667c-0.773,1.145-0.466,2.691,0.676,3.471
			c9.338,6.3,22.21,3.337,28.312,1.367l0.024,3.105c0.036,4.494-1.626,8.687-4.683,11.792c-2.811,2.85-6.5,4.445-10.391,4.481
			c-3.785,0.098-7.858-1.607-10.75-4.591c-2.926-3.021-4.558-7.076-4.594-11.408l-0.125-17.397
			c-0.027-3.45,6.634-7.347,16.243-7.414c0.073-0.012,0.149-0.012,0.229-0.012c3.544,0,6.954,0.715,9.396,1.97
			c1.955,0.998,3.136,2.277,3.148,3.361c-0.256,1.303-6.059,4.652-12.51,4.713c-4.783-0.125-9.125-1.148-9.661-1.483
			c0.289-0.904,3.443-3.068,8.924-2.974c3.279,0.131,5.236,1.083,5.979,1.927c0.91,1.047,2.481,1.133,3.517,0.229
			c1.035-0.911,1.139-2.481,0.226-3.517c-1.909-2.168-5.295-3.446-9.53-3.614c-4.944-0.183-9.483,1.203-12.12,3.763
			c-1.303,1.267-1.988,2.688-1.97,4.104c0.055,6.467,13.064,6.491,14.672,6.567c7.151-0.076,17.516-3.885,17.46-9.722
			c-0.023-3.105-2.106-5.867-5.857-7.794c-3.248-1.665-7.508-2.688-11.947-2.509c-12.133,0.106-21.242,5.456-21.187,12.458
			l0.149,17.378c0.045,5.617,2.177,10.896,5.992,14.843c3.194,3.3,7.258,5.273,11.637,5.857v15.723
			c-0.579-0.189-1.167-0.378-1.732-0.621c-10.185-4.238-18.115-12.166-22.335-22.372c-0.012-0.024-0.012-0.049-0.024-0.085
			c-0.095-0.244-0.25-0.438-0.399-0.634c0.192-0.128,0.323-0.219,0.323-0.219l0.024-0.317c10.15-16.419-20.39-20.167-20.39-20.167
			c3.659,4.625,4.229,10.218,4.604,12.763c1.559,10.765,7.051,11.252,11.115,10.023c0.024,0.109,0.013,0.231,0.058,0.341
			c2.43,6.345,2.405,13.019,0.256,18.815c-10.994-5.627-19.574-14.857-24.369-26.391c-5.362-12.891-5.38-27.146-0.049-40.063
			c0.012-0.049,0.006-0.076,0.018-0.112c4.22,1.571,9.645,3.31,13.993-4.534c1.793-3.243,0.972-7.539,10.52-13.405
			c0,0-6.175-3.581-13.677-0.999c6.634-11.792-5.224-18.45-5.224-18.45c0.554,6.859-4.588,7.977-6.741,14.249
			c-4.427-6.366-11.335-7.246-11.335-7.246c4.052,10.439,0.798,13.375,0.274,17.022c-1.197,8.269,3.374,10.476,7.49,11.792
			c-5.751,14.094-5.706,29.581,0.137,43.647c5.261,12.665,14.684,22.785,26.762,28.972c-2.957,4.506-7.371,7.807-12.833,9.249
			c-9.454,2.533-17.147,0.129-24.305-4.28c-0.183-0.109-0.362-0.213-0.542-0.329c-0.618-0.383-1.212-0.828-1.821-1.242
			c-7.703-7.422-9.423-15.576-4.926-23.175c0.137,0.049,0.25,0.158,0.393,0.194c0.81,0.244,1.644,0.365,2.481,0.365
			c3.916,0,7.42-2.643,8.516-6.399c0.66-2.289,0.393-4.688-0.752-6.771c-1.147-2.083-3.032-3.593-5.325-4.254
			c-4.616-1.339-9.667,1.498-10.994,6.08c-0.654,2.271-0.387,4.677,0.761,6.747c0.231,0.408,0.603,0.688,0.892,1.06
			c-3.456,5.584-4.266,11.436-2.582,17.184c-2.375-1.967-4.746-3.945-7.127-5.724c-11.728-8.774-21.866-16.355-34.52-10.863
			c-1.267,0.566-1.845,2.009-1.297,3.276c0.548,1.26,2.015,1.851,3.279,1.303c8.025-3.502,14.66-0.384,23.982,6.205
			c-6.604-0.365-12.613,2.161-17.396,7.684c-0.904,1.035-0.786,2.619,0.256,3.514c0.475,0.396,1.053,0.615,1.635,0.615
			c0.697,0,1.395-0.292,1.888-0.871c6.412-7.435,15.451-8.007,25.435-1.674c0.137,0.085,0.298,0.115,0.45,0.152
			c0.305,0.256,0.609,0.475,0.911,0.73c0.484,0.396,0.983,0.816,1.477,1.212c-1.416,0.097-2.85,0.353-4.284,0.828
			c-0.213-0.427-0.332-0.877-0.636-1.255c-1.559-1.924-4.171-2.631-6.016-2.789c-4.147,0.305-7.441,2.047-9.798,5.201
			c-6.695,8.95-2.974,26.426-2.81,27.157l0.971,4.47l3.23-3.24c4.278-4.293,7.076-5.724,9.977-6.57
			c7.508-2.197,14.209-4.804,13.841-12.61c-0.125-2.722-1.029-4.64-2.25-6.095c4.064,0.548,8.412,2.989,13.399,6.168
			c0.381,0.219,0.792,0.335,1.218,0.348c4.57,2.197,9.49,3.641,14.94,3.641c2.774,0,5.69-0.384,8.747-1.175
			c6.908-1.852,12.477-6.126,16.087-11.983c5.7,2.313,11.585,3.422,17.391,3.422c3.909,0,7.749-0.597,11.484-1.547
			c3.748,0.95,7.587,1.547,11.512,1.547c5.876,0,11.861-1.121,17.628-3.508c0.128-0.049,0.237-0.109,0.365-0.158
			c3.604,5.992,9.237,10.364,16.252,12.239c3.062,0.828,5.974,1.175,8.75,1.175c5.456,0,10.382-1.431,14.949-3.641
			c0.408-0.024,0.828-0.115,1.199-0.341c4.987-3.173,9.335-5.627,13.396-6.175c-1.224,1.443-2.131,3.361-2.247,6.096
			c-0.371,7.83,6.345,10.461,13.847,12.635c2.898,0.834,5.699,2.266,9.975,6.558l3.232,3.252l0.969-4.481
			c0.164-0.719,3.885-18.219-2.808-27.146c-2.356-3.154-5.656-4.884-10.132-5.2c-1.65,0-4.129,0.877-5.688,2.789
			c-0.305,0.39-0.42,0.828-0.64,1.242c-1.431-0.463-2.867-0.73-4.286-0.792c0.493-0.39,0.992-0.815,1.467-1.206
			c0.311-0.256,0.621-0.486,0.926-0.742c0.141-0.049,0.299-0.073,0.433-0.146c9.986-6.369,19.017-5.772,25.435,1.675
			c0.487,0.578,1.188,0.87,1.888,0.87c0.584,0,1.163-0.207,1.638-0.614c1.041-0.907,1.163-2.479,0.256-3.514
			c-4.78-5.535-10.79-8.05-17.403-7.66c9.323-6.625,15.96-9.718,23.991-6.224c1.255,0.549,2.729-0.036,3.276-1.303
			C256.347,145.282,255.757,143.802,254.49,143.248z M206.8,139.187c-0.506,0.907-1.334,1.571-2.338,1.863
			c-2.028,0.597-4.232-0.646-4.811-2.643c-0.299-1.011-0.177-2.059,0.322-2.978c0.506-0.907,1.334-1.583,2.332-1.863
			c0.359-0.128,0.725-0.152,1.084-0.152c1.724,0,3.264,1.157,3.745,2.819C207.408,137.22,207.293,138.279,206.8,139.187z
			 M48.862,136.233c0.478-1.675,2.019-2.819,3.742-2.819c0.359,0,0.728,0.049,1.078,0.14c1.005,0.293,1.833,0.944,2.338,1.876
			c0.505,0.907,0.618,1.942,0.323,2.978c-0.579,1.997-2.737,3.258-4.819,2.643c-1.002-0.292-1.827-0.95-2.333-1.863
			C48.692,138.279,48.576,137.22,48.862,136.233z M31.347,184.429c-3.087,0.889-5.767,2.314-8.616,4.628
			c-0.648-5.748-0.73-14.2,2.637-18.682c1.471-1.973,3.486-3.008,6.129-3.202c0.286,0,1.285,0.292,1.82,0.943
			c0.088,0.115,0.024,0.268,0.083,0.384c-2.588,1.814-5.164,4.47-7.664,8.378c-0.743,1.17-0.405,2.704,0.755,3.447
			c0.417,0.268,0.883,0.401,1.339,0.401c0.822,0,1.626-0.414,2.101-1.163c2.207-3.44,4.36-5.76,6.527-7.222
			c0.088-0.012,0.308-0.036,0.661-0.036c3.824,0,4.384,2.569,4.473,4.512C41.747,179.972,40.301,181.823,31.347,184.429z
			 M100.921,162.989c1.145-2.978,1.93-6.096,2.077-9.335c4.171,5.157,9.371,9.249,15.156,12.173
			C112.424,166.125,106.563,165.235,100.921,162.989z M154.835,162.8c-5.736,2.375-11.801,3.361-17.82,3.051
			c6.202-3.117,11.683-7.636,16-13.322c0.023,3.537,0.742,6.947,1.954,10.205C154.92,162.751,154.884,162.788,154.835,162.8z
			 M218.862,172.306c0.359,0,0.585,0.024,0.646,0.036c2.174,1.443,4.329,3.781,6.533,7.222c0.476,0.743,1.285,1.163,2.102,1.163
			c0.456,0,0.919-0.134,1.339-0.401c1.163-0.743,1.498-2.277,0.756-3.447c-2.497-3.908-5.066-6.563-7.66-8.378
			c0.048-0.116-0.013-0.269,0.079-0.384c0.535-0.651,1.528-0.943,1.79-0.943c2.673,0.188,4.688,1.224,6.156,3.202
			c3.361,4.481,3.281,12.934,2.637,18.682c-2.856-2.313-5.529-3.745-8.61-4.628c-8.964-2.605-10.4-4.457-10.261-7.611
			C214.479,174.881,215.032,172.306,218.862,172.306z"/>
	</g>
</g>
<g>
</g>
<g>
</g>
<g>
</g>
<g>
</g>
<g>
</g>
<g>
</g>
<g>
</g>
<g>
</g>
<g>
</g>
<g>
</g>
<g>
</g>
<g>
</g>
<g>
</g>
<g>
</g>
<g>
</g>
</svg>
