<?xml version="1.0" encoding="iso-8859-1"?>
<!-- Generator: Adobe Illustrator 16.0.0, SVG Export Plug-In . SVG Version: 6.00 Build 0)  -->
<!DOCTYPE svg PUBLIC "-//W3C//DTD SVG 1.1//EN" "http://www.w3.org/Graphics/SVG/1.1/DTD/svg11.dtd">
<svg version="1.1" id="Capa_1" xmlns="http://www.w3.org/2000/svg" xmlns:xlink="http://www.w3.org/1999/xlink" x="0px" y="0px"
	 width="193.345px" height="193.345px" viewBox="0 0 193.345 193.345" style="enable-background:new 0 0 193.345 193.345;"
	 xml:space="preserve">
<g>
	<g>
		<path d="M9.756,102.882c0.01,0,0.01,0,0.01,0c2.616,0,5.071-1.023,6.908-2.9c1.716-1.746,2.592-3.998,2.71-6.278
			c11.053-3.987,20.915,0.583,27.841,12.954c0.087,0.137,0.232,0.232,0.335,0.338c0.2,0.49,0.411,0.949,0.601,1.455
			c0.82,2.046,1.669,4.124,2.542,6.196c-6.263-4.161-13.521-5.062-21.178-2.531c-0.496-1.149-1.205-2.21-2.138-3.133
			c-3.705-3.639-10.072-3.564-13.69,0.111c-1.813,1.851-2.813,4.282-2.797,6.871c0.024,2.584,1.055,5.005,2.9,6.818
			c1.825,1.793,4.24,2.79,6.795,2.79c2.613,0,5.07-1.023,6.906-2.9c1.716-1.746,2.592-3.998,2.721-6.286
			c11.043-3.955,20.904,0.58,27.833,12.957c0.095,0.169,0.253,0.269,0.377,0.39c5.358,8.095,12.69,14.776,24.176,17.523
			c2.542,0.597,5.081,0.896,7.58,0.896c2.215,0,4.385-0.321,6.519-0.774c2.133,0.453,4.306,0.774,6.525,0.774
			c2.5,0,5.042-0.3,7.583-0.901c11.486-2.742,18.8-9.424,24.174-17.513c0.127-0.127,0.285-0.227,0.38-0.396
			c6.913-12.377,16.785-16.928,27.828-12.957c0.115,2.288,1.007,4.54,2.721,6.286c1.841,1.877,4.298,2.9,6.897,2.9
			c2.568,0,4.979-0.997,6.803-2.79c1.852-1.813,2.869-4.229,2.9-6.818c0.021-2.589-0.98-5.025-2.795-6.871
			c-3.617-3.691-10.014-3.75-13.689-0.111c-0.938,0.923-1.646,1.983-2.142,3.133c-7.646-2.542-14.902-1.646-21.178,2.526
			c0.875-2.094,1.709-4.161,2.536-6.191c0.195-0.506,0.406-0.965,0.606-1.455c0.116-0.111,0.254-0.201,0.338-0.338
			c6.93-12.371,16.796-16.957,27.844-12.954c0.105,2.28,0.991,4.532,2.711,6.278c1.835,1.877,4.292,2.9,6.902,2.9
			c2.568,0,4.979-1.002,6.792-2.795c1.852-1.81,2.88-4.219,2.9-6.816c0.021-2.597-0.98-5.033-2.795-6.863
			c-3.606-3.705-10.003-3.755-13.689-0.119c-0.938,0.923-1.646,1.996-2.131,3.143c-8.332-2.771-16.21-1.39-22.854,3.789
			c6.418-13.439,11.586-21.292,22.032-22.792c0.453,1.01,1.055,1.943,1.877,2.787c1.836,1.872,4.282,2.897,6.898,2.897
			c2.562,0,4.957-0.999,6.781-2.787c1.856-1.809,2.879-4.227,2.9-6.818s-0.96-5.039-2.773-6.869
			c-3.655-3.705-10.02-3.742-13.711-0.119c-1.883,1.846-2.816,4.277-2.869,6.724c-14.312,2.233-20.366,14.961-27.222,29.761
			c-1.613,3.485-3.069,7.13-4.566,10.837c-0.19,0.495-0.401,0.98-0.591,1.466c-0.77-7.045-4.271-12.856-10.22-16.999
			c3.485-1.226,6.56-3.488,8.838-6.637c3.006-4.137,4.261-9.249,3.565-14.417l-2.142-16.124c-0.442-3.301-3.032-5.967-7.324-7.522
			c-3.818-1.387-8.712-1.771-13.743-1.086c-9.275,1.236-15.715,6.265-14.987,11.696c0.707,5.297,10.674,7.449,17.266,6.562
			c2.879-0.39,5.774-1.173,7.952-2.138c4.198-1.875,4.836-4.126,4.62-5.677c-0.169-1.263-0.966-2.458-2.305-3.428
			c-2.731-1.999-7.077-2.689-11.586-1.859c-3.871,0.709-6.803,2.317-8.237,4.524c-0.653,1.005-0.354,2.339,0.622,2.993
			c1.002,0.648,2.331,0.371,2.996-0.628c0.765-1.155,2.815-2.159,5.399-2.634c5.59-1.016,8.591,1.047,8.865,1.36
			c-0.359,0.762-3.734,2.51-8.892,3.214c-6.228,0.825-12.14-1.664-12.413-2.837c-0.327-2.479,4.419-5.938,11.285-6.863
			c4.387-0.567,8.521-0.274,11.707,0.865c2.646,0.978,4.303,2.436,4.514,4.04l2.141,16.118c0.56,4.066-0.442,8.084-2.789,11.314
			c-2.32,3.195-5.685,5.244-9.472,5.74c-3.817,0.511-7.577-0.572-10.662-3.051c-3.091-2.502-5.105-6.12-5.653-10.186l-0.422-3.109
			c5.812,1.047,18.267,2.207,26.146-4.909c0.886-0.788,0.971-2.154,0.158-3.04c-0.791-0.881-2.151-0.968-3.048-0.15
			c-8.532,7.72-25.07,3.314-25.218,3.262c-0.717-0.185-1.461-0.024-1.993,0.469c-0.56,0.475-0.807,1.192-0.728,1.912l0.822,6.167
			c0.686,5.179,3.265,9.782,7.225,12.97c3.354,2.71,7.372,4.148,11.518,4.148c0.031,0,0.042,0,0.053,0
			c0.2,0.324,0.453,0.608,0.801,0.793c10.273,5.405,13.543,15.478,9.43,28.43c-5.189,10.009-12.219,18.504-24.943,21.536
			c-1.192,0.296-2.373,0.349-3.565,0.496c0.454-0.29,0.949-0.512,1.393-0.807c8.005-5.537,13.389-14.734,14.744-25.244
			c0.143-1.182-0.686-2.268-1.872-2.415c-1.16-0.18-2.268,0.675-2.41,1.872c-1.207,9.291-5.922,17.392-12.936,22.238
			c-2.6,1.787-5.495,2.958-8.466,3.712c-2.982-0.775-5.859-1.925-8.446-3.712c-7.016-4.847-11.731-12.947-12.938-22.238
			c-0.142-1.197-1.247-2.057-2.41-1.872c-1.182,0.147-2.015,1.239-1.872,2.415c1.365,10.505,6.739,19.691,14.752,25.244
			c0.443,0.316,0.928,0.527,1.382,0.796c-1.2-0.121-2.365-0.189-3.565-0.475c-12.722-3.037-19.747-11.549-24.941-21.547
			c-4.116-12.941-0.838-23.024,9.427-28.424c0.358-0.19,0.611-0.493,0.812-0.799c0.01,0,0.021,0,0.042,0
			c4.153,0,8.166-1.438,11.517-4.148c3.966-3.198,6.542-7.792,7.228-12.97l0.82-6.167c0.103-0.72-0.168-1.437-0.717-1.912
			c-0.562-0.48-1.287-0.649-1.993-0.454c-0.169,0.053-16.643,4.478-25.218-3.267c-0.896-0.794-2.257-0.73-3.056,0.15
			c-0.796,0.886-0.73,2.251,0.155,3.045c7.879,7.101,20.353,5.962,26.146,4.904l-0.419,3.109c-0.541,4.066-2.555,7.686-5.656,10.191
			c-3.072,2.479-6.853,3.564-10.652,3.045c-3.797-0.506-7.161-2.555-9.479-5.735c-2.347-3.235-3.325-7.254-2.79-11.319l2.144-16.124
			c0.211-1.603,1.862-3.056,4.52-4.028c3.174-1.15,7.312-1.464,11.707-0.857c6.863,0.918,11.593,4.372,11.274,6.845
			c-0.264,1.21-6.178,3.689-12.403,2.848c-5.158-0.702-8.533-2.458-8.889-2.895c0.253-0.622,3.241-2.711,8.838-1.68
			c2.586,0.464,4.651,1.474,5.4,2.629c0.665,0.999,2.004,1.271,3.003,0.627c1-0.654,1.268-1.988,0.617-2.998
			c-1.437-2.202-4.369-3.805-8.231-4.525c-4.514-0.814-8.849-0.129-11.589,1.864c-1.336,0.971-2.138,2.154-2.304,3.417
			c-0.211,1.561,0.422,3.813,4.612,5.687c2.17,0.976,5.07,1.749,7.976,2.139c6.571,0.881,16.535-1.247,17.242-6.558
			c0.741-5.432-5.719-10.465-14.974-11.707c-5.044-0.662-9.935-0.285-13.742,1.086c-4.293,1.55-6.879,4.211-7.317,7.523
			l-2.149,16.134c-0.699,5.168,0.562,10.278,3.562,14.42c2.281,3.13,5.337,5.411,8.841,6.634c-5.951,4.158-9.45,9.969-10.223,17.009
			c-0.19-0.485-0.398-0.98-0.588-1.461c-1.485-3.707-2.953-7.361-4.57-10.842c-6.858-14.776-12.904-27.52-27.221-29.761
			c-0.042-2.447-1.016-4.878-2.877-6.724c-3.684-3.623-10.062-3.57-13.7,0.124c-1.814,1.849-2.798,4.282-2.776,6.863
			c0.021,2.581,1.049,5.013,2.9,6.826c1.824,1.783,4.224,2.774,6.781,2.774c2.621,0,5.065-1.021,6.903-2.893
			c0.804-0.828,1.418-1.777,1.882-2.782c10.455,1.479,15.612,9.337,22.022,22.784c-6.642-5.179-14.515-6.562-22.853-3.786
			c-0.485-1.149-1.194-2.22-2.133-3.143c-3.715-3.628-10.083-3.57-13.69,0.124C0.976,88.285-0.023,90.721,0,93.303
			c0.026,2.586,1.047,5.007,2.893,6.816C4.789,101.896,7.204,102.882,9.756,102.882z M24.451,119.672
			c-2.015,2.036-5.545,2.083-7.594,0.068c-1.021-1.013-1.593-2.352-1.604-3.775c-0.01-1.435,0.53-2.784,1.54-3.797
			c1.015-1.039,2.365-1.614,3.829-1.614c1.414,0,2.742,0.549,3.752,1.529C26.486,114.146,26.512,117.558,24.451,119.672z
			 M169.104,112.083c1.012-0.996,2.341-1.529,3.749-1.529c1.461,0,2.811,0.56,3.828,1.614c1.019,1.018,1.54,2.368,1.529,3.797
			c-0.01,1.439-0.563,2.779-1.603,3.775c-2.046,2.015-5.59,1.968-7.583-0.068c-1.013-1.018-1.551-2.368-1.529-3.812
			C167.511,114.425,168.081,113.085,169.104,112.083z M179.957,89.372c1.013-1,2.341-1.54,3.755-1.54
			c1.455,0,2.805,0.562,3.828,1.616c1.013,1.021,1.545,2.37,1.534,3.808c-0.01,1.426-0.574,2.766-1.624,3.773
			c-2.035,2.004-5.558,1.993-7.572-0.08C177.81,94.845,177.841,91.441,179.957,89.372z M178.986,62.593
			c1.002-0.994,2.342-1.521,3.739-1.521c1.466,0,2.815,0.559,3.85,1.608c1.007,1.015,1.54,2.365,1.519,3.807
			c-0.011,1.434-0.569,2.774-1.604,3.773c-2.035,2.004-5.579,1.973-7.583-0.082C176.845,68.08,176.876,64.678,178.986,62.593z
			 M14.558,70.189c-2.004,2.049-5.535,2.081-7.581,0.077c-1.021-1.01-1.595-2.349-1.605-3.768c-0.021-1.442,0.53-2.792,1.529-3.807
			c1.015-1.037,2.381-1.608,3.839-1.608c1.416,0,2.755,0.543,3.752,1.527C16.598,64.678,16.63,68.08,14.558,70.189z M5.938,89.443
			c1.016-1.039,2.371-1.611,3.829-1.611c1.426,0,2.745,0.551,3.755,1.529c2.112,2.08,2.138,5.484,0.074,7.583
			c-1.015,1.039-2.37,1.624-3.829,1.624c-1.424,0-2.752-0.564-3.752-1.55C4.994,96,4.412,94.661,4.401,93.25
			C4.39,91.824,4.923,90.473,5.938,89.443z"/>
	</g>
</g>
<g>
</g>
<g>
</g>
<g>
</g>
<g>
</g>
<g>
</g>
<g>
</g>
<g>
</g>
<g>
</g>
<g>
</g>
<g>
</g>
<g>
</g>
<g>
</g>
<g>
</g>
<g>
</g>
<g>
</g>
</svg>
