<?xml version="1.0" encoding="iso-8859-1"?>
<!-- Generator: Adobe Illustrator 16.0.0, SVG Export Plug-In . SVG Version: 6.00 Build 0)  -->
<!DOCTYPE svg PUBLIC "-//W3C//DTD SVG 1.1//EN" "http://www.w3.org/Graphics/SVG/1.1/DTD/svg11.dtd">
<svg version="1.1" id="Capa_1" xmlns="http://www.w3.org/2000/svg" xmlns:xlink="http://www.w3.org/1999/xlink" x="0px" y="0px"
	 width="216px" height="216.001px" viewBox="0 0 216 216.001" style="enable-background:new 0 0 216 216.001;" xml:space="preserve"
	>
<g>
	<g>
		<path d="M206.55,108.166c0.77-4.614-2.046-7.026,0.58-11.098c0,0-9.587,0.155-9.419,9.703c-3.786-4.126-8.816-3.952-8.816-3.952
			c3.96,6.84,2.014,9.218,2.046,11.817c0.063,6.202,3.86,7.04,6.972,7.483c-0.333,0.332-0.564,0.77-0.612,1.271
			c-1.013,9.692-5.727,18.404-13.289,24.563c-7.572,6.154-17.075,8.965-26.768,7.969c-7.636-0.786-14.513-4.504-19.354-10.468
			c-0.296-0.349-0.496-0.775-0.771-1.149c2.854,1.813,6.075,3.031,9.545,3.385c0.949,0.111,1.898,0.143,2.827,0.143
			c11.707,0,21.953-7.535,25.317-18.277c3.196-0.786,8.686-3.401,3.307-11.887c-1.028-1.64-3.48-5.126-3.639-9.608
			c0,0-13.864,15.209-3.981,20.73c-3.232,9.37-12.825,15.656-23.393,14.607c-4.651-0.48-8.833-2.679-11.786-6.212
			c-2.109-2.521-3.365-5.512-3.755-8.639c-0.053-1.397-0.111-2.779,0.026-4.187c0-0.011,0-0.021,0-0.032
			c0.98-6.918,7.446-11.896,14.702-11.158c2.769,0.285,5.258,1.604,7.019,3.713c1.735,2.093,2.542,4.683,2.268,7.34
			c-0.211,2.015-1.207,3.818-2.815,5.084c-1.635,1.297-3.671,1.867-5.79,1.677c-1.16-0.158-2.247,0.749-2.373,1.909
			c-0.111,1.207,0.743,2.246,1.93,2.373c3.217,0.338,6.392-0.58,8.912-2.573c2.531-2.004,4.113-4.852,4.44-8.037
			c0.4-3.817-0.765-7.572-3.265-10.558c-2.479-2.974-5.985-4.83-9.893-5.23c-2.025-0.232-3.992-0.032-5.886,0.4
			c0.522-1.461,0.828-2.956,0.828-4.527c0-6.141-4.988-11.13-11.116-11.13c-5.137,0-9.323,4.174-9.323,9.337
			c0,1.2,0.96,2.154,2.151,2.154s2.157-0.971,2.157-2.154c0-2.766,2.246-5.013,5.01-5.013c3.744,0,6.797,3.043,6.797,6.795
			c0,2.407-0.938,4.681-2.647,6.399c-1.708,1.703-3.976,2.643-6.391,2.643c-6.519,0-11.834-5.301-11.834-11.829
			c0-7.074,3.312-15.324,12.656-15.324c1.191,0,2.151-0.979,2.151-2.154c0-1.194-0.965-2.154-2.151-2.154h-12.023
			c1.018-0.714,1.993-1.498,2.874-2.437c3.133-3.354,4.836-7.775,4.794-12.484l-0.032-5.524c0-0.74-0.363-1.416-0.98-1.793
			c-0.602-0.385-1.371-0.442-2.036-0.168c-0.137,0.077-13.948,5.969-22.351,0.309c-0.986-0.665-2.331-0.398-2.996,0.578
			c-0.669,1.004-0.406,2.344,0.583,3.008c7.733,5.21,18.352,2.813,23.488,1.184l0.021,2.455c0.032,3.576-1.255,6.94-3.628,9.484
			c-2.357,2.521-5.479,3.913-8.807,3.937c-0.031,0-0.063,0-0.103,0c-6.874,0-12.501-5.898-12.564-13.205l-0.118-14.449
			c-0.011-1.34,1.202-2.756,3.335-3.895c2.608-1.382,6.184-2.159,10.072-2.191c0.063,0,0.127,0,0.195,0
			c6.291,0,10.32,2.587,10.331,4.324c-0.127,0.562-1.424,1.529-3.365,2.365c0.138-0.079,0.274-0.161,0.401-0.274
			c0.896-0.788,0.98-2.159,0.189-3.04c-1.751-2.004-5.526-2.317-9.236-2.446c-5.078-0.243-7.67,1.231-8.954,2.468
			c-1.036,1.01-1.598,2.268-1.582,3.546c0.011,1.487,0.881,3.491,4.946,4.651c2.052,0.583,4.675,0.918,7.333,0.896
			c5.975-0.061,14.628-3.256,14.602-8.171c-0.042-4.999-6.412-8.625-14.876-8.656c-4.569,0.05-8.852,1.01-12.061,2.7
			c-3.66,1.951-5.658,4.693-5.632,7.76l0.119,14.457c0.055,6.127,3.122,11.496,7.702,14.618H86.184c-1.194,0-2.16,0.97-2.16,2.154
			c0,1.192,0.965,2.154,2.16,2.154c9.336,0,12.653,8.251,12.653,15.325c0,6.528-5.311,11.823-11.839,11.823
			c-4.983,0-9.039-4.051-9.039-9.036c0.005-3.736,3.051-6.792,6.797-6.792c2.766,0,5.013,2.239,5.013,5.01
			c0,1.2,0.968,2.154,2.159,2.154c1.194,0,2.16-0.97,2.16-2.154c0-5.147-4.185-9.336-9.332-9.336
			c-6.122,0-11.111,4.988-11.116,11.129c0,1.55,0.311,3.008,0.799,4.385c-1.674-0.316-3.391-0.465-5.173-0.264
			c-3.894,0.39-7.409,2.257-9.893,5.23c-2.494,2.996-3.651,6.74-3.256,10.558c0.329,3.186,1.906,6.033,4.442,8.026
			c2.519,1.993,5.693,2.911,8.912,2.584c1.187-0.116,2.046-1.182,1.928-2.362c-0.124-1.182-1.194-2.089-2.371-1.915
			c-2.101,0.18-4.164-0.374-5.79-1.671c-1.614-1.271-2.613-3.075-2.824-5.089c-0.274-2.652,0.53-5.269,2.272-7.346
			c1.756-2.104,4.25-3.423,7.017-3.708c7.306-0.706,13.721,4.24,14.697,11.164c0,0.011-0.005,0.021,0,0.032
			c0.148,1.418,0.082,2.8,0.021,4.187c-0.393,3.122-1.65,6.117-3.752,8.638c-2.948,3.533-7.127,5.732-11.778,6.213
			c-10.589,1.044-20.173-5.231-23.398-14.607c9.882-5.517-3.979-20.735-3.979-20.735c-0.166,4.482-2.603,7.983-3.644,9.608
			c-5.374,8.479,0.118,11.116,3.309,11.881c3.37,10.742,13.613,18.283,25.32,18.283c0.934,0,1.886-0.043,2.835-0.138
			c3.473-0.343,6.692-1.571,9.542-3.386c-0.274,0.369-0.464,0.786-0.762,1.15c-4.844,5.959-11.718,9.682-19.364,10.462
			c-9.666,1.013-19.19-1.824-26.763-7.974c-7.564-6.154-12.284-14.871-13.289-24.563c-0.053-0.501-0.295-0.934-0.625-1.271
			c3.114-0.443,6.916-1.261,6.982-7.483c0.031-2.595-1.917-4.988,2.041-11.812c0,0-5.034-0.155-8.82,3.947
			c0.174-9.542-9.416-9.703-9.416-9.703c2.634,4.071-0.179,6.479,0.583,11.093C4.57,105.686,0,107.468,0,107.468
			c6.004,5.112,4.968,8.018,5.859,10.465c2.067,5.643,5.74,5.357,8.775,4.783c-0.161,0.338-0.269,0.717-0.227,1.118
			c1.123,10.842,6.405,20.593,14.866,27.475c7.343,5.964,16.313,9.128,25.645,9.128c1.421,0,2.853-0.079,4.288-0.232
			c8.791-0.906,16.698-5.178,22.27-12.039c0.427-0.532,0.799-1.07,1.189-1.629c-0.034,0.521-0.152,1.012-0.152,1.529
			c0,13.863,11.288,25.154,25.154,25.154c13.866,0,25.151-11.291,25.151-25.154c0-0.896-0.18-1.751-0.274-2.61
			c0.612,0.928,1.276,1.835,1.983,2.71c5.568,6.866,13.479,11.138,22.274,12.039c1.435,0.153,2.858,0.232,4.282,0.232
			c9.334,0,18.31-3.175,25.65-9.128c8.458-6.866,13.731-16.633,14.86-27.475c0.042-0.401-0.063-0.786-0.222-1.118
			c3.027,0.574,6.708,0.859,8.775-4.783c0.886-2.447-0.138-5.353,5.854-10.465C216,107.468,211.422,105.686,206.55,108.166z
			 M108.875,55.261c-4.056,0.232-7.485-0.928-7.646-1.685c0.324-0.33,1.587-1.263,4.973-1.263c0.253,0,0.52,0.011,0.794,0.021
			c4.442,0.169,5.813,0.633,6.178,0.983c0.575,0.654,1.45,0.865,2.236,0.644C113.59,54.673,111.291,55.25,108.875,55.261z
			 M86.833,148.086c0-8.21,4.807-15.234,11.707-18.631c-2.716,4.567-4.435,11.132-4.435,18.631c0,7.494,1.714,14.064,4.43,18.626
			C91.634,163.315,86.833,156.276,86.833,148.086z M105.511,168.173c-3.673-2.236-7.085-9.809-7.085-20.087
			c0-10.277,3.406-17.855,7.085-20.092V168.173z M105.511,123.148c-6.811,0.585-12.804,3.86-16.978,8.807
			c0.28-2.004,0.377-4.05,0.28-6.106c-0.016-0.512,0.05-1.008-0.006-1.509c-0.231-2.257-0.933-4.361-1.948-6.243
			c0.05,0,0.092,0.021,0.14,0.021c8.912,0,16.158-7.256,16.158-16.158c0-6.529-2.107-11.863-5.725-15.325h1.231
			c0.061,0.158,0.071,0.335,0.174,0.509l5.474,8.076c0.33,0.499,0.763,0.823,1.2,1.129V123.148z M109.82,168.173v-40.168
			c3.665,2.236,7.082,9.804,7.082,20.092C116.902,158.349,113.495,165.937,109.82,168.173z M116.796,166.712
			c2.71-4.572,4.43-11.132,4.43-18.626c0-7.499-1.72-14.063-4.43-18.631c6.897,3.396,11.696,10.431,11.696,18.631
			C128.493,156.276,123.683,163.315,116.796,166.712z M127.206,124.329c-0.062,0.512,0.011,1.008-0.01,1.498
			c-0.111,2.404,0.031,4.788,0.422,7.098c-4.177-5.511-10.526-9.165-17.788-9.798v-26.82c0.438-0.319,0.865-0.633,1.187-1.118
			l5.49-8.079c0.095-0.145,0.11-0.335,0.163-0.506h1.229c-3.606,3.448-5.722,8.796-5.722,15.324c0,8.901,7.251,16.158,16.158,16.158
			c0.285,0,0.559-0.074,0.844-0.095C128.145,119.937,127.438,122.062,127.206,124.329z"/>
	</g>
</g>
<g>
</g>
<g>
</g>
<g>
</g>
<g>
</g>
<g>
</g>
<g>
</g>
<g>
</g>
<g>
</g>
<g>
</g>
<g>
</g>
<g>
</g>
<g>
</g>
<g>
</g>
<g>
</g>
<g>
</g>
</svg>
