<?xml version="1.0" encoding="iso-8859-1"?>
<!-- Generator: Adobe Illustrator 16.0.0, SVG Export Plug-In . SVG Version: 6.00 Build 0)  -->
<!DOCTYPE svg PUBLIC "-//W3C//DTD SVG 1.1//EN" "http://www.w3.org/Graphics/SVG/1.1/DTD/svg11.dtd">
<svg version="1.1" id="Capa_1" xmlns="http://www.w3.org/2000/svg" xmlns:xlink="http://www.w3.org/1999/xlink" x="0px" y="0px"
	 width="184.912px" height="184.912px" viewBox="0 0 184.912 184.912" style="enable-background:new 0 0 184.912 184.912;"
	 xml:space="preserve">
<g>
	<path d="M140.011,78.305c-9.055,4.166-14.133,11.501-15.072,20.877c-5.526-15.103-7.746-24.891-0.774-34.014
		c13.832-0.728,24.722-12.861,24.373-27.464l-0.216-8.812c-0.021-0.817-0.501-1.562-1.244-1.904
		c-0.755-0.353-1.625-0.248-2.263,0.27c-0.775,0.611-19.085,14.95-37.162,3.786c-1.013-0.633-2.347-0.316-2.969,0.701
		c-0.628,1.013-0.316,2.342,0.701,2.969c15.783,9.756,31.867,2.353,38.713-1.793l0.115,4.878
		c0.296,12.372-8.912,22.655-20.576,23.093c-0.327-0.095-0.654-0.09-0.986-0.032c-11.586-0.137-20.894-9.83-21.188-22.038
		l-0.56-23.103c-0.09-3.623,3.671-6.244,5.917-7.472c4.313-2.379,10.226-3.766,16.648-3.918C130.381,4.17,136.852,5.984,140,8.979
		c1.128,1.081,1.708,2.205,1.734,3.349c0.011,0.438-0.337,1.055-0.965,1.709c-2.932,3.08-10.578,5.801-16.695,5.943
		c-3.602,0.063-7.394-0.312-10.157-1.05c-3.164-0.854-3.876-1.824-3.881-2.02c0-0.153,0.163-0.712,0.949-1.503
		c1.861-1.856,6.102-3.776,12.002-3.644c4.029,0.105,7.325,1.15,8.839,2.816c0.796,0.886,2.156,0.949,3.048,0.143
		c0.886-0.796,0.949-2.162,0.143-3.048c-2.357-2.59-6.587-4.087-11.924-4.225c-6.243-0.132-11.928,1.677-15.166,4.91
		c-1.481,1.481-2.252,3.095-2.21,4.661c0.048,1.909,1.309,4.541,7.077,6.091c3.19,0.854,7.314,1.261,11.38,1.192
		c7.325-0.169,15.995-3.37,19.718-7.277c1.466-1.545,2.193-3.154,2.146-4.799c-0.053-2.294-1.118-4.499-3.074-6.371
		c-3.992-3.807-11.555-6.022-19.612-5.848c-7.104,0.169-13.716,1.745-18.626,4.451c-5.363,2.948-8.247,6.987-8.147,11.359
		l0.56,23.113c0.316,13.269,9.803,24.01,21.932,25.925c-7.245,11.875-2.252,25.186,3.491,40.399
		c1.413,3.739,3.063,7.525,4.741,11.349c0.29,0.659,0.574,1.323,0.859,1.982c-5.506-4.492-11.966-6.428-18.99-5.505
		c1.445-1.799,2.737-4.019,3.392-6.671c1.207-4.915-0.032-10.088-3.671-15.383c-4.065-5.922-9.181-8.675-16.1-8.675
		c-5.658,0-12.777,1.798-23.789,6.017c-9.001,3.428-17.165,3.882-30.217,2.041c-0.061-0.005-0.113,0.026-0.174,0.021
		c-0.264-0.016-0.522,0.016-0.778,0.095c-0.108,0.031-0.203,0.063-0.301,0.11c-0.287,0.138-0.551,0.333-0.762,0.602
		c-0.005,0.005-0.016,0.011-0.026,0.026c0,0,0,0,0,0.005l0,0c-0.216,0.29-0.319,0.617-0.369,0.96
		c-0.011,0.09-0.005,0.174-0.011,0.269c-0.005,0.269,0.04,0.527,0.132,0.781c0.021,0.063,0,0.121,0.026,0.179
		c0.881,1.904,21.827,46.501,49.48,46.501c5.253,0,10.426-1.629,15.367-4.856c2.521-1.635,5.368-5.843,5.695-10.426
		c0.158-2.31-0.354-4.456-1.456-6.364c11.533-3.523,21.421,1.502,28.019,14.158c3.617,11.164,4.703,22.592-2.337,34.283
		c-4.266,7.066-10.926,11.786-18.768,13.3c-8.78,1.692-18.325-0.738-26.164-6.666c-0.958-0.728-2.308-0.538-3.024,0.417
		c-0.717,0.959-0.535,2.314,0.422,3.032c6.961,5.268,15.15,8.073,23.203,8.073c2.141,0,4.282-0.2,6.386-0.606
		c9.05-1.745,16.738-7.183,21.643-15.309c7.53-12.503,6.682-24.722,3.222-36.244c0.053-0.406,0.026-0.823-0.169-1.229
		c-0.132-0.273-0.306-0.495-0.442-0.77c-1.799-5.474-4.119-10.779-6.35-15.878c-0.2-0.448-0.385-0.892-0.574-1.335
		c0.005-0.231,0.005-0.458-0.063-0.69c-4.24-14.48-0.27-25.35,11.169-30.623c1.086-0.495,1.556-1.782,1.06-2.863
		C142.374,78.283,141.086,77.804,140.011,78.305z M85.033,135.01c-0.129,0.158-0.206,0.332-0.288,0.521
		c-2.618-0.147-5.178-0.77-7.673-1.771l14.958-13.716c0.633,0.047,1.286,0.126,1.9,0.126c1.351,0,2.627-0.137,3.86-0.348
		L85.033,135.01z M65.312,126.245l15.28-8.469c1.993,0.627,3.95,1.123,5.861,1.519l-13.561,12.435
		C70.259,130.222,67.72,128.359,65.312,126.245z M82.796,113.958l-4.92-24.184c2.576-0.854,4.838-1.503,6.903-1.994l4.361,27.669
		C87.116,115.134,85.006,114.628,82.796,113.958z M105.37,93.481c2.9,4.224,3.934,8.222,3.037,11.876
		c-0.754,3.079-2.742,5.463-4.519,7.087l-3.523-23.825C102.216,89.722,103.845,91.282,105.37,93.481z M95.767,86.979
		c0,0.026-0.006,0.047,0,0.068l4.092,27.675c-1.809,0.786-3.924,1.145-6.283,1.123l-4.554-28.888c1.363-0.185,2.632-0.29,3.802-0.29
		C93.884,86.679,94.828,86.826,95.767,86.979z M70.576,92.416c1.112-0.427,2.162-0.812,3.188-1.191l4.293,21.114
		c-2.057-0.774-4.143-1.65-6.239-2.595l-3.821-16.437C68.859,93.022,69.713,92.738,70.576,92.416z M50.624,109.117l8.142-0.791
		c0.142-0.011,0.261-0.084,0.39-0.116c1.798,0.991,3.649,1.956,5.54,2.916l-10.265,3.243
		C53.091,112.598,51.807,110.847,50.624,109.117z M44.538,99.335c2.355,1.556,5.168,3.349,8.301,5.231l-4.878,0.475
		C46.666,102.989,45.521,101.064,44.538,99.335z M60.279,103.881l-1.824-8.49c1.83-0.217,3.623-0.507,5.39-0.918l2.995,12.883
		C64.609,106.238,62.423,105.078,60.279,103.881z M54.106,95.728l1.124,5.237c-3.093-1.856-5.978-3.676-8.554-5.374
		C49.305,95.76,51.768,95.817,54.106,95.728z M57.332,117.981l13.083-4.14c1.582,0.707,3.169,1.377,4.757,1.999l-12.867,7.124
		c-0.103,0.063-0.164,0.148-0.248,0.217C60.403,121.521,58.832,119.774,57.332,117.981z M99.042,131.487
		c-2.753,1.798-5.574,2.953-8.419,3.586l11.651-13.858c0.406,0.975,0.575,2.035,0.501,3.169
		C102.548,127.585,100.46,130.564,99.042,131.487z"/>
</g>
<g>
</g>
<g>
</g>
<g>
</g>
<g>
</g>
<g>
</g>
<g>
</g>
<g>
</g>
<g>
</g>
<g>
</g>
<g>
</g>
<g>
</g>
<g>
</g>
<g>
</g>
<g>
</g>
<g>
</g>
</svg>
