<?xml version="1.0" encoding="iso-8859-1"?>
<!-- Generator: Adobe Illustrator 16.0.0, SVG Export Plug-In . SVG Version: 6.00 Build 0)  -->
<!DOCTYPE svg PUBLIC "-//W3C//DTD SVG 1.1//EN" "http://www.w3.org/Graphics/SVG/1.1/DTD/svg11.dtd">
<svg version="1.1" id="Capa_1" xmlns="http://www.w3.org/2000/svg" xmlns:xlink="http://www.w3.org/1999/xlink" x="0px" y="0px"
	 width="230.093px" height="230.093px" viewBox="0 0 230.093 230.093" style="enable-background:new 0 0 230.093 230.093;"
	 xml:space="preserve">
<g>
	<g>
		<path d="M18.956,119.72c0.426,10.583,5.282,20.033,12.791,26.549c0.131,0.128,0.262,0.244,0.387,0.365
			c0.173,0.146,0.353,0.305,0.536,0.451c8.604,7.599,21.139,12.957,37.5,13.7c1.696,0.091,3.346,0.128,4.944,0.128
			c21.124,0,33.22-6.467,39.948-12.452c6.729,5.991,18.827,12.452,39.944,12.452c1.602,0,3.252-0.037,4.951-0.128
			c16.355-0.743,28.893-6.102,37.497-13.7c0.183-0.146,0.358-0.305,0.542-0.451c0.127-0.121,0.262-0.237,0.383-0.365
			c7.508-6.503,12.361-15.966,12.794-26.549c10.376-0.755,18.682-9.679,18.791-20.761l0.128-17.339
			c0.03-2.283-0.938-4.484-2.783-6.366c-3.672-3.742-10.528-6.013-18.34-6.074c-0.098,0-0.184,0-0.269,0
			c-9.938,0-17.433,4.396-17.494,10.288c-0.036,5.824,10.285,9.627,17.421,9.697c1.59-0.034,14.59-0.076,14.645-6.555
			c0.013-1.422-0.663-2.837-1.973-4.095c-2.631-2.545-7.106-3.909-12.087-3.748c-4.244,0.168-7.624,1.452-9.512,3.611
			c-0.907,1.035-0.804,2.612,0.231,3.516c1.035,0.904,2.606,0.804,3.52-0.231c0.731-0.834,2.686-1.784,5.955-1.909
			c5.499-0.256,8.61,2.052,8.97,2.457c-0.529,0.712-4.135,2.076-9.7,1.964c-6.442-0.055-12.221-3.404-12.477-4.665
			c0.019-2.198,4.896-5.337,12.507-5.337c0.073,0,0.146,0,0.226,0c6.327,0.052,12.142,1.854,14.827,4.585
			c0.907,0.928,1.37,1.875,1.358,2.829l-0.135,17.335c-0.091,8.872-6.697,15.957-15.308,15.963
			c-4.025-0.037-7.801-1.718-10.632-4.753c-2.868-3.069-4.427-7.14-4.396-11.454l0.024-3.093c6.096,1.976,18.913,4.932,28.229-1.358
			c1.145-0.773,1.437-2.32,0.67-3.461c-0.773-1.148-2.326-1.446-3.459-0.673c-10.096,6.801-26.743-0.287-26.914-0.356
			c-0.768-0.335-1.65-0.262-2.351,0.194c-0.694,0.454-1.126,1.233-1.132,2.07l-0.067,6.628c-0.043,5.605,1.985,10.9,5.729,14.903
			c2.953,3.16,6.687,5.176,10.754,5.955c-0.055,1.431-0.188,2.851-0.427,4.238c-0.17,0.938-0.396,1.882-0.663,2.813
			c-0.189,0.693-0.408,1.389-0.646,2.058c-1.735,4.811-4.707,9.414-8.829,13.421c-5.718,5.176-13.22,8.415-21.52,8.415
			c-13.926,0-25.264-11.332-25.264-25.271c0-10.235,7.867-18.571,17.854-19.519c0.444,1.233,1.084,2.387,2.052,3.334
			c1.656,1.635,3.86,2.533,6.192,2.533c2.394,0,4.628-0.94,6.314-2.652c3.416-3.471,3.367-9.085-0.115-12.513
			c-3.38-3.312-9.213-3.249-12.507,0.119c-1.157,1.172-1.784,2.648-2.156,4.213c-5.492,0.469-10.455,2.694-14.34,6.174
			c-1.771-3.973-5.669-7.979-14.163-7.979c-9.091,0-18.956,4.661-19.373,4.855c-0.822,0.393-1.367,1.203-1.416,2.113
			c-0.055,0.91,0.399,1.778,1.172,2.256c5.133,3.164,7.164,5.551,8.631,8.15c3.922,6.966,7.21,10.997,12.374,10.997
			c0.962,0,1.948-0.146,3.008-0.45c0.608-0.165,1.071-0.402,1.577-0.621c0.48,14.321,10.887,26.122,24.582,28.691
			c-2.777,0.476-5.676,0.828-8.751,0.963c-22.469,1.022-34.72-5.213-41.26-11.004c4.865-5.735,7.728-12.671,7.728-19.649
			c0-1.388-1.121-2.497-2.494-2.497s-2.496,1.115-2.496,2.497c0,5.62-2.269,11.271-6.147,16.015
			c-3.879-4.756-6.153-10.395-6.153-16.015c0-1.388-1.117-2.497-2.497-2.497c-1.376,0-2.487,1.115-2.487,2.497
			c0,6.979,2.862,13.914,7.721,19.649c-6.543,5.791-18.812,12.014-41.254,11.004c-3.081-0.135-5.973-0.5-8.753-0.963
			c13.697-2.563,24.11-14.37,24.585-28.691c0.505,0.207,0.965,0.444,1.577,0.621c1.06,0.298,2.052,0.45,3.011,0.45
			c5.164,0,8.443-4.031,12.374-11.003c1.464-2.6,3.498-4.987,8.628-8.15c0.779-0.478,1.227-1.34,1.178-2.256
			c-0.055-0.911-0.6-1.721-1.422-2.113c-0.411-0.201-10.275-4.856-19.367-4.856c-8.503,0-12.4,4.019-14.167,7.98
			c-3.885-3.48-8.841-5.706-14.34-6.175c-0.369-1.559-0.999-3.035-2.146-4.207c-3.303-3.368-9.127-3.438-12.513-0.113
			c-3.48,3.422-3.522,9.037-0.113,12.507c1.69,1.705,3.921,2.646,6.318,2.646c2.329,0,4.53-0.904,6.184-2.527
			c0.968-0.947,1.61-2.101,2.058-3.34c9.996,0.953,17.851,9.295,17.851,19.513c0,13.938-11.329,25.27-25.258,25.27
			c-8.299,0-15.801-3.238-21.519-8.414c-4.125-4.014-7.1-8.604-8.829-13.409c-0.229-0.676-0.448-1.364-0.649-2.07
			c-0.268-0.925-0.49-1.875-0.66-2.807c-0.244-1.395-0.381-2.802-0.43-4.244c4.064-0.779,7.8-2.783,10.757-5.943
			c3.748-4.01,5.778-9.304,5.729-14.909l-0.07-6.631c-0.006-0.834-0.429-1.614-1.132-2.067c-0.701-0.457-1.586-0.523-2.354-0.195
			C36.74,89.807,20.11,96.907,9.99,90.087c-1.16-0.779-2.691-0.475-3.458,0.673c-0.773,1.142-0.469,2.694,0.673,3.462
			c9.316,6.29,22.146,3.34,28.232,1.358l0.024,3.087c0.04,4.32-1.525,8.391-4.394,11.459c-2.831,3.029-6.616,4.722-10.644,4.752
			c-8.275,0.311-15.208-7.084-15.296-15.957L4.991,81.574c-0.006-0.94,0.448-1.888,1.358-2.816
			c2.688-2.731,8.506-4.534,14.827-4.585c7.715-0.228,12.708,3.118,12.732,5.307c-0.256,1.297-6.034,4.646-12.477,4.701
			c-5.124-0.104-9.177-1.258-9.621-1.465c0.289-0.904,3.486-3.23,8.899-2.956c3.267,0.131,5.225,1.075,5.955,1.909
			c0.91,1.041,2.487,1.136,3.517,0.231c1.035-0.91,1.142-2.481,0.229-3.517c-1.888-2.159-5.268-3.438-9.508-3.611
			c-4.932-0.167-9.459,1.197-12.084,3.748c-1.303,1.264-1.988,2.683-1.976,4.095c0.055,6.485,13.168,6.531,14.642,6.555
			c7.139-0.064,17.463-3.873,17.427-9.703c-0.07-5.943-7.52-10.443-17.771-10.275c-7.812,0.063-14.678,2.332-18.337,6.074
			C0.938,77.147-0.023,79.349,0,81.626l0.131,17.352C0.278,110.041,8.574,118.965,18.956,119.72z M172.135,99.945
			c0.73-0.749,1.711-1.16,2.753-1.16c1.011,0,1.973,0.393,2.697,1.097c1.516,1.498,1.54,3.948,0.055,5.456
			c-0.737,0.749-1.711,1.16-2.752,1.16c-1.018,0-1.974-0.387-2.698-1.102c-0.736-0.719-1.15-1.684-1.163-2.713
			C171.015,101.653,171.41,100.673,172.135,99.945z M147.48,111.983c-0.056,0.064-0.146,0.046-0.207,0.101
			c-4.147-6.04-10.114-5.699-10.4-5.672c-1.364,0.104-2.363,1.282-2.271,2.643c0.085,1.358,1.315,2.338,2.624,2.338
			c0.518-0.064,4.731-0.024,7.18,5.818c0.115,0.755,0.134,1.729-0.28,2.588c-0.481,0.993-1.541,1.724-3.16,2.181
			c-3.538,0.998-5.475-0.737-9.676-8.19c-1.559-2.771-3.532-5.033-6.424-7.261c3.434-1.233,8.451-2.685,13.061-2.685
			c5.475,0,8.763,2.03,10.06,6.211C148.046,110.321,147.985,111.317,147.48,111.983z M57.939,105.407
			c-1.458,1.434-4.007,1.41-5.45-0.058c-1.489-1.513-1.464-3.964,0.052-5.456c0.722-0.709,1.689-1.102,2.7-1.102
			c1.042,0,2.019,0.411,2.756,1.16c0.721,0.737,1.114,1.702,1.108,2.737C59.087,103.718,58.688,104.671,57.939,105.407z
			 M92.215,103.843c4.609,0,9.627,1.452,13.058,2.685c-2.886,2.229-4.865,4.491-6.424,7.261c-4.202,7.466-6.104,9.188-9.676,8.19
			c-1.595-0.445-2.658-1.176-3.136-2.162c-0.42-0.865-0.398-1.852-0.274-2.654c2.448-5.77,6.653-5.752,7.146-5.77
			c1.315,0.149,2.542-0.929,2.655-2.295c0.106-1.37-0.917-2.576-2.296-2.68c-0.28-0.027-6.253-0.368-10.4,5.672
			c-0.055-0.055-0.162-0.031-0.21-0.101c-0.511-0.667-0.569-1.674-0.505-1.936C83.449,105.867,86.741,103.843,92.215,103.843z"/>
	</g>
</g>
<g>
</g>
<g>
</g>
<g>
</g>
<g>
</g>
<g>
</g>
<g>
</g>
<g>
</g>
<g>
</g>
<g>
</g>
<g>
</g>
<g>
</g>
<g>
</g>
<g>
</g>
<g>
</g>
<g>
</g>
</svg>
