<?xml version="1.0" encoding="iso-8859-1"?>
<!-- Generator: Adobe Illustrator 16.0.0, SVG Export Plug-In . SVG Version: 6.00 Build 0)  -->
<!DOCTYPE svg PUBLIC "-//W3C//DTD SVG 1.1//EN" "http://www.w3.org/Graphics/SVG/1.1/DTD/svg11.dtd">
<svg version="1.1" id="Capa_1" xmlns="http://www.w3.org/2000/svg" xmlns:xlink="http://www.w3.org/1999/xlink" x="0px" y="0px"
	 width="249.412px" height="249.411px" viewBox="0 0 249.412 249.411" style="enable-background:new 0 0 249.412 249.411;"
	 xml:space="preserve">
<g>
	<g>
		<path d="M238.531,101.688c0.883-5.325-2.369-8.12,0.676-12.814c0,0-11.07,0.189-10.869,11.198
			c-4.378-4.744-10.188-4.558-10.188-4.558c4.562,7.9,2.314,10.644,2.351,13.648c0.085,7.173,4.476,8.126,8.074,8.638
			c-0.39,0.393-0.67,0.904-0.73,1.464c-1.157,11.192-6.613,21.269-15.345,28.363c-8.731,7.088-19.692,10.352-30.908,9.195
			c-8.823-0.901-16.758-5.213-22.354-12.081c-0.348-0.414-0.566-0.913-0.883-1.327c3.288,2.094,7.015,3.507,11.021,3.909
			c1.096,0.122,2.191,0.158,3.264,0.158c13.518,0,25.343-8.702,29.233-21.105c3.685-0.907,10.029-3.921,3.818-13.722
			c-1.188-1.888-4.007-5.909-4.214-11.079c0,0-15.99,17.546-4.585,23.925c-3.732,10.813-14.803,18.048-27.012,16.873
			c-5.364-0.549-10.199-3.105-13.609-7.168c-2.43-2.916-3.885-6.363-4.329-9.986c-0.067-1.601-0.128-3.215,0.03-4.807
			c0-0.013-0.006-0.024,0-0.058c1.133-7.992,8.61-13.679,16.977-12.888c3.203,0.344,6.077,1.854,8.099,4.29
			c2.01,2.415,2.947,5.42,2.631,8.488c-0.244,2.309-1.4,4.391-3.258,5.864c-1.894,1.485-4.244,2.155-6.692,1.924
			c-1.327-0.183-2.594,0.853-2.733,2.217c-0.128,1.376,0.858,2.588,2.223,2.728c3.738,0.391,7.397-0.657,10.296-2.971
			c2.93-2.314,4.75-5.597,5.121-9.283c0.463-4.409-0.877-8.735-3.763-12.19c-2.862-3.435-6.917-5.587-11.424-6.041
			c-2.35-0.255-4.627-0.024-6.808,0.46c0.597-1.638,0.963-3.386,0.963-5.23c0-7.076-5.749-12.845-12.824-12.845
			c-5.943,0-10.771,4.831-10.771,10.78c0,1.386,1.114,2.497,2.49,2.497c1.37,0,2.49-1.13,2.49-2.497c0-3.19,2.595-5.784,5.779-5.784
			c4.329,0,7.843,3.51,7.843,7.843c0,5.754-4.677,10.442-10.425,10.442c-7.538,0-13.67-6.113-13.67-13.661
			c0-8.175,3.83-17.708,14.613-17.708c1.383,0,2.491-1.123,2.491-2.481c0-1.357-1.121-2.481-2.491-2.481h-23.644
			c-0.354-0.195-0.731-0.338-1.16-0.338c-0.43,0-0.804,0.131-1.16,0.338H99.521c-1.376,0-2.494,1.124-2.494,2.481
			c0,1.358,1.117,2.481,2.494,2.481c10.781,0,14.605,9.533,14.605,17.708c0,7.547-6.132,13.661-13.67,13.661
			c-5.754,0-10.431-4.688-10.431-10.442c0-4.314,3.522-7.843,7.849-7.843c3.188,0,5.782,2.594,5.782,5.784
			c0,1.386,1.117,2.497,2.494,2.497c1.379,0,2.494-1.13,2.494-2.497c0-5.934-4.832-10.78-10.769-10.78
			c-7.076,0-12.836,5.769-12.836,12.845c0,1.784,0.366,3.48,0.923,5.069c-1.934-0.362-3.916-0.536-5.974-0.316
			c-4.503,0.453-8.555,2.605-11.423,6.04c-2.88,3.456-4.217,7.782-3.766,12.203c0.375,3.674,2.195,6.963,5.124,9.277
			c2.908,2.29,6.555,3.361,10.297,2.966c1.37-0.135,2.363-1.37,2.226-2.734c-0.143-1.376-1.367-2.418-2.737-2.229
			c-2.433,0.231-4.807-0.42-6.692-1.9c-1.863-1.473-3.017-3.556-3.254-5.885c-0.317-3.06,0.612-6.08,2.625-8.479
			c2.027-2.433,4.908-3.946,8.102-4.284c8.421-0.792,15.844,4.896,16.97,12.882c0,0.018-0.006,0.036,0,0.052
			c0.17,1.622,0.094,3.229,0.024,4.813c-0.448,3.623-1.906,7.062-4.333,9.986c-3.404,4.067-8.229,6.625-13.6,7.173
			c-12.264,1.169-23.3-6.065-27.018-16.88c11.411-6.366-4.594-23.924-4.594-23.924c-0.201,5.17-3.011,9.216-4.214,11.085
			c-6.205,9.788,0.137,12.827,3.827,13.729c3.891,12.403,15.719,21.093,29.237,21.093c1.078,0,2.171-0.061,3.267-0.152
			c4.01-0.396,7.721-1.826,11.019-3.909c-0.317,0.408-0.536,0.907-0.88,1.315c-5.593,6.887-13.53,11.18-22.354,12.087
			c-11.161,1.175-22.165-2.106-30.902-9.207c-8.735-7.1-14.185-17.171-15.345-28.357c-0.061-0.587-0.347-1.071-0.728-1.461
			c3.596-0.509,7.986-1.458,8.068-8.641c0.037-3.011-2.213-5.767,2.351-13.655c0,0-5.806-0.161-10.184,4.564
			C21.3,89.029,10.233,88.844,10.233,88.844c3.042,4.694-0.201,7.489,0.673,12.817C5.283,98.814,0,100.857,0,100.857
			c6.933,5.913,5.736,9.268,6.771,12.09c2.39,6.525,6.628,6.187,10.126,5.521c-0.186,0.386-0.304,0.822-0.262,1.291
			c1.297,12.513,7.395,23.778,17.166,31.718c8.473,6.881,18.836,10.547,29.611,10.547c1.641,0,3.3-0.092,4.951-0.269
			c10.15-1.047,19.281-5.991,25.714-13.901c0.018-0.024,0.04-0.061,0.064-0.104c0.012,16.636,13.542,30.172,30.178,30.172
			c16.632,0,30.175-13.548,30.175-30.196c0-0.396-0.11-0.791-0.128-1.188c0.322,0.42,0.627,0.896,0.962,1.315
			c6.437,7.922,15.569,12.854,25.714,13.901c1.663,0.177,3.312,0.269,4.957,0.269c10.766,0,21.129-3.666,29.605-10.547
			c9.767-7.94,15.868-19.205,17.172-31.718c0.048-0.469-0.073-0.904-0.269-1.291c3.508,0.667,7.745,1.004,10.133-5.521
			c1.035-2.822-0.158-6.177,6.771-12.09C249.449,100.876,244.164,98.827,238.531,101.688z M99.159,147.769
			c0-10.06,5.967-18.693,14.516-22.737c-3.385,5.499-5.544,13.524-5.544,22.737c0,9.207,2.159,17.232,5.544,22.73
			C105.126,166.456,99.159,157.834,99.159,147.769z M121.863,172.144c-4.516-2.594-8.741-11.832-8.741-24.375
			c0-12.55,4.226-21.787,8.741-24.381V172.144z M121.863,102.66c-1.928,0.922-3.267,2.844-3.304,5.103h-2.338
			c-0.922,0-1.772,0.509-2.207,1.327c-0.438,0.816-0.381,1.803,0.137,2.57l4.415,6.509c-6.274,1.221-11.816,4.415-16.051,8.878
			c0.131-1.644,0.137-3.288,0.064-4.956c-0.018-0.585,0.055-1.154-0.006-1.736c-0.268-2.606-1.075-5.03-2.247-7.218
			c0.058,0,0.106,0.024,0.158,0.024c10.288,0,18.654-8.381,18.654-18.654c0-7.554-2.433-13.707-6.61-17.71h9.322v25.864H121.863z
			 M126.843,76.796h9.316c-4.171,3.992-6.619,10.157-6.619,17.695c0,10.275,8.373,18.657,18.657,18.657
			c0.341,0,0.651-0.088,0.986-0.106c-1.193,2.207-2.009,4.664-2.289,7.301c-0.061,0.6,0.012,1.176,0,1.735
			c-0.098,2.021-0.049,4.044,0.177,6.04c-4.33-5.005-10.206-8.646-16.952-9.961l4.408-6.525c0.518-0.752,0.578-1.739,0.14-2.554
			c-0.438-0.831-1.29-1.343-2.21-1.343h-2.326c-0.042-2.244-1.382-4.165-3.3-5.082V76.796H126.843z M126.843,172.144v-48.756
			c4.512,2.6,8.732,11.831,8.732,24.381C135.576,160.312,131.355,169.537,126.843,172.144z M135.021,170.505
			c3.386-5.492,5.547-13.529,5.547-22.73c0-9.207-2.161-17.244-5.547-22.736c8.549,4.043,14.517,12.678,14.517,22.736
			C149.538,157.834,143.57,166.456,135.021,170.505z"/>
	</g>
</g>
<g>
</g>
<g>
</g>
<g>
</g>
<g>
</g>
<g>
</g>
<g>
</g>
<g>
</g>
<g>
</g>
<g>
</g>
<g>
</g>
<g>
</g>
<g>
</g>
<g>
</g>
<g>
</g>
<g>
</g>
</svg>
