<?xml version="1.0" encoding="iso-8859-1"?>
<!-- Generator: Adobe Illustrator 16.0.0, SVG Export Plug-In . SVG Version: 6.00 Build 0)  -->
<!DOCTYPE svg PUBLIC "-//W3C//DTD SVG 1.1//EN" "http://www.w3.org/Graphics/SVG/1.1/DTD/svg11.dtd">
<svg version="1.1" id="Capa_1" xmlns="http://www.w3.org/2000/svg" xmlns:xlink="http://www.w3.org/1999/xlink" x="0px" y="0px"
	 width="220.355px" height="220.355px" viewBox="0 0 220.355 220.355" style="enable-background:new 0 0 220.355 220.355;"
	 xml:space="preserve">
<g>
	<g>
		<path d="M126.963,79.143c0-9.266-7.541-16.798-16.787-16.798c-2.371,0-4.617,0.506-6.664,1.403
			c-0.334,0.103-0.665,0.242-0.941,0.52c-3.144,1.608-5.685,4.163-7.301,7.312c-0.021,0.021-0.053,0.031-0.074,0.053
			c-0.369,0.351-0.551,0.817-0.588,1.297c-0.789,1.922-1.237,4.024-1.237,6.23c0,2.221,0.454,4.338,1.237,6.271
			c0.068,0.453,0.237,0.896,0.572,1.236c0.026,0.011,0.047,0.021,0.069,0.042c1.637,3.208,4.229,5.791,7.446,7.393
			c0.232,0.201,0.483,0.335,0.757,0.412c2.062,0.907,4.332,1.424,6.718,1.424C119.433,95.937,126.963,88.398,126.963,79.143z
			 M116.49,89.83l-3.356-3.354l4.284-4.293l3.386,3.386C119.744,87.331,118.262,88.789,116.49,89.83z M110.078,83.415l-4.293-4.282
			l4.293-4.287l4.281,4.287L110.078,83.415z M122.449,77.166c0.116,0.648,0.2,1.303,0.2,1.978c0,0.67-0.105,1.313-0.2,1.957
			l-1.973-1.967L122.449,77.166z M116.479,68.452c1.772,1.03,3.254,2.499,4.324,4.25l-3.386,3.375l-4.284-4.282L116.479,68.452z
			 M110.176,66.669c0.608,0,1.199,0.097,1.782,0.179l-1.891,1.885l-1.87-1.864C108.857,66.761,109.506,66.669,110.176,66.669z
			 M103.744,68.517l3.272,3.267l-4.287,4.292l-3.251-3.262C100.53,71.054,101.978,69.58,103.744,68.517z M97.891,80.92
			c-0.092-0.577-0.179-1.166-0.179-1.772c0-0.609,0.103-1.215,0.179-1.798l1.783,1.788L97.891,80.92z M103.734,89.764
			c-1.751-1.062-3.214-2.553-4.25-4.324l3.262-3.262l4.287,4.292L103.734,89.764z M110.078,89.532l1.906,1.901
			c-0.583,0.098-1.189,0.179-1.799,0.179c-0.675,0-1.328-0.098-1.978-0.201L110.078,89.532z"/>
		<path d="M2.191,153.92l216.002,0.58l0,0c1.197,0,2.152-0.97,2.162-2.151c0-1.197-0.97-2.151-2.151-2.157l-26.124-0.079
			c2.141-1.197,4.061-2.815,5.537-4.894c2.71-3.786,3.797-8.606,2.974-13.194c-1.392-7.715-8.838-12.909-16.517-11.485
			c-1.181,0.211-1.951,1.329-1.74,2.505c0.201,1.166,1.309,1.999,2.5,1.746c5.379-0.949,10.536,2.626,11.507,7.994
			c0.622,3.459-0.19,7.077-2.236,9.925c-1.962,2.763-4.856,4.562-8.142,5.062c-8.211,1.276-12.963-4.208-20.715-13.975
			c-0.917-1.166-1.803-2.426-2.699-3.671c1.318-0.095,2.637-0.432,3.934-1.16c3.818-2.141,5.179-6.981,3.037-10.831
			c-1.846-3.259-5.99-4.403-9.238-2.568c-1.361,0.765-2.363,2.015-2.774,3.518c-0.422,1.503-0.222,3.085,0.538,4.43
			c0.232,0.405,0.506,0.785,0.822,1.102c-0.559-0.448-1.012-0.976-1.455-1.492c-6.186-8.274-13.68-16.182-26.404-16.182
			c-0.031,0-0.063,0-0.1,0c-6.413,0.021-12.225,2.587-16.374,7.238c-0.834,0.928-1.482,1.982-2.144,3.032v-8.73
			c0.562,0.129,1.146,0.253,1.731,0.253c1.239,0,2.479-0.335,3.555-0.928c1.292-0.726,2.32-1.793,2.984-3.066
			c1.361,0.432,2.88,0.469,4.271,0.068c1.239-0.351,2.326-0.999,3.186-1.883c1.018-1.028,1.709-2.312,2.004-3.684
			c1.397-0.303,2.658-0.988,3.676-1.993c0.875-0.852,1.514-1.943,1.888-3.175c0.4-1.426,0.369-2.911-0.074-4.282
			c1.271-0.665,2.368-1.69,3.064-3.003c0.601-1.097,0.934-2.339,0.934-3.564c-0.017-1.45-0.433-2.819-1.208-3.989
			c0.775-1.195,1.191-2.576,1.191-3.998c0.017-1.248-0.306-2.489-0.917-3.583c-0.718-1.292-1.804-2.323-3.064-2.987
			c0.433-1.371,0.475-2.879,0.063-4.313c-0.348-1.194-1.002-2.275-1.856-3.122c-1.018-1.031-2.299-1.722-3.696-2.015
			c-0.301-1.381-0.986-2.657-2.004-3.699c-0.896-0.886-1.978-1.534-3.186-1.885c-1.392-0.383-2.91-0.351-4.271,0.076
			c-0.653-1.263-1.682-2.354-2.963-3.045c-2.284-1.297-5.39-1.189-7.594,0.264c-2.207-1.448-5.318-1.538-7.576-0.274
			c-1.284,0.706-2.328,1.793-2.982,3.056c-1.361-0.438-2.943-0.459-4.248-0.058c-1.205,0.322-2.312,0.97-3.219,1.867
			c-1.015,1.016-1.696,2.318-1.994,3.689c-1.402,0.303-2.666,0.994-3.681,2.014c-0.875,0.868-1.529,1.954-1.875,3.144
			c-0.416,1.424-0.372,2.932,0.071,4.303c-1.287,0.665-2.365,1.685-3.09,2.998c-0.583,1.094-0.907,2.331-0.907,3.541
			c0,1.458,0.422,2.834,1.2,4.019c-0.778,1.194-1.2,2.586-1.2,4.016c0,1.239,0.33,2.463,0.917,3.57
			c0.747,1.302,1.804,2.339,3.067,2.982c-0.43,1.381-0.475,2.855-0.063,4.282c0.345,1.221,1.015,2.31,1.869,3.154
			c1.016,1.02,2.299,1.711,3.691,2.014c0.298,1.382,0.979,2.64,1.983,3.66c0.875,0.907,1.949,1.55,3.196,1.906
			c1.411,0.396,2.911,0.364,4.271-0.068c0.654,1.273,1.685,2.359,2.987,3.066c1.695,0.949,3.715,1.107,5.535,0.604v8.934
			c-0.696-1.103-1.382-2.204-2.247-3.186c-4.163-4.641-9.98-7.217-16.377-7.237c-0.044,0-0.076,0-0.108,0
			c-12.711,0-20.218,7.912-26.401,16.191c-0.417,0.533-0.886,1.039-1.437,1.482c0.319-0.322,0.572-0.681,0.794-1.07
			c0.788-1.366,0.978-2.948,0.556-4.462c-0.422-1.492-1.403-2.763-2.763-3.507c-3.262-1.824-7.404-0.69-9.258,2.59
			c-2.138,3.839-0.788,8.669,3.035,10.811c1.297,0.728,2.626,1.064,3.937,1.17c-0.896,1.234-1.777,2.5-2.705,3.665
			c-7.744,9.762-12.496,15.246-20.709,13.97c-3.272-0.506-6.178-2.299-8.143-5.062c-2.041-2.848-2.858-6.465-2.235-9.914
			c0.978-5.379,6.146-8.954,11.501-8.005c1.194,0.242,2.302-0.58,2.51-1.746c0.206-1.176-0.562-2.294-1.748-2.505
			c-7.667-1.413-15.114,3.766-16.514,11.491c-0.825,4.593,0.259,9.402,2.972,13.199c1.29,1.804,2.893,3.28,4.696,4.44l-25.265-0.084
			h0.01c-1.194,0-2.148,0.98-2.159,2.141C0.037,152.934,0.991,153.91,2.191,153.92z M162.4,119.327
			c1.187-0.686,2.689-0.253,3.354,0.907c0.506,0.918,0.58,1.925,0.311,2.848c-0.047-0.18-0.11-0.348-0.211-0.538
			c-0.4-0.706-1.128-1.107-1.893-1.107c-0.354,0-0.718,0.095-1.05,0.279c-0.258,0.138-0.49,0.116-0.611,0.079
			c-0.132-0.042-0.332-0.132-0.475-0.379c-0.2-0.349-0.253-0.781-0.132-1.166C161.794,119.854,162.048,119.527,162.4,119.327z
			 M117.777,117.059c3.322-3.712,7.994-5.774,13.167-5.79c0.043,0,0.063,0,0.096,0c10.71,0,16.985,6.476,22.817,14.275
			c0.021,0.037,0.021,0.068,0.048,0.11c0.048,0.058,0.101,0.101,0.143,0.147c1.018,1.361,2.024,2.753,3.037,4.166
			c1.582,2.23,3.164,4.43,4.799,6.492c4.482,5.652,8.585,10.8,13.616,13.595l-36.323-0.101c1.635-1.018,3.127-2.268,4.382-3.807
			c2.885-3.603,4.203-8.121,3.718-12.72c-0.411-3.786-2.294-7.193-5.268-9.571c-2.979-2.395-6.708-3.491-10.489-3.064
			c-1.187,0.116-2.052,1.213-1.909,2.379c0.127,1.181,1.034,2.094,2.384,1.908c5.421-0.559,10.378,3.37,10.974,8.834
			c0.369,3.464-0.606,6.85-2.795,9.555c-2.172,2.711-5.278,4.398-8.722,4.783c-4.472,0.501-8.833-0.785-12.329-3.602
			c-2.812-2.268-4.746-5.326-5.653-8.765c-0.166-2.151,0.231-4.461,2.083-6.012c-0.18,0.443-0.29,0.886-0.312,1.36
			c-0.844,1.424-1.149,3.133-0.564,4.814c0.949,2.748,3.539,4.482,6.328,4.482c0.707,0,1.435-0.11,2.136-0.342
			c4.04-1.393,6.207-5.822,4.836-9.904c-1.65-4.793-6.866-7.361-11.696-5.711c-1.076,0.364-2.015,0.902-2.848,1.492
			C114.139,122.67,115.562,119.527,117.777,117.059z M119.401,135.527c1.402-0.021,2.7-0.728,3.485-1.925
			c0.543-0.839,0.665-1.809,0.554-2.737c0.143,0.259,0.343,0.48,0.454,0.781c0.606,1.813-0.338,3.797-2.136,4.408
			C120.878,136.339,120.002,136.091,119.401,135.527z M116.406,147.999c0.896,0.723,1.855,1.35,2.815,1.914l-6.831-0.021v-6.286
			C113.537,145.199,114.824,146.738,116.406,147.999z M104.641,104.026c-0.946-0.517-1.54-1.5-1.571-2.587
			c-0.029-0.841-0.546-1.608-1.329-1.927c-0.788-0.33-1.685-0.156-2.312,0.411c-0.788,0.751-1.927,1.025-2.953,0.728
			c-0.506-0.135-0.938-0.393-1.305-0.788c-0.644-0.644-0.973-1.521-0.886-2.429c0.053-0.601-0.369-1.205-0.783-1.653
			c-0.417-0.448-1.216-0.696-1.828-0.696c-0.825,0-1.614-0.334-2.207-0.928c-0.34-0.338-0.612-0.791-0.768-1.297
			c-0.309-1.015-0.021-2.138,0.728-2.937c0.58-0.617,0.746-1.519,0.412-2.312c-0.33-0.789-1.073-1.295-1.917-1.321
			c-1.091-0.05-2.062-0.627-2.586-1.561c-0.253-0.464-0.377-0.968-0.377-1.469c0-0.947,0.387-1.782,1.107-2.371
			c0.49-0.412,0.775-1.023,0.775-1.669c-0.005-0.643-0.295-1.248-0.789-1.669c-0.696-0.566-1.089-1.437-1.089-2.365
			c-0.005-0.52,0.119-1.01,0.372-1.463c0.52-0.938,1.495-1.54,2.586-1.577c0.849-0.026,1.603-0.551,1.927-1.329
			c0.324-0.789,0.153-1.685-0.432-2.31c-0.738-0.791-1.015-1.914-0.717-2.945c0.135-0.496,0.411-0.949,0.788-1.316
			c0.562-0.562,1.313-0.886,2.376-0.886c0.021,0,0.056,0,0.071,0c0.625,0.042,1.247-0.18,1.711-0.628
			c0.443-0.458,0.675-1.078,0.609-1.711c-0.084-0.907,0.245-1.793,0.886-2.437c0.356-0.366,0.799-0.63,1.324-0.783
			c1.015-0.311,2.144-0.031,2.921,0.72c0.604,0.572,1.511,0.762,2.305,0.432c0.796-0.335,1.313-1.075,1.339-1.922
			c0.045-1.086,0.643-2.086,1.595-2.605c1.192-0.664,2.887-0.371,3.81,0.736c0.412,0.514,1.015,0.788,1.674,0.788l0,0
			c0.644-0.005,1.252-0.298,1.68-0.788c0.901-1.107,2.613-1.411,3.815-0.726c0.949,0.525,1.55,1.508,1.582,2.589
			c0.021,0.841,0.554,1.608,1.329,1.927c0.774,0.33,1.682,0.156,2.304-0.422c0.786-0.741,1.957-1.015,2.953-0.73
			c0.485,0.138,0.939,0.412,1.303,0.783c0.644,0.654,0.986,1.54,0.886,2.447c-0.062,0.604,0.391,1.21,0.791,1.658
			c0.412,0.454,1.234,0.696,1.856,0.696c0.802,0,1.571,0.33,2.142,0.901c0.358,0.351,0.622,0.794,0.78,1.292
			c0.306,1.042,0.042,2.149-0.728,2.959c-0.57,0.604-0.738,1.511-0.401,2.304c0.322,0.789,1.065,1.302,1.909,1.329
			c1.076,0.037,2.067,0.639,2.584,1.588c0.253,0.453,0.374,0.946,0.364,1.463c0,0.918-0.401,1.783-1.098,2.365
			c-0.506,0.411-0.785,1.016-0.785,1.685c0,0.643,0.295,1.242,0.785,1.669c0.696,0.562,1.098,1.426,1.107,2.344
			c0,0.496-0.132,1.015-0.385,1.463c-0.512,0.934-1.497,1.529-2.589,1.572c-0.844,0.026-1.598,0.551-1.92,1.329
			c-0.327,0.783-0.152,1.686,0.411,2.305c0.755,0.789,1.019,1.912,0.733,2.932c-0.147,0.525-0.411,0.968-0.786,1.324
			c-0.563,0.567-1.328,0.896-2.404,0.896c-0.021,0-0.042,0-0.063,0c-0.664-0.042-1.266,0.185-1.703,0.633
			c-0.47,0.453-0.675,1.084-0.622,1.717c0.105,0.896-0.232,1.793-0.886,2.441c-0.349,0.361-0.791,0.619-1.309,0.777
			c-1.012,0.301-2.141,0.016-2.942-0.73c-0.611-0.572-1.497-0.741-2.31-0.422c-0.786,0.33-1.297,1.076-1.329,1.922
			c-0.031,1.081-0.633,2.085-1.582,2.586c-1.065,0.601-2.384,0.412-3.341-0.335c-0.284-0.857-1.057-1.479-2.024-1.479
			c-0.815,0-1.527,0.493-1.907,1.184C107.42,104.417,105.877,104.73,104.641,104.026z M108.074,149.881l-6.863-0.021
			c0.973-0.554,1.901-1.16,2.776-1.861c1.625-1.308,2.943-2.863,4.092-4.546v6.429H108.074z M57.483,121.742
			c-1.034-0.601-2.368-0.221-2.945,0.817c-0.108,0.175-0.161,0.343-0.211,0.544c-0.274-0.918-0.192-1.931,0.309-2.827
			c0.448-0.802,1.281-1.244,2.138-1.244c0.411,0,0.828,0.11,1.226,0.332c0.345,0.195,0.599,0.522,0.712,0.917
			c0.113,0.386,0.071,0.808-0.14,1.182c-0.124,0.232-0.335,0.332-0.475,0.369C57.974,121.837,57.741,121.863,57.483,121.742z
			 M58.53,136.47c1.635-2.072,3.207-4.266,4.801-6.496c1.016-1.43,2.012-2.811,3.032-4.161c0.056-0.068,0.108-0.11,0.143-0.153
			c0.021-0.036,0.026-0.068,0.048-0.11c5.816-7.783,12.092-14.275,22.826-14.275c0.021,0,0.055,0,0.087,0
			c5.168,0.017,9.848,2.073,13.17,5.796c2.247,2.51,3.673,5.689,4.391,9.112c-0.902-0.675-1.912-1.244-3.096-1.661
			c-4.783-1.629-10.027,0.923-11.684,5.722c-1.379,4.065,0.794,8.506,4.849,9.894c0.707,0.236,1.424,0.337,2.133,0.337
			c2.773,0,5.371-1.725,6.328-4.493c0.566-1.666,0.274-3.385-0.567-4.799c-0.016-0.475-0.113-0.923-0.298-1.36
			c2.149,1.835,2.344,4.698,1.933,7.141c-1.015,2.974-2.813,5.626-5.329,7.641c-3.488,2.812-7.836,4.093-12.329,3.603
			c-3.459-0.38-6.55-2.073-8.72-4.789c-2.17-2.699-3.164-6.085-2.797-9.534c0.593-5.484,5.55-9.397,10.979-8.849
			c1.339,0.18,2.257-0.733,2.381-1.909c0.124-1.197-0.741-2.257-1.912-2.378c-3.807-0.422-7.527,0.67-10.491,3.053
			c-2.977,2.389-4.838,5.796-5.255,9.588c-0.515,4.598,0.804,9.112,3.715,12.709c1.182,1.466,2.603,2.646,4.158,3.654l-35.58-0.111
			C50.219,146.849,54.208,141.908,58.53,136.47z M100.812,135.527c-0.612,0.564-1.487,0.796-2.334,0.527
			c-1.803-0.611-2.776-2.584-2.148-4.398c0.113-0.301,0.309-0.517,0.453-0.775c-0.113,0.924,0.021,1.894,0.562,2.737
			C98.107,134.82,99.396,135.505,100.812,135.527z"/>
		<path d="M2.191,170.02l216.002,0.575l0,0c1.197,0,2.152-0.971,2.162-2.146c0-1.197-0.97-2.156-2.151-2.156L2.202,165.707H2.196
			c-1.194,0-2.149,0.971-2.159,2.157C0.037,169.035,0.991,170.015,2.191,170.02z"/>
	</g>
</g>
<g>
</g>
<g>
</g>
<g>
</g>
<g>
</g>
<g>
</g>
<g>
</g>
<g>
</g>
<g>
</g>
<g>
</g>
<g>
</g>
<g>
</g>
<g>
</g>
<g>
</g>
<g>
</g>
<g>
</g>
</svg>
