<?xml version="1.0" encoding="iso-8859-1"?>
<!-- Generator: Adobe Illustrator 16.0.0, SVG Export Plug-In . SVG Version: 6.00 Build 0)  -->
<!DOCTYPE svg PUBLIC "-//W3C//DTD SVG 1.1//EN" "http://www.w3.org/Graphics/SVG/1.1/DTD/svg11.dtd">
<svg version="1.1" id="Capa_1" xmlns="http://www.w3.org/2000/svg" xmlns:xlink="http://www.w3.org/1999/xlink" x="0px" y="0px"
	 width="223.229px" height="223.229px" viewBox="0 0 223.229 223.229" style="enable-background:new 0 0 223.229 223.229;"
	 xml:space="preserve">
<g>
	<g>
		<path d="M94.87,84.585c0-11.679-9.49-21.175-21.175-21.175c-11.685,0-21.175,9.496-21.175,21.175
			c0,11.673,9.49,21.175,21.175,21.175C85.38,105.76,94.87,96.258,94.87,84.585z M81.714,98.553L77.12,93.95l5.849-5.849l4.631,4.64
			C86.171,95.152,84.159,97.149,81.714,98.553z M73.57,90.415l-5.849-5.849l5.849-5.849l5.849,5.849L73.57,90.415z M89.575,81.479
			c0.195,1.004,0.319,2.04,0.319,3.099c0,1.053-0.125,2.077-0.319,3.075l-3.078-3.087L89.575,81.479z M81.702,70.598
			c2.445,1.404,4.458,3.386,5.885,5.8l-4.634,4.641l-5.849-5.849L81.702,70.598z M73.701,68.396c0.98,0,1.933,0.125,2.856,0.289
			l-2.987,2.972l-2.95-2.953C71.624,68.509,72.647,68.396,73.701,68.396z M65.532,70.687l4.515,4.521l-5.849,5.849l-4.47-4.49
			C61.13,74.12,63.127,72.114,65.532,70.687z M57.802,87.44c-0.155-0.929-0.286-1.885-0.286-2.855c0-0.987,0.131-1.946,0.292-2.88
			l2.862,2.868L57.802,87.44z M65.52,98.465c-2.412-1.428-4.409-3.449-5.812-5.867l4.484-4.497l5.849,5.849L65.52,98.465z
			 M73.57,97.479l2.987,2.986c-0.923,0.171-1.888,0.293-2.868,0.293c-1.06,0-2.088-0.116-3.093-0.311L73.57,97.479z"/>
		<path d="M170.674,84.585c0-11.679-9.487-21.175-21.172-21.175c-11.686,0-21.179,9.496-21.179,21.175
			c0,11.673,9.493,21.175,21.179,21.175C161.187,105.76,170.674,96.258,170.674,84.585z M165.382,81.705
			c0.158,0.928,0.293,1.894,0.293,2.88c0,0.971-0.135,1.927-0.287,2.855l-2.867-2.868L165.382,81.705z M157.655,70.687
			c2.411,1.428,4.402,3.455,5.809,5.866l-4.47,4.485l-5.845-5.849L157.655,70.687z M155.457,84.572l-5.852,5.843l-5.853-5.849
			l5.853-5.849L155.457,84.572z M149.489,68.396c1.054,0,2.076,0.119,3.069,0.313l-2.96,2.954l-2.989-2.978
			C147.571,68.516,148.509,68.396,149.489,68.396z M141.488,70.598l4.579,4.592l-5.846,5.849l-4.622-4.641
			C137.031,73.983,139.04,72.001,141.488,70.598z M133.608,87.66c-0.188-0.999-0.316-2.021-0.316-3.075
			c0-1.06,0.128-2.095,0.316-3.1l3.082,3.087L133.608,87.66z M141.476,98.553c-2.447-1.404-4.457-3.401-5.876-5.812l4.634-4.64
			l5.846,5.849L141.476,98.553z M149.489,100.758c-0.98,0-1.948-0.122-2.868-0.293l2.984-2.986l2.989,2.986
			C151.578,100.648,150.549,100.758,149.489,100.758z M157.667,98.465l-4.524-4.521l5.846-5.849l4.481,4.485
			C162.075,95.016,160.072,97.043,157.667,98.465z"/>
		<path d="M9.883,131.393c2.682,0,5.176-1.054,7.063-2.973c1.69-1.717,2.57-3.921,2.737-6.144
			c10.565-3.696,20.024,0.731,26.683,12.623c0.085,0.134,0.226,0.22,0.329,0.341c0.188,0.475,0.387,0.914,0.587,1.383
			c0.667,1.692,1.364,3.403,2.083,5.108c-5.955-3.593-12.738-4.348-19.878-2.058c-0.487-1.061-1.148-2.053-2.021-2.911
			c-3.766-3.702-10.275-3.666-13.978,0.134c-1.854,1.875-2.85,4.354-2.838,6.99c0.024,2.655,1.072,5.127,2.981,6.984
			c1.857,1.827,4.302,2.832,6.92,2.832c2.688,0,5.176-1.048,7.051-2.96c1.69-1.724,2.582-3.921,2.752-6.149
			c10.562-3.703,20.021,0.73,26.68,12.629c0.143,0.279,0.387,0.438,0.624,0.645c5.301,7.904,12.471,14.443,23.763,17.142
			c2.518,0.614,5.063,0.907,7.55,0.907c6.184,0,12.151-1.839,17.315-5.395c1.945-1.34,3.717-2.898,5.325-4.616
			c1.608,1.718,3.374,3.276,5.325,4.616c5.164,3.556,11.131,5.395,17.317,5.395c2.497,0,5.03-0.293,7.563-0.907
			c11.276-2.698,18.462-9.237,23.747-17.142c0.22-0.182,0.463-0.365,0.628-0.645c6.667-11.898,16.124-16.313,26.688-12.629
			c0.17,2.229,1.06,4.426,2.74,6.149c1.875,1.912,4.365,2.96,7.051,2.96c2.618,0,5.066-1.005,6.924-2.832
			c1.905-1.857,2.953-4.329,2.978-6.984c0.012-2.637-0.98-5.115-2.838-6.99c-3.702-3.77-10.218-3.812-13.975-0.134
			c-0.883,0.858-1.534,1.857-2.021,2.917c-7.148-2.29-13.92-1.529-19.881,2.058c0.706-1.698,1.406-3.416,2.07-5.084
			c0.194-0.476,0.39-0.913,0.597-1.395c0.104-0.128,0.256-0.195,0.335-0.347c6.667-11.898,16.124-16.319,26.688-12.629
			c0.158,2.229,1.06,4.426,2.74,6.137c1.875,1.925,4.384,2.979,7.051,2.979c2.619,0,5.072-1.012,6.924-2.844
			c1.894-1.852,2.953-4.312,2.966-6.954c0.023-2.655-0.975-5.127-2.819-7.015c-3.709-3.77-10.212-3.849-13.981-0.134
			c-0.883,0.858-1.534,1.856-2.021,2.917c-7.666-2.467-14.955-1.48-21.227,2.825c5.876-12.108,10.839-19.169,20.398-20.646
			c0.457,0.916,1.035,1.814,1.79,2.582c1.876,1.909,4.372,2.956,7.058,2.956c2.601,0,5.061-0.999,6.911-2.825
			c3.885-3.815,3.964-10.096,0.134-13.993c-3.72-3.766-10.224-3.814-13.98-0.131c-1.79,1.754-2.789,4.08-2.923,6.567
			c-14.048,2.35-20.009,14.869-26.743,29.404c-1.583,3.422-3.032,7.033-4.5,10.681c-0.049,0.085-0.073,0.151-0.109,0.226
			c-1.023-6.443-4.396-11.808-9.975-15.692c0.676-0.694,1.261-1.485,1.687-2.375c1.742,0.615,3.751,0.658,5.529,0.141
			c1.485-0.408,2.855-1.224,3.939-2.32c1.315-1.31,2.181-2.959,2.515-4.743c1.778-0.348,3.429-1.185,4.75-2.509
			c1.09-1.09,1.894-2.454,2.326-3.946c0.523-1.826,0.438-3.766-0.171-5.522c1.675-0.831,3.1-2.146,4.037-3.812
			c0.737-1.376,1.127-2.862,1.127-4.409c0-1.863-0.555-3.641-1.571-5.124c1.017-1.485,1.571-3.254,1.571-5.1
			c0.006-1.559-0.378-3.051-1.145-4.448c-0.92-1.677-2.351-2.986-4.025-3.79c0.621-1.757,0.694-3.702,0.164-5.535
			c-0.426-1.479-1.229-2.844-2.325-3.937c-1.315-1.315-2.972-2.189-4.75-2.512c-0.341-1.778-1.193-3.429-2.503-4.747
			c-1.114-1.096-2.472-1.9-3.939-2.311c-1.814-0.536-3.781-0.463-5.541,0.144c-0.816-1.684-2.131-3.094-3.787-4.028
			c-2.984-1.653-6.808-1.428-9.555,0.417c-2.752-1.866-6.552-2.082-9.548-0.411c-1.668,0.911-2.983,2.345-3.774,4.022
			c-1.76-0.618-3.702-0.679-5.565-0.144c-1.456,0.436-2.826,1.227-3.91,2.311c-1.314,1.303-2.186,2.968-2.532,4.747
			c-1.754,0.341-3.41,1.196-4.726,2.5c-1.084,1.087-1.891,2.445-2.338,3.961c-0.524,1.833-0.43,3.766,0.161,5.523
			c-1.678,0.816-3.094,2.125-4.016,3.778c-0.755,1.367-1.16,2.85-1.16,4.448c0,1.851,0.563,3.626,1.571,5.124
			c-1.008,1.477-1.571,3.248-1.571,5.105c0,1.534,0.387,3.063,1.147,4.427c0.917,1.684,2.351,2.987,4.028,3.8
			c-0.618,1.75-0.673,3.696-0.149,5.535c0.43,1.485,1.227,2.844,2.326,3.934c1.315,1.309,2.966,2.186,4.726,2.515
			c0.358,1.778,1.218,3.428,2.521,4.725c1.096,1.109,2.473,1.912,3.934,2.326c1.814,0.536,3.794,0.463,5.554-0.134
			c0.815,1.687,2.131,3.094,3.774,4.019c3.009,1.669,6.809,1.438,9.555-0.414c1.504,1.006,3.281,1.571,5.127,1.571
			c0.463,0,0.926-0.115,1.395-0.183c9.657,5.262,12.738,14.906,8.823,27.268c-5.066,9.742-11.904,18.029-24.266,20.971
			c-7.398,1.742-14.839,0.42-20.892-3.763c-1.852-1.278-3.505-2.825-5.009-4.543c3.242-4.743,5.41-10.352,6.196-16.435
			c0.158-1.363-0.786-2.612-2.168-2.782c-1.252-0.231-2.618,0.791-2.78,2.167c-0.618,4.658-2.152,8.976-4.402,12.745
			c-2.25-3.77-3.784-8.087-4.402-12.745c-0.161-1.376-1.541-2.398-2.779-2.167c-1.379,0.17-2.326,1.431-2.165,2.782
			c0.786,6.083,2.969,11.691,6.193,16.435c-1.498,1.699-3.142,3.252-5.008,4.543c-6.053,4.183-13.469,5.505-20.889,3.763
			c-12.346-2.959-19.19-11.223-24.259-20.971c-3.937-12.367-0.843-22.031,8.854-27.279c2.25,0.322,4.6-0.122,6.485-1.377
			c1.489,1.006,3.267,1.571,5.13,1.571c1.559,0,3.045-0.39,4.409-1.15c1.678-0.92,2.987-2.339,3.791-4.025
			c1.741,0.615,3.76,0.658,5.538,0.141c1.477-0.421,2.85-1.224,3.934-2.32c1.321-1.31,2.189-2.959,2.521-4.737
			c1.781-0.354,3.422-1.206,4.75-2.515c1.087-1.09,1.885-2.448,2.314-3.94c0.523-1.833,0.447-3.766-0.149-5.529
			c1.678-0.831,3.1-2.146,4.028-3.806c0.743-1.358,1.148-2.887,1.148-4.421c0-1.857-0.563-3.629-1.571-5.105
			c1.008-1.498,1.571-3.273,1.571-5.124c0-1.599-0.387-3.081-1.148-4.421c-0.91-1.693-2.35-2.99-4.028-3.806
			c0.63-1.757,0.673-3.702,0.149-5.547c-0.429-1.492-1.236-2.85-2.326-3.924c-1.315-1.315-2.962-2.189-4.725-2.512
			c-0.356-1.778-1.218-3.443-2.533-4.747c-1.084-1.084-2.438-1.875-3.934-2.323c-1.802-0.512-3.766-0.445-5.532,0.155
			c-0.81-1.678-2.125-3.082-3.784-4.022c-2.987-1.684-6.808-1.428-9.539,0.411c-2.743-1.851-6.585-2.07-9.56-0.411
			c-1.666,0.911-2.987,2.338-3.778,4.022c-1.738-0.618-3.748-0.667-5.529-0.144c-1.474,0.411-2.838,1.215-3.955,2.311
			c-1.309,1.318-2.177,2.968-2.5,4.747c-1.778,0.341-3.425,1.196-4.759,2.512c-1.09,1.093-1.894,2.457-2.326,3.942
			c-0.523,1.833-0.429,3.767,0.165,5.529c-1.684,0.816-3.093,2.134-4.028,3.806c-0.768,1.382-1.148,2.874-1.142,4.421
			c0,1.851,0.554,3.614,1.571,5.111c-1.017,1.483-1.571,3.261-1.571,5.124c0,1.547,0.386,3.033,1.142,4.439
			c0.929,1.678,2.35,2.98,4.028,3.781c-0.624,1.75-0.688,3.696-0.165,5.535c0.426,1.479,1.23,2.844,2.326,3.934
			c1.321,1.309,2.956,2.186,4.734,2.509c0.353,1.784,1.208,3.434,2.512,4.737c1.102,1.103,2.469,1.918,3.939,2.319
			c1.809,0.536,3.772,0.463,5.544-0.134c0.417,0.89,0.999,1.681,1.69,2.375c-5.581,3.885-8.954,9.231-9.989,15.692
			c-0.024-0.08-0.061-0.152-0.101-0.238c-1.458-3.641-2.911-7.252-4.494-10.668c-6.734-14.541-12.696-27.054-26.743-29.404
			c-0.131-2.481-1.136-4.808-2.92-6.567c-3.766-3.702-10.27-3.653-13.984,0.131c-3.812,3.891-3.748,10.172,0.149,13.993
			c1.863,1.82,4.308,2.819,6.908,2.819c2.688,0,5.182-1.048,7.072-2.957c0.74-0.767,1.328-1.666,1.775-2.582
			c9.536,1.464,14.505,8.537,20.39,20.633c-6.26-4.311-13.554-5.273-21.218-2.813c-0.487-1.06-1.154-2.058-2.021-2.917
			c-3.778-3.72-10.293-3.635-13.972,0.129c-1.854,1.887-2.862,4.371-2.837,7.014c0.024,2.644,1.072,5.109,2.969,6.954
			C4.796,130.381,7.265,131.393,9.883,131.393z M24.038,147.254c-1.833,1.869-5.069,1.895-6.92,0.067
			c-0.932-0.913-1.461-2.161-1.474-3.471c-0.012-1.304,0.487-2.521,1.416-3.465c0.922-0.95,2.183-1.474,3.504-1.474
			c1.291,0,2.494,0.499,3.438,1.419C25.901,142.213,25.931,145.324,24.038,147.254z M199.22,140.318
			c0.926-0.907,2.144-1.412,3.434-1.412c1.328,0,2.57,0.523,3.508,1.474c0.907,0.913,1.425,2.161,1.413,3.464
			c-0.013,1.31-0.536,2.54-1.474,3.465c-1.863,1.827-5.097,1.803-6.911-0.061C197.253,145.324,197.289,142.213,199.22,140.318z
			 M209.888,117.983c0.92-0.907,2.144-1.406,3.422-1.406c1.328,0,2.57,0.523,3.508,1.474c0.907,0.92,1.425,2.168,1.412,3.471
			c-0.012,1.309-0.535,2.533-1.461,3.465c-1.876,1.852-5.091,1.814-6.924-0.073C207.921,123.001,207.957,119.89,209.888,117.983z
			 M208.92,91.694c0.913-0.911,2.149-1.416,3.44-1.416c1.327,0,2.563,0.523,3.501,1.458c1.888,1.939,1.863,5.051-0.079,6.927
			c-1.863,1.845-5.085,1.802-6.924-0.062c-0.907-0.922-1.425-2.183-1.412-3.485C207.477,93.837,207.994,92.61,208.92,91.694z
			 M158.836,113.063c-0.055,1.449-0.87,2.825-2.161,3.52c-1.687,0.956-3.946,0.524-5.213-0.999l-1.936-2.301l-1.931,2.301
			c-1.236,1.511-3.483,1.967-5.212,0.993c-1.279-0.688-2.107-2.058-2.156-3.514l-0.158-5.553l-4.024,3.8
			c-1.066,0.986-2.558,1.406-4.031,0.961c-0.658-0.188-1.261-0.547-1.778-1.071c-0.889-0.877-1.309-2.085-1.188-3.328l-0.121-2.974
			l-2.984,0.273c-1.114,0-2.161-0.429-2.947-1.208c-0.493-0.487-0.87-1.111-1.053-1.778c-0.408-1.416-0.049-2.947,0.962-4.028
			l3.8-4.028l-5.535-0.173c-1.474-0.049-2.835-0.874-3.529-2.144c-0.353-0.643-0.523-1.309-0.523-2.021
			c0-1.236,0.551-2.415,1.501-3.2l2.345-1.912l-2.332-1.939c-0.956-0.792-1.508-1.946-1.508-3.218c0-0.709,0.171-1.403,0.527-2.006
			c0.703-1.291,2.027-2.098,3.525-2.159l5.535-0.161l-3.8-4.028c-1.011-1.081-1.389-2.615-0.98-4.003
			c0.201-0.694,0.572-1.303,1.072-1.802c0.791-0.786,1.942-1.166,3.306-1.185l2.99,0.28l-0.268-2.987
			c-0.122-1.249,0.334-2.469,1.199-3.337c0.505-0.505,1.12-0.865,1.784-1.065c1.406-0.411,2.953-0.031,4.031,0.98l4.03,3.778
			l0.146-5.55c0.049-1.44,0.877-2.808,2.168-3.511c1.692-0.929,3.958-0.511,5.2,0.999l1.924,2.305l1.931-2.305
			c1.242-1.498,3.52-1.934,5.212-0.999c1.291,0.709,2.106,2.07,2.174,3.517l0.152,5.544l4.031-3.778
			c1.077-1.004,2.6-1.397,4.024-0.974c0.658,0.188,1.279,0.554,1.778,1.053c0.877,0.88,1.315,2.089,1.193,3.331l0.378,2.701h2.733
			c1.121,0,2.174,0.429,2.96,1.221c0.499,0.494,0.864,1.118,1.06,1.784c0.401,1.404,0.024,2.941-0.987,4.022l-3.763,4.028
			l5.511,0.167c1.492,0.058,2.813,0.868,3.531,2.152c0.348,0.627,0.512,1.303,0.5,2.013c0,1.242-0.548,2.414-1.492,3.206
			l-2.332,1.939l2.338,1.927c0.938,0.786,1.492,1.942,1.492,3.209c0,0.713-0.164,1.397-0.499,2.004
			c-0.725,1.303-2.046,2.106-3.538,2.155l-5.541,0.164l3.787,4.025c1.011,1.087,1.4,2.621,0.999,4.025
			c-0.207,0.661-0.579,1.291-1.072,1.787c-0.767,0.767-1.79,1.184-3.251,1.184c-0.024,0-0.062,0-0.086,0l-2.983-0.273l0.269,2.986
			c0.121,1.242-0.348,2.469-1.219,3.352c-0.486,0.5-1.09,0.859-1.777,1.048c-1.4,0.408-2.941,0.036-4.013-0.968l-4.037-3.806
			L158.836,113.063z M60.152,111.322c-1.065,1.011-2.57,1.412-4.022,0.962c-0.679-0.183-1.279-0.536-1.79-1.048
			c-0.886-0.889-1.315-2.091-1.197-3.346l-0.387-2.7h-2.731c-1.111,0-2.165-0.417-2.956-1.209c-0.487-0.484-0.865-1.108-1.06-1.769
			c-0.387-1.41-0.024-2.956,0.986-4.028l3.797-4.028l-5.544-0.165c-1.489-0.049-2.81-0.853-3.522-2.125
			c-0.35-0.648-0.518-1.321-0.518-2.034c0-1.251,0.548-2.423,1.498-3.209l2.338-1.921l-2.332-1.945
			c-0.956-0.792-1.504-1.945-1.504-3.224c-0.006-0.691,0.155-1.385,0.505-1.982c0.725-1.297,2.046-2.107,3.535-2.171l5.514-0.161
			l-3.766-4.028c-1.011-1.087-1.391-2.618-0.986-4.021c0.195-0.667,0.572-1.297,1.06-1.791c0.792-0.792,1.86-1.272,3.349-1.203
			l2.986,0.28l-0.274-2.987c-0.125-1.242,0.329-2.463,1.19-3.331c0.5-0.5,1.124-0.865,1.778-1.054
			c1.422-0.398,2.962-0.03,4.028,0.975l4.028,3.772l0.155-5.538c0.061-1.452,0.88-2.807,2.159-3.51
			c1.702-0.935,3.982-0.512,5.225,0.986l1.933,2.311l1.918-2.311c1.248-1.51,3.51-1.939,5.2-0.999
			c1.291,0.715,2.122,2.07,2.158,3.516l0.149,5.544l4.04-3.772c1.081-1.005,2.688-1.379,4.004-0.986
			c0.691,0.207,1.303,0.566,1.808,1.065c0.886,0.886,1.315,2.095,1.203,3.343l0.125,2.987l2.993-0.28
			c1.099,0,2.14,0.417,2.932,1.208c0.499,0.493,0.868,1.118,1.06,1.772c0.398,1.428,0.024,2.962-0.986,4.028l-3.797,4.028
			l5.55,0.174c1.495,0.052,2.819,0.855,3.535,2.165c0.344,0.603,0.5,1.279,0.5,2c0,1.242-0.548,2.414-1.489,3.206l-2.332,1.939
			l2.338,1.927c0.935,0.785,1.483,1.945,1.483,3.197c0,0.712-0.155,1.397-0.512,2.016c-0.691,1.279-2.058,2.101-3.522,2.149
			l-5.55,0.176l3.797,4.028c1.011,1.071,1.391,2.606,0.986,4.016c-0.192,0.673-0.566,1.303-1.054,1.781
			c-0.792,0.795-1.878,1.154-3.343,1.19l-2.993-0.274l0.292,2.987c0.119,1.229-0.329,2.457-1.208,3.321
			c-0.5,0.512-1.096,0.877-1.791,1.06c-1.394,0.401-2.941,0.043-4-0.956l-4.031-3.8l-0.155,5.56
			c-0.049,1.455-0.877,2.813-2.156,3.514c-1.729,0.968-3.967,0.518-5.212-0.992l-1.927-2.303l-1.939,2.303
			c-1.254,1.516-3.504,1.948-5.224,0.992c-1.279-0.7-2.098-2.07-2.146-3.514l-0.143-5.578L60.152,111.322z M14.31,98.626
			c-1.839,1.863-5.063,1.903-6.92,0.067c-1.933-1.9-1.951-5.012-0.07-6.933c0.917-0.935,2.183-1.458,3.504-1.458
			c1.291,0,2.505,0.499,3.431,1.415c0.935,0.911,1.452,2.159,1.464,3.462C15.738,96.443,15.239,97.686,14.31,98.626z M6.385,118.068
			c0.922-0.949,2.17-1.473,3.498-1.473c1.291,0,2.5,0.499,3.422,1.412c1.945,1.9,1.958,5.012,0.088,6.924
			c-1.833,1.894-5.063,1.93-6.926,0.066c-0.95-0.913-1.461-2.149-1.474-3.458C4.957,120.236,5.462,119.007,6.385,118.068z"/>
	</g>
</g>
<g>
</g>
<g>
</g>
<g>
</g>
<g>
</g>
<g>
</g>
<g>
</g>
<g>
</g>
<g>
</g>
<g>
</g>
<g>
</g>
<g>
</g>
<g>
</g>
<g>
</g>
<g>
</g>
<g>
</g>
</svg>
