<?xml version="1.0" encoding="iso-8859-1"?>
<!-- Generator: Adobe Illustrator 16.0.0, SVG Export Plug-In . SVG Version: 6.00 Build 0)  -->
<!DOCTYPE svg PUBLIC "-//W3C//DTD SVG 1.1//EN" "http://www.w3.org/Graphics/SVG/1.1/DTD/svg11.dtd">
<svg version="1.1" id="Capa_1" xmlns="http://www.w3.org/2000/svg" xmlns:xlink="http://www.w3.org/1999/xlink" x="0px" y="0px"
	 width="223.52px" height="223.521px" viewBox="0 0 223.52 223.521" style="enable-background:new 0 0 223.52 223.521;"
	 xml:space="preserve">
<g>
	<g>
		<path d="M163.497,53.329c1.638-2.195,2.509-4.875,2.466-7.676c-0.061-2.125-0.639-4.128-1.692-5.949
			c-1.479-2.566-3.843-4.481-6.589-5.45c1.121-2.667,1.304-5.703,0.414-8.54c-0.651-2.015-1.729-3.781-3.264-5.251
			c-2.01-1.921-4.579-3.084-7.319-3.355c-0.401-2.713-1.692-5.23-3.732-7.164c-1.492-1.434-3.355-2.481-5.389-3.023
			c-2.85-0.761-5.919-0.429-8.501,0.816c-1.107-2.68-3.105-4.951-5.735-6.33C122.376,0.478,120.428,0,118.138,0
			c-0.012,0-0.012,0-0.024,0c-2.788,0.073-5.452,1.071-7.554,2.804c-2.134-1.571-4.776-2.438-7.663-2.438h-0.012
			c-2.083,0.046-4.141,0.618-5.955,1.672c-2.558,1.504-4.46,3.866-5.432,6.604c-2.655-1.127-5.761-1.291-8.537-0.417
			c-2.006,0.63-3.833,1.756-5.261,3.267c-1.939,2.021-3.093,4.591-3.361,7.319c-2.731,0.39-5.225,1.677-7.17,3.724
			c-1.428,1.504-2.469,3.361-2.993,5.383c-0.755,2.868-0.426,5.891,0.828,8.516c-2.694,1.09-4.969,3.105-6.348,5.735
			c-0.972,1.854-1.446,3.937-1.416,6.025c0.064,2.792,1.06,5.435,2.789,7.557c-1.623,2.201-2.494,4.887-2.451,7.688
			c0.061,2.113,0.636,4.116,1.69,5.949c1.495,2.563,3.873,4.47,6.604,5.438c-1.136,2.68-1.315,5.718-0.411,8.543
			c0.633,1.982,1.739,3.797,3.261,5.262c2.019,1.915,4.576,3.081,7.326,3.349c0.386,2.719,1.689,5.237,3.711,7.158
			c1.52,1.452,3.398,2.499,5.386,3.017c2.868,0.755,5.925,0.438,8.519-0.81c1.108,2.686,3.105,4.95,5.711,6.309
			c1.751,0.932,3.767,1.428,5.767,1.428h0.286c2.789-0.067,5.438-1.065,7.562-2.804c2.135,1.571,4.765,2.445,7.663,2.445
			c0.019,0,0.019,0,0.031,0c2.118-0.052,4.122-0.618,5.937-1.684c1.474-0.855,2.648-2.046,3.629-3.38
			c0.768,8.011,3.77,16.703,7.977,27.889c1.633,4.323,3.532,8.701,5.469,13.109c0.328,0.756,0.657,1.523,0.998,2.277
			c-5.821-4.743-12.58-6.887-19.887-6.405c0.657-1.145,1.254-2.362,1.602-3.775c1.084-4.312,0-8.841-3.173-13.444
			c-3.538-5.176-8.02-7.575-14.06-7.575c-4.826,0-10.875,1.517-20.201,5.085c-7.417,2.831-14.16,3.202-25.005,1.686
			c-0.88-0.133-1.802,0.244-2.351,0.975c-0.548,0.73-0.648,1.705-0.268,2.533c0.743,1.607,18.499,39.396,42.112,39.396
			c4.546,0,9.009-1.424,13.256-4.189c2.253-1.455,4.811-5.199,5.091-9.261c0.128-2.101-0.384-4.019-1.352-5.742
			c12.531-3.009,23.248,2.825,30.519,16.739c4.189,12.902,5.444,26.104-2.691,39.609c-4.92,8.172-12.616,13.621-21.671,15.357
			c-10.145,1.942-21.163-0.853-30.208-7.691c-1.111-0.84-2.67-0.627-3.504,0.481c-0.831,1.103-0.624,2.661,0.487,3.507
			c8.035,6.084,17.5,9.305,26.789,9.305c2.466,0,4.957-0.219,7.38-0.682c10.449-2.016,19.327-8.294,24.99-17.684
			c8.701-14.431,7.721-28.533,3.732-41.844c0.073-0.476,0.037-0.957-0.183-1.426c-0.158-0.328-0.371-0.596-0.523-0.913
			c-2.07-6.314-4.762-12.434-7.331-18.315c-0.22-0.512-0.438-1.023-0.658-1.535c0.013-0.268,0.013-0.535-0.073-0.804
			c-4.883-16.721-0.316-29.276,12.879-35.366c1.254-0.576,1.803-2.058,1.229-3.306c-0.584-1.255-2.082-1.797-3.312-1.221
			c-10.448,4.813-16.312,13.284-17.402,24.091c-3.282-9.029-5.596-16.416-5.937-22.962c-0.013-0.122-0.079-0.213-0.092-0.326
			c1.888,0.298,3.849,0.213,5.688-0.362c2.046-0.642,3.812-1.745,5.249-3.267c1.948-2.012,3.105-4.588,3.373-7.319
			c2.74-0.387,5.225-1.677,7.173-3.711c1.425-1.522,2.466-3.386,2.99-5.38c0.755-2.868,0.426-5.9-0.828-8.524
			c2.697-1.096,4.969-3.118,6.369-5.748c0.943-1.86,1.425-3.943,1.388-6.031C166.224,58.087,165.238,55.441,163.497,53.329z
			 M113.992,157.021c-3.449,2.241-6.981,3.374-10.546,3.374c-16.267,0-30.336-22.896-35.485-32.413
			c9.122,0.871,15.731,0.165,22.771-2.508c8.729-3.344,14.236-4.774,18.426-4.774c4.372,0,7.344,1.62,9.956,5.413
			c2.32,3.367,3.142,6.533,2.46,9.408c-0.657,2.654-2.46,4.64-3.97,5.912c-13.241,7.045-21.209-0.152-21.583-0.493
			c-0.986-0.95-2.545-0.919-3.504,0.062c-0.962,0.986-0.935,2.569,0.061,3.513c0.295,0.292,5.325,5.036,13.862,5.036
			c2.683,0,5.699-0.512,9.003-1.711c0.95,1.09,1.51,2.301,1.406,3.757C116.634,154.226,114.856,156.461,113.992,157.021z
			 M160.476,64.591c-1.205,2.308-3.568,3.821-6.174,3.967l-5.518,0.299l3.861,3.939c1.875,1.903,2.563,4.552,1.912,7.115
			c-0.317,1.184-0.938,2.302-1.803,3.212c-1.425,1.477-3.544,2.168-5.882,2.274l-2.984-0.204l0.341,2.983
			c0.256,2.205-0.462,4.372-2.009,5.979c-0.853,0.914-1.9,1.568-3.13,1.949c-2.436,0.752-5.236,0.162-7.143-1.574l-4.116-3.702
			l-0.049,5.544c-0.013,2.612-1.431,5.042-3.678,6.357c-1.084,0.639-2.266,0.968-3.757,0.999c-2.132,0-4.165-0.922-5.565-2.542
			l-1.974-2.259l-1.863,2.35c-1.385,1.735-3.437,2.764-5.638,2.819l-0.167,2.494v-2.494c-1.203,0-2.362-0.28-3.435-0.856
			c-2.301-1.196-3.812-3.553-3.961-6.159l-0.292-5.556l-3.949,3.909c-1.87,1.833-4.564,2.563-7.112,1.902
			c-1.178-0.311-2.302-0.929-3.218-1.802c-1.595-1.528-2.438-3.671-2.277-5.891l0.195-2.987l-2.974,0.35
			c-2.214,0.24-4.384-0.481-5.968-1.979c-0.91-0.871-1.595-1.958-1.958-3.148c-0.779-2.469-0.167-5.225,1.571-7.17l3.706-4.135
			l-5.544-0.024c-2.643-0.018-5.033-1.391-6.36-3.666c-0.648-1.099-0.974-2.29-1.011-3.55c-0.049-2.213,0.892-4.32,2.545-5.772
			l2.262-1.963l-2.362-1.873c-1.727-1.376-2.762-3.428-2.813-5.636c-0.024-1.267,0.256-2.481,0.855-3.592
			c1.19-2.308,3.553-3.821,6.159-3.964l5.544-0.286l-3.885-3.955c-1.827-1.87-2.557-4.583-1.915-7.091
			c0.344-1.221,0.938-2.311,1.791-3.227c1.428-1.48,3.169-2.241,5.894-2.277l2.993,0.213l-0.356-2.993
			c-0.256-2.201,0.46-4.378,1.994-5.979c0.855-0.898,1.927-1.564,3.142-1.945c2.463-0.761,5.24-0.158,7.146,1.565l4.104,3.696
			l0.061-5.528c0.028-2.606,1.434-5.058,3.675-6.366c1.102-0.637,2.281-0.969,3.766-0.999c2.131,0,4.165,0.929,5.581,2.552
			l1.981,2.256l1.852-2.356c1.37-1.735,3.422-2.762,5.784-2.825c1.2,0,2.375,0.286,3.447,0.849c2.313,1.208,3.823,3.571,3.97,6.171
			l0.292,5.544l3.946-3.897c1.857-1.833,4.604-2.563,7.094-1.909c1.199,0.326,2.338,0.95,3.239,1.809
			c1.596,1.534,2.43,3.678,2.277,5.885l-0.207,2.987l2.996-0.347c2.223-0.256,4.372,0.478,5.955,1.982
			c0.92,0.886,1.596,1.939,1.955,3.136c0.779,2.524,0.194,5.212-1.571,7.17l-3.715,4.128l5.554,0.037
			c2.618,0.018,5.048,1.428,6.363,3.681c0.646,1.09,0.968,2.28,0.998,3.529c0.062,2.226-0.883,4.333-2.533,5.779l-2.277,1.973
			l2.375,1.869c1.729,1.364,2.753,3.416,2.813,5.624C161.341,62.259,161.061,63.479,160.476,64.591z"/>
		<path d="M114.156,24.192C97.459,22.95,82.943,35.628,81.689,52.077c-1.251,16.636,11.268,31.195,27.903,32.458
			c0.779,0.058,1.547,0.088,2.326,0.088c15.713,0,28.951-12.282,30.138-27.958c0.621-8.062-1.948-15.88-7.209-22.012
			C129.568,28.513,122.23,24.811,114.156,24.192z M134.866,44.134l-9.013,7.73l-9.578-11.161l8.951-7.676
			c2.144,1.34,4.141,2.905,5.84,4.872C132.679,39.786,133.878,41.918,134.866,44.134z M137.076,56.279
			c-0.171,2.393-0.804,4.634-1.613,6.783l-6.357-7.408l7.41-6.366C136.984,51.572,137.252,53.904,137.076,56.279z M122.066,55.119
			l-11.177,9.59l-9.597-11.162l11.18-9.59L122.066,55.119z M113.785,29.167c2.271,0.17,4.433,0.743,6.527,1.486l-7.295,6.266
			l-6.247-7.277c1.644-0.35,3.334-0.548,5.063-0.548C112.482,29.094,113.121,29.118,113.785,29.167z M101.649,31.344l7.575,8.823
			l-11.18,9.591l-7.487-8.729C93.225,36.788,97.061,33.408,101.649,31.344z M86.661,52.452c0.18-2.296,0.755-4.46,1.507-6.543
			l6.104,7.103l-7.127,6.104C86.733,56.958,86.49,54.744,86.661,52.452z M88.767,64.311l8.729-7.508l9.597,11.161l-8.817,7.569
			C94.068,72.808,90.762,68.923,88.767,64.311z M109.955,79.561c-2.411-0.18-4.664-0.81-6.82-1.607l7.218-6.205l6.263,7.301
			C114.466,79.476,112.25,79.722,109.955,79.561z M121.81,77.424l-7.672-8.93l11.167-9.591l7.722,8.991
			C130.317,72.111,126.432,75.414,121.81,77.424z"/>
	</g>
</g>
<g>
</g>
<g>
</g>
<g>
</g>
<g>
</g>
<g>
</g>
<g>
</g>
<g>
</g>
<g>
</g>
<g>
</g>
<g>
</g>
<g>
</g>
<g>
</g>
<g>
</g>
<g>
</g>
<g>
</g>
</svg>
