<?xml version="1.0" encoding="iso-8859-1"?>
<!-- Generator: Adobe Illustrator 16.0.0, SVG Export Plug-In . SVG Version: 6.00 Build 0)  -->
<!DOCTYPE svg PUBLIC "-//W3C//DTD SVG 1.1//EN" "http://www.w3.org/Graphics/SVG/1.1/DTD/svg11.dtd">
<svg version="1.1" id="Capa_1" xmlns="http://www.w3.org/2000/svg" xmlns:xlink="http://www.w3.org/1999/xlink" x="0px" y="0px"
	 width="239.557px" height="239.557px" viewBox="0 0 239.557 239.557" style="enable-background:new 0 0 239.557 239.557;"
	 xml:space="preserve">
<g>
	<g>
		<path d="M134.578,100.108c0-8.218-6.687-14.914-14.913-14.914c-2.097,0-4.082,0.44-5.891,1.227
			c-0.335,0.095-0.654,0.242-0.92,0.501c-2.742,1.426-4.957,3.644-6.386,6.394c-0.011,0.011-0.029,0.021-0.045,0.032
			c-0.335,0.335-0.496,0.762-0.562,1.194c-0.701,1.716-1.107,3.602-1.107,5.566c0,1.983,0.401,3.884,1.113,5.611
			c0.077,0.411,0.232,0.82,0.562,1.149c0.005,0.016,0.024,0.016,0.035,0.029c1.453,2.811,3.741,5.076,6.565,6.5
			c0.216,0.168,0.442,0.309,0.686,0.379c1.83,0.789,3.833,1.248,5.956,1.248C127.881,115.03,134.578,108.333,134.578,100.108z
			 M125.212,91.123c1.361,0.844,2.516,1.972,3.375,3.322l-2.604,2.587l-3.349-3.344L125.212,91.123z M122.921,100.098l-3.344,3.343
			l-3.34-3.343l3.34-3.338L122.921,100.098z M119.665,89.519c0.324,0,0.633,0.071,0.943,0.098l-1.025,1.031l-1.015-1.015
			C118.937,89.596,119.288,89.519,119.665,89.519z M114.012,91.188l2.51,2.515l-3.343,3.344l-2.494-2.494
			C111.533,93.198,112.662,92.048,114.012,91.188z M109.168,101.066c-0.034-0.325-0.098-0.628-0.098-0.958
			c0-0.334,0.068-0.635,0.098-0.973l0.96,0.963L109.168,101.066z M114.001,109.023c-1.345-0.856-2.473-2.006-3.312-3.356l2.5-2.513
			l3.343,3.344L114.001,109.023z M119.665,110.698c-0.383,0-0.747-0.074-1.118-0.113l1.03-1.021l1.042,1.036
			C120.308,110.634,119.989,110.698,119.665,110.698z M125.223,109.083l-2.584-2.586l3.349-3.344l2.61,2.61
			C127.733,107.12,126.589,108.248,125.223,109.083z M129.041,100.098l1.107-1.107c0.042,0.361,0.116,0.735,0.116,1.118
			c0,0.377-0.074,0.741-0.116,1.107L129.041,100.098z"/>
		<path d="M174.002,141.521h63.35c1.197,0,2.157-0.971,2.157-2.162c0-1.182-0.971-2.157-2.157-2.157h-62.152
			c0.723-3.707,0.765-7.535,0.153-11.364c2.668-0.422,6.296-1.751,6.602-7.567c0.032-0.611-0.031-1.21-0.115-1.854
			c-0.19-1.479-0.38-3.014,1.767-6.41c0.422-0.664,0.321-1.505-0.059-2.196c-0.385-0.69-1.233-1.123-2.024-1.123
			c-0.823,0-3.133,0.124-5.569,1.424c-0.189-0.398-0.38-0.77-0.559-1.107c-0.707-1.326-1.055-1.991-0.675-3.341
			c0.211-0.772-0.011-1.593-0.586-2.138c-0.574-0.562-1.413-0.747-2.167-0.493c-0.232,0.077-2.342,0.789-4.155,2.586
			c-1.619,1.606-2.511,3.57-2.627,5.74c-2.562-0.469-5.479,0.206-5.689,0.288c-0.718,0.248-1.25,0.854-1.408,1.598
			c-0.158,0.751,0.09,1.513,0.644,2.03c2.958,2.726,3.164,4.255,3.354,5.734c0.095,0.644,0.18,1.237,0.364,1.819
			c1.229,3.781,3.602,5.717,7.082,5.717l0,0c0.512,0,0.997-0.105,1.487-0.153c1.16,7.114-0.306,14.297-4.335,20.351
			c-4.219,6.317-10.642,10.62-18.088,12.092c-5.4,1.075-10.842,0.079-15.535-2.663c0.732,0.095,1.46,0.152,2.204,0.152
			c1.191,0,2.384-0.11,3.575-0.342c5.643-1.129,10.51-4.33,13.727-8.997c1.973-2.868,3.074-6.085,3.465-9.407
			c1.481-0.738,4.377-2.531,4.926-5.695c0.464-2.669-0.896-5.379-4.304-8.29c-1.197-1.018-3.201-2.697-4.098-5.253
			c-0.29-0.819-1.049-1.392-1.925-1.447c-0.896,0-1.688,0.443-2.066,1.236c-0.518,1.092-4.947,10.906-1.472,16.422
			c0.749,1.191,2.157,2.531,4.614,3.116c-0.38,2.41-1.239,4.746-2.689,6.861c-2.573,3.728-6.476,6.296-11.011,7.203
			c-3.491,0.707-7.062,0.032-10.015-1.894c-2.104-1.35-3.686-3.242-4.688-5.432c-0.356-1.018-0.723-2.024-0.939-3.084
			c0-0.011-0.01-0.021-0.01-0.048c-0.826-5.221,2.742-10.257,8.152-11.354c2.035-0.411,4.113-0.021,5.838,1.097
			c1.703,1.097,2.858,2.789,3.243,4.735c0.601,3.011-1.456,5.964-4.583,6.597c-1.171,0.243-1.925,1.382-1.682,2.559
			c0.231,1.17,1.387,1.908,2.541,1.688c5.464-1.098,9.028-6.339,7.974-11.676c-0.622-3.101-2.446-5.779-5.136-7.52
			c-2.663-1.74-5.886-2.348-9.028-1.709c-3.122,0.622-5.78,2.204-7.8,4.346v-4.008c0.425,0.084,0.842,0.168,1.284,0.168
			c1.168,0,2.265-0.295,3.246-0.833c1.102-0.601,1.993-1.508,2.595-2.584c1.181,0.338,2.479,0.338,3.681-0.011
			c1.097-0.318,2.104-0.915,2.879-1.708c0.886-0.873,1.498-1.97,1.782-3.164c1.197-0.285,2.289-0.886,3.175-1.77
			c0.791-0.796,1.387-1.793,1.693-2.879c0.358-1.227,0.343-2.495,0.01-3.694c1.076-0.593,1.983-1.49,2.601-2.603
			c0.543-1.005,0.822-2.112,0.822-3.251c-0.011-1.242-0.348-2.447-0.991-3.488c0.638-1.031,0.98-2.241,0.98-3.488
			c0.011-1.15-0.269-2.247-0.833-3.262c-0.606-1.097-1.508-1.988-2.584-2.587c0.338-1.181,0.338-2.457-0.016-3.704
			c-0.322-1.073-0.907-2.078-1.693-2.856c-0.886-0.886-1.978-1.49-3.174-1.783c-0.29-1.199-0.896-2.288-1.783-3.174
			c-0.801-0.793-1.803-1.395-2.879-1.69c-1.202-0.335-2.5-0.34-3.681-0.011c-0.591-1.07-1.482-1.972-2.584-2.587
			c-2.109-1.173-4.746-1.075-6.75,0.14c-1.983-1.21-4.644-1.302-6.74-0.14c-1.107,0.604-1.999,1.511-2.597,2.587
			c-1.173-0.33-2.489-0.335-3.667,0.011c-1.083,0.306-2.083,0.891-2.893,1.695c-0.891,0.886-1.493,1.975-1.783,3.175
			c-1.194,0.287-2.291,0.896-3.182,1.782c-0.789,0.794-1.376,1.793-1.685,2.866c-0.356,1.236-0.351,2.5-0.016,3.694
			c-1.068,0.588-1.975,1.485-2.592,2.592c-0.557,1.015-0.831,2.122-0.825,3.24c0,1.247,0.345,2.457,0.988,3.488
			c-0.638,1.031-0.988,2.252-0.988,3.499c0,1.128,0.279,2.215,0.835,3.256c0.612,1.102,1.519,1.994,2.586,2.586
			c-0.334,1.189-0.34,2.458,0.006,3.679c0.313,1.083,0.896,2.083,1.69,2.871c0.891,0.886,1.983,1.498,3.177,1.782
			c0.285,1.2,0.896,2.297,1.774,3.164c0.796,0.799,1.793,1.405,2.89,1.706c1.2,0.34,2.495,0.34,3.679,0.011
			c0.598,1.067,1.484,1.975,2.581,2.587c1.382,0.78,3.072,0.959,4.648,0.622v4.155c-2.025-2.178-4.72-3.797-7.873-4.425
			c-3.153-0.611-6.36-0.026-9.033,1.704c-2.689,1.729-4.509,4.408-5.131,7.535c-1.062,5.321,2.513,10.568,7.976,11.66
			c1.155,0.221,2.307-0.527,2.544-1.678c0.232-1.176-0.525-2.314-1.685-2.547c-3.127-0.633-5.184-3.586-4.59-6.607
			c0.388-1.936,1.545-3.639,3.251-4.735c1.711-1.118,3.792-1.493,5.838-1.097c5.411,1.086,8.98,6.133,8.153,11.363
			c0,0.011-0.011,0.027-0.011,0.037c-0.222,1.103-0.599,2.142-0.973,3.164c-2.474,5.332-8.482,8.496-14.692,7.246
			c-4.519-0.907-8.435-3.465-11.005-7.203c-1.442-2.104-2.304-4.43-2.684-6.861c2.452-0.585,3.868-1.925,4.611-3.122
			c3.468-5.511-0.965-15.309-1.484-16.421c-0.366-0.789-1.176-1.192-2.062-1.237c-0.876,0.05-1.638,0.612-1.922,1.453
			c-0.902,2.561-2.9,4.24-4.375,5.484c-3.138,2.669-4.493,5.379-4.029,8.048c0.551,3.164,3.444,4.967,4.925,5.695
			c0.388,3.322,1.49,6.549,3.459,9.407c3.214,4.683,8.084,7.879,13.721,8.997c1.195,0.242,2.376,0.353,3.555,0.353
			c0.778,0,1.529-0.11,2.278-0.2c-4.557,2.668-10.017,3.818-15.589,2.711c-7.448-1.482-13.863-5.774-18.085-12.103
			c-4.029-6.033-5.503-13.216-4.332-20.34c0.498,0.068,0.978,0.143,1.492,0.143c3.483,0,5.859-1.915,7.085-5.722
			c0.177-0.562,0.274-1.16,0.356-1.804c0.201-1.474,0.403-3.014,3.359-5.735c0.562-0.517,0.805-1.279,0.651-2.03
			c-0.15-0.744-0.69-1.35-1.408-1.598c-0.206-0.076-3.117-0.767-5.688-0.284c-0.119-2.173-1.015-4.153-2.629-5.743
			c-1.814-1.793-3.926-2.521-4.158-2.584c-0.757-0.245-1.588-0.066-2.165,0.49c-0.572,0.557-0.799,1.377-0.583,2.144
			c0.377,1.351,0.026,2.015-0.675,3.344c-0.185,0.335-0.38,0.707-0.562,1.1c-2.463-1.29-4.822-1.408-5.972-1.419
			c-0.757,0.059-1.432,0.507-1.777,1.182c-0.335,0.68-0.304,1.487,0.108,2.138c2.144,3.399,1.949,4.925,1.758,6.41
			c-0.079,0.644-0.14,1.237-0.113,1.854c0.293,5.822,3.926,7.151,6.6,7.573c-0.598,3.817-0.562,7.657,0.156,11.358H2.162
			c-1.2,0-2.162,0.981-2.162,2.162c0,1.192,0.968,2.162,2.162,2.162h63.152c0.907,2.632,2.133,5.189,3.72,7.578
			c0.146,0.222,0.34,0.385,0.501,0.596H2.162c-1.2,0-2.162,0.986-2.162,2.162c0,1.182,0.968,2.152,2.162,2.152h70.577
			c0.108,0,0.189-0.043,0.29-0.063c4.548,4.614,10.352,7.768,16.838,9.07c1.756,0.348,3.499,0.517,5.234,0.517
			c9.167,0,17.629-4.799,22.457-12.382v11.991c0,1.192,0.968,2.152,2.154,2.152c1.189,0,2.162-0.981,2.162-2.152v-11.886
			c4.836,7.535,13.242,12.276,22.386,12.276c1.725,0,3.48-0.158,5.221-0.517c6.508-1.298,12.329-4.472,16.875-9.103
			c0.153,0.032,0.306,0.096,0.464,0.096h70.575c1.196,0,2.162-0.971,2.162-2.157c0-1.182-0.976-2.157-2.162-2.157H169.82
			c0.143-0.211,0.343-0.374,0.501-0.596C171.866,146.72,173.085,144.173,174.002,141.521z M169.53,122.207
			c-1.06,0-2.162-0.205-2.975-2.71c-0.105-0.338-0.137-0.699-0.189-1.071c-0.2-1.479-0.506-2.979-1.604-4.73
			c0.676,0.168,1.329,0.432,1.936,0.788c0.775,0.443,1.751,0.366,2.447-0.19c0.696-0.562,0.97-1.5,0.69-2.365
			c-0.78-2.365-0.158-3.963,0.771-5.036c0.264,0.785,0.627,1.479,0.97,2.12c0.496,0.947,0.929,1.75,1.076,2.874
			c0.116,0.799,0.675,1.474,1.444,1.743c0.771,0.271,1.625,0.077,2.205-0.501c0.511-0.498,1.044-0.875,1.582-1.173
			c-0.612,1.972-0.527,3.496-0.338,4.98c0.053,0.377,0.116,0.738,0.095,1.084c-0.158,3.164-1.477,3.43-4.203,3.693l-1.872,0.251
			C170.928,122.085,170.227,122.207,169.53,122.207z M150.73,132.234c-1.118-1.771-0.67-5.168,0.227-8.21
			c1.118,1.339,2.31,2.356,3.164,3.059c1.835,1.561,2.742,3.006,2.573,4.018c-0.073,0.433-0.358,0.823-0.717,1.213
			c-0.053-0.39-0.037-0.791-0.11-1.202c-0.228-1.171-1.361-1.909-2.537-1.688c-1.181,0.243-1.93,1.371-1.698,2.542
			c0.074,0.391,0.063,0.791,0.116,1.187C151.137,132.798,150.852,132.418,150.73,132.234z M85.952,129.413
			c-1.181-0.221-2.305,0.527-2.537,1.698c-0.087,0.38-0.061,0.791-0.113,1.197c-0.346-0.374-0.644-0.775-0.72-1.208
			c-0.177-1.022,0.735-2.457,2.837-4.239c0.707-0.591,1.814-1.535,2.897-2.837c0.844,2.879,1.411,6.338,0.232,8.21
			c-0.119,0.185-0.403,0.564-1.015,0.896c0.05-0.39,0.04-0.785,0.113-1.176C87.892,130.784,87.125,129.656,85.952,129.413z
			 M65.849,121.729c-2.724-0.264-4.04-0.527-4.198-3.694c-0.016-0.351,0.04-0.712,0.087-1.084c0.19-1.474,0.288-3.014-0.329-4.978
			c0.53,0.295,1.07,0.675,1.577,1.17c0.578,0.562,1.437,0.768,2.209,0.499c0.772-0.267,1.329-0.941,1.437-1.746
			c0.156-1.123,0.583-1.933,1.083-2.874c0.335-0.619,0.691-1.305,0.957-2.093c1.197,1.329,1.453,2.969,0.783,5.01
			c-0.287,0.849-0.005,1.788,0.691,2.36c0.696,0.562,1.674,0.633,2.447,0.189c0.604-0.345,1.253-0.608,1.928-0.788
			c-1.097,1.751-1.405,3.256-1.606,4.73c-0.047,0.377-0.084,0.741-0.192,1.07c-0.799,2.505-1.906,2.711-2.966,2.711
			c-0.701,0-1.403-0.114-2.041-0.232L65.849,121.729z M121.278,120.991c-0.408-0.493-1.016-0.783-1.661-0.783
			c-0.648,0-1.25,0.29-1.669,0.783c-0.73,0.875-2.009,1.128-2.998,0.562c-0.728-0.401-1.2-1.179-1.226-2.025
			c-0.032-0.849-0.556-1.608-1.339-1.922c-0.789-0.335-1.69-0.158-2.315,0.43c-0.606,0.575-1.479,0.791-2.291,0.564
			c-0.393-0.116-0.733-0.325-1.015-0.602c-0.506-0.501-0.759-1.202-0.691-1.912c0.056-0.598-0.361-1.192-0.778-1.645
			c-0.831-0.91-2.602-0.509-3.488-1.4c-0.285-0.279-0.496-0.625-0.599-1.015c-0.232-0.793-0.016-1.685,0.562-2.289
			c0.583-0.622,0.756-1.519,0.427-2.317c-0.324-0.794-1.086-1.3-1.927-1.334c-0.854-0.026-1.611-0.485-2.015-1.218
			c-0.2-0.369-0.308-0.768-0.308-1.179c0-0.717,0.324-1.392,0.87-1.846c0.495-0.411,0.788-1.015,0.783-1.674
			s-0.298-1.248-0.789-1.664c-0.545-0.454-0.859-1.118-0.859-1.849c0-0.388,0.108-0.785,0.298-1.128
			c0.409-0.749,1.182-1.219,2.02-1.234c0.841-0.023,1.603-0.546,1.922-1.323c0.334-0.789,0.161-1.686-0.417-2.312
			c-0.577-0.625-0.788-1.49-0.562-2.31c0.113-0.379,0.324-0.751,0.599-1.015c0.453-0.453,1.168-0.627,1.927-0.699
			c0.638,0.061,1.266-0.176,1.719-0.63c0.448-0.453,0.675-1.081,0.614-1.711c-0.068-0.715,0.18-1.411,0.686-1.912
			c0.288-0.298,0.633-0.499,1.015-0.601c0.793-0.232,1.696-0.016,2.296,0.562c0.615,0.567,1.517,0.735,2.31,0.417
			c0.783-0.33,1.302-1.068,1.334-1.917c0.026-0.854,0.485-1.614,1.231-2.025c1.004-0.551,2.278-0.287,3.003,0.567
			c0.409,0.496,1.015,0.783,1.664,0.783h0.005c0.641-0.005,1.242-0.292,1.656-0.789c0.714-0.865,1.998-1.097,2.979-0.562
			c0.738,0.406,1.213,1.192,1.239,2.02c0.021,0.847,0.543,1.604,1.328,1.922c0.786,0.33,1.683,0.167,2.305-0.412
			c0.628-0.572,1.514-0.788,2.31-0.562c0.386,0.113,0.738,0.324,1.023,0.602c0.501,0.501,0.749,1.197,0.686,1.911
			c-0.053,0.594,0.348,1.197,0.77,1.646c0.844,0.931,2.621,0.52,3.497,1.395c0.284,0.285,0.49,0.63,0.596,1.015
			c0.231,0.81,0.031,1.685-0.56,2.315c-0.58,0.617-0.748,1.513-0.416,2.312c0.332,0.789,1.086,1.3,1.93,1.324
			c0.828,0.026,1.608,0.496,2.02,1.236c0.201,0.351,0.296,0.749,0.296,1.16c0,0.707-0.316,1.382-0.865,1.835
			c-0.495,0.412-0.791,1.016-0.78,1.675c0,0.644,0.29,1.247,0.786,1.664c0.554,0.454,0.859,1.118,0.864,1.835
			c0,0.4-0.1,0.793-0.29,1.157c-0.411,0.738-1.191,1.213-2.024,1.234c-0.85,0.028-1.604,0.556-1.936,1.329
			c-0.322,0.789-0.153,1.685,0.427,2.318c0.58,0.604,0.791,1.484,0.56,2.299c-0.116,0.401-0.316,0.741-0.602,1.016
			c-0.448,0.453-0.886,0.675-1.909,0.686c-0.622-0.048-1.271,0.168-1.729,0.622c-0.453,0.459-0.675,1.092-0.622,1.722
			c0.073,0.72-0.18,1.411-0.696,1.912c-0.274,0.292-0.617,0.493-1.013,0.596c-0.802,0.237-1.688,0.021-2.299-0.552
			c-0.622-0.59-1.519-0.777-2.305-0.432c-0.786,0.33-1.308,1.068-1.34,1.917c-0.026,0.835-0.501,1.614-1.239,2.025
			C123.332,122.099,122.009,121.867,121.278,120.991z"/>
	</g>
</g>
<g>
</g>
<g>
</g>
<g>
</g>
<g>
</g>
<g>
</g>
<g>
</g>
<g>
</g>
<g>
</g>
<g>
</g>
<g>
</g>
<g>
</g>
<g>
</g>
<g>
</g>
<g>
</g>
<g>
</g>
</svg>
