<?xml version="1.0" encoding="iso-8859-1"?>
<!-- Generator: Adobe Illustrator 16.0.0, SVG Export Plug-In . SVG Version: 6.00 Build 0)  -->
<!DOCTYPE svg PUBLIC "-//W3C//DTD SVG 1.1//EN" "http://www.w3.org/Graphics/SVG/1.1/DTD/svg11.dtd">
<svg version="1.1" id="Capa_1" xmlns="http://www.w3.org/2000/svg" xmlns:xlink="http://www.w3.org/1999/xlink" x="0px" y="0px"
	 width="177.283px" height="177.283px" viewBox="0 0 177.283 177.283" style="enable-background:new 0 0 177.283 177.283;"
	 xml:space="preserve">
<g>
	<g>
		<path d="M74.909,83.676c-0.617,0-1.166,0.27-1.561,0.686c-1.619,0.702-3.143,1.656-4.427,2.943
			c-1.406,1.402-2.452,3.031-3.178,4.751c-0.248,0.343-0.424,0.759-0.424,1.224c0,0.021,0.005,0.037,0.005,0.053
			c-0.973,3.032-0.962,6.265,0.037,9.297c0.031,0.274,0.103,0.538,0.227,0.77c0.73,1.872,1.83,3.618,3.338,5.115
			c2.829,2.827,6.597,4.388,10.6,4.388c4,0,7.766-1.556,10.595-4.388c5.835-5.843,5.835-15.351,0-21.193
			c-1.366-1.366-2.985-2.379-4.726-3.085c-0.372-0.322-0.846-0.538-1.376-0.538c-0.077,0-0.135,0.037-0.211,0.042
			c-2.813-0.791-5.812-0.791-8.62,0.016C75.085,83.713,75.006,83.676,74.909,83.676z M72.75,106.062
			c-0.261-0.2-0.541-0.374-0.778-0.622c-0.282-0.274-0.493-0.58-0.73-0.896h1.508V106.062L72.75,106.062z M72.75,100.219h-3.612
			c-0.345-1.571-0.33-3.206,0.042-4.777h3.576L72.75,100.219L72.75,100.219z M72.75,91.118h-1.395
			c0.211-0.254,0.385-0.533,0.622-0.765c0.237-0.243,0.517-0.417,0.778-0.639L72.75,91.118L72.75,91.118z M86.173,89.625
			c0.298,0.242,0.614,0.453,0.891,0.728c0.232,0.242,0.412,0.521,0.62,0.774h-1.511V89.625z M86.173,95.442h3.688
			c0.372,1.571,0.388,3.206,0.037,4.788h-3.726V95.442z M86.173,104.539h1.619c-0.237,0.311-0.448,0.611-0.729,0.896
			c-0.276,0.279-0.588,0.479-0.891,0.722V104.539L86.173,104.539z M77.063,87.537c0.794-0.185,1.608-0.321,2.447-0.321
			c0.799,0,1.577,0.115,2.339,0.29v3.606h-4.786V87.537z M77.063,95.442h4.786v4.788l-4.786-0.011V95.442z M77.063,104.539h4.786
			v3.654c-1.577,0.332-3.214,0.316-4.786-0.032V104.539z"/>
		<path d="M0,51.029c0,1.191,0.967,2.146,2.16,2.146c0,0,0,0,0.005,0l64.423-0.143c0.665,2.816,1.695,5.605,3.148,8.253
			l-67.55,0.153c-1.192,0.005-2.154,0.986-2.154,2.152c0,1.202,0.968,2.162,2.162,2.162l0,0l70.427-0.169
			c2.233,2.806,4.923,5.057,7.91,6.687c-0.38,0.147-0.768,0.285-1.113,0.496c-2.02-1.234-4.699-1.318-6.776-0.143
			c-1.107,0.596-2.004,1.514-2.608,2.589c-1.184-0.327-2.468-0.332-3.715,0.011c-1.118,0.338-2.117,0.928-2.874,1.703
			c-0.902,0.892-1.519,1.999-1.798,3.196c-1.195,0.29-2.294,0.896-3.201,1.798c-0.789,0.786-1.358,1.751-1.708,2.9
			c-0.346,1.234-0.335,2.505,0,3.691c-1.078,0.596-1.991,1.498-2.613,2.615c-0.551,1.013-0.835,2.142-0.82,3.249
			c0,1.261,0.345,2.479,0.984,3.518c-0.644,1.038-0.994,2.262-0.994,3.522c0,1.123,0.285,2.241,0.836,3.248
			c0.617,1.113,1.529,2.015,2.607,2.621c-0.34,1.191-0.351,2.463,0,3.665c0.303,1.092,0.891,2.104,1.714,2.933
			c0.896,0.886,1.996,1.497,3.19,1.782c0.285,1.196,0.896,2.294,1.782,3.18c0.81,0.822,1.788,1.402,2.9,1.719
			c1.208,0.343,2.516,0.333,3.697,0.006c0.606,1.075,1.503,1.993,2.61,2.595c2.006,1.117,4.72,1.117,6.776-0.138
			c1.052,0.633,2.268,0.997,3.531,0.997c1.145,0,2.272-0.296,3.246-0.844c1.113-0.596,2.009-1.509,2.613-2.595
			c1.189,0.332,2.497,0.332,3.705-0.005c1.092-0.333,2.072-0.887,2.916-1.725c0.881-0.881,1.487-1.988,1.767-3.175
			c1.187-0.285,2.283-0.896,3.18-1.782c0.812-0.791,1.393-1.767,1.709-2.896c0.354-1.229,0.337-2.51,0.011-3.702
			c1.086-0.606,2.004-1.508,2.615-2.626c0.538-0.97,0.817-2.083,0.833-3.248c0-1.261-0.348-2.474-0.991-3.522
			c0.232-0.38,0.38-0.802,0.538-1.24c1.798,3.312,4.292,6.266,7.488,8.639v69.772c0,1.192,0.97,2.162,2.156,2.162
			s2.157-0.976,2.157-2.162v-67.057c2.632,1.354,5.41,2.314,8.279,2.911v64.151c0,1.191,0.96,2.162,2.151,2.162
			c1.187,0,2.162-0.976,2.162-2.162V111.52c0.771,0.063,1.54,0.169,2.31,0.169c2.173,0,4.351-0.211,6.519-0.644
			c8.185-1.645,15.219-6.275,20.097-12.973c1.229,0.902,2.753,1.767,4.678,1.767c1.841,0,3.681-0.817,5.469-2.431
			c0.448-0.406,0.833-0.875,1.239-1.397c0.917-1.187,1.866-2.41,5.812-3.296c0.738-0.164,1.339-0.712,1.582-1.445
			c0.231-0.717,0.079-1.503-0.422-2.088c-0.111-0.111-1.983-2.246-5.269-3.254c0.153-0.427,0.279-0.833,0.391-1.224
			c0.442-1.439,0.669-2.151,1.903-2.842c0.696-0.385,1.129-1.129,1.107-1.925c-0.021-0.786-0.475-1.514-1.187-1.883
			c-0.227-0.116-2.263-1.113-4.847-1.113c-2.268,0-4.281,0.786-5.896,2.225c-1.793-2.631-4.113-3.791-4.239-3.854
			c-0.676-0.338-1.487-0.29-2.136,0.121c-0.639,0.411-1.008,1.129-0.976,1.904c0.158,4.05-0.786,5.279-1.688,6.46
			c-0.391,0.527-0.749,1.012-1.023,1.54c-2.753,5.379-0.021,8.396,2.125,10.089c-4.239,5.874-10.389,9.935-17.534,11.358
			c-7.33,1.472-14.786,0.011-21.062-4.039c-0.264-0.327-0.602-0.56-1.013-0.707c-4.419-3.175-7.319-7.678-8.596-12.624
			c1.202,1.571,2.615,3,4.318,4.139c3.761,2.511,8,3.713,12.182,3.713c4.741,0,9.34-1.656,13.095-4.604
			c0.817,0.285,2.119,0.633,3.586,0.633c1.308,0,2.731-0.295,3.976-1.171c2.226-1.577,3.186-4.467,2.827-8.928
			c-0.132-1.566-0.364-4.198,0.812-6.671c0.38-0.791,0.243-1.729-0.337-2.384c-0.591-0.644-1.52-0.886-2.342-0.564
			c-1.149,0.417-11.274,4.24-12.72,10.61c-0.306,1.393-0.253,3.333,1.065,5.506c-5.611,4.081-13.5,4.456-19.754,0.284
			c-2.996-1.998-5.062-5.02-5.801-8.479c-0.527-2.452-0.316-4.92,0.527-7.183c0.458-0.98,0.917-1.967,1.534-2.895
			c3.127-4.34,9.276-5.4,13.911-2.305c3.581,2.389,4.614,7.156,2.31,10.626c-1.714,2.589-5.289,3.222-7.968,1.445
			c-0.997-0.659-2.331-0.401-2.995,0.59c-0.665,1.002-0.391,2.342,0.596,3.006c4.646,3.091,10.911,1.909,13.953-2.631
			c3.629-5.453,2.052-12.91-3.507-16.617c-3.143-2.099-6.792-2.795-10.235-2.32c-0.09-0.39-0.242-0.78-0.543-1.075
			c-0.327-0.333-0.718-0.48-1.14-0.564c0.485-3.459-0.211-7.104-2.314-10.257c-1.788-2.689-4.504-4.541-7.62-5.21
			c-3.153-0.67-6.35-0.09-8.986,1.682c-2.173,1.461-3.665,3.676-4.177,6.255c-0.54,2.668,0.011,5.399,1.54,7.699
			c0.665,1.007,2.015,1.255,2.995,0.596c1.002-0.665,1.266-2.004,0.602-3.001c-0.896-1.329-1.213-2.905-0.907-4.445
			c0.296-1.466,1.129-2.7,2.342-3.507c1.677-1.118,3.702-1.466,5.685-1.065c2.015,0.433,3.766,1.646,4.936,3.375
			c3.085,4.625,2.025,10.758-2.277,13.891c-0.006-0.005-0.017-0.005-0.026-0.005c-0.929,0.623-1.915,1.076-2.906,1.545
			c-5.558,2.051-12.113,0.026-15.644-5.279c-2.581-3.876-3.536-8.464-2.705-12.962c0.464-2.51,1.511-4.788,2.953-6.771
			c1.463,0.902,2.829,1.213,3.997,1.213c0.562,0,1.073-0.069,1.526-0.158c6.381-1.456,10.21-11.581,10.621-12.719
			c0.295-0.817,0.063-1.735-0.58-2.336c-0.654-0.59-1.604-0.733-2.384-0.337c-2.457,1.181-5.094,0.949-7.024,0.791
			c-4.121-0.338-7.003,0.611-8.569,2.837c-1.859,2.637-1.081,5.97-0.541,7.541c-2.091,2.637-3.602,5.717-4.24,9.149
			c-1.036,5.611,0.153,11.354,3.365,16.147c1.194,1.782,2.71,3.185,4.337,4.388c-5.266-1.298-10.099-4.419-13.339-9.281
			c-8.554-12.836-5.287-30.059,7.122-39.023c1.189,1.523,2.966,3.28,5.837,3.28c1.34,0,2.724-0.379,4.234-1.166
			c0.549-0.274,1.023-0.622,1.546-1.018c1.107-0.833,2.246-1.709,5.632-1.709l0.838,0.021c0.723,0,1.477-0.332,1.898-0.981
			c0.417-0.633,0.465-1.445,0.127-2.13c-0.063-0.132-1.229-2.447-3.839-4.229c0.791-0.891,1.382-1.914,1.761-3.037
			c1.239-3.771-0.464-7.32-0.664-7.731c-0.358-0.712-1.086-1.165-1.883-1.187c-0.796-0.073-1.54,0.401-1.925,1.107
			c-0.686,1.229-1.424,1.461-2.858,1.904c-0.374,0.116-0.78,0.231-1.205,0.385c-1.004-3.265-3.132-5.157-3.245-5.263
			c-0.572-0.507-1.371-0.665-2.091-0.422c-0.723,0.237-1.269,0.833-1.435,1.571c-0.892,3.95-2.117,4.904-3.307,5.822
			c-0.512,0.401-0.98,0.786-1.392,1.239c-3.931,4.356-2.278,7.884-0.691,10.078c-9.708,7.061-14.515,18.536-13.418,29.816
			L2.17,48.825C0.973,48.861,0,49.832,0,51.029z M156.737,87.341c0.158-0.316,0.391-0.585,0.622-0.891
			c0.907-1.203,1.757-2.489,2.226-4.53c0.338,0.559,0.633,1.218,0.828,1.962c0.227,0.854,0.976,1.498,1.872,1.593
			c0.918,0.137,1.745-0.369,2.146-1.182c0.98-1.925,2.336-2.921,4.15-3.021c-0.38,0.754-0.602,1.503-0.812,2.183
			c-0.316,1.012-0.585,1.909-1.276,2.811c-0.49,0.643-0.569,1.514-0.222,2.246c0.359,0.728,1.092,1.213,1.909,1.229
			c0.738,0.011,1.403,0.111,2.004,0.301c-1.861,0.986-2.879,2.141-3.808,3.328c-0.231,0.311-0.442,0.58-0.706,0.812
			c-0.971,0.876-1.835,1.318-2.579,1.318c-1.018,0-2.062-0.854-3.053-1.677l-1.498-1.149
			C156.294,91.091,155.276,90.195,156.737,87.341z M136.423,85.153c0.465-2.057,3.217-4.16,6.022-5.7
			c-0.158,1.771-0.021,3.343,0.074,4.451c0.2,2.416-0.169,4.092-1.034,4.704c-0.379,0.274-0.901,0.349-1.455,0.349
			c0.264-0.332,0.591-0.586,0.833-0.965c0.665-1.002,0.396-2.342-0.591-2.996c-1.007-0.659-2.341-0.4-3,0.591
			c-0.227,0.338-0.517,0.602-0.765,0.918C136.302,85.86,136.371,85.375,136.423,85.153z M88.759,35.889
			c0.609-0.865,2.268-1.218,5.039-1.007c0.923,0.079,2.399,0.206,4.108,0.042c-1.445,2.653-3.502,5.527-5.685,6.022
			c-0.222,0.048-0.71,0.116-1.39-0.095c0.318-0.243,0.591-0.543,0.925-0.77c0.992-0.665,1.256-2.004,0.602-2.996
			c-0.667-1.007-2.001-1.244-3.001-0.601c-0.345,0.231-0.619,0.538-0.949,0.785C88.419,36.753,88.501,36.248,88.759,35.889z
			 M102.099,88.528c0.021-0.084,0.016-0.163,0.037-0.253c0.016,0.11,0.01,0.2,0.031,0.312
			C102.141,88.56,102.12,88.539,102.099,88.528z M101.704,83.924c-0.338-0.723-0.749-1.424-1.324-1.988
			c-0.321-0.316-0.686-0.564-1.038-0.791l3.042-3.042C101.957,80.017,101.698,81.979,101.704,83.924z M93.53,75.671
			c1.972,0,3.934-0.285,5.885-0.728l-3.148,3.148c-0.258-0.401-0.521-0.797-0.87-1.145c-0.559-0.554-1.223-0.96-1.908-1.281
			C93.498,75.671,93.508,75.671,93.53,75.671z M88.939,75.229c-0.039,0.01-0.082,0.01-0.113,0.021
			c-0.005-0.021-0.023-0.031-0.034-0.047C88.836,75.208,88.878,75.218,88.939,75.229z M84.117,76.41
			c0.743,0.411,1.221,1.202,1.236,2.036c0.021,0.854,0.541,1.619,1.321,1.935c0.796,0.338,1.692,0.164,2.312-0.406
			c0.627-0.59,1.511-0.801,2.339-0.564c0.387,0.11,0.732,0.316,1.033,0.596c0.512,0.522,0.765,1.224,0.696,1.925
			c-0.063,0.606,0.348,1.208,0.77,1.65c0.833,0.928,2.616,0.522,3.513,1.419c0.295,0.295,0.501,0.627,0.611,1.012
			c0.232,0.818,0.011,1.708-0.564,2.336c-0.585,0.622-0.743,1.519-0.422,2.314c0.332,0.78,1.081,1.303,1.925,1.335
			c0.854,0.031,1.646,0.506,2.046,1.233c0.201,0.358,0.296,0.765,0.296,1.182c0,0.738-0.316,1.413-0.865,1.872
			c-0.495,0.4-0.78,1.012-0.78,1.661c0,0.648,0.285,1.255,0.78,1.677c0.56,0.464,0.876,1.139,0.876,1.83
			c-0.006,0.427-0.116,0.833-0.307,1.197c-0.405,0.748-1.17,1.213-2.046,1.244c-0.854,0.021-1.603,0.549-1.925,1.323
			c-0.321,0.791-0.152,1.688,0.428,2.315c0.58,0.606,0.791,1.503,0.559,2.314c-0.116,0.406-0.327,0.755-0.602,1.029
			c-0.475,0.464-1.086,0.728-1.94,0.711c-0.675-0.073-1.276,0.158-1.729,0.628c-0.453,0.454-0.675,1.081-0.611,1.72
			c0.068,0.711-0.19,1.424-0.676,1.914c-0.316,0.301-0.667,0.512-1.055,0.617c-0.804,0.221-1.711,0.025-2.333-0.56
			c-0.62-0.585-1.526-0.743-2.305-0.427c-0.783,0.332-1.308,1.081-1.334,1.93c-0.026,0.85-0.499,1.646-1.252,2.057
			c-0.958,0.543-2.286,0.29-3.019-0.585c-0.411-0.496-1.015-0.78-1.659-0.78c0,0,0,0-0.005,0c-0.643,0.005-1.247,0.289-1.658,0.785
			c-0.675,0.807-1.954,1.16-3.017,0.575c-0.746-0.411-1.226-1.202-1.25-2.052c-0.021-0.844-0.548-1.604-1.331-1.92
			c-0.778-0.316-1.685-0.158-2.308,0.417c-0.614,0.585-1.516,0.791-2.323,0.56c-0.393-0.111-0.738-0.327-1.031-0.607
			c-0.512-0.521-0.768-1.218-0.696-1.924c0.061-0.591-0.351-1.197-0.762-1.646c-0.852-0.938-2.645-0.549-3.521-1.397
			c-0.292-0.301-0.495-0.648-0.609-1.065c-0.24-0.791-0.018-1.688,0.572-2.3c0.583-0.622,0.754-1.529,0.424-2.325
			c-0.327-0.791-1.089-1.303-1.938-1.329c-0.862-0.021-1.63-0.484-2.041-1.233c-0.2-0.364-0.303-0.765-0.303-1.166
			c0-0.728,0.319-1.402,0.88-1.866c0.493-0.406,0.778-1.018,0.778-1.672s-0.285-1.25-0.783-1.661
			c-0.546-0.459-0.865-1.134-0.865-1.898c-0.005-0.385,0.098-0.786,0.293-1.14c0.411-0.748,1.194-1.223,2.041-1.233
			c0.854-0.026,1.611-0.549,1.933-1.334c0.329-0.791,0.163-1.688-0.419-2.305c-0.59-0.633-0.804-1.509-0.585-2.305
			c0.132-0.422,0.343-0.786,0.617-1.049c0.469-0.475,1.123-0.575,1.959-0.722c0.654,0.058,1.271-0.164,1.725-0.623
			c0.448-0.454,0.675-1.086,0.614-1.73c-0.068-0.706,0.185-1.402,0.72-1.925c0.269-0.284,0.614-0.485,1.002-0.585
			c0.807-0.237,1.719-0.021,2.323,0.559c0.617,0.58,1.519,0.771,2.302,0.433c0.788-0.321,1.311-1.076,1.35-1.909
			c0.032-0.88,0.501-1.661,1.253-2.083c0.97-0.527,2.288-0.3,3.035,0.586c0.409,0.49,1.015,0.78,1.656,0.78
			c0.704,0.11,1.25-0.29,1.664-0.791C81.831,76.099,83.199,75.914,84.117,76.41z M83.16,11.7c0.237-0.264,0.53-0.475,0.828-0.707
			c1.192-0.923,2.347-1.951,3.32-3.808c0.179,0.591,0.292,1.255,0.303,1.999c0.011,0.807,0.48,1.55,1.216,1.909
			c0.733,0.363,1.604,0.274,2.252-0.222c0.901-0.691,1.793-0.96,2.811-1.276c0.696-0.206,1.455-0.438,2.204-0.817
			c-0.095,1.435-0.791,3.032-3.037,4.161c-0.797,0.4-1.266,1.255-1.171,2.151c0.095,0.891,0.728,1.635,1.593,1.867
			c0.759,0.195,1.413,0.506,1.982,0.833c-2.299,0.527-3.544,1.46-4.54,2.225c-0.309,0.232-0.583,0.458-0.902,0.606
			c-2.592,1.329-3.67,0.548-5.339-1.788l-1.168-1.503C81.772,15.196,81.021,14.067,83.16,11.7z"/>
	</g>
</g>
<g>
</g>
<g>
</g>
<g>
</g>
<g>
</g>
<g>
</g>
<g>
</g>
<g>
</g>
<g>
</g>
<g>
</g>
<g>
</g>
<g>
</g>
<g>
</g>
<g>
</g>
<g>
</g>
<g>
</g>
</svg>
