<?xml version="1.0" encoding="iso-8859-1"?>
<!-- Generator: Adobe Illustrator 16.0.0, SVG Export Plug-In . SVG Version: 6.00 Build 0)  -->
<!DOCTYPE svg PUBLIC "-//W3C//DTD SVG 1.1//EN" "http://www.w3.org/Graphics/SVG/1.1/DTD/svg11.dtd">
<svg version="1.1" id="Capa_1" xmlns="http://www.w3.org/2000/svg" xmlns:xlink="http://www.w3.org/1999/xlink" x="0px" y="0px"
	 width="191.701px" height="191.702px" viewBox="0 0 191.701 191.702" style="enable-background:new 0 0 191.701 191.702;"
	 xml:space="preserve">
<g>
	<g>
		<path d="M190.088,99.249c-6.534-13.764-30.649-20.574-31.662-20.848c-0.095-0.026-0.174,0.005-0.264,0
			c-0.084-0.005-0.132-0.005-0.216,0c-0.322,0.026-0.623,0.119-0.85,0.356c-0.222,0.232-0.311,0.541-0.337,0.844
			c-0.011,0.084-0.011,0.15,0,0.237c0.021,0.09-0.011,0.171,0.021,0.258c2.784,8.904,2.722,13.822,1.762,18.462
			c-2.632,12.867-2.489,20.097,5.601,23.894c2.057,0.965,4.028,1.456,5.874,1.456c1.371,0,2.579-0.253,3.634-0.675
			c-1.777,1.745-4.019,2.905-6.497,3.316c-8.058,1.345-12.714-3.85-20.255-13.131c-0.738-0.901-1.445-1.888-2.146-2.832
			c0.38,0.068,0.759,0.153,1.139,0.153c1.271,0,2.579-0.338,3.829-1.018c3.264-1.799,4.472-5.917,2.689-9.182
			c-1.509-2.747-4.994-3.733-7.731-2.246c-2.336,1.276-3.185,4.208-1.914,6.539c1.086,1.993,3.607,2.727,5.601,1.63
			c0.495-0.274,0.653-0.818,0.574-1.355c0.011-0.037,0.059-0.059,0.063-0.105c0.143-0.844-0.416-1.646-1.26-1.783
			c-0.718-0.126-1.34,0.333-1.614,0.981c-0.411-0.074-0.785-0.274-1.013-0.665c-0.563-1.018-0.179-2.31,0.828-2.868
			c1.466-0.78,3.28-0.264,4.071,1.176c1.065,1.962,0.338,4.44-1.624,5.517c-3.364,1.835-5.917-0.238-7.478-2.3
			c-0.158-0.206-0.391-0.269-0.612-0.354c-6.006-7.999-13.268-15.938-25.438-15.831c-5.833,0.098-11.085,2.489-14.787,6.75
			c-1.846,2.109-3.164,4.615-4.061,7.314c-0.875-3.043-2.362-5.848-4.403-8.194c-3.718-4.267-8.965-6.658-14.787-6.756
			c-0.137,0-0.295,0-0.433,0c-12.034,0-19.09,7.916-25.028,15.842c-0.211,0.095-0.443,0.147-0.59,0.348
			c-1.572,2.057-4.15,4.13-7.478,2.31c-1.972-1.086-2.7-3.564-1.635-5.516c0.786-1.445,2.589-1.973,4.066-1.182
			c1.023,0.564,1.408,1.856,0.844,2.869c-0.221,0.391-0.585,0.591-1.012,0.67c-0.274-0.654-0.896-1.103-1.625-0.98
			c-0.844,0.131-1.413,0.938-1.266,1.787c0.011,0.037,0.069,0.059,0.079,0.101c-0.089,0.538,0.095,1.081,0.575,1.36
			c2.004,1.086,4.504,0.343,5.601-1.641c1.271-2.33,0.422-5.263-1.909-6.539c-2.769-1.486-6.212-0.484-7.736,2.252
			c-1.783,3.26-0.57,7.383,2.689,9.187c1.255,0.686,2.558,1.023,3.818,1.023c0.38,0,0.775-0.095,1.149-0.158
			c-0.717,0.954-1.424,1.94-2.141,2.837c-7.541,9.271-12.203,14.465-20.25,13.125c-2.479-0.405-4.72-1.571-6.502-3.312
			c1.06,0.422,2.268,0.675,3.639,0.675c1.835,0,3.808-0.495,5.864-1.455c8.1-3.797,8.237-11.026,5.611-23.889
			c-0.965-4.638-1.013-9.561,1.761-18.462c0.032-0.09,0-0.172,0.021-0.264c0.011-0.087,0.011-0.146,0-0.237
			c-0.026-0.314-0.11-0.606-0.332-0.839c-0.227-0.232-0.554-0.332-0.849-0.366c-0.084-0.005-0.132,0-0.211,0
			c-0.105,0.005-0.174-0.021-0.269,0c-1.018,0.282-25.128,7.085-31.667,20.854c-2.146,4.546-2.146,9.34,0,14.244
			c0.865,1.967,3.929,4.693,7.425,4.693c1.012,0,1.972-0.238,2.884-0.67c0.443,1.93,1.234,3.797,2.363,5.441
			c2.362,3.37,5.833,5.59,9.814,6.25c10.009,1.682,15.92-5.638,22.786-14.08c1.561-1.909,3.054-3.95,4.567-6.018
			c6.386-8.717,13.094-17.819,25.318-17.55c2.167,0.037,4.208,0.509,6.123,1.242c0.021,0.01,0.021,0.039,0.032,0.055
			c4.957,4.135,6.165,8.901,3.375,13.442c-1.034,1.709-2.7,2.905-4.625,3.375c-1.93,0.464-3.955,0.158-5.664-0.892
			c-2.689-1.655-3.544-5.188-1.904-7.873c0.591-0.98,1.535-1.666,2.652-1.936c1.113-0.274,2.284-0.089,3.259,0.522
			c0.654,0.396,1.086,1.018,1.318,1.734c-0.232-0.036-0.464-0.089-0.717-0.053c-1.392,0.164-2.368,1.445-2.204,2.827
			c0.163,1.392,1.445,2.373,2.821,2.204c0.369-0.047,0.733-0.189,1.012-0.38c0.433-0.016,0.854-0.158,1.097-0.559
			c0.822-1.34,1.076-2.916,0.707-4.435c-0.354-1.529-1.297-2.816-2.631-3.645c-1.608-0.976-3.491-1.266-5.305-0.833
			c-1.819,0.442-3.354,1.561-4.335,3.153c-2.415,3.944-1.176,9.145,2.795,11.591c1.625,0.997,3.438,1.498,5.29,1.493
			c0.796,0,1.613-0.101,2.399-0.285c2.647-0.639,4.883-2.268,6.307-4.594c2.036-3.312,2.368-6.771,1.166-10.072
			c3.465,4.119,5.062,9.783,4.345,15.642c-0.527,4.366-2.726,8.258-6.191,10.969c-3.459,2.71-7.741,3.897-12.129,3.375
			c-0.796-0.116-1.413,0.438-1.492,1.176c-0.1,0.743,0.438,1.419,1.181,1.503c0.791,0.101,1.582,0.143,2.368,0.143
			c4.245,0,8.364-1.413,11.765-4.071c2.827-2.22,4.883-5.142,6.102-8.433c1.149,3.655,3.354,6.888,6.438,9.309
			c3.401,2.662,7.51,4.076,11.766,4.076c0.785,0,1.565-0.053,2.356-0.143c0.749-0.095,1.261-0.765,1.187-1.503
			c-0.1-0.738-0.722-1.308-1.503-1.176c-4.371,0.521-8.664-0.67-12.129-3.375c-3.459-2.711-5.652-6.608-6.186-10.969
			c-0.722-5.859,0.87-11.528,4.346-15.636c-1.219,3.301-0.876,6.75,1.16,10.066c1.919,3.138,5.289,4.867,8.712,4.867
			c1.809,0,3.639-0.479,5.283-1.486c1.92-1.187,3.27-3.038,3.797-5.221c0.527-2.184,0.175-4.445-1.002-6.365
			c-0.985-1.598-2.525-2.721-4.351-3.159c-1.803-0.438-3.701-0.142-5.289,0.833c-1.345,0.812-2.283,2.115-2.652,3.645
			c-0.364,1.523-0.116,3.101,0.701,4.435c0.253,0.406,0.675,0.554,1.107,0.56c0.306,0.195,0.639,0.337,1.018,0.374
			c1.397,0.174,2.647-0.807,2.827-2.199c0.158-1.387-0.817-2.663-2.204-2.826c-0.254-0.037-0.485,0.016-0.729,0.053
			c0.232-0.718,0.676-1.34,1.318-1.735c0.992-0.606,2.157-0.791,3.26-0.521c1.117,0.273,2.077,0.959,2.668,1.94
			c0.796,1.303,1.039,2.837,0.686,4.324c-0.354,1.481-1.271,2.747-2.584,3.549c-3.522,2.146-8.143,1.034-10.294-2.489
			c-2.789-4.54-1.598-9.318,3.364-13.441c0.021-0.014,0.011-0.04,0.032-0.056c1.914-0.735,3.955-1.21,6.128-1.242
			c0.121,0,0.269,0,0.39,0c12.087,0,18.61,8.918,24.917,17.55c1.514,2.067,3.021,4.113,4.572,6.018
			c6.866,8.442,12.757,15.757,22.797,14.08c3.971-0.664,7.468-2.879,9.804-6.249c1.139-1.646,1.919-3.502,2.367-5.442
			c0.907,0.433,1.878,0.67,2.869,0.67c3.502,0,6.57-2.721,7.425-4.693C192.244,108.588,192.244,103.805,190.088,99.249z
			 M4.062,99.539c0.227-0.479,0.585-0.912,0.875-1.376l6.724,10.299c-0.285,1.208-0.401,2.362-0.39,3.486l-7.91-9.234
			c-0.095-0.105-0.227-0.105-0.337-0.169C3.25,101.532,3.598,100.53,4.062,99.539z M14.25,113.688
			c-0.047-1.013-0.011-2.021,0.179-3.022c0.063-0.306-0.042-0.58-0.168-0.838l17.697,0.121c-0.042,1.582-0.311,2.868-0.69,4.013
			L14.25,113.688z M19.945,97.288l10.272-0.676c0.095,0.56,0.185,1.098,0.295,1.619c0.143,0.733,0.243,1.34,0.364,2.015
			l-13.099,0.495C18.453,99.586,19.175,98.437,19.945,97.288z M24.639,90.88l5.289-0.253c-0.068,1.192-0.053,2.284,0.011,3.296
			l-8.005,0.527C22.814,93.24,23.721,92.04,24.639,90.88z M30.181,87.909l-3.228,0.158c1.392-1.653,2.753-3.183,4.008-4.549
			C30.603,85.129,30.36,86.566,30.181,87.909z M24.981,86.218l0.195-2.906c1.313-0.559,2.573-1.052,3.681-1.46
			C27.708,83.094,26.39,84.562,24.981,86.218z M22.139,89.68c-0.781,0.989-1.55,2.009-2.32,3.045l-0.917-6.415
			c1.181-0.625,2.341-1.226,3.485-1.753l-0.332,4.941C22.06,89.567,22.128,89.623,22.139,89.68z M17.562,95.995
			c-0.569,0.86-1.128,1.725-1.661,2.59l-3.006-8.43c-0.031-0.053-0.095-0.068-0.11-0.119c1.16-0.82,2.362-1.592,3.581-2.315
			L17.562,95.995z M16.307,103.494l15.071-0.563c0.253,1.598,0.396,3.016,0.485,4.318l-17.075-0.116
			C15.188,105.957,15.685,104.739,16.307,103.494z M26.411,119.135c-1.682,0.791-3.27,1.202-4.725,1.202
			c-3.333,0-5.39-2.157-6.539-3.935l14.692,0.238C28.963,117.659,27.834,118.459,26.411,119.135z M10.601,91.76l3.57,9.988
			c-0.564,1.123-1.049,2.241-1.482,3.349l-6.138-9.392C7.711,94.282,9.114,92.998,10.601,91.76z M4.088,111.531
			c-0.807-1.835-1.197-3.612-1.302-5.353l7.087,8.273c-0.279,0.063-0.554,0.158-0.828,0.158
			C6.677,114.616,4.568,112.606,4.088,111.531z M160.445,114.842c-0.39-1.145-0.648-2.431-0.696-4.013l17.692-0.122
			c-0.121,0.254-0.231,0.538-0.163,0.839c0.185,0.997,0.227,2.009,0.174,3.017L160.445,114.842z M169.785,95.32l-8.016-0.527
			c0.062-1.013,0.079-2.109,0.01-3.293l5.284,0.256C167.992,92.916,168.898,94.113,169.785,95.32z M173.93,101.606l-13.104-0.49
			c0.121-0.675,0.222-1.292,0.364-2.02c0.11-0.527,0.2-1.055,0.295-1.619l10.272,0.675
			C172.543,99.312,173.266,100.461,173.93,101.606z M175.406,104.37c0.622,1.244,1.118,2.463,1.519,3.633l-17.086,0.116
			c0.095-1.303,0.243-2.716,0.485-4.313L175.406,104.37z M174.146,96.866l1.192-8.248c1.224,0.723,2.42,1.49,3.58,2.315
			c-0.026,0.055-0.084,0.066-0.115,0.114l-3.022,8.424C175.274,98.589,174.71,97.73,174.146,96.866z M171.889,93.606
			c-0.765-1.036-1.529-2.062-2.314-3.04c0.01-0.076,0.084-0.118,0.079-0.189l-0.338-4.934c1.149,0.533,2.325,1.129,3.496,1.759
			L171.889,93.606z M166.731,87.088c-1.419-1.658-2.727-3.127-3.876-4.374c1.107,0.416,2.362,0.907,3.681,1.463L166.731,87.088z
			 M164.77,88.947l-3.243-0.158c-0.169-1.345-0.422-2.792-0.791-4.39C162.007,85.759,163.367,87.289,164.77,88.947z
			 M180.442,112.823c0.011-1.118-0.116-2.278-0.396-3.486l6.724-10.293c0.285,0.469,0.648,0.891,0.875,1.376
			c0.475,1.002,0.808,1.993,1.028,3.006c-0.11,0.074-0.242,0.068-0.332,0.169L180.442,112.823z M185.157,96.575l-6.144,9.393
			c-0.417-1.107-0.918-2.221-1.477-3.349l3.575-9.985C182.6,93.865,183.997,95.162,185.157,96.575z M165.292,120.01
			c-1.424-0.67-2.568-1.471-3.428-2.489l14.691-0.237c-1.149,1.767-3.206,3.935-6.539,3.935
			C168.582,121.202,166.995,120.801,165.292,120.01z M182.662,115.491c-0.284,0-0.559-0.1-0.822-0.158l7.082-8.264
			c-0.105,1.74-0.495,3.513-1.286,5.343C187.135,113.487,185.03,115.491,182.662,115.491z"/>
		<path d="M85.468,82.44c-0.037,1.021,0.021,1.922,0.185,2.613c0.949,3.881,3.944,6.755,7.688,7.663
			c0.037,0.005,0.063,0.021,0.095,0.031c0.026,0.011,0.047,0,0.058,0.011c0.765,0.163,1.513,0.287,2.325,0.287
			c0.016,0,0.037-0.005,0.053-0.005c0.016,0,0.037,0.005,0.063,0.005c0.791,0,1.55-0.118,2.31-0.298c0.026,0,0.048,0,0.063-0.005
			c0.031-0.006,0.058-0.021,0.084-0.026c3.744-0.902,6.756-3.781,7.694-7.668c0.169-0.686,0.222-1.587,0.189-2.607
			c0-0.185-0.01-0.361-0.026-0.551c-0.337-6.652-3.718-18.188-4.171-19.699c-0.121-0.459-0.506-0.81-0.971-0.923
			c-0.475-0.113-0.959,0.026-1.286,0.372c-0.433,0.448-2.02,2.118-3.934,4.255c-1.915-2.138-3.491-3.807-3.929-4.255
			c-0.333-0.34-0.817-0.48-1.282-0.372c-0.469,0.113-0.838,0.464-0.986,0.923c-0.454,1.511-3.839,13.041-4.166,19.693
			C85.479,82.068,85.468,82.245,85.468,82.44z M102.433,86.619c-0.527,0.865-1.213,1.593-1.999,2.181
			c-0.031,0.024-0.063,0.05-0.095,0.071c-0.775,0.551-1.64,0.938-2.568,1.187c-0.11,0.029-0.221,0.066-0.332,0.093
			c-0.311,0.065-0.601,0.097-0.907,0.118c-0.221,0.029-0.448,0.05-0.675,0.05c-0.248,0-0.49-0.029-0.754-0.055
			c-0.274-0.026-0.549-0.053-0.817-0.113c-0.127-0.026-0.253-0.069-0.38-0.114c-0.907-0.243-1.761-0.62-2.521-1.16
			c-0.042-0.032-0.084-0.071-0.127-0.103c-0.786-0.583-1.46-1.3-1.972-2.159c-1.081-1.767-1.413-3.845-0.912-5.859
			c0.543-2.241,4.034-6.75,7.488-10.768c3.449,4.018,6.951,8.532,7.488,10.773C103.835,82.775,103.514,84.852,102.433,86.619z
			 M100.112,65.214c0.644,2.31,1.429,5.35,2.088,8.369c-1.413-1.912-2.995-3.85-4.545-5.653
			C98.53,66.947,99.363,66.018,100.112,65.214z M91.601,65.214c0.738,0.793,1.582,1.732,2.458,2.716
			c-1.556,1.798-3.132,3.73-4.551,5.643C90.177,70.559,90.958,67.519,91.601,65.214z"/>
		<path d="M95.851,78.952c-2.579,0-4.662,2.088-4.662,4.659c0,2.57,2.099,4.661,4.662,4.661c2.558,0,4.662-2.096,4.662-4.661
			C100.513,81.04,98.425,78.952,95.851,78.952z M95.851,85.572c-1.081,0-1.961-0.88-1.961-1.961c0-1.079,0.88-1.965,1.961-1.965
			s1.957,0.881,1.957,1.959C97.808,84.686,96.938,85.572,95.851,85.572z"/>
	</g>
</g>
<g>
</g>
<g>
</g>
<g>
</g>
<g>
</g>
<g>
</g>
<g>
</g>
<g>
</g>
<g>
</g>
<g>
</g>
<g>
</g>
<g>
</g>
<g>
</g>
<g>
</g>
<g>
</g>
<g>
</g>
</svg>
