<?xml version="1.0" encoding="iso-8859-1"?>
<!-- Generator: Adobe Illustrator 16.0.0, SVG Export Plug-In . SVG Version: 6.00 Build 0)  -->
<!DOCTYPE svg PUBLIC "-//W3C//DTD SVG 1.1//EN" "http://www.w3.org/Graphics/SVG/1.1/DTD/svg11.dtd">
<svg version="1.1" id="Capa_1" xmlns="http://www.w3.org/2000/svg" xmlns:xlink="http://www.w3.org/1999/xlink" x="0px" y="0px"
	 width="166.298px" height="166.298px" viewBox="0 0 166.298 166.298" style="enable-background:new 0 0 166.298 166.298;"
	 xml:space="preserve">
<g>
	<g>
		<path d="M157.67,63.475c1.076,0,2.131-0.2,3.127-0.588c4.43-1.717,6.634-6.724,4.92-11.172c-1.697-4.332-6.823-6.616-11.163-4.889
			c-4.43,1.722-6.635,6.729-4.91,11.156c0.596,1.523,1.614,2.766,2.848,3.704c-1.444,3.322-2.42,5.767-3.074,8.124
			c-2.779-7.059-7.299-12.825-12.872-16.875c2.853-3.285,4.588-7.398,4.814-11.941c0.279-5.474-1.582-10.832-5.236-15.093
			l-11.486-13.387c-2.31-2.685-6.186-3.541-10.932-2.447c-4.25,1-8.891,3.513-13.062,7.093c-7.604,6.561-10.483,14.827-6.697,19.232
			c0.907,1.06,2.258,1.669,4.024,1.804c4.281,0.256,10.879-2.283,15.282-6.07c3.412-2.914,7.493-7.575,7.763-11.137
			c0.115-1.529-0.454-2.555-0.96-3.133c-0.876-1.015-2.257-1.616-4.003-1.69c-3.602-0.098-7.915,1.722-11.485,5.113
			c-3.054,2.9-4.741,6.048-4.757,8.867c-0.005,1.194,0.96,2.154,2.146,2.159c0,0,0.005,0,0.011,0c1.191,0,2.151-0.97,2.156-2.138
			c0.011-1.572,1.287-3.715,3.418-5.74c4.424-4.195,8.569-4.261,9.159-3.886c0.18,0.896-1.819,4.54-6.265,8.342
			c-3.812,3.262-9.397,5.237-12.14,5.036c-0.686-0.053-1.002-0.221-1.07-0.311c-1.813-2.112,0.464-8.187,6.233-13.16
			c3.654-3.138,7.636-5.32,11.222-6.172c3.043-0.725,5.49-0.334,6.666,1.037l11.496,13.396c2.927,3.412,4.419,7.699,4.197,12.058
			c-0.216,4.332-2.088,8.213-5.284,10.934c-3.068,2.643-7.019,3.939-11.211,3.607c-4.514-0.332-8.664-2.484-11.702-6.009
			l-2.378-2.782c5.77-2.386,18.02-8.672,20.993-19.896c0.312-1.163-0.385-2.344-1.534-2.642c-1.16-0.303-2.342,0.372-2.637,1.535
			c-3.228,12.176-20.936,17.938-21.12,18.009c-0.69,0.216-1.229,0.778-1.429,1.463c-0.195,0.686-0.032,1.458,0.438,1.991
			l4.388,5.115c3.786,4.406,8.985,7.085,14.654,7.522c0.527,0.032,1.05,0.053,1.577,0.053c4.197,0,8.168-1.36,11.501-3.773
			c9.055,6.178,15.077,17.474,14.813,31.451c0,0.2,0,0.422,0,0.622c-0.279,8.701-2.985,18.404-8.907,28.524
			c-0.459,0.791-0.923,1.556-1.382,2.314c-1.213-4.166-3.422-8.089-6.592-11.433c0.549-0.195,1.087-0.38,1.641-0.696
			c6.302-3.485,5.173-9.734,3.185-16.954c-0.748-2.753-0.97-5.711,0.364-11.188c0.185-0.772-0.063-1.571-0.648-2.112
			c-0.596-0.541-1.43-0.702-2.168-0.443c-0.659,0.232-16.289,5.785-20.092,15.394c-1.149,2.9-1.07,5.854,0.101,8.785
			c-5.11,0.2-9.883,2.088-13.785,5.348c-1.281-0.834-2.778-1.309-4.408-1.329c-4.414,0-8.047,3.586-8.098,7.989
			c-0.031,2.172,0.789,4.224,2.302,5.779c1.511,1.551,3.533,2.415,5.706,2.437c0.006,0,0.079,0,0.085,0c4.43,0,8.078-3.597,8.126-8
			c0.016-1.286-0.295-2.526-0.849-3.654c3.364-2.774,7.52-4.335,11.881-4.346c4.983,0.011,9.65,1.957,13.151,5.506
			c3.902,3.929,6.149,8.886,6.75,13.99c-10.699,15.13-21.446,20.546-28.998,22.339c-7.541,1.771-15.232,0.643-21.091-3.133
			c-0.098-0.074-0.211-0.063-0.314-0.111c-0.021-0.01-0.031-0.031-0.053-0.042c-0.071-0.031-0.147-0.021-0.216-0.042
			c-0.201-0.063-0.385-0.116-0.588-0.116c-0.448-0.021-0.892,0.042-1.282,0.296c-5.848,3.781-13.537,4.909-21.091,3.138
			c-7.543-1.788-18.291-7.209-28.999-22.339c0.599-5.1,2.85-10.062,6.75-13.995c3.499-3.528,8.166-5.49,13.149-5.517
			c0.016,0,0.037,0,0.058,0c4.385,0,8.495,1.588,11.826,4.351c-0.554,1.129-0.873,2.362-0.852,3.66
			c0.053,4.408,3.7,8.005,8.127,8.005c0.005,0,0.076,0,0.082,0c2.165-0.031,4.19-0.896,5.703-2.447
			c1.511-1.55,2.331-3.606,2.299-5.764c-0.056-4.397-3.689-7.994-8.203-7.994c-1.561,0.021-3.035,0.496-4.308,1.323
			c-3.9-3.264-8.672-5.142-13.788-5.342c1.168-2.932,1.247-5.874,0.103-8.774c-3.802-9.604-19.43-15.172-20.092-15.404
			c-0.747-0.258-1.577-0.108-2.167,0.443c-0.583,0.54-0.831,1.339-0.646,2.122c1.337,5.482,1.11,8.435,0.367,11.167
			c-1.988,7.219-3.122,13.479,3.18,16.975c0.551,0.307,1.097,0.485,1.643,0.686c-3.164,3.354-5.384,7.272-6.589,11.434
			c-0.459-0.76-0.923-1.52-1.382-2.315c-5.925-10.12-8.63-19.823-8.909-28.514c0-0.211,0-0.422,0-0.622
			c-0.261-13.988,5.761-25.302,14.815-31.461c3.333,2.423,7.301,3.784,11.504,3.784c0.522,0,1.047-0.021,1.577-0.068
			c5.663-0.427,10.868-3.096,14.649-7.518l4.39-5.115c0.469-0.548,0.635-1.294,0.438-1.996c-0.2-0.698-0.736-1.236-1.426-1.463
			c-0.18-0.066-17.89-5.833-21.12-18.009c-0.306-1.168-1.484-1.843-2.64-1.535c-1.149,0.319-1.843,1.475-1.534,2.635
			c2.972,11.211,15.224,17.497,20.991,19.904l-2.381,2.776c-3.035,3.53-7.188,5.674-11.702,6.015
			c-4.153,0.324-8.135-0.965-11.211-3.607c-3.19-2.731-5.065-6.618-5.282-10.929c-0.221-4.38,1.274-8.662,4.201-12.063
			l11.485-13.392c1.184-1.382,3.621-1.762,6.671-1.042c3.586,0.831,7.57,3.03,11.227,6.165c5.767,4.97,8.05,11.045,6.236,13.168
			c-0.071,0.084-0.383,0.253-1.076,0.306c-2.784,0.232-8.327-1.767-12.145-5.044c-4.443-3.794-6.441-7.446-6.37-8.163
			c0.701-0.557,4.838-0.499,9.271,3.715c2.128,2.025,3.401,4.163,3.415,5.735c0.005,1.194,0.97,2.144,2.16,2.144
			c1.202,0.005,2.165-0.989,2.159-2.17c-0.011-2.808-1.701-5.957-4.757-8.857c-3.57-3.391-7.884-5.221-11.485-5.115
			c-1.746,0.098-3.132,0.675-4.002,1.685c-0.501,0.578-1.076,1.611-0.955,3.132c0.274,3.565,4.356,8.229,7.765,11.14
			c4.396,3.787,10.9,6.357,15.28,6.075c1.761-0.129,3.117-0.738,4.023-1.798c3.792-4.417,0.907-12.701-6.694-19.245
			c-4.169-3.586-8.81-6.107-13.057-7.085c-4.759-1.103-8.635-0.237-10.942,2.457l-11.48,13.387
			c-3.649,4.261-5.514,9.616-5.237,15.093c0.227,4.538,1.954,8.656,4.817,11.939c-5.584,4.05-10.104,9.814-12.875,16.875
			c-0.653-2.355-1.635-4.799-3.082-8.121c1.236-0.939,2.252-2.17,2.851-3.715c1.716-4.416-0.48-9.424-4.91-11.146
			C7.406,45.1,2.291,47.377,0.58,51.715c-1.711,4.438,0.496,9.442,4.915,11.156c1.005,0.393,2.057,0.593,3.133,0.593
			c0.403,0,0.783-0.119,1.17-0.177c3.684,8.422,4.098,10.125,4.071,22.687c-0.005,0.675-0.026,1.35-0.005,2.046
			c0,0.538-0.005,1.05-0.005,1.635c0,0.312,0.061,0.591,0.174,0.854c0.68,8.754,3.546,18.293,9.336,28.182
			c1.339,2.283,2.682,4.408,4.04,6.396c-0.448,7.762,2.305,15.678,8.24,21.589c6.745,6.692,15.578,10.041,24.414,10.041
			c8.276,0,16.535-2.979,23.089-8.854c6.555,5.875,14.813,8.854,23.087,8.854c8.838,0,17.666-3.349,24.416-10.041
			c5.938-5.911,8.68-13.827,8.242-21.589c1.35-1.973,2.7-4.113,4.034-6.396c5.79-9.889,8.659-19.428,9.339-28.182
			c0.111-0.264,0.18-0.564,0.175-0.854c0-0.575-0.006-1.097-0.006-1.635c0.021-0.696,0-1.371-0.005-2.046
			c-0.021-12.562,0.385-14.28,4.071-22.687C156.884,63.356,157.27,63.475,157.67,63.475z M95.401,116.101v2.151l-0.032-2.151
			c-1.012-0.011-1.956-0.411-2.657-1.139c-0.707-0.733-1.084-1.688-1.07-2.7c0.021-2.072,1.719-3.729,3.817-3.729
			c1.018,0.011,1.967,0.417,2.679,1.155c0.712,0.723,1.087,1.682,1.076,2.679C99.183,114.414,97.469,116.101,95.401,116.101z
			 M128.128,103.735c-1.471,0-2.441-1.002-3.021-1.813c-2.325-5.68,0.786-8.628,0.971-8.786c0.896-0.78,0.996-2.136,0.231-3.037
			c-0.775-0.902-2.141-1.013-3.043-0.248c-0.211,0.169-4.482,3.907-3.079,10.726c-0.074,0.011-0.158,0.032-0.222,0.032
			c-0.881,0-1.793-0.775-1.962-1.06c-1.176-2.252-1.329-4.388-0.469-6.566c1.967-4.988,8.97-9.139,13.89-11.411
			c-0.611,4.287-0.163,7.014,0.459,9.318c2.342,8.474,1.551,10.567-1.107,12.034C129.805,103.466,128.919,103.735,128.128,103.735z
			 M68.15,109.673c0.712-0.738,1.661-1.145,2.716-1.16c2.062,0,3.758,1.677,3.784,3.744c0.013,1.012-0.367,1.956-1.073,2.699
			c-0.701,0.718-1.648,1.118-2.658,1.129l-0.037,2.151v-2.146c-2.073,0-3.787-1.688-3.813-3.738
			C67.059,111.355,67.441,110.395,68.15,109.673z M34.406,90.883c0.619-2.294,1.067-5.021,0.453-9.308
			C39.785,83.849,46.783,88,48.752,92.988c0.859,2.156,0.704,4.313-0.464,6.555c-0.177,0.312-1.091,1.07-1.97,1.07
			c-0.061,0-0.147-0.021-0.221-0.031c1.397-6.834-2.869-10.558-3.08-10.727c-0.907-0.785-2.268-0.67-3.045,0.248
			c-0.773,0.907-0.659,2.273,0.248,3.043c0.034,0.031,3.333,2.942,0.947,8.775c-0.583,0.801-1.55,1.803-3.019,1.803
			c-0.788,0-1.674-0.279-2.647-0.801C32.855,101.462,32.067,99.369,34.406,90.883z M12.621,56.401
			c-0.852,2.183-3.364,3.333-5.571,2.457c-2.209-0.854-3.312-3.359-2.462-5.561c0.659-1.675,2.236-2.756,4.021-2.756
			c0.53,0,1.055,0.104,1.556,0.304C12.379,51.708,13.481,54.209,12.621,56.401z M38.683,143.613
			c-3.473-3.449-5.653-7.721-6.55-12.192c10.22,12.45,20.329,17.255,27.696,19.011c2.689,0.639,5.395,0.896,8.066,0.944
			C57.81,154.065,46.593,151.47,38.683,143.613z M127.601,143.613c-7.921,7.868-19.132,10.441-29.209,7.763
			c2.642-0.095,5.373-0.306,8.062-0.944c7.367-1.751,17.477-6.57,27.691-19.011C133.254,135.908,131.07,140.169,127.601,143.613z
			 M153.662,56.406c-0.859-2.196,0.242-4.698,2.457-5.561c0.501-0.2,1.023-0.304,1.551-0.304c1.788,0,3.37,1.081,4.019,2.742
			c0.859,2.215-0.243,4.72-2.463,5.58C157.053,59.712,154.511,58.579,153.662,56.406z"/>
	</g>
</g>
<g>
</g>
<g>
</g>
<g>
</g>
<g>
</g>
<g>
</g>
<g>
</g>
<g>
</g>
<g>
</g>
<g>
</g>
<g>
</g>
<g>
</g>
<g>
</g>
<g>
</g>
<g>
</g>
<g>
</g>
</svg>
