<?xml version="1.0" encoding="iso-8859-1"?>
<!-- Generator: Adobe Illustrator 16.0.0, SVG Export Plug-In . SVG Version: 6.00 Build 0)  -->
<!DOCTYPE svg PUBLIC "-//W3C//DTD SVG 1.1//EN" "http://www.w3.org/Graphics/SVG/1.1/DTD/svg11.dtd">
<svg version="1.1" id="Capa_1" xmlns="http://www.w3.org/2000/svg" xmlns:xlink="http://www.w3.org/1999/xlink" x="0px" y="0px"
	 width="199.189px" height="199.189px" viewBox="0 0 199.189 199.189" style="enable-background:new 0 0 199.189 199.189;"
	 xml:space="preserve">
<g>
	<g>
		<path d="M198.792,85.272c-0.487-1.327-1.382-2.451-2.515-3.23c0.384-1.336,0.341-2.755-0.134-4.104
			c-0.384-1.048-1.017-1.982-1.852-2.731c-1.126-0.959-2.502-1.54-3.976-1.625c0.036-1.449-0.384-2.908-1.255-4.104
			c-0.646-0.91-1.534-1.626-2.533-2.095c-1.26-0.618-2.667-0.779-4.055-0.518c-0.664-1.203-1.699-2.208-2.99-2.819
			c-0.889-0.393-1.851-0.615-2.789-0.615c-0.042,0-0.396,0.013-0.432,0.019c-1.474,0.098-2.862,0.685-3.958,1.656
			c-0.986-1.06-2.32-1.769-3.775-2c-1.097-0.173-2.235-0.094-3.276,0.304c-1.346,0.487-2.472,1.374-3.251,2.503
			c-1.328-0.381-2.771-0.35-4.093,0.131c-1.047,0.372-1.954,0.989-2.728,1.857c-0.986,1.147-1.547,2.518-1.632,3.964
			c-1.528-0.03-2.917,0.39-4.092,1.254c-0.907,0.648-1.638,1.522-2.113,2.545c-0.608,1.285-0.767,2.707-0.505,4.059
			c-1.218,0.654-2.211,1.689-2.802,2.986c-0.475,1.017-0.693,2.138-0.614,3.249c0.091,1.477,0.682,2.874,1.644,3.961
			c-1.054,0.983-1.76,2.286-2.003,3.763c-0.158,1.103-0.073,2.234,0.305,3.282c0.486,1.34,1.382,2.466,2.521,3.245
			c-0.384,1.34-0.354,2.759,0.134,4.086c0.384,1.066,0.98,1.967,1.852,2.729c0.499,0.432,1.071,0.767,1.681,1.035
			c-3.581,1.717-7.155,4.481-11.655,8.135c-1.839,1.486-3.653,3.136-5.48,4.805c-0.048,0.036-0.104,0.085-0.127,0.134
			c0.955-3.19,0.852-6.376-0.311-9.475c0.371,0.061,0.693,0.188,1.102,0.188c1.778,0,4.402-0.664,6.808-3.854
			c3.982-5.292,1.534-10.181-4.359-17.357c-2.046-2.493-3.653-5.443-4.805-11.715c-0.109-0.576-0.505-1.023-1.047-1.19
			c-0.542-0.189-1.146-0.052-1.56,0.347c-0.548,0.518-13.414,12.796-12.951,23.718c0.152,3.701,1.803,6.819,4.884,9.255
			c0.919,0.743,2.466,1.212,3.945,1.212c1.645,0,2.99-0.615,4.025-1.638c3.178,5.327,2.082,11.191-3.13,16.714
			c-5.584,4.135-11.74,6.936-19.531,5.219c-0.962-0.213-1.872-0.561-2.737-0.913c1.857-1.504,3.471-3.276,4.677-5.426
			c2.983-5.298,3.495-11.923,1.389-18.194c-0.274-0.815-1.176-1.254-1.974-0.975c-0.812,0.269-1.245,1.176-0.974,1.974
			c1.832,5.425,1.418,11.137-1.154,15.661c-1.23,2.204-2.956,3.988-4.99,5.346c-2.037-1.375-3.766-3.16-4.993-5.346
			c-2.551-4.524-2.98-10.236-1.153-15.661c0.28-0.816-0.155-1.705-0.975-1.974c-0.853-0.268-1.702,0.159-1.976,0.975
			c-2.101,6.271-1.596,12.896,1.397,18.194c1.196,2.144,2.813,3.922,4.676,5.426c-0.892,0.365-1.791,0.694-2.737,0.913
			c-7.8,1.717-13.956-1.084-19.522-5.219c-5.221-5.522-6.323-11.368-3.139-16.714c1.035,1.022,2.396,1.638,4.028,1.638
			c1.474,0,3.021-0.469,3.949-1.205c3.081-2.455,4.726-5.572,4.881-9.262c0.462-10.921-12.407-23.2-12.955-23.718
			c-0.42-0.393-1.023-0.536-1.559-0.347c-0.536,0.167-0.929,0.633-1.047,1.19c-1.154,6.271-2.743,9.222-4.801,11.715
			c-5.9,7.171-8.345,12.078-4.366,17.357c2.409,3.19,5.039,3.854,6.817,3.854c0.393,0,0.722-0.134,1.096-0.188
			c-1.166,3.081-1.279,6.284-0.305,9.475c-0.052-0.049-0.1-0.098-0.131-0.134c-1.833-1.669-3.647-3.301-5.477-4.799
			c-4.5-3.659-8.08-6.405-11.651-8.141c0.597-0.269,1.172-0.604,1.677-1.035c0.853-0.756,1.483-1.688,1.851-2.729
			c0.475-1.327,0.524-2.758,0.131-4.086c1.166-0.779,2.034-1.912,2.5-3.245c0.386-1.054,0.487-2.21,0.313-3.282
			c-0.231-1.477-0.944-2.792-1.998-3.763c0.95-1.087,1.553-2.473,1.653-3.961c0.088-1.118-0.131-2.22-0.618-3.249
			c-0.612-1.278-1.589-2.313-2.804-2.986c0.268-1.373,0.097-2.78-0.512-4.071c-0.463-1.011-1.193-1.897-2.095-2.527
			c-1.193-0.88-2.682-1.297-4.092-1.261c-0.101-1.425-0.648-2.816-1.653-3.964c-0.746-0.868-1.689-1.486-2.731-1.857
			c-1.315-0.481-2.761-0.512-4.083-0.131c-0.773-1.147-1.909-2.016-3.236-2.487c-1.06-0.39-2.213-0.481-3.292-0.32
			c-1.455,0.231-2.783,0.941-3.766,2c-1.099-0.953-2.469-1.559-3.967-1.656C22.9,63.443,22.55,63.43,22.52,63.43
			c-0.947,0-1.928,0.204-2.813,0.627c-1.279,0.618-2.314,1.604-2.987,2.807c-1.397-0.262-2.792-0.088-4.058,0.512
			c-1.011,0.475-1.891,1.19-2.533,2.101c-0.877,1.196-1.303,2.655-1.245,4.104c-1.453,0.085-2.862,0.648-3.992,1.632
			c-0.816,0.725-1.446,1.677-1.851,2.731c-0.475,1.343-0.512,2.755-0.131,4.092c-1.154,0.779-2.034,1.9-2.533,3.249
			c-0.371,1.065-0.466,2.174-0.292,3.267c0.237,1.464,0.956,2.786,2.015,3.772c-0.962,1.083-1.559,2.466-1.659,3.957
			c-0.088,1.121,0.131,2.235,0.612,3.252c0.609,1.273,1.596,2.309,2.811,2.984c-0.268,1.376-0.113,2.788,0.499,4.073
			c0.475,1.011,1.197,1.894,2.119,2.539c1.178,0.864,2.469,1.218,4.092,1.242c0.088,1.443,0.648,2.85,1.632,3.946
			c0.707,0.883,1.629,1.498,2.694,1.899c1.315,0.475,2.75,0.523,4.098,0.128c0.773,1.163,1.894,2.027,3.236,2.515
			c0.722,0.262,1.477,0.39,2.244,0.39c0.35,0,0.685-0.024,1.035-0.092c1.464-0.236,2.792-0.955,3.778-2.015
			c1.096,0.956,2.469,1.559,3.958,1.662c0.045,0.006,0.393,0.019,0.438,0.019c0.947,0,1.9-0.213,2.792-0.646
			c1.291-0.609,2.326-1.583,2.987-2.795c1.404,0.273,2.813,0.085,4.055-0.506c1.014-0.475,1.876-1.181,2.549-2.106
			c0.536-0.743,0.861-1.596,1.035-2.467c2.755,1.115,5.663,3.124,8.96,5.7c-5.057-0.768-9.74,0.883-13.518,4.913
			c-0.584,0.634-0.56,1.614,0.076,2.205c0.298,0.279,0.679,0.414,1.066,0.414c0.405,0,0.828-0.158,1.142-0.493
			c4.969-5.292,11.679-5.462,18.855-0.481c0.067,0.049,0.137,0.012,0.21,0.049c0.256,0.231,0.512,0.433,0.767,0.664
			c2.421,2.186,4.933,4.451,7.645,6.473c0.137,0.14,0.244,0.292,0.387,0.438c0.137,0.128,0.356,0.128,0.512,0.2
			c4.615,3.282,9.77,5.779,15.938,5.779c1.696,0,3.504-0.189,5.362-0.615c1.827-0.402,3.504-1.133,5.087-1.961
			c1.583,0.847,3.248,1.559,5.088,1.961c1.878,0.408,3.662,0.621,5.367,0.621c6.138,0,11.302-2.484,15.917-5.785
			c0.171-0.085,0.384-0.078,0.512-0.2c0.14-0.146,0.256-0.299,0.39-0.438c2.71-2.021,5.225-4.293,7.654-6.473
			c0.256-0.231,0.499-0.433,0.755-0.664c0.073-0.037,0.146,0,0.219-0.049c7.173-4.975,13.896-4.805,18.853,0.481
			c0.311,0.335,0.712,0.493,1.145,0.493c0.378,0,0.761-0.135,1.071-0.414c0.634-0.597,0.652-1.584,0.073-2.205
			c-3.787-4.03-8.47-5.687-13.53-4.913c3.282-2.576,6.199-4.585,8.964-5.7c0.194,0.871,0.499,1.705,1.047,2.467
			c0.646,0.907,1.535,1.632,2.539,2.106c1.249,0.591,2.674,0.779,4.05,0.506c0.657,1.212,1.698,2.204,2.996,2.807
			c0.9,0.402,1.832,0.634,2.795,0.634c0.03,0,0.383-0.013,0.414-0.013c1.479-0.109,2.874-0.694,3.958-1.668
			c0.998,1.06,2.325,1.778,3.799,2.015c0.329,0.067,0.676,0.092,1.023,0.092c0.768,0,1.522-0.128,2.253-0.39
			c1.333-0.487,2.46-1.37,3.228-2.515c1.339,0.396,2.776,0.371,4.104-0.128c1.06-0.39,1.967-1.011,2.716-1.857
			c0.986-1.114,1.547-2.515,1.65-3.964c0.073,0,0.128,0,0.201,0c1.412,0,2.74-0.426,3.896-1.248
			c0.907-0.652,1.639-1.535,2.113-2.545c0.603-1.285,0.761-2.71,0.493-4.074c1.218-0.67,2.21-1.699,2.801-2.983
			c0.476-1.011,0.688-2.138,0.634-3.252c-0.11-1.479-0.694-2.886-1.669-3.97c1.048-0.987,1.778-2.308,2.01-3.767
			C199.273,87.467,199.175,86.356,198.792,85.272z M123.938,109.142c-0.914,0-1.718-0.323-2.01-0.543
			c-2.368-1.875-3.58-4.152-3.702-6.947c-0.316-7.124,6.51-15.47,9.998-19.275c1.315,5.358,3.081,8.108,4.829,10.245
			c5.846,7.124,6.813,10.145,4.28,13.512c-1.303,1.735-2.74,2.612-4.293,2.612c-1.175,0-2.21-0.469-2.978-0.919
			c-5.364-5.121-3.245-9.986-3.166-10.193c0.365-0.779,0.036-1.687-0.73-2.07c-0.779-0.365-1.699-0.043-2.083,0.725
			c-0.128,0.256-2.605,5.767,2.059,11.794C125.826,108.563,125.21,109.142,123.938,109.142z M61.734,106.133
			c-2.521-3.36-1.571-6.388,4.29-13.512c1.732-2.131,3.51-4.862,4.825-10.235c3.492,3.775,10.294,12.147,10.002,19.271
			c-0.131,2.795-1.334,5.072-3.711,6.948c-0.287,0.231-1.09,0.542-1.995,0.542c-1.278,0-1.891-0.578-2.207-1.066
			c4.664-6.027,2.195-11.551,2.058-11.807c-0.369-0.767-1.291-1.071-2.058-0.725c-0.779,0.378-1.111,1.291-0.755,2.07
			c0.106,0.201,2.207,5.066-3.167,10.206c-0.755,0.45-1.791,0.913-2.968,0.913C64.496,108.746,63.037,107.869,61.734,106.133z
			 M45.777,105.403c-0.576-0.194-1.215-0.024-1.635,0.433c-0.411,0.438-0.523,1.102-0.28,1.674c0.5,1.164,0.362,2.461-0.369,3.453
			c-0.365,0.48-0.822,0.871-1.364,1.12c-0.922,0.438-2.046,0.421-2.987,0c-0.417-0.194-0.91-0.2-1.327,0.007
			c-0.414,0.194-0.731,0.572-0.855,1.022c-0.256,1.005-0.947,1.845-1.891,2.29c-0.484,0.207-1.02,0.285-1.714,0.328
			c-1.239-0.092-2.326-0.798-2.898-1.924c-0.274-0.549-0.792-0.828-1.458-0.853c-0.612,0.024-1.154,0.407-1.379,0.974
			c-0.448,1.146-1.495,1.985-2.713,2.181c-0.566,0.115-1.166,0.036-1.732-0.152c-0.974-0.372-1.738-1.139-2.101-2.106
			c-0.149-0.433-0.5-0.78-0.929-0.938c-0.165-0.061-0.362-0.091-0.539-0.091c-0.268,0-0.548,0.072-0.792,0.207
			c-0.892,0.523-1.994,0.633-2.959,0.286c-0.563-0.201-1.05-0.555-1.449-0.999c-0.804-0.913-1.071-2.21-0.679-3.373
			c0.183-0.604,0.024-1.225-0.423-1.65c-0.435-0.402-1.111-0.523-1.684-0.28c-1.148,0.487-2.469,0.341-3.45-0.378
			c-0.484-0.358-0.864-0.803-1.12-1.352c-0.438-0.943-0.438-2.027,0-2.989c0.198-0.408,0.198-0.907,0.006-1.334
			c-0.188-0.407-0.575-0.725-1.023-0.847c-1.004-0.262-1.851-0.955-2.295-1.93c-0.256-0.523-0.368-1.114-0.329-1.687
			c0.085-1.249,0.798-2.326,1.912-2.887c0.551-0.28,0.898-0.867,0.874-1.464c-0.043-0.618-0.411-1.154-0.99-1.379
			c-1.172-0.457-1.96-1.453-2.183-2.713c-0.101-0.584-0.04-1.172,0.143-1.714c0.368-0.992,1.147-1.76,2.119-2.112
			c0.429-0.159,0.779-0.5,0.935-0.938c0.158-0.417,0.112-0.911-0.125-1.315c-0.536-0.911-0.643-1.977-0.28-2.981
			c0.201-0.573,0.536-1.06,0.962-1.434c0.91-0.804,2.238-1.071,3.41-0.679c0.6,0.173,1.227,0.012,1.647-0.436
			c0.405-0.451,0.523-1.111,0.28-1.671c-0.499-1.16-0.368-2.451,0.387-3.468c0.335-0.466,0.798-0.853,1.333-1.108
			c0.947-0.438,2.04-0.444,2.962,0c0.417,0.186,0.911,0.198,1.328,0.006c0.423-0.195,0.73-0.576,0.868-1.017
			c0.268-1.029,0.935-1.851,1.912-2.302c0.463-0.219,0.944-0.375,1.705-0.329c1.227,0.085,2.329,0.804,2.905,1.924
			c0.28,0.551,0.898,0.874,1.452,0.862c0.624-0.037,1.16-0.411,1.385-0.983c0.454-1.163,1.477-1.979,2.713-2.17
			c0.572-0.113,1.172-0.058,1.726,0.149c0.978,0.356,1.745,1.114,2.101,2.101c0.155,0.423,0.499,0.78,0.935,0.922
			c0.42,0.155,0.91,0.131,1.321-0.131c0.892-0.523,1.96-0.63,2.987-0.268c0.551,0.194,1.035,0.529,1.428,0.98
			c0.831,0.935,1.087,2.207,0.694,3.397c-0.195,0.584-0.024,1.215,0.411,1.638c0.46,0.414,1.124,0.518,1.684,0.29
			c1.148-0.487,2.469-0.356,3.474,0.387c0.466,0.334,0.853,0.797,1.102,1.328c0.444,0.94,0.444,2.04-0.006,2.986
			c-0.192,0.411-0.192,0.91,0,1.328c0.201,0.411,0.575,0.731,1.023,0.855c1.017,0.262,1.863,0.947,2.295,1.888
			c0.25,0.542,0.375,1.148,0.329,1.729c-0.079,1.228-0.81,2.323-1.915,2.88c-0.548,0.274-0.896,0.846-0.871,1.453
			c0.024,0.618,0.405,1.166,0.983,1.391c1.172,0.459,1.97,1.47,2.183,2.704c0.101,0.584,0.042,1.169-0.155,1.735
			c-0.356,0.974-1.124,1.741-2.107,2.106c-0.426,0.146-0.779,0.5-0.938,0.926c-0.143,0.433-0.11,0.914,0.131,1.328
			c0.533,0.906,0.648,1.967,0.271,2.983c-0.189,0.548-0.518,1.028-0.968,1.425C48.271,105.512,46.956,105.787,45.777,105.403z
			 M193.708,93.626c1.126,0.561,1.839,1.638,1.93,2.893c0.037,0.59-0.091,1.169-0.347,1.692c-0.427,0.944-1.279,1.656-2.283,1.918
			c-0.445,0.122-0.835,0.421-1.023,0.847s-0.188,0.913,0.006,1.334c0.438,0.949,0.438,2.033,0,2.989
			c-0.249,0.548-0.633,0.986-1.107,1.346c-0.615,0.42-1.328,0.646-2.07,0.646l0,0c-0.47,0-0.938-0.098-1.401-0.28
			c-0.56-0.256-1.218-0.128-1.674,0.28c-0.451,0.414-0.621,1.047-0.421,1.65c0.384,1.169,0.122,2.466-0.693,3.385
			c-0.384,0.433-0.89,0.786-1.425,0.975c-0.98,0.365-2.077,0.25-2.984-0.273c-0.384-0.238-0.889-0.28-1.315-0.128
			c-0.432,0.158-0.779,0.505-0.925,0.938c-0.365,0.974-1.133,1.741-2.107,2.106c-0.572,0.195-1.181,0.269-1.723,0.158
			c-1.206-0.182-2.253-1.035-2.734-2.186c-0.213-0.566-0.768-0.943-1.376-0.98c-0.024,0-0.049,0-0.073,0
			c-0.591,0-1.126,0.329-1.395,0.853c-0.572,1.133-1.656,1.839-3.13,1.937c-0.499,0-0.998-0.134-1.467-0.329
			c-0.95-0.45-1.65-1.291-1.906-2.296c-0.128-0.45-0.42-0.846-0.853-1.022c-0.408-0.207-0.907-0.201-1.327-0.006
			c-0.938,0.426-2.046,0.426-2.99,0c-0.536-0.25-0.998-0.646-1.352-1.12c-0.725-0.993-0.877-2.29-0.378-3.459
			c0.244-0.566,0.128-1.218-0.28-1.669c-0.414-0.462-1.065-0.64-1.638-0.433c-1.175,0.391-2.49,0.122-3.41-0.688
			c-0.432-0.384-0.767-0.877-0.962-1.431c-0.365-0.98-0.256-2.064,0.274-2.978c0.226-0.384,0.28-0.883,0.122-1.315
			c-0.146-0.427-0.5-0.779-0.926-0.926c-0.98-0.365-1.748-1.133-2.107-2.112c-0.194-0.561-0.256-1.164-0.152-1.736
			c0.195-1.208,1.012-2.219,2.181-2.697c0.578-0.225,0.962-0.767,0.986-1.392c0.024-0.624-0.323-1.178-0.871-1.452
			c-1.108-0.554-1.833-1.665-1.924-2.892c-0.037-0.587,0.091-1.175,0.341-1.711c0.426-0.928,1.272-1.632,2.289-1.894
			c0.438-0.125,0.828-0.426,1.012-0.855c0.194-0.417,0.194-0.91,0-1.327c-0.433-0.941-0.433-2.046-0.013-2.987
			c0.256-0.542,0.651-1.005,1.139-1.346c0.975-0.725,2.296-0.874,3.459-0.375c0.572,0.222,1.212,0.131,1.681-0.295
			c0.45-0.399,0.627-1.053,0.426-1.638c-0.384-1.172-0.134-2.469,0.676-3.397c0.39-0.451,0.896-0.786,1.425-0.98
			c0.986-0.368,2.083-0.256,2.984,0.268c0.39,0.244,0.895,0.286,1.321,0.131c0.432-0.149,0.779-0.5,0.919-0.929
			c0.372-0.98,1.139-1.745,2.125-2.107c0.566-0.194,1.169-0.25,1.724-0.149c1.205,0.179,2.24,1.014,2.71,2.167
			c0.231,0.582,0.767,0.95,1.382,0.986c0.64,0,1.169-0.311,1.455-0.861c0.579-1.114,1.656-1.833,3.124-1.924
			c0.505,0,1.011,0.115,1.461,0.322c0.969,0.463,1.663,1.285,1.931,2.314c0.134,0.448,0.42,0.822,0.858,1.017
			c0.433,0.198,0.907,0.186,1.334-0.006c0.907-0.444,2.009-0.438,2.959,0.006c0.536,0.25,0.999,0.636,1.346,1.102
			c0.737,1.017,0.889,2.308,0.39,3.461c-0.243,0.561-0.134,1.209,0.28,1.678c0.414,0.441,1.047,0.636,1.632,0.429
			c1.193-0.386,2.496-0.113,3.416,0.679c0.433,0.387,0.768,0.88,0.968,1.434c0.366,0.986,0.256,2.07-0.279,2.987
			c-0.231,0.398-0.28,0.892-0.122,1.315c0.152,0.438,0.505,0.779,0.932,0.938c0.975,0.353,1.754,1.12,2.106,2.088
			c0.195,0.566,0.256,1.166,0.158,1.756c-0.194,1.209-1.011,2.22-2.18,2.695c-0.591,0.225-0.95,0.761-0.992,1.379
			C192.831,92.774,193.171,93.346,193.708,93.626z"/>
		<path d="M174.454,75.807c-0.013-0.012-0.013-0.04-0.024-0.052c-0.098-0.055-0.207-0.012-0.305-0.042
			c-0.286-0.055-0.572-0.095-0.871-0.131c-0.006,0-0.012,0-0.024,0c-0.669-0.107-1.376-0.174-2.082-0.174
			c-1.291,0-2.582,0.161-3.849,0.481c-2.223,0.566-4.214,1.608-5.9,2.959c-0.134,0.112-0.305,0.131-0.39,0.292
			c-0.012,0.027,0,0.064-0.012,0.089c-2.595,2.213-4.396,5.212-5.127,8.549c-0.007,0.012-0.019,0.012-0.037,0.012
			c-0.024,0.052,0,0.125-0.024,0.162c-0.469,2.265-0.512,4.658,0.104,7.051c1.754,7.015,8.038,11.923,15.241,11.923
			c1.291,0,2.594-0.158,3.86-0.481c8.428-2.137,13.543-10.717,11.424-19.126C184.933,81.406,180.226,77.034,174.454,75.807z
			 M171.542,83.625l2.771-4.652c2.314,0.618,4.396,1.814,6.017,3.51l-2.813,4.707L171.542,83.625z M175.915,89.873l-3.568,5.965
			l-5.967-3.551l3.562-5.973L175.915,89.873z M182.284,85.285c0.476,0.886,0.883,1.802,1.127,2.798
			c0.237,0.935,0.341,1.902,0.359,2.837l-3.562-2.131L182.284,85.285z M168.06,78.912c0.943-0.231,1.918-0.344,2.874-0.362
			l-2.077,3.48l-3.471-2.083C166.227,79.509,167.116,79.146,168.06,78.912z M162.623,81.929l4.64,2.768l-3.562,5.967l-4.67-2.78
			C159.657,85.589,160.893,83.537,162.623,81.929z M158.914,94.242c-0.256-0.996-0.353-2.007-0.359-2.99l3.526,2.113l-2.138,3.556
			C159.529,96.081,159.158,95.191,158.914,94.242z M161.958,99.667l2.819-4.72l5.967,3.568l-2.843,4.756
			C165.625,102.632,163.578,101.396,161.958,99.667z M174.247,103.412c-1.011,0.256-2.004,0.341-2.99,0.341l2.18-3.635l3.63,2.18
			C176.183,102.766,175.257,103.156,174.247,103.412z M179.793,100.282l-4.78-2.85l3.581-5.964l4.737,2.823
			C182.735,96.591,181.517,98.662,179.793,100.282z"/>
		<path d="M43.244,87.79c-0.012,0-0.024,0-0.03-0.012c-0.734-3.337-2.536-6.336-5.13-8.549c-0.012-0.024,0.012-0.062-0.012-0.089
			c-0.094-0.155-0.268-0.18-0.386-0.298c-1.69-1.346-3.675-2.387-5.907-2.954c-1.254-0.32-2.542-0.481-3.833-0.481
			c-0.707,0-1.416,0.085-2.098,0.174c0,0-0.012,0-0.024,0c-0.286,0.036-0.573,0.076-0.859,0.131
			c-0.106,0.03-0.207-0.013-0.301,0.042c-0.024,0.012-0.024,0.04-0.037,0.052c-5.772,1.227-10.488,5.593-11.983,11.511
			c-2.119,8.422,3.005,17.001,11.436,19.133c1.254,0.316,2.558,0.475,3.845,0.475c7.216,0,13.494-4.908,15.253-11.916
			c0.606-2.394,0.56-4.787,0.094-7.052C43.244,87.909,43.271,87.842,43.244,87.79z M40.166,94.253
			c-0.244,0.944-0.624,1.827-1.047,2.667l-2.146-3.556l3.529-2.113C40.495,92.235,40.422,93.246,40.166,94.253z M31.2,103.333
			l-2.874-4.804l5.964-3.568l2.883,4.804C35.569,101.482,33.499,102.711,31.2,103.333z M15.66,88.083
			c0.25-0.996,0.649-1.934,1.124-2.798l2.095,3.504l-3.556,2.131C15.322,89.985,15.429,89.032,15.66,88.083z M18.742,82.483
			c1.613-1.696,3.702-2.911,6.01-3.51l2.773,4.652l-5.973,3.565L18.742,82.483z M29.129,86.301l3.565,5.974l-5.974,3.562
			l-3.565-5.977L29.129,86.301z M40.042,87.884l-4.67,2.78l-3.562-5.967l4.634-2.762C38.175,83.537,39.423,85.595,40.042,87.884z
			 M33.675,79.959l-3.468,2.07l-2.077-3.48c0.959,0.018,1.939,0.131,2.868,0.362C31.946,79.146,32.844,79.524,33.675,79.959z
			 M15.749,94.291l4.737-2.823l3.568,5.964l-4.783,2.85C17.563,98.662,16.333,96.591,15.749,94.291z M22.008,102.292l3.641-2.181
			l2.202,3.685c-1.011-0.006-2.028-0.134-3.011-0.39C23.823,103.156,22.894,102.766,22.008,102.292z"/>
	</g>
</g>
<g>
</g>
<g>
</g>
<g>
</g>
<g>
</g>
<g>
</g>
<g>
</g>
<g>
</g>
<g>
</g>
<g>
</g>
<g>
</g>
<g>
</g>
<g>
</g>
<g>
</g>
<g>
</g>
<g>
</g>
</svg>
