<?xml version="1.0" encoding="iso-8859-1"?>
<!-- Generator: Adobe Illustrator 16.0.0, SVG Export Plug-In . SVG Version: 6.00 Build 0)  -->
<!DOCTYPE svg PUBLIC "-//W3C//DTD SVG 1.1//EN" "http://www.w3.org/Graphics/SVG/1.1/DTD/svg11.dtd">
<svg version="1.1" id="Capa_1" xmlns="http://www.w3.org/2000/svg" xmlns:xlink="http://www.w3.org/1999/xlink" x="0px" y="0px"
	 width="192.058px" height="192.058px" viewBox="0 0 192.058 192.058" style="enable-background:new 0 0 192.058 192.058;"
	 xml:space="preserve">
<g>
	<g>
		<path d="M15.158,100.816c-0.012,0.646-0.024,1.254-0.036,1.942c-0.006,0.353,0.063,0.682,0.195,0.999
			c0.627,9.931,3.714,20.794,10.111,32.083c1.474,2.606,2.969,5.042,4.466,7.308c-0.624,8.793,2.363,17.811,8.997,24.6
			c7.688,7.85,17.89,11.801,28.102,11.801c9.917,0,19.842-3.727,27.475-11.167c0.48-0.476,0.749-1.206,0.749-1.894
			c0-0.908-0.493-1.724-1.285-2.181c-0.798-0.45-1.766-0.42-2.533,0.067c-6.688,4.189-15.412,5.353-23.942,3.203
			c-8.498-2.168-20.563-8.446-32.418-25.721c0.767-5.785,3.379-11.332,7.852-15.723c7.824-7.66,20.109-7.873,28.302-0.907
			c-0.625,1.224-1.005,2.618-1.005,4.073c-0.012,2.473,0.941,4.805,2.688,6.534c1.738,1.754,4.058,2.734,6.515,2.734h0.006
			c5.093,0,9.24-4.141,9.247-9.226c0.018-5.06-4.116-9.219-9.222-9.243c-1.809,0-3.48,0.548-4.908,1.425
			c-4.47-3.824-9.889-5.943-15.458-6.254c1.355-3.281,1.492-6.618,0.237-9.938C55.14,94.361,37.527,87.8,36.778,87.539
			c-0.861-0.32-1.814-0.131-2.505,0.453c-0.688,0.618-0.987,1.535-0.786,2.445c1.428,6.263,1.121,9.587,0.222,12.645
			c-2.375,8.184-3.766,15.246,3.337,19.326c0.6,0.354,1.19,0.549,1.784,0.779c-3.593,3.715-6.15,8.074-7.584,12.727
			c-0.493-0.828-0.983-1.687-1.471-2.533c-17.11-30.238-9.353-56.891,7.289-68.241c0.049,0.095,0.107,0.177,0.155,0.269
			c2.962,5.081,7.021,12.053,16.158,12.053c2.713,0,5.73-0.649,8.966-1.946c1.395-0.554,2.673-1.333,4.04-2.201
			c3.042-1.888,6.491-4.04,13.935-4.04c2.125,0,4.503,0.167,7.058,0.53c0.874,0.094,1.741-0.225,2.289-0.911
			c0.548-0.685,0.691-1.619,0.387-2.45c-0.155-0.399-3.516-9.104-12.906-14.417c2.049-1.863,3.547-3.802,4.926-5.593
			c2.768-3.617,4.768-6.223,10.117-7.057c0.91-0.131,1.671-0.779,1.973-1.659c0.299-0.874,0.098-1.839-0.523-2.5
			c-0.313-0.35-7.709-8.187-18.027-8.187c-4.034,0-7.919,1.184-11.605,3.541c-0.877-10.413-6.994-16.964-7.295-17.278
			c-0.603-0.648-1.501-0.91-2.356-0.703c-0.853,0.18-1.547,0.822-1.821,1.656c-3.946,12.093-8.4,14.921-12.328,17.384
			c-1.358,0.874-2.612,1.677-3.727,2.701c-12.124,11.079-6.062,20.7-2.098,26.619c-6.64,4.494-12.062,11.073-15.43,19.242
			c-0.707-2.631-1.766-5.374-3.319-9.085c1.416-1.047,2.588-2.445,3.285-4.165c2.021-5.012-0.393-10.75-5.398-12.787
			c-4.938-1.985-10.805,0.511-12.796,5.41c-0.983,2.433-0.965,5.081,0.058,7.514c1.023,2.421,2.923,4.29,5.337,5.271
			c1.178,0.478,2.426,0.722,3.69,0.722c0.399,0,0.773-0.131,1.166-0.168c4.046,9.603,4.466,11.518,4.217,25.952
			C15.186,99.513,15.152,100.146,15.158,100.816z M66.228,172.418c2.923,0.736,5.879,1.15,8.79,1.193
			c-11.341,2.722-23.817-0.421-32.559-9.341c-3.824-3.909-6.211-8.707-7.173-13.701C46.618,164.728,57.935,170.311,66.228,172.418z
			 M76.415,126.347c0.804-0.803,1.876-1.242,2.999-1.242c2.345,0.007,4.247,1.925,4.241,4.263c0,2.339-1.909,4.244-4.253,4.244
			c-1.129,0-2.195-0.444-2.999-1.248c-0.798-0.822-1.242-1.882-1.236-3.008C75.161,128.21,75.611,127.152,76.415,126.347z
			 M38.492,104.512c0.959-3.307,1.196-6.54,0.697-10.504c5.52,2.685,13.295,7.459,15.427,13.122c0.929,2.454,0.725,4.871-0.636,7.38
			c-0.198,0.347-1.215,1.163-2.174,1.163c-0.064,0-0.146-0.037-0.219-0.037c1.653-7.684-3.105-12.001-3.337-12.189
			c-1.035-0.914-2.576-0.792-3.486,0.219c-0.91,0.998-0.828,2.576,0.171,3.501c0.149,0.134,3.635,3.501,0.965,9.883
			c-0.654,0.913-1.75,2.003-3.379,2.003c-0.898,0-1.909-0.316-3.017-0.949C36.51,116.379,35.706,114.096,38.492,104.512z
			 M39.844,38.003c0.898-0.828,1.927-1.453,3.026-2.156c3.678-2.326,8.562-5.407,12.751-15.552
			c1.881,3.249,4.028,8.549,3.392,15.177c-0.101,1.029,0.447,2.006,1.379,2.469c0.929,0.454,2.049,0.293,2.804-0.404
			c3.937-3.654,8.114-5.514,12.422-5.514c4.488,0,8.391,1.997,10.991,3.79c-4.046,1.778-6.296,4.734-8.491,7.597
			c-1.869,2.45-3.809,4.969-7.057,7.026c-0.792,0.512-1.236,1.422-1.148,2.351c0.094,0.923,0.697,1.732,1.577,2.083
			c5.967,2.326,9.697,6.455,11.773,9.502c-10.638-0.649-15.719,2.35-19.519,4.722c-1.102,0.685-2.119,1.352-3.249,1.781
			c-2.643,1.054-5.042,1.604-7.118,1.604c-6.269,0-9.104-4.871-11.85-9.572c-0.447-0.779-0.883-1.522-1.315-2.213
			c-0.429-0.679-0.917-1.416-1.416-2.159C34.781,52.589,30.637,46.434,39.844,38.003z M14.3,65.054
			c-0.98,2.411-3.83,3.684-6.299,2.661c-1.19-0.481-2.119-1.41-2.625-2.588c-0.505-1.179-0.511-2.494-0.024-3.696
			c0.749-1.833,2.5-3.021,4.476-3.021c0.625,0,1.242,0.131,1.821,0.362C14.105,59.772,15.295,62.597,14.3,65.054z"/>
		<path d="M182.248,73.064c1.267,0,2.509-0.255,3.684-0.721c2.424-0.987,4.317-2.856,5.341-5.271
			c1.022-2.438,1.047-5.087,0.066-7.526c-1.991-4.893-7.812-7.407-12.817-5.398c-4.993,2.037-7.404,7.776-5.377,12.793
			c0.688,1.714,1.869,3.105,3.27,4.153c-1.546,3.711-2.605,6.455-3.312,9.085c-3.373-8.163-8.786-14.748-15.436-19.242
			c3.964-5.9,10.028-15.521-2.095-26.625c-1.108-1.011-2.362-1.827-3.721-2.694c-3.934-2.469-8.385-5.301-12.33-17.385
			c-0.28-0.834-0.975-1.452-1.827-1.656c-0.864-0.207-1.754,0.067-2.351,0.697c-0.304,0.332-6.43,6.884-7.295,17.278
			c-3.689-2.356-7.574-3.541-11.605-3.541c-10.315,0-17.71,7.855-18.03,8.187c-0.63,0.673-0.828,1.645-0.523,2.512
			c0.308,0.868,1.06,1.498,1.967,1.647c5.353,0.834,7.355,3.446,10.12,7.058c1.376,1.79,2.868,3.748,4.926,5.593
			c-9.389,5.319-12.75,14.005-12.902,14.416c-0.305,0.828-0.158,1.748,0.384,2.445c0.535,0.679,1.431,0.999,2.289,0.91
			c2.558-0.362,4.933-0.53,7.052-0.53c7.446,0,10.899,2.162,13.938,4.04c1.37,0.868,2.649,1.647,4.043,2.208
			c3.24,1.285,6.254,1.946,8.97,1.946c9.134,0,13.195-6.966,16.161-12.066c0.048-0.107,0.109-0.162,0.151-0.268
			c16.636,11.341,24.399,38.021,7.289,68.241c-0.493,0.864-0.98,1.699-1.474,2.521c-1.425-4.64-3.988-8.999-7.581-12.714
			c0.591-0.243,1.182-0.426,1.784-0.779c7.1-4.062,5.712-11.155,3.337-19.327c-0.907-3.062-1.193-6.381,0.22-12.656
			c0.2-0.898-0.104-1.814-0.786-2.433c-0.682-0.594-1.644-0.773-2.503-0.469c-0.748,0.28-18.364,6.851-22.518,17.805
			c-1.254,3.3-1.114,6.625,0.244,9.938c-5.572,0.305-10.997,2.424-15.454,6.254c-1.462-0.913-3.154-1.425-4.933-1.425
			c-5.084,0.036-9.225,4.177-9.207,9.236c0,5.091,4.153,9.231,9.243,9.231h0.007c2.466-0.012,4.779-0.979,6.515-2.733
			c1.748-1.742,2.698-4.068,2.686-6.521c0-1.443-0.371-2.832-1.011-4.092c8.202-6.961,20.484-6.76,28.314,0.913
			c4.464,4.359,7.088,9.938,7.85,15.704c-11.85,17.281-23.919,23.57-32.413,25.732c-8.531,2.168-17.257,0.992-23.942-3.197
			c-0.773-0.492-1.741-0.469-2.533-0.023c-0.792,0.426-1.285,1.32-1.285,2.216c0,0.664,0.269,1.315,0.749,1.784
			c7.63,7.453,17.549,11.168,27.469,11.168c10.218,0,20.417-3.939,28.107-11.795c6.619-6.783,9.621-15.802,8.993-24.606
			c1.498-2.247,2.99-4.688,4.464-7.295c6.399-11.295,9.486-22.164,10.114-32.083c0.134-0.317,0.194-0.652,0.194-0.993
			c-0.012-0.688-0.024-1.303-0.036-1.948c0-0.646-0.024-1.303-0.043-1.949c-0.256-14.437,0.164-16.349,4.22-25.951
			C181.475,72.94,181.84,73.064,182.248,73.064z M153.27,58.536c-0.499,0.743-0.986,1.452-1.413,2.165
			c-0.432,0.685-0.87,1.428-1.314,2.207c-2.746,4.701-5.584,9.572-11.85,9.572c-2.076,0-4.476-0.551-7.118-1.599
			c-1.133-0.436-2.156-1.102-3.252-1.787c-3.44-2.146-7.709-4.808-16.587-4.808c-0.938,0-1.93,0.031-2.953,0.092
			c2.064-3.036,5.778-7.164,11.795-9.502c0.889-0.351,1.485-1.16,1.583-2.083c0.098-0.929-0.354-1.839-1.151-2.35
			c-3.251-2.058-5.188-4.576-7.057-7.027c-2.211-2.874-4.451-5.824-8.513-7.603c2.594-1.787,6.491-3.784,11.009-3.784
			c4.299,0,8.488,1.86,12.422,5.514c0.755,0.697,1.876,0.877,2.801,0.405c0.932-0.462,1.48-1.44,1.377-2.469
			c-0.628-6.579,1.521-11.886,3.397-15.152c4.195,10.132,9.073,13.201,12.751,15.527c1.102,0.685,2.131,1.327,3.02,2.143
			C161.423,46.434,157.282,52.589,153.27,58.536z M115.657,132.345c-0.804,0.804-1.876,1.248-2.996,1.248
			c-2.345,0-4.263-1.912-4.263-4.256c0-2.332,1.912-4.244,4.25-4.25c2.345,0,4.257,1.899,4.257,4.244
			C116.905,130.476,116.461,131.536,115.657,132.345z M149.524,119.052c-1.632,0-2.728-1.132-3.379-2.021
			c-2.631-6.332,0.773-9.682,0.968-9.864c1.011-0.907,1.114-2.466,0.207-3.501s-2.472-1.145-3.507-0.231
			c-0.231,0.194-4.987,4.513-3.337,12.19c-0.067,0.012-0.152,0.037-0.22,0.037c-0.956,0-1.979-0.816-2.168-1.146
			c-1.363-2.509-1.57-4.938-0.645-7.397c2.131-5.639,9.9-10.438,15.43-13.117c-0.5,3.959-0.262,7.186,0.694,10.498
			c2.788,9.597,1.979,11.85-1.035,13.598C151.431,118.742,150.42,119.052,149.524,119.052z M149.61,164.259
			c-8.738,8.932-21.209,12.08-32.565,9.353c2.911-0.062,5.858-0.457,8.781-1.193c8.293-2.107,19.619-7.69,30.951-21.849
			C155.814,155.576,153.428,160.362,149.61,164.259z M177.754,65.066c-0.986-2.469,0.195-5.3,2.643-6.299
			c0.591-0.243,1.206-0.375,1.833-0.375c1.967,0,3.732,1.184,4.476,3.02c0.487,1.185,0.475,2.5-0.024,3.696
			s-1.431,2.107-2.631,2.594C181.621,68.714,178.747,67.465,177.754,65.066z"/>
	</g>
</g>
<g>
</g>
<g>
</g>
<g>
</g>
<g>
</g>
<g>
</g>
<g>
</g>
<g>
</g>
<g>
</g>
<g>
</g>
<g>
</g>
<g>
</g>
<g>
</g>
<g>
</g>
<g>
</g>
<g>
</g>
</svg>
